<svg width="86" height="91" viewBox="0 0 86 91" fill="none" xmlns="http://www.w3.org/2000/svg">
<g opacity="0.3">
<path d="M19.0082 20.3728C26.8875 12.6309 39.7516 12.6309 47.6844 20.3728C49.0343 21.6946 50.1537 23.1588 51.0426 24.7166C50.7677 24.6348 50.4904 24.5571 50.2109 24.4838L50.2021 24.4815C36.5406 20.9212 22.4575 28.8576 18.8141 42.2274C17.1716 48.1309 17.8432 54.0932 20.2532 59.2261C20.0712 59.1647 19.9013 59.0641 19.7587 58.9245L14.5326 53.807C13.7554 53.0459 12.469 53.0459 11.6918 53.807C10.9146 54.5681 10.9146 55.8277 11.6918 56.5888L16.891 61.68C17.427 62.2049 17.427 63.0447 16.891 63.5433L14.6934 65.6953C13.7822 66.6138 11.9866 67.1912 10.7002 67.0075L4.85776 66.2202C2.92815 65.9577 1.13254 64.1732 0.83774 62.2836L0.0337352 56.5626C-0.153866 55.3029 0.462538 53.5446 1.34694 52.6523L13.943 40.3178C11.799 33.4945 13.4606 25.7527 19.0082 20.3728Z" fill="white"/>
<path d="M44.2909 49.6315C43.6517 49.993 42.8295 49.7772 42.4604 49.1513C42.0914 48.5253 42.3117 47.7202 42.9509 47.3588C43.5902 46.9974 44.4123 47.2131 44.7814 47.8391C45.1505 48.4651 44.9302 49.2701 44.2909 49.6315Z" fill="white"/>
<path fill-rule="evenodd" clip-rule="evenodd" d="M32.4971 90.4095C31.3836 90.1835 30.3288 89.6111 29.6546 88.7866L26.0371 84.2257C25.2314 83.2266 24.8674 81.4021 25.1778 80.1963L29.7882 63.3471C27.5311 61.2934 25.7788 58.7648 24.6632 55.9729C23.1385 52.1582 22.8013 47.8527 23.9893 43.5939C26.8599 33.0315 38.0005 26.733 48.8236 29.5536C59.6234 32.3873 66.0689 43.3193 63.1751 53.8948C61.1409 61.257 55.1383 66.5598 48.0416 68.1174L45.9485 75.6947C45.9378 75.7339 45.9252 75.7723 45.9109 75.8097C45.6853 76.3998 45.0297 76.7584 44.3958 76.6299C44.3723 76.6252 44.3488 76.6197 44.3254 76.6135L37.1865 74.7404C37.151 74.7311 37.1154 74.7228 37.0798 74.7155C36.0507 74.5035 34.9999 75.1257 34.7248 76.131C34.4403 77.1706 35.0835 78.2616 36.1452 78.5401L43.2475 80.4036L43.2839 80.4137C43.9506 80.6075 44.3537 81.2495 44.2297 81.8923C44.2217 81.934 44.2114 81.9757 44.1989 82.0173L43.3945 84.9569C43.0744 86.1986 41.8141 87.5777 40.6062 88.0485L35.1445 90.2272C34.3374 90.548 33.3981 90.5922 32.4971 90.4095ZM42.2697 54.9203C43.8219 55.2343 45.4929 55.0138 46.9725 54.1774C49.9095 52.5169 51.0772 49.0028 49.8249 46.0124C49.8246 46.0128 49.8251 46.012 49.8249 46.0124C49.7114 45.7412 49.5771 45.4755 49.4233 45.2147C47.5741 42.0783 43.4738 41.0025 40.2709 42.8133C37.068 44.6241 35.9693 48.6392 37.8185 51.7756C38.8138 53.4637 40.4612 54.5548 42.2697 54.9203Z" fill="white"/>
</g>
<path d="M44.0051 48.0647C75.6914 62.3694 95.8871 28.7196 76.2417 9.07433C61.2783 -5.88901 38.4362 6.90107 32.834 11.0077" stroke="#5778CD" stroke-width="4" stroke-linecap="round"/>
</svg>
