<svg width="187" height="271" viewBox="0 0 187 271" fill="none" xmlns="http://www.w3.org/2000/svg">
<path d="M148.723 131.108L168.651 139.366L152.225 140.534L156.065 156.288L171.791 155.716C175.704 155.573 179.425 153.98 182.229 151.247C185.033 148.513 186.721 144.835 186.965 140.926C186.988 140.595 186.998 140.267 186.998 139.938C186.998 137.312 186.342 134.728 185.09 132.419C183.839 130.11 182.031 128.15 179.831 126.717L143.007 102.715L148.723 131.108Z" fill="#83BF6E"/>
<path d="M30.9937 16.4493C32.6201 16.4493 34.2099 15.9669 35.5622 15.0632C36.9145 14.1595 37.9685 12.875 38.5908 11.3721C39.2132 9.86928 39.3761 8.21555 39.0588 6.62012C38.7415 5.02469 37.9583 3.55914 36.8083 2.4089C35.6583 1.25866 34.1931 0.475405 32.598 0.158055C31.0028 -0.159296 29.3495 0.0035172 27.8469 0.626023C26.3443 1.24853 25.0601 2.30279 24.1565 3.65533C23.2529 5.00787 22.7706 6.59795 22.7706 8.22464C22.7733 10.4051 23.6406 12.4955 25.1821 14.0374C26.7236 15.5792 28.8137 16.4466 30.9937 16.4493ZM30.9937 1.78445C32.2678 1.78445 33.5133 2.16235 34.5727 2.87041C35.6321 3.57846 36.4577 4.58483 36.9452 5.76224C37.4326 6.93965 37.5601 8.23526 37.3113 9.48511C37.0625 10.735 36.4488 11.8829 35.5477 12.7839C34.6465 13.6848 33.4985 14.2982 32.2488 14.5465C30.9991 14.7948 29.7039 14.6669 28.5269 14.1788C27.3499 13.6908 26.3441 12.8647 25.6366 11.8048C24.9291 10.745 24.5517 9.49901 24.5522 8.22464C24.5576 6.51873 25.2384 4.88438 26.4456 3.67931C27.6528 2.47425 29.2881 1.79665 30.9937 1.79464V1.78445Z" fill="white"/>
<path d="M5.15291 59.7782C2.30658 59.7782 -0.000828743 57.4704 -0.000828743 54.6235C-0.000828743 51.7766 2.30658 49.4688 5.15291 49.4688C7.99923 49.4688 10.3066 51.7766 10.3066 54.6235C10.3066 57.4704 7.99923 59.7782 5.15291 59.7782Z" fill="#81C06A"/>
<path d="M18.2379 188.178C18.1737 191.684 19.2312 195.12 21.2562 197.983C23.2811 200.845 26.1676 202.986 29.4946 204.093C33.9866 205.587 39.5069 207.445 45.5285 209.528C47.8037 210.314 50.1554 211.131 52.5478 211.971C53.2773 212.226 54.0111 212.481 54.7492 212.735C60.1498 214.642 65.7209 216.655 71.147 218.687C81.6428 222.637 91.6067 226.624 98.6947 230.037C122.697 241.586 123.01 270.611 123.01 270.611L140.854 216.912L80.3703 194.036L65.2679 188.323L75.2496 186.582L102.227 181.87L109.862 180.536L126.329 177.663C128.965 177.177 131.304 175.674 132.841 173.478C134.379 171.282 134.992 168.57 134.547 165.926C134.103 163.282 132.637 160.919 130.467 159.347C128.296 157.775 125.594 157.119 122.944 157.522L115.706 158.693L65.0516 166.89L62.0561 167.373L39.9421 170.952L32.0524 172.225C31.5098 172.313 30.9721 172.428 30.4414 172.571C27.2609 173.42 24.408 175.203 22.2514 177.691C19.7223 180.606 18.3013 184.319 18.2379 188.178Z" fill="#F2A84C"/>
<path d="M105.057 74.8831C106.749 81.5368 111.015 87.2454 116.916 90.7533C122.817 94.2611 129.869 95.2807 136.521 93.5878C143.174 91.8949 148.881 87.6283 152.388 81.7264C155.895 75.8245 156.915 68.7708 155.222 62.1172L105.057 74.8831Z" fill="#D34B6A"/>
<path d="M123.415 60.8411C120.653 58.688 120.158 54.7028 122.311 51.94C124.464 49.1772 128.448 48.683 131.211 50.8361C133.973 52.9892 134.467 56.9743 132.314 59.7371C130.162 62.5 126.177 62.9942 123.415 60.8411Z" fill="#F2A84C"/>
<path d="M19.3368 102.708L64.1934 87.6768L58.0623 60.498C57.9156 59.8447 57.5203 59.2745 56.96 58.908C56.3998 58.5416 55.7188 58.4079 55.0617 58.5354L12.6891 66.727C12.3425 66.7938 12.0134 66.931 11.7221 67.1303C11.4309 67.3296 11.1837 67.5867 10.9958 67.8856C10.808 68.1844 10.6836 68.5187 10.6303 68.8676C10.577 69.2165 10.596 69.5728 10.6861 69.914L19.3368 102.708Z" fill="white"/>
<path d="M21.0998 100.545L61.584 86.9798L56.051 62.4483C55.9195 61.8572 55.5629 61.3404 55.0569 61.0078C54.5509 60.6751 53.9353 60.5527 53.3405 60.6665L15.0985 68.0612C14.7858 68.1215 14.4887 68.2454 14.2259 68.4253C13.963 68.6052 13.7399 68.8373 13.5704 69.107C13.401 69.3768 13.2888 69.6784 13.2408 69.9934C13.1928 70.3083 13.2101 70.6298 13.2916 70.9378L21.0998 100.545Z" fill="#3D7AE2"/>
<path d="M65.0531 166.889L97.8665 180.76C100.819 182.016 104.099 182.275 107.212 181.499C110.325 180.723 113.1 178.954 115.118 176.46C117.136 173.966 118.287 170.882 118.396 167.675C118.505 164.468 117.566 161.313 115.723 158.688L65.0531 166.889Z" fill="#C97C1D"/>
<path d="M30.4534 172.58L50.343 205.837C51.4958 207.71 52.2488 209.801 52.5546 211.98C58.6297 214.113 64.9873 216.399 71.1539 218.708L82.8255 212.104C83.7369 211.589 84.5311 210.889 85.1576 210.05C85.7841 209.21 86.2292 208.25 86.4647 207.23C86.7002 206.209 86.721 205.151 86.5256 204.122C86.3302 203.093 85.923 202.116 85.3299 201.253L80.3747 194.044L65.2723 188.331L75.254 186.59L62.0604 167.387L32.0644 172.236C31.5219 172.323 30.9842 172.438 30.4534 172.58Z" fill="#C97C1D"/>
<path d="M41.3388 123.999L19.3419 102.713L64.1985 86.7266L87.445 99.4824C87.8443 99.7019 88.1753 100.027 88.4016 100.423C88.6279 100.819 88.7406 101.269 88.7275 101.724C88.7143 102.18 88.5758 102.623 88.327 103.005C88.0783 103.387 87.7291 103.693 87.3177 103.889L44.1256 124.457C43.6698 124.674 43.1586 124.746 42.6605 124.664C42.1624 124.582 41.7012 124.35 41.3388 123.999Z" fill="white"/>
<path d="M91.1039 139.931C90.2239 133.524 91.0797 126.999 93.5819 121.037C96.0842 115.074 100.141 109.893 105.329 106.034C110.517 102.175 116.645 99.7802 123.075 99.0992C129.504 98.4183 135.998 99.4764 141.879 102.163C147.76 104.85 152.812 109.066 156.507 114.372C160.202 119.678 162.405 125.88 162.886 132.328C163.367 138.777 162.108 145.236 159.241 151.032C156.374 156.828 152.003 161.747 146.586 165.277C149.271 166.542 151.348 168.814 152.368 171.602C153.388 174.389 153.269 177.466 152.035 180.166C151.42 181.514 150.545 182.727 149.461 183.737C148.377 184.747 147.105 185.533 145.717 186.051C144.329 186.569 142.852 186.808 141.372 186.755C139.891 186.702 138.436 186.358 137.088 185.743L81.8603 160.511C80.5126 159.896 79.2993 159.021 78.2897 157.937C77.2801 156.853 76.4939 155.58 75.9761 154.192C75.4583 152.803 75.219 151.327 75.2718 149.846C75.3246 148.365 75.6686 146.909 76.284 145.561C77.5166 142.861 79.7636 140.756 82.5378 139.702C85.312 138.648 88.3899 138.73 91.1039 139.931Z" fill="#D34B6A"/>
<path d="M20.6364 58.4034C20.9776 58.4041 21.3183 58.3752 21.6545 58.3169L57.2521 52.1668C58.7864 51.9251 60.1618 51.0837 61.0758 49.8277C61.9898 48.5718 62.3676 47.004 62.1259 45.4695C61.8843 43.9349 61.043 42.5593 59.7873 41.6451C58.5315 40.7309 56.9641 40.3531 55.4299 40.5948L19.598 45.6859C18.7986 45.7992 18.0312 46.0768 17.3441 46.5011C16.6571 46.9255 16.0653 47.4873 15.6059 48.1515C15.1464 48.8157 14.8294 49.5677 14.6746 50.3603C14.5198 51.153 14.5306 51.9691 14.7064 52.7574L14.9406 53.8113C15.2274 55.1099 15.9476 56.2723 16.9829 57.1069C18.0182 57.9416 19.3067 58.3989 20.6364 58.4034ZM56.2418 42.3181C57.1794 42.3176 58.0886 42.6407 58.8156 43.2329C59.5427 43.8252 60.0431 44.6503 60.2324 45.5688C60.3426 46.1045 60.3438 46.6569 60.2359 47.1931C60.1281 47.7292 59.9134 48.2381 59.6046 48.6895C59.2958 49.1408 58.8993 49.5254 58.4387 49.8202C57.9782 50.115 57.4629 50.314 56.9238 50.4053L21.3312 56.5604C20.2992 56.7398 19.2378 56.5146 18.3676 55.9315C17.4974 55.3484 16.8853 54.4522 16.6585 53.4294L16.4244 52.373C16.3019 51.8244 16.2943 51.2563 16.402 50.7046C16.5097 50.1529 16.7305 49.6296 17.0503 49.1674C17.3702 48.7052 17.7823 48.3141 18.2606 48.019C18.7389 47.7239 19.2731 47.531 19.8296 47.4525L55.6589 42.3614C55.8519 42.3328 56.0467 42.3183 56.2418 42.3181Z" fill="#EDEFF1"/>
<path d="M25.7663 174.656C29.9758 181.104 47.1982 206.302 45.5312 209.53C47.8065 210.316 50.1581 211.134 52.5505 211.974C53.2801 212.228 54.0139 212.483 54.752 212.737L39.9423 170.965L32.0526 172.238C31.51 172.325 30.9723 172.441 30.4416 172.584C28.7833 173.023 27.2053 173.722 25.7663 174.656Z" fill="#C97C1D"/>
<path d="M138.033 136.557C138.119 136.46 138.201 136.359 137.989 136.748L138.033 136.557Z" fill="#FADD6F"/>
<path d="M76.2831 145.56C77.5156 142.86 79.7622 140.756 82.5358 139.702C85.3095 138.648 88.3866 138.729 91.1004 139.929C90.2984 134.07 90.9467 128.104 92.9883 122.554C95.03 117.004 98.4026 112.04 102.81 108.098C107.217 104.157 112.525 101.357 118.267 99.946C124.008 98.5348 130.009 98.5551 135.741 100.005C135.423 100.366 135.117 100.768 134.934 100.832C134.603 101.364 134.277 101.893 133.99 102.448C133.967 102.362 133.715 102.56 133.862 102.301C133.992 102.115 134.117 101.914 134.214 101.792C134.085 101.953 133.967 102.123 133.862 102.301C133.608 102.68 133.366 103.014 133.628 102.456C132.539 104.437 131.663 106.527 131.014 108.693C130.387 110.844 130.185 113.098 130.421 115.326C130.421 115.622 130.353 115.456 130.304 115.347C130.528 116.136 130.254 116.11 130.274 116.561L130.64 117.706C130.64 118.19 130.508 117.831 130.465 117.869C130.707 120.107 131.483 122.171 131.992 123.913C132.292 124.422 132.124 123.714 132.44 124.406C132.132 123.974 132.297 124.503 132.529 125.063C132.648 125.341 132.783 125.628 132.844 125.814C132.905 126 132.936 126.069 132.816 125.951C133.114 126.221 133.442 126.822 133.763 127.275C133.881 127.468 134.022 127.646 134.183 127.805C134.3 127.912 134.382 127.929 134.412 127.805C134.667 128.171 134.751 128.347 134.74 128.405C134.73 128.464 134.621 128.405 134.529 128.319C135.165 129.167 135.725 129.805 136.247 130.516C136.507 130.729 136.753 130.958 136.985 131.2C137.362 131.562 137.677 131.983 137.919 132.445C138.174 132.926 138.359 133.44 138.471 133.973C138.502 134.214 138.545 134.436 138.576 134.624C138.585 134.78 138.608 134.934 138.645 135.085C138.563 134.779 138.54 134.797 138.522 134.95C138.522 135.026 138.522 135.138 138.494 135.266C138.466 135.393 138.433 135.533 138.393 135.665C138.365 135.492 138.347 135.322 138.306 135.156C138.288 135.357 138.25 135.556 138.225 135.757C138.199 135.958 138.118 136.149 138.067 136.345C137.962 136.572 137.934 136.633 137.95 136.64C137.912 136.737 137.95 136.734 137.95 136.77C137.958 136.804 137.958 136.84 137.95 136.874C137.935 136.964 137.904 137.05 137.858 137.129C137.749 137.312 137.667 137.452 137.588 137.557C137.517 137.637 137.442 137.712 137.362 137.783C137.298 137.842 137.237 137.888 137.174 137.938C137.11 137.989 137.023 138.03 136.919 138.096L136.993 137.994C136.855 138.114 136.738 138.249 136.586 138.359C135.916 137.849 134.041 137.045 134.089 136.729C133.325 136.503 133.997 136.785 134.791 137.406L134.013 137.119C134.3 137.287 134.562 137.391 134.86 137.592C134.027 137.259 133.254 136.794 132.57 136.215C132.18 136.07 132.725 136.617 131.717 136.014C130.287 135.174 132.124 135.917 131.264 135.411L130.536 135.248C130.061 134.924 129.561 134.636 129.042 134.387L128.686 134.219C128.556 134.161 128.403 134.105 128.263 134.049C127.973 133.94 127.674 133.855 127.37 133.794C127.204 133.766 127.04 133.725 126.881 133.67H126.927L126.838 133.636C126.813 133.601 126.884 133.581 126.866 133.555C126.848 133.53 126.825 133.527 126.749 133.512C126.616 133.5 126.483 133.496 126.349 133.499C126.516 133.532 126.679 133.578 126.838 133.636C126.851 133.649 126.866 133.659 126.881 133.667C126.19 133.634 125.497 133.703 124.825 133.871C124.226 134.032 123.674 134.333 123.214 134.749C123.415 134.611 122.868 135.258 122.84 135.383C122.455 135.793 122.145 136.268 121.924 136.785C121.898 136.836 121.875 136.89 121.847 136.951C121.87 136.895 121.898 136.841 121.924 136.785C122.201 136.197 122.315 136.276 122.463 136.21C122.313 136.444 122.237 136.635 122.148 136.801C122.061 136.961 121.995 137.133 121.952 137.31C122.046 137.088 122.14 136.877 122.12 137.175L121.967 137.618L121.875 138.079C121.847 138.234 121.83 138.391 121.827 138.549C121.827 138.707 121.804 138.87 121.827 139.028C121.785 138.861 121.762 138.691 121.758 138.519C121.758 138.641 121.758 138.796 121.776 138.972C121.794 139.148 121.822 139.344 121.868 139.545C121.954 139.936 122.117 140.306 122.346 140.634C122.323 140.511 122.308 140.386 122.303 140.26C122.226 140.156 122.16 140.044 122.107 139.927C122.01 139.672 121.982 139.396 122.028 139.127C122.054 139.326 122.099 139.521 122.163 139.71C122.193 139.804 122.206 139.82 122.216 139.815C122.226 139.809 122.216 139.72 122.374 139.985C122.707 140.792 122.883 141.146 122.644 141.003C122.888 141.325 123.169 141.617 123.481 141.874C123.608 141.991 123.753 142.088 123.904 142.218C123.98 142.276 124.069 142.332 124.158 142.401C124.258 142.475 124.363 142.542 124.471 142.602C124.428 142.53 124.39 142.455 124.357 142.378C124.497 142.459 124.642 142.528 124.784 142.602C124.927 142.676 125.085 142.719 125.235 142.778L124.894 142.569C124.784 142.498 124.682 142.411 124.581 142.332C125.415 142.635 125.497 142.645 125.599 142.75C125.672 142.824 125.768 142.872 125.871 142.887C125.99 142.912 126.111 142.929 126.232 142.941C126.439 142.947 126.646 142.938 126.851 142.912V142.778C127.042 142.765 127.207 142.778 127.36 142.778L127.759 142.757C127.99 142.746 128.213 142.671 128.403 142.541C129.065 142.426 127.362 143.05 128.874 142.625C129.27 142.422 129.679 142.247 130.098 142.1C130.554 142.022 129.918 142.304 129.564 142.411L129.467 142.439L129.564 142.411C131.725 141.803 130.773 141.563 132.819 141.138C132.152 141.441 133.476 141.212 131.831 141.706C132.638 141.543 133.318 141.052 134.178 140.942H133.56C133.825 140.87 134.096 140.817 134.369 140.782L134.265 140.675C134.766 140.627 135.255 140.493 135.71 140.278L136.031 140.143C136.135 140.097 136.229 140.041 136.326 140C136.435 139.949 136.548 139.908 136.665 139.876C136.872 139.999 137.108 140.062 137.349 140.059C137.635 140.298 137.942 140.512 138.265 140.698L138.871 141.07C139.037 141.163 139.196 141.268 139.347 141.383C139.329 141.403 139.388 141.467 139.535 141.586C139.586 141.586 139.505 141.505 139.347 141.383C139.347 141.367 139.4 141.37 139.49 141.403C139.629 141.546 139.777 141.682 139.932 141.808C140.095 141.955 140.306 142.078 140.477 142.253L140.752 142.508C140.842 142.587 140.927 142.672 141.006 142.762L141.223 143.017C141.279 143.108 141.327 143.2 141.368 143.284C141.548 143.74 141.368 143.577 141.22 143.432C141.385 143.645 141.506 143.889 141.576 144.15C141.618 144.292 141.647 144.438 141.663 144.585C141.692 144.728 141.705 144.874 141.701 145.02C141.701 145.163 141.701 145.3 141.701 145.428C141.701 145.555 141.668 145.682 141.658 145.779C141.648 145.876 141.638 145.977 141.635 146.054C141.622 146.113 141.616 146.174 141.617 146.234C141.546 146.896 141.747 146.509 141.813 146.711C141.655 147.22 141.579 147.136 141.51 147.115C141.442 147.095 141.447 147.115 141.414 147.197C141.338 147.384 141.277 147.576 141.23 147.772C141.304 147.635 141.429 147.375 141.408 147.487C141.388 147.599 141.358 147.772 141.314 147.943L141.192 148.5C141.128 148.682 141.054 148.859 140.968 149.032C140.948 149.073 140.925 149.113 140.902 149.152C140.879 149.19 140.849 149.218 140.821 149.248C140.77 149.305 140.714 149.357 140.653 149.401L140.854 149.09C140.653 149.266 140.463 149.453 140.284 149.651C140.075 149.831 139.897 150.038 139.691 150.206C139.291 150.547 138.975 150.809 138.823 150.735V150.569C137.382 151.735 138.143 150.956 136.67 152.12H136.7C136.008 152.547 135.73 152.932 135.28 152.972L135.496 152.792C134.644 153.336 134.578 153.4 133.715 153.978C133.484 154.088 133.268 154.227 133.073 154.393C132.936 154.271 131.037 155.645 130.658 155.908C131.353 155.477 131.073 155.755 130.913 155.943C130.429 156.082 129.99 156.345 129.64 156.707C129.437 156.572 129.195 156.452 128.093 157.162C128.281 157.078 128.559 156.908 128.475 157.028C128.337 157.148 128.179 157.244 128.009 157.31C127.925 157.42 128.299 157.216 128.217 157.364C127.822 157.515 127.451 157.722 127.113 157.977L126.54 158.384C126.329 158.535 126.103 158.667 125.807 158.863C126.199 158.662 125.919 158.919 125.84 159.072C125.726 159.003 125.367 159.308 125.118 159.614C125.017 159.731 124.911 159.842 124.799 159.947C124.733 160.011 124.7 160.001 124.733 159.845C124.241 160.401 123.808 161.005 123.44 161.65C123.069 162.334 122.794 163.065 122.623 163.824C122.488 164.483 122.44 165.156 122.478 165.827C122.504 166.113 122.545 166.365 122.58 166.578C122.62 166.751 122.671 166.921 122.733 167.088C122.863 167.342 122.919 168.078 123.084 168.513L123.166 168.414C123.239 168.8 123.361 169.176 123.529 169.531C123.716 169.946 123.923 170.351 124.15 170.746C123.871 170.158 124.084 170.346 124.545 170.771C124.622 170.93 124.707 171.084 124.799 171.234C124.885 171.392 124.98 171.544 125.085 171.69L125.339 171.703C125.477 171.879 125.641 172.033 125.825 172.161C126.01 172.303 126.206 172.429 126.413 172.538C126.485 172.635 126.57 172.721 126.668 172.792C126.871 172.94 127.083 173.076 127.304 173.197C127.558 173.309 127.79 173.451 128.001 173.52C128.153 173.572 128.3 173.638 128.439 173.719C128.73 173.69 129.024 173.722 129.302 173.813C129.551 173.884 129.816 173.884 130.065 173.813C130.22 173.843 130.419 173.871 130.64 173.892C130.414 173.994 130.325 174.108 130.763 174.055H130.867C130.813 174.098 130.757 174.136 130.701 174.177C130.638 174.314 131.266 174.118 131.788 173.922C131.971 173.866 132.137 173.808 132.297 173.752L132.452 173.719C132.421 173.721 132.389 173.725 132.358 173.731C132.644 173.619 132.94 173.534 133.241 173.477C133.961 173.155 134.7 172.881 135.456 172.657C135.71 172.568 135.977 172.474 136.234 172.367L136.461 172.533C136.715 172.599 136.888 172.65 137.054 172.7C137.219 172.751 137.372 172.784 137.545 172.843C138.003 173.038 138.471 173.208 138.947 173.352H138.912C138.708 173.316 138.515 173.286 138.339 173.263C138.525 173.321 138.718 173.351 138.912 173.352C139.151 173.4 139.406 173.429 139.675 173.477C140.07 173.574 140.421 173.64 140.734 173.749C141.192 173.826 141.019 173.729 140.966 173.683L141.729 173.815C141.866 173.865 142.005 173.908 142.147 173.943C142.101 173.956 142.085 173.966 142.195 173.943H142.147C142.183 173.931 142.221 173.925 142.259 173.922L142.33 173.938C142.33 173.92 142.304 173.917 142.259 173.922C142.103 173.884 141.925 173.849 141.729 173.815C141.507 173.739 141.276 173.691 141.042 173.673C140.94 173.65 140.943 173.673 140.968 173.673C140.759 173.642 140.543 173.609 140.327 173.571C140.111 173.533 139.892 173.51 139.678 173.467C139.464 173.423 139.189 173.352 138.914 173.25C139.958 173.446 138.151 172.897 139.566 173.271C139.057 173.098 139.334 173.077 138.474 172.828C138.24 172.828 138.291 172.884 138.431 172.978C138.593 173.061 138.75 173.155 138.899 173.261C138.566 173.164 138.306 173.085 138.092 173.006C137.878 172.927 137.708 172.884 137.558 172.828L137.268 172.698L137.362 172.754C137.022 172.624 136.691 172.472 136.372 172.298C136.845 172.103 137.29 171.847 137.695 171.535C137.514 171.672 137.31 171.777 137.092 171.843C138.309 171.239 139.337 170.354 140.072 169.903L140.098 170.04C140.835 169.559 141.502 168.979 142.08 168.314L142.218 168.373C142.404 168.118 142.663 167.828 142.913 167.469C143.045 167.294 143.167 167.11 143.284 166.925C143.401 166.739 143.521 166.545 143.633 166.352C144.083 165.588 144.381 164.756 144.343 164.341C144.503 164.012 144.596 163.655 144.615 163.29C144.662 162.8 144.653 162.306 144.587 161.818C144.539 161.76 144.498 161.701 144.445 161.643C144.345 161.225 144.182 160.825 143.961 160.456C143.793 160.171 143.589 159.908 143.353 159.675C143.432 159.733 143.508 159.79 143.582 159.853C143.264 159.432 142.817 159.125 142.309 158.98C141.918 158.815 141.502 158.717 141.078 158.692C141.215 158.822 141.701 158.787 142.309 158.98C142.696 159.143 143.048 159.379 143.345 159.675C142.557 159.132 141.647 158.793 140.696 158.687C139.852 158.572 138.992 158.634 138.174 158.871V158.904C137.634 159.034 137.111 159.223 136.614 159.469C137.046 159.349 136.283 159.548 135.886 159.879C135.302 160.243 134.811 160.738 134.45 161.324C134.234 161.611 134.042 161.915 133.875 162.233C134.542 161.243 133.954 162.381 134.053 162.488C133.923 162.669 133.804 162.858 133.694 163.053C133.659 163.323 133.936 162.691 133.791 163.155C133.631 163.479 133.508 163.821 133.425 164.173C133.323 164.595 133.249 165.018 133.17 165.219C133.129 165.08 133.111 164.934 133.117 164.789C133.132 164.733 133.117 164.738 133.117 164.774V164.725C133.117 164.471 133.147 164.338 133.147 164.265C133.171 164.07 133.209 163.877 133.259 163.687C133.201 163.929 133.16 164.074 133.142 164.181C133.119 164.234 133.076 164.537 133.142 164.181C133.142 164.163 133.142 164.193 133.142 164.265C133.122 164.417 133.111 164.571 133.112 164.725V164.781C133.093 164.843 133.07 164.903 133.043 164.962L133.063 164.646C133.01 164.965 133.017 165.005 133.043 164.962C133.028 165.802 132.997 165.494 132.939 165.471C132.982 165.71 133.02 165.922 133.045 166.113C133.071 166.304 133.104 166.479 133.129 166.645C133.155 166.81 133.196 166.968 133.241 167.126C133.297 167.289 133.367 167.446 133.45 167.597C133.234 167.154 133.323 167.676 133.473 168.228C133.623 168.78 133.845 169.348 133.628 169.111C134.043 169.684 133.804 169.544 134.119 169.875C133.762 169.058 133.565 168.18 133.539 167.289C133.621 167.528 133.717 167.76 133.817 167.986C133.823 167.629 133.766 167.274 133.649 166.937C133.543 166.608 133.49 166.265 133.491 165.919C133.473 166.119 133.483 166.32 133.519 166.517C133.531 166.649 133.57 166.777 133.633 166.894L133.437 166.721C133.343 166.24 133.326 165.746 133.389 165.26C133.416 165.047 133.455 164.837 133.506 164.629C133.567 164.43 133.61 164.239 133.679 164.061C133.631 164.415 133.7 164.206 133.789 163.985C133.878 163.763 133.997 163.526 133.979 163.783C133.926 163.957 133.875 164.132 133.834 164.31C133.834 164.44 133.883 164.374 133.934 164.244C133.985 164.114 134.056 163.921 134.127 163.783C134.224 163.302 134.396 162.839 134.636 162.411C134.906 161.933 135.244 161.497 135.639 161.116C136.212 160.598 136.843 160.148 137.52 159.774C137.212 159.947 136.631 160.227 136.351 160.372C136.563 160.198 136.785 160.036 137.016 159.889C136.423 160.207 136.061 160.609 135.346 161.261C135.387 161.06 134.768 161.503 135.196 160.831C135.435 160.537 135.721 160.284 136.041 160.082C136.251 159.955 136.474 159.852 136.708 159.777C136.927 159.705 137.156 159.637 137.471 159.543C137.787 159.448 138.174 159.324 138.744 159.186C138.851 159.186 138.723 159.161 138.721 159.12C138.718 159.079 138.751 159.072 138.858 159.041C139.057 158.988 139.261 158.958 139.467 158.952C140.118 158.919 140.769 159.043 141.363 159.313C141.793 159.53 141.976 159.767 141.925 159.871C141.595 159.673 141.234 159.532 140.856 159.456C140.459 159.377 140.093 159.385 140.009 159.474C140.353 159.503 140.694 159.563 141.027 159.655C141.35 159.746 141.579 159.876 141.584 159.937C141.895 159.937 141.65 159.833 141.414 159.751C141.294 159.711 141.177 159.677 141.141 159.657C141.106 159.637 141.141 159.616 141.358 159.632C141.613 159.702 141.848 159.829 142.047 160.003C141.948 159.904 142.047 159.914 142.182 159.957C142.317 160.001 142.498 160.085 142.561 160.105C143.049 160.452 143.418 160.94 143.62 161.503C143.826 162.107 143.868 162.755 143.742 163.381C143.742 163.328 143.742 163.31 143.742 163.409V163.381C143.76 163.465 143.786 163.636 143.842 163.613C143.723 163.988 143.539 164.34 143.299 164.652C143.093 164.906 142.91 165.041 142.913 164.893C142.549 165.657 142.597 165.738 142.177 166.337C142.409 165.797 142.368 165.845 142.274 166.039C142.18 166.232 141.973 166.548 141.856 166.548C141.424 167.126 141.793 166.802 141.627 167.105C141.536 167.189 141.304 167.378 141.253 167.36C141.308 167.231 141.377 167.108 141.457 166.993C141.261 167.248 141.22 167.347 141.253 167.36C141.169 167.579 141.375 167.474 141.584 167.36C141.793 167.245 142.001 167.151 141.895 167.418C141.843 167.586 141.779 167.751 141.704 167.91C141.587 168.085 141.449 168.302 141.304 168.493C141.011 168.882 140.706 169.218 140.665 169.256C140.278 169.386 139.948 168.793 140.184 168.294C140.128 168.271 140.021 168.406 139.899 168.577C139.78 168.744 139.646 168.901 139.5 169.045C139.24 169.338 138.919 169.569 138.561 169.725C138.237 169.854 137.926 170.014 137.632 170.201C137.823 170.132 138.006 170.053 138.194 169.979C137.791 170.261 137.35 170.484 136.883 170.641C136.883 170.712 137.568 170.641 137.286 170.878C136.907 171.091 136.508 171.267 136.094 171.402C136.033 171.362 135.972 171.321 135.919 171.28L135.809 171.178C136.107 171.069 136.402 170.959 136.695 170.842C136.695 170.758 136.334 170.896 135.972 171.02L135.718 171.102C135.569 170.987 135.466 170.821 135.43 170.636C135.252 170.486 135.417 170.738 135.384 170.751L135.255 170.583L135.145 170.402C135.068 170.286 135.003 170.162 134.952 170.033C134.883 170.012 134.875 170.084 134.898 170.208C134.947 170.36 135.01 170.506 135.087 170.646C135.265 170.942 135.466 171.216 135.267 171.109C135.301 171.137 135.337 171.163 135.374 171.186C135.288 171.186 135.232 171.186 135.234 171.15C134.637 171.435 134.029 171.7 133.409 171.944C133.649 171.868 134.382 171.624 134.13 171.817C133.325 172.12 133.725 172.001 133.208 172.268L135.112 172.013L135.585 171.95L135.771 172.156L135.58 172.334C134.585 172.642 133.53 172.709 132.503 172.53C132.152 172.665 132.05 172.756 132.066 172.858C132.081 172.96 132.213 173.029 132.32 173.042C132.025 173.117 131.721 173.15 131.417 173.141C131.207 173.124 131 173.091 130.796 173.042C130.6 172.978 130.4 172.929 130.198 172.894C130.086 172.876 129.963 172.838 129.821 172.82C129.678 172.802 129.521 172.792 129.342 172.757C129.525 172.767 129.709 172.767 129.892 172.757C129.808 172.739 129.668 172.726 129.508 172.711L128.999 172.622C128.67 172.558 128.411 172.459 128.49 172.456C128.192 172.471 127.866 172.538 128.154 172.723C127.966 172.589 127.78 172.469 127.602 172.326C127.423 172.184 127.261 172.036 127.093 171.883C127.238 172.008 126.998 172.179 127.047 172.26C126.571 171.985 126.454 171.517 126.754 171.659C126.578 171.588 126.408 171.502 126.245 171.405C126.156 171.358 126.071 171.304 125.991 171.244C125.919 171.199 125.851 171.155 125.754 171.099C125.657 171.043 125.522 170.977 125.342 170.845C125.146 170.603 125.568 170.677 125.736 170.809C125.319 170.275 125.064 169.982 124.855 169.732L124.84 169.702H124.827C124.719 169.574 124.623 169.437 124.54 169.292C124.459 169.111 124.402 168.92 124.369 168.724C124.349 168.997 124.326 169.289 124.331 169.582C124.499 169.625 124.665 169.666 124.827 169.702L124.855 169.735C125.133 170.221 125.079 170.374 124.927 170.448C124.774 170.522 124.542 170.496 124.532 170.649C124.203 169.825 124.015 168.951 123.977 168.065C123.929 168.2 123.857 168.325 123.764 168.434C123.83 168.292 123.598 167.561 123.486 166.673C123.426 166.215 123.401 165.754 123.41 165.293C123.41 165.064 123.443 164.845 123.453 164.641C123.463 164.438 123.514 164.247 123.537 164.079L123.501 164.28C123.44 164.41 123.43 164.181 123.486 163.862C123.519 163.707 123.565 163.526 123.616 163.353C123.669 163.209 123.733 163.069 123.809 162.936C123.736 162.994 123.71 163.104 123.634 163.297C123.666 163.102 123.729 162.912 123.822 162.737C123.912 162.604 124.014 162.479 124.125 162.363L124.278 162.192C124.336 162.136 124.39 162.075 124.441 162.012C124.555 161.852 124.652 161.682 124.731 161.503C124.275 162.195 124.143 162.31 124.077 162.228C124.166 162.078 124.313 161.895 124.441 161.691C124.568 161.487 124.751 161.299 124.889 161.126C125.196 160.8 125.456 160.617 125.438 160.828C125.551 160.673 125.678 160.529 125.817 160.398C125.919 160.286 125.968 160.207 125.909 160.166C126.024 160.081 126.145 160.003 126.271 159.935L126.637 159.718C126.891 159.576 127.164 159.433 127.423 159.291C127.296 159.341 127.156 159.336 127.584 159.036C126.749 159.619 125.835 159.942 125.594 160.444C125.454 160.337 125.675 160.019 125.217 160.227C125.405 160.075 125.586 159.935 125.756 159.805C125.927 159.675 126.118 159.581 126.283 159.484C126.617 159.288 126.953 159.145 127.255 159.003L128.978 158.262L130.327 157.218L130.432 157.246L130.572 156.916C130.7 156.88 130.823 156.825 130.936 156.753C130.958 156.717 130.9 156.725 130.813 156.753C130.937 156.678 131.065 156.613 131.198 156.557C131.198 156.6 131.182 156.642 131.152 156.674C131.305 156.544 131.287 156.524 131.198 156.557C131.198 156.432 130.877 156.501 130.549 156.587L130.651 156.475C131.414 156.132 132.274 155.747 131.737 156.264L131.228 156.697C131.465 156.508 131.63 156.368 131.737 156.264L132.501 155.615C133.24 155.297 133.962 154.94 134.664 154.546C134.69 154.446 134.341 154.607 134.527 154.423C135.517 154.034 136.499 152.805 136.794 152.843C137.522 152.42 137.181 152.794 137.657 152.545C137.624 152.545 137.558 152.532 137.685 152.443L138.293 152.211C138.479 152.028 137.751 152.451 138.314 152.005C138.853 151.712 139.283 151.483 139.678 151.242C139.876 151.124 140.067 151.007 140.258 150.88C140.449 150.753 140.668 150.559 140.879 150.371C141.485 149.834 141.401 149.987 141.302 150.185C141.202 150.384 141.047 150.597 141.556 150.081C141.665 149.661 141.854 149.267 142.113 148.92C142.261 148.747 142.348 148.681 142.449 148.576C142.615 148.398 142.745 148.19 142.834 147.963L142.648 147.945C142.918 147.283 143.035 146.713 142.902 146.688C143.031 146.276 143.071 145.843 143.02 145.415C143.02 144.88 143.131 145.058 143.246 145.43C143.289 145.616 143.327 145.85 143.361 146.056C143.394 146.262 143.386 146.436 143.399 146.504C143.399 146.362 143.411 146.229 143.399 146.099C143.386 145.97 143.383 145.845 143.376 145.725C143.368 145.606 143.376 145.491 143.361 145.379C143.345 145.267 143.327 145.165 143.312 145.063C143.286 144.875 143.245 144.688 143.19 144.506C143.131 144.346 143.056 144.193 142.966 144.048L143.053 144.519C143.075 144.677 143.076 144.837 143.088 144.995L143.017 144.646C142.994 144.539 142.956 144.44 142.933 144.348C142.88 144.165 142.841 144.005 142.811 143.865C142.722 143.592 142.671 143.391 142.633 143.22C142.599 143.068 142.539 142.922 142.455 142.79C142.352 142.626 142.215 142.486 142.055 142.378C142.154 142.521 142.239 142.674 142.309 142.834C142.376 142.964 142.43 143.1 142.47 143.241C142.521 143.478 142.51 143.587 142.396 143.424C142.376 143.345 142.355 143.266 142.33 143.19L142.241 142.966L142.052 142.515C141.961 142.442 142.284 143.024 142.029 142.658C141.961 142.484 141.883 142.314 141.795 142.149L141.663 141.871C141.622 141.785 141.574 141.716 141.543 141.66V141.574C141.464 141.49 141.485 141.543 141.543 141.66V141.675C141.354 141.445 141.145 141.231 140.92 141.036L140.579 140.746C140.501 140.677 140.415 140.617 140.324 140.566C140.288 140.54 140.251 140.516 140.212 140.494C140.248 140.52 140.286 140.543 140.324 140.566C140.505 140.69 140.492 140.739 140.245 140.591L139.775 140.247L139.329 139.957C139.268 139.911 139.179 139.853 139.039 139.766L139.329 139.957C139.584 140.148 139.276 140.044 138.846 139.848C138.42 139.666 138.045 139.385 137.751 139.028C137.802 138.978 137.848 138.923 137.889 138.865C137.833 138.903 137.774 138.947 137.716 138.992L137.655 138.941C137.703 138.898 137.749 138.852 137.802 138.809C137.895 138.735 137.992 138.666 138.092 138.603C138.186 138.439 138.292 138.281 138.408 138.132L138.69 137.699C138.789 137.567 138.874 137.426 138.945 137.277C139.015 137.132 139.074 136.982 139.12 136.829C139.054 136.986 139.029 136.989 138.963 137.147C139.112 136.824 139.213 136.481 139.263 136.129C139.286 135.881 139.286 135.633 139.263 135.385C139.241 135.204 139.209 135.024 139.169 134.846C139.143 134.685 139.123 134.538 139.1 134.38C139.077 134.222 139.07 134.031 139.052 133.838C139.034 133.644 138.991 133.453 138.973 133.29C138.955 133.127 138.925 132.998 138.93 132.931C138.935 132.865 138.958 132.863 139.016 132.959C138.986 132.83 139.016 132.896 139.072 133.054C139.128 133.211 139.174 133.474 139.238 133.718C139.301 133.962 139.309 134.204 139.355 134.316C139.4 134.428 139.441 134.423 139.49 134.171C139.438 134.055 139.396 133.935 139.365 133.812C139.319 133.691 139.279 133.567 139.248 133.44C139.212 133.313 139.194 133.186 139.154 133.038L139.024 132.598L138.953 132.359L138.843 132.117C138.764 131.954 138.688 131.773 138.589 131.608C138.489 131.442 138.334 131.259 138.194 131.076C138.024 130.893 137.841 130.723 137.647 130.567C137.924 130.943 137.795 130.875 137.665 130.801C137.535 130.727 137.41 130.643 137.642 130.961C137.319 130.595 137.161 130.432 137.056 130.289C136.964 130.155 136.879 130.016 136.802 129.872L136.547 129.744C136.391 129.514 136.261 129.268 136.161 129.009C136.102 128.871 135.957 128.701 135.481 127.955C135.626 128.209 135.481 128.095 135.341 127.955C135.201 127.815 135.048 127.657 135.145 127.868C134.878 127.508 134.656 127.115 134.486 126.7L134.506 126.764L134.214 126.254C134.135 126.107 134.066 125.982 134.002 125.875C133.88 125.659 133.776 125.509 133.692 125.366C133.608 125.224 133.524 125.063 133.437 124.857C133.389 124.753 133.333 124.635 133.277 124.493C133.221 124.35 133.168 124.182 133.104 123.984L133.224 124.111C133.145 123.857 133.043 123.602 132.969 123.319C132.895 123.037 132.801 122.767 132.715 122.484C132.559 121.912 132.376 121.329 132.244 120.726C132.111 120.122 131.989 119.519 131.872 118.928C131.829 118.628 131.788 118.33 131.75 118.04C131.73 117.895 131.712 117.75 131.694 117.607L131.663 117.182C131.702 117.419 131.742 117.653 131.796 117.885C131.8 117.91 131.805 117.934 131.811 117.958C131.811 117.933 131.811 117.91 131.796 117.885C131.783 117.818 131.773 117.727 131.76 117.615C131.76 117.452 131.737 117.248 131.725 117.032C131.694 116.599 131.651 116.11 131.59 115.759C131.59 115.688 131.59 115.64 131.569 115.65C131.549 115.66 131.569 115.723 131.59 115.759C131.581 115.929 131.581 116.099 131.59 116.268C131.516 116.253 131.396 115.988 131.335 115.449L131.429 115.235L131.333 115.021C131.3 114.201 131.483 115.25 131.468 114.438C131.367 114.196 131.316 113.936 131.317 113.674C131.317 113.31 131.317 112.862 131.343 112.402C131.368 111.941 131.424 111.49 131.47 111.101C131.519 110.802 131.529 110.498 131.498 110.197C131.806 109.688 131.277 111.724 131.574 111.162C131.569 110.863 131.587 110.564 131.628 110.268L131.73 110.472C131.867 109.515 132.075 108.57 132.351 107.644C132.412 107.448 132.47 107.252 132.531 107.056L132.76 106.463C132.908 106.05 133.127 105.63 133.366 105.134L133.302 105.2C133.623 104.48 133.847 104.116 134.135 103.877C134.165 103.706 133.845 104.174 133.957 103.877C134.409 103.374 134.79 102.813 135.089 102.207C135.247 101.934 135.389 101.67 135.542 101.443C135.681 101.237 135.853 101.055 136.051 100.906C135.901 100.86 136.087 100.45 136.224 100.104C141.298 101.459 146.015 103.904 150.047 107.268C154.079 110.633 157.329 114.837 159.57 119.587C161.811 124.336 162.99 129.518 163.025 134.77C163.059 140.022 161.948 145.218 159.769 149.997C156.933 156.227 152.379 161.518 146.641 165.25C149.326 166.515 151.403 168.787 152.423 171.575C153.443 174.362 153.324 177.439 152.09 180.139C151.475 181.487 150.6 182.7 149.516 183.71C148.432 184.72 147.16 185.506 145.772 186.024C144.384 186.542 142.907 186.781 141.427 186.728C139.946 186.675 138.491 186.331 137.143 185.716L81.9153 160.484C79.19 159.252 77.0658 156.987 76.0096 154.189C74.9534 151.39 75.0517 148.286 76.2831 145.56ZM133.01 136.215C132.735 136.078 132.435 135.877 132.162 135.739C131.992 135.882 132.435 135.877 133.01 136.215ZM137.716 172.199C137.283 172.054 137.548 172.214 137.97 172.38L138.018 172.331C137.917 172.283 137.805 172.25 137.716 172.199ZM141.615 173.4L141.653 173.345C141.449 173.345 141.243 173.345 141.037 173.345C141.426 173.431 141.821 173.5 142.213 173.569C142.134 173.51 142.289 173.462 141.615 173.4ZM133.521 165.945C133.526 165.895 133.546 165.848 133.577 165.81C133.56 165.817 133.534 165.873 133.521 165.945ZM133.689 165.878C133.682 166.093 133.689 166.308 133.71 166.522C133.725 166.377 133.692 166.136 133.689 165.878C133.689 165.751 133.71 165.649 133.733 165.662C133.717 165.396 133.717 165.129 133.733 164.863C133.697 164.84 133.661 165.385 133.689 165.873V165.878ZM141.34 168.378L141.154 168.159L140.999 168.312L141.34 168.378ZM140.284 159.214C139.99 159.191 139.696 159.191 139.403 159.214C139.276 159.275 139.601 159.255 139.81 159.275C140.133 159.283 140.37 159.268 140.284 159.217V159.214ZM139.52 159.754C140.538 159.7 139.449 159.665 139.357 159.647C138.629 159.807 139.446 159.711 139.53 159.764L139.52 159.754ZM137.448 160.25L137.349 160.105C137.268 160.202 137.175 160.288 137.072 160.36C137.207 160.332 137.329 160.286 137.459 160.253L137.448 160.25ZM133.885 166.897C133.908 167.082 133.957 167.263 133.995 167.444C134.017 167.517 134.042 167.591 134.071 167.665C134.015 167.413 133.946 167.159 133.898 166.892L133.885 166.897ZM134.168 168.287L134.14 168.587C134.203 168.63 134.262 168.673 134.328 168.714C134.282 168.574 134.234 168.432 134.181 168.289L134.168 168.287ZM134.275 169.496C134.364 169.75 134.415 170.005 134.45 169.928C134.399 169.794 134.341 169.643 134.287 169.498L134.275 169.496ZM134.275 170.6C134.308 170.679 134.351 170.748 134.389 170.824L134.44 170.707C134.345 170.6 134.26 170.484 134.186 170.361L134.275 170.6ZM134.193 169.302L134.226 169.386C134.147 169.132 134.081 168.915 134.018 168.742C133.954 168.569 133.906 168.449 133.845 168.439C133.885 168.679 133.945 168.914 134.023 169.144C134.107 169.32 134.165 169.404 134.214 169.305L134.193 169.302ZM133.213 167.775C133.216 167.813 133.222 167.85 133.231 167.887C133.231 167.851 133.231 167.813 133.213 167.775C133.196 167.737 133.264 167.79 133.29 167.795C133.207 167.582 133.148 167.36 133.114 167.133C133.165 167.352 133.196 167.569 133.234 167.78L133.213 167.775ZM131.918 172.51C131.511 172.634 131.47 172.606 131.409 172.566C131.348 172.525 131.302 172.489 130.847 172.566C130.592 172.777 130.887 172.708 131.468 172.721C131.567 172.722 131.666 172.717 131.765 172.706C131.658 172.706 131.562 172.706 131.468 172.721C131.269 172.723 132.172 172.535 131.938 172.515L131.918 172.51ZM133.605 162.819C133.524 162.95 133.451 163.087 133.386 163.228C133.338 163.351 133.325 163.422 133.386 163.363C133.386 163.206 133.521 163.363 133.585 163.109C133.878 162.45 133.781 162.564 133.605 162.819ZM143.065 147.545L143.121 147.502C143.139 147.298 143.167 147.097 143.17 146.896C143.108 147.108 143.073 147.326 143.065 147.545ZM138.675 139.42L138.482 139.501L138.81 139.489L138.675 139.42ZM146.089 173.561C146.089 173.561 146.089 173.546 146.135 173.535C145.964 173.535 145.997 173.535 146.089 173.561C146.074 173.602 146.366 173.632 146.074 173.658C145.896 173.665 145.719 173.641 145.549 173.589C145.316 173.635 145.091 173.715 144.88 173.826C144.837 173.826 144.819 173.843 144.839 173.849L144.88 173.826C145.269 173.754 145.663 173.708 146.058 173.691L146.16 173.708C146.794 173.665 146.285 173.604 146.089 173.563V173.561ZM151.629 174.274L152.093 174.246C151.782 174.327 152.571 174.228 152.093 174.246L152.194 174.223C151.095 174.238 151.769 174.195 151.629 174.274ZM150.866 174.019C151.5 174.062 151.044 174.108 150.693 174.167C151.884 174.164 152.062 174.019 150.866 174.037V174.019ZM150.031 174.429C149.82 174.401 150.382 174.376 150.515 174.325L149.878 174.274C149.502 174.378 149.369 174.426 150.021 174.447L150.031 174.429ZM149.606 174.174L150.301 174.218C150.003 174.185 149.866 174.131 149.924 174.19C149.703 174.075 149.695 174.141 149.606 174.174L149.278 174.151C149.377 174.195 149.488 174.206 149.593 174.182L149.606 174.174ZM150.309 174.057C149.924 174.017 149.545 173.981 149.161 173.933H148.939C149.385 173.989 149.848 174.019 150.298 174.065L150.309 174.057ZM146.898 173.803C146.071 173.892 146.924 173.978 147.333 174.057C146.707 173.948 147.181 173.897 146.888 173.81L146.898 173.803ZM145.929 174.383C145.962 174.325 146.42 174.312 146.661 174.284L146.193 174.225C146.234 174.179 146.122 174.141 145.496 174.129L146.193 174.225C146.135 174.286 145.88 174.347 145.918 174.391L145.929 174.383ZM144.72 173.963C144.974 174.006 145.249 174.05 145.514 174.085C145.313 174.044 145.447 174.004 145.463 173.973C145.208 173.973 144.969 173.973 144.72 173.973L144.358 173.917L144.445 173.971L144.72 173.963ZM144.3 174.09H144.368C144.358 174.083 144.346 174.08 144.334 174.08C144.322 174.08 144.31 174.083 144.3 174.09L144.022 174.075L143.417 174.042L144.012 174.08L143.73 174.177C143.92 174.196 144.112 174.169 144.289 174.098L144.3 174.09ZM143.628 174.365L143.236 174.238L142.928 174.157C143.152 174.238 143.383 174.309 143.618 174.373L143.628 174.365ZM140.065 173.823C140.245 173.889 140.439 173.963 140.645 174.027C140.851 174.09 141.078 174.144 141.322 174.19C141.014 174.093 141.729 174.141 141.442 174.017C140.976 174.014 140.513 173.949 140.065 173.823C139.846 173.749 139.647 173.665 139.454 173.599C139.648 173.696 139.851 173.773 140.06 173.831L140.065 173.823Z" fill="#FADD6F"/>
<path d="M137.56 138.893L137.484 138.847L137.756 138.646C137.924 138.505 138.081 138.352 138.225 138.188C138.023 138.441 137.801 138.677 137.56 138.893Z" fill="#FADD6F"/>
<path d="M136.05 139.84C135.94 139.88 135.825 139.903 135.709 139.909L135.938 139.799L136.144 139.675C136.17 139.658 136.196 139.643 136.223 139.629L136.381 139.716L136.05 139.84Z" fill="#FADD6F"/>
<path d="M135.244 139.419L135.437 139.164L135.615 139.274L135.244 139.419Z" fill="#FADD6F"/>
<path d="M133.844 138.413C133.938 138.222 134.638 138.667 135.404 139.141L134.984 139.304C134.809 139.365 134.615 139.421 134.43 139.482L133.302 139.844L131.012 140.589L128.693 141.353L127.517 141.725C127.165 141.837 126.798 141.895 126.428 141.895C126.451 141.989 125.919 141.994 125.41 141.857C125.29 141.816 125.155 141.793 125.061 141.75C124.967 141.707 124.855 141.674 124.774 141.648C124.616 141.59 124.519 141.577 124.55 141.669L124.667 141.707C125.008 141.888 124.944 141.905 124.705 141.852C124.557 141.804 124.413 141.745 124.275 141.674C124.121 141.585 123.978 141.48 123.847 141.361C124.135 141.552 123.936 141.302 123.847 141.137C123.801 141.055 123.778 140.997 123.847 141.02C123.916 141.042 124.043 141.17 124.369 141.381C124.065 141.127 123.806 140.822 123.605 140.48C123.581 140.216 123.514 139.958 123.407 139.716C123.263 139.36 123.164 138.987 123.114 138.606L123.076 138.278C123.076 138.166 123.076 138.051 123.076 137.937C123.077 137.821 123.091 137.706 123.117 137.593C123.131 137.477 123.158 137.363 123.196 137.252C123.321 136.813 123.565 136.417 123.901 136.107C123.855 136.146 123.801 136.175 123.743 136.191C124.291 135.641 124.965 135.233 125.705 134.999C125.878 134.969 126.044 134.92 126.199 134.903L126.626 134.872C126.805 134.874 126.982 134.901 127.153 134.953L127.321 134.859C127.578 134.976 127.824 135.113 128.057 135.272C128.268 135.419 128.454 135.539 128.65 135.653C129.044 135.885 129.487 136.099 130.296 136.481C130.296 136.45 130.123 136.318 130.388 136.425C130.914 136.891 131.509 137.273 132.152 137.558L132.129 137.497L133.844 138.413Z" fill="#FADD6F"/>
<path d="M138.982 173.362L138.977 173.359H138.982V173.362Z" fill="#FADD6F"/>
<path d="M130.223 156.94C129.89 157.042 129.63 157.087 129.984 156.774L130.208 156.678L130.557 156.586L130.223 156.94Z" fill="#FADD6F"/>
<path d="M129.954 156.641L131.1 156C130.99 156.104 130.845 156.272 130.654 156.471L130.204 156.675C129.982 156.731 129.84 156.753 129.954 156.641Z" fill="#FADD6F"/>
<path d="M138.909 173.278C138.932 173.293 138.951 173.314 138.963 173.339C138.846 173.29 138.5 173.188 138.909 173.278Z" fill="#FADD6F"/>
<path d="M139.004 173.346C139.076 173.359 139.055 173.362 138.988 173.359C138.988 173.359 138.988 173.344 138.988 173.336L139.004 173.346Z" fill="#FADD6F"/>
<path d="M131.073 173.898C131.292 173.898 131.514 173.883 131.717 173.863C131.921 173.842 132.099 173.799 132.244 173.773C132.117 173.809 131.972 173.865 131.817 173.926C131.515 174.003 131.206 174.045 130.895 174.051L131.073 173.898Z" fill="#FADD6F"/>
<path d="M143.025 144.88C143.025 145.071 143.025 145.27 143.025 145.402C142.981 145.178 142.931 145.015 142.91 144.865C142.901 144.793 142.901 144.72 142.91 144.648C142.91 144.572 142.919 144.496 142.938 144.422C142.974 144.48 143 144.544 143.015 144.61C143.024 144.7 143.027 144.79 143.025 144.88Z" fill="#FADD6F"/>
<path d="M136.398 171.848C136.426 171.867 136.451 171.89 136.475 171.914L136.383 171.949L136.192 171.876L136.398 171.848Z" fill="#FADD6F"/>
<path d="M136.086 140.057C135.98 140.101 135.871 140.138 135.76 140.169C135.569 140.223 135.434 140.241 135.389 140.198C135.574 140.101 135.768 140.023 135.969 139.966C136.122 139.899 136.27 139.819 136.409 139.727L136.564 139.808C136.526 139.828 136.486 139.846 136.45 139.869L136.086 140.057Z" fill="#FADD6F"/>
<path d="M135.792 172.148L135.726 171.97L135.688 171.937L135.902 171.906C135.96 171.978 135.958 172.003 135.953 172.028L135.884 172.006L135.955 172.054C135.953 172.064 135.953 172.074 135.955 172.084L135.792 172.148Z" fill="#FADD6F"/>
<path d="M135.075 160.783C135.35 160.483 135.485 160.323 135.098 160.768L135.075 160.783Z" fill="#FADD6F"/>
<path d="M135.599 171.548C135.508 171.487 135.431 171.436 135.386 171.411L135.536 171.564L135.322 171.61L135.284 171.571L135.312 171.61C134.905 171.683 134.635 171.668 134.642 171.576C134.943 171.485 135.241 171.383 135.536 171.281C135.59 171.304 135.641 171.332 135.691 171.363L135.869 171.477C135.772 171.505 135.683 171.528 135.599 171.548Z" fill="#FADD6F"/>
<path d="M129.29 157.685C129.483 157.52 129.69 157.372 129.908 157.242C129.731 157.426 129.521 157.577 129.29 157.685Z" fill="#FADD6F"/>
<path d="M136.057 172.065L135.99 172.085L135.954 172.065C135.954 172.065 135.954 172.047 135.954 172.039L136.057 172.065Z" fill="#FADD6F"/>
<path d="M126.413 172.445C126.42 172.475 126.434 172.503 126.451 172.528C126.276 172.412 126.384 172.463 126.413 172.445Z" fill="#FADD6F"/>
<path d="M136.946 138.159C137.159 138.021 137.304 137.96 136.834 138.477C136.807 138.482 136.78 138.49 136.755 138.5C136.712 138.455 136.666 138.415 136.617 138.378H136.635C136.717 138.319 136.836 138.225 136.946 138.159Z" fill="#FADD6F"/>
<path d="M103.498 149.948L31.8727 126.004C28.7526 124.962 25.3839 124.926 22.2424 125.902C19.1008 126.878 16.3454 128.817 14.3652 131.444C12.4851 133.938 11.3917 136.936 11.2249 140.055C11.058 143.174 11.8253 146.272 13.4286 148.953L45.5396 202.631C46.9278 204.891 47.7325 207.461 47.8813 210.11C48.0301 212.759 47.5184 215.403 46.3922 217.805L40.6531 230.041L78.0196 208.895C78.9309 208.38 79.725 207.68 80.3515 206.841C80.978 206.002 81.4231 205.042 81.6587 204.022C81.8942 203.001 81.9149 201.943 81.7196 200.915C81.5242 199.886 81.1171 198.909 80.5239 198.046L55.557 161.711L93.0634 177.567C94.8933 178.342 96.8607 178.74 98.8478 178.736C100.835 178.732 102.801 178.327 104.628 177.545C106.455 176.763 108.105 175.62 109.479 174.185C110.854 172.749 111.925 171.051 112.627 169.192C113.333 167.332 113.656 165.349 113.576 163.361C113.496 161.373 113.016 159.422 112.163 157.624C111.31 155.827 110.103 154.22 108.614 152.901C107.125 151.582 105.385 150.578 103.498 149.948Z" fill="#F2A84C"/>
<path d="M128.209 119.904L112.654 142.832C111.156 145.039 109.211 146.907 106.945 148.313C104.679 149.72 102.142 150.634 99.5 150.996C96.8576 151.359 94.1687 151.161 91.6077 150.416C89.0468 149.671 86.6711 148.396 84.635 146.673L65.5751 130.55C61.8254 127.376 59.4196 122.897 58.8434 118.018L58.6703 116.554L52.2874 116.099L49.6151 120.887C49.3132 121.429 48.8146 121.836 48.2222 122.021C47.6298 122.207 46.9886 122.158 46.4312 121.885C45.8564 121.604 45.4158 121.108 45.2055 120.503C44.9952 119.899 45.0324 119.236 45.3088 118.659L47.0344 115.045C47.5692 113.923 48.4235 112.985 49.4899 112.348C50.5563 111.711 51.7872 111.403 53.028 111.463L59.528 111.776L49.5311 108.416L45.912 110.432C45.4521 110.688 44.9168 110.775 44.3996 110.677C43.8824 110.579 43.416 110.302 43.0819 109.895C42.8831 109.653 42.737 109.372 42.6531 109.07C42.5692 108.769 42.5492 108.453 42.5945 108.143C42.6398 107.833 42.7493 107.536 42.9161 107.271C43.0829 107.006 43.3032 106.779 43.5629 106.604L49.2053 102.801C50.4909 101.934 51.9761 101.409 53.5208 101.275C55.0655 101.141 56.6188 101.404 58.0341 102.037L62.4574 104.017L60.1312 99.9649L52.4248 97.8877C52.1541 97.8147 51.9026 97.6834 51.688 97.503C51.4733 97.3226 51.3007 97.0975 51.1821 96.8434C51.0636 96.5893 51.002 96.3123 51.0017 96.0319C51.0014 95.7515 51.0623 95.4744 51.1803 95.22C51.3702 94.8104 51.6982 94.4807 52.1067 94.2885C52.5152 94.0963 52.9782 94.0539 53.4148 94.1687L62.1622 96.4597C63.2508 96.7459 64.2724 97.2442 65.1681 97.9261C66.0638 98.608 66.8162 99.46 67.3821 100.433L75.5568 114.525L93.4129 127.042L108.671 106.143C110.46 103.693 113.113 102.014 116.094 101.447C119.074 100.88 122.158 101.467 124.722 103.088C126.074 103.947 127.24 105.068 128.15 106.386C129.06 107.703 129.697 109.19 130.022 110.759C130.347 112.327 130.354 113.944 130.043 115.515C129.731 117.086 129.108 118.579 128.209 119.904Z" fill="#83BF6E"/>
<path d="M151.796 62.9883C153.258 68.7356 152.377 74.8283 149.348 79.926C146.318 85.0237 141.388 88.709 135.642 90.171C129.895 91.6329 123.804 90.7518 118.707 87.7216C113.61 84.6914 109.926 79.7604 108.464 74.0131L151.796 62.9883ZM145.09 70.2202L145.314 70.1616C145.403 70.1395 145.487 70.1002 145.561 70.0456C145.635 69.991 145.697 69.9224 145.745 69.8436C145.792 69.7648 145.823 69.6775 145.837 69.5866C145.85 69.4957 145.845 69.4031 145.823 69.314L145.541 68.227C145.493 68.049 145.377 67.897 145.217 67.8041C145.058 67.7111 144.869 67.6848 144.69 67.7306L144.467 67.7892C144.289 67.8364 144.137 67.9521 144.044 68.1108C143.951 68.2696 143.924 68.4586 143.97 68.6368L144.255 69.7238C144.303 69.8988 144.416 70.0485 144.572 70.1412C144.728 70.2338 144.914 70.2622 145.09 70.2202ZM143.879 75.6702L144.103 75.6116C144.192 75.5896 144.276 75.5501 144.35 75.4954C144.424 75.4407 144.487 75.3717 144.534 75.2927C144.582 75.2136 144.613 75.1259 144.626 75.0348C144.639 74.9436 144.634 74.8507 144.612 74.7614L144.329 73.677C144.307 73.5875 144.268 73.5034 144.213 73.4293C144.158 73.3551 144.089 73.2925 144.01 73.2452C143.931 73.1978 143.844 73.1667 143.752 73.1534C143.661 73.1402 143.568 73.145 143.479 73.1679L143.258 73.2264C143.168 73.2484 143.084 73.288 143.01 73.3427C142.936 73.3975 142.873 73.4664 142.826 73.5455C142.779 73.6245 142.747 73.7121 142.734 73.8033C142.721 73.8944 142.726 73.9874 142.749 74.0767L143.034 75.161C143.056 75.25 143.095 75.3337 143.149 75.4074C143.204 75.4811 143.272 75.5435 143.351 75.5907C143.429 75.638 143.516 75.6693 143.607 75.683C143.697 75.6966 143.79 75.6922 143.879 75.6702ZM141.799 79.5013L142.082 80.5882C142.129 80.7666 142.245 80.9189 142.404 81.012C142.564 81.105 142.753 81.1311 142.932 81.0845L143.153 81.026C143.242 81.004 143.326 80.9646 143.4 80.91C143.474 80.8555 143.537 80.7867 143.584 80.7079C143.631 80.6292 143.662 80.5419 143.676 80.451C143.689 80.3601 143.685 80.2674 143.662 80.1783L143.377 79.0914C143.33 78.9135 143.214 78.7616 143.056 78.6686C142.897 78.5757 142.708 78.5493 142.53 78.5951L142.306 78.6536C142.217 78.6756 142.133 78.7151 142.059 78.7697C141.985 78.8243 141.923 78.893 141.876 78.9718C141.829 79.0506 141.798 79.138 141.785 79.2288C141.771 79.3197 141.776 79.4123 141.799 79.5013ZM140.433 71.4318L140.654 71.3733C140.743 71.3513 140.828 71.3117 140.902 71.257C140.976 71.2022 141.038 71.1334 141.086 71.0544C141.133 70.9753 141.164 70.8876 141.178 70.7965C141.191 70.7053 141.186 70.6124 141.163 70.5231L140.878 69.4387C140.856 69.3495 140.817 69.2655 140.762 69.1916C140.707 69.1176 140.639 69.0553 140.56 69.008C140.481 68.9607 140.394 68.9293 140.303 68.9159C140.212 68.9024 140.12 68.9071 140.03 68.9296L139.807 68.9881C139.628 69.0353 139.476 69.1513 139.383 69.3106C139.29 69.47 139.264 69.6598 139.31 69.8384L139.593 70.9227C139.637 71.1012 139.751 71.2548 139.908 71.3502C140.065 71.4455 140.254 71.4749 140.433 71.4318ZM139.221 76.8793L139.445 76.8207C139.534 76.7987 139.618 76.7594 139.692 76.7048C139.766 76.6502 139.828 76.5814 139.876 76.5027C139.923 76.4239 139.954 76.3367 139.968 76.2458C139.981 76.1549 139.977 76.0622 139.954 75.9731L139.672 74.8861C139.624 74.7081 139.508 74.5562 139.349 74.4633C139.189 74.3703 139 74.3439 138.822 74.3898L138.598 74.4483C138.42 74.4956 138.268 74.6111 138.175 74.7699C138.082 74.9287 138.056 75.1178 138.101 75.296L138.386 76.383C138.433 76.5612 138.547 76.7139 138.706 76.8078C138.864 76.9018 139.053 76.9292 139.231 76.8844L139.221 76.8793ZM137.139 80.7129L137.424 81.7974C137.471 81.9756 137.586 82.1279 137.745 82.221C137.904 82.314 138.094 82.3402 138.272 82.2937L138.496 82.2377C138.585 82.2154 138.669 82.1757 138.743 82.1209C138.817 82.0661 138.879 81.9972 138.927 81.9182C138.974 81.8392 139.005 81.7517 139.019 81.6606C139.032 81.5696 139.027 81.4767 139.005 81.3874L138.722 80.3005C138.675 80.1221 138.559 79.9698 138.4 79.8768C138.24 79.7837 138.051 79.7576 137.872 79.8042L137.648 79.8627C137.559 79.8858 137.476 79.9262 137.402 79.9818C137.329 80.0374 137.267 80.107 137.221 80.1865C137.174 80.266 137.144 80.3538 137.132 80.445C137.12 80.5363 137.126 80.6291 137.149 80.718L137.139 80.7129ZM135.783 72.6461L136.007 72.5875C136.096 72.5655 136.18 72.526 136.254 72.4714C136.328 72.4169 136.39 72.3482 136.437 72.2695C136.485 72.1907 136.516 72.1034 136.529 72.0125C136.543 71.9217 136.538 71.8289 136.516 71.7398L136.233 70.6529C136.186 70.4745 136.07 70.3221 135.911 70.229C135.751 70.136 135.562 70.11 135.383 70.1566L135.162 70.2151C135.073 70.2372 134.989 70.2765 134.915 70.3311C134.841 70.3857 134.778 70.4543 134.731 70.5331C134.684 70.6118 134.653 70.6992 134.639 70.7901C134.626 70.881 134.63 70.9736 134.653 71.0627L134.938 72.1496C134.961 72.239 135.001 72.323 135.056 72.3966C135.112 72.4703 135.181 72.5322 135.261 72.5788C135.34 72.6255 135.428 72.6559 135.52 72.6683C135.611 72.6807 135.704 72.6749 135.793 72.6512L135.783 72.6461ZM134.579 78.1012L134.8 78.0427C134.89 78.0204 134.974 77.9806 135.048 77.9257C135.122 77.8709 135.184 77.8021 135.231 77.7231C135.278 77.6442 135.31 77.5567 135.323 77.4656C135.337 77.3745 135.332 77.2816 135.309 77.1924L135.024 76.1054C134.977 75.9276 134.862 75.7757 134.703 75.6827C134.544 75.5897 134.355 75.5633 134.177 75.6091L133.953 75.6677C133.775 75.7149 133.622 75.8309 133.529 75.9902C133.436 76.1496 133.41 76.3393 133.457 76.5178L133.739 77.6023C133.786 77.7789 133.9 77.9301 134.057 78.0234C134.214 78.1167 134.402 78.1447 134.579 78.1012ZM132.497 81.9322L132.78 83.0192C132.827 83.1976 132.943 83.35 133.102 83.443C133.261 83.5361 133.451 83.5622 133.63 83.5156L133.854 83.4571C133.943 83.4351 134.027 83.3955 134.101 83.3407C134.176 83.286 134.238 83.2171 134.285 83.138C134.333 83.059 134.364 82.9713 134.377 82.8801C134.39 82.7889 134.385 82.696 134.363 82.6068L134.078 81.5224C134.056 81.4331 134.017 81.3488 133.962 81.2747C133.908 81.2006 133.839 81.1381 133.76 81.0908C133.681 81.0434 133.594 81.0122 133.503 80.9989C133.412 80.9856 133.319 80.9905 133.23 81.0133L133.006 81.0719C132.916 81.0944 132.831 81.1345 132.757 81.1902C132.683 81.2459 132.62 81.3159 132.573 81.396C132.526 81.4762 132.496 81.5648 132.484 81.6569C132.471 81.749 132.478 81.8426 132.502 81.9322H132.497ZM131.141 73.8679L131.365 73.8093C131.454 73.7873 131.538 73.7479 131.612 73.6931C131.686 73.6384 131.749 73.5695 131.796 73.4904C131.844 73.4114 131.875 73.3237 131.888 73.2325C131.901 73.1413 131.896 73.0484 131.874 72.9592L131.589 71.8748C131.567 71.7856 131.527 71.7016 131.473 71.6277C131.418 71.5538 131.349 71.4913 131.271 71.444C131.192 71.3967 131.104 71.3655 131.014 71.352C130.923 71.3386 130.83 71.3433 130.741 71.3657L130.517 71.4243C130.428 71.4463 130.343 71.4857 130.269 71.5405C130.195 71.5952 130.133 71.6641 130.085 71.7432C130.038 71.8223 130.007 71.9099 129.994 72.0011C129.98 72.0923 129.985 72.1852 130.008 72.2744L130.291 73.3588C130.313 73.4486 130.353 73.5332 130.408 73.6075C130.463 73.6818 130.532 73.7445 130.612 73.7918C130.691 73.8392 130.78 73.8704 130.871 73.8834C130.963 73.8965 131.056 73.8911 131.146 73.8679H131.141ZM129.929 79.3155L130.153 79.2569C130.242 79.2349 130.326 79.1954 130.4 79.1408C130.474 79.0863 130.536 79.0176 130.584 78.9388C130.631 78.8601 130.662 78.7727 130.676 78.6818C130.689 78.5909 130.685 78.4983 130.662 78.4092L130.38 77.3223C130.358 77.2328 130.318 77.1486 130.263 77.0744C130.209 77.0003 130.14 76.9378 130.061 76.8905C129.982 76.8431 129.894 76.8119 129.803 76.7986C129.712 76.7854 129.619 76.7903 129.53 76.8132L129.308 76.8717C129.219 76.8937 129.135 76.9331 129.061 76.9877C128.987 77.0423 128.925 77.1109 128.878 77.1897C128.83 77.2684 128.799 77.3558 128.786 77.4467C128.772 77.5376 128.777 77.6303 128.799 77.7194L129.084 78.8064C129.105 78.8965 129.144 78.9815 129.199 79.0564C129.253 79.1314 129.322 79.1948 129.401 79.2429C129.48 79.291 129.568 79.3228 129.66 79.3366C129.751 79.3503 129.844 79.3458 129.934 79.323L129.929 79.3155ZM127.847 83.1465L128.132 84.2334C128.18 84.4112 128.295 84.5632 128.454 84.6561C128.613 84.7491 128.802 84.7756 128.98 84.7298L129.204 84.6712C129.293 84.6495 129.377 84.6103 129.451 84.5558C129.525 84.5013 129.588 84.4326 129.635 84.3537C129.683 84.2749 129.714 84.1875 129.727 84.0964C129.741 84.0054 129.736 83.9127 129.713 83.8236L129.43 82.7367C129.383 82.5583 129.267 82.4059 129.108 82.3128C128.948 82.2198 128.759 82.1937 128.58 82.2402L128.359 82.2988C128.18 82.3439 128.027 82.4577 127.932 82.6156C127.837 82.7735 127.808 82.9625 127.852 83.1414L127.847 83.1465ZM126.493 75.0821L126.715 75.0236C126.804 75.0019 126.888 74.9626 126.962 74.9081C127.036 74.8536 127.099 74.785 127.146 74.7061C127.194 74.6273 127.225 74.5399 127.238 74.4488C127.251 74.3578 127.247 74.265 127.224 74.1759L126.941 73.0889C126.894 72.9106 126.778 72.7583 126.619 72.6652C126.459 72.5722 126.27 72.5461 126.091 72.5926L125.87 72.6512C125.78 72.6726 125.696 72.7116 125.622 72.766C125.547 72.8204 125.485 72.8892 125.437 72.9681C125.39 73.0471 125.359 73.1347 125.346 73.2258C125.332 73.3169 125.338 73.4097 125.361 73.4989L125.643 74.5858C125.667 74.6747 125.707 74.7581 125.763 74.8312C125.819 74.9043 125.888 74.9656 125.968 75.0118C126.047 75.0579 126.135 75.0878 126.226 75.0999C126.317 75.112 126.41 75.1059 126.498 75.0821H126.493ZM125.282 80.5297L125.506 80.471C125.595 80.449 125.679 80.4096 125.753 80.3551C125.827 80.3005 125.889 80.2318 125.936 80.1531C125.984 80.0743 126.015 79.9869 126.029 79.896C126.042 79.8051 126.037 79.7126 126.015 79.6235L125.73 78.5365C125.683 78.3587 125.567 78.2068 125.408 78.1138C125.25 78.0208 125.06 77.9943 124.882 78.0401L124.658 78.0986C124.569 78.1206 124.485 78.1602 124.411 78.215C124.336 78.2697 124.274 78.3385 124.227 78.4176C124.179 78.4966 124.148 78.5843 124.135 78.6755C124.122 78.7667 124.127 78.8595 124.149 78.9488L124.432 80.0333C124.455 80.1221 124.496 80.2055 124.552 80.2786C124.607 80.3517 124.677 80.4131 124.756 80.4592C124.836 80.5053 124.924 80.5353 125.015 80.5473C125.106 80.5594 125.198 80.5535 125.287 80.5297H125.282ZM123.2 84.3632L123.485 85.4476C123.507 85.5368 123.547 85.6208 123.601 85.6947C123.656 85.7687 123.724 85.831 123.803 85.8783C123.882 85.9256 123.969 85.957 124.06 85.9704C124.151 85.9839 124.244 85.9792 124.333 85.9568L124.557 85.8982C124.646 85.8762 124.73 85.8366 124.804 85.7819C124.878 85.7271 124.941 85.6583 124.988 85.5793C125.036 85.5002 125.067 85.4125 125.08 85.3214C125.093 85.2302 125.088 85.1373 125.066 85.048L124.781 83.9636C124.758 83.8744 124.719 83.7904 124.664 83.7165C124.61 83.6426 124.541 83.5802 124.463 83.5329C124.384 83.4856 124.296 83.4542 124.206 83.4408C124.115 83.4273 124.022 83.432 123.933 83.4545L123.709 83.513C123.62 83.5356 123.536 83.5755 123.463 83.6305C123.389 83.6854 123.327 83.7544 123.281 83.8334C123.234 83.9124 123.203 83.9999 123.19 84.0909C123.177 84.1818 123.182 84.2743 123.205 84.3632H123.2ZM121.844 76.2964L122.067 76.2378C122.245 76.1906 122.397 76.075 122.49 75.9163C122.583 75.7575 122.61 75.5683 122.564 75.3901L122.281 74.3032C122.233 74.1252 122.117 73.9733 121.958 73.8803C121.799 73.7874 121.61 73.761 121.431 73.8069L121.207 73.8654C121.118 73.8874 121.034 73.9269 120.959 73.9816C120.885 74.0364 120.823 74.1053 120.776 74.1843C120.728 74.2634 120.697 74.3511 120.684 74.4423C120.67 74.5334 120.675 74.6263 120.698 74.7156L120.983 75.8C121.006 75.8908 121.047 75.9759 121.104 76.0504C121.16 76.1249 121.232 76.1872 121.313 76.2336C121.394 76.2799 121.484 76.3094 121.577 76.3202C121.67 76.331 121.764 76.3229 121.854 76.2964H121.844ZM119.5 80.163L119.785 81.25C119.807 81.3392 119.846 81.4232 119.901 81.4971C119.955 81.571 120.024 81.6335 120.103 81.6808C120.181 81.7281 120.269 81.7593 120.359 81.7728C120.45 81.7862 120.543 81.7816 120.632 81.7591L120.856 81.7005C121.033 81.6517 121.183 81.5351 121.275 81.3759C121.366 81.2167 121.392 81.0279 121.345 80.8504L121.062 79.766C121.015 79.5877 120.899 79.4352 120.74 79.3422C120.58 79.2491 120.391 79.223 120.212 79.2696L119.991 79.3255C119.817 79.3756 119.67 79.4907 119.58 79.6467C119.489 79.8027 119.462 79.9877 119.505 80.163H119.5ZM116.064 75.9298L116.346 77.0168C116.368 77.1062 116.408 77.1905 116.462 77.2646C116.517 77.3387 116.586 77.4012 116.665 77.4486C116.744 77.4959 116.832 77.5271 116.923 77.5404C117.014 77.5537 117.107 77.5487 117.196 77.5259L117.418 77.4673C117.507 77.4453 117.591 77.4059 117.665 77.3511C117.74 77.2964 117.802 77.2274 117.849 77.1484C117.897 77.0693 117.928 76.9817 117.941 76.8905C117.954 76.7993 117.95 76.7064 117.927 76.6172L117.642 75.5327C117.62 75.4433 117.581 75.3592 117.526 75.2851C117.472 75.211 117.403 75.1485 117.324 75.1011C117.245 75.0538 117.158 75.0225 117.067 75.0092C116.976 74.9959 116.883 75.0008 116.794 75.0236L116.57 75.0796C116.391 75.1264 116.238 75.242 116.144 75.4013C116.05 75.5606 116.023 75.7506 116.069 75.9298H116.064Z" fill="#FADD6F"/>
<path d="M100.205 131.254L97.2121 121.828L93.4072 127.039L100.205 131.254Z" fill="#71A85A"/>
</svg>
