<svg width="114" height="114" viewBox="0 0 114 114" fill="none" xmlns="http://www.w3.org/2000/svg">
<path opacity="0.15" d="M85.6725 68.39L90.2517 79.7037C91.4454 82.6777 88.7255 85.7083 85.6699 84.8205L70.8147 80.6258C69.7872 80.3455 69.2673 79.2942 69.5106 78.2766C70.4492 74.374 70.4171 70.2553 69.3853 66.4045C65.754 52.8525 51.1709 44.9338 36.8784 48.7634C33.9533 49.5472 31.2213 50.7555 28.7934 52.3585C27.5425 53.1699 25.8722 52.2681 25.8284 50.7718C25.5865 36.3911 35.8573 22.8842 51.3346 18.7371C69.4039 13.8954 87.6906 23.6395 92.2048 40.4869C94.8836 50.4842 92.1081 60.7128 85.6725 68.39Z" fill="white"/>
<path opacity="0.3" d="M63.8314 67.8919C65.0121 72.2981 64.4742 76.8076 62.5974 80.7632C60.1223 86.1886 55.0729 90.5974 48.5562 92.3436L40.4299 100.672C39.0686 102.109 36.628 101.294 36.3441 99.3462L35.3153 91.8038C29.431 89.6898 24.7683 85.026 23.1016 78.8054C21.3554 72.2886 23.2981 65.6168 27.7173 60.7816C30.4372 57.751 34.0717 55.4676 38.3669 54.3167C49.6231 51.3006 61.0137 57.3761 63.8314 67.8919Z" fill="white"/>
</svg>
