<svg width="48" height="48" viewBox="0 0 48 48" fill="none" xmlns="http://www.w3.org/2000/svg">
<rect width="48" height="48" rx="12" fill="#EEF8FE"/>
<path d="M35.3631 22.9147C35.3047 22.3197 34.8031 21.8763 34.2081 21.8763H25.3997C24.7581 21.8763 24.2331 22.4013 24.2331 23.043V25.038C24.2331 25.6797 24.7581 26.2047 25.3997 26.2047H30.6614C30.5331 27.278 29.8331 28.8997 28.2814 29.9847C27.2897 30.673 25.9714 31.1513 24.2331 31.1513C24.1514 31.1513 24.0814 31.1513 23.9997 31.1397C21.0247 31.0463 18.5047 29.0514 17.5947 26.3097C17.3497 25.5747 17.2097 24.8047 17.2097 23.9997C17.2097 23.1947 17.3497 22.413 17.5831 21.6897C17.6531 21.4797 17.7347 21.2697 17.8281 21.0597C18.9014 18.6447 21.2464 16.9413 23.9997 16.8597C24.0697 16.848 24.1514 16.848 24.2331 16.848C25.9014 16.848 27.1497 17.3963 28.0247 18.003C28.4797 18.318 29.0864 18.248 29.4831 17.863L31.1047 16.2763C31.6181 15.7747 31.5714 14.923 30.9881 14.503C29.1331 13.138 26.8697 12.333 24.2331 12.333C24.1514 12.333 24.0814 12.333 23.9997 12.3447C19.5314 12.4264 15.6931 15.0164 13.8147 18.7614C13.0214 20.348 12.5664 22.1213 12.5664 23.9997C12.5664 25.878 13.0214 27.6513 13.8147 29.238H13.8264C15.7047 32.983 19.5431 35.573 23.9997 35.6547C24.0814 35.6663 24.1514 35.6663 24.2331 35.6663C27.3831 35.6663 30.0314 34.628 31.9564 32.843C34.1614 30.8013 35.4331 27.8147 35.4331 24.2563C35.4331 23.7547 35.4097 23.323 35.3631 22.9147Z" fill="#57B6F0"/>
</svg>
