<svg width="48" height="48" viewBox="0 0 48 48" fill="none" xmlns="http://www.w3.org/2000/svg">
<rect width="48" height="48" rx="12" fill="#FBEDF0"/>
<path d="M28.1868 12.042C24.7218 12.042 21.9102 14.8537 21.9102 18.3187C21.9102 21.7837 24.7218 24.5953 28.1868 24.5953C31.6518 24.5953 34.4635 21.7837 34.4635 18.3187C34.4635 14.8537 31.6518 12.042 28.1868 12.042Z" fill="#E79CAD"/>
<path d="M17.4202 25.2021C15.2852 25.2021 13.5352 26.9405 13.5352 29.0872C13.5352 31.2338 15.2735 32.9722 17.4202 32.9722C19.5552 32.9722 21.3052 31.2338 21.3052 29.0872C21.3052 26.9405 19.5552 25.2021 17.4202 25.2021Z" fill="#D34B6A"/>
<path d="M29.3916 29.3896C27.5833 29.3896 26.1133 30.8596 26.1133 32.668C26.1133 34.4763 27.5833 35.9463 29.3916 35.9463C31.1999 35.9463 32.6699 34.4763 32.6699 32.668C32.6699 30.8596 31.1999 29.3896 29.3916 29.3896Z" fill="#D34B6A"/>
</svg>
