<svg width="48" height="48" viewBox="0 0 48 48" fill="none" xmlns="http://www.w3.org/2000/svg">
<rect width="48" height="48" rx="12" fill="#EEF8FE"/>
<path d="M25.4583 23.9997C26.2637 23.9997 26.9167 23.3468 26.9167 22.5413C26.9167 21.7359 26.2637 21.083 25.4583 21.083C24.6529 21.083 24 21.7359 24 22.5413C24 23.3468 24.6529 23.9997 25.4583 23.9997Z" fill="#57B6F0"/>
<path d="M28.887 12.333H19.1104C14.8637 12.333 12.332 14.8647 12.332 19.1113V28.8763C12.332 33.1347 14.8637 35.6663 19.1104 35.6663H28.8754C33.122 35.6663 35.6537 33.1347 35.6537 28.888V19.1113C35.6654 14.8647 33.1337 12.333 28.887 12.333ZM28.537 25.7147C27.3354 26.9047 25.6204 27.278 24.1037 26.7997L22.867 28.0247C22.762 28.1297 22.5754 28.1297 22.4587 28.0247L21.327 26.893C21.1637 26.7297 20.8837 26.7297 20.7087 26.893C20.5337 27.0563 20.5454 27.3363 20.7087 27.5113L21.8404 28.643C21.957 28.7597 21.957 28.9463 21.8404 29.0513L21.362 29.5297C21.1637 29.7397 20.7787 29.868 20.4987 29.833L19.227 29.658C18.807 29.5997 18.422 29.203 18.352 28.783L18.177 27.5113C18.1304 27.2313 18.2704 26.8463 18.457 26.648L21.1987 23.9063C20.732 22.3897 21.0937 20.6747 22.2954 19.473C24.0104 17.758 26.8104 17.758 28.537 19.473C30.2637 21.188 30.2637 23.988 28.537 25.7147Z" fill="#57B6F0"/>
</svg>
