<svg width="72" height="72" viewBox="0 0 72 72" fill="none" xmlns="http://www.w3.org/2000/svg">
<rect width="72" height="72" rx="12" fill="white"/>
<path d="M32.8011 38.3587L27.3061 35.4004C26.7286 35.0853 26.0286 35.0853 25.4511 35.4004L19.9561 38.3587C19.5536 38.5688 19.3086 39.0064 19.3086 39.479C19.3086 39.9516 19.5536 40.3893 19.9561 40.5993L25.4511 43.5576C25.7486 43.7152 26.0636 43.7852 26.3786 43.7852C26.6936 43.7852 27.0086 43.7152 27.3061 43.5576L32.8011 40.5993C33.2036 40.3893 33.4486 39.9516 33.4486 39.479C33.4486 39.0064 33.1861 38.5863 32.8011 38.3587Z" fill="#ABDAF7"/>
<path d="M52.0511 38.3587L46.5561 35.4004C45.9786 35.0853 45.2786 35.0853 44.7011 35.4004L39.2061 38.3587C38.8036 38.5688 38.5586 39.0064 38.5586 39.479C38.5586 39.9516 38.8036 40.3893 39.2061 40.5993L44.7011 43.5576C44.9986 43.7152 45.3136 43.7852 45.6286 43.7852C45.9436 43.7852 46.2586 43.7152 46.5561 43.5576L52.0511 40.5993C52.4536 40.3893 52.6986 39.9516 52.6986 39.479C52.6986 39.0064 52.4361 38.5863 52.0511 38.3587Z" fill="#ABDAF7"/>
<path d="M24.5375 44.5924L19.4275 42.0367C19.0425 41.8441 18.5875 41.8616 18.2025 42.0892C17.8525 42.3168 17.625 42.7194 17.625 43.157V47.9883C17.625 48.8285 18.08 49.5813 18.8325 49.9489L23.9425 52.5046C24.1175 52.5746 24.31 52.6271 24.5025 52.6271C24.73 52.6271 24.9575 52.5571 25.1675 52.4345C25.535 52.207 25.7625 51.8044 25.7625 51.3667V46.5354C25.7625 45.7127 25.29 44.96 24.5375 44.5924Z" fill="#ABDAF7"/>
<path d="M43.7875 44.5924L38.6775 42.0367C38.2925 41.8441 37.8375 41.8616 37.4525 42.0892C37.1025 42.3168 36.875 42.7194 36.875 43.157V47.9883C36.875 48.8285 37.33 49.5813 38.0825 49.9489L43.1925 52.5046C43.3675 52.5746 43.56 52.6271 43.7525 52.6271C43.98 52.6271 44.2075 52.5571 44.4175 52.4345C44.785 52.207 45.0125 51.8044 45.0125 51.3667V46.5354C45.0125 45.7127 44.54 44.96 43.7875 44.5924Z" fill="#ABDAF7"/>
<path d="M34.5308 42.0892C34.1633 41.8616 33.7083 41.8441 33.3058 42.0367L28.1958 44.5924C27.4433 44.96 26.9883 45.7127 26.9883 46.5529V51.3843C26.9883 51.8219 27.2158 52.2245 27.5833 52.452C27.7933 52.5571 28.0208 52.6271 28.2483 52.6271C28.4408 52.6271 28.6333 52.5746 28.8083 52.4871L33.9183 49.9313C34.6708 49.5637 35.1258 48.811 35.1258 47.9708V43.1395C35.1258 42.7194 34.8983 42.3168 34.5308 42.0892Z" fill="#ABDAF7"/>
<path d="M53.7808 42.0892C53.4133 41.8616 52.9583 41.8441 52.5558 42.0367L47.4458 44.5924C46.6933 44.96 46.2383 45.7127 46.2383 46.5529V51.3843C46.2383 51.8219 46.4658 52.2245 46.8333 52.452C47.0433 52.5571 47.2708 52.6271 47.4983 52.6271C47.6908 52.6271 47.8833 52.5746 48.0583 52.4871L53.1683 49.9313C53.9208 49.5637 54.3758 48.811 54.3758 47.9708V43.1395C54.3758 42.7194 54.1483 42.3168 53.7808 42.0892Z" fill="#ABDAF7"/>
<path d="M42.4261 22.5706L36.9311 19.6123C36.3536 19.2972 35.6536 19.2972 35.0761 19.6123L29.5811 22.5706C29.1786 22.7807 28.9336 23.2183 28.9336 23.6909C28.9336 24.1635 29.1786 24.6012 29.5811 24.8112L35.0761 27.7695C35.3736 27.9271 35.6886 27.9971 36.0036 27.9971C36.3186 27.9971 36.6336 27.9271 36.9311 27.7695L42.4261 24.8112C42.8286 24.6012 43.0736 24.1635 43.0736 23.6909C43.0736 23.2008 42.8111 22.7807 42.4261 22.5706Z" fill="#57B6F0"/>
<path d="M34.1625 28.7838L29.0525 26.2281C28.6675 26.0355 28.2125 26.053 27.8275 26.2806C27.4775 26.5082 27.25 26.9108 27.25 27.3484V32.1797C27.25 33.02 27.705 33.7727 28.4575 34.1403L33.5675 36.696C33.7425 36.7835 33.935 36.836 34.1275 36.836C34.355 36.836 34.5825 36.766 34.7925 36.6435C35.16 36.4159 35.3875 36.0133 35.3875 35.5757V30.7443C35.3875 29.9041 34.915 29.1514 34.1625 28.7838Z" fill="#57B6F0"/>
<path d="M44.1558 26.2806C43.7883 26.053 43.3333 26.0355 42.9308 26.2281L37.8208 28.7838C37.0683 29.1514 36.6133 29.9041 36.6133 30.7443V35.5757C36.6133 36.0133 36.8408 36.4159 37.2083 36.6435C37.4183 36.766 37.6458 36.836 37.8733 36.836C38.0658 36.836 38.2583 36.7835 38.4333 36.696L43.5433 34.1403C44.2958 33.7552 44.7508 33.0024 44.7508 32.1797V27.3484C44.7508 26.9108 44.5233 26.5082 44.1558 26.2806Z" fill="#57B6F0"/>
</svg>
