<svg width="187" height="271" viewBox="0 0 187 271" fill="none" xmlns="http://www.w3.org/2000/svg">
<path d="M38.2751 131.108L18.3473 139.366L34.7731 140.534L30.9326 156.288L15.2067 155.716C11.2937 155.573 7.57345 153.98 4.76915 151.247C1.96485 148.513 0.276792 144.835 0.033087 140.926C0.0101815 140.595 0 140.267 0 139.938C0.000444681 137.312 0.65611 134.728 1.90758 132.419C3.15905 130.11 4.96677 128.15 7.16688 126.717L43.9913 102.715L38.2751 131.108Z" fill="#83BF6E"/>
<path d="M156.004 16.4493C154.378 16.4493 152.788 15.9669 151.436 15.0632C150.084 14.1595 149.03 12.875 148.407 11.3721C147.785 9.86928 147.622 8.21555 147.939 6.62012C148.257 5.02469 149.04 3.55914 150.19 2.4089C151.34 1.25866 152.805 0.475405 154.4 0.158055C155.995 -0.159296 157.649 0.0035172 159.151 0.626023C160.654 1.24853 161.938 2.30279 162.842 3.65533C163.745 5.00787 164.227 6.59795 164.227 8.22464C164.225 10.4051 163.357 12.4955 161.816 14.0374C160.274 15.5792 158.184 16.4466 156.004 16.4493ZM156.004 1.78445C154.73 1.78445 153.485 2.16235 152.425 2.87041C151.366 3.57846 150.54 4.58483 150.053 5.76224C149.565 6.93965 149.438 8.23526 149.687 9.48511C149.935 10.735 150.549 11.8829 151.45 12.7839C152.352 13.6848 153.499 14.2982 154.749 14.5465C155.999 14.7948 157.294 14.6669 158.471 14.1788C159.648 13.6908 160.654 12.8647 161.361 11.8048C162.069 10.745 162.446 9.49901 162.446 8.22464C162.44 6.51873 161.76 4.88438 160.552 3.67931C159.345 2.47425 157.71 1.79665 156.004 1.79464V1.78445Z" fill="white"/>
<path d="M181.841 59.7763C184.688 59.7763 186.995 57.4684 186.995 54.6215C186.995 51.7747 184.688 49.4668 181.841 49.4668C178.995 49.4668 176.688 51.7747 176.688 54.6215C176.688 57.4684 178.995 59.7763 181.841 59.7763Z" fill="#81C06A"/>
<path d="M168.756 188.178C168.82 191.684 167.763 195.12 165.738 197.983C163.713 200.845 160.827 202.986 157.5 204.093C153.007 205.587 147.487 207.445 141.466 209.528C139.19 210.314 136.839 211.131 134.446 211.971C133.717 212.226 132.983 212.481 132.245 212.735C126.844 214.642 121.273 216.655 115.847 218.687C105.351 222.637 95.3874 226.624 88.2995 230.037C64.2971 241.586 63.984 270.611 63.984 270.611L46.1406 216.912L106.624 194.036L121.726 188.323L111.745 186.582L84.7669 181.87L77.1318 180.536L60.6653 177.663C58.0294 177.177 55.6903 175.674 54.1527 173.478C52.6151 171.282 52.0023 168.57 52.4466 165.926C52.891 163.282 54.3567 160.919 56.5276 159.347C58.6985 157.775 61.4004 157.119 64.0502 157.522L71.2883 158.693L121.943 166.89L124.938 167.373L147.052 170.952L154.942 172.225C155.484 172.313 156.022 172.428 156.553 172.571C159.733 173.42 162.586 175.203 164.743 177.691C167.272 180.606 168.693 184.319 168.756 188.178Z" fill="#F2A84C"/>
<path d="M81.9413 74.885C80.2488 81.5387 75.9829 87.2474 70.0822 90.7552C64.1814 94.263 57.1292 95.2826 50.4768 93.5897C43.8244 91.8969 38.1169 87.6302 34.6098 81.7283C31.1026 75.8264 30.0832 68.7728 31.7757 62.1191L81.9413 74.885Z" fill="#D34B6A"/>
<path d="M63.5831 60.8411C66.3454 58.688 66.8396 54.7028 64.6869 51.94C62.5342 49.1772 58.5498 48.683 55.7875 50.8361C53.0252 52.9892 52.5311 56.9743 54.6838 59.7371C56.8365 62.5 60.8208 62.9942 63.5831 60.8411Z" fill="#F2A84C"/>
<path d="M167.661 102.708L122.805 87.6768L128.936 60.498C129.082 59.8447 129.478 59.2745 130.038 58.908C130.598 58.5416 131.279 58.4079 131.936 58.5354L174.309 66.727C174.655 66.7938 174.985 66.931 175.276 67.1303C175.567 67.3296 175.814 67.5867 176.002 67.8856C176.19 68.1844 176.314 68.5187 176.368 68.8676C176.421 69.2165 176.402 69.5728 176.312 69.914L167.661 102.708Z" fill="white"/>
<path d="M165.898 100.545L125.414 86.9798L130.947 62.4483C131.079 61.8572 131.435 61.3404 131.941 61.0078C132.447 60.6751 133.063 60.5527 133.658 60.6665L171.9 68.0612C172.212 68.1215 172.509 68.2454 172.772 68.4253C173.035 68.6052 173.258 68.8373 173.428 69.107C173.597 69.3768 173.709 69.6784 173.757 69.9934C173.805 70.3083 173.788 70.6298 173.706 70.9378L165.898 100.545Z" fill="#3D7AE2"/>
<path d="M121.945 166.891L89.1315 180.762C86.1794 182.018 82.8986 182.277 79.7858 181.501C76.673 180.725 73.8976 178.956 71.8797 176.462C69.8618 173.968 68.7113 170.884 68.6023 167.677C68.4932 164.47 69.4316 161.315 71.2754 158.689L121.945 166.891Z" fill="#C97C1D"/>
<path d="M156.549 172.58L136.659 205.837C135.506 207.71 134.753 209.801 134.447 211.98C128.372 214.113 122.015 216.399 115.848 218.708L104.176 212.104C103.265 211.589 102.471 210.889 101.844 210.05C101.218 209.21 100.773 208.25 100.537 207.23C100.302 206.209 100.281 205.151 100.476 204.122C100.672 203.093 101.079 202.116 101.672 201.253L106.627 194.044L121.73 188.331L111.748 186.59L124.942 167.387L154.938 172.236C155.48 172.323 156.018 172.438 156.549 172.58Z" fill="#C97C1D"/>
<path d="M145.655 123.997L167.652 102.711L122.796 86.7246L99.5491 99.4804C99.1498 99.7 98.8188 100.025 98.5925 100.421C98.3663 100.817 98.2535 101.267 98.2667 101.722C98.2798 102.178 98.4184 102.621 98.6671 103.003C98.9158 103.385 99.2651 103.691 99.6764 103.887L142.869 124.455C143.324 124.672 143.836 124.744 144.334 124.662C144.832 124.58 145.293 124.348 145.655 123.997Z" fill="white"/>
<path d="M95.8981 139.929C96.7781 133.522 95.9223 126.997 93.42 121.035C90.9178 115.072 86.8609 109.891 81.673 106.032C76.4851 102.173 70.3566 99.7782 63.9273 99.0973C57.498 98.4164 51.0038 99.4745 45.123 102.161C39.2421 104.848 34.1903 109.064 30.495 114.37C26.7998 119.676 24.5966 125.878 24.1157 132.326C23.6347 138.775 24.8936 145.234 27.7609 151.03C30.6281 156.826 34.9986 161.745 40.4159 165.275C37.7313 166.54 35.6537 168.812 34.6336 171.6C33.6136 174.387 33.7333 177.464 34.9669 180.164C35.5821 181.512 36.4567 182.725 37.5409 183.735C38.625 184.745 39.8974 185.531 41.2854 186.049C42.6734 186.567 44.1498 186.806 45.6303 186.753C47.1109 186.701 48.5664 186.356 49.914 185.741L105.142 160.51C106.489 159.894 107.703 159.019 108.712 157.935C109.722 156.851 110.508 155.578 111.026 154.19C111.544 152.801 111.783 151.325 111.73 149.844C111.677 148.363 111.333 146.907 110.718 145.56C109.485 142.859 107.238 140.754 104.464 139.7C101.69 138.646 98.6121 138.728 95.8981 139.929Z" fill="#D34B6A"/>
<path d="M166.358 58.4034C166.016 58.4041 165.676 58.3752 165.34 58.3169L129.742 52.1668C128.208 51.9251 126.832 51.0837 125.918 49.8277C125.004 48.5718 124.627 47.004 124.868 45.4695C125.11 43.9349 125.951 42.5593 127.207 41.6451C128.463 40.7309 130.03 40.3531 131.564 40.5948L167.396 45.6859C168.196 45.7992 168.963 46.0768 169.65 46.5011C170.337 46.9255 170.929 47.4873 171.388 48.1515C171.848 48.8157 172.165 49.5677 172.32 50.3603C172.474 51.153 172.464 51.9691 172.288 52.7574L172.054 53.8113C171.767 55.1099 171.047 56.2723 170.011 57.1069C168.976 57.9416 167.687 58.3989 166.358 58.4034ZM130.752 42.3181C129.815 42.3176 128.906 42.6407 128.179 43.2329C127.451 43.8252 126.951 44.6503 126.762 45.5688C126.652 46.1045 126.65 46.6569 126.758 47.1931C126.866 47.7292 127.081 48.2381 127.39 48.6895C127.698 49.1408 128.095 49.5254 128.555 49.8202C129.016 50.115 129.531 50.314 130.07 50.4053L165.663 56.5604C166.695 56.7398 167.756 56.5146 168.627 55.9315C169.497 55.3484 170.109 54.4522 170.336 53.4294L170.57 52.373C170.692 51.8244 170.7 51.2563 170.592 50.7046C170.484 50.1529 170.264 49.6296 169.944 49.1674C169.624 48.7052 169.212 48.3141 168.734 48.019C168.255 47.7239 167.721 47.531 167.164 47.4525L131.335 42.3614C131.142 42.3328 130.947 42.3183 130.752 42.3181Z" fill="#EDEFF1"/>
<path d="M161.236 174.656C157.026 181.104 139.804 206.302 141.471 209.53C139.195 210.316 136.844 211.134 134.451 211.974C133.722 212.228 132.988 212.483 132.25 212.737L147.06 170.965L154.949 172.238C155.492 172.325 156.03 172.441 156.56 172.584C158.219 173.023 159.797 173.722 161.236 174.656Z" fill="#C97C1D"/>
<path d="M48.9655 136.557C48.879 136.46 48.7975 136.359 49.0087 136.748L48.9655 136.557Z" fill="#FADD6F"/>
<path d="M110.711 145.56C109.478 142.86 107.232 140.756 104.458 139.702C101.685 138.648 98.6075 138.729 95.8937 139.929C96.6957 134.07 96.0475 128.104 94.0058 122.554C91.9642 117.004 88.5916 112.04 84.1841 108.098C79.7767 104.157 74.4692 101.357 68.7275 99.946C62.9858 98.5348 56.9856 98.5551 51.2535 100.005C51.5716 100.366 51.877 100.768 52.0603 100.832C52.3911 101.364 52.7169 101.893 53.0045 102.448C53.0274 102.362 53.2794 102.56 53.1317 102.301C53.0019 102.115 52.8772 101.914 52.7805 101.792C52.9094 101.953 53.0268 102.123 53.1317 102.301C53.3862 102.68 53.628 103.014 53.3659 102.456C54.4551 104.437 55.3313 106.527 55.9797 108.693C56.6074 110.844 56.8089 113.098 56.5727 115.326C56.5727 115.622 56.6414 115.456 56.6897 115.347C56.4658 116.136 56.7406 116.11 56.7203 116.561L56.3538 117.706C56.3538 118.19 56.4861 117.831 56.5294 117.869C56.2876 120.107 55.5114 122.171 55.0023 123.913C54.702 124.422 54.87 123.714 54.5544 124.406C54.8624 123.974 54.6969 124.503 54.4653 125.063C54.3457 125.341 54.2108 125.628 54.1498 125.814C54.0887 126 54.0581 126.069 54.1778 125.951C53.88 126.221 53.5517 126.822 53.231 127.275C53.1127 127.468 52.9717 127.646 52.8111 127.805C52.694 127.912 52.6126 127.929 52.582 127.805C52.3275 128.171 52.2435 128.347 52.2537 128.405C52.2639 128.464 52.3733 128.405 52.4649 128.319C51.8287 129.167 51.2688 129.805 50.747 130.516C50.4876 130.729 50.2411 130.958 50.0089 131.2C49.6325 131.562 49.317 131.983 49.0749 132.445C48.8206 132.926 48.6347 133.44 48.5226 133.973C48.4921 134.214 48.4488 134.436 48.4183 134.624C48.4088 134.78 48.3859 134.934 48.3496 135.085C48.431 134.779 48.4539 134.797 48.4717 134.95C48.4717 135.026 48.4717 135.138 48.4997 135.266C48.5277 135.393 48.5608 135.533 48.6015 135.665C48.6295 135.492 48.6473 135.322 48.6881 135.156C48.7059 135.357 48.7441 135.556 48.7695 135.757C48.795 135.958 48.8764 136.149 48.9273 136.345C49.0316 136.572 49.0597 136.633 49.0444 136.64C49.0826 136.737 49.0444 136.734 49.0444 136.77C49.0358 136.804 49.0358 136.84 49.0444 136.874C49.0591 136.964 49.0901 137.05 49.136 137.129C49.2454 137.312 49.3269 137.452 49.4058 137.557C49.4767 137.637 49.5523 137.712 49.6323 137.783C49.6959 137.842 49.757 137.888 49.8206 137.938C49.8842 137.989 49.9708 138.03 50.0751 138.096L50.0013 137.994C50.1388 138.114 50.2558 138.249 50.4085 138.359C51.0779 137.849 52.9536 137.045 52.9052 136.729C53.6687 136.503 52.9968 136.785 52.2028 137.406L52.9816 137.119C52.694 137.287 52.4319 137.391 52.1341 137.592C52.9666 137.259 53.7401 136.794 54.4246 136.215C54.814 136.07 54.2694 136.617 55.2772 136.014C56.7075 135.174 54.87 135.917 55.7302 135.411L56.4581 135.248C56.9336 134.924 57.433 134.636 57.9521 134.387L58.3084 134.219C58.4382 134.161 58.5909 134.105 58.7309 134.049C59.0212 133.94 59.32 133.855 59.6242 133.794C59.7902 133.766 59.9537 133.725 60.1128 133.67H60.067L60.1561 133.636C60.1815 133.601 60.1103 133.581 60.1281 133.555C60.1459 133.53 60.1688 133.527 60.2452 133.512C60.378 133.5 60.5114 133.496 60.6447 133.499C60.4786 133.532 60.3153 133.578 60.1561 133.636C60.1431 133.649 60.1286 133.659 60.1128 133.667C60.8046 133.634 61.4974 133.703 62.1692 133.871C62.7681 134.032 63.3203 134.333 63.7803 134.749C63.5792 134.611 64.1264 135.258 64.1544 135.383C64.539 135.793 64.8491 136.268 65.0706 136.785C65.096 136.836 65.1189 136.89 65.1469 136.951C65.124 136.895 65.096 136.841 65.0706 136.785C64.7932 136.197 64.6786 136.276 64.531 136.21C64.6812 136.444 64.7576 136.635 64.8466 136.801C64.933 136.961 64.9988 137.133 65.0426 137.31C64.9484 137.088 64.8543 136.877 64.8746 137.175L65.0273 137.618L65.1189 138.079C65.1476 138.234 65.1638 138.391 65.1673 138.549C65.1673 138.707 65.1902 138.87 65.1673 139.028C65.2089 138.861 65.2319 138.691 65.236 138.519C65.236 138.641 65.236 138.796 65.2182 138.972C65.2004 139.148 65.1724 139.344 65.1266 139.545C65.04 139.936 64.8775 140.306 64.6481 140.634C64.6713 140.511 64.6858 140.386 64.6914 140.26C64.7685 140.156 64.8342 140.044 64.8873 139.927C64.9845 139.672 65.0117 139.396 64.9662 139.127C64.9402 139.326 64.895 139.521 64.8314 139.71C64.8008 139.804 64.7881 139.82 64.7779 139.815C64.7677 139.809 64.7779 139.72 64.6201 139.985C64.2867 140.792 64.1111 141.146 64.3503 141.003C64.1057 141.325 63.8247 141.617 63.513 141.874C63.3858 141.991 63.2407 142.088 63.0905 142.218C63.0142 142.276 62.9251 142.332 62.836 142.401C62.7361 142.475 62.6315 142.542 62.523 142.602C62.5657 142.53 62.6039 142.455 62.6375 142.378C62.4975 142.459 62.3525 142.528 62.2099 142.602C62.0674 142.676 61.9096 142.719 61.7595 142.778L62.1005 142.569C62.2099 142.498 62.3118 142.411 62.4136 142.332C61.5788 142.635 61.4973 142.645 61.3955 142.75C61.322 142.824 61.2264 142.872 61.1232 142.887C61.0038 142.912 60.8832 142.929 60.7618 142.941C60.5552 142.947 60.3485 142.938 60.1434 142.912V142.778C59.9525 142.765 59.7871 142.778 59.6343 142.778L59.2348 142.757C59.0043 142.746 58.7815 142.671 58.5909 142.541C57.9292 142.426 59.6318 143.05 58.12 142.625C57.7245 142.422 57.3155 142.247 56.8959 142.1C56.4403 142.022 57.0766 142.304 57.4303 142.411L57.5271 142.439L57.4303 142.411C55.2696 141.803 56.2214 141.563 54.1752 141.138C54.842 141.441 53.5186 141.212 55.1627 141.706C54.3559 141.543 53.6764 141.052 52.8162 140.942H53.4346C53.1688 140.87 52.8984 140.817 52.6253 140.782L52.7296 140.675C52.2284 140.627 51.7392 140.493 51.284 140.278L50.9633 140.143C50.859 140.097 50.7648 140.041 50.6681 140C50.5589 139.949 50.4457 139.908 50.3296 139.876C50.1226 139.999 49.8857 140.062 49.645 140.059C49.3589 140.298 49.0523 140.512 48.7288 140.698L48.1231 141.07C47.9575 141.163 47.7985 141.268 47.6471 141.383C47.665 141.403 47.6064 141.467 47.4588 141.586C47.4079 141.586 47.4894 141.505 47.6471 141.383C47.6471 141.367 47.5937 141.37 47.5046 141.403C47.365 141.546 47.2171 141.682 47.0618 141.808C46.8989 141.955 46.6877 142.078 46.5171 142.253L46.2423 142.508C46.1517 142.587 46.0666 142.672 45.9878 142.762L45.7714 143.017C45.7155 143.108 45.6671 143.2 45.6264 143.284C45.4457 143.74 45.6264 143.577 45.774 143.432C45.6094 143.645 45.4884 143.889 45.4177 144.15C45.3759 144.292 45.347 144.438 45.3311 144.585C45.3023 144.728 45.2895 144.874 45.293 145.02C45.293 145.163 45.293 145.3 45.293 145.428C45.293 145.555 45.3261 145.682 45.3362 145.779C45.3464 145.876 45.3566 145.977 45.3591 146.054C45.3724 146.113 45.3784 146.174 45.377 146.234C45.4482 146.896 45.2472 146.509 45.181 146.711C45.3388 147.22 45.4151 147.136 45.4839 147.115C45.5526 147.095 45.5475 147.115 45.5806 147.197C45.6559 147.384 45.7171 147.576 45.7638 147.772C45.69 147.635 45.5653 147.375 45.5856 147.487C45.606 147.599 45.6366 147.772 45.6798 147.943L45.802 148.5C45.8658 148.682 45.9406 148.859 46.0259 149.032C46.0463 149.073 46.0692 149.113 46.0921 149.152C46.115 149.19 46.1456 149.218 46.1736 149.248C46.2237 149.305 46.28 149.357 46.3415 149.401L46.1405 149.09C46.3411 149.266 46.5315 149.453 46.7106 149.651C46.9193 149.831 47.0974 150.038 47.3036 150.206C47.7031 150.547 48.0187 150.809 48.1714 150.735V150.569C49.6119 151.735 48.851 150.956 50.3246 152.12H50.294C50.9862 152.547 51.2637 152.932 51.7141 152.972L51.4978 152.792C52.3504 153.336 52.4166 153.4 53.2794 153.978C53.5102 154.088 53.7257 154.227 53.9207 154.393C54.0581 154.271 55.9568 155.645 56.336 155.908C55.6412 155.477 55.9211 155.755 56.0815 155.943C56.5653 156.082 57.0042 156.345 57.354 156.707C57.5576 156.572 57.7994 156.452 58.9014 157.162C58.713 157.078 58.4356 156.908 58.5196 157.028C58.657 157.148 58.8147 157.244 58.9854 157.31C59.0693 157.42 58.6952 157.216 58.7767 157.364C59.1717 157.515 59.5435 157.722 59.8812 157.977L60.4539 158.384C60.6651 158.535 60.8916 158.667 61.1868 158.863C60.7949 158.662 61.0749 158.919 61.1538 159.072C61.2683 159.003 61.6271 159.308 61.8765 159.614C61.9767 159.731 62.0829 159.842 62.1947 159.947C62.2608 160.011 62.2939 160.001 62.2608 159.845C62.7533 160.401 63.1866 161.005 63.5537 161.65C63.9249 162.334 64.1998 163.065 64.3707 163.824C64.5058 164.483 64.5545 165.156 64.5158 165.827C64.4903 166.113 64.4496 166.365 64.414 166.578C64.3738 166.751 64.3228 166.921 64.2613 167.088C64.1315 167.342 64.0755 168.078 63.91 168.513L63.8286 168.414C63.7555 168.8 63.6332 169.176 63.4647 169.531C63.278 169.946 63.0708 170.351 62.8437 170.746C63.1236 170.158 62.9098 170.346 62.4492 170.771C62.3724 170.93 62.2875 171.084 62.1947 171.234C62.1094 171.392 62.0142 171.544 61.9096 171.69L61.6551 171.703C61.5166 171.879 61.3528 172.033 61.169 172.161C60.9844 172.303 60.7877 172.429 60.5811 172.538C60.5096 172.635 60.4238 172.721 60.3266 172.792C60.1233 172.94 59.9108 173.076 59.6903 173.197C59.4358 173.309 59.2042 173.451 58.993 173.52C58.841 173.572 58.6943 173.638 58.5552 173.719C58.2642 173.69 57.9704 173.722 57.6925 173.813C57.4429 173.884 57.1785 173.884 56.929 173.813C56.7737 173.843 56.5752 173.871 56.3538 173.892C56.5803 173.994 56.6694 174.108 56.2316 174.055H56.1273C56.1807 174.098 56.2367 174.136 56.2927 174.177C56.3563 174.314 55.7277 174.118 55.206 173.922C55.0227 173.866 54.8573 173.808 54.697 173.752L54.5417 173.719C54.5733 173.721 54.6048 173.725 54.6359 173.731C54.35 173.619 54.0544 173.534 53.7527 173.477C53.0335 173.155 52.2938 172.881 51.5385 172.657C51.284 172.568 51.0168 172.474 50.7597 172.367L50.5332 172.533C50.2787 172.599 50.1057 172.65 49.9402 172.7C49.7748 172.751 49.6221 172.784 49.4491 172.843C48.9912 173.038 48.5231 173.208 48.0467 173.352H48.0823C48.2859 173.316 48.4794 173.286 48.655 173.263C48.4696 173.321 48.2766 173.351 48.0823 173.352C47.8431 173.4 47.5886 173.429 47.3188 173.477C46.9243 173.574 46.5731 173.64 46.2601 173.749C45.802 173.826 45.975 173.729 46.0285 173.683L45.265 173.815C45.1282 173.865 44.9889 173.908 44.8476 173.943C44.8934 173.956 44.9087 173.966 44.7992 173.943H44.8476C44.8112 173.931 44.7736 173.925 44.7356 173.922L44.6643 173.938C44.6643 173.92 44.6898 173.917 44.7356 173.922C44.8909 173.884 45.069 173.849 45.265 173.815C45.4872 173.739 45.718 173.691 45.9521 173.673C46.0539 173.65 46.0514 173.673 46.0259 173.673C46.2346 173.642 46.451 173.609 46.6673 173.571C46.8836 173.533 47.1025 173.51 47.3163 173.467C47.5301 173.423 47.8049 173.352 48.0798 173.25C47.0363 173.446 48.8433 172.897 47.4283 173.271C47.9373 173.098 47.6599 173.077 48.5201 172.828C48.7542 172.828 48.7033 172.884 48.5634 172.978C48.4007 173.061 48.2442 173.155 48.0951 173.261C48.4285 173.164 48.6881 173.085 48.9019 173.006C49.1156 172.927 49.2862 172.884 49.4363 172.828L49.7265 172.698L49.6323 172.754C49.972 172.624 50.3027 172.472 50.6223 172.298C50.1494 172.103 49.7044 171.847 49.2989 171.535C49.48 171.672 49.6843 171.777 49.9021 171.843C48.6855 171.239 47.6573 170.354 46.9218 169.903L46.8964 170.04C46.159 169.559 45.4918 168.979 44.9138 168.314L44.7763 168.373C44.5905 168.118 44.3309 167.828 44.0815 167.469C43.9492 167.294 43.827 167.11 43.7099 166.925C43.5929 166.739 43.4733 166.545 43.3613 166.352C42.9108 165.588 42.613 164.756 42.6512 164.341C42.4907 164.012 42.3981 163.655 42.3789 163.29C42.3322 162.8 42.3416 162.306 42.4069 161.818C42.4552 161.76 42.4959 161.701 42.5494 161.643C42.6491 161.225 42.8122 160.825 43.033 160.456C43.2011 160.171 43.4055 159.908 43.6412 159.675C43.5623 159.733 43.486 159.79 43.4122 159.853C43.7303 159.432 44.177 159.125 44.6847 158.98C45.076 158.815 45.4925 158.717 45.9165 158.692C45.7791 158.822 45.293 158.787 44.6847 158.98C44.298 159.143 43.9464 159.379 43.6489 159.675C44.4371 159.132 45.3472 158.793 46.2983 158.687C47.1426 158.572 48.0017 158.634 48.8204 158.871V158.904C49.3598 159.034 49.8831 159.223 50.3805 159.469C49.9479 159.349 50.7114 159.548 51.1084 159.879C51.6922 160.243 52.1835 160.738 52.5438 161.324C52.76 161.611 52.9523 161.915 53.119 162.233C52.4522 161.243 53.0401 162.381 52.9409 162.488C53.0708 162.669 53.1906 162.858 53.2997 163.053C53.3353 163.323 53.0579 162.691 53.203 163.155C53.3634 163.479 53.4864 163.821 53.5695 164.173C53.6713 164.595 53.7451 165.018 53.824 165.219C53.8651 165.08 53.8831 164.934 53.8774 164.789C53.8622 164.733 53.8774 164.738 53.8774 164.774V164.725C53.8774 164.471 53.8469 164.338 53.8469 164.265C53.8229 164.07 53.7855 163.877 53.7349 163.687C53.7934 163.929 53.8342 164.074 53.852 164.181C53.8749 164.234 53.9182 164.537 53.852 164.181C53.852 164.163 53.852 164.193 53.852 164.265C53.8725 164.417 53.8827 164.571 53.8825 164.725V164.781C53.9013 164.843 53.9243 164.903 53.9513 164.962L53.9309 164.646C53.9843 164.965 53.9767 165.005 53.9513 164.962C53.9665 165.802 53.9971 165.494 54.0556 165.471C54.0123 165.71 53.9742 165.922 53.9487 166.113C53.9233 166.304 53.8902 166.479 53.8647 166.645C53.8393 166.81 53.7985 166.968 53.7527 167.126C53.6973 167.289 53.6274 167.446 53.544 167.597C53.7604 167.154 53.6713 167.676 53.5211 168.228C53.371 168.78 53.1495 169.348 53.3659 169.111C52.951 169.684 53.1903 169.544 52.8747 169.875C53.2323 169.058 53.4294 168.18 53.455 167.289C53.3735 167.528 53.2768 167.76 53.1775 167.986C53.1713 167.629 53.2282 167.274 53.3455 166.937C53.4514 166.608 53.5046 166.265 53.5033 165.919C53.5208 166.119 53.5114 166.32 53.4753 166.517C53.4627 166.649 53.4238 166.777 53.3608 166.894L53.5568 166.721C53.6516 166.24 53.668 165.746 53.6051 165.26C53.5778 165.047 53.5387 164.837 53.4881 164.629C53.427 164.43 53.3837 164.239 53.315 164.061C53.3633 164.415 53.2946 164.206 53.2055 163.985C53.1165 163.763 52.9968 163.526 53.0147 163.783C53.0681 163.957 53.119 164.132 53.1597 164.31C53.1597 164.44 53.1114 164.374 53.0605 164.244C53.0096 164.114 52.9383 163.921 52.8671 163.783C52.7701 163.302 52.5983 162.839 52.358 162.411C52.0884 161.933 51.7506 161.497 51.3553 161.116C50.782 160.598 50.1509 160.148 49.4745 159.774C49.7824 159.947 50.3627 160.227 50.6427 160.372C50.4315 160.198 50.2096 160.036 49.9784 159.889C50.5714 160.207 50.9328 160.609 51.648 161.261C51.6072 161.06 52.2257 161.503 51.7981 160.831C51.5587 160.537 51.2734 160.284 50.9532 160.082C50.7435 159.955 50.5197 159.852 50.2864 159.777C50.0675 159.705 49.8384 159.637 49.5229 159.543C49.2073 159.448 48.8204 159.324 48.2503 159.186C48.1434 159.186 48.2707 159.161 48.2732 159.12C48.2758 159.079 48.2427 159.072 48.1358 159.041C47.9371 158.988 47.733 158.958 47.5275 158.952C46.8757 158.919 46.2254 159.043 45.6315 159.313C45.2014 159.53 45.0181 159.767 45.069 159.871C45.399 159.673 45.7606 159.532 46.1379 159.456C46.535 159.377 46.9014 159.385 46.9854 159.474C46.6413 159.503 46.3005 159.563 45.9674 159.655C45.6442 159.746 45.4151 159.876 45.41 159.937C45.0995 159.937 45.3439 159.833 45.5806 159.751C45.7002 159.711 45.8173 159.677 45.8529 159.657C45.8885 159.637 45.8529 159.616 45.6365 159.632C45.3816 159.702 45.1458 159.829 44.9468 160.003C45.0461 159.904 44.9468 159.914 44.812 159.957C44.6771 160.001 44.4964 160.085 44.4327 160.105C43.9456 160.452 43.5761 160.94 43.374 161.503C43.1686 162.107 43.1264 162.755 43.2518 163.381C43.2518 163.328 43.2518 163.31 43.2518 163.409V163.381C43.234 163.465 43.2086 163.636 43.1526 163.613C43.2715 163.988 43.4549 164.34 43.6947 164.652C43.9008 164.906 44.0841 165.041 44.0815 164.893C44.4455 165.657 44.3971 165.738 44.817 166.337C44.5854 165.797 44.6262 165.845 44.7203 166.039C44.8145 166.232 45.0207 166.548 45.1377 166.548C45.5704 167.126 45.2013 166.802 45.3668 167.105C45.4584 167.189 45.69 167.378 45.7409 167.36C45.6858 167.231 45.6176 167.108 45.5373 166.993C45.7333 167.248 45.774 167.347 45.7409 167.36C45.8249 167.579 45.6187 167.474 45.41 167.36C45.2013 167.245 44.9927 167.151 45.0995 167.418C45.1516 167.586 45.2154 167.751 45.2904 167.91C45.4075 168.085 45.5449 168.302 45.69 168.493C45.9827 168.882 46.2881 169.218 46.3288 169.256C46.7157 169.386 47.0465 168.793 46.8098 168.294C46.8658 168.271 46.9727 168.406 47.0949 168.577C47.2142 168.744 47.3478 168.901 47.4944 169.045C47.7541 169.338 48.0747 169.569 48.4336 169.725C48.7572 169.854 49.0682 170.014 49.3625 170.201C49.1716 170.132 48.9884 170.053 48.8 169.979C49.2031 170.261 49.6445 170.484 50.1108 170.641C50.1108 170.712 49.4261 170.641 49.7086 170.878C50.0876 171.091 50.4865 171.267 50.8997 171.402C50.9608 171.362 51.0219 171.321 51.0753 171.28L51.1848 171.178C50.887 171.069 50.5918 170.959 50.2991 170.842C50.2991 170.758 50.6605 170.896 51.0219 171.02L51.2764 171.102C51.4255 170.987 51.5276 170.821 51.564 170.636C51.7421 170.486 51.5767 170.738 51.6098 170.751L51.7396 170.583L51.849 170.402C51.926 170.286 51.9908 170.162 52.0425 170.033C52.1112 170.012 52.1188 170.084 52.0959 170.208C52.0468 170.36 51.9838 170.506 51.9076 170.646C51.7294 170.942 51.5283 171.216 51.7269 171.109C51.693 171.137 51.6573 171.163 51.62 171.186C51.7065 171.186 51.7625 171.186 51.7599 171.15C52.3572 171.435 52.9655 171.7 53.5848 171.944C53.3455 171.868 52.6125 171.624 52.8645 171.817C53.6687 172.12 53.2692 172.001 53.7858 172.268L51.8821 172.013L51.4087 171.95L51.2229 172.156L51.4138 172.334C52.4096 172.642 53.4641 172.709 54.4908 172.53C54.842 172.665 54.9438 172.756 54.9285 172.858C54.9133 172.96 54.7809 173.029 54.674 173.042C54.9691 173.117 55.2732 173.15 55.5775 173.141C55.7869 173.124 55.9945 173.091 56.1985 173.042C56.3942 172.978 56.594 172.929 56.7966 172.894C56.9086 172.876 57.0308 172.838 57.1733 172.82C57.3158 172.802 57.4736 172.792 57.6518 172.757C57.4687 172.767 57.2851 172.767 57.102 172.757C57.186 172.739 57.326 172.726 57.4863 172.711L57.9953 172.622C58.3236 172.558 58.5832 172.459 58.5043 172.456C58.8021 172.471 59.1279 172.538 58.8403 172.723C59.0286 172.589 59.2144 172.469 59.3926 172.326C59.5707 172.184 59.7336 172.036 59.9016 171.883C59.7565 172.008 59.9958 172.179 59.9474 172.26C60.4233 171.985 60.5404 171.517 60.2401 171.659C60.4159 171.588 60.5861 171.502 60.7491 171.405C60.838 171.358 60.9231 171.304 61.0036 171.244C61.0749 171.199 61.1436 171.155 61.2403 171.099C61.337 171.043 61.4719 170.977 61.6526 170.845C61.8485 170.603 61.4261 170.677 61.2581 170.809C61.6755 170.275 61.93 169.982 62.1387 169.732L62.154 169.702H62.1667C62.275 169.574 62.3712 169.437 62.4543 169.292C62.5351 169.111 62.5924 168.92 62.6248 168.724C62.6451 168.997 62.6681 169.289 62.663 169.582C62.495 169.625 62.3296 169.666 62.1667 169.702L62.1387 169.735C61.8613 170.221 61.9147 170.374 62.0674 170.448C62.2201 170.522 62.4517 170.496 62.4619 170.649C62.7915 169.825 62.9791 168.951 63.0167 168.065C63.0646 168.2 63.1371 168.325 63.2305 168.434C63.1643 168.292 63.3959 167.561 63.5079 166.673C63.5679 166.215 63.5934 165.754 63.5843 165.293C63.5843 165.064 63.5512 164.845 63.541 164.641C63.5308 164.438 63.4799 164.247 63.457 164.079L63.4927 164.28C63.5537 164.41 63.5639 164.181 63.5079 163.862C63.4748 163.707 63.429 163.526 63.3781 163.353C63.3255 163.209 63.2608 163.069 63.1847 162.936C63.2585 162.994 63.284 163.104 63.3603 163.297C63.3284 163.102 63.2648 162.912 63.172 162.737C63.0818 162.604 62.9804 162.479 62.8691 162.363L62.7164 162.192C62.6582 162.136 62.6038 162.075 62.5535 162.012C62.4396 161.852 62.3424 161.682 62.2634 161.503C62.719 162.195 62.8513 162.31 62.9175 162.228C62.8284 162.078 62.6808 161.895 62.5535 161.691C62.4263 161.487 62.243 161.299 62.1056 161.126C61.7976 160.8 61.538 160.617 61.5559 160.828C61.4431 160.673 61.3161 160.529 61.1767 160.398C61.0748 160.286 61.0265 160.207 61.085 160.166C60.97 160.081 60.8493 160.003 60.7236 159.935L60.3572 159.718C60.1026 159.576 59.8303 159.433 59.5707 159.291C59.698 159.341 59.838 159.336 59.4104 159.036C60.2452 159.619 61.1588 159.942 61.4006 160.444C61.5406 160.337 61.3192 160.019 61.7773 160.227C61.589 160.075 61.4082 159.935 61.2377 159.805C61.0672 159.675 60.8763 159.581 60.7109 159.484C60.3775 159.288 60.0416 159.145 59.7387 159.003L58.0157 158.262L56.6668 157.218L56.5625 157.246L56.4225 156.916C56.2937 156.88 56.171 156.825 56.0585 156.753C56.0356 156.717 56.0942 156.725 56.1807 156.753C56.0574 156.678 55.929 156.613 55.7964 156.557C55.796 156.6 55.8124 156.642 55.8422 156.674C55.6895 156.544 55.7073 156.524 55.7964 156.557C55.7964 156.432 56.1171 156.501 56.4454 156.587L56.3436 156.475C55.5801 156.132 54.7198 155.747 55.2569 156.264L55.7659 156.697C55.5292 156.508 55.3637 156.368 55.2569 156.264L54.4933 155.615C53.754 155.297 53.0319 154.94 52.33 154.546C52.3046 154.446 52.6533 154.607 52.4675 154.423C51.4775 154.034 50.4951 152.805 50.1998 152.843C49.4719 152.42 49.813 152.794 49.3371 152.545C49.3702 152.545 49.4363 152.532 49.3091 152.443L48.7008 152.211C48.515 152.028 49.2429 152.451 48.6804 152.005C48.1409 151.712 47.7108 151.483 47.3163 151.242C47.1178 151.124 46.9269 151.007 46.736 150.88C46.5451 150.753 46.3263 150.559 46.115 150.371C45.5093 149.834 45.5933 149.987 45.6925 150.185C45.7918 150.384 45.9471 150.597 45.438 150.081C45.3295 149.661 45.1402 149.267 44.8807 148.92C44.7331 148.747 44.6465 148.681 44.5447 148.576C44.3793 148.398 44.2489 148.19 44.1604 147.963L44.3462 147.945C44.0764 147.283 43.9594 146.713 44.0917 146.688C43.9634 146.276 43.9235 145.843 43.9746 145.415C43.9746 144.88 43.8626 145.058 43.7481 145.43C43.7049 145.616 43.6667 145.85 43.6336 146.056C43.6005 146.262 43.6082 146.436 43.5954 146.504C43.5954 146.362 43.5827 146.229 43.5954 146.099C43.6082 145.97 43.6107 145.845 43.6183 145.725C43.626 145.606 43.6183 145.491 43.6336 145.379C43.6489 145.267 43.6667 145.165 43.6819 145.063C43.7082 144.875 43.749 144.688 43.8041 144.506C43.8632 144.346 43.9383 144.193 44.0281 144.048L43.9415 144.519C43.9186 144.677 43.9186 144.837 43.9059 144.995L43.9772 144.646C44.0001 144.539 44.0383 144.44 44.0612 144.348C44.1146 144.165 44.1528 144.005 44.1833 143.865C44.2724 143.592 44.3233 143.391 44.3615 143.22C44.3947 143.068 44.455 142.922 44.5396 142.79C44.6426 142.626 44.7787 142.486 44.9392 142.378C44.8399 142.521 44.7547 142.674 44.6847 142.834C44.6182 142.964 44.5645 143.1 44.5244 143.241C44.4735 143.478 44.4837 143.587 44.5982 143.424C44.6185 143.345 44.6389 143.266 44.6643 143.19L44.7534 142.966L44.9418 142.515C45.0334 142.442 44.7101 143.024 44.9646 142.658C45.0327 142.484 45.1109 142.314 45.1988 142.149L45.3311 141.871C45.3719 141.785 45.4202 141.716 45.4508 141.66V141.574C45.5297 141.49 45.5093 141.543 45.4508 141.66V141.675C45.6402 141.445 45.8488 141.231 46.0743 141.036L46.4153 140.746C46.4936 140.677 46.5789 140.617 46.6698 140.566C46.7059 140.54 46.7433 140.516 46.7818 140.494C46.7462 140.52 46.708 140.543 46.6698 140.566C46.4891 140.69 46.5019 140.739 46.7487 140.591L47.2196 140.247L47.665 139.957C47.726 139.911 47.8151 139.853 47.9551 139.766L47.665 139.957C47.4105 140.148 47.7184 140.044 48.1485 139.848C48.5737 139.666 48.949 139.385 49.2429 139.028C49.1922 138.978 49.1462 138.923 49.1055 138.865C49.1614 138.903 49.22 138.947 49.2785 138.992L49.3396 138.941C49.2912 138.898 49.2454 138.852 49.192 138.809C49.0992 138.735 49.0024 138.666 48.9019 138.603C48.808 138.439 48.7025 138.281 48.5863 138.132L48.3038 137.699C48.205 137.567 48.1197 137.426 48.0493 137.277C47.9792 137.132 47.9205 136.982 47.8737 136.829C47.9398 136.986 47.9653 136.989 48.0315 137.147C47.8824 136.824 47.7813 136.481 47.7311 136.129C47.7084 135.881 47.7084 135.633 47.7311 135.385C47.7534 135.204 47.7849 135.024 47.8253 134.846C47.8508 134.685 47.8711 134.538 47.894 134.38C47.9169 134.222 47.9246 134.031 47.9424 133.838C47.9602 133.644 48.0034 133.453 48.0213 133.29C48.0391 133.127 48.0696 132.998 48.0645 132.931C48.0595 132.865 48.0365 132.863 47.978 132.959C48.0085 132.83 47.978 132.896 47.922 133.054C47.866 133.211 47.8202 133.474 47.7566 133.718C47.693 133.962 47.6853 134.204 47.6395 134.316C47.5937 134.428 47.553 134.423 47.5046 134.171C47.556 134.055 47.5977 133.935 47.6293 133.812C47.6756 133.691 47.7147 133.567 47.7464 133.44C47.782 133.313 47.7999 133.186 47.8406 133.038L47.9704 132.598L48.0416 132.359L48.1511 132.117C48.23 131.954 48.3063 131.773 48.4056 131.608C48.5048 131.442 48.6601 131.259 48.8 131.076C48.9703 130.893 49.1532 130.723 49.3472 130.567C49.0698 130.943 49.1996 130.875 49.3294 130.801C49.4592 130.727 49.5839 130.643 49.3523 130.961C49.6756 130.595 49.8333 130.432 49.9377 130.289C50.0305 130.155 50.1154 130.016 50.1922 129.872L50.4467 129.744C50.6029 129.514 50.7327 129.268 50.8336 129.009C50.8921 128.871 51.0372 128.701 51.5131 127.955C51.368 128.209 51.5131 128.095 51.6531 127.955C51.793 127.815 51.9457 127.657 51.849 127.868C52.1164 127.508 52.3379 127.115 52.5082 126.7L52.4878 126.764L52.7805 126.254C52.8594 126.107 52.9281 125.982 52.9918 125.875C53.1139 125.659 53.2183 125.509 53.3023 125.366C53.3862 125.224 53.4702 125.063 53.5568 124.857C53.6051 124.753 53.6611 124.635 53.7171 124.493C53.7731 124.35 53.8265 124.182 53.8902 123.984L53.7705 124.111C53.8494 123.857 53.9512 123.602 54.0251 123.319C54.0989 123.037 54.193 122.767 54.2796 122.484C54.4348 121.912 54.618 121.329 54.7504 120.726C54.8827 120.122 55.0049 119.519 55.122 118.928C55.1652 118.628 55.206 118.33 55.2441 118.04C55.2645 117.895 55.2823 117.75 55.3001 117.607L55.3307 117.182C55.2925 117.419 55.2518 117.653 55.1983 117.885C55.1945 117.91 55.1894 117.934 55.1831 117.958C55.1831 117.933 55.1831 117.91 55.1983 117.885C55.211 117.818 55.2212 117.727 55.234 117.615C55.234 117.452 55.2569 117.248 55.2696 117.032C55.3001 116.599 55.3434 116.11 55.4045 115.759C55.4045 115.688 55.4045 115.64 55.4248 115.65C55.4452 115.66 55.4248 115.723 55.4045 115.759C55.4133 115.929 55.4133 116.099 55.4045 116.268C55.4783 116.253 55.5979 115.988 55.659 115.449L55.5648 115.235L55.6615 115.021C55.6946 114.201 55.5114 115.25 55.5266 114.438C55.6271 114.196 55.6781 113.936 55.6768 113.674C55.6768 113.31 55.6768 112.862 55.6513 112.402C55.6259 111.941 55.5699 111.49 55.5241 111.101C55.4748 110.802 55.4654 110.498 55.4961 110.197C55.1881 109.688 55.7175 111.724 55.4197 111.162C55.4254 110.863 55.4076 110.564 55.3663 110.268L55.2645 110.472C55.1267 109.515 54.9191 108.57 54.6435 107.644C54.5824 107.448 54.5239 107.252 54.4628 107.056L54.2337 106.463C54.0861 106.05 53.8673 105.63 53.628 105.134L53.6917 105.2C53.371 104.48 53.147 104.116 52.8594 103.877C52.8289 103.706 53.1496 104.174 53.0376 103.877C52.5854 103.374 52.2043 102.813 51.905 102.207C51.7472 101.934 51.6047 101.67 51.452 101.443C51.3134 101.237 51.1414 101.055 50.943 100.906C51.0932 100.86 50.9074 100.45 50.7699 100.104C45.6965 101.459 40.9794 103.904 36.9474 107.268C32.9154 110.633 29.6654 114.837 27.4241 119.587C25.1827 124.336 24.0038 129.518 23.9695 134.77C23.9352 140.022 25.0464 145.218 27.2256 149.997C30.061 156.227 34.6151 161.518 40.353 165.25C37.6685 166.515 35.5909 168.787 34.5708 171.575C33.5507 174.362 33.6705 177.439 34.9041 180.139C35.5192 181.487 36.3939 182.7 37.478 183.71C38.5622 184.72 39.8346 185.506 41.2226 186.024C42.6106 186.542 44.087 186.781 45.5675 186.728C47.048 186.675 48.5036 186.331 49.8512 185.716L105.079 160.484C107.804 159.252 109.928 156.987 110.985 154.189C112.041 151.39 111.942 148.286 110.711 145.56ZM53.9843 136.215C54.2592 136.078 54.5595 135.877 54.8318 135.739C55.0023 135.882 54.5595 135.877 53.9843 136.215ZM49.2785 172.199C49.7112 172.054 49.4465 172.214 49.024 172.38L48.9757 172.331C49.0775 172.283 49.1894 172.25 49.2785 172.199ZM45.3795 173.4L45.3413 173.345C45.5449 173.345 45.7511 173.345 45.9572 173.345C45.5678 173.431 45.1734 173.5 44.7814 173.569C44.8603 173.51 44.7051 173.462 45.3795 173.4ZM53.4728 165.945C53.4677 165.895 53.4482 165.848 53.4168 165.81C53.4346 165.817 53.4601 165.873 53.4728 165.945ZM53.3048 165.878C53.3119 166.093 53.3051 166.308 53.2844 166.522C53.2692 166.377 53.3023 166.136 53.3048 165.878C53.3048 165.751 53.2844 165.649 53.2615 165.662C53.2768 165.396 53.2768 165.129 53.2615 164.863C53.2972 164.84 53.3328 165.385 53.3048 165.873V165.878ZM45.6544 168.378L45.8401 168.159L45.9954 168.312L45.6544 168.378ZM46.7106 159.214C47.0037 159.191 47.2981 159.191 47.5911 159.214C47.7184 159.275 47.3926 159.255 47.1839 159.275C46.8607 159.283 46.624 159.268 46.7106 159.217V159.214ZM47.4741 159.754C46.4561 159.7 47.5453 159.665 47.637 159.647C48.3648 159.807 47.5479 159.711 47.4639 159.764L47.4741 159.754ZM49.5457 160.25L49.645 160.105C49.7257 160.202 49.819 160.288 49.9224 160.36C49.7875 160.332 49.6654 160.286 49.5356 160.253L49.5457 160.25ZM53.1088 166.897C53.0859 167.082 53.0376 167.263 52.9994 167.444C52.9773 167.517 52.9519 167.591 52.923 167.665C52.979 167.413 53.0477 167.159 53.0961 166.892L53.1088 166.897ZM52.8263 168.287L52.8543 168.587C52.7907 168.63 52.7322 168.673 52.666 168.714C52.7118 168.574 52.7602 168.432 52.8136 168.289L52.8263 168.287ZM52.7194 169.496C52.6304 169.75 52.5795 170.005 52.5438 169.928C52.5947 169.794 52.6533 169.643 52.7067 169.498L52.7194 169.496ZM52.7194 170.6C52.6864 170.679 52.6431 170.748 52.6049 170.824L52.554 170.707C52.6487 170.6 52.7339 170.484 52.8085 170.361L52.7194 170.6ZM52.8009 169.302L52.7678 169.386C52.8467 169.132 52.9129 168.915 52.9765 168.742C53.0401 168.569 53.0885 168.449 53.1496 168.439C53.1088 168.679 53.0492 168.914 52.9714 169.144C52.8874 169.32 52.8289 169.404 52.7805 169.305L52.8009 169.302ZM53.7807 167.775C53.7785 167.813 53.7725 167.85 53.7629 167.887C53.7629 167.851 53.7629 167.813 53.7807 167.775C53.7985 167.737 53.7298 167.79 53.7044 167.795C53.787 167.582 53.8459 167.36 53.88 167.133C53.8291 167.352 53.7985 167.569 53.7604 167.78L53.7807 167.775ZM55.0762 172.51C55.4834 172.634 55.5241 172.606 55.5852 172.566C55.6463 172.525 55.6921 172.489 56.1476 172.566C56.4021 172.777 56.1069 172.708 55.5266 172.721C55.4271 172.722 55.3277 172.717 55.2289 172.706C55.3358 172.706 55.4325 172.706 55.5266 172.721C55.7251 172.723 54.8217 172.535 55.0558 172.515L55.0762 172.51ZM53.3888 162.819C53.4705 162.95 53.5436 163.087 53.6077 163.228C53.656 163.351 53.6687 163.422 53.6077 163.363C53.6077 163.206 53.4728 163.363 53.4092 163.109C53.1165 162.45 53.2132 162.564 53.3888 162.819ZM43.9288 147.545L43.8728 147.502C43.855 147.298 43.827 147.097 43.8245 146.896C43.8857 147.108 43.9207 147.326 43.9288 147.545ZM48.319 139.42L48.5125 139.501L48.1842 139.489L48.319 139.42ZM40.9053 173.561C40.9053 173.561 40.9053 173.546 40.8595 173.535C41.03 173.535 40.9969 173.535 40.9053 173.561C40.9206 173.602 40.6279 173.632 40.9206 173.658C41.098 173.665 41.2752 173.641 41.4449 173.589C41.6781 173.635 41.9036 173.715 42.1142 173.826C42.1575 173.826 42.1753 173.843 42.1549 173.849L42.1142 173.826C41.725 173.754 41.3313 173.708 40.9358 173.691L40.834 173.708C40.2003 173.665 40.7093 173.604 40.9053 173.563V173.561ZM35.3647 174.274L34.9015 174.246C35.212 174.327 34.423 174.228 34.9015 174.246L34.7997 174.223C35.8992 174.238 35.2247 174.195 35.3647 174.274ZM36.1282 174.019C35.4945 174.062 35.9501 174.108 36.3013 174.167C35.1102 174.164 34.9321 174.019 36.1282 174.037V174.019ZM36.963 174.429C37.1743 174.401 36.6118 174.376 36.4794 174.325L37.1157 174.274C37.4924 174.378 37.6247 174.426 36.9732 174.447L36.963 174.429ZM37.388 174.174L36.6932 174.218C36.991 174.185 37.1284 174.131 37.0699 174.19C37.2913 174.075 37.299 174.141 37.388 174.174L37.7163 174.151C37.6171 174.195 37.5065 174.206 37.4008 174.182L37.388 174.174ZM36.6856 174.057C37.0699 174.017 37.4491 173.981 37.8334 173.933H38.0548C37.6095 173.989 37.1462 174.019 36.6958 174.065L36.6856 174.057ZM40.096 173.803C40.9231 173.892 40.0705 173.978 39.6608 174.057C40.2868 173.948 39.8135 173.897 40.1061 173.81L40.096 173.803ZM41.0656 174.383C41.0326 174.325 40.5744 174.312 40.3327 174.284L40.8009 174.225C40.7602 174.179 40.8722 174.141 41.4983 174.129L40.8009 174.225C40.8595 174.286 41.114 174.347 41.0758 174.391L41.0656 174.383ZM42.2745 173.963C42.02 174.006 41.7452 174.05 41.4805 174.085C41.6815 174.044 41.5466 174.004 41.5314 173.973C41.7859 173.973 42.0251 173.973 42.2745 173.973L42.6359 173.917L42.5494 173.971L42.2745 173.963ZM42.6945 174.09H42.6258C42.6359 174.083 42.6479 174.08 42.6601 174.08C42.6724 174.08 42.6843 174.083 42.6945 174.09L42.9719 174.075L43.5776 174.042L42.9821 174.08L43.2646 174.177C43.0743 174.196 42.8822 174.169 42.7047 174.098L42.6945 174.09ZM43.3664 174.365L43.7583 174.238L44.0663 174.157C43.8423 174.238 43.6107 174.309 43.3765 174.373L43.3664 174.365ZM46.9294 173.823C46.7487 173.889 46.5553 173.963 46.3492 174.027C46.143 174.09 45.9165 174.144 45.6722 174.19C45.9801 174.093 45.265 174.141 45.5526 174.017C46.0181 174.014 46.4812 173.949 46.9294 173.823C47.1483 173.749 47.3468 173.665 47.5403 173.599C47.3462 173.696 47.1434 173.773 46.9345 173.831L46.9294 173.823Z" fill="#FADD6F"/>
<path d="M49.4377 138.891L49.514 138.845L49.2417 138.644C49.0739 138.503 48.9173 138.35 48.7734 138.186C48.9748 138.439 49.197 138.675 49.4377 138.891Z" fill="#FADD6F"/>
<path d="M50.948 139.84C51.0578 139.88 51.1727 139.903 51.2891 139.909L51.06 139.799L50.8539 139.675C50.8285 139.658 50.8021 139.643 50.775 139.629L50.6172 139.716L50.948 139.84Z" fill="#FADD6F"/>
<path d="M51.7544 139.417L51.561 139.162L51.3828 139.272L51.7544 139.417Z" fill="#FADD6F"/>
<path d="M53.1539 138.413C53.0597 138.222 52.3598 138.667 51.5938 139.141L52.0137 139.304C52.1893 139.365 52.3827 139.421 52.5685 139.482L53.696 139.844L55.9865 140.589L58.3051 141.353L59.4809 141.725C59.833 141.837 60.2004 141.895 60.5702 141.895C60.5473 141.989 61.0792 141.994 61.5882 141.857C61.7078 141.816 61.8427 141.793 61.9369 141.75C62.031 141.707 62.143 141.674 62.2244 141.648C62.3822 141.59 62.4789 141.577 62.4484 141.669L62.3313 141.707C61.9903 141.888 62.0539 141.905 62.2932 141.852C62.4411 141.804 62.5849 141.745 62.7233 141.674C62.8768 141.585 63.0201 141.48 63.1508 141.361C62.8632 141.552 63.0618 141.302 63.1508 141.137C63.1966 141.055 63.2196 140.997 63.1508 141.02C63.0821 141.042 62.9549 141.17 62.6291 141.381C62.9334 141.127 63.1917 140.822 63.3926 140.48C63.4172 140.216 63.4842 139.958 63.5911 139.716C63.7355 139.36 63.8338 138.987 63.8838 138.606L63.922 138.278C63.922 138.166 63.922 138.051 63.922 137.937C63.9212 137.821 63.9075 137.706 63.8813 137.593C63.8668 137.477 63.8403 137.363 63.8024 137.252C63.6768 136.813 63.4329 136.417 63.0974 136.107C63.1429 136.146 63.1969 136.175 63.2552 136.191C62.7066 135.641 62.0334 135.233 61.2929 134.999C61.1199 134.969 60.9545 134.92 60.7992 134.903L60.3716 134.872C60.193 134.874 60.0156 134.901 59.8448 134.953L59.6768 134.859C59.4203 134.976 59.1743 135.113 58.9413 135.272C58.7301 135.419 58.5443 135.539 58.3483 135.653C57.9538 135.885 57.511 136.099 56.7017 136.481C56.7017 136.45 56.8747 136.318 56.61 136.425C56.0842 136.891 55.4892 137.273 54.8463 137.558L54.8692 137.497L53.1539 138.413Z" fill="#FADD6F"/>
<path d="M48.0156 173.362L48.0215 173.359H48.0156V173.362Z" fill="#FADD6F"/>
<path d="M56.7709 156.94C57.1043 157.042 57.3639 157.087 57.0101 156.774L56.7862 156.678L56.4375 156.586L56.7709 156.94Z" fill="#FADD6F"/>
<path d="M57.0437 156.643L55.8984 156.002C56.0079 156.106 56.1529 156.274 56.3438 156.473L56.7943 156.677C57.0157 156.733 57.1582 156.755 57.0437 156.643Z" fill="#FADD6F"/>
<path d="M48.0847 173.276C48.0619 173.291 48.0435 173.312 48.0312 173.337C48.1483 173.288 48.4945 173.186 48.0847 173.276Z" fill="#FADD6F"/>
<path d="M47.9984 173.346C47.9263 173.359 47.9469 173.362 48.0138 173.359C48.0138 173.359 48.0138 173.344 48.0138 173.336L47.9984 173.346Z" fill="#FADD6F"/>
<path d="M55.9207 173.896C55.7019 173.896 55.4804 173.881 55.2768 173.861C55.0732 173.84 54.8951 173.797 54.75 173.771C54.8773 173.807 55.0223 173.863 55.1776 173.924C55.4789 174.001 55.788 174.043 56.0989 174.049L55.9207 173.896Z" fill="#FADD6F"/>
<path d="M43.9694 144.88C43.9694 145.071 43.9694 145.27 43.9694 145.402C44.0127 145.178 44.0636 145.015 44.0839 144.865C44.0928 144.793 44.0928 144.72 44.0839 144.648C44.0841 144.572 44.0747 144.496 44.0559 144.422C44.02 144.48 43.9942 144.544 43.9796 144.61C43.9706 144.7 43.9672 144.79 43.9694 144.88Z" fill="#FADD6F"/>
<path d="M50.5998 171.848C50.5725 171.867 50.5469 171.89 50.5234 171.914L50.6151 171.949L50.8059 171.876L50.5998 171.848Z" fill="#FADD6F"/>
<path d="M50.916 140.057C51.0224 140.101 51.1312 140.138 51.2417 140.169C51.4326 140.223 51.5675 140.241 51.6133 140.198C51.4282 140.101 51.2338 140.023 51.0331 139.966C50.8795 139.899 50.7322 139.819 50.5928 139.727L50.4375 139.808C50.4757 139.828 50.5164 139.846 50.552 139.869L50.916 140.057Z" fill="#FADD6F"/>
<path d="M51.2098 172.15L51.2759 171.972L51.3141 171.939L51.1003 171.908C51.0418 171.979 51.0443 172.005 51.0494 172.03L51.1181 172.008L51.0469 172.056C51.0485 172.066 51.0485 172.076 51.0469 172.086L51.2098 172.15Z" fill="#FADD6F"/>
<path d="M51.9193 160.783C51.6444 160.483 51.5095 160.323 51.8964 160.768L51.9193 160.783Z" fill="#FADD6F"/>
<path d="M51.3948 171.548C51.4864 171.487 51.5628 171.436 51.6086 171.411L51.4584 171.564L51.6722 171.61L51.7104 171.571L51.6824 171.61C52.0896 171.683 52.3594 171.668 52.3517 171.576C52.0514 171.485 51.7536 171.383 51.4584 171.281C51.4046 171.304 51.3527 171.332 51.3032 171.363L51.125 171.477C51.2217 171.505 51.3108 171.528 51.3948 171.548Z" fill="#FADD6F"/>
<path d="M57.7122 157.687C57.5188 157.522 57.312 157.374 57.0938 157.244C57.271 157.428 57.4807 157.578 57.7122 157.687Z" fill="#FADD6F"/>
<path d="M50.9375 172.065L51.0044 172.085L51.0404 172.065C51.0404 172.065 51.0404 172.047 51.0404 172.039L50.9375 172.065Z" fill="#FADD6F"/>
<path d="M60.5855 172.445C60.5776 172.475 60.5645 172.503 60.5469 172.528C60.7219 172.412 60.6138 172.463 60.5855 172.445Z" fill="#FADD6F"/>
<path d="M50.0525 138.157C49.8387 138.019 49.6936 137.958 50.1644 138.475C50.1913 138.48 50.2177 138.488 50.2433 138.498C50.2858 138.454 50.3318 138.413 50.3808 138.376H50.3629C50.2815 138.317 50.1619 138.223 50.0525 138.157Z" fill="#FADD6F"/>
<path d="M83.496 149.946L155.121 126.003C158.242 124.96 161.61 124.924 164.752 125.9C167.893 126.876 170.649 128.815 172.629 131.442C174.509 133.936 175.602 136.935 175.769 140.053C175.936 143.172 175.169 146.27 173.565 148.951L141.455 202.629C140.066 204.889 139.262 207.459 139.113 210.108C138.964 212.757 139.476 215.401 140.602 217.803L146.341 230.039L108.975 208.893C108.063 208.378 107.269 207.678 106.643 206.839C106.016 206 105.571 205.04 105.335 204.02C105.1 203 105.079 201.941 105.275 200.913C105.47 199.884 105.877 198.907 106.47 198.044L131.437 161.709L93.9307 177.565C92.1009 178.34 90.1334 178.738 88.1463 178.734C86.1592 178.73 84.1933 178.325 82.3664 177.543C80.5396 176.761 78.8894 175.618 77.5148 174.183C76.1402 172.747 75.0695 171.049 74.3669 169.19C73.661 167.33 73.3383 165.347 73.4181 163.359C73.4979 161.371 73.9786 159.42 74.8313 157.622C75.6839 155.825 76.891 154.218 78.38 152.899C79.8689 151.58 81.6091 150.576 83.496 149.946Z" fill="#F2A84C"/>
<path d="M58.7891 119.904L74.3445 142.832C75.842 145.039 77.787 146.907 80.0531 148.313C82.3192 149.72 84.8558 150.634 87.4981 150.996C90.1404 151.359 92.8294 151.161 95.3903 150.416C97.9513 149.671 100.327 148.396 102.363 146.673L121.423 130.55C125.173 127.376 127.578 122.897 128.155 118.018L128.328 116.554L134.711 116.099L137.383 120.887C137.685 121.429 138.183 121.836 138.776 122.021C139.368 122.207 140.009 122.158 140.567 121.885C141.142 121.604 141.582 121.108 141.793 120.503C142.003 119.899 141.966 119.236 141.689 118.659L139.964 115.045C139.429 113.923 138.575 112.985 137.508 112.348C136.442 111.711 135.211 111.403 133.97 111.463L127.47 111.776L137.467 108.416L141.086 110.432C141.546 110.688 142.081 110.775 142.598 110.677C143.116 110.579 143.582 110.302 143.916 109.895C144.115 109.653 144.261 109.372 144.345 109.07C144.429 108.769 144.449 108.453 144.404 108.143C144.358 107.833 144.249 107.536 144.082 107.271C143.915 107.006 143.695 106.779 143.435 106.604L137.793 102.801C136.507 101.934 135.022 101.409 133.477 101.275C131.933 101.141 130.379 101.404 128.964 102.037L124.541 104.017L126.867 99.9649L134.573 97.8877C134.844 97.8147 135.095 97.6834 135.31 97.503C135.525 97.3226 135.697 97.0975 135.816 96.8434C135.934 96.5893 135.996 96.3123 135.996 96.0319C135.997 95.7515 135.936 95.4744 135.818 95.22C135.628 94.8104 135.3 94.4807 134.891 94.2885C134.483 94.0963 134.02 94.0539 133.583 94.1687L124.836 96.4597C123.747 96.7459 122.726 97.2442 121.83 97.9261C120.934 98.608 120.182 99.46 119.616 100.433L111.441 114.525L93.5851 127.042L78.3275 106.143C76.538 103.693 73.8846 102.014 70.9044 101.447C67.9242 100.88 64.8399 101.467 62.2759 103.088C60.9241 103.947 59.7585 105.068 58.848 106.386C57.9376 107.703 57.301 109.19 56.9758 110.759C56.6506 112.327 56.6436 113.944 56.9551 115.515C57.2666 117.086 57.8902 118.579 58.7891 119.904Z" fill="#83BF6E"/>
<path d="M35.2057 62.9883C33.744 68.7356 34.6248 74.8283 37.6544 79.926C40.684 85.0237 45.6142 88.709 51.3604 90.171C57.1066 91.6329 63.1981 90.7518 68.2949 87.7216C73.3916 84.6914 77.0761 79.7604 78.5378 74.0131L35.2057 62.9883ZM41.9119 70.2202L41.6879 70.1616C41.5987 70.1395 41.5148 70.1002 41.4409 70.0456C41.367 69.991 41.3046 69.9224 41.2573 69.8436C41.21 69.7648 41.1787 69.6775 41.1653 69.5866C41.1518 69.4957 41.1565 69.4031 41.1789 69.314L41.4614 68.227C41.5092 68.049 41.6253 67.897 41.7845 67.8041C41.9436 67.7111 42.133 67.6848 42.3115 67.7306L42.5354 67.7892C42.7132 67.8364 42.8651 67.9521 42.9581 68.1108C43.051 68.2696 43.0775 68.4586 43.0317 68.6368L42.7467 69.7238C42.6993 69.8988 42.5857 70.0485 42.4299 70.1412C42.274 70.2338 42.0883 70.2622 41.9119 70.2202ZM43.1234 75.6702L42.8994 75.6116C42.8099 75.5896 42.7257 75.5501 42.6516 75.4954C42.5775 75.4407 42.515 75.3717 42.4677 75.2927C42.4203 75.2136 42.3891 75.1259 42.3759 75.0348C42.3626 74.9436 42.3675 74.8507 42.3904 74.7614L42.6729 73.677C42.6949 73.5875 42.7344 73.5034 42.7891 73.4293C42.8439 73.3551 42.9127 73.2925 42.9918 73.2452C43.0708 73.1978 43.1584 73.1667 43.2496 73.1534C43.3408 73.1402 43.4337 73.145 43.5229 73.1679L43.7443 73.2264C43.8338 73.2484 43.918 73.288 43.9921 73.3427C44.0662 73.3975 44.1287 73.4664 44.1761 73.5455C44.2234 73.6245 44.2546 73.7121 44.2678 73.8033C44.2811 73.8944 44.2762 73.9874 44.2534 74.0767L43.9683 75.161C43.9463 75.25 43.9069 75.3337 43.8525 75.4074C43.7981 75.4811 43.7297 75.5435 43.6513 75.5907C43.5728 75.638 43.4858 75.6693 43.3952 75.683C43.3046 75.6966 43.2123 75.6922 43.1234 75.6702ZM45.2027 79.5013L44.9202 80.5882C44.8729 80.7666 44.757 80.9189 44.5976 81.012C44.4383 81.105 44.2486 81.1311 44.0701 81.0845L43.8487 81.026C43.7595 81.004 43.6755 80.9646 43.6016 80.91C43.5277 80.8555 43.4653 80.7867 43.418 80.7079C43.3707 80.6292 43.3395 80.5419 43.326 80.451C43.3126 80.3601 43.3172 80.2674 43.3397 80.1783L43.6247 79.0914C43.672 78.9135 43.7875 78.7616 43.9463 78.6686C44.105 78.5757 44.2941 78.5493 44.4722 78.5951L44.6962 78.6536C44.7853 78.6756 44.8692 78.7151 44.943 78.7697C45.0168 78.8243 45.079 78.893 45.1261 78.9718C45.1732 79.0506 45.2042 79.138 45.2174 79.2288C45.2305 79.3197 45.2255 79.4123 45.2027 79.5013ZM46.5693 71.4318L46.3479 71.3733C46.2585 71.3513 46.1743 71.3117 46.1002 71.257C46.026 71.2022 45.9635 71.1334 45.9162 71.0544C45.8689 70.9753 45.8377 70.8876 45.8244 70.7965C45.8111 70.7053 45.8161 70.6124 45.8389 70.5231L46.124 69.4387C46.146 69.3495 46.1854 69.2655 46.24 69.1916C46.2946 69.1176 46.3632 69.0553 46.4419 69.008C46.5207 68.9607 46.608 68.9293 46.6989 68.9159C46.7898 68.9024 46.8824 68.9071 46.9715 68.9296L47.1954 68.9881C47.3738 69.0353 47.5261 69.1513 47.6192 69.3106C47.7122 69.47 47.7383 69.6598 47.6917 69.8384L47.4092 70.9227C47.3647 71.1012 47.2514 71.2548 47.0941 71.3502C46.9368 71.4455 46.7482 71.4749 46.5693 71.4318ZM47.7808 76.8793L47.5568 76.8207C47.4676 76.7987 47.3837 76.7594 47.3098 76.7048C47.2359 76.6502 47.1735 76.5814 47.1262 76.5027C47.0789 76.4239 47.0476 76.3367 47.0342 76.2458C47.0207 76.1549 47.0254 76.0622 47.0478 75.9731L47.3303 74.8861C47.3781 74.7081 47.4942 74.5562 47.6534 74.4633C47.8125 74.3703 48.0019 74.3439 48.1804 74.3898L48.4043 74.4483C48.5821 74.4956 48.734 74.6111 48.827 74.7699C48.9199 74.9287 48.9464 75.1178 48.9006 75.296L48.6156 76.383C48.5694 76.5612 48.4547 76.7139 48.2964 76.8078C48.1381 76.9018 47.9491 76.9292 47.7706 76.8844L47.7808 76.8793ZM49.8626 80.7129L49.5776 81.7974C49.531 81.9756 49.4155 82.1279 49.2566 82.221C49.0977 82.314 48.9083 82.3402 48.7301 82.2937L48.5061 82.2377C48.4168 82.2154 48.3328 82.1757 48.2589 82.1209C48.185 82.0661 48.1226 81.9972 48.0753 81.9182C48.0281 81.8392 47.9968 81.7517 47.9834 81.6606C47.97 81.5696 47.9746 81.4767 47.9971 81.3874L48.2796 80.3005C48.3268 80.1221 48.4428 79.9698 48.6021 79.8768C48.7615 79.7837 48.9512 79.7576 49.1297 79.8042L49.3536 79.8627C49.4427 79.8858 49.5264 79.9262 49.5997 79.9818C49.6731 80.0374 49.7348 80.107 49.7811 80.1865C49.8275 80.266 49.8577 80.3538 49.8699 80.445C49.8822 80.5363 49.8762 80.6291 49.8525 80.718L49.8626 80.7129ZM51.2192 72.6461L50.9952 72.5875C50.906 72.5655 50.8221 72.526 50.7482 72.4714C50.6743 72.4169 50.6119 72.3482 50.5646 72.2695C50.5173 72.1907 50.486 72.1034 50.4725 72.0125C50.4591 71.9217 50.4637 71.8289 50.4862 71.7398L50.7687 70.6529C50.8159 70.4745 50.9319 70.3221 51.0912 70.229C51.2505 70.136 51.4402 70.11 51.6187 70.1566L51.8402 70.2151C51.9293 70.2372 52.0133 70.2765 52.0872 70.3311C52.1611 70.3857 52.2235 70.4543 52.2708 70.5331C52.3181 70.6118 52.3494 70.6992 52.3628 70.7901C52.3763 70.881 52.3716 70.9736 52.3492 71.0627L52.0641 72.1496C52.0413 72.239 52.001 72.323 51.9456 72.3966C51.8902 72.4703 51.8207 72.5322 51.7411 72.5788C51.6616 72.6255 51.5737 72.6559 51.4823 72.6683C51.391 72.6807 51.2981 72.6749 51.209 72.6512L51.2192 72.6461ZM52.423 78.1012L52.2016 78.0427C52.1123 78.0204 52.0283 77.9806 51.9543 77.9257C51.8804 77.8709 51.818 77.8021 51.7707 77.7231C51.7235 77.6442 51.6922 77.5567 51.6788 77.4656C51.6654 77.3745 51.6701 77.2816 51.6925 77.1924L51.9776 76.1054C52.0248 75.9276 52.1404 75.7757 52.2992 75.6827C52.4579 75.5897 52.6469 75.5633 52.8251 75.6091L53.0491 75.6677C53.2274 75.7149 53.3798 75.8309 53.4728 75.9902C53.5658 76.1496 53.5919 76.3393 53.5453 76.5178L53.2628 77.6023C53.2161 77.7789 53.1019 77.9301 52.9448 78.0234C52.7878 78.1167 52.6004 78.1447 52.423 78.1012ZM54.5048 81.9322L54.2223 83.0192C54.1751 83.1976 54.0591 83.35 53.8998 83.443C53.7405 83.5361 53.5508 83.5622 53.3723 83.5156L53.1483 83.4571C53.0589 83.4351 52.9746 83.3955 52.9005 83.3407C52.8264 83.286 52.7639 83.2171 52.7166 83.138C52.6693 83.059 52.6381 82.9713 52.6248 82.8801C52.6115 82.7889 52.6165 82.696 52.6393 82.6068L52.9243 81.5224C52.9461 81.4331 52.9853 81.3488 53.0398 81.2747C53.0943 81.2006 53.1629 81.1381 53.2418 81.0908C53.3206 81.0434 53.4081 81.0122 53.499 80.9989C53.59 80.9856 53.6828 80.9905 53.7719 81.0133L53.9958 81.0719C54.0859 81.0944 54.1706 81.1345 54.245 81.1902C54.3193 81.2459 54.3818 81.3159 54.4287 81.396C54.4757 81.4762 54.5061 81.5648 54.5183 81.6569C54.5305 81.749 54.5242 81.8426 54.4997 81.9322H54.5048ZM55.8613 73.8679L55.6374 73.8093C55.5479 73.7873 55.4637 73.7479 55.3896 73.6931C55.3155 73.6384 55.253 73.5695 55.2057 73.4904C55.1583 73.4114 55.1271 73.3237 55.1139 73.2325C55.1006 73.1413 55.1055 73.0484 55.1284 72.9592L55.4134 71.8748C55.4354 71.7856 55.4749 71.7016 55.5294 71.6277C55.584 71.5538 55.6526 71.4913 55.7314 71.444C55.8101 71.3967 55.8975 71.3655 55.9883 71.352C56.0792 71.3386 56.1718 71.3433 56.2609 71.3657L56.4849 71.4243C56.5743 71.4463 56.6586 71.4857 56.7327 71.5405C56.8068 71.5952 56.8693 71.6641 56.9166 71.7432C56.9639 71.8223 56.9951 71.9099 57.0084 72.0011C57.0217 72.0923 57.0167 72.1852 56.9939 72.2744L56.7114 73.3588C56.6891 73.4486 56.6492 73.5332 56.5941 73.6075C56.5389 73.6818 56.4696 73.7445 56.3901 73.7918C56.3105 73.8392 56.2224 73.8704 56.1308 73.8834C56.0391 73.8965 55.9458 73.8911 55.8563 73.8679H55.8613ZM57.0728 79.3155L56.8488 79.2569C56.7596 79.2349 56.6757 79.1954 56.6018 79.1408C56.5279 79.0863 56.4655 79.0176 56.4182 78.9388C56.3709 78.8601 56.3396 78.7727 56.3262 78.6818C56.3127 78.5909 56.3174 78.4983 56.3398 78.4092L56.6223 77.3223C56.6443 77.2328 56.6838 77.1486 56.7386 77.0744C56.7933 77.0003 56.8622 76.9378 56.9412 76.8905C57.0203 76.8431 57.1079 76.8119 57.1991 76.7986C57.2902 76.7854 57.3831 76.7903 57.4724 76.8132L57.6938 76.8717C57.783 76.8937 57.8669 76.9331 57.9408 76.9877C58.0147 77.0423 58.0771 77.1109 58.1244 77.1897C58.1717 77.2684 58.203 77.3558 58.2164 77.4467C58.2299 77.5376 58.2253 77.6303 58.2028 77.7194L57.9178 78.8064C57.8966 78.8965 57.8577 78.9815 57.8033 79.0564C57.7489 79.1314 57.6802 79.1948 57.601 79.2429C57.5219 79.291 57.434 79.3228 57.3424 79.3366C57.2509 79.3503 57.1575 79.3458 57.0677 79.323L57.0728 79.3155ZM59.1546 83.1465L58.8696 84.2334C58.8224 84.4112 58.7068 84.5632 58.548 84.6561C58.3893 84.7491 58.2003 84.7756 58.0221 84.7298L57.7981 84.6712C57.7088 84.6495 57.6246 84.6103 57.5505 84.5558C57.4765 84.5013 57.4139 84.4326 57.3666 84.3537C57.3192 84.2749 57.288 84.1875 57.2747 84.0964C57.2614 84.0054 57.2663 83.9127 57.2891 83.8236L57.5716 82.7367C57.6188 82.5583 57.7348 82.4059 57.8941 82.3128C58.0535 82.2198 58.2432 82.1937 58.4217 82.2402L58.6431 82.2988C58.8216 82.3439 58.9751 82.4577 59.07 82.6156C59.1649 82.7735 59.1935 82.9625 59.1496 83.1414L59.1546 83.1465ZM60.5086 75.0821L60.2872 75.0236C60.1978 75.0019 60.1137 74.9626 60.0396 74.9081C59.9655 74.8536 59.903 74.785 59.8556 74.7061C59.8083 74.6273 59.7771 74.5399 59.7638 74.4488C59.7505 74.3578 59.7554 74.265 59.7782 74.1759L60.0607 73.0889C60.1079 72.9106 60.2239 72.7583 60.3832 72.6652C60.5425 72.5722 60.7322 72.5461 60.9107 72.5926L61.1321 72.6512C61.2217 72.6726 61.3061 72.7116 61.3803 72.766C61.4546 72.8204 61.5172 72.8892 61.5646 72.9681C61.612 73.0471 61.6432 73.1347 61.6564 73.2258C61.6695 73.3169 61.6643 73.4097 61.6412 73.4989L61.3587 74.5858C61.3353 74.6747 61.2946 74.7581 61.239 74.8312C61.1833 74.9043 61.1137 74.9656 61.0343 75.0118C60.9548 75.0579 60.867 75.0878 60.7759 75.0999C60.6848 75.112 60.5923 75.1059 60.5035 75.0821H60.5086ZM61.7201 80.5297L61.4961 80.471C61.4069 80.449 61.323 80.4096 61.2491 80.3551C61.1751 80.3005 61.1128 80.2318 61.0655 80.1531C61.0182 80.0743 60.9869 79.9869 60.9734 79.896C60.96 79.8051 60.9646 79.7126 60.9871 79.6235L61.2721 78.5365C61.3194 78.3587 61.435 78.2068 61.5937 78.1138C61.7524 78.0208 61.9415 77.9943 62.1196 78.0401L62.3436 78.0986C62.4331 78.1206 62.5173 78.1602 62.5914 78.215C62.6655 78.2697 62.728 78.3385 62.7753 78.4176C62.8227 78.4966 62.8538 78.5843 62.8671 78.6755C62.8804 78.7667 62.8754 78.8595 62.8526 78.9488L62.5701 80.0333C62.5468 80.1221 62.5061 80.2055 62.4504 80.2786C62.3947 80.3517 62.3252 80.4131 62.2457 80.4592C62.1662 80.5053 62.0784 80.5353 61.9874 80.5473C61.8963 80.5594 61.8037 80.5535 61.715 80.5297H61.7201ZM63.8019 84.3632L63.5169 85.4476C63.4949 85.5368 63.4554 85.6208 63.4009 85.6947C63.3463 85.7687 63.2777 85.831 63.1989 85.8783C63.1201 85.9256 63.0328 85.957 62.942 85.9704C62.8511 85.9839 62.7584 85.9792 62.6694 85.9568L62.4454 85.8982C62.3559 85.8762 62.2717 85.8366 62.1976 85.7819C62.1235 85.7271 62.061 85.6583 62.0137 85.5793C61.9663 85.5002 61.9351 85.4125 61.9219 85.3214C61.9086 85.2302 61.9136 85.1373 61.9364 85.048L62.2214 83.9636C62.2435 83.8744 62.2829 83.7904 62.3375 83.7165C62.392 83.6426 62.4606 83.5802 62.5394 83.5329C62.6181 83.4856 62.7055 83.4542 62.7964 83.4408C62.8872 83.4273 62.9799 83.432 63.0689 83.4545L63.2929 83.513C63.3819 83.5356 63.4656 83.5755 63.5391 83.6305C63.6126 83.6854 63.6746 83.7544 63.7214 83.8334C63.7682 83.9124 63.799 83.9999 63.8119 84.0909C63.8249 84.1818 63.8197 84.2743 63.7968 84.3632H63.8019ZM65.1584 76.2964L64.9345 76.2378C64.7567 76.1906 64.6048 76.075 64.5118 75.9163C64.4189 75.7575 64.3924 75.5683 64.4382 75.3901L64.7207 74.3032C64.7685 74.1252 64.8846 73.9733 65.0437 73.8803C65.2029 73.7874 65.3922 73.761 65.5707 73.8069L65.7947 73.8654C65.8841 73.8874 65.9684 73.9269 66.0425 73.9816C66.1166 74.0364 66.1791 74.1053 66.2264 74.1843C66.2737 74.2634 66.3049 74.3511 66.3182 74.4423C66.3315 74.5334 66.3265 74.6263 66.3037 74.7156L66.0187 75.8C65.9957 75.8908 65.9548 75.9759 65.8981 76.0504C65.8415 76.1249 65.7704 76.1872 65.6891 76.2336C65.6079 76.2799 65.5181 76.3094 65.4251 76.3202C65.3322 76.331 65.238 76.3229 65.1482 76.2964H65.1584ZM67.5024 80.163L67.2174 81.25C67.1954 81.3392 67.1559 81.4232 67.1014 81.4971C67.0468 81.571 66.9782 81.6335 66.8994 81.6808C66.8207 81.7281 66.7333 81.7593 66.6425 81.7728C66.5516 81.7862 66.4589 81.7816 66.3699 81.7591L66.1459 81.7005C65.969 81.6517 65.8185 81.5351 65.727 81.3759C65.6355 81.2167 65.6104 81.0279 65.6573 80.8504L65.9398 79.766C65.987 79.5877 66.1029 79.4352 66.2623 79.3422C66.4216 79.2491 66.6113 79.223 66.7898 79.2696L67.0112 79.3255C67.1845 79.3756 67.3319 79.4907 67.4224 79.6467C67.513 79.8027 67.5398 79.9877 67.4973 80.163H67.5024ZM70.9383 75.9298L70.6558 77.0168C70.6338 77.1062 70.5942 77.1905 70.5395 77.2646C70.4848 77.3387 70.4159 77.4012 70.3368 77.4486C70.2578 77.4959 70.1702 77.5271 70.079 77.5404C69.9878 77.5537 69.8949 77.5487 69.8057 77.5259L69.5843 77.4673C69.4948 77.4453 69.4106 77.4059 69.3365 77.3511C69.2624 77.2964 69.1999 77.2274 69.1526 77.1484C69.1052 77.0693 69.074 76.9817 69.0608 76.8905C69.0475 76.7993 69.0524 76.7064 69.0753 76.6172L69.3603 75.5327C69.382 75.4433 69.4213 75.3592 69.4758 75.2851C69.5302 75.211 69.5989 75.1485 69.6777 75.1011C69.7566 75.0538 69.844 75.0225 69.935 75.0092C70.026 74.9959 70.1187 75.0008 70.2078 75.0236L70.4318 75.0796C70.6107 75.1264 70.7639 75.242 70.8578 75.4013C70.9517 75.5606 70.9788 75.7506 70.9332 75.9298H70.9383Z" fill="#FADD6F"/>
<path d="M86.7969 131.256L89.7899 121.83L93.5947 127.041L86.7969 131.256Z" fill="#71A85A"/>
</svg>
