<svg width="48" height="48" viewBox="0 0 48 48" fill="none" xmlns="http://www.w3.org/2000/svg">
<rect width="48" height="48" rx="12" fill="#EDF3FE"/>
<path d="M28.4087 12.333H19.5887C15.1787 12.333 14.082 13.5113 14.082 18.213V31.3497C14.082 34.453 15.7854 35.188 17.8504 32.9713L17.862 32.9597C18.8187 31.9447 20.277 32.0263 21.1054 33.1347L22.2837 34.7097C23.2287 35.958 24.757 35.958 25.702 34.7097L26.8804 33.1347C27.7204 32.0147 29.1787 31.933 30.1354 32.9597C32.212 35.1763 33.9037 34.4413 33.9037 31.338V18.213C33.9154 13.5113 32.8187 12.333 28.4087 12.333ZM27.4987 23.708H20.4987C20.0204 23.708 19.6237 23.3113 19.6237 22.833C19.6237 22.3547 20.0204 21.958 20.4987 21.958H27.4987C27.977 21.958 28.3737 22.3547 28.3737 22.833C28.3737 23.3113 27.977 23.708 27.4987 23.708ZM28.6654 19.0413H19.332C18.8537 19.0413 18.457 18.6447 18.457 18.1663C18.457 17.688 18.8537 17.2913 19.332 17.2913H28.6654C29.1437 17.2913 29.5404 17.688 29.5404 18.1663C29.5404 18.6447 29.1437 19.0413 28.6654 19.0413Z" fill="#4A86F7"/>
</svg>
