<svg width="48" height="48" viewBox="0 0 48 48" fill="none" xmlns="http://www.w3.org/2000/svg">
<rect width="48" height="48" rx="12" fill="#EDF3FE"/>
<path d="M33.2154 25.75H14.782C13.032 25.75 12.332 26.4967 12.332 28.3517V33.065C12.332 34.92 13.032 35.6667 14.782 35.6667H33.2154C34.9654 35.6667 35.6654 34.92 35.6654 33.065V28.3517C35.6654 26.4967 34.9654 25.75 33.2154 25.75Z" fill="#4A86F7"/>
<path d="M25.0487 12.333H14.782C13.032 12.333 12.332 13.0797 12.332 14.9347V19.648C12.332 21.503 13.032 22.2497 14.782 22.2497H25.0487C26.7987 22.2497 27.4987 21.503 27.4987 19.648V14.9347C27.4987 13.0797 26.7987 12.333 25.0487 12.333Z" fill="#A3C2FB"/>
</svg>
