<svg width="48" height="48" viewBox="0 0 48 48" fill="none" xmlns="http://www.w3.org/2000/svg">
<rect width="48" height="48" rx="12" fill="#FBEDF0"/>
<path d="M30.9987 13.5H16.9987C14.4204 13.5 12.332 15.5767 12.332 18.1317V29.8683C12.332 32.4233 14.4204 34.5 16.9987 34.5H30.9987C33.577 34.5 35.6654 32.4233 35.6654 29.8683V18.1317C35.6654 15.5767 33.577 13.5 30.9987 13.5ZM19.9154 18.365C21.397 18.365 22.6104 19.5783 22.6104 21.06C22.6104 22.5417 21.397 23.755 19.9154 23.755C18.4337 23.755 17.2204 22.5417 17.2204 21.06C17.2204 19.5783 18.4337 18.365 19.9154 18.365ZM24.4304 29.4367C24.3254 29.5533 24.162 29.6233 23.9987 29.6233H15.832C15.6687 29.6233 15.5054 29.5533 15.4004 29.4367C15.2954 29.32 15.237 29.1567 15.2487 28.9933C15.447 27.0333 17.0104 25.4817 18.9704 25.295C19.5887 25.2367 20.2304 25.2367 20.8487 25.295C22.8087 25.4817 24.3837 27.0333 24.5704 28.9933C24.5937 29.1567 24.5354 29.32 24.4304 29.4367ZM32.1654 29.5417H29.832C29.3537 29.5417 28.957 29.145 28.957 28.6667C28.957 28.1883 29.3537 27.7917 29.832 27.7917H32.1654C32.6437 27.7917 33.0404 28.1883 33.0404 28.6667C33.0404 29.145 32.6437 29.5417 32.1654 29.5417ZM32.1654 24.875H27.4987C27.0204 24.875 26.6237 24.4783 26.6237 24C26.6237 23.5217 27.0204 23.125 27.4987 23.125H32.1654C32.6437 23.125 33.0404 23.5217 33.0404 24C33.0404 24.4783 32.6437 24.875 32.1654 24.875ZM32.1654 20.2083H26.332C25.8537 20.2083 25.457 19.8117 25.457 19.3333C25.457 18.855 25.8537 18.4583 26.332 18.4583H32.1654C32.6437 18.4583 33.0404 18.855 33.0404 19.3333C33.0404 19.8117 32.6437 20.2083 32.1654 20.2083Z" fill="#D34B6A"/>
</svg>
