<svg width="72" height="72" viewBox="0 0 72 72" fill="none" xmlns="http://www.w3.org/2000/svg">
<rect width="72" height="72" rx="12" fill="white"/>
<path d="M53.5 29.91V21.965C53.5 19.4975 52.38 18.5 49.5975 18.5H42.5275C39.745 18.5 38.625 19.4975 38.625 21.965V29.8925C38.625 32.3775 39.745 33.3575 42.5275 33.3575H49.5975C52.38 33.375 53.5 32.3775 53.5 29.91Z" fill="#83BF6E"/>
<path d="M53.5 49.5975V42.5275C53.5 39.745 52.38 38.625 49.5975 38.625H42.5275C39.745 38.625 38.625 39.745 38.625 42.5275V49.5975C38.625 52.38 39.745 53.5 42.5275 53.5H49.5975C52.38 53.5 53.5 52.38 53.5 49.5975Z" fill="#BBDCAF"/>
<path d="M33.375 29.91V21.965C33.375 19.4975 32.255 18.5 29.4725 18.5H22.4025C19.62 18.5 18.5 19.4975 18.5 21.965V29.8925C18.5 32.3775 19.62 33.3575 22.4025 33.3575H29.4725C32.255 33.375 33.375 32.3775 33.375 29.91Z" fill="#BBDCAF"/>
<path d="M33.375 49.5975V42.5275C33.375 39.745 32.255 38.625 29.4725 38.625H22.4025C19.62 38.625 18.5 39.745 18.5 42.5275V49.5975C18.5 52.38 19.62 53.5 22.4025 53.5H29.4725C32.255 53.5 33.375 52.38 33.375 49.5975Z" fill="#BBDCAF"/>
</svg>
