<svg width="72" height="72" viewBox="0 0 72 72" fill="none" xmlns="http://www.w3.org/2000/svg">
<rect width="72" height="72" rx="12" fill="white"/>
<path d="M50.3664 28.6845L36.8914 36.4895C36.3489 36.8045 35.6664 36.8045 35.1064 36.4895L21.6314 28.6845C20.6689 28.1245 20.4239 26.812 21.1589 25.9895C21.6664 25.412 22.2439 24.9395 22.8564 24.607L32.3414 19.357C34.3714 18.2195 37.6614 18.2195 39.6914 19.357L49.1764 24.607C49.7889 24.9395 50.3664 25.4295 50.8739 25.9895C51.5739 26.812 51.3289 28.1245 50.3664 28.6845Z" fill="#E0704A"/>
<path d="M35.0023 39.7441V51.6791C35.0023 53.0091 33.6548 53.8841 32.4648 53.3066C28.8598 51.5391 22.7873 48.2316 22.7873 48.2316C20.6523 47.0241 18.9023 43.9791 18.9023 41.4766V32.4466C18.9023 31.0641 20.3548 30.1891 21.5448 30.8716L34.1273 38.1691C34.6523 38.5016 35.0023 39.0966 35.0023 39.7441Z" fill="#EFB7A4"/>
<path d="M36.9961 39.7441V51.6791C36.9961 53.0091 38.3436 53.8841 39.5336 53.3066C43.1386 51.5391 49.2111 48.2316 49.2111 48.2316C51.3461 47.0241 53.0961 43.9791 53.0961 41.4766V32.4466C53.0961 31.0641 51.6436 30.1891 50.4536 30.8716L37.8711 38.1691C37.3461 38.5016 36.9961 39.0966 36.9961 39.7441Z" fill="#EFB7A4"/>
</svg>
