<svg width="590" height="480" viewBox="0 0 590 480" fill="none" xmlns="http://www.w3.org/2000/svg">
<rect width="590" height="480" rx="12" fill="white"/>
<mask id="mask0_2741_123128" style="mask-type:alpha" maskUnits="userSpaceOnUse" x="0" y="0" width="590" height="480">
<rect width="590" height="480" rx="12" fill="white"/>
</mask>
<g mask="url(#mask0_2741_123128)">
<ellipse opacity="0.5" cx="347.999" cy="631.474" rx="391.335" ry="346.328" transform="rotate(44.1987 347.999 631.474)" fill="#ABDAF7"/>
<ellipse opacity="0.3" cx="293.311" cy="5.15265" rx="265.058" ry="142.498" transform="rotate(148.058 293.311 5.15265)" fill="#BBDCAF"/>
<g filter="url(#filter0_d_2741_123128)">
<rect x="167" y="103" width="256" height="274" rx="12" fill="white"/>
</g>
<path d="M214.272 280L215.607 276.151H221.289L222.617 280H224.947L219.712 265.455H217.177L211.942 280H214.272ZM216.246 274.304L218.391 268.097H218.505L220.65 274.304H216.246ZM231.99 269.091H229.64V268.111C229.64 267.145 230.037 266.619 231.074 266.619C231.515 266.619 231.827 266.719 232.026 266.783L232.523 265.064C232.225 264.95 231.607 264.773 230.748 264.773C229.022 264.773 227.509 265.781 227.509 267.827V269.091H225.826V270.795H227.509V280H229.64V270.795H231.99V269.091ZM239.274 269.091H237.037V266.477H234.913V269.091H233.315V270.795H234.913V277.237C234.906 279.219 236.419 280.178 238.095 280.142C238.77 280.135 239.224 280.007 239.473 279.915L239.089 278.161C238.947 278.189 238.684 278.253 238.343 278.253C237.654 278.253 237.037 278.026 237.037 276.797V270.795H239.274V269.091ZM246.207 280.22C248.587 280.22 250.27 279.048 250.753 277.273L248.743 276.911C248.359 277.94 247.436 278.466 246.229 278.466C244.411 278.466 243.189 277.287 243.132 275.185H250.888V274.432C250.888 270.49 248.53 268.949 246.058 268.949C243.018 268.949 241.016 271.264 241.016 274.616C241.016 278.004 242.99 280.22 246.207 280.22ZM243.139 273.594C243.224 272.045 244.347 270.703 246.072 270.703C247.72 270.703 248.8 271.925 248.807 273.594H243.139ZM253.244 280H255.368V273.338C255.368 271.918 256.468 270.888 257.939 270.888C258.35 270.888 258.67 270.973 258.926 271.101L259.608 269.325C259.245 269.084 258.777 268.928 258.18 268.928C256.887 268.928 255.808 269.652 255.41 270.824H255.297V269.091H253.244V280ZM265.357 284.318C268.134 284.318 270.279 283.047 270.279 280.241V269.091H268.198V270.859H268.042C267.665 270.185 266.912 268.949 264.881 268.949C262.246 268.949 260.307 271.03 260.307 274.503C260.307 277.983 262.289 279.837 264.867 279.837C266.87 279.837 267.644 278.707 268.027 278.011H268.162V280.156C268.162 281.868 266.99 282.607 265.378 282.607C263.61 282.607 262.921 281.719 262.544 281.094L260.719 281.847C261.294 283.182 262.75 284.318 265.357 284.318ZM265.336 278.075C263.439 278.075 262.452 276.619 262.452 274.474C262.452 272.379 263.418 270.753 265.336 270.753C267.189 270.753 268.184 272.266 268.184 274.474C268.184 276.726 267.168 278.075 265.336 278.075ZM273.127 265.455V277.457C273.127 279.183 274.015 280.107 275.854 280.078C276.422 280.071 276.877 279.979 277.175 279.886L276.792 278.189C276.642 278.232 276.493 278.281 276.124 278.288C275.442 278.31 275.25 277.955 275.25 277.017V265.455H273.127ZM283.171 280.22C286.246 280.22 288.256 277.969 288.256 274.595C288.256 271.2 286.246 268.949 283.171 268.949C280.096 268.949 278.086 271.2 278.086 274.595C278.086 277.969 280.096 280.22 283.171 280.22ZM283.178 278.438C281.168 278.438 280.231 276.683 280.231 274.588C280.231 272.5 281.168 270.724 283.178 270.724C285.174 270.724 286.112 272.5 286.112 274.588C286.112 276.683 285.174 278.438 283.178 278.438ZM292.66 280H294.819L297.035 272.124H297.198L299.414 280H301.58L304.783 269.091H302.589L300.465 277.067H300.359L298.228 269.091H296.033L293.888 277.102H293.782L291.644 269.091H289.45L292.66 280ZM312.262 280H314.457V274.886H317.44C320.813 274.886 322.482 272.848 322.482 270.163C322.482 267.486 320.827 265.455 317.447 265.455H312.262V280ZM314.457 273.026V267.337H317.212C319.386 267.337 320.273 268.516 320.273 270.163C320.273 271.811 319.386 273.026 317.241 273.026H314.457ZM324.885 280H327.008V273.338C327.008 271.918 328.109 270.888 329.579 270.888C329.991 270.888 330.311 270.973 330.566 271.101L331.248 269.325C330.886 269.084 330.417 268.928 329.821 268.928C328.528 268.928 327.449 269.652 327.051 270.824H326.937V269.091H324.885V280ZM337.019 280.22C340.094 280.22 342.104 277.969 342.104 274.595C342.104 271.2 340.094 268.949 337.019 268.949C333.944 268.949 331.934 271.2 331.934 274.595C331.934 277.969 333.944 280.22 337.019 280.22ZM337.026 278.438C335.016 278.438 334.078 276.683 334.078 274.588C334.078 272.5 335.016 270.724 337.026 270.724C339.022 270.724 339.959 272.5 339.959 274.588C339.959 276.683 339.022 278.438 337.026 278.438ZM344.474 269.091V280.696C344.474 281.705 344.055 282.259 343.047 282.259H342.706V284.084C342.855 284.091 342.99 284.091 343.139 284.091C345.398 284.091 346.598 282.898 346.598 280.71V269.091H344.474ZM345.526 267.408C346.257 267.408 346.868 266.839 346.868 266.143C346.868 265.447 346.257 264.872 345.526 264.872C344.787 264.872 344.183 265.447 344.183 266.143C344.183 266.839 344.787 267.408 345.526 267.408ZM354.157 280.22C356.536 280.22 358.219 279.048 358.702 277.273L356.692 276.911C356.309 277.94 355.385 278.466 354.178 278.466C352.36 278.466 351.138 277.287 351.081 275.185H358.837V274.432C358.837 270.49 356.479 268.949 354.007 268.949C350.968 268.949 348.965 271.264 348.965 274.616C348.965 278.004 350.939 280.22 354.157 280.22ZM351.088 273.594C351.174 272.045 352.296 270.703 354.022 270.703C355.669 270.703 356.749 271.925 356.756 273.594H351.088ZM365.788 280.22C368.366 280.22 370.036 278.672 370.27 276.548H368.203C367.933 277.727 367.017 278.423 365.803 278.423C364.006 278.423 362.848 276.925 362.848 274.545C362.848 272.209 364.027 270.739 365.803 270.739C367.152 270.739 367.976 271.591 368.203 272.614H370.27C370.043 270.412 368.246 268.949 365.767 268.949C362.692 268.949 360.703 271.264 360.703 274.595C360.703 277.884 362.621 280.22 365.788 280.22ZM377.633 269.091H375.396V266.477H373.272V269.091H371.674V270.795H373.272V277.237C373.265 279.219 374.778 280.178 376.454 280.142C377.129 280.135 377.583 280.007 377.832 279.915L377.449 278.161C377.306 278.189 377.044 278.253 376.703 278.253C376.014 278.253 375.396 278.026 375.396 276.797V270.795H377.633V269.091Z" fill="#35353D"/>
<circle cx="295" cy="188" r="51" fill="#F7F8FA"/>
<path fill-rule="evenodd" clip-rule="evenodd" d="M330.108 196C330.692 193.427 331 190.75 331 188C331 168.118 314.882 152 295 152C275.118 152 259 168.118 259 188C259 190.75 259.308 193.427 259.892 196H330.108ZM324.938 208H265.062C271.52 217.648 282.518 224 295 224C307.482 224 318.48 217.648 324.938 208Z" fill="#35353D"/>
<rect x="210" y="311" width="160" height="7" rx="3.5" fill="#EBEEF2"/>
<rect x="210" y="336" width="83" height="7" rx="3.5" fill="#EBEEF2"/>
<g filter="url(#filter1_d_2741_123128)">
<rect x="-109" y="103" width="256" height="274" rx="12" fill="white"/>
</g>
<path d="M-35.7807 280L-34.4455 276.151H-28.7637L-27.4355 280H-25.106L-30.3404 265.455H-32.8759L-38.1103 280H-35.7807ZM-33.8063 274.304L-31.6614 268.097H-31.5478L-29.4029 274.304H-33.8063ZM-23.0055 280H-17.4302C-14.0495 280 -12.5225 278.317 -12.5225 276.087C-12.5225 273.835 -14.0993 272.564 -15.541 272.486V272.344C-14.2058 272.003 -13.0907 271.094 -13.0907 269.276C-13.0907 267.124 -14.5822 265.455 -17.6788 265.455H-23.0055V280ZM-20.8109 278.118V273.459H-17.5652C-15.8038 273.459 -14.7029 274.595 -14.7029 275.98C-14.7029 277.202 -15.5339 278.118 -17.6433 278.118H-20.8109ZM-20.8109 271.747V267.322H-17.8137C-16.0737 267.322 -15.2427 268.239 -15.2427 269.446C-15.2427 270.852 -16.3933 271.747 -17.8706 271.747H-20.8109ZM1.82049 265.455H-0.352806V276.136H-0.487748L-7.88832 265.455H-9.91957V280H-7.72496V269.332H-7.59002L-0.196556 280H1.82049V265.455ZM10.3148 280H12.5094V274.886H15.4924C18.8659 274.886 20.535 272.848 20.535 270.163C20.535 267.486 18.8801 265.455 15.4995 265.455H10.3148V280ZM12.5094 273.026V267.337H15.2651C17.4384 267.337 18.3262 268.516 18.3262 270.163C18.3262 271.811 17.4384 273.026 15.2935 273.026H12.5094ZM22.9373 280H25.0609V273.338C25.0609 271.918 26.1618 270.888 27.6319 270.888C28.0439 270.888 28.3635 270.973 28.6191 271.101L29.301 269.325C28.9387 269.084 28.47 268.928 27.8734 268.928C26.5808 268.928 25.5012 269.652 25.1035 270.824H24.9899V269.091H22.9373V280ZM35.0716 280.22C38.1468 280.22 40.1568 277.969 40.1568 274.595C40.1568 271.2 38.1468 268.949 35.0716 268.949C31.9963 268.949 29.9863 271.2 29.9863 274.595C29.9863 277.969 31.9963 280.22 35.0716 280.22ZM35.0787 278.438C33.0687 278.438 32.1312 276.683 32.1312 274.588C32.1312 272.5 33.0687 270.724 35.0787 270.724C37.0744 270.724 38.0119 272.5 38.0119 274.588C38.0119 276.683 37.0744 278.438 35.0787 278.438ZM42.5272 269.091V280.696C42.5272 281.705 42.1081 282.259 41.0996 282.259H40.7587V284.084C40.9078 284.091 41.0428 284.091 41.1919 284.091C43.4505 284.091 44.6507 282.898 44.6507 280.71V269.091H42.5272ZM43.5783 267.408C44.3098 267.408 44.9206 266.839 44.9206 266.143C44.9206 265.447 44.3098 264.872 43.5783 264.872C42.8397 264.872 42.236 265.447 42.236 266.143C42.236 266.839 42.8397 267.408 43.5783 267.408ZM52.2093 280.22C54.5886 280.22 56.2718 279.048 56.7548 277.273L54.7449 276.911C54.3613 277.94 53.438 278.466 52.2306 278.466C50.4125 278.466 49.1909 277.287 49.1341 275.185H56.8897V274.432C56.8897 270.49 54.5318 268.949 52.0602 268.949C49.0204 268.949 47.0176 271.264 47.0176 274.616C47.0176 278.004 48.992 280.22 52.2093 280.22ZM49.1412 273.594C49.2264 272.045 50.3485 270.703 52.0744 270.703C53.7221 270.703 54.8017 271.925 54.8088 273.594H49.1412ZM63.8411 280.22C66.4192 280.22 68.0882 278.672 68.3226 276.548H66.2559C65.986 277.727 65.0698 278.423 63.8553 278.423C62.0584 278.423 60.9007 276.925 60.9007 274.545C60.9007 272.209 62.0797 270.739 63.8553 270.739C65.2047 270.739 66.0286 271.591 66.2559 272.614H68.3226C68.0953 270.412 66.2985 268.949 63.8198 268.949C60.7445 268.949 58.7559 271.264 58.7559 274.595C58.7559 277.884 60.6735 280.22 63.8411 280.22ZM75.6859 269.091H73.4487V266.477H71.3251V269.091H69.7271V270.795H71.3251V277.237C71.318 279.219 72.8308 280.178 74.5069 280.142C75.1816 280.135 75.6362 280.007 75.8848 279.915L75.5012 278.161C75.3592 278.189 75.0964 278.253 74.7555 278.253C74.0666 278.253 73.4487 278.026 73.4487 276.797V270.795H75.6859V269.091Z" fill="#35353D"/>
<circle cx="19" cy="188" r="51" fill="#F7F8FA"/>
<rect x="-66" y="311" width="118" height="7" rx="3.5" fill="#EBEEF2"/>
<rect x="-66" y="336" width="136" height="7" rx="3.5" fill="#EBEEF2"/>
<path d="M0.904 194.744H-7.992L-9.464 199H-14.168L-6.136 176.632H-0.919999L7.112 199H2.376L0.904 194.744ZM-0.311999 191.16L-3.544 181.816L-6.776 191.16H-0.311999ZM23.7863 187.544C25.0449 187.779 26.0796 188.408 26.8903 189.432C27.7009 190.456 28.1063 191.629 28.1063 192.952C28.1063 194.147 27.8076 195.203 27.2103 196.12C26.6343 197.016 25.7916 197.72 24.6823 198.232C23.5729 198.744 22.2609 199 20.7463 199H11.1143V176.664H20.3303C21.8449 176.664 23.1463 176.909 24.2343 177.4C25.3436 177.891 26.1756 178.573 26.7303 179.448C27.3063 180.323 27.5943 181.315 27.5943 182.424C27.5943 183.725 27.2423 184.813 26.5382 185.688C25.8556 186.563 24.9383 187.181 23.7863 187.544ZM15.5943 185.88H19.6903C20.7569 185.88 21.5783 185.645 22.1543 185.176C22.7303 184.685 23.0183 183.992 23.0183 183.096C23.0183 182.2 22.7303 181.507 22.1543 181.016C21.5783 180.525 20.7569 180.28 19.6903 180.28H15.5943V185.88ZM20.1063 195.352C21.1943 195.352 22.0369 195.096 22.6343 194.584C23.2529 194.072 23.5623 193.347 23.5623 192.408C23.5623 191.448 23.2423 190.701 22.6023 190.168C21.9623 189.613 21.0983 189.336 20.0103 189.336H15.5943V195.352H20.1063ZM51.7808 199H47.3008L37.1568 183.672V199H32.6768V176.632H37.1568L47.3008 191.992V176.632H51.7808V199Z" fill="#2448B1"/>
<g filter="url(#filter2_d_2741_123128)">
<rect x="443" y="103" width="256" height="274" rx="12" fill="white"/>
</g>
<path d="M516.086 280H524.872V278.111H518.281V265.455H516.086V280ZM531.8 280.22C534.875 280.22 536.885 277.969 536.885 274.595C536.885 271.2 534.875 268.949 531.8 268.949C528.725 268.949 526.715 271.2 526.715 274.595C526.715 277.969 528.725 280.22 531.8 280.22ZM531.807 278.438C529.797 278.438 528.86 276.683 528.86 274.588C528.86 272.5 529.797 270.724 531.807 270.724C533.803 270.724 534.74 272.5 534.74 274.588C534.74 276.683 533.803 278.438 531.807 278.438ZM539.426 280H541.5V278.303H541.678C542.061 278.999 542.842 280.213 544.831 280.213C547.473 280.213 549.391 278.097 549.391 274.567C549.391 271.03 547.445 268.949 544.81 268.949C542.786 268.949 542.054 270.185 541.678 270.859H541.55V265.455H539.426V280ZM541.507 274.545C541.507 272.266 542.501 270.753 544.355 270.753C546.28 270.753 547.246 272.379 547.246 274.545C547.246 276.733 546.251 278.402 544.355 278.402C542.53 278.402 541.507 276.839 541.507 274.545ZM551.775 280H553.899V269.091H551.775V280ZM552.848 267.408C553.579 267.408 554.19 266.839 554.19 266.143C554.19 265.447 553.579 264.872 552.848 264.872C552.109 264.872 551.505 265.447 551.505 266.143C551.505 266.839 552.109 267.408 552.848 267.408ZM562.219 280H564.414V274.886H567.397C570.77 274.886 572.439 272.848 572.439 270.163C572.439 267.486 570.784 265.455 567.404 265.455H562.219V280ZM564.414 273.026V267.337H567.169C569.343 267.337 570.23 268.516 570.23 270.163C570.23 271.811 569.343 273.026 567.198 273.026H564.414ZM574.842 280H576.965V273.338C576.965 271.918 578.066 270.888 579.536 270.888C579.948 270.888 580.268 270.973 580.523 271.101L581.205 269.325C580.843 269.084 580.374 268.928 579.778 268.928C578.485 268.928 577.406 269.652 577.008 270.824H576.894V269.091H574.842V280ZM586.976 280.22C590.051 280.22 592.061 277.969 592.061 274.595C592.061 271.2 590.051 268.949 586.976 268.949C583.901 268.949 581.891 271.2 581.891 274.595C581.891 277.969 583.901 280.22 586.976 280.22ZM586.983 278.438C584.973 278.438 584.036 276.683 584.036 274.588C584.036 272.5 584.973 270.724 586.983 270.724C588.979 270.724 589.916 272.5 589.916 274.588C589.916 276.683 588.979 278.438 586.983 278.438ZM594.431 269.091V280.696C594.431 281.705 594.012 282.259 593.004 282.259H592.663V284.084C592.812 284.091 592.947 284.091 593.096 284.091C595.355 284.091 596.555 282.898 596.555 280.71V269.091H594.431ZM595.483 267.408C596.214 267.408 596.825 266.839 596.825 266.143C596.825 265.447 596.214 264.872 595.483 264.872C594.744 264.872 594.14 265.447 594.14 266.143C594.14 266.839 594.744 267.408 595.483 267.408ZM604.114 280.22C606.493 280.22 608.176 279.048 608.659 277.273L606.649 276.911C606.266 277.94 605.342 278.466 604.135 278.466C602.317 278.466 601.095 277.287 601.038 275.185H608.794V274.432C608.794 270.49 606.436 268.949 603.964 268.949C600.925 268.949 598.922 271.264 598.922 274.616C598.922 278.004 600.896 280.22 604.114 280.22ZM601.045 273.594C601.131 272.045 602.253 270.703 603.979 270.703C605.626 270.703 606.706 271.925 606.713 273.594H601.045ZM615.745 280.22C618.324 280.22 619.993 278.672 620.227 276.548H618.16C617.89 277.727 616.974 278.423 615.76 278.423C613.963 278.423 612.805 276.925 612.805 274.545C612.805 272.209 613.984 270.739 615.76 270.739C617.109 270.739 617.933 271.591 618.16 272.614H620.227C620 270.412 618.203 268.949 615.724 268.949C612.649 268.949 610.66 271.264 610.66 274.595C610.66 277.884 612.578 280.22 615.745 280.22ZM627.59 269.091H625.353V266.477H623.229V269.091H621.631V270.795H623.229V277.237C623.222 279.219 624.735 280.178 626.411 280.142C627.086 280.135 627.54 280.007 627.789 279.915L627.406 278.161C627.263 278.189 627.001 278.253 626.66 278.253C625.971 278.253 625.353 278.026 625.353 276.797V270.795H627.59V269.091Z" fill="#35353D"/>
<circle cx="571" cy="188" r="51" fill="#F7F8FA"/>
<rect x="486" y="311" width="162" height="7" rx="3.5" fill="#EBEEF2"/>
<rect x="486" y="336" width="124" height="7" rx="3.5" fill="#EBEEF2"/>
<path d="M575 164C575 157.373 580.373 152 587 152H595C601.627 152 607 157.373 607 164V172C607 178.627 601.627 184 595 184H575V164Z" fill="#4A86F7"/>
<path fill-rule="evenodd" clip-rule="evenodd" d="M571 156H551C544.373 156 539 161.373 539 168V188V208C539 214.627 544.373 220 551 220H571H591C597.627 220 603 214.627 603 208V188H571V156Z" fill="#4A86F7"/>
</g>
<defs>
<filter id="filter0_d_2741_123128" x="143" y="79" width="316" height="334" filterUnits="userSpaceOnUse" color-interpolation-filters="sRGB">
<feFlood flood-opacity="0" result="BackgroundImageFix"/>
<feColorMatrix in="SourceAlpha" type="matrix" values="0 0 0 0 0 0 0 0 0 0 0 0 0 0 0 0 0 0 127 0" result="hardAlpha"/>
<feOffset dx="6" dy="6"/>
<feGaussianBlur stdDeviation="15"/>
<feComposite in2="hardAlpha" operator="out"/>
<feColorMatrix type="matrix" values="0 0 0 0 0.575 0 0 0 0 0.606167 0 0 0 0 0.716667 0 0 0 0.1 0"/>
<feBlend mode="normal" in2="BackgroundImageFix" result="effect1_dropShadow_2741_123128"/>
<feBlend mode="normal" in="SourceGraphic" in2="effect1_dropShadow_2741_123128" result="shape"/>
</filter>
<filter id="filter1_d_2741_123128" x="-133" y="79" width="316" height="334" filterUnits="userSpaceOnUse" color-interpolation-filters="sRGB">
<feFlood flood-opacity="0" result="BackgroundImageFix"/>
<feColorMatrix in="SourceAlpha" type="matrix" values="0 0 0 0 0 0 0 0 0 0 0 0 0 0 0 0 0 0 127 0" result="hardAlpha"/>
<feOffset dx="6" dy="6"/>
<feGaussianBlur stdDeviation="15"/>
<feComposite in2="hardAlpha" operator="out"/>
<feColorMatrix type="matrix" values="0 0 0 0 0.575 0 0 0 0 0.606167 0 0 0 0 0.716667 0 0 0 0.1 0"/>
<feBlend mode="normal" in2="BackgroundImageFix" result="effect1_dropShadow_2741_123128"/>
<feBlend mode="normal" in="SourceGraphic" in2="effect1_dropShadow_2741_123128" result="shape"/>
</filter>
<filter id="filter2_d_2741_123128" x="419" y="79" width="316" height="334" filterUnits="userSpaceOnUse" color-interpolation-filters="sRGB">
<feFlood flood-opacity="0" result="BackgroundImageFix"/>
<feColorMatrix in="SourceAlpha" type="matrix" values="0 0 0 0 0 0 0 0 0 0 0 0 0 0 0 0 0 0 127 0" result="hardAlpha"/>
<feOffset dx="6" dy="6"/>
<feGaussianBlur stdDeviation="15"/>
<feComposite in2="hardAlpha" operator="out"/>
<feColorMatrix type="matrix" values="0 0 0 0 0.575 0 0 0 0 0.606167 0 0 0 0 0.716667 0 0 0 0.1 0"/>
<feBlend mode="normal" in2="BackgroundImageFix" result="effect1_dropShadow_2741_123128"/>
<feBlend mode="normal" in="SourceGraphic" in2="effect1_dropShadow_2741_123128" result="shape"/>
</filter>
</defs>
</svg>
