<svg width="75" height="72" viewBox="0 0 75 72" fill="none" xmlns="http://www.w3.org/2000/svg">
<path opacity="0.3" d="M66.9929 47.8256C66.4863 47.8251 66.1968 47.8248 65.835 47.8245C65.7986 47.7882 65.6531 47.6433 65.5441 47.5347C64.8563 47.4978 64.1326 47.497 63.4809 47.424C62.9019 47.4234 62.3222 47.278 61.7432 47.2774C61.0918 47.2767 60.4401 47.2037 59.8251 47.2392C59.2461 47.2386 58.5958 47.4551 58.0522 47.2736C57.3997 47.0558 56.7861 47.3808 56.1343 47.3078C55.5186 47.1986 54.9036 47.2341 54.2883 47.1973C54.2883 47.1973 54.2887 47.2697 54.2894 47.4144C52.4807 47.5573 50.5997 47.7001 48.7938 48.422C48.7575 48.3857 48.5763 48.3494 48.3949 48.2406C48.3956 48.3854 48.3599 48.4939 48.3606 48.6386C47.3488 48.9271 46.3376 49.3602 45.2893 49.6124C44.0244 49.9368 42.8695 50.587 41.5675 50.7304C40.9165 50.8021 40.2305 51.127 39.6532 51.4883C39.2924 51.705 39.1826 51.4517 38.9292 51.4152C38.8938 51.5961 38.8582 51.7046 38.7868 51.9217C37.9557 52.1741 37.1606 52.3904 36.2935 52.679C36.2925 52.4618 36.2918 52.317 36.2547 52.1361C35.8201 52.0632 35.4926 51.6648 34.7712 52.1707C34.9503 51.7728 35.0576 51.5197 35.237 51.1942C34.6944 51.2298 34.4773 51.2296 34.1878 51.2293C34.1525 51.4102 34.1171 51.5911 34.0818 51.7719C33.865 51.8441 33.5759 51.9162 33.2868 51.9883C33.214 51.9159 33.105 51.8072 33.141 51.7711C33.284 51.4093 33.427 51.0476 33.5336 50.6497C33.133 50.1065 32.7371 50.5764 32.3392 50.6122C32.3389 50.5398 32.3382 50.3951 32.3379 50.3227C32.1568 50.2863 31.9753 50.1776 31.7942 50.1412C31.8645 49.7071 31.9351 49.3453 32.0411 48.8026C32.7967 47.8987 33.733 46.9588 34.4879 45.9102C34.847 45.3316 35.4603 44.9342 35.6383 44.3192C35.9244 43.5958 36.6107 43.3432 36.8611 42.7283C37.1474 42.0772 37.7606 41.6798 38.0474 41.1011C38.3701 40.4863 38.9834 40.0889 39.2701 39.5102C39.9512 38.172 41.1041 37.0876 41.6398 35.6045C42.181 35.2794 42.2496 34.4834 42.9363 34.3032C43.1135 33.5434 43.545 32.9649 43.9401 32.3501C44.5149 31.4823 44.7632 30.4331 45.5195 29.674C45.7356 29.4571 45.7698 29.059 45.9845 28.5526C44.7936 29.2389 43.7468 29.7807 42.5196 30.4308C42.3748 30.4306 41.9766 30.394 41.542 30.3212C41.3266 30.6828 41.1833 30.9722 41.0399 31.2615C39.8123 31.8392 38.7316 32.8513 37.1757 32.8859C37.2512 33.5373 36.5281 33.6813 36.3131 34.1153C34.7233 34.6203 33.5705 35.7047 32.0548 36.5716C32.0548 36.5716 31.8014 36.5351 31.5842 36.5349C31.0066 36.8238 30.7926 37.4749 30.0696 37.6189C29.5273 37.7269 29.0228 38.1607 28.663 38.5945C28.2312 39.1007 27.6539 39.462 27.148 39.6062C26.4977 39.8226 26.247 40.3652 25.7057 40.6903C25.561 40.6901 25.3075 40.6537 25.018 40.6534C24.1547 41.7381 22.9642 42.4967 21.8471 43.4726C21.63 43.4724 21.4125 43.3998 21.123 43.3995C20.7988 43.7248 20.5108 44.014 20.1146 44.4116C20.0772 44.1583 20.0765 44.0136 20.0391 43.7602C19.5713 44.3025 19.0286 44.3382 18.3766 44.1927C18.3035 44.0479 18.3028 43.9032 18.2657 43.7222C17.2525 43.7211 16.2029 43.6839 15.2621 43.6829C15.0796 43.357 14.9334 43.0674 14.7509 42.7415C14.7866 42.633 14.8579 42.4159 14.8933 42.235C14.8205 42.1626 14.7478 42.0901 14.6751 42.0177C14.5307 42.0899 14.3863 42.1621 14.1335 42.2704C13.5157 41.727 13.4399 41.0032 13.4725 40.2433C13.8679 39.7009 13.8679 39.7009 13.5742 38.8321C13.4672 39.1577 13.4679 39.3024 13.3602 39.4832C13.2515 39.4469 13.1424 39.3383 12.9609 39.2295C13.1406 38.9764 13.2844 38.7594 13.4641 38.5063C13.283 38.4699 13.1383 38.4698 13.0659 38.4698C12.917 37.6011 12.7681 36.7325 12.6188 35.7915C12.6908 35.7192 12.8349 35.5746 13.0509 35.3577C12.8338 35.3575 12.7251 35.3212 12.544 35.2848C12.6156 35.1401 12.6873 34.9954 12.795 34.8146C12.6496 34.6697 12.5041 34.5248 12.3587 34.3799C12.3573 34.0904 12.3567 33.9457 12.3556 33.7286C12.7535 33.6928 13.1499 33.3675 13.5495 33.6936C13.4373 32.9336 12.8594 33.1502 12.2441 33.1133C12.4242 32.9326 12.5678 32.7156 12.7119 32.571C12.564 31.9195 12.5245 31.2319 11.9791 30.6885C11.5064 30.2176 11.7564 29.5303 12.0428 28.8793C11.8617 28.8429 11.753 28.8066 11.5358 28.8064C11.6795 28.5894 11.7872 28.4085 11.9669 28.1554C11.9306 28.1192 11.8579 28.0468 11.6037 27.8656C11.5293 27.4313 11.5262 26.7799 11.3063 26.2007C10.9406 25.4042 11.371 24.6086 11.0054 23.8121C10.6764 23.1242 10.5638 22.2918 10.5236 21.4594C10.482 20.3376 10.151 19.2155 9.9283 18.0573C9.71222 18.2742 9.56816 18.4188 9.3881 18.5995C9.46116 18.7443 9.49825 18.9254 9.60803 19.1788C9.35489 19.2147 9.13811 19.2869 8.92133 19.359C8.81468 19.757 8.67195 20.191 8.63767 20.589C8.56704 20.9508 8.27927 21.3124 8.64288 21.6746C8.17366 21.9274 8.24852 22.4341 8.2506 22.8684C8.10585 22.8682 8.0335 22.8682 7.96113 22.8681C7.96876 24.4603 7.50535 25.9434 6.9333 27.3903C6.93573 27.8969 6.93823 28.4036 6.97702 28.9464C6.83297 29.091 6.68891 29.2356 6.65289 29.2718C6.54797 30.0316 6.40638 30.6827 6.33748 31.4064C6.01128 31.2975 5.83015 31.2612 5.50395 31.1523C5.36128 31.5863 5.29093 32.0204 5.18428 32.4184C5.51083 32.5996 5.76506 32.7809 6.05525 32.9259C5.879 33.9028 5.70242 34.8073 5.45449 35.9288C5.12655 35.458 5.26988 35.1687 5.23213 34.843C4.58146 34.987 4.94576 35.4941 4.83876 35.8196C4.658 35.8556 4.51325 35.8554 4.15172 35.9274C4.29751 36.1447 4.40728 36.3981 4.55307 36.6154C4.48069 36.6153 4.33588 36.6151 4.26351 36.6151C4.44462 36.6514 4.66216 36.724 4.87963 36.7966C4.77297 37.1946 4.66593 37.5201 4.52257 37.8095C4.34181 37.8455 4.19709 37.8454 4.05234 37.8452C4.05303 37.99 4.01732 38.0984 4.05438 38.2794C4.34491 38.4968 4.70785 38.7143 5.03475 38.968C4.71514 40.2342 4.39515 41.428 4.07519 42.6218C4.00282 42.6217 4.00286 42.6217 3.93048 42.6217C3.92979 42.4769 3.8931 42.3684 3.85535 42.0426C3.46024 42.6574 3.13682 43.1275 2.74137 43.6698C2.26972 43.416 1.79811 43.1623 1.14501 42.7997C1.14501 42.7997 0.819483 42.8356 0.493973 42.8714C0.811849 41.2434 0.804199 39.6512 0.9053 38.0953C1.00363 35.9604 1.50015 33.862 1.74322 31.7273C1.98595 29.5202 2.55458 27.3496 2.94206 25.1426C3.18929 23.8763 3.36416 22.61 3.64775 21.38C4.0013 19.6434 4.31849 17.8706 4.85314 16.1704C5.06679 15.4469 4.99061 14.6507 5.34866 13.855C5.6714 13.2401 5.63116 12.4077 5.77244 11.6842C6.05291 9.80276 6.47815 7.92153 6.57752 6.00375C6.64399 4.77348 6.89124 3.50724 7.06541 2.09615C7.35352 1.80695 7.74968 1.4093 8.25387 0.903211C8.54476 1.193 8.94368 1.37435 8.98282 1.98956C9.27127 1.77274 9.55971 1.5559 9.77579 1.33901C11.0439 1.666 11.9885 2.46307 12.8986 3.5858C12.8633 3.76669 12.8287 4.09239 12.7228 4.63507C12.7231 4.70745 12.5437 5.03295 12.365 5.50319C12.8003 5.72076 13.0905 5.86573 13.4167 5.97463C13.5282 6.58991 13.6397 7.20528 13.6788 7.82049C13.7176 8.36333 14.2627 8.83429 13.5778 9.37638C13.8673 9.37668 13.9396 9.3768 14.1567 9.37702C13.8704 10.0281 14.7417 10.608 14.0934 11.2586C14.2392 11.4759 14.3846 11.6207 14.5304 11.838C14.4947 11.9465 14.3867 12.055 14.351 12.1635C15.0824 13.7565 15.1634 15.5659 15.3889 17.3031C15.4616 17.3755 15.6067 17.448 15.6434 17.5566C15.7542 18.0271 16.0465 18.6064 15.9035 18.9682C15.6531 19.5831 16.3073 20.1628 15.6947 20.7049C15.9492 20.9585 16.1314 21.212 16.3495 21.4293C16.2778 21.574 16.2062 21.7187 16.1349 21.9358C16.244 22.0444 16.3894 22.1893 16.5352 22.4066C16.5373 22.8408 16.5036 23.3836 16.5068 24.0349C16.1806 23.926 15.9631 23.8534 15.7093 23.7446C15.7837 24.1789 15.8578 24.5408 15.9319 24.9028C16.113 24.9391 16.2217 24.9755 16.5116 25.0481C16.4766 25.3014 16.3329 25.5184 16.3703 25.7717C16.3714 25.9888 16.5169 26.1338 16.5903 26.351C16.735 26.3511 16.9161 26.3875 17.206 26.4602C17.135 26.7496 17.0996 26.9305 16.993 27.3284C16.9209 27.4007 16.6682 27.509 16.3434 27.6896C16.4525 27.7983 16.5979 27.9431 16.7433 28.088C16.601 28.5945 16.458 28.9562 16.8223 29.4632C17.4054 30.3323 17.5918 31.4543 17.9225 32.504C17.9956 32.6489 17.8159 32.902 17.7442 33.0466C17.8889 33.0468 17.9976 33.0831 17.9976 33.0831C18.0368 33.6983 18.1479 34.2412 18.1143 34.784C18.0808 35.3267 17.83 35.8692 17.616 36.5204C17.7622 36.81 18.0149 36.7017 18.4461 36.0508C18.3768 36.7021 18.3415 36.883 18.3066 37.1363C18.1258 37.1723 17.9454 37.2807 17.5479 37.3888C17.9468 37.5702 18.2006 37.679 18.4544 37.7878C18.4911 37.8964 18.4918 38.0412 18.5289 38.2221C18.7096 38.1861 19.0358 38.295 19.0715 38.1865C19.431 37.6802 20.0092 37.5361 20.5151 37.3919C21.0536 36.4878 22.0658 36.2717 22.8228 35.6573C23.6158 35.0068 24.5175 34.3925 25.4199 33.9231C26.3223 33.4536 27.2248 32.9841 27.9818 32.3697C28.7748 31.7192 29.7135 31.2859 30.5069 30.7078C31.3362 30.0935 32.2747 29.5879 33.2135 29.1546C34.1162 28.7575 34.8729 28.0707 35.7756 27.6736C36.7144 27.2404 37.6528 26.7347 38.4822 26.1204C39.3479 25.5423 40.2873 25.2538 41.117 24.7118C41.9831 24.2061 42.8492 23.7004 43.7156 23.2671C44.618 22.7976 45.5932 22.4006 46.532 21.9673C47.3984 21.534 48.3371 21.1007 49.2755 20.5951C49.6374 20.5955 50.0717 20.5959 50.5059 20.5963C50.5066 20.7411 50.5433 20.8497 50.544 20.9944C50.9444 21.4653 51.3045 21.1038 51.6297 20.9956C52.138 21.358 52.61 21.6841 53.1183 22.0465C53.1187 22.1189 53.1194 22.2637 53.1561 22.3723C54.1333 22.4095 54.2095 23.2056 54.3213 23.8933C54.4332 24.5809 54.3643 25.3046 54.3677 26.0283C53.5768 27.1131 53.5121 28.7052 52.1408 29.4999C52.2502 29.6809 52.3593 29.7897 52.4688 29.9707C52.0016 30.6578 51.4621 31.3447 50.9233 32.1764C50.9597 32.2126 51.0327 32.3575 51.0694 32.4661C50.6747 33.1532 50.3163 33.8766 49.8851 34.5275C49.7054 34.7806 49.4901 35.1422 49.2369 35.1782C48.5862 35.3222 48.2261 35.6837 48.0845 36.3349C48.0135 36.6244 47.6891 36.8773 47.6184 37.2391C47.8705 36.9861 48.0866 36.7692 48.3747 36.48C48.4118 36.661 48.5208 36.7696 48.4848 36.8058C47.9442 37.2756 47.6579 37.9267 47.3351 38.5415C47.0844 39.0841 46.725 39.5903 46.2551 39.6984C45.6768 39.8425 45.5345 40.349 44.8845 40.6378C45.2467 40.7105 45.319 40.7106 45.4278 40.7469C45.2152 41.6875 45.0722 42.0493 44.3859 42.3019C43.844 42.4822 43.6652 42.9524 43.4138 43.3502C43.7023 43.1334 43.9907 42.9166 44.4953 42.4829C43.9925 43.2785 43.633 43.7847 43.1302 44.5803C45.3697 43.7141 47.5402 43.5716 49.637 43.1396C51.8061 42.7076 52.9277 42.6726 54.7381 42.8916C55.064 42.9281 55.4251 42.7837 55.7506 42.7478C56.3296 42.7484 56.9093 42.8939 57.4883 42.8945C57.9949 42.895 58.5369 42.7146 59.0799 42.7514C60.4553 42.8252 61.8682 43.1523 63.2433 43.1538C63.388 43.1539 63.5338 43.3711 63.6792 43.516C63.896 43.4438 64.1488 43.3356 64.4023 43.372C65.5249 43.5541 66.6476 43.7363 67.735 44.0993C68.6049 44.3897 69.474 44.5353 70.3442 44.8981C71.1781 45.2246 71.8322 45.8042 72.5941 46.2031C73.3923 46.6381 73.8667 47.471 74.1968 48.376C72.8944 48.447 73.0096 49.8583 72.253 50.5451C72.6135 50.256 72.9377 49.9307 73.2982 49.6416C73.3345 49.6778 73.4072 49.7502 73.4436 49.7865C73.2275 50.0033 73.0114 50.2202 72.7953 50.4371C72.6153 50.6179 72.3992 50.8348 72.2191 51.0155C72.003 51.2324 71.6782 51.413 71.7887 51.8112C71.3898 51.6298 71.4649 52.2089 71.2478 52.2087C70.8135 52.2082 71.1782 52.7876 70.7803 52.8234C70.5271 52.8593 70.3108 53.0038 70.0943 53.1483C69.8419 53.329 69.6621 53.5821 69.4461 53.799C69.1922 53.6902 69.0471 53.6176 68.8293 53.4727C68.9391 53.7261 69.0121 53.8709 69.1215 54.0519C69.0135 54.1604 68.9419 54.3051 68.7258 54.522C68.3639 54.5216 67.9297 54.5211 67.4955 54.5207C67.3154 54.7014 67.2073 54.8098 67.0996 54.9907C67.209 55.1717 67.2461 55.3527 67.3555 55.5338C67.1017 55.425 66.9206 55.3886 66.7031 55.316C66.6311 55.3883 66.5591 55.4606 66.4871 55.5329C66.5605 55.7501 66.6335 55.8948 66.7069 56.112C65.9489 56.5093 65.1902 56.7618 64.578 57.3763C64.2899 57.6655 63.82 57.7737 63.3864 57.918C63.3864 57.918 63.3868 57.9903 63.3511 58.0988C62.7015 58.46 62.0882 58.8575 61.2942 59.2909C61.3285 58.8929 61.3634 58.6396 61.3984 58.3863C61.0379 58.6754 60.8578 58.8562 60.6791 59.3264C60.6068 59.3263 60.6068 59.3263 60.5344 59.3263C60.4621 59.3262 60.3172 59.326 60.2449 59.3259C60.2452 59.3983 60.282 59.507 60.2463 59.6155C60.2467 59.6879 60.2467 59.6878 60.247 59.7602C59.9222 59.9408 59.561 60.0851 59.0918 60.338C58.8372 60.0844 58.5464 59.7946 58.2191 59.4686C58.1468 59.4685 58.1108 59.5047 58.0024 59.5408C58.0394 59.7218 58.1129 59.9389 58.1506 60.2646C58.2593 60.3009 58.4404 60.3373 58.839 60.4463C58.2617 60.8075 57.7925 61.0603 57.3597 61.3494C57.2146 61.2768 57.1055 61.1682 56.9967 61.1319C56.8198 61.964 56.2052 62.072 55.5541 62.1437C55.337 62.1434 55.1566 62.2518 54.9398 62.3239C54.5066 62.5406 54.1097 62.7935 53.6045 63.0824C53.6045 63.0824 53.4595 63.01 53.2417 62.865C53.0616 63.0457 52.8818 63.2988 52.5217 63.6603C52.6301 63.6242 52.4853 63.6241 52.377 63.6602C51.5466 64.0574 50.7889 64.527 49.9582 64.8518C49.8498 64.8879 49.8141 64.9964 49.7417 64.9963C49.2365 65.2853 48.5474 64.9589 48.1156 65.4651C47.7558 65.8989 47.1404 65.8621 46.7072 66.0788C46.238 66.3316 45.6961 66.5119 45.1545 66.7647C45.0101 66.8369 44.7929 66.8366 44.6849 66.9451C44.5405 67.0173 44.4328 67.1982 44.2167 67.415C43.9996 67.4148 43.7098 67.3422 43.5287 67.3058C43.2766 67.5588 43.0605 67.7757 42.8444 67.9926C42.0483 67.9918 41.2159 67.9548 40.604 68.6417C40.5319 68.714 40.4599 68.7862 40.3875 68.7862C39.1568 68.7125 38.2925 69.5801 37.1719 69.8322C36.0873 70.0482 35.0769 70.6262 33.9927 70.9146C32.5833 71.3112 31.1372 71.5991 29.6915 71.9595C29.5831 71.9956 29.4383 71.9954 29.2572 71.959C28.0614 71.6321 26.8654 71.2328 25.778 70.8698C25.4134 70.2904 25.0854 69.8197 24.6121 69.204C24.647 68.9508 24.7897 68.5166 24.8963 68.1187C25.6547 67.7938 26.3043 67.4326 27.063 67.1801C27.7854 66.8913 28.5082 66.675 29.3036 66.5311C30.9664 66.171 32.5191 65.485 34.1093 65.0524C35.0851 64.8001 35.9509 64.2221 37.0005 64.2594C38.4438 63.3924 40.0703 62.996 41.6597 62.4187C42.346 62.1661 43.0691 62.0221 43.6824 61.6247C44.2596 61.2634 44.91 61.047 45.5236 60.7219C47.4732 59.7831 49.3867 58.8804 51.3363 57.9416C52.3471 57.436 53.3579 56.9305 54.3324 56.3887C55.3068 55.8469 56.2446 55.1965 57.2917 54.7272C59.0246 53.8605 60.4662 52.6317 62.1262 51.6926C63.0287 51.2231 63.7486 50.4277 64.5053 49.741C65.3724 49.4524 66.0565 48.7655 66.9929 47.8256Z" fill="white"/>
</svg>
