<svg width="60" height="59" viewBox="0 0 60 59" fill="none" xmlns="http://www.w3.org/2000/svg">
<path opacity="0.1" d="M44.839 8.52502L27.5915 3.90356C26.7106 3.66752 25.77 4.21058 25.5339 5.0915C25.2979 5.97242 25.8409 6.91302 26.7219 7.14906L34.2792 9.17405L36.3694 14.3556C36.8333 15.4986 36.8888 15.6625 38.2334 16.0228L46.8571 18.3335C47.738 18.5696 48.5647 18.9153 49.3372 19.3707C49.3181 19.8129 49.2526 20.2426 49.1346 20.683L48.9172 21.4944C48.6812 22.3753 49.2242 23.3159 50.1051 23.552C50.986 23.788 51.9266 23.2449 52.1627 22.364L52.3863 21.5295C53.8556 15.8606 50.4954 10.0407 44.839 8.52502Z" fill="white"/>
<path d="M52.2635 21.7926C51.4593 20.8068 50.4662 19.9693 49.3183 19.3387C48.569 18.8895 47.7192 18.5375 46.8383 18.3015L38.2145 15.9907C36.87 15.6305 36.8145 15.4665 36.3505 14.3235L34.2604 9.142C33.2878 6.74458 32.4347 5.19913 28.656 4.18664L23.2777 2.74554C17.6213 1.2299 11.8013 4.59006 10.2857 10.2465L3.35353 36.1177C1.83789 41.7742 5.19805 47.5941 10.8545 49.1098L36.7257 56.042C42.3822 57.5576 48.2021 54.1974 49.7178 48.541L54.3392 31.2935C55.2648 27.8394 54.3862 24.3491 52.2635 21.7926ZM32.9185 40.1139L22.1157 37.2193C21.2116 36.977 20.6855 36.0658 20.9277 35.1617C21.1638 34.2808 22.0812 33.7315 22.9853 33.9738L33.765 36.8622C34.6459 37.0982 35.1889 38.0388 34.9529 38.9198C34.7106 39.8239 33.7994 40.3499 32.9185 40.1139Z" fill="#EAA0B1"/>
</svg>
