<svg width="283" height="1172" viewBox="0 0 283 1172" fill="none" xmlns="http://www.w3.org/2000/svg">
<path d="M263.999 2C150.333 16.6667 -54.3059 55.1595 16.4992 116.5C117.5 204 148.718 262.037 117.499 379.5C77.4985 530 206.165 616.333 273.499 678.5" stroke="#EBEEF2" stroke-width="3"/>
<path d="M263.999 2C150.333 16.6667 -54.3059 55.1595 16.4992 116.5C117.5 204 148.718 262.037 117.499 379.5C77.4985 530 206.165 616.333 273.499 678.5" stroke="#EBEEF2" stroke-width="3"/>
<path d="M252.405 29C189.071 43.5 69.6047 91 98.4047 165C134.405 257.5 213.202 305.027 187.904 431.5C148.5 628.5 280.904 692 280.904 862.5" stroke="#EBEEF2" stroke-width="3"/>
<circle cx="172" cy="295" r="7" fill="#DCDEE4"/>
<circle cx="189" cy="49" r="6" fill="#DCDEE4"/>
<circle cx="192" cy="362" r="7" fill="#DCDEE4"/>
<circle cx="48" cy="50" r="7" fill="#EBEEF2"/>
<circle cx="9" cy="75" r="7" fill="#EBEEF2"/>
<circle cx="118" cy="489" r="7" fill="#EBEEF2"/>
<path d="M252.405 338C189.071 352.5 69.6047 400 98.4047 474C134.405 566.5 213.202 614.027 187.904 740.5C148.5 937.5 280.904 1001 280.904 1171.5" stroke="#DCDEE4" stroke-width="2"/>
</svg>
