<svg width="705" height="526" viewBox="0 0 705 526" fill="none" xmlns="http://www.w3.org/2000/svg">
<path d="M301.487 500.434C294.673 494.735 290.098 486.813 288.576 478.063C285.595 460.908 280.376 431.155 276.55 411.062C269.751 375.352 259.272 341.155 259.272 341.155C254.27 324.492 241.866 312.505 225.095 314.606C208.325 316.707 208.744 331.785 210.846 348.553L224.967 458.654L230.114 526.001H332.064L301.487 500.434Z" fill="#F6BF7C"/>
<path opacity="0.7" d="M270.334 525.993L227.805 489.574L230.124 525.993H270.334Z" fill="#C97C1D"/>
<path opacity="0.7" d="M241.013 484.822V449.039H283.486L280.521 431.031L209.824 436.087L241.013 484.822Z" fill="#C97C1D"/>
<path d="M204.131 267.266C228.198 267.266 247.708 247.767 247.708 223.715C247.708 199.662 228.198 180.164 204.131 180.164C180.065 180.164 160.555 199.662 160.555 223.715C160.555 247.767 180.065 267.266 204.131 267.266Z" fill="#ABDAF7"/>
<path opacity="0.6" d="M207.392 259.943C188.053 258.824 171.154 244.825 167.199 224.957C165.024 214.041 167.15 203.262 172.386 194.375C163.091 204.277 158.548 218.356 161.399 232.685C165.83 254.968 186.538 269.861 208.713 267.494C207.481 265.192 207.078 262.543 207.392 259.943Z" fill="#6E9EF9"/>
<path d="M285.587 391.26C279.594 407.424 216.879 397.418 216.879 397.418C216.879 397.418 231.555 459.178 215.88 466.375C200.205 473.572 162.911 422.18 162.911 422.18C162.911 422.18 129.613 476.22 113.439 470.231C97.2646 464.242 107.277 401.564 107.277 401.564C107.277 401.564 45.48 416.231 38.279 400.565C31.0861 384.9 82.5 347.628 82.5 347.628C82.5 347.628 28.428 314.349 34.4208 298.185C40.4135 282.02 103.128 292.026 103.128 292.026C103.128 292.026 88.4526 230.266 104.127 223.069C119.802 215.881 157.096 267.264 157.096 267.264C157.096 267.264 190.395 213.224 206.569 219.213C222.743 225.203 212.731 287.881 212.731 287.881C212.731 287.881 274.527 273.213 281.728 288.879C288.929 304.544 237.507 341.816 237.507 341.816C237.507 341.816 291.579 375.095 285.587 391.26Z" fill="#83BF6E"/>
<path d="M226.219 173.837L254.266 149.252L218.945 137.273L226.219 173.837Z" fill="url(#paint0_linear_3139_183681)"/>
<path d="M344.365 509.021C343.479 509.021 342.754 508.297 342.754 507.411V319.176C342.754 318.291 343.479 317.566 344.365 317.566C345.251 317.566 345.976 318.291 345.976 319.176V507.419C345.976 508.305 345.251 509.021 344.365 509.021Z" fill="#FADD6F"/>
<path d="M232.345 454.846C224.677 443.56 221.358 439.615 200.625 419.707C172.514 392.723 167.286 388.32 146.489 373.137C134.036 364.049 116.742 364.637 105.369 375.045C89.2912 389.761 93.52 410.474 105.425 422.372L150.999 463.596L80.5114 458.517L53.8418 485.814L15.9922 523.642C15.9922 523.642 44.4177 519.013 61.3167 516.397C69.0333 515.205 76.8706 514.932 84.6516 515.592L188.414 524.374C211.169 524.374 228.173 515.237 235.857 502.591C242.277 492.005 244.323 472.475 232.345 454.846Z" fill="#F6BF7C"/>
<path d="M702.602 39.0992H1.78284C0.89681 39.0992 0.171875 38.3747 0.171875 37.4892V1.61001C0.171875 0.724507 0.89681 0 1.78284 0H702.602C703.488 0 704.213 0.724507 704.213 1.61001V37.4892C704.213 38.3747 703.488 39.0992 702.602 39.0992ZM3.39381 35.8792H700.991V3.22003H3.39381V35.8792Z" fill="#ABDAF7"/>
<path d="M81.4676 123.995H15.9899C15.1038 123.995 14.3789 123.27 14.3789 122.385V56.946C14.3789 56.0604 15.1038 55.3359 15.9899 55.3359H81.4676C82.3536 55.3359 83.0786 56.0604 83.0786 56.946V122.385C83.0786 123.279 82.3536 123.995 81.4676 123.995ZM17.6008 120.775H79.8566V58.556H17.6008V120.775Z" fill="#ABDAF7"/>
<path d="M260.93 82.3763H110.505C109.619 82.3763 108.895 81.6518 108.895 80.7663C108.895 79.8808 109.619 79.1562 110.505 79.1562H260.93C261.816 79.1562 262.54 79.8808 262.54 80.7663C262.54 81.6518 261.824 82.3763 260.93 82.3763Z" fill="#ABDAF7"/>
<path d="M307.361 299.696C306.475 299.696 305.75 298.971 305.75 298.086V37.4889C305.75 36.6034 306.475 35.8789 307.361 35.8789C308.247 35.8789 308.972 36.6034 308.972 37.4889V298.086C308.972 298.971 308.255 299.696 307.361 299.696Z" fill="#ABDAF7"/>
<path d="M358.517 82.3763H307.361C306.475 82.3763 305.75 81.6518 305.75 80.7663C305.75 79.8808 306.475 79.1562 307.361 79.1562H358.517C359.403 79.1562 360.128 79.8808 360.128 80.7663C360.128 81.6518 359.411 82.3763 358.517 82.3763Z" fill="#ABDAF7"/>
<path d="M511.173 82.3763H460.017C459.131 82.3763 458.406 81.6518 458.406 80.7663C458.406 79.8808 459.131 79.1562 460.017 79.1562H511.173C512.06 79.1562 512.784 79.8808 512.784 80.7663C512.784 81.6518 512.068 82.3763 511.173 82.3763Z" fill="#ABDAF7"/>
<path d="M664.615 165.318H613.459C612.573 165.318 611.848 164.593 611.848 163.708C611.848 162.822 612.573 162.098 613.459 162.098H664.615C665.501 162.098 666.226 162.822 666.226 163.708C666.226 164.593 665.501 165.318 664.615 165.318Z" fill="#ABDAF7"/>
<path d="M661.711 82.3763H534.654C533.768 82.3763 533.043 81.6518 533.043 80.7663C533.043 79.8808 533.768 79.1562 534.654 79.1562H661.719C662.605 79.1562 663.33 79.8808 663.33 80.7663C663.33 81.6518 662.605 82.3763 661.711 82.3763Z" fill="#ABDAF7"/>
<path d="M50.5568 412.87C49.9769 413.007 50.2588 413.272 50.1863 413.361C51.1368 413.007 50.5085 412.797 50.5568 412.87Z" fill="#FADD6F"/>
<path d="M59.6125 409.056L59.5078 409.241C59.9186 408.983 60.2972 408.661 60.6838 408.355C60.3214 408.589 59.9831 408.855 59.6125 409.056Z" fill="#FADD6F"/>
<path d="M67.7247 404.943C67.2011 404.911 66.5084 405.338 65.7432 405.853C65.3646 406.11 64.9699 406.392 64.5672 406.642C64.1564 406.867 63.7456 407.06 63.3509 407.189H63.0529L62.5938 407.922C63.0368 407.696 63.4959 407.439 63.9711 407.173L64.6799 406.77C64.9055 406.617 65.131 406.473 65.3566 406.328C66.2506 405.74 67.0803 405.217 67.7247 404.943Z" fill="#FADD6F"/>
<path d="M72.5142 403.347C72.1356 403.331 73.2874 402.59 71.5234 403.934C71.6281 403.894 71.6604 403.886 71.7248 403.862C71.8859 403.749 72.1195 403.596 72.5142 403.347Z" fill="#FADD6F"/>
<path d="M71.725 403.871C70.9276 404.426 72.3614 403.67 71.725 403.871V403.871Z" fill="#FADD6F"/>
<path d="M75.3079 401.159L74.4219 402.117C74.7119 402.061 75.6301 401.368 75.3482 401.706C76.3228 400.797 76.0248 400.861 75.3079 401.159Z" fill="#FADD6F"/>
<path d="M76.0062 400.07L75.5391 400.545C75.6679 400.521 75.8129 400.424 76.0062 400.07Z" fill="#FADD6F"/>
<path d="M74.5469 401.561L75.5376 400.547C75.3362 400.587 75.2074 400.45 75.0704 400.998C75.0624 400.796 74.9416 401.094 74.5469 401.561Z" fill="#FADD6F"/>
<path d="M73.8615 401.972C73.1929 402.278 72.3875 402.729 73.3299 401.852C71.3645 403.276 71.88 403.413 73.8615 401.972Z" fill="#FADD6F"/>
<path d="M67.8188 404.203L66.9166 404.525L66.3125 405.097C66.6186 404.807 67.9637 404.332 67.8188 404.203Z" fill="#FADD6F"/>
<path d="M81.5786 396.182C81.5544 396.037 81.0389 396.239 80.8617 396.19L80.2656 396.931C80.6684 396.665 81.4014 396.094 81.5786 396.182Z" fill="#FADD6F"/>
<path d="M80.8512 396.193L81.7453 395.09C80.8029 395.919 80.7062 396.152 80.8512 396.193Z" fill="#FADD6F"/>
<path d="M75.7885 399.426L74.25 401.205L76.1268 399.152L75.7885 399.426Z" fill="#FADD6F"/>
<path d="M85.3698 392.309L85.0234 393.09L85.692 391.754L85.3698 392.309Z" fill="#FADD6F"/>
<path d="M87.6653 389.542C87.472 390.153 88.4869 389.155 88.205 389.735C88.793 388.946 89.1635 388.165 89.4938 387.473C89.0669 388.157 88.5111 388.809 87.6653 389.542Z" fill="#FADD6F"/>
<path d="M90.0158 386.297C89.8224 386.651 89.6936 387.07 89.4922 387.472C89.7258 387.118 89.8788 386.715 90.0158 386.297Z" fill="#FADD6F"/>
<path d="M83.4531 393.408C83.582 393.375 83.8639 393.359 84.468 392.836L83.8398 393.005C83.7189 393.126 83.5901 393.263 83.4531 393.408Z" fill="#FADD6F"/>
<path d="M83.8164 393.01L83.8406 393.002C84.2594 392.567 84.5494 392.269 84.6702 392.141C84.5655 392.253 84.3078 392.511 83.8164 393.01Z" fill="#FADD6F"/>
<path d="M83.3594 393.504C83.3918 393.463 83.4241 393.439 83.4565 393.398C83.3918 393.423 83.3675 393.431 83.3594 393.504Z" fill="#FADD6F"/>
<path d="M78.7969 397.327C79.2802 396.627 80.3917 395.323 78.9821 396.216C78.7002 396.788 79.5138 396.273 78.7969 397.327Z" fill="#FADD6F"/>
<path d="M82.5798 393.703C82.2174 394.041 81.8791 394.403 81.4844 394.709C81.573 394.758 81.8629 394.669 81.6294 395.015C81.9838 394.605 82.2657 394.138 82.5798 393.703Z" fill="#FADD6F"/>
<path d="M82.9931 393.102L82.5742 393.705L82.977 393.327L82.9931 393.102Z" fill="#FADD6F"/>
<path d="M88.1986 388.147C88.4725 387.543 88.9558 387.02 89.3746 386.336C88.843 387.004 88.2147 387.64 87.6992 388.3C87.7153 388.453 87.6267 388.864 88.1986 388.147Z" fill="#FADD6F"/>
<path d="M86.1205 390.558C86.1446 390.518 86.1767 390.47 86.1928 390.438C86.1205 390.486 86.0644 390.534 86.1205 390.558Z" fill="#FADD6F"/>
<path d="M93.6829 379.77C93.6428 379.794 93.6026 379.818 93.5625 379.85C93.5786 379.866 93.5866 379.882 93.5946 379.906L93.6829 379.77Z" fill="#FADD6F"/>
<path d="M87.5626 388.367C87.1034 388.825 86.9343 389.172 86.7812 389.526C87.0551 389.131 87.3612 388.721 87.6995 388.294C87.6995 388.23 87.6753 388.198 87.5626 388.367Z" fill="#FADD6F"/>
<path d="M91.1568 384.398C90.9071 384.632 90.6332 384.914 90.3594 385.203C90.6332 385.002 91.1568 384.551 91.1568 384.398Z" fill="#FADD6F"/>
<path d="M86.3995 390.323C86.3835 390.355 86.3676 390.379 86.3516 390.411C86.5434 390.291 86.4955 390.291 86.3995 390.323Z" fill="#FADD6F"/>
<path d="M86.4008 390.324C86.57 390.034 86.6747 389.777 86.7794 389.527C86.5539 389.849 86.3525 390.155 86.1914 390.429C86.2639 390.389 86.3364 390.348 86.4008 390.324Z" fill="#FADD6F"/>
<path d="M92.94 376.668C93.1897 376.917 92.5856 378.479 91.5707 379.534C91.0632 380.862 92.4164 380.636 93.5602 379.848C93.4636 379.743 93.3508 379.67 93.9388 378.318C93.5199 378.68 91.9332 380.902 92.3117 379.695C93.1494 377.956 93.2139 378.399 93.8421 377.666C93.4555 377.908 93.673 377.328 93.8019 376.652C93.9468 375.984 94.0838 375.267 93.7374 375.323L93.1736 376.917C93.0769 376.901 93.2219 376.289 92.94 376.668Z" fill="#FADD6F"/>
<path d="M92.0991 382.249C92.0105 382.434 91.8977 382.595 91.793 382.772C92.2521 382.241 92.5662 381.863 93.267 381.211C93.6537 380.253 93.6617 380.019 93.6053 379.898L92.0346 382.442C92.0588 382.386 92.0749 382.313 92.0991 382.249Z" fill="#FADD6F"/>
<path d="M90.2354 385.011C90.2273 384.424 90.9281 383.152 90.1145 383.667C89.1238 385.124 89.6474 384.85 89.1641 385.8C90.7348 383.401 88.8499 386.589 90.1951 385.003C89.9212 385.502 89.6393 385.929 89.3815 386.332C89.7118 385.929 90.042 385.551 90.3642 385.205C90.3401 385.221 90.324 385.229 90.3079 385.245L90.2998 385.253V385.245C90.1951 385.325 90.1467 385.341 90.2515 385.237C90.2515 385.229 90.2756 385.197 90.2837 385.18C90.2434 385.156 90.2354 385.084 90.2354 385.011C90.775 384.367 90.3884 384.955 90.2676 385.197C90.2756 385.213 90.2756 385.245 90.2917 385.253L90.2998 385.245L91.7899 382.773C91.4033 383.248 90.9764 383.884 90.2354 385.011Z" fill="#FADD6F"/>
<path d="M79.5781 394.647C79.6664 394.606 79.6744 394.63 79.6985 394.647C79.8029 394.494 79.835 394.422 79.5781 394.647Z" fill="#FADD6F"/>
<path d="M80.5805 394.018C80.4596 394.195 80.4355 394.405 79.92 394.831C79.4206 395.145 79.8072 394.71 79.7105 394.646C79.4769 394.984 78.8406 395.781 79.8877 395.049L80.0005 394.879C80.4596 394.533 81.0476 394.203 81.4745 393.946C81.9015 393.68 82.1995 393.535 82.1512 393.624C81.692 393.64 81.3618 393.728 80.5805 394.018Z" fill="#FADD6F"/>
<path d="M85.5764 389.64L86.9377 387.691L85.9469 388.432L86.1242 388.496C85.222 389.503 85.5764 389.422 85.5764 389.64Z" fill="#FADD6F"/>
<path d="M93.9766 379.623L94.1296 380.082L94.3874 378.625L93.9766 379.623Z" fill="#FADD6F"/>
<path d="M95.4531 376.873L95.6787 377.122L95.88 376.293L95.4531 376.873Z" fill="#FADD6F"/>
<path d="M154.241 289.108L154.016 288.496C154.104 288.786 154.177 288.971 154.241 289.108Z" fill="#FADD6F"/>
<path d="M154.68 293.778L154.84 293.89C154.744 293.674 154.68 293.586 154.68 293.778Z" fill="#FADD6F"/>
<path d="M94.0234 341.09C94.9417 341.629 95.9646 342.362 95.9244 341.983L95.6988 341.565C94.982 341.452 94.4584 341.275 94.0234 341.09Z" fill="#FADD6F"/>
<path d="M142.953 331.285C142.864 331.333 142.767 331.382 142.679 331.43C142.598 331.688 142.518 331.929 142.453 332.147C142.606 331.881 142.783 331.599 142.953 331.285Z" fill="#FADD6F"/>
<path d="M142.328 329.81C142.658 329.544 142.981 329.27 143.295 328.98C143.061 329.158 142.747 329.431 142.328 329.81Z" fill="#FADD6F"/>
<path d="M139.282 270.072C139.008 270.072 138.743 270.064 138.469 270.08C139.508 270.571 139.129 270.193 139.282 270.072Z" fill="#FADD6F"/>
<path d="M102.899 345.919C102.964 345.002 102.972 344.269 102.899 343.625C102.827 344.76 102.585 345.654 102.899 345.919Z" fill="#FADD6F"/>
<path d="M158.173 290.5C158.052 290.065 157.963 289.888 157.883 289.912C158.004 290.355 158.1 290.605 158.173 290.5Z" fill="#FADD6F"/>
<path d="M102.453 340.992C102.453 341.161 102.461 341.322 102.469 341.491C102.671 342.143 102.808 342.812 102.896 343.625C102.912 343.206 102.912 342.763 102.864 342.312C102.783 341.87 102.654 341.419 102.453 340.992Z" fill="#FADD6F"/>
<path d="M171.133 324.207C171.189 324.255 171.261 324.303 171.301 324.351C171.341 324.319 171.261 324.271 171.133 324.207Z" fill="#FADD6F"/>
<path d="M195.267 340.091C195.002 339.995 194.567 339.818 194.172 339.641C194.349 339.753 194.679 339.898 195.267 340.091Z" fill="#FADD6F"/>
<path d="M100.395 365.285C100.21 365.921 100.395 365.398 100.395 365.285V365.285Z" fill="#FADD6F"/>
<path d="M98.1077 367.896C98.1238 367.751 98.0996 367.638 98.0352 367.59C98.0916 367.678 98.1238 367.783 98.1077 367.896Z" fill="#FADD6F"/>
<path d="M98.1881 335.431C98.1801 335.415 98.1721 335.399 98.1641 335.383C98.1881 335.583 98.1881 335.551 98.1881 335.431Z" fill="#FADD6F"/>
<path d="M99.9375 366.187C100.05 365.962 100.171 365.696 100.292 365.406C100.227 365.535 100.123 365.768 99.9375 366.187Z" fill="#FADD6F"/>
<path d="M100.131 366.117C100.051 366.335 99.9863 366.504 99.9219 366.665C99.9541 366.761 100.01 366.697 100.131 366.117Z" fill="#FADD6F"/>
<path d="M100.652 364.395C100.539 364.757 100.418 365.095 100.289 365.409C100.354 365.288 100.386 365.248 100.386 365.28C100.45 365.095 100.523 364.837 100.652 364.395Z" fill="#FADD6F"/>
<path d="M128.652 294.527C128.668 294.568 128.685 294.608 128.693 294.656C129.152 295.099 128.983 294.882 128.652 294.527Z" fill="#FADD6F"/>
<path d="M111.139 339.785C111.107 339.785 111.091 339.801 111.066 339.801C111.099 339.801 111.131 339.809 111.164 339.809L111.139 339.785Z" fill="#FADD6F"/>
<path d="M113.395 339.512C112.445 339.954 111.889 339.906 111.164 339.818L111.913 340.824L113.395 339.512Z" fill="#FADD6F"/>
<path d="M150.083 278.902C150.277 279.377 150.47 279.836 150.599 280.335C149.262 279.055 148.642 277.992 149.061 279.336C149.31 279.224 149.64 279.457 150.011 279.868C150.357 280.294 150.704 280.93 151.066 281.55C151.453 282.154 151.711 282.83 152.009 283.305C152.299 283.788 152.58 284.094 152.862 284.046C152.935 284.376 152.943 284.73 152.967 285.068C152.895 284.794 152.822 284.77 152.75 284.497C152.79 285.503 153.08 285.777 153.442 286.115C153.62 286.284 153.829 286.469 154.014 286.775C154.175 287.081 154.32 287.507 154.417 288.143C154.522 289.029 154.498 289.657 154.24 289.093C154.457 289.721 154.594 290.365 154.771 291.009C154.82 291.581 154.618 291.46 154.562 290.896C154.755 291.878 154.788 292.893 154.868 293.899L154.836 293.875C155.053 294.302 155.295 295.292 155.384 295.783C155.206 296.564 155.279 295.388 155.134 295.59L155.351 297.304C155.037 297.98 154.82 296.556 154.884 295.396C154.312 296.169 154.377 296.507 154.489 297.087C154.586 297.658 154.683 298.496 154.2 300.138C154.216 299.607 154.208 299.075 154.216 298.544C153.853 299.019 153.724 299.566 153.563 300.202C153.394 300.838 153.233 301.579 152.911 302.416C153.169 302.054 154.425 299.035 154.417 300.878C154.248 301.378 154.127 302.046 154.159 303.068C153.773 303.004 153.668 303.97 153.434 305.161L152.951 304.96C152.806 306.264 153.048 306.224 153.08 307.037C152.661 308.446 152.162 308.623 151.743 308.848C150.953 311.054 152.846 307.488 152.089 310.176C151.711 311.086 151.404 311.859 151.163 312.72C150.929 313.581 150.688 314.491 150.373 315.642C149.681 316.85 150.172 315.296 149.85 315.699C149.826 316.133 149.794 316.56 149.737 316.987C149.6 317.252 149.528 317.115 149.487 317.043C149.197 318.049 149.922 317.333 149.367 318.878C149.689 319.539 147.16 321.527 146.741 323.588C146.37 323.95 146.58 323.225 146.33 323.258C145.331 325.85 145.436 325.447 144.671 327.637C144.212 328.096 143.744 328.547 143.269 328.973C144.413 328.088 143.752 329.818 142.931 331.267C143.422 331.018 143.825 330.776 144.075 330.599C143.591 331.332 143.06 332.04 142.496 332.733C142.198 332.894 142.286 332.588 142.423 332.129C142.327 332.29 142.238 332.435 142.174 332.555C141.36 333.063 141.521 332.507 141.787 331.855C142.077 331.71 142.367 331.557 142.657 331.412C142.858 330.728 142.971 330.068 142.657 329.971C142.601 330.132 142.431 330.406 142.222 330.672C142.27 330.495 142.278 330.366 142.19 330.39C142.093 330.414 142.013 330.688 141.819 331.066H141.022L141.086 331.324C140.24 331.984 139.371 332.564 138.452 333.071C136.962 334.81 135.52 336.629 131.96 338.15C132.717 337.434 131.92 337.434 131.807 336.951C132.959 337.104 134.441 335.735 136.133 334.938C135.23 335.357 135.311 335.027 135.504 334.85C134.586 335.502 133.611 336.098 132.596 336.653C132.524 336.242 131.815 336.629 130.913 336.75C131.823 337.321 128.625 338.054 127.288 338.593C127.135 338.343 127.409 338.021 129.085 337.627C127.111 337.547 126.926 339.157 124.969 339.068C125.387 338.987 125.613 338.963 125.75 338.794C124.832 339.253 122.407 339.495 122.931 339.165L123.341 339.076C121.956 339.277 119.846 339.591 118.025 339.865C117.115 339.986 116.277 340.131 115.641 340.276C115.005 340.404 114.57 340.557 114.473 340.734C114.441 340.646 114.811 339.897 114.972 339.752C113.353 340.597 111.662 341.394 109.922 342.111C110.381 341.531 108.73 340.09 111.058 339.825C110.389 339.72 109.576 339.615 108.166 339.752C108.609 339.873 109.262 340.646 108.633 340.686C106.95 339.905 107.449 340.292 105.403 339.535C106.072 339.728 105.234 340.573 104.139 340.428C104.324 340.308 104.155 339.519 104.558 339.462C103.631 339.688 102.713 339.825 101.763 340.01C102.455 339.937 101.988 339.269 101.44 338.931C101.69 339.14 99.1608 338.537 98.452 338.448C98.8064 338.593 99.1608 338.754 99.5233 338.883C96.5914 338.142 96.3014 339.527 93.3533 338.665C93.7641 338.593 94.5293 337.812 93.1036 337.273C92.7009 337.402 91.7907 337.716 90.6388 337.885C89.495 338.086 88.021 338.158 86.6356 337.563C86.5148 337.394 86.3939 337.225 86.2892 337.039C85.6046 336.717 84.9199 336.331 84.2836 335.784C85.0649 336.146 86.4503 336.54 87.8438 336.645C88.5446 336.709 89.2453 336.725 89.8897 336.709C90.5663 336.693 91.1866 336.693 91.694 336.709C90.7033 336.154 91.4685 336.315 89.9139 335.8C89.7045 335.59 89.9381 335.574 90.2603 335.631C90.6227 335.687 91.1141 335.808 91.3477 335.88L90.4375 335.534C90.1475 335.413 89.8978 335.309 89.632 335.18C89.1165 334.93 88.6251 334.657 88.1821 334.359C88.1096 334.624 87.4894 334.423 86.9578 334.133C86.4181 333.852 86.0315 333.489 85.8784 333.658C86.6517 334.399 87.8196 334.938 89.044 335.301C89.0037 335.574 88.319 335.719 87.3766 335.494C86.9014 335.389 86.3778 335.164 85.8784 334.826C85.3871 334.487 84.9441 333.996 84.7266 333.409C84.7105 333.079 84.9924 333.127 85.2663 333.183C85.5321 333.248 85.8462 333.296 85.9106 333.232C85.7576 333.183 85.5079 332.845 85.4193 332.467C85.3226 332.072 85.4435 331.67 85.516 331.63L85.5804 331.992C85.6126 332.105 85.669 332.217 85.7012 332.322C85.8059 331.911 85.7173 331.606 85.8059 331.227C85.8865 330.865 86.2409 330.414 86.9819 330.422C87.0947 330.382 87.2478 330.382 87.425 330.414C87.5941 330.43 87.7713 330.47 87.9405 330.519C88.2627 330.591 88.5285 330.688 88.5687 330.519C87.7874 329.939 87.0303 328.168 87.8196 327.572C87.9566 327.572 88.9634 327.629 89.9461 327.951C90.9369 328.249 91.8632 328.82 92.1451 329.118C92.5398 329.585 92.0323 329.633 91.5651 329.762C91.098 329.859 90.6549 330.052 90.9691 330.35C91.0496 330.205 91.5812 330.229 91.8068 330.269C92.0404 330.462 91.9276 330.535 91.9115 330.623C91.8954 330.72 91.9437 330.784 92.5237 331.155C93.0553 330.768 94.7226 332.894 93.3292 331.131C94.5132 331.863 94.4165 332.121 95.5281 333.272C95.4878 332.966 95.9631 333.022 96.5591 333.369C97.1874 333.674 97.8721 334.318 98.3393 334.922C98.1782 334.914 98.1862 335.292 98.1782 335.478C98.5165 336.154 98.7984 336.758 98.9836 337.345C99.2092 337.925 99.3461 338.472 99.4911 339.02C99.7811 340.106 99.9663 341.193 100.216 342.562C100.144 342.835 100.152 344.18 99.8455 343.648C99.9985 344.027 100.24 344.365 100.321 345.218C99.9905 346.893 100.079 343.343 99.62 344.647C99.7811 344.679 99.9422 345.21 100.095 345.886C100.224 346.563 100.353 347.392 100.45 347.996C100.965 347.617 100.458 345.154 100.087 343.987C100.772 343.874 101.771 345.959 102.053 349.002C102.141 351.409 101.577 350.016 101.658 350.443C101.481 352.673 101.577 353.631 101.714 354.516C101.835 355.394 101.94 356.199 101.408 358.002C100.651 359.354 100.546 357.897 100.168 358.163C100.361 356.263 100.885 355.305 101.07 354.017L100.635 355.571C100.578 354.943 100.651 353.671 100.877 353.003C100.595 353.582 100.313 355.418 99.9905 357.519C99.765 358.557 99.4911 359.652 99.2253 360.699C98.9514 361.737 98.7017 362.727 98.3312 363.5C98.2909 364.112 98.1218 365.15 98.4359 364.732L98.7017 363.693C99.3381 362.84 98.5487 365.77 99.1206 364.514C99.0159 365.247 98.9353 366.028 98.7742 366.873C98.6856 367.292 98.6051 367.734 98.452 368.177C98.2909 368.612 98.0896 369.063 97.856 369.521L97.2518 369.699C97.4049 369.715 98.0332 368.563 98.1057 367.976C97.9848 368.853 96.3094 370.64 96.5511 371.751L97.4049 370.552C97.2438 371.276 97.1149 372.122 96.9135 372.983C96.6638 373.828 96.3336 374.69 95.8503 375.478C96.6638 374.939 95.9872 375.076 97.0908 374.142C96.8008 374.319 96.7927 374.15 96.9135 373.804C96.978 373.635 97.0666 373.418 97.1794 373.192C97.276 372.959 97.3807 372.693 97.4854 372.444C97.9043 371.429 98.2748 370.495 97.5902 371.196C98.1459 370.705 98.4359 370.182 98.7259 369.618C99.0078 369.046 99.3542 368.443 99.8616 367.678C99.6925 367.678 99.3783 368.169 99.9261 366.712C99.9019 366.631 99.8938 366.454 99.8938 366.342C99.9099 366.301 99.918 366.285 99.9341 366.245C99.918 366.269 99.9099 366.293 99.8938 366.317C99.8938 366.245 99.8858 366.237 99.8777 366.35C99.7005 366.68 99.5233 366.937 99.4025 367.026C99.2817 366.173 100.031 363.846 100.095 363.001C100.377 362.131 100.192 363.419 100.474 362.985V361.705C100.852 361.681 101.61 359.467 101.328 361.632L101.787 359.724C102.012 359.185 102.254 358.533 102.399 357.881C102.52 357.229 102.6 356.585 102.592 356.086C102.802 355.176 102.528 353.719 102.697 354.548C102.777 353.526 102.85 352.504 102.842 351.457L102.931 351.433C103.059 349.895 102.963 348.309 102.81 346.675C102.673 345.041 102.504 343.367 102.479 341.539C102.334 341.024 102.181 340.509 101.988 339.913C101.811 339.301 101.61 338.617 101.368 337.756L101.553 337.313C101.231 336.685 100.949 335.663 100.522 334.785C100.152 333.884 99.6522 333.143 99.3622 332.966C99.3058 332.081 98.2426 330.559 96.7525 329.287C96.3658 328.981 95.9872 328.659 95.5845 328.378C95.1656 328.12 94.7549 327.862 94.3602 327.613L94.0621 327.436C93.9413 327.379 93.8285 327.315 93.7077 327.259C93.4741 327.146 93.2567 327.025 93.0392 326.945C92.6042 326.759 92.2095 326.615 91.8632 326.502L91.6457 326.864C90.7113 326.598 89.7689 326.478 88.7621 326.518C87.7552 326.582 86.6678 326.776 85.4837 327.355L85.7657 327.637C85.2985 327.894 84.7588 328.225 84.195 328.667C83.6553 329.15 83.0753 329.77 82.7451 330.599C82.4229 331.404 82.2457 332.298 82.3826 333.248C82.5035 334.198 82.9384 335.083 83.4781 335.751C83.2284 335.655 82.7048 334.874 82.5598 334.165C82.7773 335.325 83.47 336.291 84.2352 336.967C85.0085 337.659 85.8784 338.102 86.7242 338.456C87.5699 338.802 88.4399 339.06 89.2212 339.285C89.9783 339.503 90.6952 339.768 91.3396 340.139C92.0726 340.219 92.5559 340.404 93.015 340.638C92.9506 340.622 92.8942 340.606 92.8378 340.606C92.9103 340.63 93.015 340.662 93.1197 340.694C93.4097 340.839 93.7077 341.008 94.038 341.145C93.7641 340.992 93.5064 340.839 93.2728 340.734C93.8044 340.895 94.6421 341.04 95.4637 341.161L95.7134 341.628C95.7778 341.644 95.8342 341.652 95.8986 341.668C96.6638 341.99 96.5752 341.628 96.2208 341.258C96.6397 341.282 97.0263 341.29 97.3405 341.258C97.5982 341.628 98.1379 341.7 98.7017 341.765C99.2736 341.821 99.8697 341.877 100.256 342.288C100.852 342.103 104.405 342.642 104.904 341.982C104.92 342.071 105.162 342.143 104.719 342.103C105.613 342.288 106.523 342.441 107.353 342.288L107.707 342.803C108.384 342.634 109.06 342.433 109.729 342.232C110.921 342.57 111.436 342.755 110.22 343.101C111.686 342.852 112.274 342.755 112.814 342.715C113.345 342.666 113.829 342.586 115.045 342.248L114.94 342.57C115.826 342.538 117.196 341.982 117.743 342.208C118.75 342.433 121.199 342.199 123.994 341.708C126.797 341.217 129.922 340.461 132.46 339.873C131.831 339.583 132.435 339.511 133.184 339.366C133.934 339.237 134.844 339.028 134.795 338.649C135.158 338.738 135.883 338.561 135.182 339.076C137.534 337.804 139.032 337.571 140.257 335.993C140.643 336.001 139.959 336.589 140.265 336.54C140.426 336.379 140.869 335.88 141.183 335.808C141.489 335.743 140.973 336.202 140.667 336.54C141.827 335.695 142.311 335.027 142.472 334.536C142.641 334.045 142.496 333.723 142.351 333.417C143.551 332.692 144.002 332.121 144.308 331.106C144.767 330.881 145.46 330.398 144.429 331.742C144.759 331.396 145.742 330.318 146.507 329.231C147.288 328.144 147.86 327.065 147.667 326.896C147.933 326.719 148.368 325.801 148.432 325.56C149.471 323.765 149.608 323.636 150.47 321.801L150.14 322.267C149.93 321.261 150.8 320.722 151.404 319.2L151.445 319.273C152.436 317.671 152.54 317.268 152.645 316.882C152.75 316.496 152.887 316.133 153.797 314.499L153.37 314.547C153.04 314.234 153.434 313.517 153.974 312.607C154.53 311.706 155.11 310.547 155.295 309.484L154.852 310.16C154.9 309.564 155.416 308.872 155.931 308.156C156.455 307.447 157.067 306.739 157.236 306.159C157.357 305.918 157.268 306.594 157.22 306.956C158.404 303.994 156.825 306.441 157.204 304.139C157.55 303.768 157.784 304.823 158.13 303.277C158.299 302.907 158.275 301.724 158.267 300.395C158.203 299.051 158.243 297.57 158.493 296.491C158.267 296.966 158.05 297.417 157.921 296.33C157.913 295.912 157.969 295.429 158.042 294.905C158.114 294.382 158.146 293.819 158.187 293.255C158.219 292.692 158.251 292.136 158.195 291.629C158.122 291.122 157.993 290.663 157.776 290.309C157.808 290.091 157.848 290.003 157.905 289.987C157.832 289.673 157.736 289.262 157.623 288.803C157.486 288.353 157.333 287.87 157.188 287.395C157.035 286.928 156.89 286.477 156.737 286.099C156.56 285.736 156.39 285.446 156.245 285.285C156.479 284.915 156.407 284.247 156.181 283.474C155.923 282.709 155.44 281.856 155.005 281.035C154.562 280.222 153.998 279.522 153.708 278.934C153.402 278.362 153.289 277.936 153.547 277.783C152.806 276.672 152.017 275.585 151.131 274.595H151.292C149.681 272.582 148.746 272.228 147.909 271.85C147.53 271.399 147.925 271.592 148.005 271.576C147.353 270.908 146.797 270.449 146.346 270.047C145.863 269.676 145.46 269.395 145.057 269.145C144.236 268.678 143.414 268.332 141.916 267.873L141.819 267.366C141.384 267.286 140.281 266.529 138.75 265.788C137.22 265.056 135.263 264.363 133.426 264.218C133.474 264.178 133.563 264.122 133.853 264.13C132.822 264.033 131.718 263.824 130.583 263.647C129.479 263.454 128.239 263.228 126.853 263.421C126.169 263.518 125.46 263.743 124.848 264.122C124.236 264.492 123.752 264.975 123.43 265.458C122.786 266.432 122.713 267.269 122.931 267.777C122.745 268.791 122.753 269.733 122.802 270.634C123.027 268.887 123.229 269.04 123.325 269.459C123.438 269.87 123.567 270.497 123.76 269.829C123.688 271.141 123.108 273.202 123.1 271.576L123.188 271.327C122.447 270.683 122.721 275.48 122.238 275.384C122.19 278.717 122.23 282.049 122.673 285.342C123.124 288.618 124.002 291.895 125.581 294.801C125.637 294.487 125.669 294.181 125.75 293.867C126.088 294.535 126.435 295.203 126.829 295.839C127.039 296.403 126.853 296.781 126.032 295.364C126.161 296.306 127.755 297.514 127.884 297.449C128.738 298.769 128.432 298.632 127.957 298.262C127.482 297.892 126.878 297.24 127.159 297.65L128.005 298.689L127.876 298.407C128.746 299.091 128.972 299.019 130.252 300.444C131.01 301.402 130.43 301.144 130.744 301.498C130.712 301.522 130.808 301.659 131.259 302.022C131.928 302.682 132.621 303.318 133.321 303.929C133.136 303.567 132.951 303.213 132.782 302.851C133.853 303.495 134.755 304.541 134.111 303.334C134.554 304.251 136.535 305.91 138.517 307.343C140.498 308.776 142.464 310.08 142.85 310.506C144.437 311.183 145.79 312.149 147.482 313.324C147.111 312.962 147.152 312.358 148.585 313.396C147.45 313.928 151.026 315.602 151.823 317.011C151.018 315.892 156.149 319.635 154.844 317.929C156.052 318.79 154.707 318.315 155.521 319.128C158.718 320.666 162.021 323.427 165.879 325.504C166.008 325.415 165.484 324.868 166.403 325.141L168.062 326.888C168.851 327.25 169.149 326.574 170.293 327.766C170.156 327.556 169.947 327.242 170.478 327.476C174.055 329.843 178.002 331.742 181.956 333.642C185.919 335.518 189.882 337.418 193.596 339.768C192.629 339.036 193.362 339.334 194.184 339.688C193.676 339.39 194.337 339.374 194.313 339.148L197.438 341.089C198.251 340.879 201.046 342.57 201.594 342.24L200.499 341.886C202.142 341.91 199.041 339.841 199.548 339.213C197.712 339.165 195.827 336.524 192.895 336.259C192.396 335.864 193.475 336.25 193.249 335.953C192.468 335.961 191.654 335.687 190.285 334.874H190.478C188.449 333.972 187.031 333.24 185.589 332.419C184.147 331.598 182.649 330.736 180.482 329.496L180.635 330.004C179.701 329.472 179.556 329.271 179.153 328.949C177.792 328.901 181.82 330.342 180.531 330.406C179.604 329.102 173.821 326.896 173.402 325.649C171.952 324.86 173.612 326.268 172.17 325.471L171.904 325.053L171.389 325.125C170.47 324.554 170.14 324.022 170.204 323.829C170.422 323.982 170.881 324.143 171.131 324.272C170.051 323.338 167.643 322.42 167.273 322.098L168.577 323.008C164.55 320.979 159.999 317.888 156.076 315.972L156.262 316.302C153.281 314.797 154.119 314.708 150.986 312.841L151.123 312.881C150.414 312.624 149.552 312.157 148.73 311.585C149.616 311.923 147.514 310.281 148.65 310.764C145.476 309.025 147.023 309.991 144.679 309.186L144.397 308.631C143.575 308.389 143.438 308.462 141.908 307.463C143.277 308.124 141.223 306.417 142.786 307.117C140.047 304.38 137.792 304.324 137.019 302.505C136.084 302.287 136.648 302.891 137.349 303.479C138.05 304.066 138.895 304.63 138.452 304.412C138.952 305.121 136.914 304.042 136.036 303.221C135.11 302.424 135.061 301.136 132.943 299.099C133.152 299.309 133.209 299.276 133.41 299.486C132.774 298.568 131.67 298.149 131.074 296.894C130.196 296.636 130.035 295.517 129.399 295.702C129.954 296.411 130.559 297.095 131.195 297.739C130.083 296.7 128.513 295.976 127.586 293.513C127.804 293.625 128.295 294.213 128.658 294.599C128.44 293.875 127.828 293.432 127.659 292.659C127.981 292.627 128.392 293.319 128.891 294.157C129.407 294.986 130.091 295.936 130.776 296.419C130.486 295.67 128.65 294.205 129.673 294.487C128.988 294.253 128.658 293.601 128.319 292.877C128.005 292.128 127.699 291.291 127.031 290.486L127.433 290.47C127.248 290.212 126.886 289.657 126.708 289.109L127.506 289.922C126.563 288.578 126.966 286.928 126.451 285.511C127.143 288.61 126.145 286.308 126.185 287.7C125.452 285.817 125.637 285.173 125.806 284.505C126.008 283.828 126.193 283.12 125.935 280.906C126.016 281.51 125.919 283.184 125.645 282.267C125.637 281.405 125.702 280.27 125.887 279.731C125.693 276.744 125.508 280.206 125.226 278.942C125.669 277.904 125.001 277.469 124.864 276.124L125.25 276.116C125.581 272.655 124.445 275.175 124.88 272.035L125.355 273.387L125.299 271.745L125.726 272.107C125.605 271.198 125.581 270.65 125.645 270.143C125.71 269.636 125.83 269.137 126.096 268.574C125.919 268.662 125.758 268.574 125.71 268.308C125.653 268.042 125.726 267.591 126.072 267.197C126.402 267.028 126.386 267.181 126.426 267.221C126.443 267.245 126.467 267.237 126.555 267.189C126.636 267.133 126.757 267.028 127.063 266.891C126.966 267.06 126.902 267.245 126.821 267.374C126.733 267.519 126.612 267.591 126.314 267.696C126.378 267.809 126.362 268.066 126.443 268.171C126.716 267.954 126.894 267.777 127.087 267.64C127.272 267.495 127.594 267.358 127.852 267.318C127.651 267.334 127.457 267.358 127.345 267.342C127.812 266.988 128.738 266.778 129.753 266.714C130.22 266.923 129.818 266.98 129.447 267.068C130.043 267.092 130.494 266.955 131.396 267.044C131.122 267.31 131.122 267.656 129.866 267.648C130.341 267.648 130.816 267.632 131.292 267.648L132.725 267.72C132.886 267.897 134.062 268.421 133.676 268.453C135.118 268.984 137.566 268.96 139.379 270.111C139.499 270.103 139.725 270.143 140.152 270.304C141.884 271.302 143.124 272.534 145.186 273.669C145.42 274.08 145.597 274.539 145.798 274.957C146.507 275.513 146.306 275.086 146.217 274.756C146.112 274.434 146.177 274.144 147.337 275.158C148.175 275.867 148.199 276.124 148.094 276.245C147.989 276.374 147.74 276.398 147.925 276.736C148.843 277.308 150.494 278.483 151.058 280.472C150.849 280.214 150.712 279.956 150.567 279.707C150.414 279.385 150.269 279.143 150.083 278.902ZM154.433 300.846C154.441 300.387 154.288 299.462 154.538 299.164C154.933 299.727 154.699 300.106 154.433 300.846ZM139.894 333.143C140.079 332.837 140.514 332.555 141.046 332.266C140.756 332.572 140.377 332.886 139.894 333.143ZM101.891 358.155C101.891 358.131 101.891 358.114 101.883 358.098C102.214 357.06 102.101 357.43 101.891 358.155ZM101.223 360.304C101.223 360.538 101.279 360.529 101.352 360.449C101.287 360.272 101.4 359.781 101.553 359.233C101.424 359.362 101.287 359.636 101.223 360.304ZM131.018 301.506L130.776 301.12C131.557 301.748 131.292 301.619 131.018 301.506Z" fill="white"/>
<path d="M142.391 329.986C142.519 329.93 142.599 329.954 142.671 329.978C142.744 329.801 142.687 329.753 142.391 329.986Z" fill="#FADD6F"/>
<path d="M139.434 270.071L139.377 270.039C139.337 270.047 139.305 270.055 139.289 270.071H139.434Z" fill="#FADD6F"/>
<path d="M91.542 330.751C91.2439 330.566 91.0828 330.421 90.9701 330.309C90.9217 330.389 91.0587 330.518 91.542 330.751Z" fill="#FADD6F"/>
<path d="M98.1921 371.822L98.6432 370.445C98.4015 371.097 98.2243 371.299 98.0391 371.605C98.1277 371.605 98.3532 371.403 98.1921 371.822Z" fill="#FADD6F"/>
<path d="M90.3259 381.58C90.2453 381.773 90.0842 381.934 90.0117 382.127L90.197 382.183C90.6883 381.467 90.8736 380.863 90.3259 381.58Z" fill="#FADD6F"/>
<path d="M96.5071 372.539C96.1849 372.523 95.8788 373.352 95.4922 374.27C95.5164 374.214 95.5405 374.165 95.5727 374.109C95.8466 374.568 96.2091 373.554 96.5071 372.539Z" fill="#FADD6F"/>
<path d="M95.4027 374.473C95.2819 374.754 95.153 375.036 95 375.294C95.1128 375.487 95.2014 374.988 95.4027 374.473Z" fill="#FADD6F"/>
<path d="M100.798 363.129C100.573 363.564 101.113 363.524 100.903 363.749C101.016 364.063 101.169 363.266 101.121 362.703C101.096 362.139 100.984 361.825 100.798 363.129Z" fill="#FADD6F"/>
<path d="M95.1875 372.812L95.7111 372.667C95.703 372.458 95.6627 372.241 95.6386 372.031C95.5097 372.297 95.3486 372.555 95.1875 372.812Z" fill="#FADD6F"/>
<path d="M98.2674 365.715L97.6875 367.172C97.76 367.172 97.7358 367.373 97.6875 367.623C97.9936 366.705 98.3883 365.715 98.2674 365.715Z" fill="#FADD6F"/>
<path d="M97.6842 367.621C97.4909 368.088 97.3137 368.531 97.2734 368.821C97.3701 368.563 97.5876 368.016 97.6842 367.621Z" fill="#FADD6F"/>
<path d="M95.9219 370.803L96.1716 370.409L96.6146 369.402L95.9219 370.803Z" fill="#FADD6F"/>
<path d="M101.422 349.164L101.309 347.441C101.172 347.272 101.1 347.739 101.14 348.375C101.229 348.786 101.285 349.43 101.422 349.164Z" fill="#FADD6F"/>
<path d="M99.854 354.196C99.999 353.753 100.096 353.737 100.265 353.496L99.7734 353.383L99.854 354.196Z" fill="#FADD6F"/>
<path d="M100.192 349.314C100.063 349.137 99.8055 346.907 99.8297 349C99.9827 349.169 100.007 350.843 100.192 349.314Z" fill="#FADD6F"/>
<path d="M89.6562 328.835L90.0751 328.884L90.1395 328.062C89.9704 328.32 89.8012 328.578 89.6562 328.835Z" fill="#FADD6F"/>
<path d="M96.5522 337.419C94.7076 336.743 95.9722 337.806 94.321 337.105C93.8216 337.178 95.6661 337.677 95.1748 337.717C96.383 337.814 96.9549 338.08 96.5522 337.419Z" fill="#FADD6F"/>
<path d="M95.1749 337.716C94.9816 337.7 94.7722 337.692 94.5547 337.684C94.901 337.724 95.0702 337.724 95.1749 337.716Z" fill="#FADD6F"/>
<path d="M199.5 342.383L200.644 343.043L199.967 342.463L199.5 342.383Z" fill="#FADD6F"/>
<path d="M202.051 342.777L202.139 343.381L203.042 343.244C202.76 343.156 202.212 342.979 202.051 342.777Z" fill="#FADD6F"/>
<path d="M152.781 304.057L152.886 304.178C153.055 304.017 153.128 303.735 153.273 303.172L152.781 304.057Z" fill="white"/>
<path d="M153.418 287.717L153.466 287.999L153.813 287.371L153.418 287.717Z" fill="#FADD6F"/>
<path d="M146.734 276.344C147.113 276.73 147.572 277.165 147.918 277.576C147.5 277.165 147.298 276.722 147.145 276.449C146.992 276.191 146.895 276.086 146.734 276.344Z" fill="#FADD6F"/>
<path d="M587.082 165.318H460.017C459.131 165.318 458.406 164.593 458.406 163.708C458.406 162.822 459.131 162.098 460.017 162.098H587.082C587.968 162.098 588.693 162.822 588.693 163.708C588.693 164.593 587.968 165.318 587.082 165.318Z" fill="#ABDAF7"/>
<path d="M358.517 165.318H307.361C306.475 165.318 305.75 164.593 305.75 163.708C305.75 162.822 306.475 162.098 307.361 162.098H358.517C359.403 162.098 360.128 162.822 360.128 163.708C360.128 164.593 359.411 165.318 358.517 165.318Z" fill="#ABDAF7"/>
<path d="M405.414 105.408C391.817 105.408 380.758 94.3548 380.758 80.7663C380.758 67.1778 391.817 56.125 405.414 56.125C419.01 56.125 430.07 67.1778 430.07 80.7663C430.07 94.3548 419.01 105.408 405.414 105.408ZM405.414 59.345C393.597 59.345 383.98 68.9568 383.98 80.7663C383.98 92.5757 393.597 102.188 405.414 102.188C417.23 102.188 426.848 92.5757 426.848 80.7663C426.848 68.9568 417.238 59.345 405.414 59.345Z" fill="#ABDAF7"/>
<path d="M405.414 188.306C391.817 188.306 380.758 177.253 380.758 163.665C380.758 150.076 391.817 139.023 405.414 139.023C419.01 139.023 430.07 150.076 430.07 163.665C430.07 177.253 419.01 188.306 405.414 188.306ZM405.414 142.235C393.597 142.235 383.98 151.847 383.98 163.657C383.98 175.466 393.597 185.078 405.414 185.078C417.23 185.078 426.848 175.466 426.848 163.657C426.848 151.847 417.238 142.235 405.414 142.235Z" fill="#ABDAF7"/>
<path d="M365.296 169.423C368.453 166.968 369.017 162.412 366.56 159.264C364.095 156.109 359.544 155.545 356.387 158C353.229 160.456 352.666 165.012 355.122 168.16C357.587 171.315 362.138 171.879 365.296 169.423Z" fill="#FADD6F"/>
<path d="M365.296 86.4742C368.453 84.0189 369.017 79.4626 366.56 76.315C364.095 73.1594 359.544 72.5959 356.387 75.0512C353.229 77.5064 352.666 82.0628 355.122 85.2104C357.587 88.374 362.138 88.9375 365.296 86.4742Z" fill="#FADD6F"/>
<path d="M454.76 342.794L342.645 307.938V377.651L454.76 342.794Z" fill="url(#paint1_linear_3139_183681)"/>
<path d="M57.158 100.474C63.1347 95.8213 64.1979 87.2158 59.5423 81.2507C54.8866 75.2856 46.2679 74.2149 40.2993 78.8679C34.3226 83.5208 33.2593 92.1264 37.915 98.0915C42.5627 104.057 51.1813 105.127 57.158 100.474Z" fill="#FADD6F"/>
<path d="M364.572 419.987C364.572 417.202 362.308 414.94 359.521 414.94H352.747C355.534 414.94 357.798 412.677 357.798 409.892C357.798 407.107 355.534 404.845 352.747 404.845H318.844C321.631 404.845 337.354 404.845 337.201 398.928C337.08 394.315 330.073 394.75 327.286 394.75H312.32H299.311H247.905L202.275 322.653C194.816 310.868 179.214 307.366 167.43 314.813C155.637 322.267 152.125 337.86 159.584 349.637L212.649 433.479C217.281 440.796 225.336 445.224 233.995 445.224H312.328C312.779 445.224 313.222 445.208 313.657 445.192V445.224H347.866C350.653 445.224 352.916 442.962 352.916 440.176C352.916 437.391 350.653 435.129 347.866 435.129H355.864C358.651 435.129 360.915 432.867 360.915 430.082C360.915 427.296 358.651 425.034 355.864 425.034H359.521C362.308 425.034 364.572 422.78 364.572 419.987Z" fill="#ABDAF7"/>
<path opacity="0.7" d="M150.988 463.595L173.107 465.406L129.434 444.098L150.988 463.595Z" fill="#C97C1D"/>
<path d="M342.645 377.654L368.799 369.523L342.645 353.375V377.654Z" fill="#D34B6A"/>
<path d="M247.891 394.744H227.898L240.158 382.492L247.891 394.744Z" fill="#6E9EF9"/>
<defs>
<linearGradient id="paint0_linear_3139_183681" x1="213.449" y1="132.687" x2="271.49" y2="161.609" gradientUnits="userSpaceOnUse">
<stop stop-color="#E283AE"/>
<stop offset="1" stop-color="#D94841"/>
</linearGradient>
<linearGradient id="paint1_linear_3139_183681" x1="325.197" y1="299.192" x2="461.426" y2="412.207" gradientUnits="userSpaceOnUse">
<stop stop-color="#E283AE"/>
<stop offset="1" stop-color="#D94841"/>
</linearGradient>
</defs>
</svg>
