<svg width="293" height="328" viewBox="0 0 293 328" fill="none" xmlns="http://www.w3.org/2000/svg">
<path d="M24.5049 255.23L148.888 318.331L268.547 255.23V8.47729H24.5049V255.23Z" fill="white"/>
<path d="M271.07 9.41626L21.9888 259.622L151.095 323.351L271.07 262.133V9.41626Z" fill="#EBEEF2"/>
<path d="M16.3228 90.7254V260.564L20.7313 262.762L145.114 325.862L148.893 327.746L152.672 325.862L272.646 262.762L277.055 260.564V0.312256H16.3228V90.7254ZM24.51 255.855V8.47455H268.867V255.855L148.893 318.956L24.51 255.855Z" fill="#DCDEE4"/>
<path d="M146.687 12.5557C147.946 12.5557 149.206 12.5557 150.465 12.8696L146.687 20.0901C141.018 19.7762 135.98 24.1713 135.665 29.8221C135.35 35.4729 139.759 40.4959 145.427 40.8098H146.687C149.206 40.8098 151.725 39.868 153.614 38.2983L157.708 45.2049C154.559 47.4024 150.78 48.6582 146.687 48.6582C136.61 48.9721 128.108 41.4377 127.793 31.3918C127.478 21.3459 135.036 12.8696 145.112 12.5557H146.687ZM159.597 27.9385L164.321 35.7868L159.597 43.3213L155.189 35.7868H146.057L150.78 27.9385H159.597ZM152.04 25.1131C152.04 23.8573 152.355 22.6016 152.984 21.6598C153.614 20.718 154.874 19.7762 155.818 19.1483L156.448 18.8344C157.708 18.2065 158.023 17.8926 158.023 17.2647C158.023 16.6368 157.078 16.009 156.448 16.009C155.189 16.009 154.244 16.6368 153.614 17.8926L152.04 16.3229C152.355 15.695 152.984 15.0672 153.614 14.4393C154.559 13.8114 155.504 13.8114 156.448 13.8114C157.393 13.8114 158.653 14.1254 159.282 14.7532C159.912 15.3811 160.542 16.3229 160.542 17.2647C160.542 18.8344 159.597 20.0901 157.708 20.718L156.763 21.3459C155.818 21.9737 155.189 22.2877 154.874 23.2295H160.542V25.427L152.04 25.1131ZM146.687 64.3549L176.601 47.4024V0.312256H116.457V47.0885L146.687 64.3549Z" fill="#E0704A"/>
<path d="M283.037 175.489H10.3388L0.262207 197.464L10.3388 219.439H283.037L292.798 197.464L283.037 175.489Z" fill="#E0704A"/>
<path d="M53.4808 128.371C55.5591 128.371 57.3855 128.789 58.9599 129.626C60.5344 130.464 61.752 131.667 62.6127 133.237C63.4734 134.785 63.9038 136.564 63.9038 138.573C63.9038 140.562 63.4629 142.309 62.5812 143.816C61.6785 145.302 60.419 146.464 58.8025 147.301C57.1861 148.138 55.3177 148.557 53.1974 148.557H46.4902C46.3432 148.557 46.2697 148.64 46.2697 148.808V160.8C46.2697 160.967 46.2068 161.104 46.0808 161.208C45.9758 161.313 45.8394 161.365 45.6714 161.365H40.1608C39.9929 161.365 39.8564 161.313 39.7514 161.208C39.6465 161.104 39.594 160.967 39.594 160.8V128.936C39.594 128.768 39.6465 128.632 39.7514 128.528C39.8564 128.423 39.9929 128.371 40.1608 128.371H53.4808ZM52.4731 143.251C53.9426 143.251 55.1078 142.833 55.9685 141.995C56.8502 141.158 57.291 140.07 57.291 138.73C57.291 137.328 56.8502 136.209 55.9685 135.371C55.1078 134.513 53.9426 134.084 52.4731 134.084H46.4902C46.3432 134.084 46.2697 134.168 46.2697 134.335V143C46.2697 143.167 46.3432 143.251 46.4902 143.251H52.4731ZM87.7412 146.767C87.9092 147.96 87.9617 149.289 87.8987 150.754C87.8777 151.152 87.6782 151.351 87.3004 151.351H72.7208C72.5319 151.351 72.4584 151.424 72.5004 151.57C72.6053 152.198 72.7838 152.826 73.0357 153.454C73.8544 155.212 75.5234 156.091 78.0425 156.091C80.0578 156.07 81.6428 155.254 82.7974 153.642C82.9443 153.454 83.0913 153.36 83.2382 153.36C83.3222 153.36 83.4272 153.423 83.5531 153.548L86.954 156.876C87.1219 157.043 87.2059 157.19 87.2059 157.315C87.2059 157.378 87.1429 157.504 87.017 157.692C85.9673 158.99 84.6343 159.984 83.0178 160.674C81.3594 161.386 79.554 161.742 77.6017 161.742C74.9146 161.742 72.6263 161.135 70.737 159.921C68.8686 158.686 67.5251 156.97 66.7063 154.772C66.0346 153.203 65.6987 151.152 65.6987 148.619C65.6987 146.882 65.9401 145.354 66.4229 144.036C67.1577 141.817 68.4277 140.049 70.2331 138.73C72.0385 137.412 74.1798 136.753 76.657 136.753C79.8059 136.753 82.3356 137.663 84.2459 139.484C86.1563 141.305 87.3214 143.732 87.7412 146.767ZM76.72 142.498C74.7256 142.498 73.4136 143.419 72.7838 145.26C72.6578 145.679 72.5529 146.181 72.4689 146.767C72.4689 146.914 72.5529 146.987 72.7208 146.987H80.8765C81.0655 146.987 81.1285 146.914 81.0655 146.767C80.8975 145.867 80.8136 145.428 80.8136 145.449C80.5407 144.507 80.0473 143.774 79.3336 143.251C78.6408 142.749 77.7696 142.498 76.72 142.498ZM104.116 136.847C105.249 136.847 106.152 137.067 106.824 137.506C107.055 137.632 107.139 137.862 107.076 138.197L106.1 143.565C106.079 143.942 105.858 144.057 105.438 143.91C104.955 143.743 104.41 143.659 103.801 143.659C103.549 143.659 103.192 143.691 102.73 143.753C101.618 143.858 100.662 144.277 99.8646 145.009C99.0879 145.742 98.6995 146.725 98.6995 147.96V160.8C98.6995 160.967 98.6365 161.104 98.5106 161.208C98.4056 161.313 98.2797 161.365 98.1327 161.365H92.5906C92.4436 161.365 92.3072 161.313 92.1812 161.208C92.0763 161.104 92.0238 160.967 92.0238 160.8V137.726C92.0238 137.579 92.0763 137.443 92.1812 137.318C92.3072 137.213 92.4436 137.161 92.5906 137.161H98.1327C98.2797 137.161 98.4056 137.213 98.5106 137.318C98.6365 137.443 98.6995 137.579 98.6995 137.726V139.515C98.6995 139.599 98.731 139.662 98.794 139.704C98.836 139.745 98.878 139.725 98.9199 139.641C100.222 137.778 101.953 136.847 104.116 136.847ZM124.237 137.129C124.405 137.129 124.542 137.182 124.647 137.286C124.752 137.391 124.804 137.527 124.804 137.694V142.152C124.804 142.32 124.752 142.456 124.647 142.56C124.542 142.665 124.405 142.717 124.237 142.717H119.671C119.503 142.717 119.42 142.791 119.42 142.937V160.8C119.42 160.967 119.367 161.104 119.262 161.208C119.157 161.313 119.021 161.365 118.853 161.365H113.342C113.174 161.365 113.038 161.313 112.933 161.208C112.828 161.104 112.775 160.967 112.775 160.8V142.937C112.775 142.791 112.691 142.717 112.523 142.717H109.752C109.584 142.717 109.448 142.665 109.343 142.56C109.238 142.456 109.185 142.32 109.185 142.152V137.694C109.185 137.527 109.238 137.391 109.343 137.286C109.448 137.182 109.584 137.129 109.752 137.129H112.523C112.691 137.129 112.775 137.046 112.775 136.878V135.842C112.775 133.896 113.069 132.379 113.657 131.29C114.266 130.223 115.231 129.459 116.554 128.998C117.898 128.538 119.755 128.339 122.128 128.402H123.923C124.069 128.402 124.195 128.454 124.3 128.559C124.426 128.685 124.489 128.821 124.489 128.967V132.766C124.489 132.933 124.426 133.069 124.3 133.174C124.195 133.299 124.069 133.362 123.923 133.362H122.348C121.256 133.383 120.49 133.603 120.049 134.021C119.629 134.461 119.42 135.246 119.42 136.376V136.878C119.42 137.046 119.503 137.129 119.671 137.129H124.237ZM137.935 161.742C135.29 161.742 133.023 161.051 131.134 159.67C129.244 158.289 127.953 156.405 127.26 154.019C126.82 152.554 126.599 150.953 126.599 149.216C126.599 147.374 126.82 145.71 127.26 144.224C127.995 141.901 129.307 140.08 131.197 138.762C133.086 137.443 135.353 136.784 137.998 136.784C140.559 136.784 142.764 137.433 144.611 138.73C146.416 140.049 147.697 141.87 148.453 144.193C148.978 145.763 149.24 147.405 149.24 149.122C149.24 150.817 149.02 152.408 148.579 153.893C147.886 156.342 146.595 158.257 144.705 159.638C142.837 161.041 140.58 161.742 137.935 161.742ZM137.935 156.06C138.964 156.06 139.846 155.746 140.58 155.118C141.315 154.49 141.84 153.621 142.155 152.512C142.386 151.508 142.501 150.409 142.501 149.216C142.501 147.897 142.386 146.788 142.155 145.888C141.798 144.821 141.263 143.984 140.549 143.377C139.814 142.791 138.922 142.498 137.872 142.498C136.823 142.498 135.941 142.791 135.227 143.377C134.513 143.984 133.999 144.821 133.684 145.888C133.432 146.621 133.306 147.73 133.306 149.216C133.306 150.639 133.422 151.738 133.653 152.512C133.968 153.621 134.492 154.49 135.227 155.118C135.962 155.746 136.865 156.06 137.935 156.06ZM165.614 136.847C166.748 136.847 167.651 137.067 168.323 137.506C168.574 137.632 168.658 137.862 168.574 138.197L167.598 143.565C167.577 143.942 167.357 144.057 166.937 143.91C166.454 143.743 165.908 143.659 165.3 143.659C165.048 143.659 164.701 143.691 164.26 143.753C163.127 143.858 162.161 144.277 161.363 145.009C160.587 145.742 160.198 146.725 160.198 147.96V160.8C160.198 160.967 160.135 161.104 160.009 161.208C159.904 161.313 159.768 161.365 159.6 161.365H154.089C153.942 161.365 153.806 161.313 153.68 161.208C153.575 161.104 153.522 160.967 153.522 160.8V137.726C153.522 137.579 153.575 137.443 153.68 137.318C153.806 137.213 153.942 137.161 154.089 137.161H159.6C159.768 137.161 159.904 137.213 160.009 137.318C160.135 137.443 160.198 137.579 160.198 137.726V139.515C160.198 139.599 160.219 139.662 160.261 139.704C160.345 139.745 160.398 139.725 160.419 139.641C161.72 137.778 163.452 136.847 165.614 136.847ZM198.521 136.784C200.977 136.784 202.898 137.517 204.283 138.982C205.669 140.468 206.362 142.55 206.362 145.229V160.8C206.362 160.967 206.309 161.104 206.204 161.208C206.099 161.313 205.973 161.365 205.826 161.365H200.284C200.137 161.365 200.001 161.313 199.875 161.208C199.77 161.104 199.717 160.967 199.717 160.8V146.673C199.717 145.396 199.392 144.381 198.741 143.628C198.069 142.874 197.177 142.498 196.065 142.498C194.973 142.498 194.081 142.874 193.388 143.628C192.695 144.381 192.349 145.386 192.349 146.642V160.8C192.349 160.967 192.296 161.104 192.191 161.208C192.065 161.313 191.929 161.365 191.782 161.365H186.303C186.135 161.365 185.999 161.313 185.894 161.208C185.789 161.104 185.736 160.967 185.736 160.8V146.673C185.736 145.417 185.39 144.402 184.697 143.628C184.004 142.874 183.102 142.498 181.989 142.498C181.002 142.498 180.162 142.791 179.47 143.377C178.798 143.984 178.399 144.821 178.273 145.888V160.8C178.273 160.967 178.221 161.104 178.116 161.208C177.99 161.313 177.853 161.365 177.706 161.365H172.196C172.028 161.365 171.891 161.313 171.786 161.208C171.681 161.104 171.629 160.967 171.629 160.8V137.726C171.629 137.579 171.681 137.443 171.786 137.318C171.891 137.213 172.028 137.161 172.196 137.161H177.706C177.853 137.161 177.99 137.213 178.116 137.318C178.221 137.443 178.273 137.579 178.273 137.726V139.578C178.273 139.662 178.305 139.725 178.368 139.766C178.431 139.787 178.494 139.745 178.557 139.641C179.858 137.736 181.863 136.784 184.571 136.784C186.145 136.784 187.521 137.119 188.696 137.789C189.872 138.437 190.774 139.379 191.404 140.614C191.488 140.802 191.604 140.802 191.751 140.614C192.422 139.316 193.357 138.354 194.553 137.726C195.729 137.098 197.051 136.784 198.521 136.784ZM232.403 146.767C232.592 147.96 232.655 149.289 232.592 150.754C232.55 151.152 232.34 151.351 231.962 151.351H217.383C217.194 151.351 217.131 151.424 217.194 151.57C217.278 152.198 217.446 152.826 217.698 153.454C218.517 155.212 220.185 156.091 222.705 156.091C224.72 156.07 226.315 155.254 227.491 153.642C227.617 153.454 227.753 153.36 227.9 153.36C228.005 153.36 228.121 153.423 228.247 153.548L231.648 156.876C231.795 157.043 231.868 157.19 231.868 157.315C231.868 157.378 231.805 157.504 231.679 157.692C230.65 158.99 229.317 159.984 227.68 160.674C226.042 161.386 224.248 161.742 222.295 161.742C219.587 161.742 217.299 161.135 215.431 159.921C213.541 158.686 212.187 156.97 211.368 154.772C210.718 153.203 210.392 151.152 210.392 148.619C210.392 146.882 210.623 145.354 211.085 144.036C211.82 141.817 213.09 140.049 214.895 138.73C216.701 137.412 218.852 136.753 221.351 136.753C224.5 136.753 227.029 137.663 228.94 139.484C230.85 141.305 232.004 143.732 232.403 146.767ZM221.382 142.498C219.409 142.498 218.107 143.419 217.477 145.26C217.351 145.679 217.236 146.181 217.131 146.767C217.131 146.914 217.215 146.987 217.383 146.987H225.539C225.728 146.987 225.791 146.914 225.728 146.767C225.581 145.867 225.507 145.428 225.507 145.449C225.213 144.507 224.72 143.774 224.027 143.251C223.313 142.749 222.432 142.498 221.382 142.498ZM248.778 136.847C249.911 136.847 250.814 137.067 251.486 137.506C251.738 137.632 251.832 137.862 251.769 138.197L250.793 143.565C250.751 143.942 250.52 144.057 250.1 143.91C249.639 143.743 249.093 143.659 248.463 143.659C248.211 143.659 247.865 143.691 247.424 143.753C246.29 143.858 245.324 144.277 244.527 145.009C243.75 145.742 243.362 146.725 243.362 147.96V160.8C243.362 160.967 243.309 161.104 243.204 161.208C243.078 161.313 242.942 161.365 242.795 161.365H237.253C237.106 161.365 236.98 161.313 236.875 161.208C236.749 161.104 236.686 160.967 236.686 160.8V137.726C236.686 137.579 236.749 137.443 236.875 137.318C236.98 137.213 237.106 137.161 237.253 137.161H242.795C242.942 137.161 243.078 137.213 243.204 137.318C243.309 137.443 243.362 137.579 243.362 137.726V139.515C243.362 139.599 243.393 139.662 243.456 139.704C243.519 139.745 243.572 139.725 243.614 139.641C244.894 137.778 246.616 136.847 248.778 136.847Z" fill="#35353D"/>
<path d="M118.854 81.8762C118.854 81.7297 118.906 81.5937 119.011 81.4681C119.116 81.3635 119.242 81.3111 119.389 81.3111H124.931C125.078 81.3111 125.214 81.3635 125.34 81.4681C125.445 81.5937 125.498 81.7297 125.498 81.8762V113.709C125.498 113.877 125.445 114.013 125.34 114.117C125.214 114.222 125.078 114.274 124.931 114.274H119.389C119.242 114.274 119.116 114.222 119.011 114.117C118.906 114.013 118.854 113.877 118.854 113.709V100.712C118.854 100.566 118.77 100.493 118.602 100.493H108.147C108 100.493 107.927 100.566 107.927 100.712V113.709C107.927 113.877 107.874 114.013 107.769 114.117C107.643 114.222 107.507 114.274 107.36 114.274H101.818C101.671 114.274 101.545 114.222 101.44 114.117C101.314 114.013 101.251 113.877 101.251 113.709V81.8762C101.251 81.7297 101.314 81.5937 101.44 81.4681C101.545 81.3635 101.671 81.3111 101.818 81.3111H107.36C107.507 81.3111 107.643 81.3635 107.769 81.4681C107.874 81.5937 107.927 81.7297 107.927 81.8762V94.5278C107.927 94.6952 108 94.7789 108.147 94.7789H118.602C118.77 94.7789 118.854 94.6952 118.854 94.5278V81.8762ZM134.094 87.3387C133.024 87.3387 132.132 86.9829 131.418 86.2713C130.704 85.5806 130.347 84.7016 130.347 83.6343C130.347 82.525 130.694 81.6251 131.386 80.9344C132.079 80.2438 132.982 79.8984 134.094 79.8984C135.207 79.8984 136.11 80.2438 136.802 80.9344C137.495 81.6251 137.842 82.525 137.842 83.6343C137.842 84.7016 137.485 85.5806 136.771 86.2713C136.057 86.9829 135.165 87.3387 134.094 87.3387ZM131.26 114.274C131.113 114.274 130.977 114.222 130.851 114.117C130.746 114.013 130.694 113.877 130.694 113.709V90.6036C130.694 90.4362 130.746 90.3001 130.851 90.1955C130.977 90.0908 131.113 90.0385 131.26 90.0385H136.802C136.949 90.0385 137.075 90.0908 137.18 90.1955C137.306 90.3001 137.369 90.4362 137.369 90.6036V113.709C137.369 113.877 137.306 114.013 137.18 114.117C137.075 114.222 136.949 114.274 136.802 114.274H131.26ZM157.365 90.635C157.365 90.4885 157.428 90.3525 157.554 90.2269C157.659 90.1222 157.785 90.0699 157.932 90.0699H163.474C163.621 90.0699 163.757 90.1222 163.883 90.2269C163.988 90.3525 164.041 90.4885 164.041 90.635V112.108C164.041 116.21 162.855 119.14 160.482 120.898C158.11 122.677 155.045 123.567 151.288 123.567C150.175 123.567 148.947 123.483 147.603 123.316C147.288 123.274 147.131 123.075 147.131 122.719L147.32 117.853C147.32 117.435 147.54 117.257 147.981 117.319C149.115 117.508 150.154 117.602 151.099 117.602C153.114 117.602 154.667 117.173 155.759 116.315C156.83 115.415 157.365 114.002 157.365 112.077C157.365 111.972 157.334 111.909 157.271 111.888C157.208 111.867 157.145 111.899 157.082 111.983C155.885 113.259 154.143 113.898 151.854 113.898C149.797 113.898 147.918 113.406 146.218 112.422C144.496 111.438 143.268 109.848 142.534 107.65C142.072 106.206 141.841 104.333 141.841 102.031C141.841 99.5821 142.124 97.5939 142.691 96.0661C143.342 94.1406 144.454 92.6023 146.029 91.4512C147.603 90.2792 149.44 89.6932 151.539 89.6932C153.954 89.6932 155.801 90.4152 157.082 91.8593C157.145 91.9221 157.208 91.9431 157.271 91.9221C157.334 91.9012 157.365 91.8489 157.365 91.7652V90.635ZM156.987 105.829C157.239 104.909 157.365 103.621 157.365 101.968C157.365 101.005 157.334 100.262 157.271 99.7391C157.208 99.1949 157.103 98.6822 156.956 98.2008C156.662 97.3637 156.189 96.6835 155.539 96.1602C154.888 95.6579 154.069 95.4068 153.082 95.4068C152.138 95.4068 151.34 95.6579 150.689 96.1602C150.018 96.6835 149.524 97.3637 149.209 98.2008C148.768 99.1426 148.548 100.419 148.548 102.031C148.548 103.789 148.737 105.045 149.115 105.798C149.388 106.656 149.881 107.336 150.595 107.839C151.309 108.362 152.148 108.623 153.114 108.623C154.122 108.623 154.961 108.362 155.633 107.839C156.284 107.336 156.735 106.667 156.987 105.829ZM181.486 89.6932C184.005 89.6932 186.031 90.4676 187.563 92.0163C189.096 93.5441 189.862 95.6265 189.862 98.2636V113.709C189.862 113.877 189.81 114.013 189.705 114.117C189.6 114.222 189.474 114.274 189.327 114.274H183.785C183.638 114.274 183.501 114.222 183.375 114.117C183.27 114.013 183.218 113.877 183.218 113.709V99.6135C183.218 98.3787 182.861 97.3637 182.147 96.5684C181.454 95.794 180.52 95.4068 179.345 95.4068C178.19 95.4068 177.256 95.794 176.542 96.5684C175.828 97.3637 175.471 98.3787 175.471 99.6135V113.709C175.471 113.877 175.419 114.013 175.314 114.117C175.209 114.222 175.073 114.274 174.905 114.274H169.394C169.226 114.274 169.09 114.222 168.985 114.117C168.88 114.013 168.827 113.877 168.827 113.709V81.8762C168.827 81.7297 168.88 81.5937 168.985 81.4681C169.09 81.3635 169.226 81.3111 169.394 81.3111H174.905C175.073 81.3111 175.209 81.3635 175.314 81.4681C175.419 81.5937 175.471 81.7297 175.471 81.8762V92.2988C175.471 92.3826 175.503 92.4453 175.566 92.4872C175.629 92.5081 175.671 92.4872 175.692 92.4244C176.993 90.6036 178.925 89.6932 181.486 89.6932Z" fill="#35353D"/>
<path d="M126.407 190.489C126.407 190.594 126.365 190.678 126.281 190.74C126.218 190.824 126.134 190.866 126.029 190.866H115.323C115.218 190.866 115.165 190.918 115.165 191.023V196.893C115.165 196.998 115.218 197.05 115.323 197.05H122.534C122.639 197.05 122.733 197.082 122.817 197.145C122.88 197.228 122.912 197.322 122.912 197.427V199.813C122.912 199.918 122.88 200.012 122.817 200.096C122.733 200.158 122.639 200.19 122.534 200.19H115.323C115.218 200.19 115.165 200.242 115.165 200.347V209.325C115.165 209.43 115.123 209.514 115.04 209.576C114.977 209.66 114.893 209.702 114.788 209.702H111.891C111.786 209.702 111.702 209.66 111.639 209.576C111.555 209.514 111.513 209.43 111.513 209.325V188.103C111.513 187.999 111.555 187.915 111.639 187.852C111.702 187.768 111.786 187.727 111.891 187.727H126.029C126.134 187.727 126.218 187.768 126.281 187.852C126.365 187.915 126.407 187.999 126.407 188.103V190.489ZM140.766 209.702C140.556 209.702 140.42 209.597 140.357 209.388L139.318 206.029C139.276 205.945 139.223 205.903 139.16 205.903H130.847C130.784 205.903 130.732 205.945 130.69 206.029L129.651 209.388C129.588 209.597 129.451 209.702 129.241 209.702H126.092C125.966 209.702 125.872 209.66 125.809 209.576C125.746 209.514 125.735 209.409 125.777 209.262L132.611 188.04C132.674 187.831 132.81 187.727 133.02 187.727H136.956C137.166 187.727 137.302 187.831 137.365 188.04L144.23 209.262C144.251 209.304 144.262 209.357 144.262 209.419C144.262 209.608 144.146 209.702 143.915 209.702H140.766ZM131.666 202.858C131.645 202.984 131.687 203.047 131.792 203.047H138.184C138.31 203.047 138.352 202.984 138.31 202.858L135.067 192.341C135.046 192.258 135.014 192.216 134.972 192.216C134.93 192.216 134.899 192.258 134.878 192.341L131.666 202.858ZM147.883 209.702C147.778 209.702 147.694 209.66 147.631 209.576C147.547 209.514 147.505 209.43 147.505 209.325V188.103C147.505 187.999 147.547 187.915 147.631 187.852C147.694 187.768 147.778 187.727 147.883 187.727H150.78C150.885 187.727 150.979 187.768 151.063 187.852C151.126 187.915 151.158 187.999 151.158 188.103V206.406C151.158 206.51 151.21 206.563 151.315 206.563H161.864C161.969 206.563 162.053 206.604 162.116 206.688C162.2 206.751 162.242 206.835 162.242 206.939V209.325C162.242 209.43 162.2 209.514 162.116 209.576C162.053 209.66 161.969 209.702 161.864 209.702H147.883ZM165.863 209.702C165.758 209.702 165.674 209.66 165.611 209.576C165.527 209.514 165.485 209.43 165.485 209.325V188.103C165.485 187.999 165.527 187.915 165.611 187.852C165.674 187.768 165.758 187.727 165.863 187.727H168.76C168.865 187.727 168.96 187.768 169.044 187.852C169.107 187.915 169.138 187.999 169.138 188.103V206.406C169.138 206.51 169.191 206.563 169.296 206.563H179.845C179.95 206.563 180.044 206.604 180.128 206.688C180.191 206.751 180.222 206.835 180.222 206.939V209.325C180.222 209.43 180.191 209.514 180.128 209.576C180.044 209.66 179.95 209.702 179.845 209.702H165.863Z" fill="white"/>
<path d="M110.537 266.4C110.475 266.463 110.454 266.526 110.475 266.589C110.516 266.651 110.579 266.683 110.663 266.683H123.039C123.186 266.683 123.312 266.735 123.417 266.84C123.543 266.944 123.606 267.07 123.606 267.216V271.643C123.606 271.789 123.543 271.915 123.417 272.02C123.312 272.124 123.186 272.177 123.039 272.177H102.508C102.34 272.177 102.203 272.124 102.098 272.02C101.993 271.915 101.941 271.789 101.941 271.643V267.436C101.941 267.164 102.035 266.934 102.224 266.746C103.715 265.301 105.237 263.721 106.79 262.005C108.344 260.289 109.32 259.222 109.719 258.803C110.558 257.798 111.419 256.836 112.301 255.915C115.072 252.859 116.457 250.588 116.457 249.102C116.457 248.035 116.08 247.156 115.324 246.465C114.568 245.796 113.581 245.461 112.364 245.461C111.146 245.461 110.16 245.796 109.404 246.465C108.627 247.156 108.239 248.066 108.239 249.197V250.327C108.239 250.473 108.186 250.599 108.081 250.703C107.976 250.808 107.85 250.86 107.703 250.86H102.319C102.172 250.86 102.046 250.808 101.941 250.703C101.815 250.599 101.752 250.473 101.752 250.327V248.192C101.857 246.56 102.382 245.105 103.326 243.828C104.271 242.573 105.52 241.61 107.074 240.94C108.648 240.27 110.412 239.936 112.364 239.936C114.526 239.936 116.405 240.344 118 241.16C119.596 241.955 120.824 243.033 121.685 244.393C122.566 245.775 123.007 247.292 123.007 248.945C123.007 250.222 122.682 251.53 122.031 252.87C121.401 254.209 120.446 255.653 119.166 257.202C118.221 258.374 117.203 259.546 116.111 260.718C115.019 261.869 113.393 263.533 111.23 265.71L110.537 266.4ZM138.437 272.679C135.078 272.679 132.433 271.748 130.502 269.885C128.549 268.022 127.573 265.479 127.573 262.256V250.233C127.573 247.072 128.549 244.571 130.502 242.73C132.433 240.867 135.078 239.936 138.437 239.936C141.775 239.936 144.431 240.867 146.404 242.73C148.356 244.571 149.332 247.072 149.332 250.233V262.256C149.332 265.479 148.356 268.022 146.404 269.885C144.431 271.748 141.775 272.679 138.437 272.679ZM138.437 267.185C139.802 267.185 140.883 266.766 141.68 265.929C142.499 265.092 142.909 263.972 142.909 262.57V250.044C142.909 248.663 142.499 247.554 141.68 246.717C140.883 245.879 139.802 245.461 138.437 245.461C137.094 245.461 136.023 245.879 135.225 246.717C134.406 247.554 133.997 248.663 133.997 250.044V262.57C133.997 263.972 134.406 265.092 135.225 265.929C136.023 266.766 137.094 267.185 138.437 267.185ZM162.117 266.4C162.054 266.463 162.044 266.526 162.086 266.589C162.107 266.651 162.17 266.683 162.274 266.683H174.65C174.797 266.683 174.923 266.735 175.028 266.84C175.133 266.944 175.185 267.07 175.185 267.216V271.643C175.185 271.789 175.133 271.915 175.028 272.02C174.923 272.124 174.797 272.177 174.65 272.177H154.087C153.94 272.177 153.814 272.124 153.709 272.02C153.604 271.915 153.552 271.789 153.552 271.643V267.436C153.552 267.164 153.636 266.934 153.804 266.746C155.315 265.301 156.837 263.721 158.37 262.005C159.923 260.289 160.899 259.222 161.298 258.803C162.159 257.798 163.03 256.836 163.912 255.915C166.683 252.859 168.069 250.588 168.069 249.102C168.069 248.035 167.691 247.156 166.935 246.465C166.158 245.796 165.161 245.461 163.943 245.461C162.726 245.461 161.739 245.796 160.983 246.465C160.228 247.156 159.85 248.066 159.85 249.197V250.327C159.85 250.473 159.797 250.599 159.692 250.703C159.587 250.808 159.451 250.86 159.283 250.86H153.898C153.751 250.86 153.625 250.808 153.52 250.703C153.415 250.599 153.363 250.473 153.363 250.327V248.192C153.447 246.56 153.961 245.105 154.906 243.828C155.851 242.573 157.11 241.61 158.685 240.94C160.259 240.27 162.012 239.936 163.943 239.936C166.106 239.936 167.985 240.344 169.58 241.16C171.196 241.955 172.435 243.033 173.296 244.393C174.156 245.775 174.587 247.292 174.587 248.945C174.587 250.222 174.272 251.53 173.642 252.87C172.991 254.209 172.026 255.653 170.745 257.202C169.8 258.374 168.782 259.546 167.691 260.718C166.599 261.869 164.972 263.533 162.81 265.71L162.117 266.4ZM183.624 240.438C183.792 240.354 184.023 240.312 184.317 240.312H189.859C190.006 240.312 190.132 240.365 190.237 240.469C190.342 240.574 190.394 240.699 190.394 240.846V271.643C190.394 271.789 190.342 271.915 190.237 272.02C190.132 272.124 190.006 272.177 189.859 272.177H184.506C184.359 272.177 184.233 272.124 184.128 272.02C184.002 271.915 183.939 271.789 183.939 271.643V246.685C183.939 246.622 183.918 246.56 183.876 246.497C183.813 246.434 183.75 246.424 183.687 246.465L179.153 247.69L178.964 247.721C178.691 247.721 178.554 247.554 178.554 247.219L178.429 243.326C178.429 243.012 178.565 242.792 178.838 242.667L183.624 240.438Z" fill="#35353D"/>
</svg>
