<svg width="366" height="367" viewBox="0 0 366 367" fill="none" xmlns="http://www.w3.org/2000/svg">
<path d="M365.53 183.265L182.765 0.5L4.02753e-05 183.265L182.765 366.03L365.53 183.265Z" fill="#C7BAAF"/>
<path d="M355.765 183.264L182.766 10.2654L9.76642 183.264L182.766 356.264L355.765 183.264Z" fill="#F06A2B"/>
<path d="M344.603 183.265L182.766 21.427L20.9276 183.265L182.766 345.103L344.603 183.265Z" fill="white"/>
<path fill-rule="evenodd" clip-rule="evenodd" d="M118.875 239.239L121.772 245.408L128.248 246.399L123.561 251.2L124.669 257.983L118.875 254.781L113.083 257.983L114.19 251.2L109.504 246.399L115.98 245.408L118.875 239.239Z" fill="#FFCB00"/>
<path fill-rule="evenodd" clip-rule="evenodd" d="M247.125 239.239L250.021 245.408L256.497 246.399L251.81 251.2L252.918 257.983L247.125 254.781L241.332 257.983L242.439 251.2L237.753 246.399L244.229 245.408L247.125 239.239Z" fill="#FFCB00"/>
<path fill-rule="evenodd" clip-rule="evenodd" d="M178.452 49.8242H185.804C186.163 49.8242 186.455 50.1156 186.455 50.475V50.7374C186.455 50.987 186.36 51.2274 186.19 51.41L163.079 76.2122C162.726 76.5903 162.726 77.1762 163.077 77.5552L181.348 97.2715C181.695 97.6467 181.699 98.2255 181.355 98.6045L178.006 102.3C177.64 102.704 177.016 102.734 176.613 102.369C176.592 102.35 176.572 102.33 176.552 102.309L153.537 77.5539C153.185 77.1756 153.185 76.5899 153.536 76.2112L177.728 50.1397C177.915 49.9385 178.177 49.8242 178.452 49.8242Z" fill="#F06A2A"/>
<path fill-rule="evenodd" clip-rule="evenodd" d="M187.526 107.043H180.205C179.843 107.043 179.549 106.749 179.549 106.386V106.112C179.549 105.866 179.64 105.629 179.806 105.447L202.912 80.068C203.254 79.6919 203.255 79.117 202.913 78.7405L184.661 58.6472C184.321 58.2729 184.319 57.7021 184.656 57.3256L187.999 53.5953C188.362 53.1895 188.986 53.1553 189.392 53.5189C189.416 53.5406 189.439 53.5635 189.461 53.5876L212.483 78.7407C212.827 79.1168 212.828 79.6932 212.485 80.0705L188.256 106.72C188.069 106.925 187.804 107.043 187.526 107.043Z" fill="#F06A2A"/>
<path fill-rule="evenodd" clip-rule="evenodd" d="M184.213 91.2616C189.005 91.2616 192.785 85.867 192.337 80.0989C192.138 77.5325 190.582 72.9383 190.054 73.7557C189.794 74.1594 190.385 77.3115 190.191 79.2397C189.869 82.4451 188.657 84.3971 188.037 83.2559C187.417 82.1147 187.63 79.8624 187.48 77.4917C187.316 74.9212 186.891 72.3612 186.363 70.7734C186.132 70.0809 183.963 64.1946 182.399 63.6389C182.298 63.6389 182.234 63.6389 182.208 63.6389C182.157 63.6389 182.014 63.6881 181.927 63.7661C181.582 64.0731 182.1 66.0935 180.665 68.5543C179.722 70.1697 177.886 72.2759 176.986 74.3439C175.767 77.144 175.549 79.8879 175.612 81.3369C175.885 87.6578 179.421 91.2616 184.213 91.2616Z" fill="#F06A2A"/>
<path fill-rule="evenodd" clip-rule="evenodd" d="M66.4405 147.491H299.098L335.42 183.5L299.098 219.508H66.4405L30.5844 183.5L66.4405 147.491Z" fill="url(#paint0_linear_3411_74028)"/>
<path fill-rule="evenodd" clip-rule="evenodd" d="M105.725 122.349C105.655 122.492 105.554 122.565 105.383 122.565C105.282 122.565 105.145 122.492 104.974 122.314C104.806 122.137 104.565 121.962 104.293 121.785C103.984 121.569 103.642 121.395 103.199 121.252C102.756 121.074 102.21 121.001 101.562 121.001C100.911 121.001 100.368 121.113 99.8548 121.287C99.3785 121.464 98.9692 121.747 98.6271 122.067C98.2849 122.387 98.0467 122.774 97.8757 123.199C97.7046 123.624 97.6039 124.087 97.6039 124.547C97.6039 125.184 97.7415 125.682 97.9763 126.107C98.2178 126.493 98.56 126.849 99.0028 127.134C99.412 127.416 99.8884 127.664 100.435 127.841C100.982 128.057 101.529 128.231 102.075 128.409C102.619 128.587 103.166 128.799 103.712 129.046C104.259 129.259 104.702 129.579 105.145 129.896C105.588 130.217 105.896 130.68 106.168 131.171C106.409 131.669 106.544 132.306 106.544 133.051C106.544 133.832 106.409 134.539 106.168 135.211C105.93 135.886 105.554 136.489 105.078 136.983C104.601 137.481 103.984 137.868 103.303 138.188C102.585 138.471 101.8 138.613 100.911 138.613C99.7542 138.613 98.7311 138.401 97.9092 137.976C97.0572 137.551 96.3393 136.945 95.6919 136.207L96.0341 135.636C96.1347 135.493 96.2387 135.461 96.3729 135.461C96.4433 135.461 96.5439 135.493 96.6479 135.604C96.7486 135.709 96.9196 135.852 97.0572 135.991C97.2282 136.134 97.4329 136.311 97.671 136.489C97.9092 136.663 98.1809 136.841 98.4895 136.983C98.7981 137.126 99.1403 137.266 99.5495 137.37C99.9588 137.481 100.402 137.513 100.911 137.513C101.629 137.513 102.243 137.408 102.79 137.196C103.337 136.983 103.813 136.663 104.189 136.311C104.565 135.956 104.873 135.461 105.078 134.963C105.282 134.434 105.383 133.866 105.383 133.299C105.383 132.661 105.245 132.132 105.011 131.707C104.769 131.279 104.427 130.924 103.984 130.641C103.575 130.359 103.099 130.112 102.552 129.934C102.005 129.757 101.462 129.541 100.911 129.367C100.368 129.189 99.8213 128.973 99.2745 128.764C98.7311 128.548 98.2849 128.266 97.8421 127.914C97.4329 127.559 97.0907 127.134 96.819 126.601C96.5775 126.069 96.4433 125.435 96.4433 124.616C96.4433 124.017 96.5439 123.415 96.7821 122.847C97.0236 122.276 97.3322 121.785 97.7717 121.322C98.2178 120.897 98.7311 120.542 99.3785 120.259C100.026 120.012 100.744 119.869 101.562 119.869C102.485 119.869 103.303 120.012 104.051 120.333C104.769 120.65 105.45 121.113 106.067 121.712L105.725 122.349Z" fill="black" stroke="black" stroke-width="0.493261"/>
<path fill-rule="evenodd" clip-rule="evenodd" d="M124.132 129.24C124.132 127.973 123.958 126.811 123.61 125.791C123.266 124.77 122.779 123.926 122.155 123.224C121.532 122.518 120.768 121.989 119.869 121.605C118.966 121.217 117.995 121.041 116.922 121.041C115.845 121.041 114.877 121.217 113.974 121.605C113.071 121.989 112.311 122.518 111.688 123.224C111.064 123.926 110.543 124.77 110.195 125.791C109.848 126.811 109.674 127.939 109.674 129.24C109.674 130.506 109.848 131.668 110.195 132.689C110.543 133.709 111.027 134.553 111.688 135.259C112.311 135.961 113.071 136.49 113.974 136.878C114.877 137.262 115.845 137.442 116.922 137.442C117.995 137.442 119 137.262 119.869 136.878C120.768 136.525 121.532 135.961 122.155 135.259C122.779 134.553 123.266 133.709 123.61 132.689C123.958 131.668 124.132 130.544 124.132 129.24ZM125.288 129.241C125.288 130.651 125.085 131.919 124.679 133.082C124.272 134.246 123.696 135.23 122.953 136.043C122.207 136.85 121.328 137.488 120.309 137.945C119.293 138.406 118.14 138.613 116.888 138.613C115.665 138.613 114.516 138.406 113.497 137.945C112.481 137.488 111.602 136.889 110.852 136.043C110.109 135.23 109.533 134.246 109.127 133.082C108.721 131.919 108.517 130.651 108.517 129.241C108.517 127.835 108.721 126.564 109.127 125.404C109.533 124.24 110.109 123.253 110.852 122.443C111.602 121.632 112.481 120.995 113.497 120.538C114.516 120.081 115.665 119.869 116.888 119.869C118.14 119.869 119.293 120.081 120.309 120.538C121.328 120.995 122.207 121.598 122.953 122.443C123.696 123.253 124.272 124.24 124.679 125.404C125.085 126.564 125.288 127.835 125.288 129.241Z" fill="black" stroke="black" stroke-width="0.493261"/>
<path fill-rule="evenodd" clip-rule="evenodd" d="M134.693 137.438C135.506 137.438 136.222 137.294 136.875 136.971C137.524 136.648 138.046 136.22 138.5 135.686C138.958 135.153 139.281 134.472 139.508 133.76C139.738 133.009 139.866 132.226 139.866 131.331V119.869H141.072V131.331C141.072 132.367 140.909 133.293 140.618 134.188C140.324 135.079 139.898 135.83 139.348 136.508C138.794 137.15 138.11 137.687 137.329 138.045C136.549 138.399 135.637 138.613 134.661 138.613C133.686 138.613 132.771 138.434 131.99 138.045C131.21 137.652 130.528 137.15 129.972 136.508C129.421 135.865 128.996 135.079 128.705 134.188C128.41 133.293 128.247 132.331 128.247 131.331V119.869H129.485V131.296C129.485 132.152 129.616 132.974 129.844 133.721C130.071 134.472 130.429 135.114 130.851 135.651C131.309 136.188 131.827 136.616 132.48 136.936C133.129 137.294 133.881 137.438 134.693 137.438Z" fill="black" stroke="black" stroke-width="0.493261"/>
<path fill-rule="evenodd" clip-rule="evenodd" d="M149.709 128.627H150.058H150.903C151.79 128.627 152.601 128.526 153.295 128.355C153.989 128.146 154.607 127.907 155.07 127.534C155.57 127.188 155.919 126.744 156.188 126.266C156.457 125.785 156.575 125.203 156.575 124.591C156.575 123.323 156.112 122.398 155.187 121.783C154.262 121.168 152.909 120.858 151.096 120.858H147.434V128.627V129.586V137.627H146.005V119.869H151.096C153.413 119.869 155.149 120.28 156.264 121.067C157.424 121.85 157.962 123.014 157.962 124.554C157.962 125.24 157.845 125.856 157.579 126.404C157.306 126.949 156.92 127.463 156.419 127.874C155.919 128.284 155.339 128.661 154.645 128.899C153.951 129.175 153.14 129.347 152.294 129.448C152.526 129.586 152.715 129.757 152.909 129.959L159.816 137.627H158.542C158.387 137.627 158.273 137.59 158.156 137.556C158.042 137.526 157.924 137.418 157.845 137.317L151.445 130.13C151.29 129.959 151.096 129.824 150.945 129.757C150.751 129.686 149.629 129.656 149.246 129.656C149.246 128.728 149.398 128.627 149.709 128.627Z" fill="black" stroke="black" stroke-width="0.493261"/>
<path fill-rule="evenodd" clip-rule="evenodd" d="M171.968 135.331C172.034 135.331 172.129 135.369 172.161 135.435L172.642 136.001C172.29 136.393 171.936 136.778 171.515 137.097C171.097 137.416 170.648 137.697 170.164 137.909C169.683 138.121 169.132 138.294 168.587 138.44C168.008 138.582 167.363 138.613 166.689 138.613C165.527 138.613 164.464 138.402 163.498 137.944C162.533 137.486 161.694 136.882 161.02 136.035C160.343 135.227 159.796 134.238 159.409 133.072C159.023 131.91 158.83 130.636 158.83 129.224C158.83 127.85 159.023 126.577 159.441 125.414C159.83 124.248 160.41 123.294 161.115 122.447C161.824 121.636 162.695 120.997 163.692 120.539C164.692 120.081 165.818 119.869 167.008 119.869C167.619 119.869 168.167 119.904 168.682 120.012C169.198 120.116 169.651 120.258 170.1 120.435C170.55 120.612 170.936 120.858 171.322 121.139C171.708 121.42 172.097 121.74 172.449 122.094L172.097 122.659C172.034 122.763 171.936 122.801 171.806 122.801C171.743 122.801 171.645 122.763 171.55 122.659C171.452 122.552 171.29 122.447 171.129 122.305C170.971 122.163 170.743 122.024 170.518 121.882C170.293 121.705 170.002 121.563 169.651 121.459C169.328 121.316 168.939 121.212 168.489 121.105C168.072 120.997 167.556 120.962 167.008 120.962C165.977 120.962 165.043 121.139 164.207 121.528C163.372 121.917 162.631 122.447 162.017 123.187C161.406 123.894 160.922 124.776 160.568 125.765C160.217 126.753 160.055 127.916 160.055 129.186C160.055 130.494 160.217 131.625 160.568 132.649C160.922 133.669 161.375 134.519 161.986 135.227C162.6 135.931 163.305 136.459 164.112 136.847C164.916 137.239 165.818 137.416 166.752 137.416C167.363 137.416 167.879 137.378 168.36 137.274C168.844 137.201 169.265 137.062 169.651 136.882C170.037 136.705 170.423 136.497 170.743 136.25C171.097 136.001 171.42 135.719 171.743 135.369C171.774 135.331 171.806 135.296 171.838 135.296C171.869 135.369 171.936 135.331 171.968 135.331Z" fill="black" stroke="black" stroke-width="0.493261"/>
<path fill-rule="evenodd" clip-rule="evenodd" d="M187.44 119.869V120.931H177.05V128.131H185.689V129.159H177.05V136.565H187.44V137.627H175.602V119.869H187.44Z" fill="black" stroke="black" stroke-width="0.493261"/>
<path fill-rule="evenodd" clip-rule="evenodd" d="M202.237 119.869V122.663H193.213V128.2H200.818V130.99H193.213V138.613H189.412V119.908H202.237V119.869Z" fill="black"/>
<path fill-rule="evenodd" clip-rule="evenodd" d="M218.452 129.241C218.452 128.242 218.312 127.344 218.032 126.555C217.755 125.762 217.376 125.075 216.887 124.519C216.398 123.967 215.773 123.554 215.046 123.245C214.314 122.937 213.515 122.798 212.613 122.798C211.708 122.798 210.908 122.937 210.181 123.245C209.449 123.554 208.858 123.967 208.336 124.519C207.816 125.075 207.434 125.762 207.154 126.555C206.877 127.344 206.737 128.242 206.737 129.241C206.737 130.241 206.877 131.138 207.154 131.931C207.434 132.72 207.816 133.411 208.336 133.964C208.858 134.516 209.449 134.929 210.181 135.241C210.908 135.549 211.708 135.685 212.613 135.685C213.515 135.685 214.314 135.549 215.046 135.241C215.773 134.929 216.364 134.516 216.887 133.964C217.376 133.411 217.755 132.72 218.032 131.931C218.312 131.138 218.452 130.241 218.452 129.241ZM221.966 129.241C221.966 130.591 221.757 131.838 221.305 132.977C220.853 134.119 220.226 135.119 219.387 135.952C218.589 136.781 217.579 137.437 216.428 137.923C215.278 138.406 213.99 138.613 212.596 138.613C211.202 138.613 209.911 138.375 208.76 137.923C207.613 137.437 206.637 136.818 205.801 135.952C204.962 135.119 204.335 134.119 203.883 132.977C203.431 131.838 203.222 130.591 203.222 129.241C203.222 127.895 203.431 126.648 203.883 125.505C204.335 124.363 204.962 123.364 205.801 122.531C206.637 121.702 207.613 121.046 208.76 120.559C209.911 120.077 211.202 119.869 212.596 119.869C213.99 119.869 215.278 120.111 216.428 120.597C217.579 121.083 218.552 121.739 219.387 122.568C220.189 123.398 220.853 124.401 221.305 125.543C221.723 126.648 221.966 127.895 221.966 129.241Z" fill="black"/>
<path fill-rule="evenodd" clip-rule="evenodd" d="M228.225 128.781H228.939C229.528 128.781 230.026 128.708 230.459 128.534C230.895 128.356 231.237 128.144 231.518 127.859C231.796 127.578 232.012 127.226 232.138 126.834C232.263 126.448 232.354 125.985 232.354 125.526C232.354 124.57 232.077 123.83 231.518 123.336C230.959 122.839 230.12 122.557 229 122.557H227.016V128.781V131.294V138.613H223.94V119.869H228.97C230.087 119.869 231.051 120.012 231.857 120.259C232.666 120.502 233.316 120.892 233.816 121.351C234.311 121.813 234.714 122.414 234.933 123.054C235.18 123.722 235.306 124.431 235.306 125.241C235.306 125.881 235.211 126.482 235.055 127.049C234.903 127.612 234.652 128.11 234.341 128.569C234.03 129.028 233.657 129.42 233.194 129.772C232.727 130.126 232.229 130.408 231.64 130.589C232.012 130.832 232.354 131.187 232.635 131.646L236.764 138.579H234.002C233.722 138.579 233.502 138.509 233.316 138.405C233.129 138.297 232.977 138.123 232.852 137.873L229.406 131.861C229.311 131.719 229.125 131.399 228.939 131.364H227.852V129.101C227.883 128.781 228.225 128.781 228.225 128.781Z" fill="black"/>
<path fill-rule="evenodd" clip-rule="evenodd" d="M247.599 135.956C248.385 135.956 249.097 135.885 249.669 135.746C250.24 135.61 250.812 135.403 251.345 135.162V131.019H248.992C248.778 131.019 248.599 130.948 248.455 130.846C248.315 130.707 248.241 130.571 248.241 130.398V128.464H254.522V136.683C254.059 137.025 253.558 137.3 253.021 137.544C252.488 137.785 251.952 137.996 251.345 138.165C250.742 138.338 250.135 138.44 249.455 138.512C248.778 138.579 248.062 138.613 247.28 138.613C245.888 138.613 244.639 138.372 243.461 137.925C242.283 137.473 241.283 136.818 240.462 135.99C239.607 135.162 238.965 134.161 238.467 133.021C238 131.885 237.751 130.605 237.751 129.258C237.751 127.877 237.965 126.635 238.432 125.461C238.895 124.321 239.537 123.32 240.392 122.492C241.248 121.664 242.283 121.009 243.496 120.562C244.71 120.11 246.067 119.869 247.564 119.869C249.097 119.869 250.454 120.076 251.559 120.524C252.702 120.976 253.632 121.563 254.414 122.251L253.379 123.805C253.165 124.118 252.916 124.291 252.593 124.291C252.38 124.291 252.166 124.219 251.952 124.08C251.668 123.907 251.384 123.768 251.096 123.595C250.812 123.425 250.489 123.29 250.135 123.181C249.777 123.079 249.384 122.978 248.957 122.906C248.529 122.838 247.992 122.804 247.421 122.804C246.495 122.804 245.635 122.94 244.888 123.252C244.138 123.565 243.496 123.979 242.963 124.566C242.426 125.119 242.034 125.807 241.75 126.601C241.462 127.395 241.318 128.291 241.318 129.258C241.318 130.331 241.462 131.26 241.785 132.088C242.107 132.916 242.535 133.608 243.068 134.161C243.605 134.715 244.282 135.162 245.032 135.471C245.779 135.783 246.709 135.956 247.599 135.956Z" fill="black"/>
<path fill-rule="evenodd" clip-rule="evenodd" d="M266.517 131.082H260.335V135.819H269.321V138.613H256.496V119.869H269.321V122.667H260.297V128.43H267.4V130.48C267.4 130.48 267.362 131.082 266.517 131.082Z" fill="black"/>
<path d="M59.9377 193.341V169.051H50.8639V165.801H72.6936V169.051H63.5822V193.341H59.9377ZM70.4768 183.366C70.4768 179.671 71.5038 176.935 73.5578 175.156C75.2736 173.678 77.3651 172.939 79.8324 172.939C82.5752 172.939 84.8171 173.841 86.5579 175.645C88.2988 177.436 89.1692 179.915 89.1692 183.084C89.1692 185.651 88.781 187.674 88.0045 189.152C87.2405 190.617 86.1196 191.757 84.6417 192.571C83.1764 193.385 81.5733 193.792 79.8324 193.792C77.0395 193.792 74.7789 192.897 73.0506 191.106C71.3347 189.315 70.4768 186.735 70.4768 183.366ZM73.9523 183.366C73.9523 185.921 74.5096 187.837 75.6243 189.114C76.7389 190.379 78.1416 191.012 79.8324 191.012C81.5107 191.012 82.9071 190.373 84.0218 189.096C85.1364 187.818 85.6938 185.871 85.6938 183.253C85.6938 180.786 85.1302 178.92 84.003 177.655C82.8883 176.377 81.4981 175.739 79.8324 175.739C78.1416 175.739 76.7389 176.371 75.6243 177.636C74.5096 178.901 73.9523 180.811 73.9523 183.366ZM93.1519 200.987V173.39H96.2329V175.983C96.9593 174.968 97.7796 174.211 98.6939 173.71C99.6082 173.196 100.717 172.939 102.019 172.939C103.722 172.939 105.225 173.378 106.528 174.254C107.83 175.131 108.813 176.371 109.477 177.974C110.141 179.565 110.473 181.312 110.473 183.215C110.473 185.257 110.103 187.098 109.365 188.739C108.638 190.367 107.574 191.619 106.171 192.496C104.781 193.36 103.315 193.792 101.775 193.792C100.648 193.792 99.6332 193.554 98.7315 193.078C97.8422 192.602 97.1096 192.001 96.5335 191.275V200.987H93.1519ZM96.2141 183.478C96.2141 186.046 96.7338 187.943 97.7734 189.171C98.8129 190.398 100.072 191.012 101.549 191.012C103.052 191.012 104.336 190.379 105.401 189.114C106.478 187.837 107.016 185.864 107.016 183.197C107.016 180.654 106.49 178.751 105.438 177.486C104.399 176.221 103.153 175.588 101.7 175.588C100.259 175.588 98.9819 176.265 97.8673 177.617C96.7652 178.957 96.2141 180.911 96.2141 183.478ZM125.709 193.341V165.801H136.097C137.926 165.801 139.322 165.888 140.287 166.064C141.639 166.289 142.773 166.721 143.687 167.36C144.601 167.986 145.334 168.869 145.885 170.009C146.449 171.148 146.731 172.401 146.731 173.766C146.731 176.108 145.985 178.093 144.495 179.721C143.005 181.337 140.312 182.145 136.417 182.145H129.353V193.341H125.709ZM129.353 178.895H136.473C138.828 178.895 140.5 178.456 141.489 177.58C142.479 176.703 142.973 175.469 142.973 173.879C142.973 172.726 142.679 171.743 142.09 170.929C141.514 170.103 140.75 169.558 139.798 169.295C139.185 169.132 138.051 169.051 136.398 169.051H129.353V178.895ZM164.596 186.916L168.091 187.348C167.54 189.39 166.519 190.974 165.028 192.101C163.538 193.229 161.634 193.792 159.317 193.792C156.399 193.792 154.082 192.897 152.366 191.106C150.663 189.302 149.811 186.779 149.811 183.535C149.811 180.178 150.676 177.573 152.404 175.72C154.132 173.866 156.374 172.939 159.13 172.939C161.797 172.939 163.976 173.847 165.667 175.663C167.358 177.479 168.203 180.034 168.203 183.328C168.203 183.529 168.197 183.829 168.185 184.23H153.306C153.431 186.422 154.051 188.1 155.166 189.265C156.28 190.429 157.67 191.012 159.336 191.012C160.576 191.012 161.634 190.686 162.511 190.035C163.388 189.384 164.083 188.344 164.596 186.916ZM153.494 181.45H164.634C164.484 179.771 164.058 178.513 163.356 177.674C162.279 176.371 160.883 175.72 159.167 175.72C157.614 175.72 156.305 176.239 155.241 177.279C154.189 178.319 153.606 179.709 153.494 181.45ZM172.318 193.341V173.39H175.361V176.415C176.137 175 176.851 174.067 177.503 173.616C178.166 173.165 178.893 172.939 179.682 172.939C180.821 172.939 181.98 173.303 183.157 174.029L181.992 177.166C181.166 176.678 180.339 176.434 179.513 176.434C178.774 176.434 178.11 176.659 177.521 177.11C176.933 177.548 176.513 178.162 176.263 178.951C175.887 180.153 175.699 181.468 175.699 182.896V193.341H172.318ZM185.975 193.341V176.02H182.988V173.39H185.975V171.267C185.975 169.927 186.094 168.932 186.332 168.28C186.658 167.404 187.228 166.696 188.042 166.157C188.868 165.606 190.02 165.331 191.498 165.331C192.45 165.331 193.502 165.444 194.654 165.669L194.147 168.619C193.446 168.493 192.782 168.431 192.156 168.431C191.129 168.431 190.402 168.65 189.977 169.088C189.551 169.527 189.338 170.347 189.338 171.549V173.39H193.227V176.02H189.338V193.341H185.975ZM194.617 183.366C194.617 179.671 195.644 176.935 197.698 175.156C199.414 173.678 201.505 172.939 203.972 172.939C206.715 172.939 208.957 173.841 210.698 175.645C212.439 177.436 213.309 179.915 213.309 183.084C213.309 185.651 212.921 187.674 212.145 189.152C211.381 190.617 210.26 191.757 208.782 192.571C207.316 193.385 205.713 193.792 203.972 193.792C201.18 193.792 198.919 192.897 197.191 191.106C195.475 189.315 194.617 186.735 194.617 183.366ZM198.092 183.366C198.092 185.921 198.65 187.837 199.764 189.114C200.879 190.379 202.282 191.012 203.972 191.012C205.651 191.012 207.047 190.373 208.162 189.096C209.276 187.818 209.834 185.871 209.834 183.253C209.834 180.786 209.27 178.92 208.143 177.655C207.028 176.377 205.638 175.739 203.972 175.739C202.282 175.739 200.879 176.371 199.764 177.636C198.65 178.901 198.092 180.811 198.092 183.366ZM217.254 193.341V173.39H220.298V176.415C221.074 175 221.788 174.067 222.439 173.616C223.103 173.165 223.83 172.939 224.619 172.939C225.758 172.939 226.917 173.303 228.094 174.029L226.929 177.166C226.103 176.678 225.276 176.434 224.45 176.434C223.711 176.434 223.047 176.659 222.458 177.11C221.87 177.548 221.45 178.162 221.2 178.951C220.824 180.153 220.636 181.468 220.636 182.896V193.341H217.254ZM230.104 193.341V173.39H233.129V176.189C233.755 175.213 234.588 174.43 235.627 173.841C236.667 173.24 237.85 172.939 239.178 172.939C240.656 172.939 241.864 173.246 242.804 173.86C243.756 174.474 244.426 175.331 244.814 176.434C246.392 174.104 248.446 172.939 250.976 172.939C252.955 172.939 254.476 173.49 255.541 174.593C256.605 175.682 257.138 177.367 257.138 179.646V193.341H253.775V180.773C253.775 179.421 253.662 178.45 253.437 177.861C253.224 177.26 252.829 176.778 252.253 176.415C251.677 176.052 251.001 175.87 250.224 175.87C248.822 175.87 247.657 176.34 246.73 177.279C245.803 178.206 245.34 179.696 245.34 181.75V193.341H241.958V180.379C241.958 178.876 241.683 177.749 241.132 176.997C240.581 176.246 239.679 175.87 238.427 175.87C237.475 175.87 236.592 176.121 235.778 176.621C234.976 177.122 234.394 177.855 234.031 178.819C233.667 179.784 233.486 181.174 233.486 182.99V193.341H230.104ZM275.811 186.916L279.306 187.348C278.755 189.39 277.734 190.974 276.243 192.101C274.753 193.229 272.849 193.792 270.532 193.792C267.614 193.792 265.297 192.897 263.581 191.106C261.878 189.302 261.027 186.779 261.027 183.535C261.027 180.178 261.891 177.573 263.619 175.72C265.347 173.866 267.589 172.939 270.345 172.939C273.012 172.939 275.191 173.847 276.882 175.663C278.573 177.479 279.418 180.034 279.418 183.328C279.418 183.529 279.412 183.829 279.4 184.23H264.521C264.646 186.422 265.266 188.1 266.381 189.265C267.495 190.429 268.885 191.012 270.551 191.012C271.791 191.012 272.849 190.686 273.726 190.035C274.603 189.384 275.298 188.344 275.811 186.916ZM264.709 181.45H275.849C275.699 179.771 275.273 178.513 274.571 177.674C273.494 176.371 272.098 175.72 270.382 175.72C268.829 175.72 267.52 176.239 266.456 177.279C265.404 178.319 264.821 179.709 264.709 181.45ZM283.533 193.341V173.39H286.576V176.415C287.352 175 288.066 174.067 288.718 173.616C289.381 173.165 290.108 172.939 290.897 172.939C292.036 172.939 293.195 173.303 294.372 174.029L293.208 177.166C292.381 176.678 291.554 176.434 290.728 176.434C289.989 176.434 289.325 176.659 288.736 177.11C288.148 177.548 287.728 178.162 287.478 178.951C287.102 180.153 286.914 181.468 286.914 182.896V193.341H283.533Z" fill="black"/>
<path d="M146.194 253.415L140.573 232.229H143.448L146.671 246.117C147.018 247.572 147.317 249.017 147.567 250.452C148.107 248.188 148.424 246.883 148.521 246.536L152.553 232.229H155.934L158.969 242.952C159.73 245.611 160.279 248.111 160.616 250.452C160.886 249.113 161.238 247.576 161.671 245.842L164.995 232.229H167.813L162.004 253.415H159.301L154.836 237.273C154.46 235.924 154.239 235.095 154.171 234.787C153.95 235.76 153.742 236.589 153.55 237.273L149.055 253.415H146.194ZM170.125 235.221V232.229H172.726V235.221H170.125ZM170.125 253.415V238.068H172.726V253.415H170.125ZM176.7 253.415V238.068H179.041V240.25C180.169 238.564 181.797 237.721 183.926 237.721C184.851 237.721 185.698 237.889 186.469 238.227C187.25 238.554 187.832 238.988 188.218 239.527C188.603 240.067 188.873 240.707 189.027 241.449C189.123 241.931 189.171 242.774 189.171 243.978V253.415H186.57V244.079C186.57 243.019 186.469 242.229 186.267 241.709C186.065 241.179 185.703 240.76 185.183 240.452C184.672 240.134 184.07 239.975 183.377 239.975C182.269 239.975 181.31 240.327 180.501 241.03C179.701 241.733 179.301 243.068 179.301 245.033V253.415H176.7ZM198.854 251.088L199.229 253.386C198.497 253.54 197.842 253.617 197.264 253.617C196.32 253.617 195.588 253.468 195.068 253.169C194.547 252.87 194.181 252.48 193.969 251.998C193.757 251.507 193.651 250.481 193.651 248.92V240.091H191.744V238.068H193.651V234.267L196.238 232.706V238.068H198.854V240.091H196.238V249.065C196.238 249.807 196.281 250.283 196.368 250.495C196.464 250.707 196.614 250.876 196.816 251.001C197.028 251.126 197.327 251.189 197.712 251.189C198.001 251.189 198.382 251.155 198.854 251.088ZM211.917 248.472L214.605 248.805C214.181 250.375 213.396 251.594 212.25 252.461C211.103 253.328 209.639 253.761 207.857 253.761C205.612 253.761 203.83 253.073 202.51 251.695C201.2 250.308 200.544 248.366 200.544 245.871C200.544 243.289 201.209 241.285 202.539 239.859C203.868 238.434 205.593 237.721 207.712 237.721C209.764 237.721 211.441 238.419 212.741 239.816C214.042 241.213 214.692 243.178 214.692 245.712C214.692 245.866 214.687 246.098 214.678 246.406H203.232C203.329 248.092 203.806 249.383 204.663 250.279C205.52 251.175 206.59 251.623 207.871 251.623C208.825 251.623 209.639 251.372 210.313 250.871C210.988 250.37 211.522 249.571 211.917 248.472ZM203.377 244.267H211.946C211.831 242.976 211.503 242.008 210.964 241.362C210.135 240.36 209.061 239.859 207.741 239.859C206.546 239.859 205.54 240.259 204.721 241.059C203.912 241.859 203.464 242.928 203.377 244.267ZM217.857 253.415V238.068H220.198V240.394C220.795 239.306 221.344 238.588 221.845 238.241C222.356 237.894 222.915 237.721 223.522 237.721C224.398 237.721 225.289 238 226.195 238.559L225.299 240.972C224.663 240.596 224.027 240.409 223.391 240.409C222.823 240.409 222.312 240.582 221.86 240.929C221.407 241.266 221.084 241.738 220.891 242.345C220.602 243.27 220.458 244.282 220.458 245.38V253.415H217.857Z" fill="black"/>
<path d="M164.952 286.426V288.927H150.949C150.93 288.3 151.031 287.698 151.253 287.12C151.609 286.166 152.177 285.227 152.958 284.302C153.748 283.377 154.885 282.308 156.368 281.094C158.671 279.206 160.227 277.713 161.036 276.614C161.845 275.506 162.25 274.461 162.25 273.478C162.25 272.448 161.879 271.58 161.137 270.877C160.405 270.164 159.446 269.808 158.261 269.808C157.009 269.808 156.007 270.184 155.255 270.935C154.504 271.686 154.123 272.727 154.114 274.056L151.44 273.782C151.623 271.788 152.312 270.27 153.507 269.23C154.701 268.18 156.306 267.655 158.319 267.655C160.352 267.655 161.961 268.218 163.146 269.345C164.331 270.473 164.923 271.869 164.923 273.536C164.923 274.384 164.75 275.217 164.403 276.036C164.056 276.855 163.478 277.717 162.669 278.623C161.869 279.529 160.535 280.771 158.666 282.351C157.105 283.662 156.103 284.553 155.66 285.025C155.217 285.487 154.851 285.954 154.562 286.426H164.952ZM167.756 278.478C167.756 275.974 168.011 273.96 168.521 272.438C169.042 270.906 169.808 269.726 170.819 268.897C171.84 268.069 173.122 267.655 174.663 267.655C175.8 267.655 176.797 267.886 177.655 268.348C178.512 268.801 179.22 269.461 179.779 270.328C180.338 271.185 180.776 272.236 181.094 273.478C181.412 274.712 181.571 276.378 181.571 278.478C181.571 280.964 181.315 282.973 180.805 284.505C180.294 286.027 179.528 287.207 178.507 288.045C177.496 288.874 176.214 289.288 174.663 289.288C172.621 289.288 171.017 288.556 169.851 287.091C168.454 285.328 167.756 282.457 167.756 278.478ZM170.429 278.478C170.429 281.956 170.834 284.273 171.643 285.429C172.462 286.576 173.469 287.149 174.663 287.149C175.858 287.149 176.86 286.571 177.669 285.415C178.488 284.259 178.897 281.947 178.897 278.478C178.897 274.991 178.488 272.674 177.669 271.527C176.86 270.381 175.848 269.808 174.634 269.808C173.44 269.808 172.486 270.314 171.773 271.325C170.877 272.616 170.429 275.001 170.429 278.478ZM197.9 286.426V288.927H183.897C183.878 288.3 183.979 287.698 184.201 287.12C184.557 286.166 185.126 285.227 185.906 284.302C186.696 283.377 187.833 282.308 189.316 281.094C191.619 279.206 193.175 277.713 193.984 276.614C194.793 275.506 195.198 274.461 195.198 273.478C195.198 272.448 194.827 271.58 194.085 270.877C193.353 270.164 192.395 269.808 191.21 269.808C189.957 269.808 188.955 270.184 188.204 270.935C187.452 271.686 187.072 272.727 187.062 274.056L184.389 273.782C184.572 271.788 185.261 270.27 186.455 269.23C187.65 268.18 189.254 267.655 191.267 267.655C193.3 267.655 194.909 268.218 196.094 269.345C197.279 270.473 197.871 271.869 197.871 273.536C197.871 274.384 197.698 275.217 197.351 276.036C197.004 276.855 196.426 277.717 195.617 278.623C194.818 279.529 193.483 280.771 191.614 282.351C190.053 283.662 189.052 284.553 188.608 285.025C188.165 285.487 187.799 285.954 187.51 286.426H197.9ZM214.375 286.426V288.927H200.372C200.352 288.3 200.453 287.698 200.675 287.12C201.031 286.166 201.6 285.227 202.38 284.302C203.17 283.377 204.307 282.308 205.791 281.094C208.093 279.206 209.649 277.713 210.458 276.614C211.268 275.506 211.672 274.461 211.672 273.478C211.672 272.448 211.301 271.58 210.559 270.877C209.827 270.164 208.869 269.808 207.684 269.808C206.431 269.808 205.429 270.184 204.678 270.935C203.926 271.686 203.546 272.727 203.536 274.056L200.863 273.782C201.046 271.788 201.735 270.27 202.929 269.23C204.124 268.18 205.728 267.655 207.742 267.655C209.774 267.655 211.383 268.218 212.568 269.345C213.753 270.473 214.346 271.869 214.346 273.536C214.346 274.384 214.172 275.217 213.825 276.036C213.479 276.855 212.901 277.717 212.091 278.623C211.292 279.529 209.957 280.771 208.088 282.351C206.528 283.662 205.526 284.553 205.083 285.025C204.639 285.487 204.273 285.954 203.984 286.426H214.375Z" fill="black"/>
<defs>
<linearGradient id="paint0_linear_3411_74028" x1="634.282" y1="175.911" x2="308.208" y2="296.445" gradientUnits="userSpaceOnUse">
<stop stop-color="#FFCB00"/>
<stop offset="1" stop-color="#F06A2B"/>
</linearGradient>
</defs>
</svg>
