<svg width="37" height="33" viewBox="0 0 37 33" fill="none" xmlns="http://www.w3.org/2000/svg">
<path d="M7.11739 9.25716C8.39041 9.25716 9.08067 8.64394 9.08067 7.28689C9.08448 7.02709 9.03631 6.76917 8.939 6.52839C8.84168 6.28762 8.69721 6.0689 8.51414 5.88517C8.33107 5.70145 8.11311 5.55646 7.87319 5.4588C7.63327 5.36114 7.37627 5.31279 7.11739 5.31662C5.72556 5.31662 5.15413 6.06044 5.15413 7.28689C5.12661 7.55242 5.15845 7.82077 5.24739 8.07237C5.33632 8.32398 5.48008 8.5525 5.66819 8.74127C5.85629 8.93004 6.08399 9.07431 6.3347 9.16356C6.58541 9.25281 6.8528 9.28478 7.11739 9.25716" fill="#2448B1"/>
<path d="M7.11951 14.3898C8.39253 14.3898 9.08279 13.7765 9.08279 12.4195V10.4492H7.11951C5.72768 10.4492 5.15625 11.193 5.15625 12.4195C5.15625 13.6459 5.52965 14.3898 7.11951 14.3898" fill="#2448B1"/>
<path d="M10.2734 9.25695H12.2367C13.5041 9.25695 14.2 8.64373 14.2 7.28668V5.31641H12.2367C10.8392 5.31641 10.2734 6.06023 10.2734 7.28668V9.25695Z" fill="#2448B1"/>
<path d="M10.2789 7.23989C10.2789 7.15472 10.2789 7.06955 10.2789 6.98438H12.2591V9.25558C11.41 9.25996 10.5965 9.59847 9.99349 10.1984C9.39044 10.7982 9.04598 11.6116 9.03413 12.4637H7.03125V10.4934C7.89061 10.4919 8.71434 10.1486 9.322 9.5388C9.92966 8.92898 10.2717 8.10231 10.2732 7.23989" fill="#2448B1"/>
<path d="M3.93221 9.25695H1.96327C0.690258 9.25695 0 8.64373 0 7.28668V5.31641H1.96327C3.36076 5.31641 3.92655 6.06023 3.92655 7.28668V9.25695" fill="#2448B1"/>
<path d="M3.92812 7.23989C3.92812 7.15472 3.92812 7.06955 3.92812 6.98438H1.96484V9.25558C2.81394 9.25996 3.62743 9.59847 4.23048 10.1984C4.83352 10.7982 5.17799 11.6116 5.18983 12.4637H7.1927V10.4934C6.33334 10.4919 5.50961 10.1486 4.90195 9.5388C4.29429 8.92898 3.95226 8.10231 3.95076 7.23989" fill="#2448B1"/>
<path d="M28.9963 9.25716C30.2693 9.25716 30.9596 8.64394 30.9596 7.28689C30.9634 7.02709 30.9152 6.76917 30.8179 6.52839C30.7206 6.28762 30.5761 6.0689 30.3931 5.88517C30.21 5.70145 29.992 5.55646 29.7521 5.4588C29.5122 5.36114 29.2552 5.31279 28.9963 5.31662C27.5988 5.31662 27.033 6.06044 27.033 7.28689C27.0055 7.55242 27.0374 7.82077 27.1263 8.07237C27.2152 8.32398 27.359 8.5525 27.5471 8.74127C27.7352 8.93004 27.9629 9.07431 28.2136 9.16356C28.4643 9.25281 28.7317 9.28478 28.9963 9.25716" fill="#2448B1"/>
<path d="M28.9984 14.3898C30.2715 14.3898 30.9617 13.7765 30.9617 12.4195V10.4492H28.9984C27.6009 10.4492 27.0352 11.193 27.0352 12.4195C27.0352 13.6459 27.4029 14.3898 28.9984 14.3898" fill="#2448B1"/>
<path d="M32.1523 9.25695H34.1156C35.383 9.25695 36.0789 8.64373 36.0789 7.28668V5.31641H34.1156C32.7181 5.31641 32.1523 6.06023 32.1523 7.28668V9.25695Z" fill="#2448B1"/>
<path d="M32.1578 7.23989C32.1578 7.15472 32.1578 7.06955 32.1578 6.98438H34.138V9.25558C33.2889 9.25996 32.4754 9.59847 31.8724 10.1984C31.2693 10.7982 30.9249 11.6116 30.913 12.4637H28.9102V10.4934C29.7695 10.4919 30.5933 10.1486 31.2009 9.5388C31.8086 8.92898 32.1506 8.10231 32.1521 7.23989" fill="#2448B1"/>
<path d="M25.8094 9.25695H23.8461C22.5731 9.25695 21.8828 8.64373 21.8828 7.28668V5.31641H23.8461C25.2436 5.31641 25.8094 6.06023 25.8094 7.28668V9.25695Z" fill="#2448B1"/>
<path d="M25.8045 7.23989C25.8045 7.15472 25.8045 7.06955 25.8045 6.98438H23.8242V9.25558C24.6733 9.25996 25.4868 9.59847 26.0898 10.1984C26.6929 10.7982 27.0373 11.6116 27.0492 12.4637H29.0521V10.4934C28.1927 10.4919 27.369 10.1486 26.7613 9.5388C26.1537 8.92898 25.8116 8.10231 25.8101 7.23989" fill="#2448B1"/>
<path d="M28.9963 19.89C30.2693 19.89 30.9596 19.2824 30.9596 17.9197C30.9634 17.6599 30.9152 17.402 30.8179 17.1612C30.7206 16.9204 30.5761 16.7017 30.3931 16.518C30.21 16.3343 29.992 16.1893 29.7521 16.0916C29.5122 15.994 29.2552 15.9456 28.9963 15.9494C27.5988 15.9494 27.033 16.6933 27.033 17.9197C27.0055 18.1852 27.0374 18.4536 27.1263 18.7052C27.2152 18.9568 27.359 19.1853 27.5471 19.3741C27.7352 19.5629 27.9629 19.7071 28.2136 19.7964C28.4643 19.8856 28.7317 19.9176 28.9963 19.89" fill="#2448B1"/>
<path d="M28.9984 25.0361C30.2715 25.0361 30.9617 24.4285 30.9617 23.0658V21.0898H28.9984C27.6009 21.0898 27.0352 21.8337 27.0352 23.0544C27.0352 24.2752 27.4255 25.0361 28.9984 25.0361Z" fill="#2448B1"/>
<path d="M32.1523 19.8898H34.1156C35.383 19.8898 36.0789 19.2822 36.0789 17.9195V15.9492H34.1156C32.7181 15.9492 32.1523 16.693 32.1523 17.9195V19.8898Z" fill="#2448B1"/>
<path d="M32.1578 17.8805C32.1578 17.7897 32.1578 17.7102 32.1578 17.625H34.138V19.8962C33.2894 19.8991 32.476 20.2364 31.8727 20.8353C31.2695 21.4343 30.9249 22.2471 30.913 23.0986H28.9102V21.1283C29.769 21.1283 30.5927 20.7863 31.2006 20.1774C31.8084 19.5685 32.1506 18.7424 32.1521 17.8805" fill="#2448B1"/>
<path d="M25.8094 19.8898H23.8461C22.5731 19.8898 21.8828 19.2822 21.8828 17.9195V15.9492H23.8461C25.2436 15.9492 25.8094 16.693 25.8094 17.9195V19.8898Z" fill="#2448B1"/>
<path d="M25.8045 17.8805C25.8045 17.7897 25.8045 17.7102 25.8045 17.625H23.8242V19.8962C24.6723 19.9006 25.485 20.2383 26.0879 20.837C26.6908 21.4356 27.0359 22.2476 27.0492 23.0986H29.0521V21.1283C28.1932 21.1283 27.3695 20.7863 26.7617 20.1774C26.1538 19.5685 25.8116 18.7424 25.8101 17.8805" fill="#2448B1"/>
<path d="M7.23068 19.89C8.5037 19.89 9.19396 19.2824 9.19396 17.9197C9.19777 17.6599 9.1496 17.402 9.05229 17.1612C8.95498 16.9204 8.81051 16.7017 8.62743 16.518C8.44436 16.3343 8.22641 16.1893 7.98649 16.0916C7.74657 15.994 7.48956 15.9456 7.23068 15.9494C5.83319 15.9494 5.26741 16.6933 5.26741 17.9197C5.23988 18.1852 5.27175 18.4536 5.36068 18.7052C5.44961 18.9568 5.59338 19.1853 5.78148 19.3741C5.96958 19.5629 6.19729 19.7071 6.448 19.7964C6.69871 19.8856 6.9661 19.9176 7.23068 19.89" fill="#2448B1"/>
<path d="M7.23281 25.0361C8.50582 25.0361 9.19608 24.4285 9.19608 23.0658V21.0898H7.23281C5.83532 21.0898 5.26953 21.8337 5.26953 23.0544C5.26953 24.2752 5.63729 25.0247 7.23281 25.0247" fill="#2448B1"/>
<path d="M10.3828 19.8898H12.3517C13.6191 19.8898 14.315 19.2822 14.315 17.9195V15.9492H12.3517C10.9542 15.9492 10.3828 16.693 10.3828 17.9195V19.8898Z" fill="#2448B1"/>
<path d="M10.3921 17.8805C10.3921 17.7897 10.3921 17.7102 10.3921 17.625H12.3724V19.8962C11.5238 19.8991 10.7103 20.2364 10.1071 20.8353C9.50391 21.4343 9.15928 22.2471 9.14741 23.0986H7.14453V21.1283C8.00337 21.1283 8.82711 20.7863 9.43493 20.1774C10.0428 19.5685 10.385 18.7424 10.3865 17.8805" fill="#2448B1"/>
<path d="M4.04375 19.8898H2.08047C0.807449 19.8898 0.117188 19.2822 0.117188 17.9195V15.9492H2.08047C3.47797 15.9492 4.04375 16.693 4.04375 17.9195V19.8898Z" fill="#2448B1"/>
<path d="M4.03886 17.8805C4.03886 17.7897 4.03886 17.7102 4.03886 17.625H2.05859V19.8962C2.90672 19.9006 3.71938 20.2383 4.32227 20.837C4.92516 21.4356 5.27027 22.2476 5.28358 23.0986H7.28081V21.1283C6.42197 21.1283 5.59822 20.7863 4.9904 20.1774C4.38257 19.5685 4.04036 18.7424 4.03886 17.8805" fill="#2448B1"/>
<path d="M17.9221 14.5189C19.1951 14.5189 19.8854 13.9113 19.8854 12.5486C19.8892 12.2888 19.841 12.0309 19.7437 11.7901C19.6464 11.5493 19.5019 11.3306 19.3188 11.1469C19.1358 10.9632 18.9178 10.8182 18.6779 10.7205C18.438 10.6229 18.181 10.5745 17.9221 10.5783C16.5246 10.5783 15.9588 11.3222 15.9588 12.5486C15.9313 12.8141 15.9632 13.0825 16.0521 13.3341C16.141 13.5857 16.2848 13.8142 16.4729 14.003C16.661 14.1918 16.8887 14.336 17.1394 14.4253C17.3901 14.5145 17.6575 14.5465 17.9221 14.5189Z" fill="#2448B1"/>
<path d="M17.9242 19.6515C19.1972 19.6515 19.8875 19.0439 19.8875 17.6869V15.7109H17.9242C16.5267 15.7109 15.9609 16.4604 15.9609 17.6869C15.9609 18.9133 16.3287 19.6515 17.9242 19.6515" fill="#2448B1"/>
<path d="M21.0781 14.5187H23.0414C24.3144 14.5187 25.0047 13.9111 25.0047 12.5484V10.5781H23.0414C21.6439 10.5781 21.0781 11.3219 21.0781 12.5484V14.5187" fill="#2448B1"/>
<path d="M21.0806 12.5037C21.0806 12.4186 21.0806 12.3391 21.0806 12.2539H23.0608V14.5251C22.2113 14.528 21.397 14.8661 20.7936 15.4663C20.1902 16.0665 19.8462 16.8807 19.8359 17.7332H17.8047V15.7572C18.2309 15.7572 18.6529 15.6729 19.0466 15.509C19.4403 15.3452 19.798 15.105 20.0991 14.8023C20.4002 14.4996 20.6389 14.1403 20.8015 13.7449C20.9641 13.3495 21.0474 12.9258 21.0466 12.4981" fill="#2448B1"/>
<path d="M14.739 14.5187H12.7758C11.5027 14.5187 10.8125 13.9111 10.8125 12.5484V10.5781H12.7758C14.1732 10.5781 14.739 11.3219 14.739 12.5484V14.5187" fill="#2448B1"/>
<path d="M14.732 12.5037C14.732 12.4186 14.732 12.3391 14.732 12.2539H12.7461V14.5251C13.5962 14.528 14.4111 14.8659 15.0154 15.4659C15.6196 16.066 15.9649 16.8802 15.9767 17.7332H17.9739V15.7572C17.5477 15.7572 17.1257 15.6729 16.732 15.509C16.3383 15.3452 15.9807 15.105 15.6795 14.8023C15.3784 14.4996 15.1397 14.1403 14.9772 13.7449C14.8146 13.3495 14.7313 12.9258 14.732 12.4981" fill="#2448B1"/>
<path d="M17.9221 25.4173C19.1951 25.4173 19.8854 24.8098 19.8854 23.447C19.8892 23.1873 19.841 22.9293 19.7437 22.6886C19.6464 22.4478 19.5019 22.2291 19.3188 22.0453C19.1358 21.8616 18.9178 21.7166 18.6779 21.619C18.438 21.5213 18.181 21.4729 17.9221 21.4768C16.5246 21.4768 15.9588 22.2206 15.9588 23.447C15.9313 23.7126 15.9632 23.9809 16.0521 24.2325C16.141 24.4841 16.2848 24.7127 16.4729 24.9014C16.661 25.0902 16.8887 25.2345 17.1394 25.3237C17.3901 25.413 17.6575 25.4449 17.9221 25.4173" fill="#2448B1"/>
<path d="M17.9242 30.5499C19.1972 30.5499 19.8875 29.9424 19.8875 28.5797V26.6094H17.9242C16.5267 26.6094 15.9609 27.3532 15.9609 28.5797C15.9609 29.8061 16.3287 30.5499 17.9242 30.5499Z" fill="#2448B1"/>
<path d="M21.0781 25.4171H23.0414C24.3144 25.4171 25.0047 24.8096 25.0047 23.4468V21.4766H23.0414C21.6439 21.4766 21.0781 22.2204 21.0781 23.4468V25.4171" fill="#2448B1"/>
<path d="M21.0806 23.4C21.0806 23.3149 21.0806 23.2297 21.0806 23.1445H23.0608V25.4157C22.2123 25.4186 21.3988 25.7559 20.7956 26.3549C20.1924 26.9538 19.8477 27.7666 19.8359 28.6181H17.8047V26.6535C18.2306 26.6543 18.6525 26.5707 19.0462 26.4074C19.4399 26.2442 19.7976 26.0046 20.0987 25.7023C20.3999 25.4 20.6387 25.0411 20.8014 24.646C20.964 24.2509 21.0474 23.8275 21.0466 23.4" fill="#2448B1"/>
<path d="M14.739 25.4171H12.7758C11.5027 25.4171 10.8125 24.8096 10.8125 23.4468V21.4766H12.7758C14.1732 21.4766 14.739 22.2204 14.739 23.4468V25.4171" fill="#2448B1"/>
<path d="M14.732 23.4C14.732 23.3149 14.732 23.2297 14.732 23.1445H12.7461V25.4157C13.5952 25.4186 14.4093 25.7557 15.0134 26.3545C15.6175 26.9533 15.9634 27.7661 15.9767 28.6181H17.9739V26.6535C17.548 26.6543 17.1261 26.5707 16.7324 26.4074C16.3388 26.2442 15.9811 26.0046 15.6799 25.7023C15.3787 25.4 15.1399 25.0411 14.9773 24.646C14.8146 24.2509 14.7313 23.8275 14.732 23.4" fill="#2448B1"/>
<path d="M17.9221 3.94076C19.1951 3.94076 19.8854 3.32753 19.8854 1.97048C19.8892 1.71069 19.841 1.45276 19.7437 1.21199C19.6464 0.971216 19.5019 0.752489 19.3188 0.568765C19.1358 0.38504 18.9178 0.240054 18.6779 0.142393C18.438 0.0447326 18.181 -0.00361616 17.9221 0.000210649C16.5246 0.000210649 15.9588 0.744032 15.9588 1.97048C15.9313 2.23602 15.9632 2.50436 16.0521 2.75597C16.141 3.00757 16.2848 3.23609 16.4729 3.42486C16.661 3.61364 16.8887 3.7579 17.1394 3.84715C17.3901 3.9364 17.6575 3.96838 17.9221 3.94076" fill="#2448B1"/>
<path d="M17.9242 9.07231C19.1972 9.07231 19.8875 8.46477 19.8875 7.10204V5.16016H17.9242C16.5267 5.16016 15.9609 5.90398 15.9609 7.13043C15.9609 8.35688 16.3287 9.1007 17.9242 9.1007" fill="#2448B1"/>
<path d="M21.0781 3.94055H23.0414C24.3144 3.94055 25.0047 3.32732 25.0047 1.97027V0H23.0414C21.6439 0 21.0781 0.743821 21.0781 1.97027V3.94055Z" fill="#2448B1"/>
<path d="M21.0806 1.92348C21.0806 1.83831 21.0806 1.75314 21.0806 1.66797H23.0608V3.93918C22.2117 3.94356 21.3983 4.28207 20.7952 4.88195C20.1922 5.48184 19.8477 6.29521 19.8359 7.14726H17.8047V5.15995C18.2306 5.1607 18.6525 5.07706 19.0462 4.91382C19.4399 4.75058 19.7976 4.51096 20.0987 4.20869C20.3999 3.90643 20.6387 3.54746 20.8014 3.15239C20.964 2.75732 21.0474 2.33391 21.0466 1.90645" fill="#2448B1"/>
<path d="M14.739 3.94055H12.7758C11.5027 3.94055 10.8125 3.32732 10.8125 1.97027V0H12.7758C14.1732 0 14.739 0.743821 14.739 1.97027V3.94055Z" fill="#2448B1"/>
<path d="M14.732 1.92739C14.732 1.84222 14.732 1.75705 14.732 1.67188H12.7461V3.94308C13.5957 3.94744 14.4098 4.28576 15.0138 4.8855C15.6177 5.48523 15.9634 6.2986 15.9767 7.15117H17.9739V5.16386C17.548 5.16461 17.1261 5.08096 16.7324 4.91772C16.3388 4.75448 15.9811 4.51486 15.6799 4.2126C15.3787 3.91033 15.1399 3.55137 14.9773 3.1563C14.8146 2.76123 14.7313 2.33782 14.732 1.91035" fill="#2448B1"/>
<path d="M19.7936 31.5887C19.7921 31.9406 19.6522 32.2777 19.4042 32.5265C19.1562 32.7754 18.8204 32.9158 18.4697 32.9173H17.2419C17.068 32.9173 16.8959 32.883 16.7353 32.8162C16.5746 32.7494 16.4287 32.6516 16.3057 32.5282C16.1828 32.4048 16.0853 32.2583 16.0188 32.0971C15.9522 31.9359 15.918 31.7632 15.918 31.5887V28.5396C15.918 28.3651 15.9522 28.1923 16.0188 28.0311C16.0853 27.8699 16.1828 27.7235 16.3057 27.6001C16.4287 27.4767 16.5746 27.3788 16.7353 27.3121C16.8959 27.2453 17.068 27.2109 17.2419 27.2109H18.481C18.8317 27.2124 19.1676 27.3529 19.4155 27.6017C19.6635 27.8506 19.8034 28.1877 19.8049 28.5396V31.5887" fill="#2448B1"/>
</svg>
