<svg width="24" height="24" viewBox="0 0 24 24" fill="none" xmlns="http://www.w3.org/2000/svg">
<path fill-rule="evenodd" clip-rule="evenodd" d="M7.81395 3C6.14402 3 4.84871 3.19353 4.02112 4.02112C3.19353 4.84871 3 6.14402 3 7.81395V16.186C3 17.856 3.19353 19.1513 4.02112 19.9789C4.84871 20.8065 6.14402 21 7.81395 21H16.186C17.856 21 19.1513 20.8065 19.9789 19.9789C20.8065 19.1513 21 17.856 21 16.186V11.1628C21 9.49286 20.8065 8.19754 19.9789 7.36996C19.1513 6.54237 17.856 6.34884 16.186 6.34884H13.6744C13.3125 6.34884 13.1874 6.29326 13.1348 6.26146C13.0659 6.2198 13.0109 6.15866 12.8361 5.92869L11.5814 4.25581L11.5538 4.21902C11.3364 3.92859 11.0824 3.58923 10.6897 3.35338C10.2656 3.09856 9.75203 3 9.06977 3H7.81395ZM14.6632 13.5561L15.3075 12.9051C15.8398 12.3731 16.0989 11.8691 16.1059 11.3651C16.1059 10.8331 15.8468 10.3221 15.3145 9.79014C14.271 8.74714 13.2555 8.72614 12.191 9.79014L11.5397 10.4411C11.5335 10.4465 11.5278 10.4523 11.5226 10.4584C11.4795 10.5084 11.4649 10.5826 11.4836 10.6511C11.8898 12.0721 13.0244 13.2061 14.4461 13.6121C14.4601 13.6191 14.4881 13.6191 14.5091 13.6191H14.5091C14.5652 13.6191 14.6212 13.5981 14.6632 13.5561ZM10.8113 17.3991C10.6082 17.6021 10.223 17.7981 9.94287 17.8401L8.22001 18.0851C8.15698 18.0921 8.09395 18.0991 8.03092 18.0991C7.74377 18.0991 7.47764 18.0011 7.28855 17.8121C7.05743 17.5811 6.95938 17.2451 7.01541 16.8741L7.26053 15.1521C7.30255 14.8651 7.49165 14.4871 7.70175 14.2841L10.8253 11.1621L10.8253 11.1622C10.8813 11.3092 10.9374 11.4562 11.0144 11.6241C11.0844 11.7711 11.1615 11.9251 11.2455 12.0651C11.3156 12.1841 11.3926 12.2961 11.4556 12.3801C11.5327 12.4991 11.6237 12.6111 11.6797 12.6741C11.7148 12.7231 11.7428 12.7581 11.7568 12.7721C11.9319 12.9821 12.135 13.1781 12.31 13.3251L12.3101 13.3252C12.3591 13.3742 12.3871 13.4021 12.4011 13.4091L12.4011 13.4092L12.4012 13.4092L12.4012 13.4092C12.5062 13.4932 12.6112 13.5772 12.7022 13.6401C12.8143 13.7241 12.9264 13.8011 13.0454 13.8641C13.1855 13.9481 13.3396 14.0251 13.4936 14.1021C13.6547 14.1721 13.8018 14.2351 13.9489 14.2841L10.8113 17.3991Z" fill="#57B6F0"/>
</svg>
