<svg width="24" height="24" viewBox="0 0 24 24" fill="none" xmlns="http://www.w3.org/2000/svg">
<path d="M4.17001 15.2998L8.70001 19.8298C10.56 21.6898 13.58 21.6898 15.45 19.8298L19.84 15.4398C21.7 13.5798 21.7 10.5598 19.84 8.6898L15.3 4.1698C14.35 3.2198 13.04 2.7098 11.7 2.7798L6.70001 3.0198C4.70001 3.1098 3.11001 4.6998 3.01001 6.6898L2.77001 11.6898C2.71001 13.0398 3.22001 14.3498 4.17001 15.2998Z" fill="#4A86F7"/>
<path d="M9.50012 12.3811C11.0907 12.3811 12.3801 11.0917 12.3801 9.50109C12.3801 7.91051 11.0907 6.62109 9.50012 6.62109C7.90954 6.62109 6.62012 7.91051 6.62012 9.50109C6.62012 11.0917 7.90954 12.3811 9.50012 12.3811Z" fill="white"/>
</svg>
