<svg width="24" height="24" viewBox="0 0 24 24" fill="none" xmlns="http://www.w3.org/2000/svg">
<path d="M19.3398 14.49L18.3398 12.83C18.1298 12.46 17.9398 11.76 17.9398 11.35V8.82C17.9398 6.47 16.5598 4.44 14.5698 3.49C14.0498 2.57 13.0898 2 11.9898 2C10.8998 2 9.91982 2.59 9.39982 3.52C7.44982 4.49 6.09982 6.5 6.09982 8.82V11.35C6.09982 11.76 5.90982 12.46 5.69982 12.82L4.68982 14.49C4.28982 15.16 4.19982 15.9 4.44982 16.58C4.68982 17.25 5.25982 17.77 5.99982 18.02C7.93982 18.68 9.97982 19 12.0198 19C14.0598 19 16.0998 18.68 18.0398 18.03C18.7398 17.8 19.2798 17.27 19.5398 16.58C19.7998 15.89 19.7298 15.13 19.3398 14.49Z" fill="#F2A84C"/>
<path d="M14.8298 20.01C14.4098 21.17 13.2998 22 11.9998 22C11.2098 22 10.4298 21.68 9.87981 21.11C9.55981 20.81 9.31981 20.41 9.17981 20C9.30981 20.02 9.43981 20.03 9.57981 20.05C9.80981 20.08 10.0498 20.11 10.2898 20.13C10.8598 20.18 11.4398 20.21 12.0198 20.21C12.5898 20.21 13.1598 20.18 13.7198 20.13C13.9298 20.11 14.1398 20.1 14.3398 20.07C14.4998 20.05 14.6598 20.03 14.8298 20.01Z" fill="#F8CF9C"/>
</svg>
