<svg width="24" height="24" viewBox="0 0 24 24" fill="none" xmlns="http://www.w3.org/2000/svg">
<path fill-rule="evenodd" clip-rule="evenodd" d="M6 16.37V3.61V2.75C6 2.34 5.54667 2 5 2C4.45333 2 4 2.34 4 2.75V21.25C4 21.66 4.45333 22 5 22C5.54667 22 6 21.66 6 21.25V16.37Z" fill="#83BF6E"/>
<path d="M16.6267 11.0533L17.8161 12.2006C18.8106 13.1693 19.181 14.1003 18.8593 14.8433C18.5376 15.5862 17.5919 16 16.188 16H6V4H16.188C17.6114 4 18.5766 4.40439 18.8886 5.13793C19.2103 5.88088 18.8301 6.82132 17.8161 7.79937L16.6462 8.9279C16.3245 9.23824 16.149 9.66144 16.1685 10.0846C16.1783 10.4702 16.344 10.8182 16.6267 11.0533Z" fill="#BBDCAF"/>
</svg>
