<svg width="24" height="24" viewBox="0 0 24 24" fill="none" xmlns="http://www.w3.org/2000/svg">
<path d="M21.7284 12.7561H18.7495V10.4967C18.7495 10.3617 18.7453 10.2294 18.7369 10.0997C20.123 8.79281 20.2486 7.07016 20.2495 5.27156C20.2495 4.86797 19.9383 4.52156 19.5347 4.50234C19.4335 4.49759 19.3324 4.5134 19.2374 4.54881C19.1425 4.58422 19.0557 4.63851 18.9823 4.70838C18.909 4.77825 18.8505 4.86227 18.8105 4.95536C18.7705 5.04845 18.7497 5.14868 18.7495 5.25C18.7495 6.5625 18.6623 7.50703 18.2855 8.2425C17.3845 6.31359 15.202 5.24672 11.9995 5.24672C10.1339 5.24672 8.52188 5.67469 7.33875 6.48375C6.64032 6.96141 6.11063 7.55766 5.75907 8.25188C5.34329 7.53047 5.24954 6.60938 5.24954 5.27156C5.24954 4.86797 4.94016 4.52156 4.53703 4.50094C4.43551 4.49586 4.33402 4.51146 4.23871 4.54681C4.14341 4.58216 4.05628 4.63652 3.98263 4.70657C3.90898 4.77663 3.85034 4.86093 3.81027 4.95435C3.7702 5.04776 3.74953 5.14835 3.74953 5.25C3.74953 7.01391 3.87188 8.70609 5.27016 10.0139C5.25672 10.172 5.24985 10.333 5.24954 10.4967V12.7561H2.27063C1.86703 12.7561 1.52063 13.0664 1.50047 13.47C1.49558 13.5715 1.51136 13.6729 1.54686 13.7681C1.58236 13.8633 1.63682 13.9503 1.70696 14.0238C1.7771 14.0973 1.86144 14.1558 1.95487 14.1958C2.0483 14.2357 2.14887 14.2562 2.25047 14.2561H5.25047V15C5.24978 15.8624 5.41513 16.7168 5.7375 17.5167C4.53422 18.5925 3.75797 19.7813 3.74953 21.7191C3.74953 22.1288 4.05985 22.4831 4.46953 22.4995C4.57048 22.5036 4.67121 22.4872 4.76566 22.4513C4.86011 22.4155 4.94635 22.3609 5.0192 22.2909C5.09204 22.2209 5.15 22.1369 5.18958 22.044C5.22916 21.951 5.24955 21.851 5.24954 21.75C5.24953 20.4534 5.6761 19.6542 6.47625 18.8756C7.39896 20.189 8.75848 21.1317 10.312 21.5353C10.4229 21.5639 10.5388 21.5668 10.6509 21.5437C10.763 21.5206 10.8683 21.4722 10.9588 21.4021C11.0493 21.332 11.1225 21.2421 11.1729 21.1394C11.2233 21.0366 11.2495 20.9237 11.2495 20.8092V9.02109C11.2495 8.6175 11.5598 8.27109 11.9634 8.25094C12.0648 8.24605 12.1662 8.26181 12.2613 8.29724C12.3565 8.33268 12.4434 8.38707 12.5169 8.4571C12.5904 8.52714 12.6489 8.61137 12.6889 8.70469C12.7289 8.79801 12.7495 8.89848 12.7495 9V20.8092C12.7495 20.9237 12.7758 21.0366 12.8262 21.1394C12.8766 21.2421 12.9498 21.332 13.0403 21.4021C13.1308 21.4722 13.2361 21.5206 13.3482 21.5437C13.4603 21.5668 13.5762 21.5639 13.687 21.5353C15.2404 21.1315 16.5997 20.1889 17.5223 18.8756C18.3192 19.6509 18.7453 20.4469 18.7491 21.7327C18.7474 21.9266 18.8196 22.1139 18.9511 22.2564C19.0826 22.399 19.2634 22.4861 19.4569 22.5C19.5589 22.5058 19.661 22.4907 19.757 22.4556C19.853 22.4206 19.9408 22.3662 20.015 22.296C20.0892 22.2258 20.1483 22.1411 20.1887 22.0472C20.229 21.9533 20.2497 21.8522 20.2495 21.75C20.2495 19.7963 19.4714 18.5986 18.2625 17.5167C18.5849 16.7168 18.7502 15.8624 18.7495 15V14.2561H21.7495C21.8511 14.2562 21.9517 14.2357 22.0451 14.1958C22.1386 14.1558 22.2229 14.0973 22.293 14.0238C22.3632 13.9503 22.4177 13.8633 22.4531 13.7681C22.4886 13.6729 22.5044 13.5715 22.4995 13.47C22.4798 13.0664 22.132 12.7561 21.7284 12.7561Z" fill="#E79CAD"/>
<path d="M15.0656 4.875L15.0806 4.87922C15.7166 5.05734 16.2557 4.38469 15.9337 3.80813C15.5445 3.10888 14.9756 2.52626 14.2859 2.12048C13.5961 1.71471 12.8105 1.5005 12.0102 1.5H11.9906C11.1822 1.50055 10.389 1.71911 9.69448 2.13266C8.99995 2.54622 8.42982 3.13944 8.04416 3.84984C7.72353 4.43953 8.28509 5.11547 8.92728 4.92141C9.85119 4.64016 10.8862 4.49672 12.0004 4.49672C13.1296 4.49672 14.1609 4.62422 15.0656 4.875Z" fill="#D34B6A"/>
</svg>
