<svg width="24" height="24" viewBox="0 0 24 24" fill="none" xmlns="http://www.w3.org/2000/svg">
<path d="M15.99 1.80078H7.60999C3.96999 1.80078 1.79999 3.97078 1.79999 7.61078V15.9908C1.79999 19.6308 3.96999 21.8008 7.60999 21.8008H15.99C19.63 21.8008 21.8 19.6308 21.8 15.9908V7.61078C21.8 3.97078 19.63 1.80078 15.99 1.80078ZM9.76999 14.7008L7.51999 16.9508C7.36999 17.1008 7.17999 17.1708 6.98999 17.1708C6.79999 17.1708 6.59999 17.1008 6.45999 16.9508L5.70999 16.2008C5.40999 15.9108 5.40999 15.4308 5.70999 15.1408C5.99999 14.8508 6.46999 14.8508 6.76999 15.1408L6.98999 15.3608L8.70999 13.6408C8.99999 13.3508 9.46999 13.3508 9.76999 13.6408C10.06 13.9308 10.06 14.4108 9.76999 14.7008ZM9.76999 7.70078L7.51999 9.95078C7.36999 10.1008 7.17999 10.1708 6.98999 10.1708C6.79999 10.1708 6.59999 10.1008 6.45999 9.95078L5.70999 9.20078C5.40999 8.91078 5.40999 8.43078 5.70999 8.14078C5.99999 7.85078 6.46999 7.85078 6.76999 8.14078L6.98999 8.36078L8.70999 6.64078C8.99999 6.35078 9.46999 6.35078 9.76999 6.64078C10.06 6.93078 10.06 7.41078 9.76999 7.70078ZM17.36 16.4208H12.11C11.7 16.4208 11.36 16.0808 11.36 15.6708C11.36 15.2608 11.7 14.9208 12.11 14.9208H17.36C17.78 14.9208 18.11 15.2608 18.11 15.6708C18.11 16.0808 17.78 16.4208 17.36 16.4208ZM17.36 9.42078H12.11C11.7 9.42078 11.36 9.08078 11.36 8.67078C11.36 8.26078 11.7 7.92078 12.11 7.92078H17.36C17.78 7.92078 18.11 8.26078 18.11 8.67078C18.11 9.08078 17.78 9.42078 17.36 9.42078Z" fill="#4A86F7"/>
</svg>
