<svg width="187" height="34" viewBox="0 0 187 34" fill="none" xmlns="http://www.w3.org/2000/svg">
<g clip-path="url(#clip0_3215_41492)">
<path d="M55.2527 12.4451C55.2527 12.4451 53.6289 12.6438 53.6289 11.0426V9.51523H55.2188C55.2188 5.9835 55.2527 4.35391 55.2527 4.2517C55.2527 -0.977756 62.5457 0.0897121 62.5457 0.0897121C62.5457 0.0897121 62.3194 3.05364 60.6673 3.05364C59.0152 3.05364 58.6757 4.21764 58.6757 4.75705V9.52091H63.3887C63.3887 9.52091 63.5358 12.4508 61.5952 12.4508H61.0294C59.8695 12.4508 58.8058 12.4508 58.7379 12.4848C59.0718 12.6211 64.6504 14.6198 64.6504 22.5463C64.6504 32.1081 55.2527 34.0045 55.2527 34.0045V12.4281V12.4451ZM58.6757 28.9568C58.6757 28.9568 61.6291 27.7587 61.6291 22.5633C61.6291 17.1635 58.6757 15.7497 58.6757 15.7497V28.9568Z" fill="white"/>
<path d="M66.8288 9.51678C69.2843 9.51678 68.6676 12.0492 68.6676 12.0492C68.6676 12.0492 68.6676 12.1798 68.7299 12.1798C68.7921 12.1798 68.7977 12.1514 68.8656 12.0492C69.5173 11.1225 70.3835 10.3686 71.3898 9.85227C72.396 9.33597 73.5122 9.07275 74.6423 9.08525C75.0265 9.06749 75.4106 9.12338 75.7739 9.24991V13.2983C75.7739 15.3992 72.7865 15.1778 72.7865 15.1778V12.8498C72.2312 12.8786 71.691 13.0418 71.2122 13.3256C70.7334 13.6094 70.3301 14.0052 70.0368 14.4794C68.9731 15.9784 68.877 18.0792 68.877 18.7436V24.1774H65.3125V9.51678H66.8288Z" fill="white"/>
<path d="M91.0372 18.3453C91.0372 18.3453 92.1688 19.8102 92.4347 20.2758C92.4753 20.334 92.497 20.4034 92.4969 20.4745C92.4969 21.4738 89.9113 24.7728 84.5759 24.7728C76.4739 24.7728 76.3438 19.0437 76.3438 16.9769C76.3438 12.2471 79.3311 8.91406 83.9479 8.91406C84.4175 8.91406 88.9268 8.9822 88.9268 13.6495V13.6779C88.9268 14.1492 88.7967 18.9755 81.9563 18.9755C81.4351 18.973 80.9149 18.9293 80.4004 18.8449L80.3325 18.879C80.3325 19.0437 80.4287 21.8429 85.2775 21.8429C86.4644 21.8777 87.6359 21.5657 88.6494 20.9447C89.6629 20.3238 90.4748 19.4207 90.9863 18.3453H91.0372ZM83.4726 11.9234C81.2435 11.9234 80.0779 14.0243 80.0779 15.9548C80.0779 16.0229 80.4457 16.1876 81.6395 16.1876C85.3228 16.1876 85.3907 13.9164 85.3907 13.5928C85.3963 12.0143 83.9366 11.9234 83.4726 11.9234Z" fill="white"/>
<path d="M104.851 18.3453C104.851 18.3453 105.982 19.8102 106.248 20.2758C106.289 20.334 106.31 20.4034 106.31 20.4745C106.31 21.4738 103.725 24.7728 98.3892 24.7728C90.3098 24.7728 90.1797 19.0437 90.1797 16.9769C90.1797 12.2471 93.167 8.91406 97.7782 8.91406H97.8121C98.2761 8.91406 102.791 8.9822 102.791 13.6495V13.6779C102.791 14.1492 102.661 18.9755 95.8206 18.9755C95.2993 18.973 94.7791 18.9293 94.2647 18.8449L94.1968 18.879C94.1968 19.0437 94.293 21.8429 99.1417 21.8429C100.329 21.8777 101.5 21.5657 102.514 20.9447C103.527 20.3238 104.339 19.4207 104.851 18.3453V18.3453ZM97.2803 11.9234C95.0568 11.9234 93.8856 14.0243 93.8856 15.9548C93.8856 16.0229 94.2533 16.1876 95.4472 16.1876C99.1304 16.1876 99.1983 13.9164 99.1983 13.5928C99.2096 12.0143 97.7612 11.9234 97.2803 11.9234Z" fill="white"/>
<path d="M118.892 20.9741C119.52 20.9741 120.386 20.5085 120.782 18.8108L122.179 20.6788C122.218 20.773 122.241 20.8727 122.247 20.9741C122.247 21.6441 121.019 24.574 117.664 24.574C116.987 24.585 116.327 24.3627 115.794 23.9442C115.26 23.5257 114.886 22.9363 114.734 22.2744C114.7 22.1778 114.666 22.1778 114.632 22.1778L114.536 22.2403C113.602 23.8756 111.842 24.7046 109.851 24.7046C104.674 24.7046 104.046 19.6454 104.046 17.9477C104.046 13.6778 106.269 8.91398 113.098 8.91398C113.398 8.91398 113.732 8.94805 114.06 8.94805V3.27002C114.06 3.27002 113.953 0.289062 116.176 0.289062H117.563V19.3048C117.563 19.6057 117.596 20.9684 118.892 20.9684V20.9741ZM114.043 12.1504C113.508 11.982 112.946 11.9127 112.386 11.946C110.762 11.946 107.74 13.1782 107.74 17.448C107.74 18.3111 107.774 21.2126 110.53 21.2126C110.999 21.2074 111.462 21.1091 111.893 20.9233C112.324 20.7375 112.714 20.468 113.041 20.1301C113.368 19.7923 113.624 19.3929 113.796 18.955C113.968 18.5171 114.052 18.0493 114.043 17.5786V12.1504Z" fill="white"/>
<path d="M127.423 24.7742C120.786 24.7742 119.887 19.7776 119.887 17.3928C119.887 15.008 120.718 8.96094 128.487 8.96094C129.6 8.97206 130.707 9.14026 131.774 9.4606V12.5324C131.774 14.8377 128.719 14.5254 128.719 14.5254V12.2542C128.36 12.1091 127.974 12.0414 127.587 12.0555C125.89 12.0555 123.542 13.4523 123.542 17.319C123.542 19.8173 125.069 21.7478 128.023 21.7478C129.122 21.7462 130.197 21.4231 131.117 20.818C132.036 20.213 132.76 19.3523 133.2 18.341C133.2 18.341 134.36 19.7719 134.625 20.2375C134.674 20.305 134.698 20.3872 134.693 20.4703C134.693 21.4356 132.736 24.7686 127.423 24.7686" fill="white"/>
<path d="M145.947 19.0437C145.947 19.7421 146.213 21.0423 147.577 21.0423C148.403 21.0423 149.568 20.5767 150.162 18.6803L151.509 20.5767C151.562 20.6688 151.595 20.7715 151.605 20.8777C151.605 21.6783 150.111 24.574 146.564 24.574C144.77 24.574 143.475 23.6429 143.045 22.2744C143.022 22.1779 143.022 22.1439 143.022 22.1439L142.92 22.2404C142.412 23.0528 141.701 23.7173 140.857 24.1677C140.013 24.618 139.066 24.8384 138.111 24.8068C132.928 24.8068 132.453 19.5774 132.453 17.9478C132.453 13.6779 134.682 8.91406 141.506 8.91406C143.019 8.94836 144.523 9.16182 145.987 9.55V19.0437H145.947ZM142.456 12.1505C141.909 11.9695 141.334 11.8925 140.759 11.9234C139.129 11.9234 136.108 13.1555 136.108 17.4254C136.108 18.2885 136.142 21.2183 138.897 21.2183C139.368 21.2154 139.833 21.1194 140.266 20.9361C140.7 20.7527 141.093 20.4854 141.423 20.1496C141.754 19.8137 142.015 19.4158 142.192 18.9786C142.37 18.5414 142.459 18.0734 142.456 17.6014V12.1505Z" fill="white"/>
<path d="M166.996 14.7603C167.012 14.461 166.967 14.1615 166.861 13.881C166.756 13.6005 166.594 13.3451 166.384 13.1313C166.175 12.9175 165.923 12.7499 165.646 12.6393C165.368 12.5287 165.071 12.4776 164.772 12.4891C162.747 12.4891 161.621 14.289 161.621 16.3558V24.1745H158.102V14.7603C158.131 14.4716 158.099 14.1798 158.009 13.9042C157.918 13.6285 157.77 13.3752 157.576 13.1608C157.381 12.9464 157.143 12.7757 156.877 12.66C156.612 12.5442 156.326 12.486 156.036 12.4891C154.113 12.4891 152.981 14.289 152.981 16.3558V24.1745H149.434V12.4891C149.237 12.4806 149.043 12.4323 148.865 12.347C148.687 12.2617 148.528 12.1412 148.398 11.9927C148.267 11.8443 148.168 11.6709 148.106 11.483C148.044 11.2951 148.02 11.0966 148.036 10.8993V9.51383H150.91C152.93 9.51383 152.981 10.9163 152.981 10.9163C153.481 10.3469 154.101 9.89582 154.796 9.5954C155.49 9.29498 156.242 9.15271 156.998 9.17882C158.662 9.17882 160.218 9.6501 161.015 11.2116C161.015 11.2116 161.015 11.2456 161.083 11.2456L161.151 11.1775C161.247 11.0128 162.413 9.17882 165.762 9.17882C168.354 9.17882 170.543 10.5813 170.543 13.7212C170.543 13.7212 170.509 18.786 170.509 19.087C170.509 19.8194 170.809 20.9834 172.167 20.9834C172.999 20.9834 174.13 20.5519 174.758 18.6554L176.122 20.5519C176.175 20.644 176.208 20.7467 176.218 20.8528C176.218 21.6534 174.724 24.5492 171.126 24.5492C170.582 24.5714 170.039 24.4807 169.532 24.283C169.024 24.0853 168.563 23.7847 168.177 23.4C167.79 23.0153 167.487 22.5547 167.285 22.0471C167.084 21.5395 166.989 20.9957 167.007 20.4497V14.7603" fill="white"/>
<path d="M177.536 23.847V30.8196C177.536 33.7097 173.983 33.369 173.983 33.369V12.4909C173.983 12.4909 172.625 12.5647 172.625 10.9408V9.51562H178.962C181.921 9.51562 187.064 10.2822 187.064 16.7097C187.064 18.1122 186.928 24.4432 180.025 24.4432C179.158 24.4695 178.298 24.2638 177.536 23.847V23.847ZM178.532 12.4909C178.2 12.474 177.868 12.474 177.536 12.4909V20.5083C177.536 20.5083 178.068 21.4395 179.861 21.4395C182.651 21.4395 183.313 18.8106 183.313 16.846C183.33 13.0587 180.874 12.4909 178.549 12.4909H178.532Z" fill="white"/>
<path d="M7.11739 9.25716C8.39041 9.25716 9.08067 8.64394 9.08067 7.28689C9.08448 7.02709 9.03631 6.76917 8.939 6.52839C8.84168 6.28762 8.69721 6.0689 8.51414 5.88517C8.33107 5.70145 8.11311 5.55646 7.87319 5.4588C7.63327 5.36114 7.37627 5.31279 7.11739 5.31662C5.72556 5.31662 5.15413 6.06044 5.15413 7.28689C5.12661 7.55242 5.15845 7.82077 5.24739 8.07237C5.33632 8.32398 5.48008 8.5525 5.66819 8.74127C5.85629 8.93004 6.08399 9.07431 6.3347 9.16356C6.58541 9.25281 6.8528 9.28478 7.11739 9.25716" fill="white"/>
<path d="M7.11951 14.3898C8.39253 14.3898 9.08279 13.7765 9.08279 12.4195V10.4492H7.11951C5.72768 10.4492 5.15625 11.193 5.15625 12.4195C5.15625 13.6459 5.52965 14.3898 7.11951 14.3898" fill="white"/>
<path d="M10.2734 9.25695H12.2367C13.5041 9.25695 14.2 8.64373 14.2 7.28668V5.31641H12.2367C10.8392 5.31641 10.2734 6.06023 10.2734 7.28668V9.25695Z" fill="white"/>
<path d="M10.2789 7.23989C10.2789 7.15472 10.2789 7.06955 10.2789 6.98438H12.2591V9.25558C11.41 9.25996 10.5965 9.59847 9.99349 10.1984C9.39044 10.7982 9.04598 11.6116 9.03413 12.4637H7.03125V10.4934C7.89061 10.4919 8.71434 10.1486 9.322 9.5388C9.92966 8.92898 10.2717 8.10231 10.2732 7.23989" fill="white"/>
<path d="M3.93221 9.25695H1.96327C0.690258 9.25695 0 8.64373 0 7.28668V5.31641H1.96327C3.36076 5.31641 3.92655 6.06023 3.92655 7.28668V9.25695" fill="white"/>
<path d="M3.92812 7.23989C3.92812 7.15472 3.92812 7.06955 3.92812 6.98438H1.96484V9.25558C2.81394 9.25996 3.62743 9.59847 4.23048 10.1984C4.83352 10.7982 5.17799 11.6116 5.18983 12.4637H7.1927V10.4934C6.33334 10.4919 5.50961 10.1486 4.90195 9.5388C4.29429 8.92898 3.95226 8.10231 3.95076 7.23989" fill="white"/>
<path d="M28.9963 9.25716C30.2693 9.25716 30.9596 8.64394 30.9596 7.28689C30.9634 7.02709 30.9152 6.76917 30.8179 6.52839C30.7206 6.28762 30.5761 6.0689 30.3931 5.88517C30.21 5.70145 29.992 5.55646 29.7521 5.4588C29.5122 5.36114 29.2552 5.31279 28.9963 5.31662C27.5988 5.31662 27.033 6.06044 27.033 7.28689C27.0055 7.55242 27.0374 7.82077 27.1263 8.07237C27.2152 8.32398 27.359 8.5525 27.5471 8.74127C27.7352 8.93004 27.9629 9.07431 28.2136 9.16356C28.4643 9.25281 28.7317 9.28478 28.9963 9.25716" fill="white"/>
<path d="M28.9984 14.3898C30.2715 14.3898 30.9617 13.7765 30.9617 12.4195V10.4492H28.9984C27.6009 10.4492 27.0352 11.193 27.0352 12.4195C27.0352 13.6459 27.4029 14.3898 28.9984 14.3898" fill="white"/>
<path d="M32.1523 9.25695H34.1156C35.383 9.25695 36.0789 8.64373 36.0789 7.28668V5.31641H34.1156C32.7181 5.31641 32.1523 6.06023 32.1523 7.28668V9.25695Z" fill="white"/>
<path d="M32.1587 7.23989C32.1587 7.15472 32.1587 7.06955 32.1587 6.98438H34.139V9.25558C33.2899 9.25996 32.4764 9.59847 31.8734 10.1984C31.2703 10.7982 30.9259 11.6116 30.914 12.4637H28.9111V10.4934C29.7705 10.4919 30.5942 10.1486 31.2019 9.5388C31.8095 8.92898 32.1516 8.10231 32.1531 7.23989" fill="white"/>
<path d="M25.8094 9.25695H23.8461C22.5731 9.25695 21.8828 8.64373 21.8828 7.28668V5.31641H23.8461C25.2436 5.31641 25.8094 6.06023 25.8094 7.28668V9.25695Z" fill="white"/>
<path d="M25.8045 7.23989C25.8045 7.15472 25.8045 7.06955 25.8045 6.98438H23.8242V9.25558C24.6733 9.25996 25.4868 9.59847 26.0898 10.1984C26.6929 10.7982 27.0373 11.6116 27.0492 12.4637H29.0521V10.4934C28.1927 10.4919 27.369 10.1486 26.7613 9.5388C26.1537 8.92898 25.8116 8.10231 25.8101 7.23989" fill="white"/>
<path d="M28.9963 19.89C30.2693 19.89 30.9596 19.2824 30.9596 17.9197C30.9634 17.6599 30.9152 17.402 30.8179 17.1612C30.7206 16.9204 30.5761 16.7017 30.3931 16.518C30.21 16.3343 29.992 16.1893 29.7521 16.0916C29.5122 15.994 29.2552 15.9456 28.9963 15.9494C27.5988 15.9494 27.033 16.6933 27.033 17.9197C27.0055 18.1852 27.0374 18.4536 27.1263 18.7052C27.2152 18.9568 27.359 19.1853 27.5471 19.3741C27.7352 19.5629 27.9629 19.7071 28.2136 19.7964C28.4643 19.8856 28.7317 19.9176 28.9963 19.89" fill="white"/>
<path d="M28.9984 25.0361C30.2715 25.0361 30.9617 24.4285 30.9617 23.0658V21.0898H28.9984C27.6009 21.0898 27.0352 21.8337 27.0352 23.0544C27.0352 24.2752 27.4255 25.0361 28.9984 25.0361Z" fill="white"/>
<path d="M32.1523 19.8898H34.1156C35.383 19.8898 36.0789 19.2822 36.0789 17.9195V15.9492H34.1156C32.7181 15.9492 32.1523 16.693 32.1523 17.9195V19.8898Z" fill="white"/>
<path d="M32.1587 17.8805C32.1587 17.7897 32.1587 17.7102 32.1587 17.625H34.139V19.8962C33.2904 19.8991 32.4769 20.2364 31.8737 20.8353C31.2705 21.4343 30.9259 22.2471 30.914 23.0986H28.9111V21.1283C29.77 21.1283 30.5937 20.7863 31.2015 20.1774C31.8094 19.5685 32.1516 18.7424 32.1531 17.8805" fill="white"/>
<path d="M25.8094 19.8898H23.8461C22.5731 19.8898 21.8828 19.2822 21.8828 17.9195V15.9492H23.8461C25.2436 15.9492 25.8094 16.693 25.8094 17.9195V19.8898Z" fill="white"/>
<path d="M25.8045 17.8805C25.8045 17.7897 25.8045 17.7102 25.8045 17.625H23.8242V19.8962C24.6723 19.9006 25.485 20.2383 26.0879 20.837C26.6908 21.4356 27.0359 22.2476 27.0492 23.0986H29.0521V21.1283C28.1932 21.1283 27.3695 20.7863 26.7617 20.1774C26.1538 19.5685 25.8116 18.7424 25.8101 17.8805" fill="white"/>
<path d="M7.23068 19.89C8.5037 19.89 9.19396 19.2824 9.19396 17.9197C9.19777 17.6599 9.1496 17.402 9.05229 17.1612C8.95498 16.9204 8.81051 16.7017 8.62743 16.518C8.44436 16.3343 8.22641 16.1893 7.98649 16.0916C7.74657 15.994 7.48956 15.9456 7.23068 15.9494C5.83319 15.9494 5.26741 16.6933 5.26741 17.9197C5.23988 18.1852 5.27175 18.4536 5.36068 18.7052C5.44961 18.9568 5.59338 19.1853 5.78148 19.3741C5.96958 19.5629 6.19729 19.7071 6.448 19.7964C6.69871 19.8856 6.9661 19.9176 7.23068 19.89" fill="white"/>
<path d="M7.23281 25.0361C8.50582 25.0361 9.19608 24.4285 9.19608 23.0658V21.0898H7.23281C5.83532 21.0898 5.26953 21.8337 5.26953 23.0544C5.26953 24.2752 5.63729 25.0247 7.23281 25.0247" fill="white"/>
<path d="M10.3818 19.8898H12.3507C13.6181 19.8898 14.314 19.2822 14.314 17.9195V15.9492H12.3507C10.9533 15.9492 10.3818 16.693 10.3818 17.9195V19.8898Z" fill="white"/>
<path d="M10.3921 17.8805C10.3921 17.7897 10.3921 17.7102 10.3921 17.625H12.3724V19.8962C11.5238 19.8991 10.7103 20.2364 10.1071 20.8353C9.50391 21.4343 9.15928 22.2471 9.14741 23.0986H7.14453V21.1283C8.00337 21.1283 8.82711 20.7863 9.43493 20.1774C10.0428 19.5685 10.385 18.7424 10.3865 17.8805" fill="white"/>
<path d="M4.04472 19.8898H2.08145C0.808426 19.8898 0.118164 19.2822 0.118164 17.9195V15.9492H2.08145C3.47894 15.9492 4.04472 16.693 4.04472 17.9195V19.8898Z" fill="white"/>
<path d="M4.03886 17.8805C4.03886 17.7897 4.03886 17.7102 4.03886 17.625H2.05859V19.8962C2.90672 19.9006 3.71938 20.2383 4.32227 20.837C4.92516 21.4356 5.27027 22.2476 5.28358 23.0986H7.28081V21.1283C6.42197 21.1283 5.59822 20.7863 4.9904 20.1774C4.38257 19.5685 4.04036 18.7424 4.03886 17.8805" fill="white"/>
<path d="M17.9221 14.5189C19.1951 14.5189 19.8854 13.9113 19.8854 12.5486C19.8892 12.2888 19.841 12.0309 19.7437 11.7901C19.6464 11.5493 19.5019 11.3306 19.3188 11.1469C19.1358 10.9632 18.9178 10.8182 18.6779 10.7205C18.438 10.6229 18.181 10.5745 17.9221 10.5783C16.5246 10.5783 15.9588 11.3222 15.9588 12.5486C15.9313 12.8141 15.9632 13.0825 16.0521 13.3341C16.141 13.5857 16.2848 13.8142 16.4729 14.003C16.661 14.1918 16.8887 14.336 17.1394 14.4253C17.3901 14.5145 17.6575 14.5465 17.9221 14.5189Z" fill="white"/>
<path d="M17.9252 19.6515C19.1982 19.6515 19.8885 19.0439 19.8885 17.6869V15.7109H17.9252C16.5277 15.7109 15.9619 16.4604 15.9619 17.6869C15.9619 18.9133 16.3297 19.6515 17.9252 19.6515" fill="white"/>
<path d="M21.0781 14.5187H23.0414C24.3144 14.5187 25.0047 13.9111 25.0047 12.5484V10.5781H23.0414C21.6439 10.5781 21.0781 11.3219 21.0781 12.5484V14.5187" fill="white"/>
<path d="M21.0816 12.5037C21.0816 12.4186 21.0816 12.3391 21.0816 12.2539H23.0618V14.5251C22.2123 14.528 21.3979 14.8661 20.7946 15.4663C20.1912 16.0665 19.8472 16.8807 19.8368 17.7332H17.8057V15.7572C18.2319 15.7572 18.6539 15.6729 19.0476 15.509C19.4413 15.3452 19.799 15.105 20.1001 14.8023C20.4012 14.4996 20.6399 14.1403 20.8025 13.7449C20.965 13.3495 21.0484 12.9258 21.0476 12.4981" fill="white"/>
<path d="M14.74 14.5187H12.7767C11.5037 14.5187 10.8135 13.9111 10.8135 12.5484V10.5781H12.7767C14.1742 10.5781 14.74 11.3219 14.74 12.5484V14.5187" fill="white"/>
<path d="M14.732 12.5037C14.732 12.4186 14.732 12.3391 14.732 12.2539H12.7461V14.5251C13.5962 14.528 14.4111 14.8659 15.0154 15.4659C15.6196 16.066 15.9649 16.8802 15.9767 17.7332H17.9739V15.7572C17.5477 15.7572 17.1257 15.6729 16.732 15.509C16.3383 15.3452 15.9807 15.105 15.6795 14.8023C15.3784 14.4996 15.1397 14.1403 14.9772 13.7449C14.8146 13.3495 14.7313 12.9258 14.732 12.4981" fill="white"/>
<path d="M17.9221 25.4173C19.1951 25.4173 19.8854 24.8098 19.8854 23.447C19.8892 23.1873 19.841 22.9293 19.7437 22.6886C19.6464 22.4478 19.5019 22.2291 19.3188 22.0453C19.1358 21.8616 18.9178 21.7166 18.6779 21.619C18.438 21.5213 18.181 21.4729 17.9221 21.4768C16.5246 21.4768 15.9588 22.2206 15.9588 23.447C15.9313 23.7126 15.9632 23.9809 16.0521 24.2325C16.141 24.4841 16.2848 24.7127 16.4729 24.9014C16.661 25.0902 16.8887 25.2345 17.1394 25.3237C17.3901 25.413 17.6575 25.4449 17.9221 25.4173" fill="white"/>
<path d="M17.9252 30.5499C19.1982 30.5499 19.8885 29.9424 19.8885 28.5797V26.6094H17.9252C16.5277 26.6094 15.9619 27.3532 15.9619 28.5797C15.9619 29.8061 16.3297 30.5499 17.9252 30.5499Z" fill="white"/>
<path d="M21.0781 25.4171H23.0414C24.3144 25.4171 25.0047 24.8096 25.0047 23.4468V21.4766H23.0414C21.6439 21.4766 21.0781 22.2204 21.0781 23.4468V25.4171" fill="white"/>
<path d="M21.0816 23.4C21.0816 23.3149 21.0816 23.2297 21.0816 23.1445H23.0618V25.4157C22.2132 25.4186 21.3997 25.7559 20.7965 26.3549C20.1933 26.9538 19.8487 27.7666 19.8368 28.6181H17.8057V26.6535C18.2316 26.6543 18.6535 26.5707 19.0472 26.4074C19.4409 26.2442 19.7985 26.0046 20.0997 25.7023C20.4009 25.4 20.6397 25.0411 20.8023 24.646C20.965 24.2509 21.0484 23.8275 21.0476 23.4" fill="white"/>
<path d="M14.74 25.4171H12.7767C11.5037 25.4171 10.8135 24.8096 10.8135 23.4468V21.4766H12.7767C14.1742 21.4766 14.74 22.2204 14.74 23.4468V25.4171" fill="white"/>
<path d="M14.732 23.4C14.732 23.3149 14.732 23.2297 14.732 23.1445H12.7461V25.4157C13.5952 25.4186 14.4093 25.7557 15.0134 26.3545C15.6175 26.9533 15.9634 27.7661 15.9767 28.6181H17.9739V26.6535C17.548 26.6543 17.1261 26.5707 16.7324 26.4074C16.3388 26.2442 15.9811 26.0046 15.6799 25.7023C15.3787 25.4 15.1399 25.0411 14.9773 24.646C14.8146 24.2509 14.7313 23.8275 14.732 23.4" fill="white"/>
<path d="M17.9221 3.94076C19.1951 3.94076 19.8854 3.32753 19.8854 1.97048C19.8892 1.71069 19.841 1.45276 19.7437 1.21199C19.6464 0.971216 19.5019 0.752489 19.3188 0.568765C19.1358 0.38504 18.9178 0.240054 18.6779 0.142393C18.438 0.0447326 18.181 -0.00361616 17.9221 0.000210649C16.5246 0.000210649 15.9588 0.744032 15.9588 1.97048C15.9313 2.23602 15.9632 2.50436 16.0521 2.75597C16.141 3.00757 16.2848 3.23609 16.4729 3.42486C16.661 3.61364 16.8887 3.7579 17.1394 3.84715C17.3901 3.9364 17.6575 3.96838 17.9221 3.94076" fill="white"/>
<path d="M17.9252 9.07231C19.1982 9.07231 19.8885 8.46477 19.8885 7.10204V5.16016H17.9252C16.5277 5.16016 15.9619 5.90398 15.9619 7.13043C15.9619 8.35688 16.3297 9.1007 17.9252 9.1007" fill="white"/>
<path d="M21.0781 3.94055H23.0414C24.3144 3.94055 25.0047 3.32732 25.0047 1.97027V0H23.0414C21.6439 0 21.0781 0.743821 21.0781 1.97027V3.94055Z" fill="white"/>
<path d="M21.0816 1.92348C21.0816 1.83831 21.0816 1.75314 21.0816 1.66797H23.0618V3.93918C22.2127 3.94356 21.3992 4.28207 20.7962 4.88195C20.1931 5.48184 19.8487 6.29521 19.8368 7.14726H17.8057V5.15995C18.2316 5.1607 18.6535 5.07706 19.0472 4.91382C19.4409 4.75058 19.7985 4.51096 20.0997 4.20869C20.4009 3.90643 20.6397 3.54746 20.8023 3.15239C20.965 2.75732 21.0484 2.33391 21.0476 1.90645" fill="white"/>
<path d="M14.74 3.94055H12.7767C11.5037 3.94055 10.8135 3.32732 10.8135 1.97027V0H12.7767C14.1742 0 14.74 0.743821 14.74 1.97027V3.94055Z" fill="white"/>
<path d="M14.732 1.92739C14.732 1.84222 14.732 1.75705 14.732 1.67188H12.7461V3.94308C13.5957 3.94744 14.4098 4.28576 15.0138 4.8855C15.6177 5.48523 15.9634 6.2986 15.9767 7.15117H17.9739V5.16386C17.548 5.16461 17.1261 5.08096 16.7324 4.91772C16.3388 4.75448 15.9811 4.51486 15.6799 4.2126C15.3787 3.91033 15.1399 3.55137 14.9773 3.1563C14.8146 2.76123 14.7313 2.33782 14.732 1.91035" fill="white"/>
<path d="M19.7936 31.5887C19.7921 31.9406 19.6522 32.2777 19.4042 32.5265C19.1562 32.7754 18.8204 32.9158 18.4697 32.9173H17.2419C17.068 32.9173 16.8959 32.883 16.7353 32.8162C16.5746 32.7494 16.4287 32.6516 16.3057 32.5282C16.1828 32.4048 16.0853 32.2583 16.0188 32.0971C15.9522 31.9359 15.918 31.7632 15.918 31.5887V28.5396C15.918 28.3651 15.9522 28.1923 16.0188 28.0311C16.0853 27.8699 16.1828 27.7235 16.3057 27.6001C16.4287 27.4767 16.5746 27.3788 16.7353 27.3121C16.8959 27.2453 17.068 27.2109 17.2419 27.2109H18.481C18.8317 27.2124 19.1676 27.3529 19.4155 27.6017C19.6635 27.8506 19.8034 28.1877 19.8049 28.5396V31.5887" fill="white"/>
</g>
<defs>
<clipPath id="clip0_3215_41492">
<rect width="187" height="34" fill="white"/>
</clipPath>
</defs>
</svg>
