<svg width="40" height="40" viewBox="0 0 40 40" fill="none" xmlns="http://www.w3.org/2000/svg">
<path d="M26.982 3.33203H13.0154C6.9487 3.33203 3.33203 6.9487 3.33203 13.0154V26.9654C3.33203 33.0487 6.9487 36.6654 13.0154 36.6654H26.9654C33.032 36.6654 36.6487 33.0487 36.6487 26.982V13.0154C36.6654 6.9487 33.0487 3.33203 26.982 3.33203ZM27.9654 16.1654L18.5154 25.6154C18.282 25.8487 17.9654 25.982 17.632 25.982C17.2987 25.982 16.982 25.8487 16.7487 25.6154L12.032 20.8987C11.5487 20.4154 11.5487 19.6154 12.032 19.132C12.5154 18.6487 13.3154 18.6487 13.7987 19.132L17.632 22.9654L26.1987 14.3987C26.682 13.9154 27.482 13.9154 27.9654 14.3987C28.4487 14.882 28.4487 15.6654 27.9654 16.1654Z" fill="#F2A84C"/>
</svg>
