<svg width="34" height="34" viewBox="0 0 34 34" fill="none" xmlns="http://www.w3.org/2000/svg">
<path d="M33.1487 10.014V10.0154V23.982C33.1487 26.9159 32.2761 29.1975 30.7285 30.7452C29.1808 32.2928 26.8993 33.1654 23.9654 33.1654H10.0154C7.08148 33.1654 4.80003 32.2928 3.25247 30.7433C1.70484 29.1937 0.832031 26.908 0.832031 23.9654V10.0154C0.832031 7.08147 1.70463 4.79988 3.25225 3.25225C4.79988 1.70463 7.08147 0.832031 10.0154 0.832031H23.982C26.916 0.832031 29.1974 1.70467 30.7428 3.25203C32.2882 4.79929 33.1568 7.08041 33.1487 10.014ZM25.3189 13.5189L25.319 13.519L25.3249 13.5129C25.9923 12.8224 26.0008 11.727 25.3189 11.0451C24.6403 10.3666 23.5237 10.3666 22.8451 11.0451L14.632 19.2583L11.1522 15.7785C10.4737 15.0999 9.35707 15.0999 8.67848 15.7785C7.99988 16.4571 7.99988 17.5737 8.67848 18.2523L13.3951 22.9689C13.7212 23.295 14.1646 23.482 14.632 23.482C15.0995 23.482 15.5429 23.295 15.8689 22.9689L25.3189 13.5189Z" fill="#E0704A" stroke="#E0704A"/>
</svg>
