<svg width="1920" height="962" viewBox="0 0 1920 962" fill="none" xmlns="http://www.w3.org/2000/svg">
<mask id="mask0_3836_45606" style="mask-type:alpha" maskUnits="userSpaceOnUse" x="0" y="0" width="1920" height="962">
<path d="M0 0H1920V861.697L0 961.697V0Z" fill="#2448B1"/>
</mask>
<g mask="url(#mask0_3836_45606)">
<path opacity="0.05" d="M916.801 -102.5C844.201 -46.5 742.561 70.7 916.801 91.5C1134.6 117.5 1805.4 27.4999 1864.19 233.5C1990.19 675.032 816.982 630 849.38 920.5" stroke="white" stroke-width="4"/>
<rect opacity="0.05" width="289.788" height="247.57" rx="50" transform="matrix(0.975966 0.217924 -0.306104 0.951998 -92.2217 794)" fill="white"/>
<path d="M689.976 693.284C690.703 693.969 691.802 694.054 692.574 693.486L698.129 689.398C699.09 688.691 699.158 687.279 698.273 686.406L694.731 682.911C693.824 682.016 693.922 680.561 694.937 679.875L698.668 677.354C700.025 676.437 699.648 674.329 698.033 673.808L671.524 665.255C670.087 664.791 668.723 665.965 669 667.428L673.259 689.901C673.539 691.38 675.297 692.104 676.482 691.228L681.483 687.535C682.255 686.965 683.356 687.05 684.084 687.735L689.976 693.284Z" fill="white"/>
<g opacity="0.1" filter="url(#filter0_f_3836_45606)">
<ellipse cx="298.8" cy="167" rx="375.6" ry="189" fill="white"/>
</g>
<ellipse opacity="0.5" rx="7.17502" ry="6.02985" transform="matrix(0.992043 -0.125903 0.179777 0.983707 150.598 387.997)" fill="white"/>
<ellipse opacity="0.5" rx="5.97918" ry="5.02487" transform="matrix(0.992043 -0.125903 0.179777 0.983707 700.247 165.268)" fill="white"/>
<rect opacity="0.1" width="23.6785" height="20.3796" rx="4" transform="matrix(0.968436 0.249262 -0.347533 0.937668 82.2754 252.805)" fill="white"/>
<path opacity="0.1" d="M707.063 1002.45C757.702 779.475 957.687 770.523 1186.27 735.376C1550.33 679.399 1704.06 433.208 1599.48 275.475" stroke="white" stroke-width="2"/>
<path opacity="0.1" d="M1543.79 745.172C1551.03 745.172 1558.11 747.32 1564.13 751.344C1570.15 755.367 1574.84 761.085 1577.61 767.774C1580.38 774.463 1581.11 781.824 1579.69 788.925C1578.28 796.026 1574.79 802.549 1569.67 807.668C1564.55 812.788 1558.03 816.274 1550.93 817.686C1543.82 819.098 1536.46 818.373 1529.77 815.602C1523.08 812.831 1517.37 808.139 1513.34 802.119C1509.32 796.098 1507.17 789.021 1507.17 781.78C1507.18 772.074 1511.05 762.768 1517.91 755.905C1524.77 749.042 1534.08 745.181 1543.79 745.172ZM1543.79 733C1534.14 732.999 1524.71 735.859 1516.68 741.219C1508.66 746.578 1502.41 754.196 1498.71 763.11C1495.02 772.023 1494.05 781.831 1495.94 791.294C1497.82 800.757 1502.46 809.449 1509.29 816.272C1516.11 823.094 1524.8 827.74 1534.27 829.623C1543.73 831.506 1553.54 830.54 1562.45 826.848C1571.37 823.156 1578.99 816.904 1584.35 808.882C1589.71 800.86 1592.57 791.428 1592.57 781.78C1592.57 768.844 1587.43 756.437 1578.28 747.289C1569.13 738.141 1556.73 733.001 1543.79 733Z" fill="white"/>
<path opacity="0.1" d="M1515.76 700.314L1494.31 693L1487 714.448L1508.45 721.762L1515.76 700.314Z" fill="white"/>
<path opacity="0.05" d="M879.982 632.906C878.397 635.09 876.465 637 874.263 638.56C861.22 647.79 841.585 642.542 830.499 626.869C825.177 619.347 822.561 610.534 823.182 602.092C823.794 593.469 827.653 586.231 834.041 581.708C840.429 577.185 848.538 575.963 856.876 578.249C865.046 580.495 872.478 585.874 877.805 593.399C883.128 600.922 885.743 609.734 885.122 618.176C884.824 623.471 883.043 628.575 879.982 632.906ZM832.026 590.041C829.465 593.683 827.978 597.97 827.734 602.416C827.208 609.82 829.532 617.582 834.227 624.229C843.864 637.849 860.637 642.602 871.62 634.83C876.874 631.115 880.051 625.088 880.566 617.85C881.096 610.448 878.788 602.703 874.073 596.036L875.939 594.718L874.073 596.036C869.36 589.375 862.819 584.62 855.657 582.663C848.665 580.743 841.926 581.732 836.672 585.447C834.883 586.714 833.313 588.266 832.026 590.041Z" fill="white"/>
</g>
<defs>
<filter id="filter0_f_3836_45606" x="-276.8" y="-222" width="1151.2" height="778" filterUnits="userSpaceOnUse" color-interpolation-filters="sRGB">
<feFlood flood-opacity="0" result="BackgroundImageFix"/>
<feBlend mode="normal" in="SourceGraphic" in2="BackgroundImageFix" result="shape"/>
<feGaussianBlur stdDeviation="100" result="effect1_foregroundBlur_3836_45606"/>
</filter>
</defs>
</svg>
