<svg width="56" height="56" viewBox="0 0 56 56" fill="none" xmlns="http://www.w3.org/2000/svg">
<path d="M43.0969 39.2713L44.0069 46.6446C44.2402 48.5813 42.1636 49.9346 40.5069 48.9313L32.4336 44.1246C31.8736 43.798 31.7336 43.098 32.0369 42.538C33.2036 40.3913 33.8336 37.9646 33.8336 35.538C33.8336 26.998 26.5069 20.0446 17.5002 20.0446C15.6569 20.0446 13.8602 20.3246 12.1802 20.8846C11.3169 21.1646 10.4769 20.3713 10.6869 19.4846C12.8102 10.9913 20.9769 4.66797 30.7302 4.66797C42.1169 4.66797 51.3336 13.278 51.3336 23.8946C51.3336 30.1946 48.0902 35.7713 43.0969 39.2713Z" fill="#F2A84C"/>
<path d="M30.3327 35.5363C30.3327 38.313 29.306 40.8796 27.5793 42.9096C25.2694 45.7096 21.606 47.5063 17.4993 47.5063L11.4093 51.123C10.3827 51.753 9.07602 50.8896 9.21602 49.6996L9.79935 45.103C6.67268 42.933 4.66602 39.4563 4.66602 35.5363C4.66602 31.4296 6.85935 27.813 10.2193 25.6663C12.296 24.313 14.7927 23.543 17.4993 23.543C24.5927 23.543 30.3327 28.9096 30.3327 35.5363Z" fill="#F8CF9C"/>
</svg>
