<svg width="56" height="56" viewBox="0 0 56 56" fill="none" xmlns="http://www.w3.org/2000/svg">
<path d="M39.0826 8.30797V4.66797C39.0826 3.7113 38.2892 2.91797 37.3326 2.91797C36.3759 2.91797 35.5826 3.7113 35.5826 4.66797V8.16797H20.4159V4.66797C20.4159 3.7113 19.6226 2.91797 18.6659 2.91797C17.7092 2.91797 16.9159 3.7113 16.9159 4.66797V8.30797C10.6159 8.8913 7.55923 12.648 7.09257 18.2246C7.0459 18.9013 7.6059 19.4613 8.25923 19.4613H47.7392C48.4159 19.4613 48.9759 18.878 48.9059 18.2246C48.4392 12.648 45.3826 8.8913 39.0826 8.30797Z" fill="#57B6F0"/>
<path d="M46.6667 22.9609H9.33333C8.05 22.9609 7 24.0109 7 25.2943V39.6676C7 46.6676 10.5 51.3343 18.6667 51.3343H37.3333C45.5 51.3343 49 46.6676 49 39.6676V25.2943C49 24.0109 47.95 22.9609 46.6667 22.9609ZM21.49 42.4909C21.3733 42.5843 21.2567 42.7009 21.14 42.7709C21 42.8643 20.86 42.9343 20.72 42.9809C20.58 43.0509 20.44 43.0976 20.3 43.1209C20.1367 43.1443 19.9967 43.1676 19.8333 43.1676C19.53 43.1676 19.2267 43.0976 18.9467 42.9809C18.6433 42.8643 18.41 42.7009 18.1767 42.4909C17.7567 42.0476 17.5 41.4409 17.5 40.8343C17.5 40.2276 17.7567 39.6209 18.1767 39.1776C18.41 38.9676 18.6433 38.8043 18.9467 38.6876C19.3667 38.5009 19.8333 38.4543 20.3 38.5476C20.44 38.5709 20.58 38.6176 20.72 38.6876C20.86 38.7343 21 38.8043 21.14 38.8976C21.2567 38.9909 21.3733 39.0843 21.49 39.1776C21.91 39.6209 22.1667 40.2276 22.1667 40.8343C22.1667 41.4409 21.91 42.0476 21.49 42.4909ZM21.49 34.3243C21.0467 34.7443 20.44 35.0009 19.8333 35.0009C19.2267 35.0009 18.62 34.7443 18.1767 34.3243C17.7567 33.8809 17.5 33.2743 17.5 32.6676C17.5 32.0609 17.7567 31.4543 18.1767 31.0109C18.83 30.3576 19.8567 30.1476 20.72 30.5209C21.0233 30.6376 21.28 30.8009 21.49 31.0109C21.91 31.4543 22.1667 32.0609 22.1667 32.6676C22.1667 33.2743 21.91 33.8809 21.49 34.3243ZM29.6567 42.4909C29.2133 42.9109 28.6067 43.1676 28 43.1676C27.3933 43.1676 26.7867 42.9109 26.3433 42.4909C25.9233 42.0476 25.6667 41.4409 25.6667 40.8343C25.6667 40.2276 25.9233 39.6209 26.3433 39.1776C27.2067 38.3143 28.7933 38.3143 29.6567 39.1776C30.0767 39.6209 30.3333 40.2276 30.3333 40.8343C30.3333 41.4409 30.0767 42.0476 29.6567 42.4909ZM29.6567 34.3243C29.54 34.4176 29.4233 34.5109 29.3067 34.6043C29.1667 34.6976 29.0267 34.7676 28.8867 34.8143C28.7467 34.8843 28.6067 34.9309 28.4667 34.9543C28.3033 34.9776 28.1633 35.0009 28 35.0009C27.3933 35.0009 26.7867 34.7443 26.3433 34.3243C25.9233 33.8809 25.6667 33.2743 25.6667 32.6676C25.6667 32.0609 25.9233 31.4543 26.3433 31.0109C26.5533 30.8009 26.81 30.6376 27.1133 30.5209C27.9767 30.1476 29.0033 30.3576 29.6567 31.0109C30.0767 31.4543 30.3333 32.0609 30.3333 32.6676C30.3333 33.2743 30.0767 33.8809 29.6567 34.3243ZM37.8233 42.4909C37.38 42.9109 36.7733 43.1676 36.1667 43.1676C35.56 43.1676 34.9533 42.9109 34.51 42.4909C34.09 42.0476 33.8333 41.4409 33.8333 40.8343C33.8333 40.2276 34.09 39.6209 34.51 39.1776C35.3733 38.3143 36.96 38.3143 37.8233 39.1776C38.2433 39.6209 38.5 40.2276 38.5 40.8343C38.5 41.4409 38.2433 42.0476 37.8233 42.4909ZM37.8233 34.3243C37.7067 34.4176 37.59 34.5109 37.4733 34.6043C37.3333 34.6976 37.1933 34.7676 37.0533 34.8143C36.9133 34.8843 36.7733 34.9309 36.6333 34.9543C36.47 34.9776 36.3067 35.0009 36.1667 35.0009C35.56 35.0009 34.9533 34.7443 34.51 34.3243C34.09 33.8809 33.8333 33.2743 33.8333 32.6676C33.8333 32.0609 34.09 31.4543 34.51 31.0109C34.7433 30.8009 34.9767 30.6376 35.28 30.5209C35.7 30.3343 36.1667 30.2876 36.6333 30.3809C36.7733 30.4043 36.9133 30.4509 37.0533 30.5209C37.1933 30.5676 37.3333 30.6376 37.4733 30.7309C37.59 30.8243 37.7067 30.9176 37.8233 31.0109C38.2433 31.4543 38.5 32.0609 38.5 32.6676C38.5 33.2743 38.2433 33.8809 37.8233 34.3243Z" fill="#ABDAF7"/>
</svg>
