<svg width="56" height="56" viewBox="0 0 56 56" fill="none" xmlns="http://www.w3.org/2000/svg">
<path d="M50.0062 20.277C50.3134 20.8974 49.8332 21.5846 49.1409 21.5846H5.66602C5.11373 21.5846 4.66602 21.1369 4.66602 20.5846V14.9813C4.66602 9.28797 9.28602 4.66797 14.9793 4.66797H20.3927C24.196 4.66797 25.386 5.90464 26.9027 7.93464L30.1693 12.2746C30.8927 13.2313 30.986 13.348 32.3393 13.348H38.8493C43.7365 13.348 47.9715 16.1679 50.0062 20.277Z" fill="#D34B6A"/>
<path d="M50.2894 25.082C50.8404 25.082 51.2875 25.5277 51.2894 26.0787L51.3327 38.8493C51.3327 45.7327 45.7327 51.3327 38.8493 51.3327H17.1493C10.266 51.3327 4.66602 45.7327 4.66602 38.8493V26.0826C4.66602 25.5304 5.11372 25.0827 5.666 25.0826L50.2894 25.082Z" fill="#E79CAD"/>
</svg>
