<svg width="291" height="291" viewBox="0 0 291 291" fill="none" xmlns="http://www.w3.org/2000/svg">
<mask id="mask0_3094_180833" style="mask-type:alpha" maskUnits="userSpaceOnUse" x="0" y="0" width="291" height="291">
<rect width="291" height="291" rx="12" fill="#EDF3FE"/>
</mask>
<g mask="url(#mask0_3094_180833)">
<path opacity="0.2" d="M696.496 -577C653.829 -539.667 568.896 -439 570.496 -335C572.496 -205 696.496 -99 630.496 -11C560.784 81.9496 138.496 13 44.4961 151C-6.90355 226.459 142.496 294 314.496 272C389.279 262.435 623.996 353.5 689.996 405.5" stroke="#A3C2FB" stroke-width="2"/>
<path opacity="0.1" d="M750.003 -655.489C631.837 -662.989 535.996 -586.987 544.503 -490.488C560.503 -308.988 591.002 -201.999 466.002 -89.5C265.642 90.8233 -104.996 81.5 21.5032 237.5C148.003 393.5 263.555 75.4999 295.555 217.5C321.155 331.1 476.888 326.167 551.555 309.5" stroke="#A3C2FB" stroke-width="3"/>
</g>
</svg>
