<svg width="291" height="291" viewBox="0 0 291 291" fill="none" xmlns="http://www.w3.org/2000/svg">
<mask id="mask0_3094_180837" style="mask-type:alpha" maskUnits="userSpaceOnUse" x="0" y="0" width="291" height="291">
<rect width="291" height="291" rx="12" fill="#EDF3FE"/>
</mask>
<g mask="url(#mask0_3094_180837)">
<path opacity="0.2" d="M283.277 -376C240.611 -338.667 155.677 -238 157.277 -134C159.277 -4 283.277 102 217.277 190C147.565 282.95 -274.723 214 -368.723 352C-420.122 427.459 -270.723 495 -98.7224 473C-23.9393 463.435 210.778 554.5 276.777 606.5" stroke="#A3C2FB" stroke-width="2"/>
<path opacity="0.3" d="M371.23 -425.489C253.063 -432.989 157.223 -356.987 165.73 -260.488C181.73 -78.9883 212.229 28.0007 87.2286 140.5C-113.132 320.823 -483.77 311.5 -357.27 467.5C-230.771 623.5 -115.219 305.5 -83.2186 447.5C-57.6186 561.1 98.1148 556.167 172.781 539.5" stroke="#A3C2FB" stroke-width="2"/>
</g>
</svg>
