<svg width="40" height="40" viewBox="0 0 40 40" fill="none" xmlns="http://www.w3.org/2000/svg">
<path d="M25.3335 11.9355L11.8335 6.10218C11.6335 6.00218 11.4168 6.03551 11.2335 6.15218C11.0668 6.26885 10.9668 6.45218 10.9668 6.66885V28.3355C10.9668 28.5522 11.0835 28.7522 11.2668 28.8688C11.3668 28.9355 11.4835 28.9688 11.6001 28.9688C11.7001 28.9688 11.7835 28.9522 11.8835 28.9022L25.7168 22.0688C25.7168 22.0688 25.7168 22.0688 25.7335 22.0688C28.5001 20.6355 29.9835 18.7855 29.9001 16.8355C29.8001 14.8688 28.1835 13.1355 25.3335 11.9355Z" fill="#E79CAD"/>
<path d="M10.75 36.6654C10.0667 36.6654 9.5 36.0987 9.5 35.4154V4.58203C9.5 3.8987 10.0667 3.33203 10.75 3.33203C11.4333 3.33203 12 3.8987 12 4.58203V35.4154C12 36.0987 11.4333 36.6654 10.75 36.6654Z" fill="#D34B6A"/>
</svg>
