<svg width="40" height="40" viewBox="0 0 40 40" fill="none" xmlns="http://www.w3.org/2000/svg">
<path d="M6.95064 25.4984L14.5006 33.0484C17.6006 36.1484 22.634 36.1484 25.7506 33.0484L33.0673 25.7317C36.1673 22.6317 36.1673 17.5984 33.0673 14.4817L25.5006 6.94837C23.9173 5.36504 21.734 4.51504 19.5006 4.63171L11.1673 5.03171C7.83397 5.18171 5.18397 7.83171 5.0173 11.1484L4.6173 19.4817C4.5173 21.7317 5.3673 23.915 6.95064 25.4984Z" fill="#F8CF9C"/>
<path d="M15.8332 20.6313C18.4842 20.6313 20.6332 18.4822 20.6332 15.8313C20.6332 13.1803 18.4842 11.0312 15.8332 11.0312C13.1822 11.0312 11.0332 13.1803 11.0332 15.8313C11.0332 18.4822 13.1822 20.6313 15.8332 20.6313Z" fill="#F2A84C"/>
</svg>
