<svg width="40" height="40" viewBox="0 0 40 40" fill="none" xmlns="http://www.w3.org/2000/svg">
<path d="M26.982 3.33203H13.0154C6.9487 3.33203 3.33203 6.9487 3.33203 13.0154V26.9654C3.33203 33.0487 6.9487 36.6654 13.0154 36.6654H26.9654C33.032 36.6654 36.6487 33.0487 36.6487 26.982V13.0154C36.6654 6.9487 33.0487 3.33203 26.982 3.33203ZM19.9987 30.4154C17.0154 30.4154 14.682 28.932 13.0987 27.4654V28.6487C13.0987 29.332 12.532 29.8987 11.8487 29.8987C11.1654 29.8987 10.5987 29.332 10.5987 28.6487V24.0654C10.5987 23.382 11.1654 22.8154 11.8487 22.8154H15.982C16.6654 22.8154 17.232 23.382 17.232 24.0654C17.232 24.7487 16.6654 25.3154 15.982 25.3154H14.482C15.7154 26.5487 17.632 27.9154 19.9987 27.9154C24.3654 27.9154 27.9154 24.3654 27.9154 19.9987C27.9154 19.3154 28.482 18.7487 29.1654 18.7487C29.8487 18.7487 30.4154 19.3154 30.4154 19.9987C30.4154 25.7487 25.7487 30.4154 19.9987 30.4154ZM30.4154 15.8987C30.4154 15.9487 30.4154 15.9987 30.4154 16.032C30.3987 16.2154 30.3487 16.382 30.2654 16.532C30.182 16.682 30.0654 16.8154 29.9154 16.932C29.7987 17.0154 29.6654 17.082 29.5154 17.132C29.3987 17.1654 29.282 17.182 29.1654 17.182H25.1154C24.432 17.182 23.8654 16.6154 23.8654 15.932C23.8654 15.2487 24.432 14.682 25.1154 14.682H26.4987C25.1654 13.4487 23.0154 12.082 20.032 12.082C15.6654 12.082 12.1154 15.632 12.1154 19.9987C12.1154 20.682 11.5487 21.2487 10.8654 21.2487C10.182 21.2487 9.58203 20.682 9.58203 19.9987C9.58203 14.2487 14.2487 9.58203 19.9987 9.58203C23.582 9.58203 26.2154 11.132 27.9154 12.6154V11.3487C27.9154 10.6654 28.482 10.0987 29.1654 10.0987C29.8487 10.0987 30.4154 10.6654 30.4154 11.3487V15.8987Z" fill="#83BF6E"/>
</svg>
