<svg width="240" height="200" viewBox="0 0 240 200" fill="none" xmlns="http://www.w3.org/2000/svg">
<g filter="url(#filter0_b_3094_180872)">
<rect x="43.2969" y="26.4062" width="140" height="160" rx="12" transform="rotate(-5 43.2969 26.4062)" fill="white" fill-opacity="0.1"/>
<rect x="44.3802" y="27.3153" width="138" height="158" rx="11" transform="rotate(-5 44.3802 27.3153)" stroke="white" stroke-opacity="0.35" stroke-width="2"/>
</g>
<rect x="88" y="68" width="64" height="64" rx="10" fill="#F3F9F1"/>
<path fill-rule="evenodd" clip-rule="evenodd" d="M117.973 112.162C117.973 111.49 118.517 110.946 119.189 110.946H135.405C136.077 110.946 136.622 111.49 136.622 112.162C136.622 112.834 136.077 113.378 135.405 113.378H119.189C118.517 113.378 117.973 112.834 117.973 112.162Z" fill="#83BF6E"/>
<path fill-rule="evenodd" clip-rule="evenodd" d="M117.973 100.811C117.973 100.139 118.517 99.5946 119.189 99.5946H135.405C136.077 99.5946 136.622 100.139 136.622 100.811C136.622 101.483 136.077 102.027 135.405 102.027H119.189C118.517 102.027 117.973 101.483 117.973 100.811Z" fill="#83BF6E"/>
<path fill-rule="evenodd" clip-rule="evenodd" d="M117.973 89.4595C117.973 88.7878 118.517 88.2432 119.189 88.2432H135.405C136.077 88.2432 136.622 88.7878 136.622 89.4595C136.622 90.1312 136.077 90.6757 135.405 90.6757H119.189C118.517 90.6757 117.973 90.1312 117.973 89.4595Z" fill="#83BF6E"/>
<path fill-rule="evenodd" clip-rule="evenodd" d="M113.563 85.3562C114.038 85.8312 114.038 86.6012 113.563 87.0762L108.698 91.9411C108.223 92.416 107.453 92.416 106.978 91.9411L105.356 90.3195C104.881 89.8445 104.881 89.0744 105.356 88.5995C105.831 88.1245 106.601 88.1245 107.076 88.5995L107.838 89.3611L111.843 85.3562C112.318 84.8813 113.088 84.8813 113.563 85.3562Z" fill="#83BF6E"/>
<path fill-rule="evenodd" clip-rule="evenodd" d="M113.563 96.7076C114.038 97.1825 114.038 97.9526 113.563 98.4276L108.698 103.292C108.223 103.767 107.453 103.767 106.978 103.292L105.356 101.671C104.881 101.196 104.881 100.426 105.356 99.9508C105.831 99.4759 106.601 99.4759 107.076 99.9508L107.838 100.712L111.843 96.7076C112.318 96.2326 113.088 96.2326 113.563 96.7076Z" fill="#83BF6E"/>
<path fill-rule="evenodd" clip-rule="evenodd" d="M113.563 108.059C114.038 108.534 114.038 109.304 113.563 109.779L108.698 114.644C108.223 115.119 107.453 115.119 106.978 114.644L105.356 113.022C104.881 112.547 104.881 111.777 105.356 111.302C105.831 110.827 106.601 110.827 107.076 111.302L107.838 112.064L111.843 108.059C112.318 107.584 113.088 107.584 113.563 108.059Z" fill="#83BF6E"/>
<defs>
<filter id="filter0_b_3094_180872" x="31.2969" y="2.20312" width="177.412" height="195.594" filterUnits="userSpaceOnUse" color-interpolation-filters="sRGB">
<feFlood flood-opacity="0" result="BackgroundImageFix"/>
<feGaussianBlur in="BackgroundImageFix" stdDeviation="6.5"/>
<feComposite in2="SourceAlpha" operator="in" result="effect1_backgroundBlur_3094_180872"/>
<feBlend mode="normal" in="SourceGraphic" in2="effect1_backgroundBlur_3094_180872" result="shape"/>
</filter>
</defs>
</svg>
