<svg width="282" height="212" viewBox="0 0 282 212" fill="none" xmlns="http://www.w3.org/2000/svg">
<g filter="url(#filter0_b_3874_45608)">
<rect x="43" y="38.4062" width="140" height="160" rx="12" transform="rotate(-5 43 38.4062)" fill="white" fill-opacity="0.1"/>
<rect x="44.0834" y="39.3153" width="138" height="158" rx="11" transform="rotate(-5 44.0834 39.3153)" stroke="white" stroke-opacity="0.35" stroke-width="2"/>
</g>
<rect x="88" y="80" width="64" height="64" rx="10" fill="#EDF3FE"/>
<path d="M127.916 97.932V95.332C127.916 94.6487 127.35 94.082 126.666 94.082C125.983 94.082 125.416 94.6487 125.416 95.332V97.832H114.583V95.332C114.583 94.6487 114.016 94.082 113.333 94.082C112.65 94.082 112.083 94.6487 112.083 95.332V97.932C107.583 98.3487 105.4 101.032 105.066 105.015C105.033 105.499 105.433 105.899 105.9 105.899H134.1C134.583 105.899 134.983 105.482 134.933 105.015C134.6 101.032 132.416 98.3487 127.916 97.932Z" fill="#57B6F0"/>
<path d="M133.333 108.398H106.667C105.75 108.398 105 109.148 105 110.065V120.332C105 125.332 107.5 128.665 113.333 128.665H126.667C132.5 128.665 135 125.332 135 120.332V110.065C135 109.148 134.25 108.398 133.333 108.398ZM115.35 122.348C115.267 122.415 115.183 122.498 115.1 122.548C115 122.615 114.9 122.665 114.8 122.698C114.7 122.748 114.6 122.782 114.5 122.798C114.383 122.815 114.283 122.832 114.167 122.832C113.95 122.832 113.733 122.782 113.533 122.698C113.317 122.615 113.15 122.498 112.983 122.348C112.683 122.032 112.5 121.598 112.5 121.165C112.5 120.732 112.683 120.298 112.983 119.982C113.15 119.832 113.317 119.715 113.533 119.632C113.833 119.498 114.167 119.465 114.5 119.532C114.6 119.548 114.7 119.582 114.8 119.632C114.9 119.665 115 119.715 115.1 119.782C115.183 119.848 115.267 119.915 115.35 119.982C115.65 120.298 115.833 120.732 115.833 121.165C115.833 121.598 115.65 122.032 115.35 122.348ZM115.35 116.515C115.033 116.815 114.6 116.998 114.167 116.998C113.733 116.998 113.3 116.815 112.983 116.515C112.683 116.198 112.5 115.765 112.5 115.332C112.5 114.898 112.683 114.465 112.983 114.148C113.45 113.682 114.183 113.532 114.8 113.798C115.017 113.882 115.2 113.998 115.35 114.148C115.65 114.465 115.833 114.898 115.833 115.332C115.833 115.765 115.65 116.198 115.35 116.515ZM121.183 122.348C120.867 122.648 120.433 122.832 120 122.832C119.567 122.832 119.133 122.648 118.817 122.348C118.517 122.032 118.333 121.598 118.333 121.165C118.333 120.732 118.517 120.298 118.817 119.982C119.433 119.365 120.567 119.365 121.183 119.982C121.483 120.298 121.667 120.732 121.667 121.165C121.667 121.598 121.483 122.032 121.183 122.348ZM121.183 116.515C121.1 116.582 121.017 116.648 120.933 116.715C120.833 116.782 120.733 116.832 120.633 116.865C120.533 116.915 120.433 116.948 120.333 116.965C120.217 116.982 120.117 116.998 120 116.998C119.567 116.998 119.133 116.815 118.817 116.515C118.517 116.198 118.333 115.765 118.333 115.332C118.333 114.898 118.517 114.465 118.817 114.148C118.967 113.998 119.15 113.882 119.367 113.798C119.983 113.532 120.717 113.682 121.183 114.148C121.483 114.465 121.667 114.898 121.667 115.332C121.667 115.765 121.483 116.198 121.183 116.515ZM127.017 122.348C126.7 122.648 126.267 122.832 125.833 122.832C125.4 122.832 124.967 122.648 124.65 122.348C124.35 122.032 124.167 121.598 124.167 121.165C124.167 120.732 124.35 120.298 124.65 119.982C125.267 119.365 126.4 119.365 127.017 119.982C127.317 120.298 127.5 120.732 127.5 121.165C127.5 121.598 127.317 122.032 127.017 122.348ZM127.017 116.515C126.933 116.582 126.85 116.648 126.767 116.715C126.667 116.782 126.567 116.832 126.467 116.865C126.367 116.915 126.267 116.948 126.167 116.965C126.05 116.982 125.933 116.998 125.833 116.998C125.4 116.998 124.967 116.815 124.65 116.515C124.35 116.198 124.167 115.765 124.167 115.332C124.167 114.898 124.35 114.465 124.65 114.148C124.817 113.998 124.983 113.882 125.2 113.798C125.5 113.665 125.833 113.632 126.167 113.698C126.267 113.715 126.367 113.748 126.467 113.798C126.567 113.832 126.667 113.882 126.767 113.948C126.85 114.015 126.933 114.082 127.017 114.148C127.317 114.465 127.5 114.898 127.5 115.332C127.5 115.765 127.317 116.198 127.017 116.515Z" fill="#ABDAF7"/>
<path opacity="0.05" d="M271.493 103.541C271.661 102.01 270.11 100.872 268.7 101.492L256.016 107.069C254.607 107.689 254.397 109.602 255.638 110.513L266.81 118.709C268.052 119.62 269.814 118.845 269.982 117.314L271.493 103.541Z" fill="#EBEEF2"/>
<circle opacity="0.1" cx="74" cy="5" r="5" fill="#EBEEF2"/>
<circle opacity="0.2" cx="232" cy="193" r="3" fill="#EBEEF2"/>
<defs>
<filter id="filter0_b_3874_45608" x="31" y="14.2031" width="177.412" height="195.594" filterUnits="userSpaceOnUse" color-interpolation-filters="sRGB">
<feFlood flood-opacity="0" result="BackgroundImageFix"/>
<feGaussianBlur in="BackgroundImage" stdDeviation="6.5"/>
<feComposite in2="SourceAlpha" operator="in" result="effect1_backgroundBlur_3874_45608"/>
<feBlend mode="normal" in="SourceGraphic" in2="effect1_backgroundBlur_3874_45608" result="shape"/>
</filter>
</defs>
</svg>
