<svg width="240" height="200" viewBox="0 0 240 200" fill="none" xmlns="http://www.w3.org/2000/svg">
<g filter="url(#filter0_b_3094_179497)">
<rect x="43" y="26.4062" width="140" height="160" rx="12" transform="rotate(-5 43 26.4062)" fill="white" fill-opacity="0.1"/>
<rect x="44.0834" y="27.3153" width="138" height="158" rx="11" transform="rotate(-5 44.0834 27.3153)" stroke="white" stroke-opacity="0.35" stroke-width="2"/>
</g>
<rect x="88" y="68" width="64" height="64" rx="10" fill="#EDF3FE"/>
<path d="M127.916 85.932V83.332C127.916 82.6487 127.35 82.082 126.666 82.082C125.983 82.082 125.416 82.6487 125.416 83.332V85.832H114.583V83.332C114.583 82.6487 114.016 82.082 113.333 82.082C112.65 82.082 112.083 82.6487 112.083 83.332V85.932C107.583 86.3487 105.4 89.032 105.066 93.0154C105.033 93.4987 105.433 93.8987 105.9 93.8987H134.1C134.583 93.8987 134.983 93.482 134.933 93.0154C134.6 89.032 132.416 86.3487 127.916 85.932Z" fill="#57B6F0"/>
<path d="M133.333 96.3984H106.667C105.75 96.3984 105 97.1484 105 98.0651V108.332C105 113.332 107.5 116.665 113.333 116.665H126.667C132.5 116.665 135 113.332 135 108.332V98.0651C135 97.1484 134.25 96.3984 133.333 96.3984ZM115.35 110.348C115.267 110.415 115.183 110.498 115.1 110.548C115 110.615 114.9 110.665 114.8 110.698C114.7 110.748 114.6 110.782 114.5 110.798C114.383 110.815 114.283 110.832 114.167 110.832C113.95 110.832 113.733 110.782 113.533 110.698C113.317 110.615 113.15 110.498 112.983 110.348C112.683 110.032 112.5 109.598 112.5 109.165C112.5 108.732 112.683 108.298 112.983 107.982C113.15 107.832 113.317 107.715 113.533 107.632C113.833 107.498 114.167 107.465 114.5 107.532C114.6 107.548 114.7 107.582 114.8 107.632C114.9 107.665 115 107.715 115.1 107.782C115.183 107.848 115.267 107.915 115.35 107.982C115.65 108.298 115.833 108.732 115.833 109.165C115.833 109.598 115.65 110.032 115.35 110.348ZM115.35 104.515C115.033 104.815 114.6 104.998 114.167 104.998C113.733 104.998 113.3 104.815 112.983 104.515C112.683 104.198 112.5 103.765 112.5 103.332C112.5 102.898 112.683 102.465 112.983 102.148C113.45 101.682 114.183 101.532 114.8 101.798C115.017 101.882 115.2 101.998 115.35 102.148C115.65 102.465 115.833 102.898 115.833 103.332C115.833 103.765 115.65 104.198 115.35 104.515ZM121.183 110.348C120.867 110.648 120.433 110.832 120 110.832C119.567 110.832 119.133 110.648 118.817 110.348C118.517 110.032 118.333 109.598 118.333 109.165C118.333 108.732 118.517 108.298 118.817 107.982C119.433 107.365 120.567 107.365 121.183 107.982C121.483 108.298 121.667 108.732 121.667 109.165C121.667 109.598 121.483 110.032 121.183 110.348ZM121.183 104.515C121.1 104.582 121.017 104.648 120.933 104.715C120.833 104.782 120.733 104.832 120.633 104.865C120.533 104.915 120.433 104.948 120.333 104.965C120.217 104.982 120.117 104.998 120 104.998C119.567 104.998 119.133 104.815 118.817 104.515C118.517 104.198 118.333 103.765 118.333 103.332C118.333 102.898 118.517 102.465 118.817 102.148C118.967 101.998 119.15 101.882 119.367 101.798C119.983 101.532 120.717 101.682 121.183 102.148C121.483 102.465 121.667 102.898 121.667 103.332C121.667 103.765 121.483 104.198 121.183 104.515ZM127.017 110.348C126.7 110.648 126.267 110.832 125.833 110.832C125.4 110.832 124.967 110.648 124.65 110.348C124.35 110.032 124.167 109.598 124.167 109.165C124.167 108.732 124.35 108.298 124.65 107.982C125.267 107.365 126.4 107.365 127.017 107.982C127.317 108.298 127.5 108.732 127.5 109.165C127.5 109.598 127.317 110.032 127.017 110.348ZM127.017 104.515C126.933 104.582 126.85 104.648 126.767 104.715C126.667 104.782 126.567 104.832 126.467 104.865C126.367 104.915 126.267 104.948 126.167 104.965C126.05 104.982 125.933 104.998 125.833 104.998C125.4 104.998 124.967 104.815 124.65 104.515C124.35 104.198 124.167 103.765 124.167 103.332C124.167 102.898 124.35 102.465 124.65 102.148C124.817 101.998 124.983 101.882 125.2 101.798C125.5 101.665 125.833 101.632 126.167 101.698C126.267 101.715 126.367 101.748 126.467 101.798C126.567 101.832 126.667 101.882 126.767 101.948C126.85 102.015 126.933 102.082 127.017 102.148C127.317 102.465 127.5 102.898 127.5 103.332C127.5 103.765 127.317 104.198 127.017 104.515Z" fill="#ABDAF7"/>
<defs>
<filter id="filter0_b_3094_179497" x="31" y="2.20312" width="177.412" height="195.594" filterUnits="userSpaceOnUse" color-interpolation-filters="sRGB">
<feFlood flood-opacity="0" result="BackgroundImageFix"/>
<feGaussianBlur in="BackgroundImage" stdDeviation="6.5"/>
<feComposite in2="SourceAlpha" operator="in" result="effect1_backgroundBlur_3094_179497"/>
<feBlend mode="normal" in="SourceGraphic" in2="effect1_backgroundBlur_3094_179497" result="shape"/>
</filter>
</defs>
</svg>
