<svg width="838" height="504" viewBox="0 0 838 504" fill="none" xmlns="http://www.w3.org/2000/svg">
<path d="M83 40H181.857V500H83V40Z" fill="url(#paint0_linear_3094_179207)"/>
<rect x="281" y="40" width="98.8571" height="460" fill="url(#paint1_linear_3094_179207)"/>
<rect x="328.32" y="40" width="4" height="460" rx="2" fill="url(#paint2_linear_3094_179207)"/>
<path d="M330.321 70L330.507 69.5054C334.136 59.8897 339.188 50.8738 345.496 42.7595C346.369 41.6362 345.569 40 344.146 40H316.495C315.072 40 314.272 41.6362 315.145 42.7595C321.453 50.8738 326.505 59.8897 330.134 69.5054L330.321 70Z" fill="#4A86F7"/>
<rect x="479" y="40" width="98.8571" height="460" fill="url(#paint3_linear_3094_179207)"/>
<rect x="677.57" y="40" width="98.8571" height="460" fill="url(#paint4_linear_3094_179207)"/>
<g filter="url(#filter0_d_3094_179207)">
<rect x="229" y="324" width="220" height="64" rx="12" fill="white"/>
</g>
<g opacity="0.5">
<path fill-rule="evenodd" clip-rule="evenodd" d="M265 344C258.383 344 253 349.383 253 356C253 362.617 258.383 368 265 368C271.617 368 277 362.617 277 356C277 349.383 271.617 344 265 344ZM266.953 349.455C267.952 349.455 268.838 350.05 269.202 350.973C269.559 351.903 269.314 352.93 268.574 353.598L265.902 356H265.895L268.567 358.402C269.314 359.07 269.559 360.097 269.195 361.027C268.831 361.95 267.952 362.545 266.947 362.545H263.051C262.052 362.545 261.166 361.95 260.802 361.027C260.439 360.097 260.683 359.07 261.431 358.402L264.103 356H264.109L261.437 353.598C260.69 352.93 260.445 351.903 260.802 350.973C261.166 350.05 262.052 349.455 263.051 349.455H266.953ZM263.798 352.878H266.206C266.451 352.878 266.656 352.675 266.656 352.433C266.656 352.191 266.457 351.988 266.206 351.988H263.798C263.554 351.988 263.349 352.191 263.349 352.433C263.349 352.675 263.547 352.878 263.798 352.878ZM266.206 360.019H263.798C263.547 360.019 263.349 359.816 263.349 359.574C263.349 359.332 263.554 359.129 263.798 359.129H266.206C266.457 359.129 266.656 359.332 266.656 359.574C266.656 359.816 266.451 360.019 266.206 360.019Z" fill="#A5ADC5"/>
</g>
<path opacity="0.5" d="M294.091 362C297.636 362 299.739 359.807 299.739 356.17C299.739 352.545 297.636 350.364 294.17 350.364H290.148V362H294.091ZM292.256 360.176V352.188H294.051C296.415 352.188 297.648 353.506 297.648 356.17C297.648 358.847 296.415 360.176 293.989 360.176H292.256ZM305.514 362.17C307.548 362.17 308.946 361.176 309.31 359.659L307.389 359.443C307.111 360.182 306.429 360.568 305.543 360.568C304.213 360.568 303.332 359.693 303.315 358.199H309.395V357.568C309.395 354.506 307.554 353.159 305.406 353.159C302.906 353.159 301.276 354.994 301.276 357.688C301.276 360.426 302.884 362.17 305.514 362.17ZM303.321 356.812C303.384 355.699 304.207 354.761 305.435 354.761C306.616 354.761 307.412 355.625 307.423 356.812H303.321ZM318.033 355.58C317.749 354.102 316.567 353.159 314.521 353.159C312.419 353.159 310.987 354.193 310.993 355.807C310.987 357.08 311.771 357.92 313.447 358.267L314.936 358.58C315.737 358.756 316.112 359.08 316.112 359.574C316.112 360.17 315.464 360.619 314.487 360.619C313.544 360.619 312.93 360.21 312.754 359.426L310.749 359.619C311.004 361.222 312.351 362.17 314.493 362.17C316.675 362.17 318.214 361.04 318.22 359.386C318.214 358.142 317.413 357.381 315.766 357.023L314.277 356.705C313.391 356.506 313.038 356.199 313.044 355.693C313.038 355.102 313.692 354.693 314.55 354.693C315.499 354.693 315.999 355.21 316.158 355.784L318.033 355.58ZM319.916 362H321.973V353.273H319.916V362ZM320.95 352.034C321.604 352.034 322.138 351.534 322.138 350.92C322.138 350.301 321.604 349.801 320.95 349.801C320.291 349.801 319.757 350.301 319.757 350.92C319.757 351.534 320.291 352.034 320.95 352.034ZM327.884 365.455C330.241 365.455 331.98 364.375 331.98 362.142V353.273H329.952V354.716H329.838C329.526 354.085 328.872 353.159 327.332 353.159C325.315 353.159 323.73 354.739 323.73 357.608C323.73 360.455 325.315 361.875 327.327 361.875C328.821 361.875 329.52 361.074 329.838 360.432H329.94V362.085C329.94 363.369 329.088 363.898 327.918 363.898C326.679 363.898 326.134 363.312 325.884 362.801L324.031 363.25C324.406 364.472 325.662 365.455 327.884 365.455ZM327.901 360.261C326.543 360.261 325.827 359.205 325.827 357.597C325.827 356.011 326.531 354.847 327.901 354.847C329.224 354.847 329.952 355.943 329.952 357.597C329.952 359.261 329.213 360.261 327.901 360.261ZM336.145 356.886C336.145 355.625 336.906 354.898 337.991 354.898C339.054 354.898 339.69 355.597 339.69 356.761V362H341.747V356.443C341.753 354.352 340.56 353.159 338.759 353.159C337.452 353.159 336.554 353.784 336.156 354.756H336.054V353.273H334.088V362H336.145V356.886Z" fill="#35353D"/>
<g filter="url(#filter1_d_3094_179207)">
<rect x="339" y="404" width="220" height="64" rx="12" fill="white"/>
</g>
<g opacity="0.5">
<path fill-rule="evenodd" clip-rule="evenodd" d="M375 424C368.383 424 363 429.383 363 436C363 442.617 368.383 448 375 448C381.617 448 387 442.617 387 436C387 429.383 381.617 424 375 424ZM376.953 429.455C377.952 429.455 378.838 430.05 379.202 430.973C379.559 431.903 379.314 432.93 378.574 433.598L375.902 436H375.895L378.567 438.402C379.314 439.07 379.559 440.097 379.195 441.027C378.831 441.95 377.952 442.545 376.947 442.545H373.051C372.052 442.545 371.166 441.95 370.802 441.027C370.439 440.097 370.683 439.07 371.431 438.402L374.103 436H374.109L371.437 433.598C370.69 432.93 370.445 431.903 370.802 430.973C371.166 430.05 372.052 429.455 373.051 429.455H376.953ZM373.798 432.878H376.206C376.451 432.878 376.656 432.675 376.656 432.433C376.656 432.191 376.457 431.988 376.206 431.988H373.798C373.554 431.988 373.349 432.191 373.349 432.433C373.349 432.675 373.547 432.878 373.798 432.878ZM376.206 440.019H373.798C373.547 440.019 373.349 439.816 373.349 439.574C373.349 439.332 373.554 439.129 373.798 439.129H376.206C376.457 439.129 376.656 439.332 376.656 439.574C376.656 439.816 376.451 440.019 376.206 440.019Z" fill="#A5ADC5"/>
</g>
<path opacity="0.5" d="M400.148 442H404.858C407.523 442 408.83 440.642 408.83 438.83C408.83 437.068 407.58 436.034 406.341 435.972V435.858C407.477 435.591 408.375 434.795 408.375 433.381C408.375 431.648 407.125 430.364 404.602 430.364H400.148V442ZM402.256 440.239V436.83H404.58C405.881 436.83 406.688 437.625 406.688 438.665C406.688 439.591 406.051 440.239 404.523 440.239H402.256ZM402.256 435.312V432.102H404.386C405.625 432.102 406.267 432.756 406.267 433.653C406.267 434.676 405.438 435.312 404.341 435.312H402.256ZM410.572 442H412.629V436.869C412.629 435.767 413.459 434.989 414.533 434.989C414.868 434.989 415.124 435.068 415.345 435.17L415.982 433.466C415.675 433.273 415.283 433.148 414.811 433.148C413.805 433.148 412.976 433.716 412.658 434.727H412.567V433.273H410.572V442ZM419.999 442.153C421.499 442.153 422.175 441.261 422.499 440.625H422.624V442H424.646V433.273H422.584V434.716H422.499C422.186 434.085 421.544 433.159 420.004 433.159C417.987 433.159 416.402 434.739 416.402 437.648C416.402 440.523 417.942 442.153 419.999 442.153ZM420.572 440.466C419.214 440.466 418.499 439.273 418.499 437.636C418.499 436.011 419.203 434.847 420.572 434.847C421.896 434.847 422.624 435.943 422.624 437.636C422.624 439.33 421.885 440.466 420.572 440.466ZM428.895 436.886C428.895 435.625 429.656 434.898 430.741 434.898C431.804 434.898 432.44 435.597 432.44 436.761V442H434.497V436.443C434.503 434.352 433.31 433.159 431.509 433.159C430.202 433.159 429.304 433.784 428.906 434.756H428.804V433.273H426.838V442H428.895V436.886ZM439.827 442.153C441.327 442.153 442.003 441.261 442.327 440.625H442.452V442H444.474V430.364H442.412V434.716H442.327C442.014 434.085 441.372 433.159 439.832 433.159C437.815 433.159 436.23 434.739 436.23 437.648C436.23 440.523 437.77 442.153 439.827 442.153ZM440.401 440.466C439.043 440.466 438.327 439.273 438.327 437.636C438.327 436.011 439.031 434.847 440.401 434.847C441.724 434.847 442.452 435.943 442.452 437.636C442.452 439.33 441.713 440.466 440.401 440.466ZM446.666 442H448.723V433.273H446.666V442ZM447.7 432.034C448.354 432.034 448.888 431.534 448.888 430.92C448.888 430.301 448.354 429.801 447.7 429.801C447.041 429.801 446.507 430.301 446.507 430.92C446.507 431.534 447.041 432.034 447.7 432.034ZM452.895 436.886C452.895 435.625 453.656 434.898 454.741 434.898C455.804 434.898 456.44 435.597 456.44 436.761V442H458.497V436.443C458.503 434.352 457.31 433.159 455.509 433.159C454.202 433.159 453.304 433.784 452.906 434.756H452.804V433.273H450.838V442H452.895V436.886ZM464.384 445.455C466.741 445.455 468.48 444.375 468.48 442.142V433.273H466.452V434.716H466.338C466.026 434.085 465.372 433.159 463.832 433.159C461.815 433.159 460.23 434.739 460.23 437.608C460.23 440.455 461.815 441.875 463.827 441.875C465.321 441.875 466.02 441.074 466.338 440.432H466.44V442.085C466.44 443.369 465.588 443.898 464.418 443.898C463.179 443.898 462.634 443.312 462.384 442.801L460.531 443.25C460.906 444.472 462.162 445.455 464.384 445.455ZM464.401 440.261C463.043 440.261 462.327 439.205 462.327 437.597C462.327 436.011 463.031 434.847 464.401 434.847C465.724 434.847 466.452 435.943 466.452 437.597C466.452 439.261 465.713 440.261 464.401 440.261Z" fill="#35353D"/>
<g filter="url(#filter2_d_3094_179207)">
<rect x="519" y="260" width="280" height="64" rx="12" fill="white"/>
</g>
<g opacity="0.5">
<path fill-rule="evenodd" clip-rule="evenodd" d="M555 280C548.383 280 543 285.383 543 292C543 298.617 548.383 304 555 304C561.617 304 567 298.617 567 292C567 285.383 561.617 280 555 280ZM556.953 285.455C557.952 285.455 558.838 286.05 559.202 286.973C559.559 287.903 559.314 288.93 558.574 289.598L555.902 292H555.895L558.567 294.402C559.314 295.07 559.559 296.097 559.195 297.027C558.831 297.95 557.952 298.545 556.947 298.545H553.051C552.052 298.545 551.166 297.95 550.802 297.027C550.439 296.097 550.683 295.07 551.431 294.402L554.103 292H554.109L551.437 289.598C550.69 288.93 550.445 287.903 550.802 286.973C551.166 286.05 552.052 285.455 553.051 285.455H556.953ZM553.798 288.878H556.206C556.451 288.878 556.656 288.675 556.656 288.433C556.656 288.191 556.457 287.988 556.206 287.988H553.798C553.554 287.988 553.349 288.191 553.349 288.433C553.349 288.675 553.547 288.878 553.798 288.878ZM556.206 296.019H553.798C553.547 296.019 553.349 295.816 553.349 295.574C553.349 295.332 553.554 295.129 553.798 295.129H556.206C556.457 295.129 556.656 295.332 556.656 295.574C556.656 295.816 556.451 296.019 556.206 296.019Z" fill="#A5ADC5"/>
</g>
<path opacity="0.5" d="M580.148 286.364H582.727L586.182 294.795H586.318L589.773 286.364H592.352V298H590.33V290.006H590.222L587.006 297.966H585.494L582.278 289.989H582.17V298H580.148V286.364ZM597.795 298.153C597.11 298.153 596.496 297.977 595.955 297.625C595.413 297.273 594.985 296.761 594.67 296.091C594.356 295.42 594.199 294.606 594.199 293.648C594.199 292.678 594.358 291.86 594.676 291.193C594.998 290.523 595.432 290.017 595.977 289.676C596.523 289.331 597.131 289.159 597.801 289.159C598.313 289.159 598.733 289.246 599.062 289.42C599.392 289.591 599.653 289.797 599.847 290.04C600.04 290.278 600.189 290.504 600.295 290.716H600.381V289.273H602.443V298H600.42V296.625H600.295C600.189 296.837 600.036 297.062 599.835 297.301C599.634 297.536 599.369 297.737 599.04 297.903C598.71 298.07 598.295 298.153 597.795 298.153ZM598.369 296.466C598.805 296.466 599.176 296.348 599.483 296.114C599.79 295.875 600.023 295.544 600.182 295.119C600.341 294.695 600.42 294.201 600.42 293.636C600.42 293.072 600.341 292.581 600.182 292.165C600.027 291.748 599.795 291.424 599.489 291.193C599.186 290.962 598.813 290.847 598.369 290.847C597.911 290.847 597.528 290.966 597.222 291.205C596.915 291.443 596.684 291.773 596.528 292.193C596.373 292.614 596.295 293.095 596.295 293.636C596.295 294.182 596.373 294.669 596.528 295.097C596.688 295.521 596.92 295.856 597.227 296.102C597.538 296.345 597.919 296.466 598.369 296.466ZM604.635 298V289.273H606.629V290.727H606.72C606.879 290.223 607.152 289.835 607.538 289.562C607.925 289.286 608.37 289.148 608.874 289.148C609.108 289.148 609.324 289.176 609.521 289.233C609.718 289.29 609.893 289.367 610.044 289.466L609.408 291.17C609.298 291.117 609.177 291.074 609.044 291.04C608.911 291.006 608.762 290.989 608.595 290.989C608.239 290.989 607.917 291.068 607.629 291.227C607.341 291.386 607.112 291.608 606.942 291.892C606.775 292.172 606.692 292.498 606.692 292.869V298H604.635ZM613.057 295.261L613.051 292.778H613.381L616.517 289.273H618.92L615.062 293.568H614.636L613.057 295.261ZM611.182 298V286.364H613.239V298H611.182ZM616.659 298L613.818 294.028L615.205 292.58L619.119 298H616.659ZM623.795 298.17C622.92 298.17 622.165 297.989 621.528 297.625C620.896 297.258 620.409 296.739 620.068 296.068C619.727 295.394 619.557 294.6 619.557 293.688C619.557 292.79 619.727 292.002 620.068 291.324C620.413 290.642 620.894 290.112 621.511 289.733C622.129 289.35 622.854 289.159 623.688 289.159C624.225 289.159 624.733 289.246 625.21 289.42C625.691 289.591 626.116 289.856 626.483 290.216C626.854 290.576 627.146 291.034 627.358 291.591C627.57 292.144 627.676 292.803 627.676 293.568V294.199H620.523V292.812H625.705C625.701 292.419 625.616 292.068 625.449 291.761C625.282 291.451 625.049 291.206 624.75 291.028C624.455 290.85 624.11 290.761 623.716 290.761C623.295 290.761 622.926 290.864 622.608 291.068C622.29 291.269 622.042 291.534 621.864 291.864C621.689 292.189 621.6 292.547 621.597 292.938V294.148C621.597 294.655 621.689 295.091 621.875 295.455C622.061 295.814 622.32 296.091 622.653 296.284C622.987 296.473 623.377 296.568 623.824 296.568C624.123 296.568 624.394 296.527 624.636 296.443C624.879 296.356 625.089 296.229 625.267 296.062C625.445 295.896 625.58 295.689 625.67 295.443L627.591 295.659C627.47 296.167 627.239 296.61 626.898 296.989C626.561 297.364 626.129 297.655 625.602 297.864C625.076 298.068 624.473 298.17 623.795 298.17ZM631.473 292.886V298H629.416V289.273H631.382V290.756H631.484C631.685 290.267 632.005 289.879 632.445 289.591C632.888 289.303 633.435 289.159 634.087 289.159C634.689 289.159 635.214 289.288 635.661 289.545C636.111 289.803 636.46 290.176 636.706 290.665C636.956 291.153 637.079 291.746 637.075 292.443V298H635.018V292.761C635.018 292.178 634.867 291.722 634.564 291.392C634.265 291.062 633.85 290.898 633.32 290.898C632.96 290.898 632.64 290.977 632.359 291.136C632.083 291.292 631.865 291.517 631.706 291.812C631.551 292.108 631.473 292.466 631.473 292.886ZM639.166 298V289.273H641.223V298H639.166ZM640.2 288.034C639.875 288.034 639.594 287.926 639.359 287.71C639.125 287.491 639.007 287.227 639.007 286.92C639.007 286.61 639.125 286.347 639.359 286.131C639.594 285.911 639.875 285.801 640.2 285.801C640.53 285.801 640.81 285.911 641.041 286.131C641.276 286.347 641.393 286.61 641.393 286.92C641.393 287.227 641.276 287.491 641.041 287.71C640.81 287.926 640.53 288.034 640.2 288.034ZM645.395 292.886V298H643.338V289.273H645.304V290.756H645.406C645.607 290.267 645.927 289.879 646.366 289.591C646.81 289.303 647.357 289.159 648.009 289.159C648.611 289.159 649.135 289.288 649.582 289.545C650.033 289.803 650.382 290.176 650.628 290.665C650.878 291.153 651.001 291.746 650.997 292.443V298H648.94V292.761C648.94 292.178 648.789 291.722 648.486 291.392C648.187 291.062 647.772 290.898 647.241 290.898C646.882 290.898 646.562 290.977 646.281 291.136C646.005 291.292 645.787 291.517 645.628 291.812C645.473 292.108 645.395 292.466 645.395 292.886ZM656.884 301.455C656.145 301.455 655.51 301.354 654.98 301.153C654.45 300.956 654.024 300.691 653.702 300.358C653.38 300.025 653.156 299.655 653.031 299.25L654.884 298.801C654.967 298.972 655.088 299.14 655.247 299.307C655.406 299.477 655.62 299.617 655.889 299.727C656.162 299.841 656.505 299.898 656.918 299.898C657.501 299.898 657.984 299.756 658.366 299.472C658.749 299.191 658.94 298.729 658.94 298.085V296.432H658.838C658.732 296.644 658.577 296.862 658.372 297.085C658.171 297.309 657.904 297.496 657.571 297.648C657.241 297.799 656.827 297.875 656.327 297.875C655.656 297.875 655.048 297.718 654.503 297.403C653.961 297.085 653.529 296.612 653.207 295.983C652.889 295.35 652.73 294.559 652.73 293.608C652.73 292.65 652.889 291.841 653.207 291.182C653.529 290.519 653.963 290.017 654.509 289.676C655.054 289.331 655.662 289.159 656.332 289.159C656.844 289.159 657.264 289.246 657.594 289.42C657.927 289.591 658.192 289.797 658.389 290.04C658.586 290.278 658.736 290.504 658.838 290.716H658.952V289.273H660.98V298.142C660.98 298.888 660.802 299.506 660.446 299.994C660.09 300.483 659.603 300.848 658.986 301.091C658.368 301.333 657.668 301.455 656.884 301.455ZM656.901 296.261C657.336 296.261 657.707 296.155 658.014 295.943C658.321 295.731 658.554 295.426 658.713 295.028C658.872 294.631 658.952 294.153 658.952 293.597C658.952 293.047 658.872 292.566 658.713 292.153C658.558 291.741 658.327 291.42 658.02 291.193C657.717 290.962 657.344 290.847 656.901 290.847C656.442 290.847 656.06 290.966 655.753 291.205C655.446 291.443 655.215 291.771 655.06 292.188C654.904 292.6 654.827 293.07 654.827 293.597C654.827 294.131 654.904 294.598 655.06 295C655.219 295.398 655.452 295.708 655.759 295.932C656.069 296.152 656.45 296.261 656.901 296.261ZM677.108 290.29H674.983C674.922 289.941 674.811 289.633 674.648 289.364C674.485 289.091 674.282 288.86 674.04 288.67C673.797 288.481 673.521 288.339 673.21 288.244C672.903 288.146 672.572 288.097 672.216 288.097C671.583 288.097 671.023 288.256 670.534 288.574C670.045 288.888 669.663 289.35 669.386 289.96C669.11 290.566 668.972 291.307 668.972 292.182C668.972 293.072 669.11 293.822 669.386 294.432C669.667 295.038 670.049 295.496 670.534 295.807C671.023 296.114 671.581 296.267 672.21 296.267C672.559 296.267 672.884 296.222 673.188 296.131C673.494 296.036 673.769 295.898 674.011 295.716C674.258 295.534 674.464 295.311 674.631 295.045C674.801 294.78 674.919 294.477 674.983 294.136L677.108 294.148C677.028 294.701 676.856 295.22 676.591 295.705C676.33 296.189 675.987 296.617 675.562 296.989C675.138 297.356 674.642 297.644 674.074 297.852C673.506 298.057 672.875 298.159 672.182 298.159C671.159 298.159 670.246 297.922 669.443 297.449C668.64 296.975 668.008 296.292 667.545 295.398C667.083 294.504 666.852 293.432 666.852 292.182C666.852 290.928 667.085 289.856 667.551 288.966C668.017 288.072 668.652 287.388 669.455 286.915C670.258 286.441 671.167 286.205 672.182 286.205C672.83 286.205 673.432 286.295 673.989 286.477C674.545 286.659 675.042 286.926 675.477 287.278C675.913 287.627 676.271 288.055 676.551 288.562C676.835 289.066 677.021 289.642 677.108 290.29ZM682.186 298.153C681.5 298.153 680.887 297.977 680.345 297.625C679.804 297.273 679.375 296.761 679.061 296.091C678.747 295.42 678.589 294.606 678.589 293.648C678.589 292.678 678.749 291.86 679.067 291.193C679.389 290.523 679.822 290.017 680.368 289.676C680.913 289.331 681.521 289.159 682.192 289.159C682.703 289.159 683.124 289.246 683.453 289.42C683.783 289.591 684.044 289.797 684.237 290.04C684.43 290.278 684.58 290.504 684.686 290.716H684.771V289.273H686.834V298H684.811V296.625H684.686C684.58 296.837 684.427 297.062 684.226 297.301C684.025 297.536 683.76 297.737 683.43 297.903C683.101 298.07 682.686 298.153 682.186 298.153ZM682.76 296.466C683.196 296.466 683.567 296.348 683.874 296.114C684.18 295.875 684.413 295.544 684.572 295.119C684.732 294.695 684.811 294.201 684.811 293.636C684.811 293.072 684.732 292.581 684.572 292.165C684.417 291.748 684.186 291.424 683.879 291.193C683.576 290.962 683.203 290.847 682.76 290.847C682.302 290.847 681.919 290.966 681.612 291.205C681.305 291.443 681.074 291.773 680.919 292.193C680.764 292.614 680.686 293.095 680.686 293.636C680.686 294.182 680.764 294.669 680.919 295.097C681.078 295.521 681.311 295.856 681.618 296.102C681.929 296.345 682.309 296.466 682.76 296.466ZM689.026 298V289.273H690.991V290.756H691.094C691.276 290.256 691.577 289.866 691.997 289.585C692.418 289.301 692.92 289.159 693.503 289.159C694.094 289.159 694.592 289.303 694.997 289.591C695.406 289.875 695.694 290.263 695.861 290.756H695.952C696.145 290.271 696.471 289.884 696.929 289.597C697.391 289.305 697.938 289.159 698.571 289.159C699.374 289.159 700.029 289.413 700.537 289.92C701.045 290.428 701.298 291.169 701.298 292.142V298H699.236V292.46C699.236 291.919 699.092 291.523 698.804 291.273C698.516 291.019 698.164 290.892 697.747 290.892C697.251 290.892 696.863 291.047 696.582 291.358C696.306 291.665 696.168 292.064 696.168 292.557V298H694.151V292.375C694.151 291.924 694.014 291.564 693.741 291.295C693.473 291.027 693.12 290.892 692.685 290.892C692.389 290.892 692.12 290.968 691.878 291.119C691.635 291.267 691.442 291.477 691.298 291.75C691.154 292.019 691.082 292.333 691.082 292.693V298H689.026ZM703.385 301.273V289.273H705.408V290.716H705.527C705.633 290.504 705.783 290.278 705.976 290.04C706.169 289.797 706.43 289.591 706.76 289.42C707.089 289.246 707.51 289.159 708.021 289.159C708.696 289.159 709.304 289.331 709.845 289.676C710.391 290.017 710.822 290.523 711.141 291.193C711.463 291.86 711.624 292.678 711.624 293.648C711.624 294.606 711.466 295.42 711.152 296.091C710.838 296.761 710.41 297.273 709.868 297.625C709.326 297.977 708.713 298.153 708.027 298.153C707.527 298.153 707.112 298.07 706.783 297.903C706.453 297.737 706.188 297.536 705.987 297.301C705.79 297.062 705.637 296.837 705.527 296.625H705.442V301.273H703.385ZM705.402 293.636C705.402 294.201 705.482 294.695 705.641 295.119C705.804 295.544 706.036 295.875 706.339 296.114C706.646 296.348 707.018 296.466 707.453 296.466C707.908 296.466 708.288 296.345 708.595 296.102C708.902 295.856 709.133 295.521 709.288 295.097C709.447 294.669 709.527 294.182 709.527 293.636C709.527 293.095 709.449 292.614 709.294 292.193C709.139 291.773 708.908 291.443 708.601 291.205C708.294 290.966 707.911 290.847 707.453 290.847C707.014 290.847 706.641 290.962 706.334 291.193C706.027 291.424 705.794 291.748 705.635 292.165C705.48 292.581 705.402 293.072 705.402 293.636ZM716.624 298.153C715.938 298.153 715.324 297.977 714.783 297.625C714.241 297.273 713.813 296.761 713.499 296.091C713.184 295.42 713.027 294.606 713.027 293.648C713.027 292.678 713.186 291.86 713.504 291.193C713.826 290.523 714.26 290.017 714.805 289.676C715.351 289.331 715.959 289.159 716.629 289.159C717.141 289.159 717.561 289.246 717.891 289.42C718.22 289.591 718.482 289.797 718.675 290.04C718.868 290.278 719.018 290.504 719.124 290.716H719.209V289.273H721.271V298H719.249V296.625H719.124C719.018 296.837 718.864 297.062 718.663 297.301C718.463 297.536 718.197 297.737 717.868 297.903C717.538 298.07 717.124 298.153 716.624 298.153ZM717.197 296.466C717.633 296.466 718.004 296.348 718.311 296.114C718.618 295.875 718.851 295.544 719.01 295.119C719.169 294.695 719.249 294.201 719.249 293.636C719.249 293.072 719.169 292.581 719.01 292.165C718.855 291.748 718.624 291.424 718.317 291.193C718.014 290.962 717.641 290.847 717.197 290.847C716.739 290.847 716.357 290.966 716.05 291.205C715.743 291.443 715.512 291.773 715.357 292.193C715.201 292.614 715.124 293.095 715.124 293.636C715.124 294.182 715.201 294.669 715.357 295.097C715.516 295.521 715.749 295.856 716.055 296.102C716.366 296.345 716.747 296.466 717.197 296.466ZM723.463 298V289.273H725.52V298H723.463ZM724.497 288.034C724.171 288.034 723.891 287.926 723.656 287.71C723.421 287.491 723.304 287.227 723.304 286.92C723.304 286.61 723.421 286.347 723.656 286.131C723.891 285.911 724.171 285.801 724.497 285.801C724.827 285.801 725.107 285.911 725.338 286.131C725.573 286.347 725.69 286.61 725.69 286.92C725.69 287.227 725.573 287.491 725.338 287.71C725.107 287.926 724.827 288.034 724.497 288.034ZM731.43 301.455C730.692 301.455 730.057 301.354 729.527 301.153C728.997 300.956 728.571 300.691 728.249 300.358C727.927 300.025 727.703 299.655 727.578 299.25L729.43 298.801C729.514 298.972 729.635 299.14 729.794 299.307C729.953 299.477 730.167 299.617 730.436 299.727C730.709 299.841 731.052 299.898 731.464 299.898C732.048 299.898 732.531 299.756 732.913 299.472C733.296 299.191 733.487 298.729 733.487 298.085V296.432H733.385C733.279 296.644 733.124 296.862 732.919 297.085C732.718 297.309 732.451 297.496 732.118 297.648C731.788 297.799 731.374 297.875 730.874 297.875C730.203 297.875 729.595 297.718 729.05 297.403C728.508 297.085 728.076 296.612 727.754 295.983C727.436 295.35 727.277 294.559 727.277 293.608C727.277 292.65 727.436 291.841 727.754 291.182C728.076 290.519 728.51 290.017 729.055 289.676C729.601 289.331 730.209 289.159 730.879 289.159C731.391 289.159 731.811 289.246 732.141 289.42C732.474 289.591 732.739 289.797 732.936 290.04C733.133 290.278 733.283 290.504 733.385 290.716H733.499V289.273H735.527V298.142C735.527 298.888 735.349 299.506 734.993 299.994C734.637 300.483 734.15 300.848 733.533 301.091C732.915 301.333 732.214 301.455 731.43 301.455ZM731.447 296.261C731.883 296.261 732.254 296.155 732.561 295.943C732.868 295.731 733.101 295.426 733.26 295.028C733.419 294.631 733.499 294.153 733.499 293.597C733.499 293.047 733.419 292.566 733.26 292.153C733.105 291.741 732.874 291.42 732.567 291.193C732.264 290.962 731.891 290.847 731.447 290.847C730.989 290.847 730.607 290.966 730.3 291.205C729.993 291.443 729.762 291.771 729.607 292.188C729.451 292.6 729.374 293.07 729.374 293.597C729.374 294.131 729.451 294.598 729.607 295C729.766 295.398 729.999 295.708 730.305 295.932C730.616 296.152 730.997 296.261 731.447 296.261ZM739.692 292.886V298H737.635V289.273H739.601V290.756H739.703C739.904 290.267 740.224 289.879 740.663 289.591C741.107 289.303 741.654 289.159 742.305 289.159C742.908 289.159 743.432 289.288 743.879 289.545C744.33 289.803 744.679 290.176 744.925 290.665C745.175 291.153 745.298 291.746 745.294 292.443V298H743.237V292.761C743.237 292.178 743.086 291.722 742.783 291.392C742.483 291.062 742.069 290.898 741.538 290.898C741.179 290.898 740.858 290.977 740.578 291.136C740.302 291.292 740.084 291.517 739.925 291.812C739.769 292.108 739.692 292.466 739.692 292.886ZM754.283 291.58L752.408 291.784C752.355 291.595 752.262 291.417 752.129 291.25C752 291.083 751.826 290.949 751.607 290.847C751.387 290.744 751.118 290.693 750.8 290.693C750.372 290.693 750.012 290.786 749.72 290.972C749.432 291.157 749.29 291.398 749.294 291.693C749.29 291.947 749.383 292.153 749.572 292.312C749.766 292.472 750.084 292.602 750.527 292.705L752.016 293.023C752.841 293.201 753.455 293.483 753.857 293.869C754.262 294.256 754.466 294.761 754.47 295.386C754.466 295.936 754.305 296.42 753.987 296.841C753.673 297.258 753.235 297.583 752.675 297.818C752.114 298.053 751.47 298.17 750.743 298.17C749.675 298.17 748.815 297.947 748.163 297.5C747.512 297.049 747.124 296.422 746.999 295.619L749.004 295.426C749.095 295.82 749.288 296.117 749.584 296.318C749.879 296.519 750.264 296.619 750.737 296.619C751.226 296.619 751.618 296.519 751.913 296.318C752.213 296.117 752.362 295.869 752.362 295.574C752.362 295.324 752.266 295.117 752.072 294.955C751.883 294.792 751.588 294.667 751.186 294.58L749.697 294.267C748.86 294.093 748.241 293.799 747.839 293.386C747.438 292.97 747.239 292.443 747.243 291.807C747.239 291.269 747.385 290.803 747.68 290.409C747.98 290.011 748.394 289.705 748.925 289.489C749.459 289.269 750.074 289.159 750.771 289.159C751.794 289.159 752.599 289.377 753.186 289.812C753.777 290.248 754.143 290.837 754.283 291.58Z" fill="#35353D"/>
<g filter="url(#filter3_d_3094_179207)">
<rect x="163" y="96" width="256" height="64" rx="12" fill="white"/>
</g>
<path fill-rule="evenodd" clip-rule="evenodd" d="M199 116C192.383 116 187 121.383 187 128C187 134.617 192.383 140 199 140C205.617 140 211 134.617 211 128C211 121.383 205.617 116 199 116ZM195.4 122V126.8C195.4 128.367 196.402 129.701 197.8 130.195V131.6H196.6C196.269 131.6 196 131.869 196 132.2V133.4C196 133.731 196.269 134 196.6 134H201.4C201.731 134 202 133.731 202 133.4V132.2C202 131.869 201.731 131.6 201.4 131.6H200.2V130.195C201.598 129.701 202.6 128.367 202.6 126.8V122H195.4ZM194.8 126.8V122.6H193.6C193.269 122.6 193 122.869 193 123.2V124.657C193 125.788 193.748 126.759 194.817 127.178C194.806 127.054 194.8 126.928 194.8 126.8ZM205 123.2C205 122.869 204.731 122.6 204.4 122.6H203.2V126.8C203.2 126.928 203.194 127.054 203.183 127.178C204.252 126.759 205 125.788 205 124.657V123.2Z" fill="#83BF6E"/>
<path d="M231.483 122.364V129.79C231.483 131.25 230.466 132.295 228.869 132.295C227.267 132.295 226.256 131.25 226.256 129.79V122.364H224.148V129.966C224.148 132.466 226.023 134.176 228.869 134.176C231.705 134.176 233.591 132.466 233.591 129.966V122.364H231.483ZM237.643 122.364H235.229L238.859 128.182L235.183 134H237.615L240.206 129.767H240.297L242.888 134H245.331L241.689 128.182L245.274 122.364H242.871L240.297 126.625H240.206L237.643 122.364ZM250.898 134H253.006V129.739H255.153L257.438 134H259.79L257.273 129.386C258.642 128.835 259.364 127.665 259.364 126.085C259.364 123.864 257.932 122.364 255.261 122.364H250.898V134ZM253.006 127.989V124.125H254.938C256.511 124.125 257.216 124.847 257.216 126.085C257.216 127.324 256.511 127.989 254.949 127.989H253.006ZM264.952 134.17C266.986 134.17 268.384 133.176 268.747 131.659L266.827 131.443C266.548 132.182 265.866 132.568 264.98 132.568C263.651 132.568 262.77 131.693 262.753 130.199H268.832V129.568C268.832 126.506 266.991 125.159 264.844 125.159C262.344 125.159 260.713 126.994 260.713 129.688C260.713 132.426 262.321 134.17 264.952 134.17ZM262.759 128.812C262.821 127.699 263.645 126.761 264.872 126.761C266.054 126.761 266.849 127.625 266.861 128.812H262.759ZM277.47 127.58C277.186 126.102 276.004 125.159 273.959 125.159C271.857 125.159 270.425 126.193 270.43 127.807C270.425 129.08 271.209 129.92 272.885 130.267L274.374 130.58C275.175 130.756 275.55 131.08 275.55 131.574C275.55 132.17 274.902 132.619 273.925 132.619C272.982 132.619 272.368 132.21 272.192 131.426L270.186 131.619C270.442 133.222 271.788 134.17 273.93 134.17C276.112 134.17 277.652 133.04 277.658 131.386C277.652 130.142 276.851 129.381 275.203 129.023L273.714 128.705C272.828 128.506 272.476 128.199 272.482 127.693C272.476 127.102 273.129 126.693 273.987 126.693C274.936 126.693 275.436 127.21 275.595 127.784L277.47 127.58ZM283.217 134.17C285.251 134.17 286.649 133.176 287.013 131.659L285.092 131.443C284.814 132.182 284.132 132.568 283.246 132.568C281.916 132.568 281.036 131.693 281.018 130.199H287.098V129.568C287.098 126.506 285.257 125.159 283.109 125.159C280.609 125.159 278.979 126.994 278.979 129.688C278.979 132.426 280.587 134.17 283.217 134.17ZM281.024 128.812C281.087 127.699 281.911 126.761 283.138 126.761C284.32 126.761 285.115 127.625 285.126 128.812H281.024ZM292.077 134.153C293.577 134.153 294.253 133.261 294.577 132.625H294.702V134H296.724V125.273H294.662V126.716H294.577C294.264 126.085 293.622 125.159 292.082 125.159C290.065 125.159 288.48 126.739 288.48 129.648C288.48 132.523 290.02 134.153 292.077 134.153ZM292.651 132.466C291.293 132.466 290.577 131.273 290.577 129.636C290.577 128.011 291.281 126.847 292.651 126.847C293.974 126.847 294.702 127.943 294.702 129.636C294.702 131.33 293.963 132.466 292.651 132.466ZM298.916 134H300.973V128.869C300.973 127.767 301.803 126.989 302.876 126.989C303.212 126.989 303.467 127.068 303.689 127.17L304.325 125.466C304.018 125.273 303.626 125.148 303.155 125.148C302.149 125.148 301.32 125.716 301.001 126.727H300.911V125.273H298.916V134ZM308.911 134.17C311.104 134.17 312.501 132.869 312.649 131.017H310.683C310.507 131.955 309.831 132.494 308.928 132.494C307.643 132.494 306.814 131.42 306.814 129.636C306.814 127.875 307.661 126.818 308.928 126.818C309.916 126.818 310.524 127.455 310.683 128.295H312.649C312.507 126.403 311.03 125.159 308.899 125.159C306.342 125.159 304.729 127.006 304.729 129.67C304.729 132.312 306.303 134.17 308.911 134.17ZM316.395 128.886C316.395 127.625 317.179 126.898 318.281 126.898C319.361 126.898 319.997 127.585 319.997 128.761V134H322.054V128.443C322.054 126.335 320.861 125.159 319.048 125.159C317.707 125.159 316.855 125.767 316.452 126.756H316.349V122.364H314.338V134H316.395V128.886ZM324.151 134H326.207V125.273H324.151V134ZM325.185 124.034C325.838 124.034 326.372 123.534 326.372 122.92C326.372 122.301 325.838 121.801 325.185 121.801C324.526 121.801 323.991 122.301 323.991 122.92C323.991 123.534 324.526 124.034 325.185 124.034ZM330.379 128.886C330.379 127.625 331.141 126.898 332.226 126.898C333.288 126.898 333.925 127.597 333.925 128.761V134H335.982V128.443C335.987 126.352 334.794 125.159 332.993 125.159C331.686 125.159 330.788 125.784 330.391 126.756H330.288V125.273H328.322V134H330.379V128.886ZM341.868 137.455C344.226 137.455 345.964 136.375 345.964 134.142V125.273H343.936V126.716H343.822C343.51 126.085 342.857 125.159 341.317 125.159C339.3 125.159 337.714 126.739 337.714 129.608C337.714 132.455 339.3 133.875 341.311 133.875C342.805 133.875 343.504 133.074 343.822 132.432H343.925V134.085C343.925 135.369 343.072 135.898 341.902 135.898C340.663 135.898 340.118 135.312 339.868 134.801L338.016 135.25C338.391 136.472 339.646 137.455 341.868 137.455ZM341.885 132.261C340.527 132.261 339.811 131.205 339.811 129.597C339.811 128.011 340.516 126.847 341.885 126.847C343.209 126.847 343.936 127.943 343.936 129.597C343.936 131.261 343.197 132.261 341.885 132.261Z" fill="#35353D"/>
<g filter="url(#filter4_d_3094_179207)">
<rect x="59" y="192" width="256" height="64" rx="12" fill="white"/>
</g>
<path d="M95 212C88.3832 212 83 217.383 83 224C83 230.617 88.3832 236 95 236C101.617 236 107 230.617 107 224C107 217.383 101.617 212 95 212ZM95 224V215.6C99.8 215.6 103.4 219.2 103.4 224H95Z" fill="#F6BF7C"/>
<path d="M122.597 230H124.676L127.011 221.835H127.102L129.432 230H131.511L134.795 218.364H132.528L130.432 226.92H130.33L128.085 218.364H126.023L123.784 226.915H123.676L121.58 218.364H119.312L122.597 230ZM139.139 230.17C141.173 230.17 142.571 229.176 142.935 227.659L141.014 227.443C140.736 228.182 140.054 228.568 139.168 228.568C137.838 228.568 136.957 227.693 136.94 226.199H143.02V225.568C143.02 222.506 141.179 221.159 139.031 221.159C136.531 221.159 134.901 222.994 134.901 225.688C134.901 228.426 136.509 230.17 139.139 230.17ZM136.946 224.812C137.009 223.699 137.832 222.761 139.06 222.761C140.241 222.761 141.037 223.625 141.048 224.812H136.946ZM144.851 230H146.874V228.625H146.993C147.317 229.261 147.993 230.153 149.493 230.153C151.55 230.153 153.089 228.523 153.089 225.648C153.089 222.739 151.504 221.159 149.487 221.159C147.947 221.159 147.305 222.085 146.993 222.716H146.908V218.364H144.851V230ZM146.868 225.636C146.868 223.943 147.595 222.847 148.919 222.847C150.288 222.847 150.993 224.011 150.993 225.636C150.993 227.273 150.277 228.466 148.919 228.466C147.607 228.466 146.868 227.33 146.868 225.636ZM161.736 223.58C161.452 222.102 160.27 221.159 158.224 221.159C156.122 221.159 154.69 222.193 154.696 223.807C154.69 225.08 155.474 225.92 157.151 226.267L158.639 226.58C159.44 226.756 159.815 227.08 159.815 227.574C159.815 228.17 159.168 228.619 158.19 228.619C157.247 228.619 156.634 228.21 156.457 227.426L154.452 227.619C154.707 229.222 156.054 230.17 158.196 230.17C160.378 230.17 161.918 229.04 161.923 227.386C161.918 226.142 161.116 225.381 159.469 225.023L157.98 224.705C157.094 224.506 156.741 224.199 156.747 223.693C156.741 223.102 157.395 222.693 158.253 222.693C159.202 222.693 159.702 223.21 159.861 223.784L161.736 223.58ZM163.619 230H165.676V221.273H163.619V230ZM164.653 220.034C165.307 220.034 165.841 219.534 165.841 218.92C165.841 218.301 165.307 217.801 164.653 217.801C163.994 217.801 163.46 218.301 163.46 218.92C163.46 219.534 163.994 220.034 164.653 220.034ZM172.149 221.273H170.428V219.182H168.371V221.273H167.132V222.864H168.371V227.716C168.359 229.358 169.553 230.165 171.098 230.119C171.683 230.102 172.087 229.989 172.308 229.915L171.962 228.307C171.848 228.335 171.615 228.386 171.359 228.386C170.842 228.386 170.428 228.205 170.428 227.375V222.864H172.149V221.273ZM177.639 230.17C179.673 230.17 181.071 229.176 181.435 227.659L179.514 227.443C179.236 228.182 178.554 228.568 177.668 228.568C176.338 228.568 175.457 227.693 175.44 226.199H181.52V225.568C181.52 222.506 179.679 221.159 177.531 221.159C175.031 221.159 173.401 222.994 173.401 225.688C173.401 228.426 175.009 230.17 177.639 230.17ZM175.446 224.812C175.509 223.699 176.332 222.761 177.56 222.761C178.741 222.761 179.537 223.625 179.548 224.812H175.446ZM189.768 230H191.848L194.183 221.835H194.274L196.604 230H198.683L201.967 218.364H199.7L197.604 226.92H197.501L195.257 218.364H193.195L190.956 226.915H190.848L188.751 218.364H186.484L189.768 230ZM203.338 230H205.395V221.273H203.338V230ZM204.372 220.034C205.026 220.034 205.56 219.534 205.56 218.92C205.56 218.301 205.026 217.801 204.372 217.801C203.713 217.801 203.179 218.301 203.179 218.92C203.179 219.534 203.713 220.034 204.372 220.034ZM207.51 230H209.567V224.869C209.567 223.767 210.396 222.989 211.47 222.989C211.805 222.989 212.061 223.068 212.283 223.17L212.919 221.466C212.612 221.273 212.22 221.148 211.749 221.148C210.743 221.148 209.913 221.716 209.595 222.727H209.504V221.273H207.51V230ZM217.561 230.17C219.595 230.17 220.993 229.176 221.357 227.659L219.436 227.443C219.158 228.182 218.476 228.568 217.589 228.568C216.26 228.568 215.379 227.693 215.362 226.199H221.442V225.568C221.442 222.506 219.601 221.159 217.453 221.159C214.953 221.159 213.322 222.994 213.322 225.688C213.322 228.426 214.93 230.17 217.561 230.17ZM215.368 224.812C215.43 223.699 216.254 222.761 217.482 222.761C218.663 222.761 219.459 223.625 219.47 224.812H215.368ZM227.602 221.273H225.79V220.585C225.79 219.903 226.074 219.523 226.841 219.523C227.165 219.523 227.438 219.597 227.608 219.648L228.023 218.057C227.756 217.966 227.17 217.818 226.46 217.818C224.943 217.818 223.733 218.688 223.733 220.449V221.273H222.443V222.864H223.733V230H225.79V222.864H227.602V221.273ZM229.213 230H231.27V224.869C231.27 223.767 232.099 222.989 233.173 222.989C233.509 222.989 233.764 223.068 233.986 223.17L234.622 221.466C234.315 221.273 233.923 221.148 233.452 221.148C232.446 221.148 231.616 221.716 231.298 222.727H231.207V221.273H229.213V230ZM238.639 230.153C240.139 230.153 240.815 229.261 241.139 228.625H241.264V230H243.287V221.273H241.224V222.716H241.139C240.827 222.085 240.185 221.159 238.645 221.159C236.628 221.159 235.043 222.739 235.043 225.648C235.043 228.523 236.582 230.153 238.639 230.153ZM239.213 228.466C237.855 228.466 237.139 227.273 237.139 225.636C237.139 224.011 237.844 222.847 239.213 222.847C240.537 222.847 241.264 223.943 241.264 225.636C241.264 227.33 240.526 228.466 239.213 228.466ZM245.479 230H247.536V224.693C247.536 223.619 248.251 222.892 249.138 222.892C250.007 222.892 250.604 223.477 250.604 224.375V230H252.621V224.557C252.621 223.574 253.206 222.892 254.2 222.892C255.03 222.892 255.689 223.381 255.689 224.46V230H257.751V224.142C257.751 222.193 256.626 221.159 255.024 221.159C253.757 221.159 252.791 221.784 252.405 222.756H252.314C251.979 221.767 251.132 221.159 249.956 221.159C248.786 221.159 247.911 221.761 247.547 222.756H247.445V221.273H245.479V230ZM263.702 230.17C265.736 230.17 267.134 229.176 267.497 227.659L265.577 227.443C265.298 228.182 264.616 228.568 263.73 228.568C262.401 228.568 261.52 227.693 261.503 226.199H267.582V225.568C267.582 222.506 265.741 221.159 263.594 221.159C261.094 221.159 259.463 222.994 259.463 225.688C259.463 228.426 261.071 230.17 263.702 230.17ZM261.509 224.812C261.571 223.699 262.395 222.761 263.622 222.761C264.804 222.761 265.599 223.625 265.611 224.812H261.509ZM276.22 223.58C275.936 222.102 274.754 221.159 272.709 221.159C270.607 221.159 269.175 222.193 269.18 223.807C269.175 225.08 269.959 225.92 271.635 226.267L273.124 226.58C273.925 226.756 274.3 227.08 274.3 227.574C274.3 228.17 273.652 228.619 272.675 228.619C271.732 228.619 271.118 228.21 270.942 227.426L268.936 227.619C269.192 229.222 270.538 230.17 272.68 230.17C274.862 230.17 276.402 229.04 276.408 227.386C276.402 226.142 275.601 225.381 273.953 225.023L272.464 224.705C271.578 224.506 271.226 224.199 271.232 223.693C271.226 223.102 271.879 222.693 272.737 222.693C273.686 222.693 274.186 223.21 274.345 223.784L276.22 223.58Z" fill="#35353D"/>
<circle cx="143" cy="128" r="4" fill="#83BF6E"/>
<circle cx="95" cy="172" r="4" fill="#83BF6E"/>
<path d="M141 128H107C100.373 128 95 133.373 95 140V170" stroke="#83BF6E" stroke-width="2"/>
<circle cx="95" cy="276" r="4" fill="#DCDEE4"/>
<circle cx="209" cy="356" r="4" fill="#DCDEE4"/>
<circle cx="499" cy="292" r="4" fill="#DCDEE4"/>
<circle cx="579" cy="436" r="4" fill="#DCDEE4"/>
<circle cx="319" cy="436" r="4" fill="#DCDEE4"/>
<path d="M95.5 284C95.5 283.724 95.2761 283.5 95 283.5C94.7239 283.5 94.5 283.724 94.5 284L95.5 284ZM201 356.5C201.276 356.5 201.5 356.276 201.5 356C201.5 355.724 201.276 355.5 201 355.5L201 356.5ZM197.083 355.5C196.807 355.5 196.583 355.724 196.583 356C196.583 356.276 196.807 356.5 197.083 356.5L197.083 355.5ZM189.25 356.5C189.526 356.5 189.75 356.276 189.75 356C189.75 355.724 189.526 355.5 189.25 355.5L189.25 356.5ZM181.417 355.5C181.141 355.5 180.917 355.724 180.917 356C180.917 356.276 181.141 356.5 181.417 356.5L181.417 355.5ZM173.583 356.5C173.859 356.5 174.083 356.276 174.083 356C174.083 355.724 173.859 355.5 173.583 355.5L173.583 356.5ZM165.75 355.5C165.474 355.5 165.25 355.724 165.25 356C165.25 356.276 165.474 356.5 165.75 356.5L165.75 355.5ZM157.917 356.5C158.193 356.5 158.417 356.276 158.417 356C158.417 355.724 158.193 355.5 157.917 355.5L157.917 356.5ZM150.083 355.5C149.807 355.5 149.583 355.724 149.583 356C149.583 356.276 149.807 356.5 150.083 356.5L150.083 355.5ZM142.25 356.5C142.526 356.5 142.75 356.276 142.75 356C142.75 355.724 142.526 355.5 142.25 355.5L142.25 356.5ZM134.417 355.5C134.141 355.5 133.917 355.724 133.917 356C133.917 356.276 134.141 356.5 134.417 356.5L134.417 355.5ZM126.583 356.5C126.859 356.5 127.083 356.276 127.083 356C127.083 355.724 126.859 355.5 126.583 355.5L126.583 356.5ZM118.75 355.5C118.474 355.5 118.25 355.724 118.25 356C118.25 356.276 118.474 356.5 118.75 356.5L118.75 355.5ZM110.917 356.5C111.193 356.5 111.417 356.276 111.417 356C111.417 355.724 111.193 355.5 110.917 355.5L110.917 356.5ZM102.598 354.628C102.343 354.522 102.05 354.643 101.945 354.898C101.839 355.153 101.96 355.446 102.215 355.551L102.598 354.628ZM95.4487 348.785C95.5545 349.04 95.847 349.161 96.1021 349.055C96.3572 348.95 96.4782 348.657 96.3724 348.402L95.4487 348.785ZM95.5 340.25C95.5 339.974 95.2761 339.75 95 339.75C94.7239 339.75 94.5 339.974 94.5 340.25L95.5 340.25ZM94.5 332.75C94.5 333.026 94.7239 333.25 95 333.25C95.2761 333.25 95.5 333.026 95.5 332.75L94.5 332.75ZM95.5 325.25C95.5 324.974 95.2761 324.75 95 324.75C94.7239 324.75 94.5 324.974 94.5 325.25L95.5 325.25ZM94.5 317.75C94.5 318.026 94.7239 318.25 95 318.25C95.2761 318.25 95.5 318.026 95.5 317.75L94.5 317.75ZM95.5 310.25C95.5 309.974 95.2761 309.75 95 309.75C94.7239 309.75 94.5 309.974 94.5 310.25L95.5 310.25ZM94.5 302.75C94.5 303.026 94.7239 303.25 95 303.25C95.2761 303.25 95.5 303.026 95.5 302.75L94.5 302.75ZM95.5 295.25C95.5 294.974 95.2761 294.75 95 294.75C94.7239 294.75 94.5 294.974 94.5 295.25L95.5 295.25ZM94.5 287.75C94.5 288.026 94.7239 288.25 95 288.25C95.2761 288.25 95.5 288.026 95.5 287.75L94.5 287.75ZM201 355.5L197.083 355.5L197.083 356.5L201 356.5L201 355.5ZM189.25 355.5L181.417 355.5L181.417 356.5L189.25 356.5L189.25 355.5ZM173.583 355.5L165.75 355.5L165.75 356.5L173.583 356.5L173.583 355.5ZM157.917 355.5L150.083 355.5L150.083 356.5L157.917 356.5L157.917 355.5ZM142.25 355.5L134.417 355.5L134.417 356.5L142.25 356.5L142.25 355.5ZM126.583 355.5L118.75 355.5L118.75 356.5L126.583 356.5L126.583 355.5ZM110.917 355.5L107 355.5L107 356.5L110.917 356.5L110.917 355.5ZM107 355.5C105.44 355.5 103.953 355.19 102.598 354.628L102.215 355.551C103.69 356.163 105.306 356.5 107 356.5L107 355.5ZM96.3724 348.402C95.8104 347.047 95.5 345.56 95.5 344L94.5 344C94.5 345.694 94.8372 347.31 95.4487 348.785L96.3724 348.402ZM95.5 344L95.5 340.25L94.5 340.25L94.5 344L95.5 344ZM95.5 332.75L95.5 325.25L94.5 325.25L94.5 332.75L95.5 332.75ZM95.5 317.75L95.5 310.25L94.5 310.25L94.5 317.75L95.5 317.75ZM95.5 302.75L95.5 295.25L94.5 295.25L94.5 302.75L95.5 302.75ZM95.5 287.75L95.5 284L94.5 284L94.5 287.75L95.5 287.75ZM96 284C96 283.448 95.5523 283 95 283C94.4477 283 94 283.448 94 284L96 284ZM201 357C201.552 357 202 356.552 202 356C202 355.448 201.552 355 201 355L201 357ZM197.083 355C196.531 355 196.083 355.448 196.083 356C196.083 356.552 196.531 357 197.083 357L197.083 355ZM189.25 357C189.802 357 190.25 356.552 190.25 356C190.25 355.448 189.802 355 189.25 355L189.25 357ZM181.417 355C180.864 355 180.417 355.448 180.417 356C180.417 356.552 180.864 357 181.417 357L181.417 355ZM173.583 357C174.136 357 174.583 356.552 174.583 356C174.583 355.448 174.136 355 173.583 355L173.583 357ZM165.75 355C165.198 355 164.75 355.448 164.75 356C164.75 356.552 165.198 357 165.75 357L165.75 355ZM157.917 357C158.469 357 158.917 356.552 158.917 356C158.917 355.448 158.469 355 157.917 355L157.917 357ZM150.083 355C149.531 355 149.083 355.448 149.083 356C149.083 356.552 149.531 357 150.083 357L150.083 355ZM142.25 357C142.802 357 143.25 356.552 143.25 356C143.25 355.448 142.802 355 142.25 355L142.25 357ZM134.417 355C133.864 355 133.417 355.448 133.417 356C133.417 356.552 133.864 357 134.417 357L134.417 355ZM126.583 357C127.136 357 127.583 356.552 127.583 356C127.583 355.448 127.136 355 126.583 355L126.583 357ZM118.75 355C118.198 355 117.75 355.448 117.75 356C117.75 356.552 118.198 357 118.75 357L118.75 355ZM110.917 357C111.469 357 111.917 356.552 111.917 356C111.917 355.448 111.469 355 110.917 355L110.917 357ZM102.79 354.166C102.279 353.954 101.694 354.196 101.483 354.706C101.271 355.217 101.513 355.802 102.023 356.013L102.79 354.166ZM94.9868 348.977C95.1984 349.487 95.7835 349.729 96.2936 349.517C96.8038 349.306 97.0458 348.721 96.8343 348.21L94.9868 348.977ZM96 340.25C96 339.698 95.5523 339.25 95 339.25C94.4477 339.25 94 339.698 94 340.25L96 340.25ZM94 332.75C94 333.302 94.4477 333.75 95 333.75C95.5523 333.75 96 333.302 96 332.75L94 332.75ZM96 325.25C96 324.698 95.5523 324.25 95 324.25C94.4477 324.25 94 324.698 94 325.25L96 325.25ZM94 317.75C94 318.302 94.4477 318.75 95 318.75C95.5523 318.75 96 318.302 96 317.75L94 317.75ZM96 310.25C96 309.698 95.5523 309.25 95 309.25C94.4477 309.25 94 309.698 94 310.25L96 310.25ZM94 302.75C94 303.302 94.4477 303.75 95 303.75C95.5523 303.75 96 303.302 96 302.75L94 302.75ZM96 295.25C96 294.698 95.5523 294.25 95 294.25C94.4477 294.25 94 294.698 94 295.25L96 295.25ZM94 287.75C94 288.302 94.4477 288.75 95 288.75C95.5523 288.75 96 288.302 96 287.75L94 287.75ZM201 355L197.083 355L197.083 357L201 357L201 355ZM189.25 355L181.417 355L181.417 357L189.25 357L189.25 355ZM173.583 355L165.75 355L165.75 357L173.583 357L173.583 355ZM157.917 355L150.083 355L150.083 357L157.917 357L157.917 355ZM142.25 355L134.417 355L134.417 357L142.25 357L142.25 355ZM126.583 355L118.75 355L118.75 357L126.583 357L126.583 355ZM110.917 355L107 355L107 357L110.917 357L110.917 355ZM107 355C105.507 355 104.085 354.703 102.79 354.166L102.023 356.013C103.558 356.649 105.239 357 107 357L107 355ZM96.8343 348.21C96.297 346.915 96 345.493 96 344L94 344C94 345.761 94.3506 347.442 94.9868 348.977L96.8343 348.21ZM96 344L96 340.25L94 340.25L94 344L96 344ZM96 332.75L96 325.25L94 325.25L94 332.75L96 332.75ZM96 317.75L96 310.25L94 310.25L94 317.75L96 317.75ZM96 302.75L96 295.25L94 295.25L94 302.75L96 302.75ZM96 287.75L96 284L94 284L94 287.75L96 287.75Z" fill="#DCDEE4"/>
<path d="M95.5 356C95.5 355.724 95.2761 355.5 95 355.5C94.7239 355.5 94.5 355.724 94.5 356L95.5 356ZM311 436.5C311.276 436.5 311.5 436.276 311.5 436C311.5 435.724 311.276 435.5 311 435.5L311 436.5ZM307.077 435.5C306.801 435.5 306.577 435.724 306.577 436C306.577 436.276 306.801 436.5 307.077 436.5L307.077 435.5ZM299.231 436.5C299.507 436.5 299.731 436.276 299.731 436C299.731 435.724 299.507 435.5 299.231 435.5L299.231 436.5ZM291.385 435.5C291.108 435.5 290.885 435.724 290.885 436C290.885 436.276 291.108 436.5 291.385 436.5L291.385 435.5ZM283.538 436.5C283.815 436.5 284.038 436.276 284.038 436C284.038 435.724 283.815 435.5 283.538 435.5L283.538 436.5ZM275.692 435.5C275.416 435.5 275.192 435.724 275.192 436C275.192 436.276 275.416 436.5 275.692 436.5L275.692 435.5ZM267.846 436.5C268.122 436.5 268.346 436.276 268.346 436C268.346 435.724 268.122 435.5 267.846 435.5L267.846 436.5ZM260 435.5C259.724 435.5 259.5 435.724 259.5 436C259.5 436.276 259.724 436.5 260 436.5L260 435.5ZM252.154 436.5C252.43 436.5 252.654 436.276 252.654 436C252.654 435.724 252.43 435.5 252.154 435.5L252.154 436.5ZM244.308 435.5C244.032 435.5 243.808 435.724 243.808 436C243.808 436.276 244.032 436.5 244.308 436.5L244.308 435.5ZM236.462 436.5C236.738 436.5 236.962 436.276 236.962 436C236.962 435.724 236.738 435.5 236.462 435.5L236.462 436.5ZM228.615 435.5C228.339 435.5 228.115 435.724 228.115 436C228.115 436.276 228.339 436.5 228.615 436.5L228.615 435.5ZM220.769 436.5C221.045 436.5 221.269 436.276 221.269 436C221.269 435.724 221.045 435.5 220.769 435.5L220.769 436.5ZM212.923 435.5C212.647 435.5 212.423 435.724 212.423 436C212.423 436.276 212.647 436.5 212.923 436.5L212.923 435.5ZM205.077 436.5C205.353 436.5 205.577 436.276 205.577 436C205.577 435.724 205.353 435.5 205.077 435.5L205.077 436.5ZM197.231 435.5C196.955 435.5 196.731 435.724 196.731 436C196.731 436.276 196.955 436.5 197.231 436.5L197.231 435.5ZM189.385 436.5C189.661 436.5 189.885 436.276 189.885 436C189.885 435.724 189.661 435.5 189.385 435.5L189.385 436.5ZM181.538 435.5C181.262 435.5 181.038 435.724 181.038 436C181.038 436.276 181.262 436.5 181.538 436.5L181.538 435.5ZM173.692 436.5C173.968 436.5 174.192 436.276 174.192 436C174.192 435.724 173.968 435.5 173.692 435.5L173.692 436.5ZM165.846 435.5C165.57 435.5 165.346 435.724 165.346 436C165.346 436.276 165.57 436.5 165.846 436.5L165.846 435.5ZM158 436.5C158.276 436.5 158.5 436.276 158.5 436C158.5 435.724 158.276 435.5 158 435.5L158 436.5ZM150.154 435.5C149.878 435.5 149.654 435.724 149.654 436C149.654 436.276 149.878 436.5 150.154 436.5L150.154 435.5ZM142.308 436.5C142.584 436.5 142.808 436.276 142.808 436C142.808 435.724 142.584 435.5 142.308 435.5L142.308 436.5ZM134.462 435.5C134.185 435.5 133.962 435.724 133.962 436C133.962 436.276 134.185 436.5 134.462 436.5L134.462 435.5ZM126.615 436.5C126.891 436.5 127.115 436.276 127.115 436C127.115 435.724 126.891 435.5 126.615 435.5L126.615 436.5ZM118.769 435.5C118.493 435.5 118.269 435.724 118.269 436C118.269 436.276 118.493 436.5 118.769 436.5L118.769 435.5ZM110.923 436.5C111.199 436.5 111.423 436.276 111.423 436C111.423 435.724 111.199 435.5 110.923 435.5L110.923 436.5ZM102.598 434.628C102.343 434.522 102.05 434.643 101.945 434.898C101.839 435.153 101.96 435.446 102.215 435.551L102.598 434.628ZM95.4487 428.785C95.5545 429.04 95.847 429.161 96.1021 429.055C96.3572 428.95 96.4782 428.657 96.3724 428.402L95.4487 428.785ZM95.5 419.75C95.5 419.474 95.2761 419.25 95 419.25C94.7239 419.25 94.5 419.474 94.5 419.75L95.5 419.75ZM94.5 411.25C94.5 411.526 94.7239 411.75 95 411.75C95.2761 411.75 95.5 411.526 95.5 411.25L94.5 411.25ZM95.5 402.75C95.5 402.474 95.2761 402.25 95 402.25C94.7239 402.25 94.5 402.474 94.5 402.75L95.5 402.75ZM94.5 394.25C94.5 394.526 94.7239 394.75 95 394.75C95.2761 394.75 95.5 394.526 95.5 394.25L94.5 394.25ZM95.5 385.75C95.5 385.474 95.2761 385.25 95 385.25C94.7239 385.25 94.5 385.474 94.5 385.75L95.5 385.75ZM94.5 377.25C94.5 377.526 94.7239 377.75 95 377.75C95.2761 377.75 95.5 377.526 95.5 377.25L94.5 377.25ZM95.5 368.75C95.5 368.474 95.2761 368.25 95 368.25C94.7239 368.25 94.5 368.474 94.5 368.75L95.5 368.75ZM94.5 360.25C94.5 360.526 94.7239 360.75 95 360.75C95.2761 360.75 95.5 360.526 95.5 360.25L94.5 360.25ZM311 435.5L307.077 435.5L307.077 436.5L311 436.5L311 435.5ZM299.231 435.5L291.385 435.5L291.385 436.5L299.231 436.5L299.231 435.5ZM283.538 435.5L275.692 435.5L275.692 436.5L283.538 436.5L283.538 435.5ZM267.846 435.5L260 435.5L260 436.5L267.846 436.5L267.846 435.5ZM252.154 435.5L244.308 435.5L244.308 436.5L252.154 436.5L252.154 435.5ZM236.462 435.5L228.615 435.5L228.615 436.5L236.462 436.5L236.462 435.5ZM220.769 435.5L212.923 435.5L212.923 436.5L220.769 436.5L220.769 435.5ZM205.077 435.5L197.231 435.5L197.231 436.5L205.077 436.5L205.077 435.5ZM189.385 435.5L181.538 435.5L181.538 436.5L189.385 436.5L189.385 435.5ZM173.692 435.5L165.846 435.5L165.846 436.5L173.692 436.5L173.692 435.5ZM158 435.5L150.154 435.5L150.154 436.5L158 436.5L158 435.5ZM142.308 435.5L134.462 435.5L134.462 436.5L142.308 436.5L142.308 435.5ZM126.615 435.5L118.769 435.5L118.769 436.5L126.615 436.5L126.615 435.5ZM110.923 435.5L107 435.5L107 436.5L110.923 436.5L110.923 435.5ZM107 435.5C105.44 435.5 103.953 435.19 102.598 434.628L102.215 435.551C103.69 436.163 105.306 436.5 107 436.5L107 435.5ZM96.3724 428.402C95.8104 427.047 95.5 425.56 95.5 424L94.5 424C94.5 425.694 94.8372 427.31 95.4487 428.785L96.3724 428.402ZM95.5 424L95.5 419.75L94.5 419.75L94.5 424L95.5 424ZM95.5 411.25L95.5 402.75L94.5 402.75L94.5 411.25L95.5 411.25ZM95.5 394.25L95.5 385.75L94.5 385.75L94.5 394.25L95.5 394.25ZM95.5 377.25L95.5 368.75L94.5 368.75L94.5 377.25L95.5 377.25ZM95.5 360.25L95.5 356L94.5 356L94.5 360.25L95.5 360.25ZM96 356C96 355.448 95.5523 355 95 355C94.4477 355 94 355.448 94 356L96 356ZM311 437C311.552 437 312 436.552 312 436C312 435.448 311.552 435 311 435L311 437ZM307.077 435C306.525 435 306.077 435.448 306.077 436C306.077 436.552 306.525 437 307.077 437L307.077 435ZM299.231 437C299.783 437 300.231 436.552 300.231 436C300.231 435.448 299.783 435 299.231 435L299.231 437ZM291.385 435C290.832 435 290.385 435.448 290.385 436C290.385 436.552 290.832 437 291.385 437L291.385 435ZM283.538 437C284.091 437 284.538 436.552 284.538 436C284.538 435.448 284.091 435 283.538 435L283.538 437ZM275.692 435C275.14 435 274.692 435.448 274.692 436C274.692 436.552 275.14 437 275.692 437L275.692 435ZM267.846 437C268.398 437 268.846 436.552 268.846 436C268.846 435.448 268.398 435 267.846 435L267.846 437ZM260 435C259.448 435 259 435.448 259 436C259 436.552 259.448 437 260 437L260 435ZM252.154 437C252.706 437 253.154 436.552 253.154 436C253.154 435.448 252.706 435 252.154 435L252.154 437ZM244.308 435C243.755 435 243.308 435.448 243.308 436C243.308 436.552 243.755 437 244.308 437L244.308 435ZM236.462 437C237.014 437 237.462 436.552 237.462 436C237.462 435.448 237.014 435 236.462 435L236.462 437ZM228.615 435C228.063 435 227.615 435.448 227.615 436C227.615 436.552 228.063 437 228.615 437L228.615 435ZM220.769 437C221.322 437 221.769 436.552 221.769 436C221.769 435.448 221.322 435 220.769 435L220.769 437ZM212.923 435C212.371 435 211.923 435.448 211.923 436C211.923 436.552 212.371 437 212.923 437L212.923 435ZM205.077 437C205.629 437 206.077 436.552 206.077 436C206.077 435.448 205.629 435 205.077 435L205.077 437ZM197.231 435C196.678 435 196.231 435.448 196.231 436C196.231 436.552 196.678 437 197.231 437L197.231 435ZM189.385 437C189.937 437 190.385 436.552 190.385 436C190.385 435.448 189.937 435 189.385 435L189.385 437ZM181.538 435C180.986 435 180.538 435.448 180.538 436C180.538 436.552 180.986 437 181.538 437L181.538 435ZM173.692 437C174.245 437 174.692 436.552 174.692 436C174.692 435.448 174.245 435 173.692 435L173.692 437ZM165.846 435C165.294 435 164.846 435.448 164.846 436C164.846 436.552 165.294 437 165.846 437L165.846 435ZM158 437C158.552 437 159 436.552 159 436C159 435.448 158.552 435 158 435L158 437ZM150.154 435C149.602 435 149.154 435.448 149.154 436C149.154 436.552 149.602 437 150.154 437L150.154 435ZM142.308 437C142.86 437 143.308 436.552 143.308 436C143.308 435.448 142.86 435 142.308 435L142.308 437ZM134.462 435C133.909 435 133.462 435.448 133.462 436C133.462 436.552 133.909 437 134.462 437L134.462 435ZM126.615 437C127.168 437 127.615 436.552 127.615 436C127.615 435.448 127.168 435 126.615 435L126.615 437ZM118.769 435C118.217 435 117.769 435.448 117.769 436C117.769 436.552 118.217 437 118.769 437L118.769 435ZM110.923 437C111.475 437 111.923 436.552 111.923 436C111.923 435.448 111.475 435 110.923 435L110.923 437ZM102.79 434.166C102.279 433.954 101.694 434.196 101.483 434.706C101.271 435.217 101.513 435.802 102.023 436.013L102.79 434.166ZM94.9868 428.977C95.1984 429.487 95.7835 429.729 96.2936 429.517C96.8038 429.306 97.0458 428.721 96.8343 428.21L94.9868 428.977ZM96 419.75C96 419.198 95.5523 418.75 95 418.75C94.4477 418.75 94 419.198 94 419.75L96 419.75ZM94 411.25C94 411.802 94.4477 412.25 95 412.25C95.5523 412.25 96 411.802 96 411.25L94 411.25ZM96 402.75C96 402.198 95.5523 401.75 95 401.75C94.4477 401.75 94 402.198 94 402.75L96 402.75ZM94 394.25C94 394.802 94.4477 395.25 95 395.25C95.5523 395.25 96 394.802 96 394.25L94 394.25ZM96 385.75C96 385.198 95.5523 384.75 95 384.75C94.4477 384.75 94 385.198 94 385.75L96 385.75ZM94 377.25C94 377.802 94.4477 378.25 95 378.25C95.5523 378.25 96 377.802 96 377.25L94 377.25ZM96 368.75C96 368.198 95.5523 367.75 95 367.75C94.4477 367.75 94 368.198 94 368.75L96 368.75ZM94 360.25C94 360.802 94.4477 361.25 95 361.25C95.5523 361.25 96 360.802 96 360.25L94 360.25ZM311 435L307.077 435L307.077 437L311 437L311 435ZM299.231 435L291.385 435L291.385 437L299.231 437L299.231 435ZM283.538 435L275.692 435L275.692 437L283.538 437L283.538 435ZM267.846 435L260 435L260 437L267.846 437L267.846 435ZM252.154 435L244.308 435L244.308 437L252.154 437L252.154 435ZM236.462 435L228.615 435L228.615 437L236.462 437L236.462 435ZM220.769 435L212.923 435L212.923 437L220.769 437L220.769 435ZM205.077 435L197.231 435L197.231 437L205.077 437L205.077 435ZM189.385 435L181.538 435L181.538 437L189.385 437L189.385 435ZM173.692 435L165.846 435L165.846 437L173.692 437L173.692 435ZM158 435L150.154 435L150.154 437L158 437L158 435ZM142.308 435L134.462 435L134.462 437L142.308 437L142.308 435ZM126.615 435L118.769 435L118.769 437L126.615 437L126.615 435ZM110.923 435L107 435L107 437L110.923 437L110.923 435ZM107 435C105.507 435 104.085 434.703 102.79 434.166L102.023 436.013C103.558 436.649 105.239 437 107 437L107 435ZM96.8343 428.21C96.297 426.915 96 425.493 96 424L94 424C94 425.761 94.3506 427.442 94.9868 428.977L96.8343 428.21ZM96 424L96 419.75L94 419.75L94 424L96 424ZM96 411.25L96 402.75L94 402.75L94 411.25L96 411.25ZM96 394.25L96 385.75L94 385.75L94 394.25L96 394.25ZM96 377.25L96 368.75L94 368.75L94 377.25L96 377.25ZM96 360.25L96 356L94 356L94 360.25L96 360.25Z" fill="#DCDEE4"/>
<path d="M499.5 300C499.5 299.724 499.276 299.5 499 299.5C498.724 299.5 498.5 299.724 498.5 300L499.5 300ZM510 364.5C510.276 364.5 510.5 364.276 510.5 364C510.5 363.724 510.276 363.5 510 363.5L510 364.5ZM505.981 362.703C505.726 362.598 505.433 362.719 505.327 362.974C505.222 363.229 505.343 363.521 505.598 363.627L505.981 362.703ZM499.373 357.402C499.479 357.657 499.771 357.778 500.026 357.673C500.281 357.567 500.402 357.274 500.297 357.019L499.373 357.402ZM499.5 348.583C499.5 348.307 499.276 348.083 499 348.083C498.724 348.083 498.5 348.307 498.5 348.583L499.5 348.583ZM498.5 339.75C498.5 340.026 498.724 340.25 499 340.25C499.276 340.25 499.5 340.026 499.5 339.75L498.5 339.75ZM499.5 330.917C499.5 330.641 499.276 330.417 499 330.417C498.724 330.417 498.5 330.641 498.5 330.917L499.5 330.917ZM498.5 322.083C498.5 322.359 498.724 322.583 499 322.583C499.276 322.583 499.5 322.359 499.5 322.083L498.5 322.083ZM499.5 313.25C499.5 312.974 499.276 312.75 499 312.75C498.724 312.75 498.5 312.974 498.5 313.25L499.5 313.25ZM498.5 304.417C498.5 304.693 498.724 304.917 499 304.917C499.276 304.917 499.5 304.693 499.5 304.417L498.5 304.417ZM510 363.5C508.575 363.5 507.218 363.217 505.981 362.703L505.598 363.627C506.954 364.19 508.442 364.5 510 364.5L510 363.5ZM500.297 357.019C499.783 355.782 499.5 354.425 499.5 353L498.5 353C498.5 354.558 498.81 356.046 499.373 357.402L500.297 357.019ZM499.5 353L499.5 348.583L498.5 348.583L498.5 353L499.5 353ZM499.5 339.75L499.5 330.917L498.5 330.917L498.5 339.75L499.5 339.75ZM499.5 322.083L499.5 313.25L498.5 313.25L498.5 322.083L499.5 322.083ZM499.5 304.417L499.5 300L498.5 300L498.5 304.417L499.5 304.417ZM500 300C500 299.448 499.552 299 499 299C498.448 299 498 299.448 498 300L500 300ZM510 365C510.552 365 511 364.552 511 364C511 363.448 510.552 363 510 363L510 365ZM506.172 362.242C505.662 362.03 505.077 362.272 504.866 362.782C504.654 363.292 504.896 363.877 505.406 364.089L506.172 362.242ZM498.911 357.594C499.123 358.104 499.708 358.346 500.218 358.134C500.728 357.923 500.97 357.338 500.758 356.828L498.911 357.594ZM500 348.583C500 348.031 499.552 347.583 499 347.583C498.448 347.583 498 348.031 498 348.583L500 348.583ZM498 339.75C498 340.302 498.448 340.75 499 340.75C499.552 340.75 500 340.302 500 339.75L498 339.75ZM500 330.917C500 330.364 499.552 329.917 499 329.917C498.448 329.917 498 330.364 498 330.917L500 330.917ZM498 322.083C498 322.636 498.448 323.083 499 323.083C499.552 323.083 500 322.636 500 322.083L498 322.083ZM500 313.25C500 312.698 499.552 312.25 499 312.25C498.448 312.25 498 312.698 498 313.25L500 313.25ZM498 304.417C498 304.969 498.448 305.417 499 305.417C499.552 305.417 500 304.969 500 304.417L498 304.417ZM510 363C508.642 363 507.35 362.73 506.172 362.242L505.406 364.089C506.823 364.676 508.375 365 510 365L510 363ZM500.758 356.828C500.27 355.65 500 354.358 500 353L498 353C498 354.625 498.324 356.177 498.911 357.594L500.758 356.828ZM500 353L500 348.583L498 348.583L498 353L500 353ZM500 339.75L500 330.917L498 330.917L498 339.75L500 339.75ZM500 322.083L500 313.25L498 313.25L498 322.083L500 322.083ZM500 304.417L500 300L498 300L498 304.417L500 304.417Z" fill="#DCDEE4"/>
<path d="M518 364.5C517.724 364.5 517.5 364.276 517.5 364C517.5 363.724 517.724 363.5 518 363.5L518 364.5ZM579.5 428C579.5 428.276 579.276 428.5 579 428.5C578.724 428.5 578.5 428.276 578.5 428L579.5 428ZM578.5 423.667C578.5 423.391 578.724 423.167 579 423.167C579.276 423.167 579.5 423.391 579.5 423.667L578.5 423.667ZM579.5 415C579.5 415.276 579.276 415.5 579 415.5C578.724 415.5 578.5 415.276 578.5 415L579.5 415ZM578.5 406.333C578.5 406.057 578.724 405.833 579 405.833C579.276 405.833 579.5 406.057 579.5 406.333L578.5 406.333ZM579.5 397.667C579.5 397.943 579.276 398.167 579 398.167C578.724 398.167 578.5 397.943 578.5 397.667L579.5 397.667ZM578.5 389C578.5 388.724 578.724 388.5 579 388.5C579.276 388.5 579.5 388.724 579.5 389L578.5 389ZM579.5 380.333C579.5 380.609 579.276 380.833 579 380.833C578.724 380.833 578.5 380.609 578.5 380.333L579.5 380.333ZM577.628 371.598C577.522 371.343 577.643 371.05 577.898 370.945C578.153 370.839 578.446 370.96 578.551 371.215L577.628 371.598ZM571.785 364.449C572.04 364.554 572.161 364.847 572.055 365.102C571.95 365.357 571.657 365.478 571.402 365.372L571.785 364.449ZM562.917 364.5C562.641 364.5 562.417 364.276 562.417 364C562.417 363.724 562.641 363.5 562.917 363.5L562.917 364.5ZM554.75 363.5C555.026 363.5 555.25 363.724 555.25 364C555.25 364.276 555.026 364.5 554.75 364.5L554.75 363.5ZM546.583 364.5C546.307 364.5 546.083 364.276 546.083 364C546.083 363.724 546.307 363.5 546.583 363.5L546.583 364.5ZM538.417 363.5C538.693 363.5 538.917 363.724 538.917 364C538.917 364.276 538.693 364.5 538.417 364.5L538.417 363.5ZM530.25 364.5C529.974 364.5 529.75 364.276 529.75 364C529.75 363.724 529.974 363.5 530.25 363.5L530.25 364.5ZM522.083 363.5C522.359 363.5 522.583 363.724 522.583 364C522.583 364.276 522.359 364.5 522.083 364.5L522.083 363.5ZM578.5 428L578.5 423.667L579.5 423.667L579.5 428L578.5 428ZM578.5 415L578.5 406.333L579.5 406.333L579.5 415L578.5 415ZM578.5 397.667L578.5 389L579.5 389L579.5 397.667L578.5 397.667ZM578.5 380.333L578.5 376L579.5 376L579.5 380.333L578.5 380.333ZM578.5 376C578.5 374.44 578.19 372.953 577.628 371.598L578.551 371.215C579.163 372.69 579.5 374.306 579.5 376L578.5 376ZM571.402 365.372C570.047 364.81 568.56 364.5 567 364.5L567 363.5C568.694 363.5 570.31 363.837 571.785 364.449L571.402 365.372ZM567 364.5L562.917 364.5L562.917 363.5L567 363.5L567 364.5ZM554.75 364.5L546.583 364.5L546.583 363.5L554.75 363.5L554.75 364.5ZM538.417 364.5L530.25 364.5L530.25 363.5L538.417 363.5L538.417 364.5ZM522.083 364.5L518 364.5L518 363.5L522.083 363.5L522.083 364.5ZM518 365C517.448 365 517 364.552 517 364C517 363.448 517.448 363 518 363L518 365ZM580 428C580 428.552 579.552 429 579 429C578.448 429 578 428.552 578 428L580 428ZM578 423.667C578 423.114 578.448 422.667 579 422.667C579.552 422.667 580 423.114 580 423.667L578 423.667ZM580 415C580 415.552 579.552 416 579 416C578.448 416 578 415.552 578 415L580 415ZM578 406.333C578 405.781 578.448 405.333 579 405.333C579.552 405.333 580 405.781 580 406.333L578 406.333ZM580 397.667C580 398.219 579.552 398.667 579 398.667C578.448 398.667 578 398.219 578 397.667L580 397.667ZM578 389C578 388.448 578.448 388 579 388C579.552 388 580 388.448 580 389L578 389ZM580 380.333C580 380.886 579.552 381.333 579 381.333C578.448 381.333 578 380.886 578 380.333L580 380.333ZM577.166 371.79C576.954 371.279 577.196 370.694 577.706 370.483C578.217 370.271 578.802 370.513 579.013 371.023L577.166 371.79ZM571.977 363.987C572.487 364.198 572.729 364.783 572.517 365.294C572.306 365.804 571.721 366.046 571.21 365.834L571.977 363.987ZM562.917 365C562.364 365 561.917 364.552 561.917 364C561.917 363.448 562.364 363 562.917 363L562.917 365ZM554.75 363C555.302 363 555.75 363.448 555.75 364C555.75 364.552 555.302 365 554.75 365L554.75 363ZM546.583 365C546.031 365 545.583 364.552 545.583 364C545.583 363.448 546.031 363 546.583 363L546.583 365ZM538.417 363C538.969 363 539.417 363.448 539.417 364C539.417 364.552 538.969 365 538.417 365L538.417 363ZM530.25 365C529.698 365 529.25 364.552 529.25 364C529.25 363.448 529.698 363 530.25 363L530.25 365ZM522.083 363C522.636 363 523.083 363.448 523.083 364C523.083 364.552 522.636 365 522.083 365L522.083 363ZM578 428L578 423.667L580 423.667L580 428L578 428ZM578 415L578 406.333L580 406.333L580 415L578 415ZM578 397.667L578 389L580 389L580 397.667L578 397.667ZM578 380.333L578 376L580 376L580 380.333L578 380.333ZM578 376C578 374.507 577.703 373.085 577.166 371.79L579.013 371.023C579.649 372.558 580 374.239 580 376L578 376ZM571.21 365.834C569.915 365.297 568.493 365 567 365L567 363C568.761 363 570.442 363.351 571.977 363.987L571.21 365.834ZM567 365L562.917 365L562.917 363L567 363L567 365ZM554.75 365L546.583 365L546.583 363L554.75 363L554.75 365ZM538.417 365L530.25 365L530.25 363L538.417 363L538.417 365ZM522.083 365L518 365L518 363L522.083 363L522.083 365Z" fill="#DCDEE4"/>
<circle cx="616.225" cy="183.224" r="6.38103" transform="rotate(8.17972 616.225 183.224)" fill="#4A86F7"/>
<circle cx="575.118" cy="75.117" r="4.51989" transform="rotate(8.17972 575.118 75.117)" fill="#D34B6A"/>
<circle cx="802.495" cy="131.493" r="3.19051" transform="rotate(-50.0058 802.495 131.493)" fill="#83BF6E"/>
<circle cx="167.495" cy="3.49301" r="3.19051" transform="rotate(-50.0058 167.495 3.49301)" fill="#FADD6F"/>
<circle cx="833.368" cy="390.368" r="4.51989" transform="rotate(-50.0058 833.368 390.368)" fill="#E0704A"/>
<defs>
<filter id="filter0_d_3094_179207" x="205" y="300" width="280" height="124" filterUnits="userSpaceOnUse" color-interpolation-filters="sRGB">
<feFlood flood-opacity="0" result="BackgroundImageFix"/>
<feColorMatrix in="SourceAlpha" type="matrix" values="0 0 0 0 0 0 0 0 0 0 0 0 0 0 0 0 0 0 127 0" result="hardAlpha"/>
<feOffset dx="6" dy="6"/>
<feGaussianBlur stdDeviation="15"/>
<feComposite in2="hardAlpha" operator="out"/>
<feColorMatrix type="matrix" values="0 0 0 0 0.575 0 0 0 0 0.606167 0 0 0 0 0.716667 0 0 0 0.05 0"/>
<feBlend mode="normal" in2="BackgroundImageFix" result="effect1_dropShadow_3094_179207"/>
<feBlend mode="normal" in="SourceGraphic" in2="effect1_dropShadow_3094_179207" result="shape"/>
</filter>
<filter id="filter1_d_3094_179207" x="315" y="380" width="280" height="124" filterUnits="userSpaceOnUse" color-interpolation-filters="sRGB">
<feFlood flood-opacity="0" result="BackgroundImageFix"/>
<feColorMatrix in="SourceAlpha" type="matrix" values="0 0 0 0 0 0 0 0 0 0 0 0 0 0 0 0 0 0 127 0" result="hardAlpha"/>
<feOffset dx="6" dy="6"/>
<feGaussianBlur stdDeviation="15"/>
<feComposite in2="hardAlpha" operator="out"/>
<feColorMatrix type="matrix" values="0 0 0 0 0.575 0 0 0 0 0.606167 0 0 0 0 0.716667 0 0 0 0.05 0"/>
<feBlend mode="normal" in2="BackgroundImageFix" result="effect1_dropShadow_3094_179207"/>
<feBlend mode="normal" in="SourceGraphic" in2="effect1_dropShadow_3094_179207" result="shape"/>
</filter>
<filter id="filter2_d_3094_179207" x="495" y="236" width="340" height="124" filterUnits="userSpaceOnUse" color-interpolation-filters="sRGB">
<feFlood flood-opacity="0" result="BackgroundImageFix"/>
<feColorMatrix in="SourceAlpha" type="matrix" values="0 0 0 0 0 0 0 0 0 0 0 0 0 0 0 0 0 0 127 0" result="hardAlpha"/>
<feOffset dx="6" dy="6"/>
<feGaussianBlur stdDeviation="15"/>
<feComposite in2="hardAlpha" operator="out"/>
<feColorMatrix type="matrix" values="0 0 0 0 0.575 0 0 0 0 0.606167 0 0 0 0 0.716667 0 0 0 0.05 0"/>
<feBlend mode="normal" in2="BackgroundImageFix" result="effect1_dropShadow_3094_179207"/>
<feBlend mode="normal" in="SourceGraphic" in2="effect1_dropShadow_3094_179207" result="shape"/>
</filter>
<filter id="filter3_d_3094_179207" x="104" y="52" width="376" height="184" filterUnits="userSpaceOnUse" color-interpolation-filters="sRGB">
<feFlood flood-opacity="0" result="BackgroundImageFix"/>
<feColorMatrix in="SourceAlpha" type="matrix" values="0 0 0 0 0 0 0 0 0 0 0 0 0 0 0 0 0 0 127 0" result="hardAlpha"/>
<feOffset dx="1" dy="16"/>
<feGaussianBlur stdDeviation="30"/>
<feComposite in2="hardAlpha" operator="out"/>
<feColorMatrix type="matrix" values="0 0 0 0 0.575 0 0 0 0 0.606167 0 0 0 0 0.716667 0 0 0 0.12 0"/>
<feBlend mode="normal" in2="BackgroundImageFix" result="effect1_dropShadow_3094_179207"/>
<feBlend mode="normal" in="SourceGraphic" in2="effect1_dropShadow_3094_179207" result="shape"/>
</filter>
<filter id="filter4_d_3094_179207" x="0" y="148" width="376" height="184" filterUnits="userSpaceOnUse" color-interpolation-filters="sRGB">
<feFlood flood-opacity="0" result="BackgroundImageFix"/>
<feColorMatrix in="SourceAlpha" type="matrix" values="0 0 0 0 0 0 0 0 0 0 0 0 0 0 0 0 0 0 127 0" result="hardAlpha"/>
<feOffset dx="1" dy="16"/>
<feGaussianBlur stdDeviation="30"/>
<feComposite in2="hardAlpha" operator="out"/>
<feColorMatrix type="matrix" values="0 0 0 0 0.575 0 0 0 0 0.606167 0 0 0 0 0.716667 0 0 0 0.12 0"/>
<feBlend mode="normal" in2="BackgroundImageFix" result="effect1_dropShadow_3094_179207"/>
<feBlend mode="normal" in="SourceGraphic" in2="effect1_dropShadow_3094_179207" result="shape"/>
</filter>
<linearGradient id="paint0_linear_3094_179207" x1="132.714" y1="492.5" x2="132.707" y2="70.5" gradientUnits="userSpaceOnUse">
<stop stop-color="#EDF3FE"/>
<stop offset="1" stop-color="#EDF3FE" stop-opacity="0"/>
</linearGradient>
<linearGradient id="paint1_linear_3094_179207" x1="330.714" y1="492.5" x2="330.707" y2="70.5" gradientUnits="userSpaceOnUse">
<stop stop-color="#EDF3FE"/>
<stop offset="1" stop-color="#EDF3FE" stop-opacity="0"/>
</linearGradient>
<linearGradient id="paint2_linear_3094_179207" x1="330.32" y1="40" x2="330.32" y2="500" gradientUnits="userSpaceOnUse">
<stop stop-color="#4A86F7"/>
<stop offset="1" stop-color="#4A86F7" stop-opacity="0"/>
</linearGradient>
<linearGradient id="paint3_linear_3094_179207" x1="528.714" y1="492.5" x2="528.707" y2="70.5" gradientUnits="userSpaceOnUse">
<stop stop-color="#EDF3FE"/>
<stop offset="1" stop-color="#EDF3FE" stop-opacity="0"/>
</linearGradient>
<linearGradient id="paint4_linear_3094_179207" x1="727.285" y1="492.5" x2="727.278" y2="70.5" gradientUnits="userSpaceOnUse">
<stop stop-color="#EDF3FE"/>
<stop offset="1" stop-color="#EDF3FE" stop-opacity="0"/>
</linearGradient>
</defs>
</svg>
