<svg width="272" height="25" viewBox="0 0 272 25" fill="none" xmlns="http://www.w3.org/2000/svg">
<path opacity="0.5" d="M108.344 2.47315C114.558 2.88712 120.52 2.70047 126.6 2.842C135.325 3.01139 144.049 3.18072 153.04 3.895C158.542 4.30362 163.925 4.38401 169.398 4.90418C182.328 6.15902 195.22 7.16611 208.144 8.83605C218.607 10.1681 228.989 11.4198 239.409 12.9192C248.653 14.2342 257.864 16.0757 267.198 17.8304C268.47 18.0396 269.808 18.385 270.854 19.0715C270.571 19.7719 269.281 18.8441 269.027 19.4329C269.816 19.9338 272.01 19.7268 271.574 20.6257C271.277 21.3819 270.01 21.9472 268.107 21.8131C265.412 21.5933 262.903 20.6482 260.25 20.2611C248.463 18.5278 236.719 16.6272 225.023 15.3338C217.786 14.5369 210.497 13.548 203.446 13.2156C199.516 13.0344 195.488 12.054 191.596 12.1206C190.678 12.1216 189.546 11.7699 188.881 12.3716C188.617 12.6011 187.202 12.9497 186.682 11.8042C186.548 11.5318 185.917 11.6068 185.506 11.6197C180.893 11.3216 176.066 10.6705 171.558 10.7564C167.241 10.8916 162.796 10.3392 158.426 10.2824C155.372 10.2674 152.069 9.23665 148.876 9.36433C147.547 9.37829 146.151 9.25601 144.956 9.54241C144.449 9.53061 143.957 9.46304 143.45 9.45125C139.989 9.03403 136.581 8.80882 133.316 9.21537C129.664 8.74882 126.117 8.66631 122.756 9.04819C118.936 8.83585 115.05 8.48726 111.698 9.22847C110.297 9.52131 108.409 9.33148 106.765 9.38298C101.186 9.66835 95.7024 9.97839 90.1234 10.2638C89.0955 10.296 88.0911 10.6316 86.9061 10.0878C83.8134 9.82506 81.098 10.0761 78.5161 10.5996C75.9197 11.1788 72.9081 10.9965 70.1114 11.1671C66.4924 11.3634 62.9689 11.5844 59.7651 12.5422C57.1256 13.2888 53.7029 13.1194 50.8198 13.6246C44.3414 14.6297 37.6193 15.3935 32.0483 17.2277C25.9274 19.2175 18.6988 19.9695 12.9982 22.3057C11.5253 22.8774 10.4727 23.7955 8.66059 24.1012C6.8341 24.4627 3.44548 23.7667 1.79289 22.2693C0.369471 21.0691 0.17935 19.8302 1.54748 18.8745C3.91061 17.2237 6.69424 15.9194 9.64009 14.7759C22.4565 9.7549 37.016 6.67099 52.373 4.4473C67.4 2.31695 83.0187 1.05323 99.0385 0.606872C107.247 0.405142 115.56 0.587473 123.902 0.658186C132.449 0.722461 141.063 0.922941 149.701 1.42699C157.421 1.93212 165.208 2.5735 172.994 3.21485C182.081 3.9538 191.235 4.82894 200.331 5.92721C222.285 8.5592 244.292 11.3832 266.272 16.2827C267.72 16.597 269.489 16.4585 270.817 17.6341C269.469 18.119 267.829 17.7553 266.285 17.4164C254.987 14.9763 243.64 13.1187 232.36 11.3972C215.678 8.87674 199.053 7.32267 182.5 5.48973C174.47 4.60704 166.502 4.27565 158.524 3.58496C148.041 2.72375 137.73 2.38278 127.404 2.09756C121.228 1.93136 115.119 1.9014 109.195 2.33587C108.651 2.0763 108.321 2.1696 108.344 2.47315C107.064 1.90467 105.964 2.21573 104.84 2.22325C96.0443 2.33274 87.463 2.79518 78.8673 3.31334C73.4794 3.64805 68.225 4.25516 62.9183 4.67031C57.2961 5.12301 51.9698 6.00904 46.7247 6.97552C45.2281 7.24369 42.8622 6.93053 42.4211 8.24449C39.606 7.69641 38.1279 8.68325 36.3251 9.34829C38.4239 9.11658 40.6182 8.90951 42.3255 8.2198C42.9422 8.20049 43.5446 8.23696 43.9845 8.11253C59.4422 5.49842 75.5442 3.943 92.1571 3.17377C97.6261 2.91951 102.985 2.6963 108.344 2.47315ZM17.3899 13.98C16.0033 14.2171 14.5211 14.4294 13.7029 15.2296C15.1039 14.9367 16.6528 14.8606 17.3899 13.98Z" fill="white"/>
</svg>
