<svg width="689" height="737" viewBox="0 0 689 737" fill="none" xmlns="http://www.w3.org/2000/svg">
<path d="M3.30469 190.648V60.7578H202.755V190.648H3.30469Z" stroke="#E79CAD" stroke-width="2"/>
<path d="M241.586 190.648V60.7578H441.036V190.648H241.586Z" stroke="#E79CAD" stroke-width="2"/>
<path d="M483.609 190.648V60.7578H683.06V190.648H483.609Z" stroke="#E79CAD" stroke-width="2"/>
<path d="M3.30469 335.687V205.797H202.755V335.687H3.30469Z" stroke="#E79CAD" stroke-width="2"/>
<path d="M380.561 170.558L365.719 159.375L354.538 174.221L369.381 185.403L380.561 170.558Z" fill="#4A86F7"/>
<path d="M12.6282 21.745C18.6318 21.745 23.4986 16.8772 23.4986 10.8725C23.4986 4.86779 18.6318 0 12.6282 0C6.62465 0 1.75781 4.86779 1.75781 10.8725C1.75781 16.8772 6.62465 21.745 12.6282 21.745Z" fill="white"/>
<path d="M43.5501 21.745C49.5537 21.745 54.4205 16.8772 54.4205 10.8725C54.4205 4.86779 49.5537 0 43.5501 0C37.5465 0 32.6797 4.86779 32.6797 10.8725C32.6797 16.8772 37.5465 21.745 43.5501 21.745Z" fill="white"/>
<path d="M74.2142 21.745C80.2178 21.745 85.0846 16.8772 85.0846 10.8725C85.0846 4.86779 80.2178 0 74.2142 0C68.2107 0 63.3438 4.86779 63.3438 10.8725C63.3438 16.8772 68.2107 21.745 74.2142 21.745Z" fill="white"/>
<path d="M176.854 94.7588C183.228 94.7588 188.395 89.5906 188.395 83.2154C188.395 76.8401 183.228 71.6719 176.854 71.6719C170.48 71.6719 165.312 76.8401 165.312 83.2154C165.312 89.5906 170.48 94.7588 176.854 94.7588Z" fill="white"/>
<path d="M176.857 95.7374C174.38 95.7374 171.959 95.0028 169.9 93.6265C167.841 92.2503 166.236 90.2942 165.289 88.0056C164.341 85.7171 164.093 83.1989 164.577 80.7696C165.06 78.3402 166.253 76.1088 168.005 74.3576C169.756 72.6064 171.988 71.4141 174.417 70.9315C176.846 70.4488 179.364 70.6974 181.651 71.646C183.939 72.5946 185.894 74.2006 187.269 76.2606C188.645 78.3207 189.378 80.7423 189.377 83.2193C189.375 86.5393 188.054 89.7226 185.707 92.0698C183.359 94.4169 180.176 95.7361 176.857 95.7374ZM176.857 72.6554C174.768 72.6554 172.726 73.275 170.989 74.4358C169.252 75.5966 167.898 77.2464 167.099 79.1767C166.299 81.107 166.09 83.231 166.498 85.2802C166.905 87.3294 167.911 89.2118 169.388 90.6892C170.865 92.1666 172.747 93.1728 174.796 93.5804C176.845 93.988 178.968 93.7788 180.898 92.9792C182.828 92.1796 184.478 90.8257 185.638 89.0884C186.799 87.3512 187.419 85.3086 187.419 83.2193C187.416 80.4183 186.302 77.7328 184.322 75.7522C182.342 73.7717 179.657 72.658 176.857 72.6554Z" fill="#D34B6A"/>
<path d="M416.432 94.7588C422.806 94.7588 427.973 89.5906 427.973 83.2154C427.973 76.8401 422.806 71.6719 416.432 71.6719C410.058 71.6719 404.891 76.8401 404.891 83.2154C404.891 89.5906 410.058 94.7588 416.432 94.7588Z" fill="white"/>
<path d="M416.435 95.7374C413.958 95.7374 411.537 95.0028 409.478 93.6265C407.419 92.2503 405.814 90.2942 404.867 88.0056C403.919 85.7171 403.672 83.1989 404.155 80.7696C404.639 78.3402 405.831 76.1088 407.583 74.3576C409.335 72.6064 411.566 71.4141 413.995 70.9315C416.424 70.4488 418.942 70.6974 421.229 71.646C423.517 72.5946 425.472 74.2006 426.848 76.2606C428.223 78.3207 428.956 80.7423 428.955 83.2193C428.951 86.5389 427.631 89.7214 425.283 92.0683C422.936 94.4152 419.754 95.7348 416.435 95.7374ZM416.435 72.6554C414.346 72.6554 412.304 73.275 410.567 74.4358C408.83 75.5966 407.476 77.2464 406.677 79.1767C405.877 81.107 405.668 83.231 406.076 85.2802C406.483 87.3294 407.489 89.2118 408.966 90.6892C410.443 92.1666 412.325 93.1728 414.374 93.5804C416.423 93.988 418.547 93.7788 420.476 92.9792C422.406 92.1796 424.056 90.8257 425.217 89.0884C426.377 87.3512 426.997 85.3086 426.997 83.2193C426.994 80.4183 425.88 77.7328 423.9 75.7522C421.92 73.7717 419.235 72.658 416.435 72.6554Z" fill="#D34B6A"/>
<path d="M671.26 83.2156L657.867 69.8203L644.475 83.2154L657.867 96.6106L671.26 83.2156Z" fill="white"/>
<path d="M657.872 97.9941L643.094 83.2183L657.872 68.4375L672.645 83.2183L657.872 97.9941ZM645.865 83.2183L657.872 95.2271L669.878 83.2183L657.872 71.2096L645.865 83.2183Z" fill="#D34B6A"/>
<path d="M184.844 247.046V223.195H160.997V247.046H184.844Z" fill="white"/>
<path d="M185.821 248.025H160.016V222.215H185.821V248.025ZM161.974 246.066H183.862V224.174H161.974V246.066Z" fill="#D34B6A"/>
<path d="M132.54 244.491H24.7805C24.474 244.491 24.1801 244.37 23.9634 244.153C23.7467 243.936 23.625 243.642 23.625 243.336C23.625 243.029 23.7467 242.735 23.9634 242.518C24.1801 242.302 24.474 242.18 24.7805 242.18H132.54C132.846 242.18 133.14 242.302 133.357 242.518C133.573 242.735 133.695 243.029 133.695 243.336C133.695 243.642 133.573 243.936 133.357 244.153C133.14 244.37 132.846 244.491 132.54 244.491Z" fill="#E79CAD"/>
<path d="M153.399 263.343H24.7805C24.474 263.343 24.1801 263.221 23.9634 263.004C23.7467 262.788 23.625 262.494 23.625 262.187C23.625 261.881 23.7467 261.587 23.9634 261.37C24.1801 261.153 24.474 261.031 24.7805 261.031H153.399C153.706 261.031 153.999 261.153 154.216 261.37C154.433 261.587 154.555 261.881 154.555 262.187C154.555 262.494 154.433 262.788 154.216 263.004C153.999 263.221 153.706 263.343 153.399 263.343Z" fill="#E79CAD"/>
<path d="M118.638 282.202H24.7805C24.474 282.202 24.1801 282.081 23.9634 281.864C23.7467 281.647 23.625 281.353 23.625 281.047C23.625 280.74 23.7467 280.446 23.9634 280.229C24.1801 280.012 24.474 279.891 24.7805 279.891H118.638C118.945 279.891 119.239 280.012 119.455 280.229C119.672 280.446 119.794 280.74 119.794 281.047C119.794 281.353 119.672 281.647 119.455 281.864C119.239 282.081 118.945 282.202 118.638 282.202Z" fill="#E79CAD"/>
<path d="M615.587 84.374H507.828C507.521 84.374 507.227 84.2524 507.01 84.0356C506.794 83.8189 506.672 83.5248 506.672 83.2183C506.672 82.9117 506.794 82.6176 507.01 82.4009C507.227 82.1841 507.521 82.0625 507.828 82.0625H615.587C615.893 82.0625 616.187 82.1841 616.404 82.4009C616.621 82.6176 616.742 82.9117 616.742 83.2183C616.742 83.5248 616.621 83.8189 616.404 84.0356C616.187 84.2524 615.893 84.374 615.587 84.374Z" fill="#E79CAD"/>
<path d="M636.446 103.21H507.828C507.521 103.21 507.227 103.088 507.01 102.872C506.794 102.655 506.672 102.361 506.672 102.054C506.672 101.748 506.794 101.454 507.01 101.237C507.227 101.02 507.521 100.898 507.828 100.898H636.446C636.753 100.898 637.046 101.02 637.263 101.237C637.48 101.454 637.602 101.748 637.602 102.054C637.602 102.361 637.48 102.655 637.263 102.872C637.046 103.088 636.753 103.21 636.446 103.21Z" fill="#E79CAD"/>
<path d="M601.685 122.054H507.828C507.521 122.054 507.227 121.932 507.01 121.715C506.794 121.499 506.672 121.205 506.672 120.898C506.672 120.592 506.794 120.298 507.01 120.081C507.227 119.864 507.521 119.742 507.828 119.742H601.685C601.992 119.742 602.286 119.864 602.502 120.081C602.719 120.298 602.841 120.592 602.841 120.898C602.841 121.205 602.719 121.499 602.502 121.715C602.286 121.932 601.992 122.054 601.685 122.054Z" fill="#E79CAD"/>
<path d="M175.157 287.934C173.995 287.934 172.859 287.589 171.893 286.943C170.926 286.298 170.173 285.38 169.729 284.306C169.284 283.232 169.167 282.05 169.394 280.91C169.621 279.77 170.181 278.723 171.002 277.901C171.824 277.079 172.871 276.519 174.011 276.293C175.151 276.066 176.332 276.182 177.406 276.627C178.479 277.072 179.397 277.825 180.043 278.792C180.688 279.758 181.033 280.894 181.033 282.057C181.033 283.615 180.414 285.11 179.312 286.212C178.21 287.315 176.716 287.934 175.157 287.934ZM175.157 278.486C174.451 278.486 173.761 278.696 173.174 279.088C172.587 279.48 172.129 280.038 171.859 280.691C171.589 281.343 171.518 282.061 171.656 282.753C171.794 283.446 172.134 284.082 172.633 284.581C173.132 285.081 173.768 285.421 174.461 285.558C175.153 285.696 175.871 285.626 176.523 285.355C177.175 285.085 177.733 284.628 178.125 284.04C178.517 283.453 178.727 282.763 178.727 282.057C178.727 281.11 178.351 280.202 177.681 279.532C177.012 278.863 176.104 278.486 175.157 278.486Z" fill="#E79CAD"/>
<path d="M175.157 315.621C173.995 315.621 172.859 315.277 171.893 314.631C170.926 313.985 170.173 313.067 169.729 311.993C169.284 310.919 169.167 309.738 169.394 308.598C169.621 307.458 170.181 306.411 171.002 305.589C171.824 304.767 172.871 304.207 174.011 303.98C175.151 303.753 176.332 303.87 177.406 304.314C178.479 304.759 179.397 305.513 180.043 306.479C180.688 307.446 181.033 308.582 181.033 309.744C181.033 311.303 180.414 312.798 179.312 313.9C178.21 315.002 176.716 315.621 175.157 315.621ZM175.157 306.174C174.451 306.174 173.761 306.383 173.174 306.776C172.587 307.168 172.129 307.725 171.859 308.378C171.589 309.03 171.518 309.748 171.656 310.441C171.794 311.133 172.134 311.77 172.633 312.269C173.132 312.768 173.768 313.108 174.461 313.246C175.153 313.384 175.871 313.313 176.523 313.043C177.175 312.773 177.733 312.315 178.125 311.728C178.517 311.141 178.727 310.45 178.727 309.744C178.72 308.802 178.341 307.9 177.673 307.236C177.004 306.571 176.1 306.198 175.157 306.198V306.174Z" fill="#E79CAD"/>
<path d="M657.868 131.488C656.706 131.488 655.57 131.144 654.604 130.498C653.637 129.852 652.884 128.934 652.44 127.861C651.995 126.787 651.878 125.605 652.105 124.465C652.332 123.325 652.891 122.278 653.713 121.456C654.535 120.634 655.582 120.074 656.722 119.847C657.861 119.621 659.043 119.737 660.117 120.182C661.19 120.627 662.108 121.38 662.754 122.346C663.399 123.313 663.744 124.449 663.744 125.611C663.744 127.17 663.125 128.665 662.023 129.767C660.921 130.869 659.427 131.488 657.868 131.488ZM657.868 122.046C657.162 122.045 656.471 122.254 655.883 122.646C655.295 123.038 654.837 123.595 654.566 124.248C654.295 124.9 654.224 125.619 654.362 126.312C654.499 127.005 654.839 127.641 655.339 128.141C655.839 128.64 656.475 128.981 657.168 129.118C657.861 129.256 658.579 129.185 659.231 128.914C659.884 128.643 660.441 128.185 660.833 127.597C661.225 127.009 661.434 126.318 661.433 125.611C661.43 124.667 661.054 123.762 660.386 123.095C659.717 122.428 658.812 122.052 657.868 122.051V122.046Z" fill="#E79CAD"/>
<path d="M657.868 159.176C656.706 159.176 655.57 158.831 654.604 158.186C653.637 157.54 652.884 156.622 652.44 155.548C651.995 154.474 651.878 153.292 652.105 152.152C652.332 151.012 652.891 149.965 653.713 149.143C654.535 148.321 655.582 147.762 656.722 147.535C657.861 147.308 659.043 147.424 660.117 147.869C661.19 148.314 662.108 149.067 662.754 150.034C663.399 151 663.744 152.136 663.744 153.299C663.744 154.857 663.125 156.352 662.023 157.454C660.921 158.557 659.427 159.176 657.868 159.176ZM657.868 149.728C657.162 149.727 656.471 149.936 655.884 150.328C655.296 150.72 654.838 151.277 654.567 151.929C654.296 152.582 654.224 153.3 654.362 153.993C654.499 154.685 654.838 155.322 655.337 155.822C655.836 156.321 656.472 156.662 657.165 156.8C657.858 156.938 658.576 156.868 659.228 156.598C659.881 156.328 660.438 155.87 660.831 155.283C661.223 154.696 661.433 154.005 661.433 153.299C661.431 152.353 661.056 151.447 660.388 150.778C659.72 150.108 658.814 149.731 657.868 149.728Z" fill="#E79CAD"/>
<path fill-rule="evenodd" clip-rule="evenodd" d="M0 35.5703H688.097V47.393H465.53V138.585C465.53 138.892 465.408 139.186 465.191 139.402C464.975 139.619 464.681 139.741 464.374 139.741C464.068 139.741 463.774 139.619 463.557 139.402C463.34 139.186 463.219 138.892 463.219 138.585V47.393H223.327V387.032C223.327 387.339 223.205 387.633 222.988 387.85C222.772 388.066 222.478 388.188 222.171 388.188C221.865 388.188 221.571 388.066 221.354 387.85C221.137 387.633 221.016 387.339 221.016 387.032V47.393H0V35.5703Z" fill="white"/>
<path d="M583.338 207.936L361.219 169.242L338.726 298.409L560.845 337.103L583.338 207.936Z" fill="white"/>
<path d="M339.802 410.146L347.421 442.42L343.215 459.689L332.075 505.451L331.453 508.003L330.508 511.887L325.612 532.05L325.313 533.284C323.246 541.773 321.383 549.936 319.721 557.772C317.762 566.979 316.066 575.769 314.633 584.14C314.369 585.658 314.113 587.164 313.865 588.656C312.67 595.839 311.647 602.728 310.795 609.323C310.792 609.331 310.792 609.34 310.795 609.348C298.489 703.488 318.58 736.61 318.82 737.002C285.949 724.239 270.833 693.595 254.675 689.344C238.516 685.093 218.93 667.212 218.93 667.212L239.069 596.624L240.347 592.153L244.882 576.245L249.146 561.298L253.96 544.426L254.812 541.429L255.688 538.343L261.564 517.774L263.033 512.715L267.807 495.994L297.187 393.088C298.651 387.955 301.446 383.301 305.288 379.597C309.129 375.893 313.882 373.271 319.063 371.995C324.244 370.719 329.671 370.836 334.793 372.333C339.915 373.83 344.55 376.655 348.229 380.52C344.425 384.335 341.659 389.058 340.193 394.242C338.726 399.426 338.609 404.899 339.851 410.141L339.802 410.146Z" fill="#4A86F7"/>
<path d="M355.663 408.558L343.216 459.673L326.078 387.121L355.066 392.136C356.781 397.449 356.988 403.134 355.663 408.558Z" fill="#2E6BCE"/>
<path d="M319.39 283.092L312.045 185.666C311.766 181.97 312.256 178.256 313.486 174.76C314.716 171.263 316.658 168.06 319.189 165.353C321.721 162.646 324.787 160.495 328.193 159.034C331.598 157.574 335.271 156.836 338.976 156.868L416.538 157.5C434.731 157.647 452.582 162.456 468.388 171.468L496.205 187.331C496.791 187.668 497.287 188.141 497.65 188.711C498.014 189.28 498.235 189.929 498.294 190.602C498.353 191.275 498.249 191.953 497.99 192.577C497.731 193.201 497.326 193.754 496.808 194.187C496.284 194.621 495.663 194.921 494.997 195.062C494.332 195.203 493.643 195.18 492.988 194.996C485.071 192.752 456.68 185.039 439.616 184.711C438.795 184.695 437.992 184.944 437.324 185.421C436.657 185.898 436.161 186.578 435.91 187.359C435.66 188.141 435.667 188.982 435.933 189.759C436.198 190.535 436.706 191.206 437.383 191.67C440.634 193.944 444.053 195.966 447.612 197.719C448.062 197.93 448.461 198.236 448.782 198.615C449.103 198.995 449.339 199.439 449.472 199.918C449.606 200.396 449.635 200.899 449.558 201.39C449.48 201.881 449.297 202.349 449.022 202.763C448.639 203.351 448.084 203.807 447.434 204.07C446.783 204.333 446.068 204.389 445.384 204.232C439.258 202.827 422.811 198.424 416.783 190.485L358.474 194.349L367.685 278.64C368.048 281.968 367.718 285.335 366.717 288.529C365.716 291.723 364.064 294.675 361.867 297.199C359.669 299.724 356.973 301.766 353.948 303.198C350.923 304.63 347.634 305.42 344.289 305.518C338.051 305.703 331.981 303.476 327.344 299.299C322.706 295.122 319.857 289.317 319.39 283.092Z" fill="#2448B1"/>
<path d="M380.561 170.558L365.719 159.375L354.538 174.221L369.381 185.403L380.561 170.558Z" fill="#4A86F7"/>
<path d="M423.345 286.71L322.475 267.164C305.337 263.843 288.625 274.437 285.153 290.829C281.677 307.221 292.758 323.196 309.896 326.522C292.758 323.196 276.046 333.795 272.574 350.182C269.102 366.574 280.178 382.554 297.316 385.875L398.186 405.421C415.324 408.742 432.036 398.148 435.508 381.756C438.979 365.369 427.903 349.388 410.765 346.068C427.903 349.388 444.61 338.795 448.087 322.403C451.549 306.011 440.483 290.035 423.345 286.71Z" fill="white"/>
<path d="M373.662 270.089C395.299 270.089 412.839 252.545 412.839 230.904C412.839 209.263 395.299 191.719 373.662 191.719C352.025 191.719 334.484 209.263 334.484 230.904C334.484 252.545 352.025 270.089 373.662 270.089Z" fill="#F2A84C"/>
<path d="M552.699 244.506C560.209 244.506 566.297 238.416 566.297 230.905C566.297 223.394 560.209 217.305 552.699 217.305C545.19 217.305 539.102 223.394 539.102 230.905C539.102 238.416 545.19 244.506 552.699 244.506Z" fill="#83BF6E"/>
<path d="M524.3 224.353C524.227 224.36 524.153 224.36 524.08 224.353L460.728 212.139C460.439 212.069 460.188 211.891 460.028 211.641C459.867 211.391 459.808 211.089 459.865 210.797C459.921 210.505 460.087 210.246 460.329 210.074C460.571 209.902 460.87 209.829 461.164 209.871L524.511 222.066C524.789 222.124 525.036 222.282 525.205 222.511C525.374 222.74 525.452 223.023 525.426 223.306C525.399 223.589 525.269 223.852 525.061 224.045C524.852 224.238 524.58 224.348 524.296 224.353H524.3Z" fill="#D34B6A"/>
<path d="M540.734 266.846C540.661 266.853 540.587 266.853 540.514 266.846L472.647 253.765C472.493 253.742 472.344 253.689 472.21 253.608C472.077 253.526 471.961 253.419 471.871 253.291C471.78 253.164 471.716 253.02 471.683 252.867C471.649 252.714 471.648 252.556 471.677 252.403C471.707 252.249 471.767 252.103 471.854 251.973C471.942 251.844 472.055 251.733 472.186 251.649C472.318 251.564 472.465 251.507 472.619 251.481C472.773 251.455 472.931 251.461 473.083 251.497L540.95 264.579C541.233 264.631 541.487 264.788 541.661 265.019C541.834 265.249 541.915 265.536 541.888 265.823C541.861 266.11 541.728 266.377 541.515 266.571C541.301 266.764 541.023 266.872 540.734 266.871V266.846Z" fill="#D34B6A"/>
<path d="M538.611 281.892C538.538 281.899 538.464 281.899 538.39 281.892L461.837 267.111C461.549 267.042 461.298 266.863 461.137 266.613C460.976 266.364 460.918 266.062 460.974 265.77C461.03 265.478 461.196 265.219 461.438 265.047C461.68 264.874 461.979 264.802 462.273 264.844L538.846 279.605C539.124 279.663 539.371 279.822 539.54 280.05C539.709 280.279 539.787 280.562 539.761 280.845C539.734 281.128 539.604 281.391 539.396 281.584C539.187 281.778 538.915 281.887 538.63 281.892H538.611Z" fill="#D34B6A"/>
<path d="M356.636 274.643C356.69 274.31 356.724 274.104 356.636 274.075C356.548 274.045 356.396 274.202 356.146 274.628C355.85 275.16 355.583 275.707 355.348 276.269C355.475 275.935 355.618 275.608 355.779 275.289C355.887 275.06 356.01 274.837 356.146 274.623C356.303 274.339 356.474 274.06 356.636 273.781L337.539 270.078C338.509 271.557 339.385 273.094 340.164 274.682C340.555 275.333 340.462 274.887 340.399 274.589C341.055 276.577 341.53 276.225 342.054 277.238C342.328 278.218 342.622 279.197 342.867 280.177C343.474 281.249 343.258 280.299 343.386 280.343C343.67 281 343.944 281.661 344.208 282.302C344.34 282.63 344.478 282.959 344.6 283.282C344.722 283.605 344.82 283.948 344.928 284.261C345.359 285.598 345.8 286.906 346.103 288.214C346.216 288.645 346.324 289.071 346.436 289.487C347.665 289.276 348.884 289.09 349.781 288.841C351.073 288.4 350.466 288.395 349.854 288.39C351.401 288.153 352.919 287.754 354.383 287.2C354.183 285.902 354.011 284.692 353.923 283.404C354.104 281.899 354.381 280.408 354.751 278.938L354.623 278.712C354.809 278.482 355.01 278.252 355.206 278.032C355.195 277.676 355.238 277.321 355.333 276.979C355.397 276.886 355.412 277.043 355.412 277.278C355.514 276.788 355.612 276.381 355.647 276.151C355.545 276.19 355.461 276.265 355.412 276.362C355.627 275.872 355.676 275.896 355.647 276.151C355.911 276.053 355.891 276.896 355.906 277.758L356.083 277.41C356.234 276.421 356.484 275.294 356.636 274.643Z" fill="#57B6F0"/>
<path d="M354.283 290.399L354.856 290.223C354.853 290.184 354.853 290.145 354.856 290.105L354.283 290.223C354.268 290.282 354.273 290.341 354.283 290.399Z" fill="#57B6F0"/>
<path d="M356.198 279.264C356.343 278.171 356.568 277.09 356.874 276.031C356.692 276.364 356.384 276.859 356.09 277.471C356.017 277.917 355.987 278.348 355.953 278.725C355.987 279.303 356.071 279.655 356.198 279.264Z" fill="#57B6F0"/>
<path d="M354.719 281.99C354.866 281.265 354.969 280.614 355.038 280.031C354.817 280.66 354.709 281.324 354.719 281.99Z" fill="#57B6F0"/>
<path d="M303.499 324.579C303.464 324.329 303.43 324.09 303.401 323.825C303.245 322.371 303.222 320.905 303.332 319.447C303.44 317.977 303.65 316.508 303.881 315.186C303.827 315.363 303.827 315.552 303.881 315.729C304.266 313.318 305.22 311.034 306.662 309.064C307.94 307.257 309.242 306.125 309.546 305.636L310.036 305.547C310.344 305.161 310.628 304.813 310.897 304.519C311.167 304.225 311.412 303.941 311.652 303.706C311.891 303.471 312.141 303.246 312.342 303.035C312.543 302.824 312.797 302.643 313.032 302.447C314.311 301.454 315.684 300.588 317.131 299.861C317.101 299.935 316.675 300.273 317.351 299.959C317.845 299.524 318.37 299.126 318.923 298.769C319.918 298.151 320.963 297.617 322.047 297.173L321.964 297.305C323.477 296.604 325.009 295.963 326.562 295.346C326.699 295.772 328.638 294.895 330.797 294.058C332.956 293.22 335.331 292.398 336.183 292.667C337.035 292.138 340.502 291.11 342.025 290.595C341.996 290.546 342.211 290.434 342.73 290.252C342.857 290.287 342.559 290.414 342.025 290.595C342.025 290.63 342.152 290.644 342.422 290.62C342.963 290.342 343.537 290.133 344.131 289.998L343.749 288.685L343.416 287.539L343.024 286.418C342.759 285.673 342.5 284.948 342.245 284.199C341.991 283.45 341.653 282.769 341.359 282.074C341.065 281.378 340.781 280.697 340.438 280.066C340.683 280.629 340.889 281.207 341.085 281.785C340.807 281.105 340.49 280.443 340.135 279.801C339.645 278.822 339.097 277.676 338.735 276.863C338.641 276.701 338.588 276.588 338.627 276.598C338.666 276.608 338.705 276.775 338.735 276.863C338.979 277.224 339.198 277.602 339.391 277.994C339.513 277.876 339.391 277.161 338.749 275.922L338.299 275.565L338.186 274.987C337.128 273.16 338.24 275.668 337.153 273.865C336.999 273.216 336.738 272.597 336.379 272.034C335.948 271.28 335.351 270.413 334.749 269.516L322.507 267.136C305.369 263.816 288.657 274.409 285.185 290.801C282.164 305.068 290.126 318.986 303.499 324.579Z" fill="#57B6F0"/>
<path d="M306.016 324.367C306.089 324.7 306.148 324.96 306.197 325.161C306.246 325.361 306.285 325.499 306.314 325.601L306.598 325.694C306.456 325.231 306.26 324.786 306.016 324.367Z" fill="#57B6F0"/>
<path d="M397.526 404.32L397.82 405.349L398.197 405.422C398.476 405.476 398.755 405.515 399.034 405.564L398.966 405.388C398.765 403.747 399.122 405.016 399.308 405.506C399.308 405.506 399.348 405.505 399.343 405.378L399.392 405.623C407.835 406.967 416.468 404.947 423.439 399.996C423.128 397.588 422.507 395.231 421.593 392.983C420.584 390.416 419.448 388.291 419.189 387.536C419.666 388.547 420.202 389.528 420.795 390.475C420.55 389.829 420.271 389.192 420.011 388.55C420.78 390.059 421.093 391.376 422.082 393.644C422.151 393.154 423.062 394.775 422.709 392.865C422.523 392.287 422.352 391.792 422.185 391.371C422.019 390.95 421.843 390.607 421.696 390.304C421.412 389.776 421.084 389.273 420.716 388.8C419.671 387.405 418.711 385.948 417.842 384.436C417.489 384.025 418.821 385.244 417.054 382.732C414.742 379.632 412.573 377.761 412.196 378.065C413.303 379.23 415.389 381.689 415.359 382.306C414.346 381.062 412.642 378.878 412.363 378.931C412.03 378.148 412.51 378.731 412.94 379.265C413.371 379.798 413.744 380.308 413.249 379.323C412.808 378.759 412.316 378.236 411.78 377.761C412.377 378.251 411.393 376.782 411.261 376.463C408.999 373.603 407.78 371.879 405.219 368.911C405.277 369.038 405.297 369.078 405.17 368.857L405.219 368.911C405.126 368.715 404.94 368.309 405.091 368.324C403.735 366.962 401.434 365.385 401.722 366.071C400.2 364.43 400.253 364.21 398.877 362.887C400.675 365.375 398.52 362.397 398.001 362.441C396.635 361.051 397.678 361.81 397.134 361.095C396.88 360.884 396.248 360.409 396.155 360.448C396.35 360.771 396.571 361.078 396.816 361.364C396.219 360.703 396.082 360.473 396.155 360.448C395.558 359.361 398.324 361.599 397.624 360.326C397.134 359.459 394.534 356.129 394.348 355.889C393.462 355.448 392.634 356.609 393.261 357.931C392.992 357.985 392.174 356.418 391.606 355.776C390.176 353.714 388.791 353.224 387.488 351.613L388.717 352.617C387.877 351.634 386.955 350.725 385.96 349.899C386.004 349.757 387.532 350.589 387.003 349.791C384.521 347.034 381.617 344.894 381.485 345.335C382.862 346.657 384.246 347.963 385.637 349.253C385.524 349.63 382.655 346.5 382.518 346.936C381.369 345.614 380.226 344.28 379.09 342.935C379.536 343.424 380.961 344.894 380.559 344.164C379.046 342.489 379.825 343.253 378.944 342.019C381.336 343.946 383.843 345.727 386.45 347.352L384.462 345.516L384.154 344.889C382.192 343.133 380.015 341.634 377.675 340.427C376.417 338.831 377.416 338.914 377.837 339.188C376.992 338.149 376.012 337.229 374.923 336.45C373.826 335.663 372.868 334.698 372.088 333.595L372.911 334.883C372.25 334.188 370.252 331.347 370.379 331.714C370.071 331.009 369.978 330.221 370.482 330.647C369.625 329.863 368.793 329.06 367.951 328.252C368.313 328.644 368.577 328.032 368.788 328.154C367.985 326.974 366.854 326.523 367.319 327.326L366.227 325.166C365.925 324.563 365.665 323.939 365.448 323.3C364.959 322.62 364.959 323.682 365.253 324.231C364.457 323.206 363.77 322.101 363.201 320.935L363.137 320.857V320.822C362.729 319.893 362.17 319.037 361.482 318.29C362.07 318.741 362.677 319.162 363.284 319.583L363.137 320.822C363.155 320.861 363.175 320.898 363.196 320.935C365.008 323.477 364.719 321.003 365.39 321.283C363.759 319.71 362.202 318.041 360.684 316.297C360.969 316.483 361.295 316.594 361.634 316.62C361.291 316.483 360.214 314.725 359.186 312.492C358.931 311.928 358.662 311.346 358.417 310.748L357.717 308.956C357.301 307.765 356.924 306.634 356.689 305.718L356.855 306.262C357.046 306.605 356.943 305.983 356.723 305.136C356.525 304.262 356.283 303.399 355.998 302.55C356.158 302.882 356.27 303.234 356.331 303.598C356.273 303.063 356.165 302.535 356.008 302.021C355.868 301.607 355.704 301.202 355.518 300.806C355.094 299.907 354.891 298.92 354.926 297.926C355.21 300.228 355.523 300.654 355.69 300.498C355.122 298.646 354.852 294.283 354.368 295.252C354.368 294.028 354.186 292.941 354.49 293.019C354.363 292.216 354.24 291.408 354.133 290.6C353.971 290.6 353.814 290.6 353.643 290.6L354.098 290.458C354.098 290.394 354.098 290.325 354.074 290.262C351.204 290.893 351.283 291.52 349.334 291.3C350.876 290.952 352.664 290.291 351.709 290.321L349.539 291.06C349.255 291.031 350.788 290.678 349.745 290.82C349.133 291.055 347.884 291.565 347.346 291.829L347.219 291.981C346.964 292.04 347.072 291.981 347.346 291.829V291.8L347.003 291.893C347.003 291.951 347.033 292.015 347.042 292.079C347.184 292.691 347.326 293.293 347.478 293.881L347.713 294.748C347.777 295.037 347.845 295.321 347.909 295.605C347.978 297.074 347.419 295.336 347.708 297.256C347.747 295.914 348.051 297.29 348.355 298.793C348.658 300.297 348.805 301.947 348.898 301.09C348.648 303.015 349.349 308.059 348.526 307.256C348.59 308.407 348.658 308.882 348.766 308.985C348.874 309.088 348.976 308.818 349.001 308.495C349.079 311.184 349.001 313.349 349.138 315.572C349.001 316.302 348.834 319.392 348.193 322.556C347.889 324.078 347.47 325.574 346.939 327.032C346.608 328.034 346.14 328.985 345.549 329.858C346.038 329.178 346.092 329.222 345.936 329.638C345.857 329.844 345.735 330.128 345.598 330.48C345.461 330.833 345.284 331.195 345.142 331.572C345.456 331.19 345.794 330.813 346.083 330.412C345.843 330.97 345.534 331.504 345.265 332.052C344.995 332.601 344.663 333.12 344.33 333.634C343.953 334.286 343.84 334.452 343.801 334.433C343.433 334.922 343.727 334.212 342.733 335.412C342.342 335.902 342.043 336.269 341.813 336.573C341.583 336.876 341.382 337.102 341.23 337.312C340.931 337.743 340.706 338.047 340.251 338.6L340.564 338.37C340.163 338.786 339.707 339.144 339.276 339.531C339.017 339.717 339.105 339.629 339.32 339.418C339.536 339.208 339.854 338.86 340.109 338.576C340.363 338.292 340.52 338.032 340.437 338.037C340.006 338.289 339.599 338.581 339.222 338.909C338.965 339.309 338.648 339.667 338.282 339.972C337.987 340.232 337.677 340.474 337.352 340.696C337.068 340.889 336.758 341.041 336.431 341.147C336.931 340.934 337.38 340.617 337.749 340.217C337.793 340.104 337.533 340.172 337.185 340.339C336.774 340.594 336.343 340.829 335.917 341.054C335.491 341.279 335.05 341.49 334.595 341.656C334.948 341.656 335.3 341.656 335.658 341.656C333.718 342.592 331.633 343.19 329.493 343.424C327.334 343.655 325.153 343.556 323.025 343.131C318.71 342.249 314.7 340.261 311.385 337.361C311.469 337.312 311.219 337.023 310.822 336.627C310.426 336.23 309.897 335.672 309.422 335.113C308.442 333.997 307.713 332.821 308.168 332.988L308.325 333.287C309.667 334.927 308.232 332.572 307.346 331.132C307.732 331.945 307.204 331.332 306.856 330.975C306.68 330.789 306.552 330.671 306.592 330.852C306.641 331.025 306.713 331.19 306.807 331.342C306.993 331.717 307.203 332.08 307.434 332.429C306.715 331.517 306.075 330.545 305.519 329.525C304.873 329.035 304.182 327.694 303.752 325.896C288.934 325.828 275.645 335.75 272.59 350.163C269.118 366.555 280.194 382.536 297.332 385.857L397.629 405.295C397.6 404.967 397.555 404.595 397.526 404.32ZM419.223 388.418C419.266 388.753 419.348 389.082 419.468 389.397C419.277 389.109 419.076 388.825 418.87 388.545L419.223 388.418ZM415.506 381.415C415.957 382.002 416.388 382.605 416.814 383.212C416.921 383.55 416.437 382.884 416.084 382.477C415.594 381.816 415.32 381.292 415.506 381.415ZM416.197 383.898C417.205 385.641 415.962 383.829 415.751 383.706C414.204 381.405 415.991 383.765 416.197 383.898ZM407.084 375.082L407.011 375.317L406.09 376.679C406.418 376.164 406.732 375.616 407.084 375.097V375.082ZM401.448 384.936L400.851 386.008C400.777 386.008 400.963 385.617 401.184 385.156C401.404 384.696 401.703 384.177 401.781 383.932L401.448 384.936ZM401.399 383.839C401.649 383.285 401.958 382.693 402.266 382.076C402.574 381.459 402.937 380.842 403.245 380.22C403.554 379.598 403.975 379.034 404.318 378.486L404.068 379.465L403.794 379.7C403.105 380.671 402.514 381.708 402.031 382.796C401.752 383.325 401.541 383.853 401.311 384.265C401.132 384.614 400.915 384.942 400.665 385.244L401.399 383.839ZM397.688 395.529L397.712 394.623C397.712 395.113 397.712 395.637 397.712 396.146C397.712 396.656 397.741 397.155 397.79 397.655V398.238C397.761 397.64 397.702 397.038 397.707 396.435L397.688 395.529ZM398.437 403.537C398.598 405.697 398.035 403.537 397.771 402.469C398.207 404.07 398.153 402.817 398.437 403.551V403.537ZM398.109 389.873L398.221 389.618C398.073 390.166 397.954 390.722 397.864 391.283C397.864 391.249 397.913 390.896 397.79 391.072C397.932 390.475 398.05 390.127 398.109 389.873C397.756 390.666 398.432 388.643 398.109 389.887V389.873ZM398.197 391.009C398.246 390.96 398.256 391.107 398.197 391.459C398.138 391.812 398.045 392.375 397.937 393.169C398.079 391.489 397.815 392.679 397.565 393.585C397.648 392.706 397.856 391.844 398.182 391.024L398.197 391.009ZM376.437 339.501C375.046 337.542 375.947 339.438 374.36 337.312C374.204 336.489 374.659 337.204 375.8 338.321C375.903 338.409 376.064 338.556 376.392 338.885C376.177 338.689 375.981 338.502 375.8 338.321C375.296 337.934 376.941 339.903 376.437 339.501ZM395.587 358.602L395.2 358.195L395.969 358.132L395.587 358.602ZM397.134 395.754C396.904 396.734 396.772 397.087 396.836 395.329C396.836 395.897 397.046 394.388 397.188 394.05C397.169 394.608 397.129 395.172 397.134 395.74V395.754ZM397.335 397.371C397.254 397.086 397.254 396.784 397.335 396.499C397.335 395.882 397.335 395.26 397.384 394.643C397.384 395.436 397.462 395.808 397.355 395.622C397.56 396.225 397.423 396.235 397.355 396.474C397.32 396.773 397.32 397.067 397.335 397.356V397.371Z" fill="#57B6F0"/>
<path d="M355.916 279.356C355.916 279.185 355.916 278.964 355.951 278.734C355.985 278.504 355.926 278.151 355.911 277.828C355.74 278.191 355.569 278.573 355.422 278.964C355.456 279.866 355.579 280.502 355.916 279.356Z" fill="#57B6F0"/>
<path d="M343.516 334.533C343.648 334.391 343.77 334.24 343.893 334.093C344.02 333.745 344.157 333.402 343.516 334.533Z" fill="#57B6F0"/>
<path d="M346.942 303.656C346.888 303.225 346.849 302.857 346.819 302.534C346.76 301.888 346.736 301.422 346.706 300.967C346.677 300.511 346.648 300.07 346.579 299.497C346.511 298.924 346.33 298.175 346.09 297.132L346.031 297.573C345.864 296.892 345.708 296.187 345.541 295.462C345.375 294.737 345.164 294.017 344.983 293.273C344.914 293.018 344.856 292.783 344.792 292.504L343.666 292.808C343.578 292.832 343.48 292.861 343.357 292.886L343.666 292.808C344.155 292.661 344.155 292.558 343.509 292.705L340.953 293.576C340.767 293.65 340.512 293.738 340.111 293.865L340.953 293.576C341.722 293.273 340.88 293.371 339.695 293.625C336.326 294.434 337.246 295.178 334.583 295.584C334.96 295.477 335.009 295.413 335.386 295.31L334.019 295.545C334.019 295.971 332.061 296.579 330.176 297.255C328.29 297.93 326.42 298.67 326.435 299.101C324.535 299.522 326.219 298.944 328.432 297.735C327.757 297.891 327.086 298.072 326.415 298.224C327.184 297.891 327.884 297.695 328.687 297.318C326.496 297.876 324.424 298.827 322.571 300.124C321.592 300.467 323.061 299.214 320.456 300.614C316.876 302.686 321.435 300.761 319.276 302.005C318.698 302.181 318.106 302.343 317.533 302.544C315.026 304.444 313.057 305.649 311.201 307.476C310.975 307.728 310.777 308.004 310.609 308.298L310.673 308.235C310.642 308.289 310.614 308.344 310.589 308.401C310.614 308.578 311.128 308.156 310.183 309.307L310.589 308.401C310.58 308.368 310.58 308.332 310.589 308.298C309.643 309.29 308.882 310.443 308.342 311.702C307.798 312.907 307.465 314.073 307.103 314.998C307.152 314.509 306.535 316.022 306.408 316.252C306.234 317.465 306.18 318.692 306.246 319.915C306.207 318.294 305.986 318.334 305.791 318.01C305.752 318.478 305.744 318.947 305.766 319.416C305.796 319.798 305.835 320.136 305.84 320.532C305.766 320.043 305.688 319.553 305.57 320.175C305.688 321.484 305.932 322.778 306.3 324.039C306.3 323.809 306.246 323.363 306.197 322.996C306.241 323.231 306.3 323.54 306.359 323.887C306.417 324.235 306.535 324.612 306.628 325.009C306.701 325.264 306.77 325.523 306.843 325.783C307.823 326.072 308.846 326.321 309.879 326.522C308.9 326.329 307.921 326.186 306.941 326.091L306.971 326.194C307.093 326.581 307.176 326.963 307.265 327.301C307.123 327.222 306.892 326.811 306.775 326.713C306.754 326.493 306.72 326.273 306.672 326.057L306.231 326.028C306.231 326.106 306.231 326.209 306.27 326.366C306.883 328.227 307.573 328.78 307.534 328.246C307.739 328.736 307.896 329.162 308.082 329.514C308.236 329.852 308.411 330.179 308.606 330.494C308.796 330.819 309.009 331.129 309.243 331.424C309.53 331.797 309.837 332.154 310.163 332.492L309.674 332.35C309.889 332.615 310.105 332.879 310.34 333.124C310.575 333.369 310.795 333.614 311.045 333.864C310.805 333.707 310.555 333.54 310.349 333.374C310.144 333.207 309.889 333.036 309.674 332.85C310.009 333.373 310.408 333.852 310.863 334.275C310.996 334.412 311.167 334.508 311.353 334.549C311.568 334.602 311.767 334.708 311.931 334.858L312.514 335.347C312.763 335.573 313.072 335.862 313.493 336.214L313.326 336.444C313.863 336.812 314.439 337.118 315.045 337.356C315.555 337.561 316.016 337.87 316.402 338.262C317.87 338.903 314.232 336.552 317.528 338.355C318.391 338.981 319.33 339.495 320.324 339.882C320.921 340.01 320.725 339.858 320.294 339.652C319.863 339.447 319.217 339.163 318.86 338.996C320.172 339.515 321.039 339.829 321.67 340.079C322.302 340.328 322.684 340.524 323.061 340.72C323.486 340.943 323.939 341.107 324.407 341.21C325.304 341.381 326.221 341.42 327.13 341.327C326.249 341.215 326.64 341.082 326.684 340.97C326.728 340.857 326.523 340.843 324.5 340.632C325.48 340.686 326.415 340.808 327.385 340.882C328.375 340.976 329.375 340.867 330.322 340.563C329.916 340.759 329.495 340.955 329.064 341.126C329.434 341.079 329.799 341.002 330.156 340.896C330.494 340.798 330.783 340.681 330.974 340.622L330.871 340.931C332.061 340.411 333.172 340.079 334.152 339.692C335.131 339.305 335.949 338.844 336.385 338.154C336.086 338.644 336.487 338.399 337.05 337.938C337.613 337.478 338.314 336.787 338.745 336.513C337.914 337.485 336.92 338.304 335.807 338.932C334.715 339.603 333.745 340 333.701 340.269C334.681 340.039 335.366 339.403 336.257 339.045C336.747 338.648 337.031 338.443 336.414 338.972L336.257 339.045L335.356 339.711C335.128 339.859 334.91 340.022 334.705 340.201C335.998 339.712 337.175 338.959 338.162 337.992C338.884 337.239 339.559 336.442 340.184 335.607C339.43 336.504 338.588 337.324 337.672 338.056C337.623 337.537 338.862 337.008 339.298 336.053C340.703 334.995 341.257 333.658 342.128 332.556C341.918 332.874 341.942 332.918 341.736 333.237C342.804 331.665 343.475 330.626 344.077 329.862L344.826 328.809C345.037 328.489 345.214 328.147 345.355 327.791C345.982 326.365 346.471 323.466 346.001 324.441C346.094 323.814 345.82 325.092 345.428 326.199C345.037 327.306 344.576 328.246 344.694 327.115C345.033 326.64 345.297 326.117 345.478 325.562C345.67 324.92 345.82 324.265 345.928 323.603C346.192 322.134 346.418 320.376 346.907 317.981C346.907 320.141 347.431 316.766 347.397 318.701C347.566 317.54 347.551 316.36 347.353 315.204C347.446 314.974 347.529 314.744 347.607 314.513C347.545 313.804 347.424 313.101 347.245 312.412C347.189 312.115 347.151 311.814 347.133 311.511C347.133 311.271 347.098 310.972 347.074 310.586C347.049 310.199 347 309.738 346.951 309.16C347.162 310.708 347.221 307.294 347.407 308.47C347.359 307.305 347.221 306.146 346.995 305.002L347.039 305.169C347.015 304.586 346.976 304.087 346.942 303.656ZM321.479 301.177C321.156 300.918 321.91 300.854 323.095 300.36C322.576 300.624 322.013 300.937 321.504 301.177H321.479ZM339.009 294.463L338.593 294.228L339.386 294.37L339.009 294.463Z" fill="#57B6F0"/>
<path d="M423.068 392.785L423.107 392.843C422.789 391.903 422.662 391.438 423.068 392.785Z" fill="#57B6F0"/>
<path d="M355.475 294.408C355.269 292.939 355.078 291.68 354.902 290.539L354.305 290.598C354.496 292.067 354.721 293.306 354.574 294.163C354.946 294.193 355.049 293.204 355.475 294.408Z" fill="#57B6F0"/>
<path d="M357.268 276.976C357.547 276.021 357.626 275.776 357.533 275.801C357.354 275.98 357.198 276.181 357.068 276.398C356.976 277.628 356.714 278.84 356.289 279.998C356.435 280.098 356.559 280.228 356.652 280.379C356.744 280.53 356.804 280.699 356.828 280.875C356.951 281.883 356.961 282.901 356.857 283.911C356.813 283.421 356.857 282.623 356.72 282.932C356.628 283.375 356.613 283.83 356.676 284.279C356.563 284.597 356.539 283.544 356.358 283.896C356.48 284.759 356.526 285.631 356.495 286.502C356.947 286.318 357.413 286.174 357.89 286.071C359.766 285.581 358.684 286.198 359.256 286.238C360.627 285.748 360.446 285.606 360.402 285.464C360.358 285.322 360.461 285.214 362.322 284.749C361.915 284.935 361.147 285.238 361.465 285.18C362.17 284.974 363.223 284.896 364.261 284.729C365.196 284.633 366.098 284.328 366.9 283.838C366.601 283.955 366.283 284.048 365.979 284.151C367.111 283.451 368.516 282.799 369.432 281.947C370.347 281.095 370.754 280.091 370.499 279.827L370.161 279.954C370.46 279.315 370.614 278.617 370.612 277.912C370.611 277.612 370.572 277.314 370.494 277.025C370.45 276.859 370.406 276.692 370.332 276.437L358.581 274.16C358.045 275.05 357.605 275.994 357.268 276.976Z" fill="#57B6F0"/>
<path d="M423.35 286.71L372.337 276.812C372.337 276.866 372.337 276.92 372.337 276.984C372.685 278.554 372.502 280.196 371.818 281.651C371.67 281.971 371.498 282.278 371.304 282.572C371.098 282.875 370.867 283.16 370.614 283.424C370.118 283.943 369.555 284.393 368.939 284.761L368.023 285.393C367.907 285.462 367.804 285.552 367.72 285.657C367.676 285.751 367.916 285.692 368.175 285.618C368.355 285.55 368.542 285.505 368.733 285.486C368.733 285.525 368.518 285.702 367.754 286.113C367.186 286.113 366.672 286.113 364.772 286.862C364.282 287.146 364.121 287.313 363.842 287.504C363.375 287.814 362.874 288.069 362.348 288.263V287.866C360.767 288.42 359.518 288.846 359.41 288.581C358.497 288.987 357.539 289.285 356.556 289.468L356.492 289.492C356.492 289.629 356.492 289.771 356.492 289.918C357.354 289.894 358.793 289.713 359.126 289.688C358.147 289.855 357.28 290.051 356.516 290.217C356.516 290.452 356.556 290.707 356.58 290.952C356.384 289.933 356.335 290.819 356.203 291.201C356.482 291.309 356.433 292.426 356.433 293.361C356.433 294.297 356.433 295.041 356.707 294.39C356.784 296.142 356.958 297.888 357.227 299.62C357.344 300.531 357.56 301.442 357.716 302.348C357.873 303.254 358.142 304.136 358.407 304.983C359.386 308.411 360.59 311.213 360.884 312.442C361.031 312.963 361.255 313.458 361.55 313.911C361.878 314.494 362.285 315.096 362.529 315.596L362.25 315.567C364.072 318.128 363.489 317.663 365.712 320.601C364.694 319.446 364.904 320.048 365.512 321.478C366.084 322.115 366.682 322.732 367.26 323.354L367.23 323.956C367.926 324.822 368.557 325.737 369.12 326.694C369.785 327.285 370.389 327.941 370.922 328.653C371.522 329.431 372.177 330.166 372.881 330.852C373.18 332.052 374.839 333.159 374.996 334.084C375.275 334.334 375.628 334.667 375.975 335.064C375.794 334.505 375.853 334.202 376.416 335.064L376.573 335.245L376.524 334.755C376.627 334.471 377.268 335.798 377.939 336.92C378.184 337.292 378.429 337.64 378.639 337.973L378.879 338.257C378.823 338.207 378.771 338.153 378.722 338.095C379.132 338.704 379.612 339.263 380.152 339.76C382.214 342.797 385.964 345.407 388.266 348.747C387.943 348.283 387.554 347.869 387.11 347.518C389.417 349.967 391.414 352.68 393.035 354.081L393.123 353.792C394.91 355.506 396.281 356.838 397.638 358.303L397.932 358.175C399.841 360.35 404.434 364.61 405.154 366.369C405.81 366.736 407.779 369.425 408.91 370.644L409.008 371.134C410.345 372.833 411.245 373.823 412.112 374.787L411.784 374.298C412.579 375.052 413.258 375.918 413.801 376.869C414.363 377.631 414.885 378.423 415.364 379.24C414.982 379.068 414.516 378.049 413.801 376.869C413.204 376.056 412.656 375.424 412.112 374.797C413.292 376.673 414.56 378.358 415.804 380.004C417.03 381.59 418.174 383.237 419.232 384.94L419.193 385.009C419.907 386.111 420.603 387.232 421.249 388.388C420.593 387.555 421.739 389.015 422.194 390.137C422.961 391.568 423.531 393.097 423.888 394.681C424.133 395.504 424.378 396.322 424.579 397.165C424.163 395.788 424.06 395.876 424.089 396.307C424.119 396.738 424.187 397.547 424.089 397.654C424.285 398.144 424.427 398.634 424.579 399.124C424.657 399.065 424.731 399.001 424.804 398.937C424.515 397.669 424.696 397.992 424.922 398.614L424.98 398.795C430.319 394.494 434.018 388.489 435.459 381.786C438.931 365.399 427.855 349.418 410.717 346.098C427.855 349.418 444.562 338.825 448.038 322.433C451.554 306.012 440.488 290.036 423.35 286.71ZM361.291 288.9L359.939 289.091C360.413 288.92 360.907 288.813 361.408 288.772L361.291 288.9ZM416.255 365.791C416.186 365.899 416.553 365.933 415.927 366.378C415.99 366.403 415.256 366.609 416.255 365.786V365.791Z" fill="#57B6F0"/>
<path d="M369.165 326.711C368.865 326.293 369.008 326.549 368.973 326.613C369.042 326.635 369.106 326.668 369.165 326.711Z" fill="#57B6F0"/>
<path d="M399.12 405.579L399.36 405.618L399.311 405.505C399.243 405.564 399.017 404.844 399.12 405.579Z" fill="#57B6F0"/>
<path d="M424.419 399.25L424.532 399.162C424.439 398.975 424.341 398.691 424.419 399.25Z" fill="#57B6F0"/>
<path d="M354.829 290.087C354.829 290.008 354.829 289.93 354.794 289.852C354.617 289.927 354.452 290.027 354.305 290.15C354.482 290.157 354.658 290.136 354.829 290.087Z" fill="#57B6F0"/>
<path d="M376.696 335.743C377.406 336.497 378.116 337.286 378.567 337.815C378.362 337.524 378.172 337.224 377.999 336.914C377.581 336.32 377.124 335.754 376.633 335.219L376.696 335.743Z" fill="#57B6F0"/>
<path d="M282.623 520.354L325.601 532.049L325.302 533.283C323.236 541.773 321.372 549.935 319.71 557.771C317.751 566.979 316.056 575.768 314.623 584.139C313.085 592.955 311.822 601.369 310.784 609.323C287.358 602.734 263.34 598.469 239.078 596.589L240.356 592.117L249.17 561.263L253.983 544.391L254.835 541.394L255.692 538.343C260.04 532.578 263.463 528.376 266.102 525.345C268.108 523.043 270.722 521.353 273.645 520.47C276.567 519.588 279.679 519.547 282.623 520.354Z" fill="#2E6BCE"/>
<path d="M330.505 511.894L325.609 532.057L325.31 533.291C323.244 541.78 321.38 549.942 319.718 557.779C317.76 566.986 316.064 575.775 314.631 584.147C314.366 585.665 314.11 587.17 313.862 588.662C291.319 582.347 268.227 578.183 244.898 576.227L249.163 561.28L253.977 544.408L254.829 541.411L255.691 538.34L261.566 517.771L263.035 512.711C265.596 509.44 267.761 506.834 269.553 504.773C271.559 502.471 274.173 500.782 277.095 499.898C280.017 499.015 283.129 498.973 286.074 499.777L330.505 511.894Z" fill="#2E6BCE"/>
<path d="M367.568 527.443L287.514 505.653C284.568 504.851 281.456 504.894 278.535 505.779C275.613 506.663 272.999 508.353 270.993 510.654C267.81 514.317 263.471 519.675 257.772 527.443C242.592 548.076 214.089 565.065 212.875 580.238L233.441 581.218C285.485 583.759 336.411 597.239 382.899 620.78C390.904 622.691 399.235 622.79 407.283 621.069C415.331 619.348 422.893 615.851 429.417 610.833C438.329 603.977 444.938 594.566 448.362 583.855C451.787 573.144 451.863 561.643 448.582 550.887L402.397 399.48C400.005 391.635 394.662 385.025 387.494 381.041C380.326 377.057 371.893 376.01 363.969 378.122C356.004 380.242 349.18 385.385 344.947 392.458C340.713 399.531 339.404 407.976 341.298 416L367.568 527.443Z" fill="#4A86F7"/>
<path d="M418.303 301.635C423.586 297.556 430.259 295.715 436.885 296.507C443.512 297.299 449.562 300.662 453.735 305.871L495.136 357.594L518.531 324.6C518.531 324.6 516.142 304.422 527.086 288.911C527.605 288.185 528.343 287.644 529.191 287.368C530.039 287.091 530.954 287.093 531.801 287.373C532.836 287.712 533.699 288.438 534.209 289.4C534.718 290.362 534.835 291.484 534.533 292.53C533.216 297.164 531.566 305.489 533.138 314.741L559.663 272.495C560.137 271.733 560.868 271.165 561.724 270.896C562.58 270.626 563.504 270.672 564.329 271.026C564.803 271.232 565.229 271.533 565.58 271.911C565.932 272.289 566.202 272.736 566.373 273.223C566.544 273.711 566.612 274.228 566.574 274.743C566.536 275.259 566.392 275.76 566.151 276.217L553.087 300.915L569.99 273.572C570.469 272.795 571.224 272.227 572.103 271.982C572.983 271.737 573.922 271.833 574.734 272.25C575.168 272.472 575.553 272.78 575.866 273.154C576.178 273.528 576.412 273.961 576.554 274.428C576.695 274.895 576.742 275.385 576.69 275.87C576.638 276.355 576.489 276.824 576.252 277.25L561.803 303.261L575.758 280.169C576.234 279.381 577 278.811 577.891 278.581C578.782 278.35 579.728 278.477 580.527 278.935C581.302 279.382 581.878 280.106 582.138 280.962C582.398 281.818 582.323 282.741 581.928 283.544L569.774 308.212L582.437 286.634C582.835 285.955 583.478 285.454 584.233 285.233C584.988 285.012 585.799 285.087 586.501 285.444C587.106 285.752 587.592 286.251 587.885 286.864C588.178 287.476 588.261 288.168 588.122 288.833C586.653 295.738 581.462 316.92 568.648 337.627C559.898 351.756 540.644 385.828 525.416 413.049C515.182 431.327 489.671 433.359 476.68 416.933L413.901 337.593C411.811 334.95 410.265 331.92 409.355 328.676C408.444 325.432 408.186 322.039 408.595 318.694C409.004 315.35 410.073 312.12 411.74 309.192C413.406 306.263 415.637 303.695 418.303 301.635Z" fill="#2448B1"/>
<path d="M367.572 527.445L383.594 533.748L363.719 511.121L367.572 527.445Z" fill="#2E6BCE"/>
<path d="M495.156 357.594L503.642 366.415L508.857 338.273L495.156 357.594Z" fill="#113693"/>
</svg>
