<svg width="48" height="48" viewBox="0 0 48 48" fill="none" xmlns="http://www.w3.org/2000/svg">
<path opacity="0.5" d="M42.6 24.4609H35.64C33.68 24.4609 31.94 25.5409 31.06 27.3009L29.38 30.6209C28.98 31.4209 28.18 31.9209 27.3 31.9209H20.74C20.12 31.9209 19.24 31.7809 18.66 30.6209L16.98 27.3209C16.1 25.5809 14.34 24.4809 12.4 24.4809H5.4C4.62 24.4809 4 25.1009 4 25.8809V32.4009C4 39.6609 8.36 44.0009 15.64 44.0009H32.4C39.26 44.0009 43.48 40.2409 44 33.5609V25.8609C44 25.1009 43.38 24.4609 42.6 24.4609Z" fill="#BBDCAF"/>
<path opacity="0.5" d="M25.4992 7.61656L26.9392 9.05656C27.2392 9.35656 27.6192 9.49656 27.9992 9.49656C28.3792 9.49656 28.7592 9.35656 29.0592 9.05656C29.6392 8.47656 29.6392 7.51656 29.0592 6.93656L25.0592 2.93656C25.0392 2.91656 25.0192 2.91656 25.0192 2.89656C24.8992 2.77656 24.7392 2.67656 24.5792 2.59656C24.5592 2.59656 24.5592 2.59656 24.5392 2.57656C24.3792 2.51656 24.2192 2.49656 24.0592 2.47656C23.9992 2.47656 23.9592 2.47656 23.8992 2.47656C23.7792 2.47656 23.6592 2.51656 23.5392 2.55656C23.4792 2.57656 23.4392 2.59656 23.3992 2.61656C23.2392 2.69656 23.0792 2.77656 22.9592 2.91656L18.9592 6.91656C18.3792 7.49656 18.3792 8.45656 18.9592 9.03656C19.5392 9.61656 20.4992 9.61656 21.0792 9.03656L22.5192 7.59656V9.99656H25.5192V7.61656H25.4992Z" fill="#BBDCAF"/>
<path d="M44 21.62V21.7C43.56 21.54 43.08 21.46 42.6 21.46H35.64C32.54 21.46 29.76 23.18 28.38 25.94L26.88 28.9H21.16L19.66 25.96C18.28 23.18 15.5 21.46 12.4 21.46H5.4C4.92 21.46 4.44 21.54 4 21.7V21.62C4 14.34 8.34 10 15.62 10H22.5V18C22.5 18.82 23.18 19.5 24 19.5C24.82 19.5 25.5 18.82 25.5 18V10H32.38C39.66 10 44 14.34 44 21.62Z" fill="#83BF6E"/>
</svg>
