<svg width="48" height="48" viewBox="0 0 48 48" fill="none" xmlns="http://www.w3.org/2000/svg">
<path d="M43.3402 13.8988C42.0602 9.55883 38.4402 5.93883 34.1002 4.65883C30.8002 3.69883 28.5202 3.77883 26.9402 4.95883C25.0402 6.37883 24.8202 8.93883 24.8202 10.7588V15.7388C24.8202 20.6588 27.0602 23.1588 31.4602 23.1588H37.2002C39.0002 23.1588 41.5802 22.9388 43.0002 21.0388C44.2202 19.4788 44.3202 17.1988 43.3402 13.8988Z" fill="#E0704A"/>
<path d="M37.8194 26.7223C37.2994 26.1223 36.5394 25.7823 35.7594 25.7823H28.5994C25.0794 25.7823 22.2194 22.9223 22.2194 19.4023V12.2423C22.2194 11.4623 21.8794 10.7023 21.2794 10.1823C20.6994 9.66225 19.8994 9.42225 19.1394 9.52225C14.4394 10.1223 10.1194 12.7023 7.2994 16.5823C4.4594 20.4823 3.4194 25.2423 4.3194 30.0023C5.6194 36.8823 11.1194 42.3823 18.0194 43.6823C19.1194 43.9023 20.2194 44.0023 21.3194 44.0023C24.9394 44.0023 28.4394 42.8823 31.4194 40.7023C35.2994 37.8823 37.8794 33.5623 38.4794 28.8623C38.5794 28.0823 38.3394 27.3023 37.8194 26.7223Z" fill="#EFB7A4"/>
</svg>
