<svg width="48" height="48" viewBox="0 0 48 48" fill="none" xmlns="http://www.w3.org/2000/svg">
<path d="M35.0591 15.54C34.9191 15.52 34.7791 15.52 34.6391 15.54C31.5391 15.44 29.0791 12.9 29.0791 9.78C29.0791 6.6 31.6591 4 34.8591 4C38.0391 4 40.6391 6.58 40.6391 9.78C40.6191 12.9 38.1591 15.44 35.0591 15.54Z" fill="#ABDAF7"/>
<path d="M41.5796 29.4008C39.3396 30.9008 36.1996 31.4608 33.2996 31.0808C34.0596 29.4408 34.4596 27.6208 34.4796 25.7008C34.4796 23.7008 34.0396 21.8008 33.1996 20.1408C36.1596 19.7408 39.2996 20.3008 41.5596 21.8008C44.7196 23.8808 44.7196 27.3008 41.5796 29.4008Z" fill="#ABDAF7"/>
<path d="M12.8801 15.54C13.0201 15.52 13.1601 15.52 13.3001 15.54C16.4001 15.44 18.8601 12.9 18.8601 9.78C18.8601 6.58 16.2801 4 13.0801 4C9.90013 4 7.32013 6.58 7.32013 9.78C7.32013 12.9 9.78013 15.44 12.8801 15.54Z" fill="#ABDAF7"/>
<path d="M13.0991 25.7012C13.0991 27.6412 13.5191 29.4812 14.2791 31.1412C11.4591 31.4412 8.51914 30.8412 6.35914 29.4212C3.19914 27.3212 3.19914 23.9012 6.35914 21.8012C8.49914 20.3612 11.5191 19.7812 14.3591 20.1012C13.5391 21.7812 13.0991 23.6812 13.0991 25.7012Z" fill="#ABDAF7"/>
<path d="M24.2408 31.74C24.0808 31.72 23.9008 31.72 23.7208 31.74C20.0408 31.62 17.1008 28.6 17.1008 24.88C17.1208 21.08 20.1808 18 24.0008 18C27.8008 18 30.8808 21.08 30.8808 24.88C30.8608 28.6 27.9408 31.62 24.2408 31.74Z" fill="#57B6F0"/>
<path d="M17.7408 35.8813C14.7208 37.9013 14.7208 41.2213 17.7408 43.2213C21.1808 45.5213 26.8208 45.5213 30.2608 43.2213C33.2808 41.2013 33.2808 37.8813 30.2608 35.8813C26.8408 33.5812 21.2008 33.5812 17.7408 35.8813Z" fill="#57B6F0"/>
</svg>
