<svg width="72" height="72" viewBox="0 0 72 72" fill="none" xmlns="http://www.w3.org/2000/svg">
<rect width="72" height="72" rx="12" fill="#FBEDF0"/>
<path d="M35.9987 19.334C31.632 19.334 28.082 22.884 28.082 27.2507C28.082 31.534 31.432 35.0007 35.7987 35.1507C35.932 35.134 36.0654 35.134 36.1654 35.1507C36.1987 35.1507 36.2154 35.1507 36.2487 35.1507C36.2654 35.1507 36.2654 35.1507 36.282 35.1507C40.5487 35.0007 43.8987 31.534 43.9154 27.2507C43.9154 22.884 40.3654 19.334 35.9987 19.334Z" fill="#E79CAD"/>
<path d="M44.4656 39.5828C39.8156 36.4828 32.2323 36.4828 27.549 39.5828C25.4323 40.9995 24.2656 42.9161 24.2656 44.9661C24.2656 47.0161 25.4323 48.9161 27.5323 50.3161C29.8656 51.8828 32.9323 52.6661 35.999 52.6661C39.0656 52.6661 42.1323 51.8828 44.4656 50.3161C46.5656 48.8995 47.7323 46.9995 47.7323 44.9328C47.7156 42.8828 46.5656 40.9828 44.4656 39.5828Z" fill="#D34B6A"/>
</svg>
