<svg width="187" height="271" viewBox="0 0 187 271" fill="none" xmlns="http://www.w3.org/2000/svg">
<path d="M38.2751 131.108L18.3473 139.366L34.7731 140.534L30.9326 156.288L15.2067 155.716C11.2937 155.573 7.57345 153.98 4.76915 151.247C1.96485 148.513 0.276792 144.835 0.033087 140.926C0.0101815 140.595 0 140.267 0 139.938C0.000444681 137.312 0.65611 134.728 1.90758 132.419C3.15905 130.11 4.96677 128.15 7.16688 126.717L43.9913 102.715L38.2751 131.108Z" fill="#83BF6E"/>
<path d="M156.004 16.4493C154.378 16.4493 152.788 15.9669 151.436 15.0632C150.084 14.1595 149.03 12.875 148.407 11.3721C147.785 9.86928 147.622 8.21555 147.939 6.62012C148.257 5.02469 149.04 3.55914 150.19 2.4089C151.34 1.25866 152.805 0.475405 154.4 0.158055C155.995 -0.159296 157.649 0.0035172 159.151 0.626023C160.654 1.24853 161.938 2.30279 162.842 3.65533C163.745 5.00787 164.227 6.59795 164.227 8.22464C164.225 10.4051 163.357 12.4955 161.816 14.0374C160.274 15.5792 158.184 16.4466 156.004 16.4493ZM156.004 1.78445C154.73 1.78445 153.485 2.16235 152.425 2.87041C151.366 3.57846 150.54 4.58483 150.053 5.76224C149.565 6.93965 149.438 8.23526 149.687 9.48511C149.935 10.735 150.549 11.8829 151.45 12.7839C152.352 13.6848 153.499 14.2982 154.749 14.5465C155.999 14.7948 157.294 14.6669 158.471 14.1788C159.648 13.6908 160.654 12.8647 161.361 11.8048C162.069 10.745 162.446 9.49901 162.446 8.22464C162.44 6.51873 161.76 4.88438 160.552 3.67931C159.345 2.47425 157.71 1.79665 156.004 1.79464V1.78445Z" fill="white"/>
<path d="M181.845 59.7763C184.691 59.7763 186.999 57.4684 186.999 54.6215C186.999 51.7747 184.691 49.4668 181.845 49.4668C178.999 49.4668 176.691 51.7747 176.691 54.6215C176.691 57.4684 178.999 59.7763 181.845 59.7763Z" fill="#81C06A"/>
<path d="M168.76 188.178C168.824 191.684 167.767 195.12 165.742 197.983C163.717 200.845 160.83 202.986 157.503 204.093C153.011 205.587 147.491 207.445 141.47 209.528C139.194 210.314 136.843 211.131 134.45 211.971C133.721 212.226 132.987 212.481 132.249 212.735C126.848 214.642 121.277 216.655 115.851 218.687C105.355 222.637 95.3913 226.624 88.3034 230.037C64.301 241.586 63.9879 270.611 63.9879 270.611L46.1445 216.912L106.628 194.036L121.73 188.323L111.748 186.582L84.7708 181.87L77.1357 180.536L60.6692 177.663C58.0333 177.177 55.6942 175.674 54.1566 173.478C52.619 171.282 52.0062 168.57 52.4505 165.926C52.8949 163.282 54.3606 160.919 56.5315 159.347C58.7024 157.775 61.4043 157.119 64.0541 157.522L71.2922 158.693L121.946 166.89L124.942 167.373L147.056 170.952L154.946 172.225C155.488 172.313 156.026 172.428 156.557 172.571C159.737 173.42 162.59 175.203 164.747 177.691C167.276 180.606 168.697 184.319 168.76 188.178Z" fill="#F2A84C"/>
<path d="M81.9413 74.885C80.2488 81.5387 75.9829 87.2474 70.0822 90.7552C64.1814 94.263 57.1292 95.2826 50.4768 93.5897C43.8244 91.8969 38.1169 87.6302 34.6098 81.7283C31.1026 75.8264 30.0832 68.7728 31.7757 62.1191L81.9413 74.885Z" fill="#D34B6A"/>
<path d="M63.5831 60.8411C66.3454 58.688 66.8396 54.7028 64.6869 51.94C62.5342 49.1772 58.5498 48.683 55.7875 50.8361C53.0252 52.9892 52.5311 56.9743 54.6838 59.7371C56.8365 62.5 60.8208 62.9942 63.5831 60.8411Z" fill="#F2A84C"/>
<path d="M167.661 102.708L122.805 87.6768L128.936 60.498C129.082 59.8447 129.478 59.2745 130.038 58.908C130.598 58.5416 131.279 58.4079 131.936 58.5354L174.309 66.727C174.655 66.7938 174.985 66.931 175.276 67.1303C175.567 67.3296 175.814 67.5867 176.002 67.8856C176.19 68.1844 176.314 68.5187 176.368 68.8676C176.421 69.2165 176.402 69.5728 176.312 69.914L167.661 102.708Z" fill="white"/>
<path d="M165.898 100.545L125.414 86.9798L130.947 62.4483C131.079 61.8572 131.435 61.3404 131.941 61.0078C132.447 60.6751 133.063 60.5527 133.658 60.6665L171.9 68.0612C172.212 68.1215 172.509 68.2454 172.772 68.4253C173.035 68.6052 173.258 68.8373 173.428 69.107C173.597 69.3768 173.709 69.6784 173.757 69.9934C173.805 70.3083 173.788 70.6298 173.706 70.9378L165.898 100.545Z" fill="#3D7AE2"/>
<path d="M121.945 166.891L89.1315 180.762C86.1794 182.018 82.8986 182.277 79.7858 181.501C76.673 180.725 73.8976 178.956 71.8797 176.462C69.8618 173.968 68.7113 170.884 68.6023 167.677C68.4932 164.47 69.4316 161.315 71.2754 158.689L121.945 166.891Z" fill="#C97C1D"/>
<path d="M156.545 172.58L136.655 205.837C135.502 207.71 134.749 209.801 134.443 211.98C128.368 214.113 122.011 216.399 115.844 218.708L104.173 212.104C103.261 211.589 102.467 210.889 101.84 210.05C101.214 209.21 100.769 208.25 100.533 207.23C100.298 206.209 100.277 205.151 100.472 204.122C100.668 203.093 101.075 202.116 101.668 201.253L106.623 194.044L121.726 188.331L111.744 186.59L124.938 167.387L154.934 172.236C155.476 172.323 156.014 172.438 156.545 172.58Z" fill="#C97C1D"/>
<path d="M145.659 123.997L167.656 102.711L122.8 86.7246L99.553 99.4804C99.1537 99.7 98.8227 100.025 98.5964 100.421C98.3702 100.817 98.2574 101.267 98.2706 101.722C98.2837 102.178 98.4223 102.621 98.671 103.003C98.9197 103.385 99.269 103.691 99.6803 103.887L142.872 124.455C143.328 124.672 143.839 124.744 144.338 124.662C144.836 124.58 145.297 124.348 145.659 123.997Z" fill="white"/>
<path d="M95.8941 139.929C96.7742 133.522 95.9184 126.997 93.4161 121.035C90.9139 115.072 86.857 109.891 81.6691 106.032C76.4812 102.173 70.3527 99.7782 63.9234 99.0973C57.4941 98.4164 50.9999 99.4745 45.1191 102.161C39.2382 104.848 34.1864 109.064 30.4911 114.37C26.7959 119.676 24.5927 125.878 24.1118 132.326C23.6308 138.775 24.8897 145.234 27.757 151.03C30.6242 156.826 34.9947 161.745 40.412 165.275C37.7274 166.54 35.6498 168.812 34.6297 171.6C33.6096 174.387 33.7294 177.464 34.963 180.164C35.5782 181.512 36.4528 182.725 37.537 183.735C38.6211 184.745 39.8935 185.531 41.2815 186.049C42.6695 186.567 44.1459 186.806 45.6264 186.753C47.1069 186.701 48.5625 186.356 49.9101 185.741L105.138 160.51C106.485 159.894 107.699 159.019 108.708 157.935C109.718 156.851 110.504 155.578 111.022 154.19C111.54 152.801 111.779 151.325 111.726 149.844C111.673 148.363 111.329 146.907 110.714 145.56C109.481 142.859 107.234 140.754 104.46 139.7C101.686 138.646 98.6082 138.728 95.8941 139.929Z" fill="#D34B6A"/>
<path d="M166.362 58.4034C166.02 58.4041 165.68 58.3752 165.344 58.3169L129.746 52.1668C128.212 51.9251 126.836 51.0837 125.922 49.8277C125.008 48.5718 124.63 47.004 124.872 45.4695C125.114 43.9349 125.955 42.5593 127.211 41.6451C128.467 40.7309 130.034 40.3531 131.568 40.5948L167.4 45.6859C168.199 45.7992 168.967 46.0768 169.654 46.5011C170.341 46.9255 170.933 47.4873 171.392 48.1515C171.852 48.8157 172.169 49.5677 172.323 50.3603C172.478 51.153 172.467 51.9691 172.292 52.7574L172.057 53.8113C171.771 55.1099 171.05 56.2723 170.015 57.1069C168.98 57.9416 167.691 58.3989 166.362 58.4034ZM130.756 42.3181C129.819 42.3176 128.909 42.6407 128.182 43.2329C127.455 43.8252 126.955 44.6503 126.766 45.5688C126.655 46.1045 126.654 46.6569 126.762 47.1931C126.87 47.7292 127.085 48.2381 127.393 48.6895C127.702 49.1408 128.099 49.5254 128.559 49.8202C129.02 50.115 129.535 50.314 130.074 50.4053L165.667 56.5604C166.699 56.7398 167.76 56.5146 168.63 55.9315C169.501 55.3484 170.113 54.4522 170.34 53.4294L170.574 52.373C170.696 51.8244 170.704 51.2563 170.596 50.7046C170.488 50.1529 170.268 49.6296 169.948 49.1674C169.628 48.7052 169.216 48.3141 168.737 48.019C168.259 47.7239 167.725 47.531 167.168 47.4525L131.339 42.3614C131.146 42.3328 130.951 42.3183 130.756 42.3181Z" fill="#EDEFF1"/>
<path d="M161.232 174.656C157.022 181.104 139.8 206.302 141.467 209.53C139.192 210.316 136.84 211.134 134.448 211.974C133.718 212.228 132.984 212.483 132.246 212.737L147.056 170.965L154.945 172.238C155.488 172.325 156.026 172.441 156.556 172.584C158.215 173.023 159.793 173.722 161.232 174.656Z" fill="#C97C1D"/>
<path d="M48.9655 136.557C48.879 136.46 48.7975 136.359 49.0087 136.748L48.9655 136.557Z" fill="#FADD6F"/>
<path d="M110.715 145.56C109.482 142.86 107.236 140.756 104.462 139.702C101.689 138.648 98.6114 138.729 95.8977 139.929C96.6997 134.07 96.0514 128.104 94.0097 122.554C91.9681 117.004 88.5955 112.04 84.188 108.098C79.7806 104.157 74.4731 101.357 68.7314 99.946C62.9897 98.5348 56.9895 98.5551 51.2574 100.005C51.5755 100.366 51.8809 100.768 52.0642 100.832C52.395 101.364 52.7208 101.893 53.0084 102.448C53.0313 102.362 53.2833 102.56 53.1356 102.301C53.0058 102.115 52.8811 101.914 52.7844 101.792C52.9133 101.953 53.0307 102.123 53.1356 102.301C53.3901 102.68 53.6319 103.014 53.3698 102.456C54.459 104.437 55.3352 106.527 55.9836 108.693C56.6113 110.844 56.8128 113.098 56.5766 115.326C56.5766 115.622 56.6453 115.456 56.6936 115.347C56.4697 116.136 56.7445 116.11 56.7242 116.561L56.3577 117.706C56.3577 118.19 56.49 117.831 56.5333 117.869C56.2915 120.107 55.5153 122.171 55.0063 123.913C54.7059 124.422 54.8739 123.714 54.5583 124.406C54.8663 123.974 54.7008 124.503 54.4692 125.063C54.3496 125.341 54.2147 125.628 54.1537 125.814C54.0926 126 54.062 126.069 54.1817 125.951C53.8839 126.221 53.5556 126.822 53.2349 127.275C53.1166 127.468 52.9756 127.646 52.815 127.805C52.6979 127.912 52.6165 127.929 52.5859 127.805C52.3314 128.171 52.2474 128.347 52.2576 128.405C52.2678 128.464 52.3772 128.405 52.4688 128.319C51.8326 129.167 51.2727 129.805 50.7509 130.516C50.4915 130.729 50.245 130.958 50.0129 131.2C49.6364 131.562 49.3209 131.983 49.0788 132.445C48.8245 132.926 48.6386 133.44 48.5266 133.973C48.496 134.214 48.4527 134.436 48.4222 134.624C48.4128 134.78 48.3898 134.934 48.3535 135.085C48.4349 134.779 48.4578 134.797 48.4756 134.95C48.4756 135.026 48.4756 135.138 48.5036 135.266C48.5316 135.393 48.5647 135.533 48.6054 135.665C48.6334 135.492 48.6513 135.322 48.692 135.156C48.7098 135.357 48.748 135.556 48.7734 135.757C48.7989 135.958 48.8803 136.149 48.9312 136.345C49.0356 136.572 49.0636 136.633 49.0483 136.64C49.0865 136.737 49.0483 136.734 49.0483 136.77C49.0397 136.804 49.0397 136.84 49.0483 136.874C49.063 136.964 49.0941 137.05 49.1399 137.129C49.2493 137.312 49.3308 137.452 49.4097 137.557C49.4806 137.637 49.5563 137.712 49.6362 137.783C49.6998 137.842 49.7609 137.888 49.8245 137.938C49.8882 137.989 49.9747 138.03 50.079 138.096L50.0052 137.994C50.1427 138.114 50.2597 138.249 50.4124 138.359C51.0818 137.849 52.9575 137.045 52.9091 136.729C53.6726 136.503 53.0007 136.785 52.2067 137.406L52.9855 137.119C52.6979 137.287 52.4358 137.391 52.138 137.592C52.9706 137.259 53.744 136.794 54.4285 136.215C54.8179 136.07 54.2733 136.617 55.2811 136.014C56.7114 135.174 54.8739 135.917 55.7341 135.411L56.462 135.248C56.9375 134.924 57.4369 134.636 57.956 134.387L58.3123 134.219C58.4421 134.161 58.5948 134.105 58.7348 134.049C59.0251 133.94 59.3239 133.855 59.6281 133.794C59.7941 133.766 59.9576 133.725 60.1167 133.67H60.0709L60.16 133.636C60.1854 133.601 60.1142 133.581 60.132 133.555C60.1498 133.53 60.1727 133.527 60.2491 133.512C60.3819 133.5 60.5153 133.496 60.6487 133.499C60.4825 133.532 60.3192 133.578 60.16 133.636C60.147 133.649 60.1325 133.659 60.1167 133.667C60.8085 133.634 61.5013 133.703 62.1731 133.871C62.772 134.032 63.3242 134.333 63.7842 134.749C63.5831 134.611 64.1303 135.258 64.1583 135.383C64.5429 135.793 64.853 136.268 65.0745 136.785C65.0999 136.836 65.1229 136.89 65.1509 136.951C65.1279 136.895 65.0999 136.841 65.0745 136.785C64.7971 136.197 64.6825 136.276 64.5349 136.21C64.6851 136.444 64.7615 136.635 64.8505 136.801C64.9369 136.961 65.0027 137.133 65.0465 137.31C64.9523 137.088 64.8582 136.877 64.8785 137.175L65.0312 137.618L65.1228 138.079C65.1515 138.234 65.1677 138.391 65.1712 138.549C65.1712 138.707 65.1941 138.87 65.1712 139.028C65.2128 138.861 65.2359 138.691 65.2399 138.519C65.2399 138.641 65.2399 138.796 65.2221 138.972C65.2043 139.148 65.1763 139.344 65.1305 139.545C65.0439 139.936 64.8814 140.306 64.652 140.634C64.6752 140.511 64.6897 140.386 64.6953 140.26C64.7724 140.156 64.8381 140.044 64.8913 139.927C64.9884 139.672 65.0156 139.396 64.9701 139.127C64.9441 139.326 64.8989 139.521 64.8353 139.71C64.8047 139.804 64.792 139.82 64.7818 139.815C64.7716 139.809 64.7818 139.72 64.624 139.985C64.2906 140.792 64.115 141.146 64.3542 141.003C64.1096 141.325 63.8286 141.617 63.5169 141.874C63.3897 141.991 63.2446 142.088 63.0944 142.218C63.0181 142.276 62.929 142.332 62.8399 142.401C62.74 142.475 62.6354 142.542 62.5269 142.602C62.5696 142.53 62.6079 142.455 62.6414 142.378C62.5014 142.459 62.3564 142.528 62.2138 142.602C62.0713 142.676 61.9135 142.719 61.7634 142.778L62.1044 142.569C62.2139 142.498 62.3157 142.411 62.4175 142.332C61.5827 142.635 61.5012 142.645 61.3994 142.75C61.3259 142.824 61.2303 142.872 61.1271 142.887C61.0077 142.912 60.8871 142.929 60.7657 142.941C60.5592 142.947 60.3524 142.938 60.1473 142.912V142.778C59.9564 142.765 59.791 142.778 59.6383 142.778L59.2387 142.757C59.0082 142.746 58.7854 142.671 58.5948 142.541C57.9331 142.426 59.6357 143.05 58.1239 142.625C57.7284 142.422 57.3194 142.247 56.8998 142.1C56.4442 142.022 57.0805 142.304 57.4342 142.411L57.531 142.439L57.4342 142.411C55.2735 141.803 56.2253 141.563 54.1791 141.138C54.8459 141.441 53.5225 141.212 55.1666 141.706C54.3598 141.543 53.6803 141.052 52.8201 140.942H53.4385C53.1727 140.87 52.9023 140.817 52.6292 140.782L52.7335 140.675C52.2323 140.627 51.7431 140.493 51.2879 140.278L50.9673 140.143C50.8629 140.097 50.7687 140.041 50.672 140C50.5629 139.949 50.4496 139.908 50.3335 139.876C50.1265 139.999 49.8896 140.062 49.6489 140.059C49.3628 140.298 49.0562 140.512 48.7327 140.698L48.127 141.07C47.9614 141.163 47.8024 141.268 47.6511 141.383C47.6689 141.403 47.6103 141.467 47.4627 141.586C47.4118 141.586 47.4933 141.505 47.6511 141.383C47.6511 141.367 47.5976 141.37 47.5085 141.403C47.3689 141.546 47.221 141.682 47.0657 141.808C46.9028 141.955 46.6916 142.078 46.521 142.253L46.2462 142.508C46.1556 142.587 46.0706 142.672 45.9917 142.762L45.7754 143.017C45.7194 143.108 45.671 143.2 45.6303 143.284C45.4496 143.74 45.6303 143.577 45.7779 143.432C45.6133 143.645 45.4923 143.889 45.4216 144.15C45.3798 144.292 45.3509 144.438 45.335 144.585C45.3062 144.728 45.2934 144.874 45.2969 145.02C45.2969 145.163 45.2969 145.3 45.2969 145.428C45.2969 145.555 45.33 145.682 45.3401 145.779C45.3503 145.876 45.3605 145.977 45.3631 146.054C45.3763 146.113 45.3823 146.174 45.3809 146.234C45.4521 146.896 45.2511 146.509 45.1849 146.711C45.3427 147.22 45.419 147.136 45.4878 147.115C45.5565 147.095 45.5514 147.115 45.5845 147.197C45.6598 147.384 45.7211 147.576 45.7677 147.772C45.6939 147.635 45.5692 147.375 45.5896 147.487C45.6099 147.599 45.6405 147.772 45.6837 147.943L45.8059 148.5C45.8697 148.682 45.9445 148.859 46.0299 149.032C46.0502 149.073 46.0731 149.113 46.096 149.152C46.1189 149.19 46.1495 149.218 46.1775 149.248C46.2276 149.305 46.2839 149.357 46.3454 149.401L46.1444 149.09C46.345 149.266 46.5354 149.453 46.7145 149.651C46.9232 149.831 47.1013 150.038 47.3075 150.206C47.707 150.547 48.0226 150.809 48.1753 150.735V150.569C49.6158 151.735 48.8549 150.956 50.3285 152.12H50.2979C50.9902 152.547 51.2676 152.932 51.718 152.972L51.5017 152.792C52.3543 153.336 52.4205 153.4 53.2833 153.978C53.5141 154.088 53.7297 154.227 53.9246 154.393C54.062 154.271 55.9607 155.645 56.3399 155.908C55.6451 155.477 55.925 155.755 56.0854 155.943C56.5692 156.082 57.0081 156.345 57.3579 156.707C57.5615 156.572 57.8033 156.452 58.9053 157.162C58.7169 157.078 58.4395 156.908 58.5235 157.028C58.6609 157.148 58.8186 157.244 58.9893 157.31C59.0733 157.42 58.6991 157.216 58.7806 157.364C59.1756 157.515 59.5474 157.722 59.8851 157.977L60.4578 158.384C60.669 158.535 60.8955 158.667 61.1907 158.863C60.7988 158.662 61.0788 158.919 61.1577 159.072C61.2722 159.003 61.631 159.308 61.8804 159.614C61.9806 159.731 62.0868 159.842 62.1986 159.947C62.2648 160.011 62.2978 160.001 62.2648 159.845C62.7572 160.401 63.1905 161.005 63.5576 161.65C63.9288 162.334 64.2037 163.065 64.3746 163.824C64.5097 164.483 64.5584 165.156 64.5197 165.827C64.4942 166.113 64.4535 166.365 64.4179 166.578C64.3777 166.751 64.3267 166.921 64.2652 167.088C64.1354 167.342 64.0794 168.078 63.9139 168.513L63.8325 168.414C63.7594 168.8 63.6371 169.176 63.4686 169.531C63.282 169.946 63.0747 170.351 62.8476 170.746C63.1275 170.158 62.9137 170.346 62.4531 170.771C62.3763 170.93 62.2914 171.084 62.1986 171.234C62.1133 171.392 62.0181 171.544 61.9135 171.69L61.659 171.703C61.5205 171.879 61.3567 172.033 61.1729 172.161C60.9883 172.303 60.7916 172.429 60.585 172.538C60.5135 172.635 60.4277 172.721 60.3305 172.792C60.1273 172.94 59.9147 173.076 59.6943 173.197C59.4397 173.309 59.2081 173.451 58.9969 173.52C58.8449 173.572 58.6982 173.638 58.5592 173.719C58.2681 173.69 57.9743 173.722 57.6964 173.813C57.4468 173.884 57.1824 173.884 56.9329 173.813C56.7776 173.843 56.5791 173.871 56.3577 173.892C56.5842 173.994 56.6733 174.108 56.2355 174.055H56.1312C56.1846 174.098 56.2406 174.136 56.2966 174.177C56.3602 174.314 55.7316 174.118 55.2099 173.922C55.0266 173.866 54.8612 173.808 54.7009 173.752L54.5456 173.719C54.5772 173.721 54.6087 173.725 54.6398 173.731C54.3539 173.619 54.0583 173.534 53.7566 173.477C53.0374 173.155 52.2977 172.881 51.5424 172.657C51.2879 172.568 51.0207 172.474 50.7637 172.367L50.5371 172.533C50.2826 172.599 50.1096 172.65 49.9442 172.7C49.7787 172.751 49.626 172.784 49.453 172.843C48.9952 173.038 48.527 173.208 48.0506 173.352H48.0862C48.2899 173.316 48.4833 173.286 48.6589 173.263C48.4735 173.321 48.2805 173.351 48.0862 173.352C47.847 173.4 47.5925 173.429 47.3227 173.477C46.9282 173.574 46.577 173.64 46.264 173.749C45.8059 173.826 45.979 173.729 46.0324 173.683L45.2689 173.815C45.1321 173.865 44.9928 173.908 44.8515 173.943C44.8973 173.956 44.9126 173.966 44.8031 173.943H44.8515C44.8151 173.931 44.7775 173.925 44.7395 173.922L44.6682 173.938C44.6682 173.92 44.6937 173.917 44.7395 173.922C44.8948 173.884 45.0729 173.849 45.2689 173.815C45.4911 173.739 45.7219 173.691 45.956 173.673C46.0578 173.65 46.0553 173.673 46.0299 173.673C46.2386 173.642 46.4549 173.609 46.6712 173.571C46.8875 173.533 47.1064 173.51 47.3202 173.467C47.534 173.423 47.8088 173.352 48.0837 173.25C47.0402 173.446 48.8472 172.897 47.4322 173.271C47.9412 173.098 47.6638 173.077 48.524 172.828C48.7582 172.828 48.7072 172.884 48.5673 172.978C48.4046 173.061 48.2481 173.155 48.099 173.261C48.4324 173.164 48.692 173.085 48.9058 173.006C49.1195 172.927 49.2901 172.884 49.4402 172.828L49.7304 172.698L49.6362 172.754C49.9759 172.624 50.3066 172.472 50.6262 172.298C50.1533 172.103 49.7083 171.847 49.3028 171.535C49.4839 171.672 49.6882 171.777 49.906 171.843C48.6894 171.239 47.6612 170.354 46.9257 169.903L46.9003 170.04C46.1629 169.559 45.4957 168.979 44.9177 168.314L44.7802 168.373C44.5944 168.118 44.3348 167.828 44.0854 167.469C43.9531 167.294 43.8309 167.11 43.7138 166.925C43.5968 166.739 43.4772 166.545 43.3652 166.352C42.9147 165.588 42.6169 164.756 42.6551 164.341C42.4946 164.012 42.402 163.655 42.3828 163.29C42.3361 162.8 42.3455 162.306 42.4108 161.818C42.4591 161.76 42.4999 161.701 42.5533 161.643C42.653 161.225 42.8161 160.825 43.0369 160.456C43.205 160.171 43.4094 159.908 43.6451 159.675C43.5662 159.733 43.4899 159.79 43.4161 159.853C43.7342 159.432 44.1809 159.125 44.6886 158.98C45.0799 158.815 45.4964 158.717 45.9204 158.692C45.783 158.822 45.2969 158.787 44.6886 158.98C44.302 159.143 43.9503 159.379 43.6528 159.675C44.441 159.132 45.3511 158.793 46.3022 158.687C47.1465 158.572 48.0056 158.634 48.8243 158.871V158.904C49.3637 159.034 49.887 159.223 50.3844 159.469C49.9518 159.349 50.7153 159.548 51.1123 159.879C51.6961 160.243 52.1874 160.738 52.5477 161.324C52.7639 161.611 52.9562 161.915 53.1229 162.233C52.4561 161.243 53.044 162.381 52.9448 162.488C53.0747 162.669 53.1945 162.858 53.3036 163.053C53.3392 163.323 53.0618 162.691 53.2069 163.155C53.3674 163.479 53.4903 163.821 53.5734 164.173C53.6752 164.595 53.749 165.018 53.8279 165.219C53.869 165.08 53.8871 164.934 53.8813 164.789C53.8661 164.733 53.8813 164.738 53.8813 164.774V164.725C53.8813 164.471 53.8508 164.338 53.8508 164.265C53.8268 164.07 53.7894 163.877 53.7388 163.687C53.7974 163.929 53.8381 164.074 53.8559 164.181C53.8788 164.234 53.9221 164.537 53.8559 164.181C53.8559 164.163 53.8559 164.193 53.8559 164.265C53.8764 164.417 53.8866 164.571 53.8864 164.725V164.781C53.9052 164.843 53.9282 164.903 53.9552 164.962L53.9348 164.646C53.9882 164.965 53.9806 165.005 53.9552 164.962C53.9704 165.802 54.001 165.494 54.0595 165.471C54.0162 165.71 53.9781 165.922 53.9526 166.113C53.9272 166.304 53.8941 166.479 53.8686 166.645C53.8432 166.81 53.8024 166.968 53.7566 167.126C53.7012 167.289 53.6313 167.446 53.5479 167.597C53.7643 167.154 53.6752 167.676 53.525 168.228C53.3749 168.78 53.1535 169.348 53.3698 169.111C52.9549 169.684 53.1942 169.544 52.8786 169.875C53.2362 169.058 53.4333 168.18 53.4589 167.289C53.3774 167.528 53.2807 167.76 53.1815 167.986C53.1752 167.629 53.2321 167.274 53.3494 166.937C53.4553 166.608 53.5085 166.265 53.5072 165.919C53.5247 166.119 53.5153 166.32 53.4792 166.517C53.4666 166.649 53.4277 166.777 53.3647 166.894L53.5607 166.721C53.6555 166.24 53.6719 165.746 53.609 165.26C53.5817 165.047 53.5426 164.837 53.492 164.629C53.4309 164.43 53.3876 164.239 53.3189 164.061C53.3673 164.415 53.2985 164.206 53.2094 163.985C53.1204 163.763 53.0007 163.526 53.0186 163.783C53.072 163.957 53.1229 164.132 53.1636 164.31C53.1636 164.44 53.1153 164.374 53.0644 164.244C53.0135 164.114 52.9422 163.921 52.871 163.783C52.774 163.302 52.6022 162.839 52.362 162.411C52.0923 161.933 51.7545 161.497 51.3592 161.116C50.7859 160.598 50.1548 160.148 49.4784 159.774C49.7864 159.947 50.3666 160.227 50.6466 160.372C50.4354 160.198 50.2135 160.036 49.9823 159.889C50.5753 160.207 50.9367 160.609 51.6519 161.261C51.6112 161.06 52.2296 161.503 51.802 160.831C51.5626 160.537 51.2773 160.284 50.9571 160.082C50.7474 159.955 50.5236 159.852 50.2903 159.777C50.0714 159.705 49.8423 159.637 49.5268 159.543C49.2112 159.448 48.8243 159.324 48.2542 159.186C48.1473 159.186 48.2746 159.161 48.2771 159.12C48.2797 159.079 48.2466 159.072 48.1397 159.041C47.9411 158.988 47.7369 158.958 47.5314 158.952C46.8796 158.919 46.2293 159.043 45.6354 159.313C45.2053 159.53 45.022 159.767 45.0729 159.871C45.4029 159.673 45.7645 159.532 46.1418 159.456C46.5389 159.377 46.9053 159.385 46.9893 159.474C46.6452 159.503 46.3044 159.563 45.9713 159.655C45.6481 159.746 45.419 159.876 45.4139 159.937C45.1034 159.937 45.3478 159.833 45.5845 159.751C45.7041 159.711 45.8212 159.677 45.8568 159.657C45.8924 159.637 45.8568 159.616 45.6405 159.632C45.3855 159.702 45.1497 159.829 44.9508 160.003C45.05 159.904 44.9507 159.914 44.8159 159.957C44.681 160.001 44.5003 160.085 44.4366 160.105C43.9495 160.452 43.5801 160.94 43.3779 161.503C43.1725 162.107 43.1303 162.755 43.2557 163.381C43.2557 163.328 43.2557 163.31 43.2557 163.409V163.381C43.2379 163.465 43.2125 163.636 43.1565 163.613C43.2754 163.988 43.4588 164.34 43.6986 164.652C43.9047 164.906 44.088 165.041 44.0854 164.893C44.4494 165.657 44.401 165.738 44.821 166.337C44.5894 165.797 44.6301 165.845 44.7242 166.039C44.8184 166.232 45.0246 166.548 45.1416 166.548C45.5743 167.126 45.2053 166.802 45.3707 167.105C45.4623 167.189 45.6939 167.378 45.7448 167.36C45.6897 167.231 45.6215 167.108 45.5412 166.993C45.7372 167.248 45.7779 167.347 45.7448 167.36C45.8288 167.579 45.6226 167.474 45.4139 167.36C45.2052 167.245 44.9966 167.151 45.1035 167.418C45.1555 167.586 45.2193 167.751 45.2943 167.91C45.4114 168.085 45.5488 168.302 45.6939 168.493C45.9866 168.882 46.292 169.218 46.3327 169.256C46.7196 169.386 47.0504 168.793 46.8137 168.294C46.8697 168.271 46.9766 168.406 47.0988 168.577C47.2181 168.744 47.3517 168.901 47.4983 169.045C47.758 169.338 48.0786 169.569 48.4375 169.725C48.7611 169.854 49.0721 170.014 49.3664 170.201C49.1755 170.132 48.9923 170.053 48.804 169.979C49.207 170.261 49.6484 170.484 50.1147 170.641C50.1147 170.712 49.43 170.641 49.7125 170.878C50.0915 171.091 50.4904 171.267 50.9036 171.402C50.9647 171.362 51.0258 171.321 51.0792 171.28L51.1887 171.178C50.8909 171.069 50.5957 170.959 50.303 170.842C50.303 170.758 50.6644 170.896 51.0258 171.02L51.2803 171.102C51.4294 170.987 51.5315 170.821 51.5679 170.636C51.746 170.486 51.5806 170.738 51.6137 170.751L51.7435 170.583L51.8529 170.402C51.9299 170.286 51.9947 170.162 52.0464 170.033C52.1151 170.012 52.1227 170.084 52.0998 170.208C52.0507 170.36 51.9877 170.506 51.9115 170.646C51.7333 170.942 51.5323 171.216 51.7308 171.109C51.6969 171.137 51.6612 171.163 51.6239 171.186C51.7104 171.186 51.7664 171.186 51.7639 171.15C52.3611 171.435 52.9694 171.7 53.5887 171.944C53.3494 171.868 52.6165 171.624 52.8684 171.817C53.6727 172.12 53.2731 172.001 53.7897 172.268L51.886 172.013L51.4126 171.95L51.2269 172.156L51.4177 172.334C52.4135 172.642 53.468 172.709 54.4947 172.53C54.8459 172.665 54.9477 172.756 54.9325 172.858C54.9172 172.96 54.7848 173.029 54.6779 173.042C54.973 173.117 55.2771 173.15 55.5814 173.141C55.7908 173.124 55.9984 173.091 56.2024 173.042C56.3981 172.978 56.5979 172.929 56.8005 172.894C56.9125 172.876 57.0347 172.838 57.1772 172.82C57.3197 172.802 57.4775 172.792 57.6557 172.757C57.4726 172.767 57.289 172.767 57.1059 172.757C57.1899 172.739 57.3299 172.726 57.4902 172.711L57.9992 172.622C58.3275 172.558 58.5871 172.459 58.5083 172.456C58.806 172.471 59.1318 172.538 58.8442 172.723C59.0325 172.589 59.2183 172.469 59.3965 172.326C59.5746 172.184 59.7375 172.036 59.9055 171.883C59.7604 172.008 59.9997 172.179 59.9513 172.26C60.4272 171.985 60.5443 171.517 60.244 171.659C60.4198 171.588 60.59 171.502 60.753 171.405C60.8419 171.358 60.927 171.304 61.0075 171.244C61.0788 171.199 61.1475 171.155 61.2442 171.099C61.3409 171.043 61.4758 170.977 61.6565 170.845C61.8525 170.603 61.43 170.677 61.262 170.809C61.6794 170.275 61.9339 169.982 62.1426 169.732L62.1579 169.702H62.1706C62.2789 169.574 62.3751 169.437 62.4582 169.292C62.539 169.111 62.5963 168.92 62.6287 168.724C62.6491 168.997 62.672 169.289 62.6669 169.582C62.4989 169.625 62.3335 169.666 62.1706 169.702L62.1426 169.735C61.8652 170.221 61.9186 170.374 62.0713 170.448C62.224 170.522 62.4556 170.496 62.4658 170.649C62.7954 169.825 62.983 168.951 63.0206 168.065C63.0686 168.2 63.141 168.325 63.2344 168.434C63.1682 168.292 63.3999 167.561 63.5118 166.673C63.5718 166.215 63.5973 165.754 63.5882 165.293C63.5882 165.064 63.5551 164.845 63.5449 164.641C63.5347 164.438 63.4838 164.247 63.4609 164.079L63.4966 164.28C63.5576 164.41 63.5678 164.181 63.5118 163.862C63.4787 163.707 63.4329 163.526 63.382 163.353C63.3294 163.209 63.2647 163.069 63.1886 162.936C63.2624 162.994 63.2879 163.104 63.3642 163.297C63.3323 163.102 63.2687 162.912 63.1759 162.737C63.0857 162.604 62.9843 162.479 62.873 162.363L62.7203 162.192C62.6621 162.136 62.6077 162.075 62.5574 162.012C62.4435 161.852 62.3463 161.682 62.2673 161.503C62.7229 162.195 62.8552 162.31 62.9214 162.228C62.8323 162.078 62.6847 161.895 62.5574 161.691C62.4302 161.487 62.2469 161.299 62.1095 161.126C61.8016 160.8 61.542 160.617 61.5598 160.828C61.447 160.673 61.32 160.529 61.1806 160.398C61.0788 160.286 61.0304 160.207 61.0889 160.166C60.9739 160.081 60.8532 160.003 60.7275 159.935L60.3611 159.718C60.1066 159.576 59.8342 159.433 59.5746 159.291C59.7019 159.341 59.8419 159.336 59.4143 159.036C60.2491 159.619 61.1627 159.942 61.4045 160.444C61.5445 160.337 61.3231 160.019 61.7812 160.227C61.5929 160.075 61.4122 159.935 61.2416 159.805C61.0711 159.675 60.8803 159.581 60.7148 159.484C60.3814 159.288 60.0455 159.145 59.7426 159.003L58.0196 158.262L56.6707 157.218L56.5664 157.246L56.4264 156.916C56.2976 156.88 56.1749 156.825 56.0625 156.753C56.0396 156.717 56.0981 156.725 56.1846 156.753C56.0613 156.678 55.9329 156.613 55.8003 156.557C55.7999 156.6 55.8163 156.642 55.8461 156.674C55.6934 156.544 55.7112 156.524 55.8003 156.557C55.8003 156.432 56.121 156.501 56.4493 156.587L56.3475 156.475C55.584 156.132 54.7238 155.747 55.2608 156.264L55.7698 156.697C55.5331 156.508 55.3676 156.368 55.2608 156.264L54.4972 155.615C53.7579 155.297 53.0358 154.94 52.3339 154.546C52.3085 154.446 52.6572 154.607 52.4714 154.423C51.4814 154.034 50.499 152.805 50.2037 152.843C49.4758 152.42 49.8169 152.794 49.341 152.545C49.3741 152.545 49.4402 152.532 49.313 152.443L48.7047 152.211C48.5189 152.028 49.2468 152.451 48.6843 152.005C48.1448 151.712 47.7147 151.483 47.3202 151.242C47.1217 151.124 46.9308 151.007 46.7399 150.88C46.549 150.753 46.3302 150.559 46.1189 150.371C45.5132 149.834 45.5972 149.987 45.6965 150.185C45.7957 150.384 45.951 150.597 45.4419 150.081C45.3334 149.661 45.1441 149.267 44.8846 148.92C44.737 148.747 44.6504 148.681 44.5486 148.576C44.3832 148.398 44.2529 148.19 44.1643 147.963L44.3501 147.945C44.0803 147.283 43.9633 146.713 44.0956 146.688C43.9673 146.276 43.9274 145.843 43.9785 145.415C43.9785 144.88 43.8666 145.058 43.752 145.43C43.7088 145.616 43.6706 145.85 43.6375 146.056C43.6044 146.262 43.6121 146.436 43.5993 146.504C43.5993 146.362 43.5866 146.229 43.5993 146.099C43.6121 145.97 43.6146 145.845 43.6222 145.725C43.6299 145.606 43.6222 145.491 43.6375 145.379C43.6528 145.267 43.6706 145.165 43.6859 145.063C43.7121 144.875 43.7529 144.688 43.808 144.506C43.8671 144.346 43.9422 144.193 44.032 144.048L43.9455 144.519C43.9226 144.677 43.9225 144.837 43.9098 144.995L43.9811 144.646C44.004 144.539 44.0422 144.44 44.0651 144.348C44.1185 144.165 44.1567 144.005 44.1872 143.865C44.2763 143.592 44.3272 143.391 44.3654 143.22C44.3986 143.068 44.4589 142.922 44.5435 142.79C44.6465 142.626 44.7826 142.486 44.9431 142.378C44.8438 142.521 44.7586 142.674 44.6886 142.834C44.6221 142.964 44.5684 143.1 44.5283 143.241C44.4774 143.478 44.4876 143.587 44.6021 143.424C44.6224 143.345 44.6428 143.266 44.6682 143.19L44.7573 142.966L44.9457 142.515C45.0373 142.442 44.7141 143.024 44.9686 142.658C45.0366 142.484 45.1148 142.314 45.2027 142.149L45.335 141.871C45.3758 141.785 45.4241 141.716 45.4547 141.66V141.574C45.5336 141.49 45.5132 141.543 45.4547 141.66V141.675C45.6441 141.445 45.8527 141.231 46.0782 141.036L46.4192 140.746C46.4975 140.677 46.5828 140.617 46.6737 140.566C46.7098 140.54 46.7472 140.516 46.7857 140.494C46.7501 140.52 46.7119 140.543 46.6737 140.566C46.493 140.69 46.5058 140.739 46.7526 140.591L47.2235 140.247L47.6689 139.957C47.73 139.911 47.819 139.853 47.959 139.766L47.6689 139.957C47.4144 140.148 47.7223 140.044 48.1524 139.848C48.5776 139.666 48.9529 139.385 49.2468 139.028C49.1961 138.978 49.1501 138.923 49.1094 138.865C49.1654 138.903 49.2239 138.947 49.2824 138.992L49.3435 138.941C49.2951 138.898 49.2493 138.852 49.1959 138.809C49.1031 138.735 49.0063 138.666 48.9058 138.603C48.8119 138.439 48.7064 138.281 48.5902 138.132L48.3077 137.699C48.2089 137.567 48.1236 137.426 48.0532 137.277C47.9831 137.132 47.9244 136.982 47.8776 136.829C47.9437 136.986 47.9692 136.989 48.0354 137.147C47.8864 136.824 47.7852 136.481 47.735 136.129C47.7123 135.881 47.7123 135.633 47.735 135.385C47.7573 135.204 47.7888 135.024 47.8292 134.846C47.8547 134.685 47.875 134.538 47.8979 134.38C47.9208 134.222 47.9285 134.031 47.9463 133.838C47.9641 133.644 48.0074 133.453 48.0252 133.29C48.043 133.127 48.0735 132.998 48.0684 132.931C48.0634 132.865 48.0404 132.863 47.9819 132.959C48.0124 132.83 47.9819 132.896 47.9259 133.054C47.8699 133.211 47.8241 133.474 47.7605 133.718C47.6969 133.962 47.6892 134.204 47.6434 134.316C47.5976 134.428 47.5569 134.423 47.5085 134.171C47.5599 134.055 47.6016 133.935 47.6332 133.812C47.6795 133.691 47.7186 133.567 47.7503 133.44C47.7859 133.313 47.8038 133.186 47.8445 133.038L47.9743 132.598L48.0455 132.359L48.155 132.117C48.2339 131.954 48.3102 131.773 48.4095 131.608C48.5087 131.442 48.664 131.259 48.804 131.076C48.9743 130.893 49.1571 130.723 49.3511 130.567C49.0737 130.943 49.2035 130.875 49.3333 130.801C49.4631 130.727 49.5878 130.643 49.3562 130.961C49.6795 130.595 49.8373 130.432 49.9416 130.289C50.0344 130.155 50.1193 130.016 50.1961 129.872L50.4506 129.744C50.6068 129.514 50.7366 129.268 50.8375 129.009C50.896 128.871 51.0411 128.701 51.517 127.955C51.3719 128.209 51.517 128.095 51.657 127.955C51.7969 127.815 51.9497 127.657 51.8529 127.868C52.1204 127.508 52.3418 127.115 52.5121 126.7L52.4918 126.764L52.7844 126.254C52.8633 126.107 52.932 125.982 52.9957 125.875C53.1178 125.659 53.2222 125.509 53.3062 125.366C53.3901 125.224 53.4741 125.063 53.5607 124.857C53.609 124.753 53.665 124.635 53.721 124.493C53.777 124.35 53.8304 124.182 53.8941 123.984L53.7745 124.111C53.8534 123.857 53.9552 123.602 54.029 123.319C54.1028 123.037 54.1969 122.767 54.2835 122.484C54.4387 121.912 54.622 121.329 54.7543 120.726C54.8866 120.122 55.0088 119.519 55.1259 118.928C55.1691 118.628 55.2099 118.33 55.248 118.04C55.2684 117.895 55.2862 117.75 55.304 117.607L55.3346 117.182C55.2964 117.419 55.2557 117.653 55.2022 117.885C55.1984 117.91 55.1933 117.934 55.187 117.958C55.187 117.933 55.187 117.91 55.2022 117.885C55.215 117.818 55.2251 117.727 55.2379 117.615C55.2379 117.452 55.2608 117.248 55.2735 117.032C55.304 116.599 55.3473 116.11 55.4084 115.759C55.4084 115.688 55.4084 115.64 55.4287 115.65C55.4491 115.66 55.4287 115.723 55.4084 115.759C55.4172 115.929 55.4172 116.099 55.4084 116.268C55.4822 116.253 55.6018 115.988 55.6629 115.449L55.5687 115.235L55.6654 115.021C55.6985 114.201 55.5153 115.25 55.5305 114.438C55.631 114.196 55.682 113.936 55.6807 113.674C55.6807 113.31 55.6807 112.862 55.6553 112.402C55.6298 111.941 55.5738 111.49 55.528 111.101C55.4787 110.802 55.4693 110.498 55.5 110.197C55.192 109.688 55.7214 111.724 55.4236 111.162C55.4293 110.863 55.4115 110.564 55.3702 110.268L55.2684 110.472C55.1306 109.515 54.923 108.57 54.6474 107.644C54.5863 107.448 54.5278 107.252 54.4667 107.056L54.2377 106.463C54.09 106.05 53.8712 105.63 53.6319 105.134L53.6956 105.2C53.3749 104.48 53.1509 104.116 52.8633 103.877C52.8328 103.706 53.1535 104.174 53.0415 103.877C52.5893 103.374 52.2082 102.813 51.9089 102.207C51.7511 101.934 51.6086 101.67 51.4559 101.443C51.3173 101.237 51.1453 101.055 50.9469 100.906C51.0971 100.86 50.9113 100.45 50.7738 100.104C45.7004 101.459 40.9833 103.904 36.9513 107.268C32.9193 110.633 29.6693 114.837 27.428 119.587C25.1866 124.336 24.0077 129.518 23.9734 134.77C23.9392 140.022 25.0503 145.218 27.2295 149.997C30.0649 156.227 34.619 161.518 40.3569 165.25C37.6724 166.515 35.5948 168.787 34.5747 171.575C33.5546 174.362 33.6744 177.439 34.908 180.139C35.5232 181.487 36.3978 182.7 37.4819 183.71C38.5661 184.72 39.8385 185.506 41.2265 186.024C42.6145 186.542 44.0909 186.781 45.5714 186.728C47.0519 186.675 48.5075 186.331 49.8551 185.716L105.083 160.484C107.808 159.252 109.932 156.987 110.988 154.189C112.045 151.39 111.946 148.286 110.715 145.56ZM53.9882 136.215C54.2631 136.078 54.5634 135.877 54.8357 135.739C55.0063 135.882 54.5634 135.877 53.9882 136.215ZM49.2824 172.199C49.7151 172.054 49.4504 172.214 49.0279 172.38L48.9796 172.331C49.0814 172.283 49.1933 172.25 49.2824 172.199ZM45.3834 173.4L45.3452 173.345C45.5488 173.345 45.755 173.345 45.9611 173.345C45.5717 173.431 45.1773 173.5 44.7853 173.569C44.8642 173.51 44.709 173.462 45.3834 173.4ZM53.4767 165.945C53.4716 165.895 53.4521 165.848 53.4207 165.81C53.4385 165.817 53.464 165.873 53.4767 165.945ZM53.3087 165.878C53.3158 166.093 53.309 166.308 53.2883 166.522C53.2731 166.377 53.3062 166.136 53.3087 165.878C53.3087 165.751 53.2883 165.649 53.2654 165.662C53.2807 165.396 53.2807 165.129 53.2654 164.863C53.3011 164.84 53.3367 165.385 53.3087 165.873V165.878ZM45.6583 168.378L45.8441 168.159L45.9993 168.312L45.6583 168.378ZM46.7145 159.214C47.0076 159.191 47.302 159.191 47.5951 159.214C47.7223 159.275 47.3965 159.255 47.1879 159.275C46.8646 159.283 46.6279 159.268 46.7145 159.217V159.214ZM47.478 159.754C46.46 159.7 47.5492 159.665 47.6409 159.647C48.3687 159.807 47.5518 159.711 47.4678 159.764L47.478 159.754ZM49.5497 160.25L49.6489 160.105C49.7296 160.202 49.8229 160.288 49.9263 160.36C49.7914 160.332 49.6693 160.286 49.5395 160.253L49.5497 160.25ZM53.1127 166.897C53.0898 167.082 53.0415 167.263 53.0033 167.444C52.9812 167.517 52.9558 167.591 52.9269 167.665C52.9829 167.413 53.0517 167.159 53.1 166.892L53.1127 166.897ZM52.8302 168.287L52.8582 168.587C52.7946 168.63 52.7361 168.673 52.6699 168.714C52.7157 168.574 52.7641 168.432 52.8175 168.289L52.8302 168.287ZM52.7233 169.496C52.6343 169.75 52.5834 170.005 52.5477 169.928C52.5986 169.794 52.6572 169.643 52.7106 169.498L52.7233 169.496ZM52.7233 170.6C52.6903 170.679 52.647 170.748 52.6088 170.824L52.5579 170.707C52.6526 170.6 52.7378 170.484 52.8124 170.361L52.7233 170.6ZM52.8048 169.302L52.7717 169.386C52.8506 169.132 52.9168 168.915 52.9804 168.742C53.044 168.569 53.0924 168.449 53.1535 168.439C53.1127 168.679 53.0531 168.914 52.9753 169.144C52.8913 169.32 52.8328 169.404 52.7844 169.305L52.8048 169.302ZM53.7846 167.775C53.7824 167.813 53.7764 167.85 53.7668 167.887C53.7668 167.851 53.7668 167.813 53.7846 167.775C53.8024 167.737 53.7337 167.79 53.7083 167.795C53.791 167.582 53.8498 167.36 53.8839 167.133C53.833 167.352 53.8025 167.569 53.7643 167.78L53.7846 167.775ZM55.0801 172.51C55.4873 172.634 55.528 172.606 55.5891 172.566C55.6502 172.525 55.696 172.489 56.1515 172.566C56.406 172.777 56.1108 172.708 55.5305 172.721C55.431 172.722 55.3316 172.717 55.2328 172.706C55.3397 172.706 55.4364 172.706 55.5305 172.721C55.729 172.723 54.8256 172.535 55.0597 172.515L55.0801 172.51ZM53.3927 162.819C53.4744 162.95 53.5475 163.087 53.6116 163.228C53.6599 163.351 53.6726 163.422 53.6116 163.363C53.6116 163.206 53.4767 163.363 53.4131 163.109C53.1204 162.45 53.2171 162.564 53.3927 162.819ZM43.9327 147.545L43.8767 147.502C43.8589 147.298 43.8309 147.097 43.8284 146.896C43.8896 147.108 43.9246 147.326 43.9327 147.545ZM48.323 139.42L48.5164 139.501L48.1881 139.489L48.323 139.42ZM40.9092 173.561C40.9092 173.561 40.9092 173.546 40.8634 173.535C41.0339 173.535 41.0008 173.535 40.9092 173.561C40.9245 173.602 40.6318 173.632 40.9245 173.658C41.1019 173.665 41.2791 173.641 41.4488 173.589C41.682 173.635 41.9075 173.715 42.1181 173.826C42.1614 173.826 42.1792 173.843 42.1588 173.849L42.1181 173.826C41.7289 173.754 41.3352 173.708 40.9397 173.691L40.8379 173.708C40.2042 173.665 40.7132 173.604 40.9092 173.563V173.561ZM35.3686 174.274L34.9054 174.246C35.2159 174.327 34.4269 174.228 34.9054 174.246L34.8036 174.223C35.9031 174.238 35.2286 174.195 35.3686 174.274ZM36.1321 174.019C35.4984 174.062 35.954 174.108 36.3052 174.167C35.1141 174.164 34.936 174.019 36.1321 174.037V174.019ZM36.9669 174.429C37.1782 174.401 36.6157 174.376 36.4834 174.325L37.1196 174.274C37.4963 174.378 37.6286 174.426 36.9771 174.447L36.9669 174.429ZM37.3919 174.174L36.6971 174.218C36.9949 174.185 37.1323 174.131 37.0738 174.19C37.2952 174.075 37.3029 174.141 37.3919 174.174L37.7202 174.151C37.621 174.195 37.5104 174.206 37.4047 174.182L37.3919 174.174ZM36.6895 174.057C37.0738 174.017 37.453 173.981 37.8373 173.933H38.0587C37.6134 173.989 37.1502 174.019 36.6997 174.065L36.6895 174.057ZM40.0999 173.803C40.927 173.892 40.0744 173.978 39.6647 174.057C40.2908 173.948 39.8174 173.897 40.1101 173.81L40.0999 173.803ZM41.0695 174.383C41.0365 174.325 40.5784 174.312 40.3366 174.284L40.8049 174.225C40.7641 174.179 40.8761 174.141 41.5022 174.129L40.8049 174.225C40.8634 174.286 41.1179 174.347 41.0797 174.391L41.0695 174.383ZM42.2784 173.963C42.0239 174.006 41.7491 174.05 41.4844 174.085C41.6855 174.044 41.5506 174.004 41.5353 173.973C41.7898 173.973 42.029 173.973 42.2784 173.973L42.6398 173.917L42.5533 173.971L42.2784 173.963ZM42.6984 174.09H42.6297C42.6398 174.083 42.6518 174.08 42.664 174.08C42.6763 174.08 42.6882 174.083 42.6984 174.09L42.9758 174.075L43.5815 174.042L42.986 174.08L43.2685 174.177C43.0782 174.196 42.8861 174.169 42.7086 174.098L42.6984 174.09ZM43.3703 174.365L43.7622 174.238L44.0702 174.157C43.8462 174.238 43.6146 174.309 43.3804 174.373L43.3703 174.365ZM46.9333 173.823C46.7526 173.889 46.5592 173.963 46.3531 174.027C46.1469 174.09 45.9204 174.144 45.6761 174.19C45.984 174.093 45.2689 174.141 45.5565 174.017C46.022 174.014 46.4851 173.949 46.9333 173.823C47.1522 173.749 47.3507 173.665 47.5442 173.599C47.3501 173.696 47.1473 173.773 46.9384 173.831L46.9333 173.823Z" fill="#FADD6F"/>
<path d="M49.4377 138.891L49.514 138.845L49.2417 138.644C49.0739 138.503 48.9173 138.35 48.7734 138.186C48.9748 138.439 49.197 138.675 49.4377 138.891Z" fill="#FADD6F"/>
<path d="M50.948 139.84C51.0578 139.88 51.1727 139.903 51.2891 139.909L51.06 139.799L50.8539 139.675C50.8285 139.658 50.8021 139.643 50.775 139.629L50.6172 139.716L50.948 139.84Z" fill="#FADD6F"/>
<path d="M51.7544 139.417L51.561 139.162L51.3828 139.272L51.7544 139.417Z" fill="#FADD6F"/>
<path d="M53.1539 138.413C53.0597 138.222 52.3598 138.667 51.5938 139.141L52.0137 139.304C52.1893 139.365 52.3827 139.421 52.5685 139.482L53.696 139.844L55.9865 140.589L58.3051 141.353L59.4809 141.725C59.833 141.837 60.2004 141.895 60.5702 141.895C60.5473 141.989 61.0792 141.994 61.5882 141.857C61.7078 141.816 61.8427 141.793 61.9369 141.75C62.031 141.707 62.143 141.674 62.2244 141.648C62.3822 141.59 62.4789 141.577 62.4484 141.669L62.3313 141.707C61.9903 141.888 62.0539 141.905 62.2932 141.852C62.4411 141.804 62.5849 141.745 62.7233 141.674C62.8768 141.585 63.0201 141.48 63.1508 141.361C62.8632 141.552 63.0618 141.302 63.1508 141.137C63.1966 141.055 63.2196 140.997 63.1508 141.02C63.0821 141.042 62.9549 141.17 62.6291 141.381C62.9334 141.127 63.1917 140.822 63.3926 140.48C63.4172 140.216 63.4842 139.958 63.5911 139.716C63.7355 139.36 63.8338 138.987 63.8838 138.606L63.922 138.278C63.922 138.166 63.922 138.051 63.922 137.937C63.9212 137.821 63.9075 137.706 63.8813 137.593C63.8668 137.477 63.8403 137.363 63.8024 137.252C63.6768 136.813 63.4329 136.417 63.0974 136.107C63.1429 136.146 63.1969 136.175 63.2552 136.191C62.7066 135.641 62.0334 135.233 61.2929 134.999C61.1199 134.969 60.9545 134.92 60.7992 134.903L60.3716 134.872C60.193 134.874 60.0156 134.901 59.8448 134.953L59.6768 134.859C59.4203 134.976 59.1743 135.113 58.9413 135.272C58.7301 135.419 58.5443 135.539 58.3483 135.653C57.9538 135.885 57.511 136.099 56.7017 136.481C56.7017 136.45 56.8747 136.318 56.61 136.425C56.0842 136.891 55.4892 137.273 54.8463 137.558L54.8692 137.497L53.1539 138.413Z" fill="#FADD6F"/>
<path d="M48.0156 173.362L48.0215 173.359H48.0156V173.362Z" fill="#FADD6F"/>
<path d="M56.7748 156.94C57.1082 157.042 57.3678 157.087 57.014 156.774L56.7901 156.678L56.4414 156.586L56.7748 156.94Z" fill="#FADD6F"/>
<path d="M57.0437 156.643L55.8984 156.002C56.0079 156.106 56.1529 156.274 56.3438 156.473L56.7943 156.677C57.0157 156.733 57.1582 156.755 57.0437 156.643Z" fill="#FADD6F"/>
<path d="M48.0886 173.276C48.0658 173.291 48.0474 173.312 48.0352 173.337C48.1522 173.288 48.4984 173.186 48.0886 173.276Z" fill="#FADD6F"/>
<path d="M47.9945 173.346C47.9224 173.359 47.943 173.362 48.0099 173.359C48.0099 173.359 48.0099 173.344 48.0099 173.336L47.9945 173.346Z" fill="#FADD6F"/>
<path d="M55.9246 173.896C55.7058 173.896 55.4843 173.881 55.2807 173.861C55.0771 173.84 54.899 173.797 54.7539 173.771C54.8812 173.807 55.0262 173.863 55.1815 173.924C55.4828 174.001 55.7919 174.043 56.1028 174.049L55.9246 173.896Z" fill="#FADD6F"/>
<path d="M43.9733 144.88C43.9733 145.071 43.9733 145.27 43.9733 145.402C44.0166 145.178 44.0675 145.015 44.0879 144.865C44.0967 144.793 44.0967 144.72 44.0879 144.648C44.088 144.572 44.0786 144.496 44.0598 144.422C44.0239 144.48 43.9981 144.544 43.9835 144.61C43.9745 144.7 43.9711 144.79 43.9733 144.88Z" fill="#FADD6F"/>
<path d="M50.5998 171.848C50.5725 171.867 50.5469 171.89 50.5234 171.914L50.6151 171.949L50.8059 171.876L50.5998 171.848Z" fill="#FADD6F"/>
<path d="M50.9121 140.057C51.0185 140.101 51.1273 140.138 51.2378 140.169C51.4287 140.223 51.5636 140.241 51.6094 140.198C51.4243 140.101 51.2299 140.023 51.0291 139.966C50.8756 139.899 50.7283 139.819 50.5889 139.727L50.4336 139.808C50.4718 139.828 50.5125 139.846 50.5481 139.869L50.9121 140.057Z" fill="#FADD6F"/>
<path d="M51.2059 172.15L51.272 171.972L51.3102 171.939L51.0964 171.908C51.0379 171.979 51.0404 172.005 51.0455 172.03L51.1142 172.008L51.043 172.056C51.0446 172.066 51.0446 172.076 51.043 172.086L51.2059 172.15Z" fill="#FADD6F"/>
<path d="M51.9232 160.783C51.6483 160.483 51.5134 160.323 51.9003 160.768L51.9232 160.783Z" fill="#FADD6F"/>
<path d="M51.3987 171.548C51.4903 171.487 51.5667 171.436 51.6125 171.411L51.4623 171.564L51.6761 171.61L51.7143 171.571L51.6863 171.61C52.0935 171.683 52.3633 171.668 52.3556 171.576C52.0553 171.485 51.7575 171.383 51.4623 171.281C51.4085 171.304 51.3566 171.332 51.3071 171.363L51.1289 171.477C51.2256 171.505 51.3147 171.528 51.3987 171.548Z" fill="#FADD6F"/>
<path d="M57.7083 157.687C57.5149 157.522 57.308 157.374 57.0898 157.244C57.2671 157.428 57.4768 157.578 57.7083 157.687Z" fill="#FADD6F"/>
<path d="M50.9414 172.065L51.0083 172.085L51.0444 172.065C51.0444 172.065 51.0444 172.047 51.0444 172.039L50.9414 172.065Z" fill="#FADD6F"/>
<path d="M60.5855 172.445C60.5776 172.475 60.5645 172.503 60.5469 172.528C60.7219 172.412 60.6138 172.463 60.5855 172.445Z" fill="#FADD6F"/>
<path d="M50.0525 138.157C49.8387 138.019 49.6936 137.958 50.1644 138.475C50.1913 138.48 50.2177 138.488 50.2433 138.498C50.2858 138.454 50.3318 138.413 50.3808 138.376H50.3629C50.2815 138.317 50.1619 138.223 50.0525 138.157Z" fill="#FADD6F"/>
<path d="M83.4999 149.946L155.125 126.003C158.245 124.96 161.614 124.924 164.756 125.9C167.897 126.876 170.653 128.815 172.633 131.442C174.513 133.936 175.606 136.935 175.773 140.053C175.94 143.172 175.173 146.27 173.569 148.951L141.458 202.629C140.07 204.889 139.266 207.459 139.117 210.108C138.968 212.757 139.48 215.401 140.606 217.803L146.345 230.039L108.978 208.893C108.067 208.378 107.273 207.678 106.647 206.839C106.02 206 105.575 205.04 105.339 204.02C105.104 203 105.083 201.941 105.278 200.913C105.474 199.884 105.881 198.907 106.474 198.044L131.441 161.709L93.9346 177.565C92.1048 178.34 90.1373 178.738 88.1502 178.734C86.1631 178.73 84.1972 178.325 82.3703 177.543C80.5435 176.761 78.8933 175.618 77.5187 174.183C76.1441 172.747 75.0734 171.049 74.3708 169.19C73.6649 167.33 73.3422 165.347 73.422 163.359C73.5018 161.371 73.9825 159.42 74.8352 157.622C75.6878 155.825 76.8949 154.218 78.3839 152.899C79.8729 151.58 81.613 150.576 83.4999 149.946Z" fill="#F2A84C"/>
<path d="M58.7891 119.904L74.3445 142.832C75.842 145.039 77.787 146.907 80.0531 148.313C82.3192 149.72 84.8558 150.634 87.4981 150.996C90.1404 151.359 92.8294 151.161 95.3903 150.416C97.9513 149.671 100.327 148.396 102.363 146.673L121.423 130.55C125.173 127.376 127.578 122.897 128.155 118.018L128.328 116.554L134.711 116.099L137.383 120.887C137.685 121.429 138.183 121.836 138.776 122.021C139.368 122.207 140.009 122.158 140.567 121.885C141.142 121.604 141.582 121.108 141.793 120.503C142.003 119.899 141.966 119.236 141.689 118.659L139.964 115.045C139.429 113.923 138.575 112.985 137.508 112.348C136.442 111.711 135.211 111.403 133.97 111.463L127.47 111.776L137.467 108.416L141.086 110.432C141.546 110.688 142.081 110.775 142.598 110.677C143.116 110.579 143.582 110.302 143.916 109.895C144.115 109.653 144.261 109.372 144.345 109.07C144.429 108.769 144.449 108.453 144.404 108.143C144.358 107.833 144.249 107.536 144.082 107.271C143.915 107.006 143.695 106.779 143.435 106.604L137.793 102.801C136.507 101.934 135.022 101.409 133.477 101.275C131.933 101.141 130.379 101.404 128.964 102.037L124.541 104.017L126.867 99.9649L134.573 97.8877C134.844 97.8147 135.095 97.6834 135.31 97.503C135.525 97.3226 135.697 97.0975 135.816 96.8434C135.934 96.5893 135.996 96.3123 135.996 96.0319C135.997 95.7515 135.936 95.4744 135.818 95.22C135.628 94.8104 135.3 94.4807 134.891 94.2885C134.483 94.0963 134.02 94.0539 133.583 94.1687L124.836 96.4597C123.747 96.7459 122.726 97.2442 121.83 97.9261C120.934 98.608 120.182 99.46 119.616 100.433L111.441 114.525L93.5851 127.042L78.3275 106.143C76.538 103.693 73.8846 102.014 70.9044 101.447C67.9242 100.88 64.8399 101.467 62.2759 103.088C60.9241 103.947 59.7585 105.068 58.848 106.386C57.9376 107.703 57.301 109.19 56.9758 110.759C56.6506 112.327 56.6436 113.944 56.9551 115.515C57.2666 117.086 57.8902 118.579 58.7891 119.904Z" fill="#83BF6E"/>
<path d="M35.2018 62.9883C33.7401 68.7356 34.6209 74.8283 37.6505 79.926C40.6801 85.0237 45.6103 88.709 51.3565 90.171C57.1027 91.6329 63.1942 90.7518 68.2909 87.7216C73.3877 84.6914 77.0722 79.7604 78.5339 74.0131L35.2018 62.9883ZM41.908 70.2202L41.684 70.1616C41.5948 70.1395 41.5109 70.1002 41.437 70.0456C41.3631 69.991 41.3007 69.9224 41.2534 69.8436C41.2061 69.7648 41.1748 69.6775 41.1614 69.5866C41.1479 69.4957 41.1526 69.4031 41.175 69.314L41.4575 68.227C41.5053 68.049 41.6214 67.897 41.7806 67.8041C41.9397 67.7111 42.1291 67.6848 42.3076 67.7306L42.5315 67.7892C42.7093 67.8364 42.8612 67.9521 42.9542 68.1108C43.0471 68.2696 43.0736 68.4586 43.0278 68.6368L42.7428 69.7238C42.6954 69.8988 42.5818 70.0485 42.426 70.1412C42.2701 70.2338 42.0844 70.2622 41.908 70.2202ZM43.1194 75.6702L42.8955 75.6116C42.806 75.5896 42.7218 75.5501 42.6477 75.4954C42.5736 75.4407 42.5111 75.3717 42.4637 75.2927C42.4164 75.2136 42.3852 75.1259 42.372 75.0348C42.3587 74.9436 42.3636 74.8507 42.3865 74.7614L42.669 73.677C42.691 73.5875 42.7305 73.5034 42.7852 73.4293C42.84 73.3551 42.9088 73.2925 42.9879 73.2452C43.0669 73.1978 43.1545 73.1667 43.2457 73.1534C43.3369 73.1402 43.4298 73.145 43.519 73.1679L43.7404 73.2264C43.8299 73.2484 43.9141 73.288 43.9882 73.3427C44.0623 73.3975 44.1248 73.4664 44.1722 73.5455C44.2195 73.6245 44.2507 73.7121 44.2639 73.8033C44.2772 73.8944 44.2723 73.9874 44.2494 74.0767L43.9644 75.161C43.9424 75.25 43.903 75.3337 43.8486 75.4074C43.7942 75.4811 43.7258 75.5435 43.6474 75.5907C43.5689 75.638 43.4819 75.6693 43.3913 75.683C43.3007 75.6966 43.2083 75.6922 43.1194 75.6702ZM45.1987 79.5013L44.9163 80.5882C44.869 80.7666 44.753 80.9189 44.5937 81.012C44.4344 81.105 44.2447 81.1311 44.0662 81.0845L43.8448 81.026C43.7556 81.004 43.6716 80.9646 43.5977 80.91C43.5238 80.8555 43.4614 80.7867 43.4141 80.7079C43.3668 80.6292 43.3356 80.5419 43.3221 80.451C43.3087 80.3601 43.3133 80.2674 43.3358 80.1783L43.6208 79.0914C43.6681 78.9135 43.7836 78.7616 43.9424 78.6686C44.1011 78.5757 44.2902 78.5493 44.4683 78.5951L44.6923 78.6536C44.7814 78.6756 44.8653 78.7151 44.9391 78.7697C45.0129 78.8243 45.0751 78.893 45.1222 78.9718C45.1693 79.0506 45.2003 79.138 45.2135 79.2288C45.2266 79.3197 45.2216 79.4123 45.1987 79.5013ZM46.5654 71.4318L46.344 71.3733C46.2546 71.3513 46.1703 71.3117 46.0962 71.257C46.0221 71.2022 45.9596 71.1334 45.9123 71.0544C45.865 70.9753 45.8338 70.8876 45.8205 70.7965C45.8072 70.7053 45.8122 70.6124 45.835 70.5231L46.1201 69.4387C46.1421 69.3495 46.1815 69.2655 46.2361 69.1916C46.2906 69.1176 46.3593 69.0553 46.438 69.008C46.5168 68.9607 46.6041 68.9293 46.695 68.9159C46.7859 68.9024 46.8785 68.9071 46.9676 68.9296L47.1915 68.9881C47.3699 69.0353 47.5222 69.1513 47.6152 69.3106C47.7083 69.47 47.7344 69.6598 47.6878 69.8384L47.4053 70.9227C47.3607 71.1012 47.2475 71.2548 47.0902 71.3502C46.9329 71.4455 46.7443 71.4749 46.5654 71.4318ZM47.7769 76.8793L47.5529 76.8207C47.4637 76.7987 47.3798 76.7594 47.3059 76.7048C47.232 76.6502 47.1696 76.5814 47.1223 76.5027C47.075 76.4239 47.0437 76.3367 47.0303 76.2458C47.0168 76.1549 47.0215 76.0622 47.0439 75.9731L47.3264 74.8861C47.3742 74.7081 47.4903 74.5562 47.6495 74.4633C47.8086 74.3703 47.998 74.3439 48.1765 74.3898L48.4004 74.4483C48.5782 74.4956 48.7301 74.6111 48.8231 74.7699C48.916 74.9287 48.9425 75.1178 48.8967 75.296L48.6117 76.383C48.5655 76.5612 48.4508 76.7139 48.2925 76.8078C48.1342 76.9018 47.9452 76.9292 47.7667 76.8844L47.7769 76.8793ZM49.8587 80.7129L49.5737 81.7974C49.527 81.9756 49.4116 82.1279 49.2527 82.221C49.0937 82.314 48.9044 82.3402 48.7262 82.2937L48.5022 82.2377C48.4129 82.2154 48.3289 82.1757 48.255 82.1209C48.1811 82.0661 48.1187 81.9972 48.0714 81.9182C48.0241 81.8392 47.9929 81.7517 47.9795 81.6606C47.9661 81.5696 47.9707 81.4767 47.9932 81.3874L48.2757 80.3005C48.3229 80.1221 48.4389 79.9698 48.5982 79.8768C48.7576 79.7837 48.9472 79.7576 49.1258 79.8042L49.3497 79.8627C49.4388 79.8858 49.5225 79.9262 49.5958 79.9818C49.6692 80.0374 49.7309 80.107 49.7772 80.1865C49.8236 80.266 49.8538 80.3538 49.866 80.445C49.8783 80.5363 49.8723 80.6291 49.8486 80.718L49.8587 80.7129ZM51.2153 72.6461L50.9913 72.5875C50.9021 72.5655 50.8181 72.526 50.7442 72.4714C50.6703 72.4169 50.608 72.3482 50.5607 72.2695C50.5134 72.1907 50.4821 72.1034 50.4686 72.0125C50.4552 71.9217 50.4598 71.8289 50.4823 71.7398L50.7648 70.6529C50.812 70.4745 50.928 70.3221 51.0873 70.229C51.2466 70.136 51.4363 70.11 51.6148 70.1566L51.8363 70.2151C51.9254 70.2372 52.0094 70.2765 52.0833 70.3311C52.1572 70.3857 52.2196 70.4543 52.2669 70.5331C52.3142 70.6118 52.3455 70.6992 52.3589 70.7901C52.3724 70.881 52.3677 70.9736 52.3453 71.0627L52.0602 72.1496C52.0374 72.239 51.9971 72.323 51.9417 72.3966C51.8863 72.4703 51.8168 72.5322 51.7372 72.5788C51.6577 72.6255 51.5697 72.6559 51.4784 72.6683C51.3871 72.6807 51.2942 72.6749 51.2051 72.6512L51.2153 72.6461ZM52.4191 78.1012L52.1977 78.0427C52.1084 78.0204 52.0244 77.9806 51.9504 77.9257C51.8765 77.8709 51.8141 77.8021 51.7668 77.7231C51.7196 77.6442 51.6883 77.5567 51.6749 77.4656C51.6615 77.3745 51.6661 77.2816 51.6886 77.1924L51.9737 76.1054C52.0209 75.9276 52.1365 75.7757 52.2952 75.6827C52.454 75.5897 52.643 75.5633 52.8212 75.6091L53.0452 75.6677C53.2235 75.7149 53.3759 75.8309 53.4689 75.9902C53.5619 76.1496 53.588 76.3393 53.5414 76.5178L53.2589 77.6023C53.2122 77.7789 53.098 77.9301 52.9409 78.0234C52.7839 78.1167 52.5965 78.1447 52.4191 78.1012ZM54.5009 81.9322L54.2184 83.0192C54.1712 83.1976 54.0552 83.35 53.8959 83.443C53.7366 83.5361 53.5469 83.5622 53.3684 83.5156L53.1444 83.4571C53.0549 83.4351 52.9707 83.3955 52.8966 83.3407C52.8225 83.286 52.76 83.2171 52.7127 83.138C52.6654 83.059 52.6342 82.9713 52.6209 82.8801C52.6076 82.7889 52.6126 82.696 52.6354 82.6068L52.9204 81.5224C52.9422 81.4331 52.9814 81.3488 53.0359 81.2747C53.0904 81.2006 53.159 81.1381 53.2379 81.0908C53.3167 81.0434 53.4041 81.0122 53.4951 80.9989C53.5861 80.9856 53.6789 80.9905 53.7679 81.0133L53.9919 81.0719C54.082 81.0944 54.1667 81.1345 54.2411 81.1902C54.3154 81.2459 54.3779 81.3159 54.4248 81.396C54.4717 81.4762 54.5022 81.5648 54.5144 81.6569C54.5266 81.749 54.5203 81.8426 54.4958 81.9322H54.5009ZM55.8574 73.8679L55.6335 73.8093C55.544 73.7873 55.4598 73.7479 55.3857 73.6931C55.3116 73.6384 55.2491 73.5695 55.2017 73.4904C55.1544 73.4114 55.1232 73.3237 55.11 73.2325C55.0967 73.1413 55.1016 73.0484 55.1245 72.9592L55.4095 71.8748C55.4315 71.7856 55.471 71.7016 55.5255 71.6277C55.5801 71.5538 55.6487 71.4913 55.7275 71.444C55.8062 71.3967 55.8936 71.3655 55.9844 71.352C56.0753 71.3386 56.1679 71.3433 56.257 71.3657L56.481 71.4243C56.5704 71.4463 56.6546 71.4857 56.7287 71.5405C56.8028 71.5952 56.8654 71.6641 56.9127 71.7432C56.96 71.8223 56.9912 71.9099 57.0045 72.0011C57.0178 72.0923 57.0128 72.1852 56.99 72.2744L56.7075 73.3588C56.6852 73.4486 56.6453 73.5332 56.5902 73.6075C56.535 73.6818 56.4657 73.7445 56.3861 73.7918C56.3066 73.8392 56.2185 73.8704 56.1269 73.8834C56.0352 73.8965 55.9419 73.8911 55.8523 73.8679H55.8574ZM57.0689 79.3155L56.8449 79.2569C56.7557 79.2349 56.6718 79.1954 56.5979 79.1408C56.524 79.0863 56.4616 79.0176 56.4143 78.9388C56.367 78.8601 56.3357 78.7727 56.3223 78.6818C56.3088 78.5909 56.3135 78.4983 56.3359 78.4092L56.6184 77.3223C56.6404 77.2328 56.6799 77.1486 56.7347 77.0744C56.7894 77.0003 56.8583 76.9378 56.9373 76.8905C57.0164 76.8431 57.104 76.8119 57.1951 76.7986C57.2863 76.7854 57.3792 76.7903 57.4685 76.8132L57.6899 76.8717C57.7791 76.8937 57.863 76.9331 57.9369 76.9877C58.0108 77.0423 58.0732 77.1109 58.1205 77.1897C58.1678 77.2684 58.1991 77.3558 58.2125 77.4467C58.226 77.5376 58.2214 77.6303 58.1989 77.7194L57.9138 78.8064C57.8927 78.8965 57.8538 78.9815 57.7994 79.0564C57.745 79.1314 57.6763 79.1948 57.5971 79.2429C57.518 79.291 57.4301 79.3228 57.3385 79.3366C57.247 79.3503 57.1536 79.3458 57.0638 79.323L57.0689 79.3155ZM59.1507 83.1465L58.8657 84.2334C58.8184 84.4112 58.7029 84.5632 58.5441 84.6561C58.3854 84.7491 58.1964 84.7756 58.0182 84.7298L57.7942 84.6712C57.7049 84.6495 57.6207 84.6103 57.5466 84.5558C57.4725 84.5013 57.41 84.4326 57.3627 84.3537C57.3153 84.2749 57.2841 84.1875 57.2708 84.0964C57.2575 84.0054 57.2624 83.9127 57.2852 83.8236L57.5677 82.7367C57.6149 82.5583 57.7309 82.4059 57.8902 82.3128C58.0496 82.2198 58.2392 82.1937 58.4178 82.2402L58.6392 82.2988C58.8177 82.3439 58.9712 82.4577 59.0661 82.6156C59.161 82.7735 59.1896 82.9625 59.1456 83.1414L59.1507 83.1465ZM60.5047 75.0821L60.2833 75.0236C60.1939 75.0019 60.1098 74.9626 60.0357 74.9081C59.9616 74.8536 59.8991 74.785 59.8517 74.7061C59.8044 74.6273 59.7732 74.5399 59.7599 74.4488C59.7466 74.3578 59.7515 74.265 59.7743 74.1759L60.0568 73.0889C60.104 72.9106 60.22 72.7583 60.3793 72.6652C60.5386 72.5722 60.7283 72.5461 60.9068 72.5926L61.1282 72.6512C61.2178 72.6726 61.3021 72.7116 61.3764 72.766C61.4507 72.8204 61.5133 72.8892 61.5607 72.9681C61.6081 73.0471 61.6393 73.1347 61.6525 73.2258C61.6656 73.3169 61.6604 73.4097 61.6372 73.4989L61.3548 74.5858C61.3314 74.6747 61.2907 74.7581 61.235 74.8312C61.1794 74.9043 61.1098 74.9656 61.0303 75.0118C60.9509 75.0579 60.8631 75.0878 60.772 75.0999C60.6809 75.112 60.5884 75.1059 60.4996 75.0821H60.5047ZM61.7162 80.5297L61.4922 80.471C61.403 80.449 61.319 80.4096 61.2451 80.3551C61.1712 80.3005 61.1089 80.2318 61.0616 80.1531C61.0143 80.0743 60.983 79.9869 60.9695 79.896C60.9561 79.8051 60.9607 79.7126 60.9832 79.6235L61.2682 78.5365C61.3155 78.3587 61.4311 78.2068 61.5898 78.1138C61.7485 78.0208 61.9376 77.9943 62.1157 78.0401L62.3397 78.0986C62.4291 78.1206 62.5134 78.1602 62.5875 78.215C62.6616 78.2697 62.7241 78.3385 62.7714 78.4176C62.8187 78.4966 62.8499 78.5843 62.8632 78.6755C62.8765 78.7667 62.8715 78.8595 62.8487 78.9488L62.5662 80.0333C62.5428 80.1221 62.5022 80.2055 62.4465 80.2786C62.3908 80.3517 62.3213 80.4131 62.2418 80.4592C62.1623 80.5053 62.0745 80.5353 61.9835 80.5473C61.8924 80.5594 61.7998 80.5535 61.7111 80.5297H61.7162ZM63.798 84.3632L63.513 85.4476C63.4909 85.5368 63.4515 85.6208 63.3969 85.6947C63.3424 85.7687 63.2737 85.831 63.195 85.8783C63.1162 85.9256 63.0289 85.957 62.938 85.9704C62.8472 85.9839 62.7545 85.9792 62.6655 85.9568L62.4415 85.8982C62.352 85.8762 62.2678 85.8366 62.1937 85.7819C62.1196 85.7271 62.0571 85.6583 62.0098 85.5793C61.9624 85.5002 61.9312 85.4125 61.918 85.3214C61.9047 85.2302 61.9096 85.1373 61.9325 85.048L62.2175 83.9636C62.2396 83.8744 62.279 83.7904 62.3336 83.7165C62.3881 83.6426 62.4567 83.5802 62.5355 83.5329C62.6142 83.4856 62.7016 83.4542 62.7924 83.4408C62.8833 83.4273 62.976 83.432 63.065 83.4545L63.289 83.513C63.378 83.5356 63.4617 83.5755 63.5352 83.6305C63.6087 83.6854 63.6707 83.7544 63.7175 83.8334C63.7643 83.9124 63.7951 83.9999 63.808 84.0909C63.821 84.1818 63.8158 84.2743 63.7929 84.3632H63.798ZM65.1545 76.2964L64.9306 76.2378C64.7528 76.1906 64.6009 76.075 64.5079 75.9163C64.415 75.7575 64.3885 75.5683 64.4343 75.3901L64.7168 74.3032C64.7646 74.1252 64.8807 73.9733 65.0398 73.8803C65.199 73.7874 65.3883 73.761 65.5668 73.8069L65.7908 73.8654C65.8802 73.8874 65.9645 73.9269 66.0386 73.9816C66.1127 74.0364 66.1752 74.1053 66.2225 74.1843C66.2698 74.2634 66.301 74.3511 66.3143 74.4423C66.3276 74.5334 66.3226 74.6263 66.2998 74.7156L66.0147 75.8C65.9918 75.8908 65.9509 75.9759 65.8942 76.0504C65.8376 76.1249 65.7665 76.1872 65.6852 76.2336C65.6039 76.2799 65.5141 76.3094 65.4212 76.3202C65.3283 76.331 65.2341 76.3229 65.1443 76.2964H65.1545ZM67.4985 80.163L67.2135 81.25C67.1915 81.3392 67.152 81.4232 67.0975 81.4971C67.0429 81.571 66.9743 81.6335 66.8955 81.6808C66.8168 81.7281 66.7294 81.7593 66.6386 81.7728C66.5477 81.7862 66.455 81.7816 66.366 81.7591L66.142 81.7005C65.9651 81.6517 65.8145 81.5351 65.7231 81.3759C65.6316 81.2167 65.6065 81.0279 65.6534 80.8504L65.9359 79.766C65.9831 79.5877 66.099 79.4352 66.2584 79.3422C66.4177 79.2491 66.6074 79.223 66.7859 79.2696L67.0073 79.3255C67.1806 79.3756 67.328 79.4907 67.4185 79.6467C67.5091 79.8027 67.5359 79.9877 67.4934 80.163H67.4985ZM70.9343 75.9298L70.6518 77.0168C70.6298 77.1062 70.5903 77.1905 70.5356 77.2646C70.4809 77.3387 70.412 77.4012 70.3329 77.4486C70.2539 77.4959 70.1663 77.5271 70.0751 77.5404C69.9839 77.5537 69.891 77.5487 69.8018 77.5259L69.5804 77.4673C69.4909 77.4453 69.4067 77.4059 69.3326 77.3511C69.2585 77.2964 69.196 77.2274 69.1487 77.1484C69.1013 77.0693 69.0701 76.9817 69.0569 76.8905C69.0436 76.7993 69.0485 76.7064 69.0714 76.6172L69.3564 75.5327C69.3781 75.4433 69.4174 75.3592 69.4719 75.2851C69.5263 75.211 69.595 75.1485 69.6738 75.1011C69.7527 75.0538 69.8401 75.0225 69.9311 75.0092C70.0221 74.9959 70.1148 75.0008 70.2039 75.0236L70.4279 75.0796C70.6068 75.1264 70.76 75.242 70.8539 75.4013C70.9478 75.5606 70.9749 75.7506 70.9292 75.9298H70.9343Z" fill="#FADD6F"/>
<path d="M86.793 131.256L89.7859 121.83L93.5908 127.041L86.793 131.256Z" fill="#71A85A"/>
</svg>
