<svg width="55" height="42" viewBox="0 0 55 42" fill="none" xmlns="http://www.w3.org/2000/svg">
<path d="M13.5006 40.0241C18.9864 33.413 25.4569 27.3645 32.9121 23.0039C38.8199 19.4873 47.541 15.5488 54.5741 17.6587C54.9961 17.7994 54.9961 18.5027 54.5741 18.6434C51.1982 19.3467 47.541 19.4873 44.1651 20.472C40.2265 21.5973 36.5693 23.4259 33.0527 25.6765C26.3009 30.0371 20.8151 36.0856 14.6259 41.2901C13.7819 41.9934 12.7973 40.8681 13.5006 40.0241Z" fill="#F2A84C"/>
<path d="M7.87623 26.0966C10.1268 21.1734 14.0654 17.0942 18.1446 13.7183C20.9579 11.4677 25.5997 7.24781 29.3976 7.95112C29.8196 8.09179 29.8196 8.51378 29.5383 8.7951C25.4591 11.1864 21.5205 13.437 17.8633 16.6722C14.4874 19.7668 11.8148 23.424 8.72021 26.7999C8.43888 27.3626 7.59491 26.6593 7.87623 26.0966Z" fill="#F2A84C"/>
<path d="M10.4085 0.0757235C10.8305 -0.205602 11.3931 0.357049 11.1118 0.779038C9.1425 3.59229 7.03256 5.98356 5.3446 8.93748C3.65665 12.1727 2.81267 15.6893 1.68737 19.2059C1.40604 20.0499 -0.000583816 19.9092 -0.000583902 18.9245C0.140079 12.1727 4.78195 3.73296 10.4085 0.0757235Z" fill="#F2A84C"/>
</svg>
