<svg width="144" height="211" viewBox="0 0 144 211" fill="none" xmlns="http://www.w3.org/2000/svg">
<path opacity="0.2" fill-rule="evenodd" clip-rule="evenodd" d="M65.881 132.013C65.881 132.013 48.0205 164.907 50.1873 169.427C50.1873 169.427 74.1386 191.213 95.6421 204.898C95.6421 204.898 89.0813 194.066 96.3555 180.995C102.024 170.806 106.965 166.282 104.838 150.54L65.881 132.013Z" fill="white"/>
<path fill-rule="evenodd" clip-rule="evenodd" d="M50.1117 168.943C50.1117 168.943 55.3849 176.106 64.4359 173.381C64.4359 173.381 69.9625 171.084 71.9403 165.135C71.9403 165.135 80.114 174.196 86.719 185.113C93.3253 196.032 100.583 202.818 106.191 206.585C106.191 206.585 99.8787 207.02 94.9066 204.147C94.9066 204.147 67.9071 186.836 50.113 168.944L50.1117 168.943Z" fill="#EDB0BE"/>
<path opacity="0.2" fill-rule="evenodd" clip-rule="evenodd" d="M0.289249 88.4788C0.289249 88.4788 14.2139 93.0356 20.7879 87.5393C20.7879 87.5393 24.8422 83.5096 28.2792 65L42 82.8126C42 82.8126 35.9824 98.0399 28.3729 101.798C28.3729 101.798 17.9472 108.074 0.433334 95.2297C0.433334 95.2297 -0.437031 92.6842 0.289249 88.4788Z" fill="white"/>
<path opacity="0.15" fill-rule="evenodd" clip-rule="evenodd" d="M116.882 16.0959C116.882 16.0959 108.997 7.19156 107.676 0.197266C107.676 0.197266 95.5182 20.27 110.144 49.8538L124.996 56.4587C124.996 56.4587 109.599 30.3969 116.882 16.0959Z" fill="white"/>
<path fill-rule="evenodd" clip-rule="evenodd" d="M0.429688 95.2305C0.429688 95.2305 5.1224 97.8416 9.61362 97.8779C9.61362 97.8779 11.7854 101.794 18.7331 103.138C18.7331 103.138 11.3157 103.269 0.429688 95.2305Z" fill="#EDB0BE"/>
</svg>
