<svg width="392" height="236" viewBox="0 0 392 236" fill="none" xmlns="http://www.w3.org/2000/svg">
<path opacity="0.2" d="M24.5359 186C26.0755 183.333 29.9245 183.333 31.4641 186L48.7846 216C50.3242 218.667 48.3997 222 45.3205 222H10.6795C7.60029 222 5.67579 218.667 7.21539 216L24.5359 186Z" fill="white"/>
<path d="M379.551 32.9881C380.419 33.671 381.675 33.5221 382.359 32.6555L385.909 28.1554C386.582 27.3017 386.451 26.0664 385.612 25.3742L381.763 22.1967C380.899 21.4836 380.789 20.2001 381.519 19.3506L384.253 16.17C385.254 15.0049 384.622 13.1926 383.114 12.9024L360.413 8.53601C358.899 8.2448 357.638 9.7039 358.147 11.1594L365.447 32.0622C365.968 33.5537 367.931 33.8808 368.907 32.6389L371.571 29.2516C372.254 28.3829 373.512 28.2327 374.38 28.9164L379.551 32.9881Z" fill="white"/>
</svg>
