<svg width="32" height="32" viewBox="0 0 32 32" fill="none" xmlns="http://www.w3.org/2000/svg">
<path d="M24.6265 22.4413L25.1465 26.6546C25.2799 27.7613 24.0932 28.5346 23.1465 27.9613L18.5332 25.2146C18.2132 25.028 18.1332 24.628 18.3065 24.308C18.9732 23.0813 19.3332 21.6946 19.3332 20.308C19.3332 15.428 15.1465 11.4546 9.99986 11.4546C8.94652 11.4546 7.91986 11.6146 6.95986 11.9346C6.46652 12.0946 5.98653 11.6413 6.10653 11.1346C7.31986 6.2813 11.9865 2.66797 17.5599 2.66797C24.0665 2.66797 29.3332 7.58797 29.3332 13.6546C29.3332 17.2546 27.4799 20.4413 24.6265 22.4413Z" fill="#57B6F0"/>
<path d="M17.3327 20.3065C17.3327 21.8931 16.746 23.3598 15.7593 24.5198C14.4393 26.1198 12.346 27.1465 9.99935 27.1465L6.51935 29.2131C5.93268 29.5731 5.18602 29.0798 5.26602 28.3998L5.59935 25.7731C3.81268 24.5331 2.66602 22.5465 2.66602 20.3065C2.66602 17.9598 3.91935 15.8931 5.83935 14.6665C7.02602 13.8931 8.45268 13.4531 9.99935 13.4531C14.0527 13.4531 17.3327 16.5198 17.3327 20.3065Z" fill="#84CAF4"/>
</svg>
