<svg width="32" height="32" viewBox="0 0 32 32" fill="none" xmlns="http://www.w3.org/2000/svg">
<path d="M10.2001 27.8785C10.1601 27.8785 10.1067 27.9052 10.0667 27.9052C7.48008 26.6252 5.37341 24.5052 4.08008 21.9185C4.08008 21.8785 4.10674 21.8252 4.10674 21.7852C5.73341 22.2652 7.41341 22.6252 9.08008 22.9052C9.37341 24.5852 9.72008 26.2518 10.2001 27.8785Z" fill="#4A86F7"/>
<path d="M27.9207 21.9318C26.6007 24.5852 24.4007 26.7318 21.7207 28.0252C22.2274 26.3318 22.654 24.6252 22.934 22.9052C24.614 22.6252 26.2674 22.2652 27.894 21.7852C27.8807 21.8385 27.9207 21.8918 27.9207 21.9318Z" fill="#4A86F7"/>
<path d="M28.0274 10.2793C26.3474 9.77266 24.654 9.35932 22.934 9.06599C22.654 7.34599 22.2407 5.63932 21.7207 3.97266C24.4807 5.29266 26.7074 7.51932 28.0274 10.2793Z" fill="#4A86F7"/>
<path d="M10.2013 4.11812C9.72127 5.74479 9.37461 7.39812 9.09461 9.07812C7.37461 9.34479 5.66794 9.77146 3.97461 10.2781C5.26794 7.59812 7.41461 5.39812 10.0679 4.07812C10.1079 4.07812 10.1613 4.11812 10.2013 4.11812Z" fill="#4A86F7"/>
<path d="M20.6524 8.78797C17.559 8.4413 14.439 8.4413 11.3457 8.78797C11.679 6.9613 12.1057 5.13464 12.7057 3.37464C12.7324 3.26797 12.719 3.18797 12.7324 3.0813C13.7857 2.82797 14.8657 2.66797 15.999 2.66797C17.119 2.66797 18.2124 2.82797 19.2524 3.0813C19.2657 3.18797 19.2657 3.26797 19.2924 3.37464C19.8924 5.14797 20.319 6.9613 20.6524 8.78797Z" fill="#4A86F7"/>
<path d="M8.78602 20.6543C6.94602 20.321 5.13268 19.8943 3.37268 19.2943C3.26602 19.2677 3.18602 19.281 3.07935 19.2677C2.82602 18.2143 2.66602 17.1343 2.66602 16.001C2.66602 14.881 2.82602 13.7877 3.07935 12.7477C3.18602 12.7343 3.26602 12.7343 3.37268 12.7077C5.14602 12.121 6.94602 11.681 8.78602 11.3477C8.45268 14.441 8.45268 17.561 8.78602 20.6543Z" fill="#4A86F7"/>
<path d="M29.3329 16.001C29.3329 17.1343 29.1729 18.2143 28.9196 19.2677C28.8129 19.281 28.7329 19.2677 28.6262 19.2943C26.8529 19.881 25.0396 20.321 23.2129 20.6543C23.5596 17.561 23.5596 14.441 23.2129 11.3477C25.0396 11.681 26.8662 12.1077 28.6262 12.7077C28.7329 12.7343 28.8129 12.7477 28.9196 12.7477C29.1729 13.801 29.3329 14.881 29.3329 16.001Z" fill="#4A86F7"/>
<path d="M20.6524 23.2148C20.319 25.0548 19.8924 26.8682 19.2924 28.6282C19.2657 28.7348 19.2657 28.8148 19.2524 28.9215C18.2124 29.1748 17.119 29.3348 15.999 29.3348C14.8657 29.3348 13.7857 29.1748 12.7324 28.9215C12.719 28.8148 12.7324 28.7348 12.7057 28.6282C12.119 26.8548 11.679 25.0548 11.3457 23.2148C12.8924 23.3882 14.439 23.5082 15.999 23.5082C17.559 23.5082 19.119 23.3882 20.6524 23.2148Z" fill="#4A86F7"/>
<path d="M21.0171 21.0191C17.6823 21.4398 14.3164 21.4398 10.9816 21.0191C10.5608 17.6843 10.5608 14.3183 10.9816 10.9835C14.3164 10.5628 17.6823 10.5628 21.0171 10.9835C21.4379 14.3183 21.4379 17.6843 21.0171 21.0191Z" fill="#4A86F7"/>
</svg>
