<svg width="32" height="32" viewBox="0 0 32 32" fill="none" xmlns="http://www.w3.org/2000/svg">
<path d="M28.9718 17.0081H24.9999V13.9956C24.9999 13.8156 24.9943 13.6392 24.983 13.4663C26.8312 11.7238 26.9987 9.42688 26.9999 7.02875C26.9999 6.49063 26.5849 6.02875 26.0468 6.00313C25.9118 5.99679 25.777 6.01787 25.6504 6.06509C25.5238 6.1123 25.4081 6.18467 25.3103 6.27784C25.2125 6.371 25.1345 6.48302 25.0812 6.60714C25.0278 6.73126 25.0002 6.8649 24.9999 7C24.9999 8.75 24.8837 10.0094 24.3812 10.99C23.1799 8.41813 20.2699 6.99563 15.9999 6.99563C13.5124 6.99563 11.363 7.56625 9.78553 8.645C8.85428 9.28188 8.14803 10.0769 7.67928 11.0025C7.12491 10.0406 6.99991 8.8125 6.99991 7.02875C6.99991 6.49063 6.58741 6.02875 6.04991 6.00125C5.91455 5.99447 5.77922 6.01528 5.65215 6.06242C5.52507 6.10955 5.40891 6.18202 5.31071 6.27543C5.2125 6.36884 5.13431 6.48124 5.08089 6.60579C5.02746 6.73035 4.99991 6.86447 4.99991 7C4.99991 9.35188 5.16303 11.6081 7.02741 13.3519C7.00949 13.5627 7.00032 13.7773 6.99991 13.9956V17.0081H3.02803C2.48991 17.0081 2.02803 17.4219 2.00116 17.96C1.99464 18.0953 2.01568 18.2305 2.06301 18.3575C2.11034 18.4844 2.18296 18.6004 2.27648 18.6984C2.36999 18.7964 2.48245 18.8744 2.60702 18.9277C2.7316 18.9809 2.86569 19.0083 3.00116 19.0081H7.00116V20C7.00023 21.1499 7.2207 22.2891 7.65053 23.3556C6.04616 24.79 5.01116 26.375 4.99991 28.9588C4.99991 29.505 5.41366 29.9775 5.95991 29.9994C6.0945 30.0048 6.2288 29.9829 6.35474 29.9351C6.48068 29.8873 6.59566 29.8146 6.69279 29.7212C6.78992 29.6279 6.86719 29.5159 6.91997 29.392C6.97274 29.268 6.99993 29.1347 6.99991 29C6.99991 27.2713 7.56866 26.2056 8.63553 25.1675C9.86581 26.9187 11.6785 28.1756 13.7499 28.7138C13.8977 28.7519 14.0522 28.7557 14.2017 28.7249C14.3511 28.6942 14.4916 28.6296 14.6122 28.5361C14.7329 28.4427 14.8305 28.3229 14.8977 28.1858C14.9649 28.0488 14.9999 27.8982 14.9999 27.7456V12.0281C14.9999 11.49 15.4137 11.0281 15.9518 11.0013C16.087 10.9947 16.2221 11.0157 16.349 11.063C16.4758 11.1102 16.5918 11.1828 16.6898 11.2761C16.7878 11.3695 16.8658 11.4818 16.9191 11.6063C16.9724 11.7307 16.9999 11.8646 16.9999 12V27.7456C16.9999 27.8982 17.0349 28.0488 17.1021 28.1858C17.1693 28.3229 17.2669 28.4427 17.3876 28.5361C17.5082 28.6296 17.6487 28.6942 17.7981 28.7249C17.9476 28.7557 18.1021 28.7519 18.2499 28.7138C20.321 28.1753 22.1334 26.9185 23.3637 25.1675C24.4262 26.2013 24.9943 27.2625 24.9993 28.9769C24.997 29.2354 25.0934 29.4852 25.2687 29.6752C25.444 29.8653 25.6851 29.9814 25.943 30C26.0791 30.0078 26.2152 29.9876 26.3432 29.9409C26.4712 29.8941 26.5882 29.8216 26.6872 29.728C26.7862 29.6344 26.865 29.5215 26.9187 29.3963C26.9725 29.2711 27.0001 29.1363 26.9999 29C26.9999 26.395 25.9624 24.7981 24.3505 23.3556C24.7804 22.2891 25.0008 21.1499 24.9999 20V19.0081H28.9999C29.1354 19.0083 29.2695 18.9809 29.394 18.9277C29.5186 18.8744 29.6311 18.7964 29.7246 18.6984C29.8181 18.6004 29.8907 18.4844 29.9381 18.3575C29.9854 18.2305 30.0064 18.0953 29.9999 17.96C29.9737 17.4219 29.5099 17.0081 28.9718 17.0081Z" fill="#D34B6A"/>
<path d="M20.0873 6.5L20.1073 6.50562C20.9554 6.74312 21.6742 5.84625 21.2448 5.0775C20.7259 4.14517 19.9674 3.36835 19.0477 2.82731C18.1281 2.28628 17.0806 2.00067 16.0136 2H15.9873C14.9096 2.00073 13.8519 2.29215 12.9259 2.84355C11.9998 3.39496 11.2397 4.18592 10.7255 5.13312C10.298 5.91937 11.0467 6.82062 11.903 6.56187C13.1348 6.18687 14.5148 5.99563 16.0005 5.99563C17.5061 5.99563 18.8811 6.16563 20.0873 6.5Z" fill="#E79CAD"/>
</svg>
