<svg width="32" height="32" viewBox="0 0 32 32" fill="none" xmlns="http://www.w3.org/2000/svg">
<path fill-rule="evenodd" clip-rule="evenodd" d="M8.00065 21.828V4.81464V3.66797C8.00065 3.1213 7.39621 2.66797 6.66732 2.66797C5.93843 2.66797 5.33398 3.1213 5.33398 3.66797V28.3346C5.33398 28.8813 5.93843 29.3346 6.66732 29.3346C7.39621 29.3346 8.00065 28.8813 8.00065 28.3346V21.828Z" fill="#E0704A"/>
<path d="M22.169 14.7364L23.7549 16.2662C25.0808 17.5577 25.5747 18.7991 25.1458 19.7897C24.7168 20.7803 23.4559 21.332 21.584 21.332H8V5.33203H21.584C23.4819 5.33203 24.7688 5.87122 25.1848 6.84927C25.6137 7.83987 25.1068 9.09379 23.7549 10.3979L22.195 11.9026C21.766 12.3164 21.532 12.8806 21.558 13.4449C21.571 13.959 21.792 14.4229 22.169 14.7364Z" fill="#EFB7A4"/>
</svg>
