<svg width="24" height="24" viewBox="0 0 24 24" fill="none" xmlns="http://www.w3.org/2000/svg">
<path fill-rule="evenodd" clip-rule="evenodd" d="M13.7491 19.5C13.7491 19.0858 14.0848 18.75 14.4991 18.75H18.4991C18.9133 18.75 19.2491 19.0858 19.2491 19.5C19.2491 19.9142 18.9133 20.25 18.4991 20.25H14.4991C14.0848 20.25 13.7491 19.9142 13.7491 19.5Z" fill="#A5ADC5"/>
<path fill-rule="evenodd" clip-rule="evenodd" d="M16.4991 16.75C16.9133 16.75 17.2491 17.0858 17.2491 17.5V21.5C17.2491 21.9142 16.9133 22.25 16.4991 22.25C16.0848 22.25 15.7491 21.9142 15.7491 21.5V17.5C15.7491 17.0858 16.0848 16.75 16.4991 16.75Z" fill="#A5ADC5"/>
<path fill-rule="evenodd" clip-rule="evenodd" d="M11.9891 2.75C9.95268 2.75 8.30076 4.40413 8.30906 6.43694L8.30907 6.44C8.30906 8.42302 9.85814 10.032 11.8139 10.1189C11.9325 10.1106 12.0578 10.1102 12.176 10.1188C14.1224 10.0308 15.6791 8.42113 15.6791 6.44C15.6791 4.40421 14.0248 2.75 11.9891 2.75ZM6.80906 6.44153C6.79819 3.57504 9.12595 1.25 11.9891 1.25C14.8533 1.25 17.1791 3.57579 17.1791 6.44C17.1791 9.24456 14.9583 11.5259 12.1844 11.6196C12.151 11.6207 12.1176 11.6196 12.0844 11.6163C12.0362 11.6115 11.9642 11.6108 11.897 11.6169C11.866 11.6197 11.8349 11.6206 11.8039 11.6196C9.01917 11.526 6.80987 9.2442 6.80906 6.44153Z" fill="#A5ADC5"/>
<path fill-rule="evenodd" clip-rule="evenodd" d="M11.9841 13.93C10.2831 13.93 8.62192 14.3632 7.39613 15.1833L7.39449 15.1844C6.34107 15.8853 5.91406 16.7356 5.91406 17.4913C5.91406 18.2473 6.34146 19.1004 7.3957 19.8064C8.62727 20.6272 10.284 21.06 11.9891 21.06C12.4033 21.06 12.7391 21.3958 12.7391 21.81C12.7391 22.2242 12.4033 22.56 11.9891 22.56C10.0544 22.56 8.0914 22.0729 6.56304 21.054L6.56185 21.0532C5.1965 20.1393 4.41406 18.8626 4.41406 17.4913C4.41406 16.1197 5.19674 14.8452 6.56281 13.9361C8.08691 12.9166 10.0553 12.43 11.9841 12.43C13.9131 12.43 15.8819 12.9168 17.4061 13.9367C17.7504 14.167 17.8427 14.6328 17.6124 14.9771C17.3821 15.3213 16.9163 15.4137 16.572 15.1833C15.3462 14.3632 13.685 13.93 11.9841 13.93Z" fill="#A5ADC5"/>
</svg>
