<svg width="42" height="42" viewBox="0 0 42 42" fill="none" xmlns="http://www.w3.org/2000/svg">
<path d="M35.3684 13.6845L21.8934 21.4895C21.3509 21.8045 20.6684 21.8045 20.1084 21.4895L6.63336 13.6845C5.67086 13.1245 5.42586 11.812 6.16086 10.9895C6.66836 10.412 7.24586 9.93953 7.85836 9.60703L17.3434 4.35703C19.3734 3.21953 22.6634 3.21953 24.6934 4.35703L34.1784 9.60703C34.7909 9.93953 35.3684 10.4295 35.8759 10.9895C36.5759 11.812 36.3309 13.1245 35.3684 13.6845Z" fill="white"/>
<path opacity="0.5" d="M20.0023 24.746V36.681C20.0023 38.011 18.6548 38.886 17.4648 38.3085C13.8598 36.541 7.78734 33.2335 7.78734 33.2335C5.65234 32.026 3.90234 28.981 3.90234 26.4785V17.4485C3.90234 16.066 5.35484 15.191 6.54484 15.8735L19.1273 23.171C19.6523 23.5035 20.0023 24.0985 20.0023 24.746Z" fill="white"/>
<path opacity="0.5" d="M21.998 24.746V36.681C21.998 38.011 23.3455 38.886 24.5355 38.3085C28.1405 36.541 34.213 33.2335 34.213 33.2335C36.348 32.026 38.0981 28.981 38.0981 26.4785V17.4485C38.0981 16.066 36.6456 15.191 35.4556 15.8735L22.873 23.171C22.348 23.5035 21.998 24.0985 21.998 24.746Z" fill="white"/>
</svg>
