<svg width="32" height="32" viewBox="0 0 32 32" fill="none" xmlns="http://www.w3.org/2000/svg">
<path d="M15.9993 2.66797C8.65268 2.66797 2.66602 8.65464 2.66602 16.0013C2.66602 23.348 8.65268 29.3346 15.9993 29.3346C23.346 29.3346 29.3327 23.348 29.3327 16.0013C29.3327 8.65464 23.346 2.66797 15.9993 2.66797ZM21.7993 20.7613C21.6127 21.0813 21.2793 21.2546 20.9327 21.2546C20.7593 21.2546 20.586 21.2146 20.426 21.108L16.2927 18.6413C15.266 18.028 14.506 16.6813 14.506 15.4946V10.028C14.506 9.4813 14.9593 9.02797 15.506 9.02797C16.0527 9.02797 16.506 9.4813 16.506 10.028V15.4946C16.506 15.9746 16.906 16.6813 17.3193 16.9213L21.4527 19.388C21.9327 19.668 22.0927 20.2813 21.7993 20.7613Z" fill="#83BF6E"/>
</svg>
