<svg width="1920" height="498" viewBox="0 0 1920 498" fill="none" xmlns="http://www.w3.org/2000/svg">
<g clip-path="url(#clip0_3349_44550)">
<path d="M-586.5 360.5C-509 360.5 -497.5 309.5 -447 309.5C-390 309.5 -376 388.5 -294 387C-212 385.5 -205 299 -155.5 299C-99.5 299 -82.5 418 -33 410.5C16.5 403 18.5 103.399 131 361C243.5 618.601 265 18.5 461.773 32.7049C663.083 47.2374 544.592 389.554 712.696 420.541C880.8 451.528 821.643 122.667 944.887 129.164C1068.13 135.661 1142.57 519.999 1254.97 497.008C1367.37 474.018 1249.54 -11.7764 1401.87 0.218486C1554.2 12.2134 1556.67 414.543 1673.5 345.073C1766.97 289.496 1673.5 32.7049 1814 227.123C1954.5 421.54 1920.42 155.321 1978 145C2031 135.5 2058 227.123 2124.5 227.123C2191 227.123 2162.5 145 2218 145C2273.5 145 2257.5 227.123 2333.5 227.123C2409.5 227.123 2396.5 178.5 2448 178.5C2499.5 178.5 2530.5 219.5 2564.5 219.5" stroke="#EDF3FE" stroke-width="4"/>
<path d="M239.098 367.553C239.283 364.305 236.801 361.521 233.553 361.336C230.306 361.15 227.522 363.632 227.336 366.88C227.151 370.129 229.633 372.912 232.881 373.098C236.128 373.284 238.912 370.801 239.098 367.553Z" fill="#F2A84C"/>
<path d="M246.098 350.553C246.283 347.305 243.801 344.522 240.553 344.336C237.306 344.15 234.522 346.633 234.336 349.881C234.151 353.129 236.633 355.912 239.881 356.098C243.128 356.284 245.912 353.801 246.098 350.553Z" fill="#F2A84C"/>
<path d="M266.098 301.553C266.283 298.305 263.801 295.522 260.553 295.336C257.306 295.15 254.522 297.633 254.336 300.881C254.151 304.129 256.633 306.912 259.881 307.098C263.128 307.284 265.912 304.801 266.098 301.553Z" fill="#F2A84C"/>
</g>
<defs>
<clipPath id="clip0_3349_44550">
<rect width="2560" height="498" fill="white" transform="translate(-320)"/>
</clipPath>
</defs>
</svg>
