<svg width="778" height="160" viewBox="0 0 778 160" fill="none" xmlns="http://www.w3.org/2000/svg">
<g clip-path="url(#clip0_3349_44557)">
<path d="M723.233 0.405737C749.758 1.12405 773.245 1.69795 791.275 -0.36556L791.502 1.62147C773.302 3.70455 749.655 3.122 723.179 2.405L721.24 2.35242C695.242 1.64695 666.553 0.868458 637.475 2.34491C577.842 5.37289 516.806 17.8788 474.218 59.7215C406.379 126.373 333.495 132.112 288.342 111.771C242.27 91.015 195.068 101.826 145.713 118.802C135.608 122.278 125.411 126.013 115.12 129.783C84.9244 140.844 53.9126 152.778 22 159.035L-6.93784e-06 160.345C39.3388 156.267 77.2856 141.506 114.29 127.954L114.291 127.953C124.618 124.171 134.872 120.416 145.062 116.911C194.455 99.9224 242.327 88.8473 289.163 109.947C333.441 129.895 405.463 124.469 472.816 58.2949C515.946 15.9194 577.616 3.38179 637.374 0.347485C666.53 -1.13298 695.287 -0.352612 721.269 0.352462L723.233 0.405737Z" fill="#EBEEF2"/>
<path d="M759.442 67.9072C783.516 74.9602 805.105 79.5534 822.891 77.5178L823.232 80.4983C804.788 82.6092 782.682 77.842 758.598 70.7862C748.348 67.7832 737.694 64.3508 726.775 60.833C724.843 60.2107 722.904 59.5858 720.956 58.96C707.99 54.7938 694.678 50.5894 681.191 46.887C627.174 32.0589 570.796 25.4191 523.465 61.1942C459.919 109.226 410.858 131.679 355.588 113.422C331.712 105.536 303.79 105.428 273.548 109.886C243.315 114.343 210.885 123.344 178.042 133.569C165.104 137.597 152.088 141.82 139.122 146.026L139.121 146.027L117.5 152.999L105 153.836C115.947 150.391 127.006 146.803 138.117 143.198L138.117 143.198C151.091 138.989 164.134 134.757 177.15 130.705C210.026 120.469 242.637 111.41 273.111 106.918C303.575 102.427 332.025 102.48 356.529 110.574C410.263 128.322 458.199 106.765 521.656 58.8009C570.19 22.1166 627.832 29.1286 681.985 43.994C695.539 47.7148 708.904 51.9364 721.874 56.1039C723.826 56.7311 725.769 57.3571 727.702 57.9799L727.704 57.9803C738.624 61.4985 749.234 64.9166 759.442 67.9072Z" fill="#DCDEE4"/>
<circle cx="589" cy="34" r="7" fill="#DCDEE4"/>
<circle cx="545.06" cy="46" r="7" fill="#DCDEE4"/>
<circle cx="186.06" cy="105" r="7" fill="#EBEEF2"/>
</g>
<defs>
<clipPath id="clip0_3349_44557">
<rect width="778" height="160" fill="white"/>
</clipPath>
</defs>
</svg>
