<svg width="603" height="340" viewBox="0 0 603 340" fill="none" xmlns="http://www.w3.org/2000/svg">
<path d="M345.252 7.87988C381.181 15.8088 414.102 27.9653 439.49 48.0702C464.909 68.1992 482.727 96.2569 488.49 135.855C498.217 202.703 523.654 258.772 553.704 294.67C583.823 330.65 618.226 346.03 646.065 332.599L646.935 334.4C617.774 348.469 582.427 332.099 552.171 295.954C521.846 259.727 496.283 203.296 486.51 136.143C480.822 97.0512 463.268 69.451 438.248 49.6381C413.198 29.801 380.612 17.7313 344.821 9.83289C327.133 5.92952 308.684 3.04906 290 0.750729L301 0.160156C316.054 2.2173 330.9 4.71267 345.252 7.87988Z" fill="#EBEEF2"/>
<path d="M93.9216 14.2651C107.503 13.5943 121.387 12.9085 135.464 12.2785C189.941 9.84083 247.259 8.24384 300.844 11.6246C354.413 15.0043 404.368 23.3641 444.075 40.9072C483.818 58.4665 513.394 85.2777 525.932 125.554C547.334 194.301 587.838 237.982 629.981 261.075C672.191 284.204 715.91 286.628 743.848 273.149L745.152 275.851C716.09 289.872 671.322 287.149 628.539 263.705C585.689 240.225 544.692 195.906 523.068 126.445C510.856 87.2203 482.057 60.968 442.863 43.6513C403.632 26.3183 354.087 17.9897 300.656 14.6186C247.241 11.2487 190.059 12.8386 135.598 15.2755C121.563 15.9036 107.705 16.5881 94.1384 17.2583L94.1382 17.2583C60.3615 18.9268 28.3937 19.0086 0 19.0004L54 15.6074C66.9264 15.3537 80.2709 14.9394 93.9216 14.2651Z" fill="#EBEEF2"/>
<path d="M501.823 182.675C502.012 179.367 499.484 176.532 496.175 176.343C492.867 176.153 490.032 178.682 489.843 181.99C489.653 185.299 492.182 188.134 495.49 188.323C498.799 188.512 501.634 185.984 501.823 182.675Z" fill="#EBEEF2"/>
<path d="M508.823 199.675C509.012 196.367 506.484 193.532 503.175 193.343C499.867 193.153 497.032 195.682 496.843 198.99C496.653 202.299 499.182 205.134 502.49 205.323C505.799 205.512 508.634 202.984 508.823 199.675Z" fill="#EBEEF2"/>
<path d="M510.877 86.7874C511.098 82.9277 508.148 79.6199 504.288 79.3991C500.428 79.1784 497.12 82.1283 496.9 85.988C496.679 89.8477 499.629 93.1555 503.489 93.3763C507.348 93.597 510.656 90.6471 510.877 86.7874Z" fill="#EBEEF2"/>
</svg>
