<svg width="297" height="290" viewBox="0 0 297 290" fill="none" xmlns="http://www.w3.org/2000/svg">
<g filter="url(#filter0_d_3287_43937)">
<rect x="58" y="55.4062" width="140" height="160" rx="12" transform="rotate(-5 58 55.4062)" fill="white"/>
</g>
<rect x="103" y="97" width="64" height="64" rx="10" fill="#EDF3FE"/>
<path d="M141.984 112.332H128.017C121.951 112.332 118.334 115.949 118.334 122.015V135.965C118.334 142.049 121.951 145.665 128.017 145.665H141.967C148.034 145.665 151.651 142.049 151.651 135.982V122.015C151.667 115.949 148.051 112.332 141.984 112.332ZM142.967 125.165L133.517 134.615C133.284 134.849 132.967 134.982 132.634 134.982C132.301 134.982 131.984 134.849 131.751 134.615L127.034 129.899C126.551 129.415 126.551 128.615 127.034 128.132C127.517 127.649 128.317 127.649 128.801 128.132L132.634 131.965L141.201 123.399C141.684 122.915 142.484 122.915 142.967 123.399C143.451 123.882 143.451 124.665 142.967 125.165Z" fill="#4A86F7"/>
<path d="M286.493 120.541C286.661 119.01 285.11 117.872 283.7 118.492L271.016 124.069C269.607 124.689 269.397 126.602 270.638 127.513L281.81 135.709C283.052 136.62 284.814 135.845 284.982 134.314L286.493 120.541Z" fill="#EBEEF2"/>
<circle cx="89" cy="22" r="5" fill="#EBEEF2"/>
<circle cx="247" cy="210" r="3" fill="#EBEEF2"/>
<defs>
<filter id="filter0_d_3287_43937" x="-0.000518799" y="0.203125" width="271.413" height="289.594" filterUnits="userSpaceOnUse" color-interpolation-filters="sRGB">
<feFlood flood-opacity="0" result="BackgroundImageFix"/>
<feColorMatrix in="SourceAlpha" type="matrix" values="0 0 0 0 0 0 0 0 0 0 0 0 0 0 0 0 0 0 127 0" result="hardAlpha"/>
<feOffset dx="1" dy="16"/>
<feGaussianBlur stdDeviation="30"/>
<feComposite in2="hardAlpha" operator="out"/>
<feColorMatrix type="matrix" values="0 0 0 0 0.575 0 0 0 0 0.606167 0 0 0 0 0.716667 0 0 0 0.12 0"/>
<feBlend mode="normal" in2="BackgroundImageFix" result="effect1_dropShadow_3287_43937"/>
<feBlend mode="normal" in="SourceGraphic" in2="effect1_dropShadow_3287_43937" result="shape"/>
</filter>
</defs>
</svg>
