<svg width="204" height="48" viewBox="0 0 204 48" fill="none" xmlns="http://www.w3.org/2000/svg">
<path d="M100.098 5.8541C100.697 4.01148 103.303 4.01148 103.902 5.8541L106.939 15.2016C107.207 16.0257 107.975 16.5836 108.841 16.5836H118.67C120.607 16.5836 121.413 19.0628 119.846 20.2016L111.894 25.9787C111.193 26.488 110.9 27.3907 111.168 28.2148L114.205 37.5623C114.803 39.4049 112.694 40.9372 111.127 39.7984L103.176 34.0213C102.475 33.512 101.525 33.512 100.824 34.0213L92.873 39.7984C91.3055 40.9372 89.1966 39.4049 89.7953 37.5623L92.8325 28.2148C93.1002 27.3907 92.8069 26.488 92.1059 25.9787L84.1544 20.2016C82.587 19.0628 83.3926 16.5836 85.33 16.5836H95.1586C96.025 16.5836 96.7929 16.0257 97.0607 15.2016L100.098 5.8541Z" fill="#F2A84C"/>
<path d="M52.0979 13.8541C52.6966 12.0115 55.3034 12.0115 55.9021 13.8541L58.0413 20.4377C58.309 21.2617 59.0769 21.8197 59.9434 21.8197H66.8658C68.8032 21.8197 69.6088 24.2989 68.0413 25.4377L62.441 29.5066C61.74 30.0159 61.4467 30.9186 61.7145 31.7426L63.8536 38.3262C64.4523 40.1689 62.3433 41.7011 60.7759 40.5623L55.1756 36.4934C54.4746 35.9841 53.5254 35.9841 52.8244 36.4934L47.2241 40.5623C45.6567 41.7011 43.5477 40.1689 44.1464 38.3262L46.2855 31.7426C46.5533 30.9186 46.26 30.0159 45.559 29.5066L39.9587 25.4377C38.3912 24.2989 39.1968 21.8197 41.1342 21.8197H48.0566C48.9231 21.8197 49.691 21.2617 49.9587 20.4377L52.0979 13.8541Z" fill="#F2A84C"/>
<path d="M14.0979 21.8541C14.6966 20.0115 17.3034 20.0115 17.9021 21.8541L19.1432 25.6738C19.4109 26.4978 20.1789 27.0557 21.0453 27.0557H25.0615C26.999 27.0557 27.8045 29.535 26.2371 30.6738L22.9879 33.0344C22.2869 33.5437 21.9936 34.4465 22.2614 35.2705L23.5024 39.0902C24.1012 40.9328 21.9922 42.465 20.4248 41.3262L17.1756 38.9656C16.4746 38.4563 15.5254 38.4563 14.8244 38.9656L11.5752 41.3262C10.0078 42.465 7.89885 40.9328 8.49755 39.0902L9.73863 35.2705C10.0064 34.4465 9.71306 33.5437 9.01209 33.0344L5.76289 30.6738C4.19546 29.535 5.00102 27.0557 6.93846 27.0557H10.9547C11.8211 27.0557 12.5891 26.4978 12.8568 25.6738L14.0979 21.8541Z" fill="#F2A84C"/>
<path d="M148.098 13.8541C148.697 12.0115 151.303 12.0115 151.902 13.8541L154.041 20.4377C154.309 21.2617 155.077 21.8197 155.943 21.8197H162.866C164.803 21.8197 165.609 24.2989 164.041 25.4377L158.441 29.5066C157.74 30.0159 157.447 30.9186 157.714 31.7426L159.854 38.3262C160.452 40.1689 158.343 41.7011 156.776 40.5623L151.176 36.4934C150.475 35.9841 149.525 35.9841 148.824 36.4934L143.224 40.5623C141.657 41.7011 139.548 40.1689 140.146 38.3262L142.286 31.7426C142.553 30.9186 142.26 30.0159 141.559 29.5066L135.959 25.4377C134.391 24.2989 135.197 21.8197 137.134 21.8197H144.057C144.923 21.8197 145.691 21.2617 145.959 20.4377L148.098 13.8541Z" fill="#F2A84C"/>
<path d="M186.098 21.8541C186.697 20.0115 189.303 20.0115 189.902 21.8541L191.143 25.6738C191.411 26.4978 192.179 27.0557 193.045 27.0557H197.062C198.999 27.0557 199.805 29.535 198.237 30.6738L194.988 33.0344C194.287 33.5437 193.994 34.4465 194.261 35.2705L195.502 39.0902C196.101 40.9328 193.992 42.465 192.425 41.3262L189.176 38.9656C188.475 38.4563 187.525 38.4563 186.824 38.9656L183.575 41.3262C182.008 42.465 179.899 40.9328 180.498 39.0902L181.739 35.2705C182.006 34.4465 181.713 33.5437 181.012 33.0344L177.763 30.6738C176.195 29.535 177.001 27.0557 178.938 27.0557H182.955C183.821 27.0557 184.589 26.4978 184.857 25.6738L186.098 21.8541Z" fill="#F2A84C"/>
</svg>
