<svg width="28" height="28" viewBox="0 0 28 28" fill="none" xmlns="http://www.w3.org/2000/svg">
<path d="M19.5872 0.666016H8.41384C3.56051 0.666016 0.667175 3.55935 0.667175 8.41268V19.5727C0.667175 24.4394 3.56051 27.3327 8.41384 27.3327H19.5738C24.4272 27.3327 27.3205 24.4394 27.3205 19.586V8.41268C27.3338 3.55935 24.4405 0.666016 19.5872 0.666016ZM20.3738 10.9327L12.8138 18.4927C12.6272 18.6794 12.3738 18.786 12.1072 18.786C11.8405 18.786 11.5872 18.6794 11.4005 18.4927L7.62718 14.7194C7.24051 14.3327 7.24051 13.6927 7.62718 13.306C8.01384 12.9194 8.65384 12.9194 9.04051 13.306L12.1072 16.3727L18.9605 9.51935C19.3472 9.13268 19.9872 9.13268 20.3738 9.51935C20.7605 9.90602 20.7605 10.5327 20.3738 10.9327Z" fill="#83BF6E"/>
</svg>
