<svg width="72" height="72" viewBox="0 0 72 72" fill="none" xmlns="http://www.w3.org/2000/svg">
<rect opacity="0.1" width="72" height="72" rx="12" fill="white"/>
<path opacity="0.7" d="M54.5002 30.2994C49.8802 23.0394 43.1202 18.8594 36.0002 18.8594C32.4402 18.8594 28.9802 19.8994 25.8202 21.8394C22.6602 23.7994 19.8202 26.6594 17.5002 30.2994C15.5002 33.4394 15.5002 38.5394 17.5002 41.6794C22.1202 48.9594 28.8802 53.1194 36.0002 53.1194C39.5602 53.1194 43.0202 52.0794 46.1802 50.1394C49.3402 48.1794 52.1802 45.3194 54.5002 41.6794C56.5002 38.5594 56.5002 33.4394 54.5002 30.2994ZM36.0002 44.0794C31.5202 44.0794 27.9202 40.4594 27.9202 35.9994C27.9202 31.5394 31.5202 27.9194 36.0002 27.9194C40.4802 27.9194 44.0802 31.5394 44.0802 35.9994C44.0802 40.4594 40.4802 44.0794 36.0002 44.0794Z" fill="white"/>
<path d="M35.9997 30.2812C32.8597 30.2812 30.2997 32.8412 30.2997 36.0012C30.2997 39.1413 32.8597 41.7013 35.9997 41.7013C39.1397 41.7013 41.7197 39.1413 41.7197 36.0012C41.7197 32.8612 39.1397 30.2812 35.9997 30.2812Z" fill="white"/>
</svg>
