<svg width="72" height="72" viewBox="0 0 72 72" fill="none" xmlns="http://www.w3.org/2000/svg">
<rect opacity="0.1" width="72" height="72" rx="12" fill="white"/>
<path d="M45.4997 19.12V16C45.4997 15.18 44.8197 14.5 43.9997 14.5C43.1797 14.5 42.4997 15.18 42.4997 16V19H29.4997V16C29.4997 15.18 28.8197 14.5 27.9997 14.5C27.1797 14.5 26.4997 15.18 26.4997 16V19.12C21.0997 19.62 18.4797 22.84 18.0797 27.62C18.0397 28.2 18.5197 28.68 19.0797 28.68H52.9197C53.4997 28.68 53.9797 28.18 53.9197 27.62C53.5197 22.84 50.8997 19.62 45.4997 19.12Z" fill="white"/>
<path opacity="0.7" d="M52 31.6797H20C18.9 31.6797 18 32.5797 18 33.6797V45.9997C18 51.9997 21 55.9997 28 55.9997H44C51 55.9997 54 51.9997 54 45.9997V33.6797C54 32.5797 53.1 31.6797 52 31.6797ZM30.42 48.4197C30.32 48.4997 30.22 48.5997 30.12 48.6597C30 48.7397 29.88 48.7997 29.76 48.8397C29.64 48.8997 29.52 48.9397 29.4 48.9597C29.26 48.9797 29.14 48.9997 29 48.9997C28.74 48.9997 28.48 48.9397 28.24 48.8397C27.98 48.7397 27.78 48.5997 27.58 48.4197C27.22 48.0397 27 47.5197 27 46.9997C27 46.4797 27.22 45.9597 27.58 45.5797C27.78 45.3997 27.98 45.2597 28.24 45.1597C28.6 44.9997 29 44.9597 29.4 45.0397C29.52 45.0597 29.64 45.0997 29.76 45.1597C29.88 45.1997 30 45.2597 30.12 45.3397C30.22 45.4197 30.32 45.4997 30.42 45.5797C30.78 45.9597 31 46.4797 31 46.9997C31 47.5197 30.78 48.0397 30.42 48.4197ZM30.42 41.4197C30.04 41.7797 29.52 41.9997 29 41.9997C28.48 41.9997 27.96 41.7797 27.58 41.4197C27.22 41.0397 27 40.5197 27 39.9997C27 39.4797 27.22 38.9597 27.58 38.5797C28.14 38.0197 29.02 37.8397 29.76 38.1597C30.02 38.2597 30.24 38.3997 30.42 38.5797C30.78 38.9597 31 39.4797 31 39.9997C31 40.5197 30.78 41.0397 30.42 41.4197ZM37.42 48.4197C37.04 48.7797 36.52 48.9997 36 48.9997C35.48 48.9997 34.96 48.7797 34.58 48.4197C34.22 48.0397 34 47.5197 34 46.9997C34 46.4797 34.22 45.9597 34.58 45.5797C35.32 44.8397 36.68 44.8397 37.42 45.5797C37.78 45.9597 38 46.4797 38 46.9997C38 47.5197 37.78 48.0397 37.42 48.4197ZM37.42 41.4197C37.32 41.4997 37.22 41.5797 37.12 41.6597C37 41.7397 36.88 41.7997 36.76 41.8397C36.64 41.8997 36.52 41.9397 36.4 41.9597C36.26 41.9797 36.14 41.9997 36 41.9997C35.48 41.9997 34.96 41.7797 34.58 41.4197C34.22 41.0397 34 40.5197 34 39.9997C34 39.4797 34.22 38.9597 34.58 38.5797C34.76 38.3997 34.98 38.2597 35.24 38.1597C35.98 37.8397 36.86 38.0197 37.42 38.5797C37.78 38.9597 38 39.4797 38 39.9997C38 40.5197 37.78 41.0397 37.42 41.4197ZM44.42 48.4197C44.04 48.7797 43.52 48.9997 43 48.9997C42.48 48.9997 41.96 48.7797 41.58 48.4197C41.22 48.0397 41 47.5197 41 46.9997C41 46.4797 41.22 45.9597 41.58 45.5797C42.32 44.8397 43.68 44.8397 44.42 45.5797C44.78 45.9597 45 46.4797 45 46.9997C45 47.5197 44.78 48.0397 44.42 48.4197ZM44.42 41.4197C44.32 41.4997 44.22 41.5797 44.12 41.6597C44 41.7397 43.88 41.7997 43.76 41.8397C43.64 41.8997 43.52 41.9397 43.4 41.9597C43.26 41.9797 43.12 41.9997 43 41.9997C42.48 41.9997 41.96 41.7797 41.58 41.4197C41.22 41.0397 41 40.5197 41 39.9997C41 39.4797 41.22 38.9597 41.58 38.5797C41.78 38.3997 41.98 38.2597 42.24 38.1597C42.6 37.9997 43 37.9597 43.4 38.0397C43.52 38.0597 43.64 38.0997 43.76 38.1597C43.88 38.1997 44 38.2597 44.12 38.3397C44.22 38.4197 44.32 38.4997 44.42 38.5797C44.78 38.9597 45 39.4797 45 39.9997C45 40.5197 44.78 41.0397 44.42 41.4197Z" fill="white"/>
</svg>
