<svg width="72" height="72" viewBox="0 0 72 72" fill="none" xmlns="http://www.w3.org/2000/svg">
<rect opacity="0.1" width="72" height="72" rx="12" fill="white"/>
<path opacity="0.7" d="M50.6797 40.98L48.6797 37.66C48.2597 36.92 47.8797 35.52 47.8797 34.7V29.64C47.8797 24.94 45.1197 20.88 41.1397 18.98C40.0997 17.14 38.1797 16 35.9797 16C33.7997 16 31.8397 17.18 30.7997 19.04C26.8997 20.98 24.1997 25 24.1997 29.64V34.7C24.1997 35.52 23.8197 36.92 23.3997 37.64L21.3797 40.98C20.5797 42.32 20.3997 43.8 20.8997 45.16C21.3797 46.5 22.5197 47.54 23.9997 48.04C27.8797 49.36 31.9597 50 36.0397 50C40.1197 50 44.1997 49.36 48.0797 48.06C49.4797 47.6 50.5597 46.54 51.0797 45.16C51.5997 43.78 51.4597 42.26 50.6797 40.98Z" fill="white"/>
<path d="M41.6597 52.02C40.8197 54.34 38.5997 56 35.9997 56C34.4197 56 32.8597 55.36 31.7597 54.22C31.1197 53.62 30.6397 52.82 30.3597 52C30.6197 52.04 30.8797 52.06 31.1597 52.1C31.6197 52.16 32.0997 52.22 32.5797 52.26C33.7197 52.36 34.8797 52.42 36.0397 52.42C37.1797 52.42 38.3197 52.36 39.4397 52.26C39.8597 52.22 40.2797 52.2 40.6797 52.14C40.9997 52.1 41.3197 52.06 41.6597 52.02Z" fill="white"/>
</svg>
