<svg width="72" height="72" viewBox="0 0 72 72" fill="none" xmlns="http://www.w3.org/2000/svg">
<rect opacity="0.1" width="72" height="72" rx="12" fill="white"/>
<path d="M49.5 28V32.2C48.62 32.08 47.62 32.02 46.5 32V28C46.5 21.7 44.72 17.5 36 17.5C27.28 17.5 25.5 21.7 25.5 28V32C24.38 32.02 23.38 32.08 22.5 32.2V28C22.5 22.2 23.9 14.5 36 14.5C48.1 14.5 49.5 22.2 49.5 28Z" fill="white"/>
<path opacity="0.7" d="M49.5 32.2C48.62 32.08 47.62 32.02 46.5 32H25.5C24.38 32.02 23.38 32.08 22.5 32.2C17.4 32.82 16 35.32 16 42V46C16 54 18 56 26 56H46C54 56 56 54 56 46V42C56 35.32 54.6 32.82 49.5 32.2ZM29.42 45.42C29.04 45.78 28.52 46 28 46C27.74 46 27.48 45.94 27.24 45.84C26.98 45.74 26.78 45.6 26.58 45.42C26.22 45.04 26 44.52 26 44C26 43.74 26.06 43.48 26.16 43.24C26.26 43 26.4 42.78 26.58 42.58C26.78 42.4 26.98 42.26 27.24 42.16C27.98 41.84 28.86 42.02 29.42 42.58C29.6 42.78 29.74 43 29.84 43.24C29.94 43.48 30 43.74 30 44C30 44.52 29.78 45.04 29.42 45.42ZM37.84 44.76C37.74 45 37.6 45.22 37.42 45.42C37.04 45.78 36.52 46 36 46C35.46 46 34.96 45.78 34.58 45.42C34.4 45.22 34.26 45 34.16 44.76C34.06 44.52 34 44.26 34 44C34 43.46 34.22 42.96 34.58 42.58C35.32 41.84 36.66 41.84 37.42 42.58C37.78 42.96 38 43.46 38 44C38 44.26 37.94 44.52 37.84 44.76ZM45.42 45.42C45.04 45.78 44.52 46 44 46C43.48 46 42.96 45.78 42.58 45.42C42.22 45.04 42 44.54 42 44C42 43.46 42.22 42.96 42.58 42.58C43.34 41.84 44.68 41.84 45.42 42.58C45.5 42.68 45.58 42.78 45.66 42.9C45.74 43 45.8 43.12 45.84 43.24C45.9 43.36 45.94 43.48 45.96 43.6C45.98 43.74 46 43.88 46 44C46 44.52 45.78 45.04 45.42 45.42Z" fill="white"/>
</svg>
