<svg width="84" height="84" viewBox="0 0 84 84" fill="none" xmlns="http://www.w3.org/2000/svg">
<path opacity="0.1" d="M84 12C84 5.37258 78.6274 0 72 0H12C5.37258 0 -5.96046e-08 5.37258 -5.96046e-08 12V72C-5.96046e-08 78.6274 5.37258 84 12 84H72C78.6274 84 84 78.6274 84 72V12Z" fill="white"/>
<path opacity="0.7" d="M33 27H32.5V22C32.5 21.18 31.82 20.5 31 20.5C30.18 20.5 29.5 21.18 29.5 22V27H29C25.82 27 24 28.82 24 32V44C24 47.18 25.82 49 29 49H29.5V62C29.5 62.82 30.18 63.5 31 63.5C31.82 63.5 32.5 62.82 32.5 62V49H33C36.18 49 38 47.18 38 44V32C38 28.82 36.18 27 33 27Z" fill="white"/>
<path d="M55 35H54.5V22C54.5 21.18 53.82 20.5 53 20.5C52.18 20.5 51.5 21.18 51.5 22V35H51C47.82 35 46 36.82 46 40V52C46 55.18 47.82 57 51 57H51.5V62C51.5 62.82 52.18 63.5 53 63.5C53.82 63.5 54.5 62.82 54.5 62V57H55C58.18 57 60 55.18 60 52V40C60 36.82 58.18 35 55 35Z" fill="white"/>
</svg>
