<svg width="54" height="48" viewBox="0 0 54 48" fill="none" xmlns="http://www.w3.org/2000/svg">
<g clip-path="url(#clip0_2372_54280)">
<path d="M4.06154 41.1403L6.43077 45.2326C6.92308 46.0941 7.63077 46.771 8.46154 47.2633L16.9231 32.6172H0C0 33.571 0.246154 34.5249 0.738461 35.3864L4.06154 41.1403Z" fill="#0066DA"/>
<path d="M26.8615 15.3844L18.4 0.738281C17.5692 1.23059 16.8615 1.90751 16.3692 2.76905L0.738462 29.846C0.255208 30.6889 0.000643423 31.6436 0 32.6152H16.9231L26.8615 15.3844Z" fill="#00AC47"/>
<path d="M45.2596 47.2633C46.0904 46.771 46.7981 46.0941 47.2904 45.2326L48.275 43.5403L52.9827 35.3864C53.475 34.5249 53.7212 33.571 53.7212 32.6172H36.7969L40.3981 39.6941L45.2596 47.2633Z" fill="#EA4335"/>
<path d="M26.86 15.3846L35.3215 0.738462C34.4907 0.246154 33.5369 0 32.5523 0H21.1677C20.1831 0 19.2292 0.276923 18.3984 0.738462L26.86 15.3846Z" fill="#00832D"/>
<path d="M36.7999 32.6172H16.923L8.46143 47.2633C9.2922 47.7557 10.246 48.0018 11.2307 48.0018H42.4922C43.4768 48.0018 44.4307 47.7249 45.2614 47.2633L36.7999 32.6172Z" fill="#2684FC"/>
<path d="M45.171 16.3075L37.3556 2.76905C36.8633 1.90751 36.1556 1.23059 35.3248 0.738281L26.8633 15.3844L36.8017 32.6152H53.694C53.694 31.6614 53.4479 30.7075 52.9556 29.846L45.171 16.3075Z" fill="#FFBA00"/>
</g>
<defs>
<clipPath id="clip0_2372_54280">
<rect width="53.7231" height="48" fill="white"/>
</clipPath>
</defs>
</svg>
