<svg width="54" height="40" viewBox="0 0 54 40" fill="none" xmlns="http://www.w3.org/2000/svg">
<g clip-path="url(#clip0_2372_54289)">
<path d="M3.63636 40.0017H12.1212V19.3956L0 10.3047V36.3653C0 38.3774 1.6303 40.0017 3.63636 40.0017Z" fill="#4285F4"/>
<path d="M41.2109 40.0017H49.6958C51.7079 40.0017 53.3321 38.3713 53.3321 36.3653V10.3047L41.2109 19.3956" fill="#34A853"/>
<path d="M41.2109 3.63887V19.3964L53.3321 10.3055V5.45705C53.3321 0.960079 48.1988 -1.60356 44.6049 1.09341" fill="#FBBC04"/>
<path d="M12.1211 19.3943V3.63672L26.6665 14.5458L41.212 3.63672V19.3943L26.6665 30.3034" fill="#EA4335"/>
<path d="M0 5.45314V10.3016L12.1212 19.3925V3.63496L8.72727 1.08951C5.12727 -1.60746 0 0.956173 0 5.45314Z" fill="#C5221F"/>
</g>
<defs>
<clipPath id="clip0_2372_54289">
<rect width="53.3333" height="40" fill="white"/>
</clipPath>
</defs>
</svg>
