<svg width="122" height="24" viewBox="0 0 122 24" fill="none" xmlns="http://www.w3.org/2000/svg">
<g clip-path="url(#clip0_2372_54338)">
<path d="M14.1392 4.5099L7.06958 9.01981L14.1392 13.5297L7.06958 18.0396L0 13.5053L7.06958 8.99543L0 4.5099L7.06958 0L14.1392 4.5099ZM7.03301 19.4901L14.1026 14.9802L21.1722 19.4901L14.1026 24L7.03301 19.4901ZM14.1392 13.5053L21.2087 8.99543L14.1392 4.5099L21.1722 0L28.2417 4.5099L21.1722 9.01981L28.2417 13.5297L21.1722 18.0396L14.1392 13.5053Z" fill="#0061FF"/>
<path d="M33.7891 4.51092H39.5057C43.1502 4.51092 46.1608 6.61961 46.1608 11.4342V12.4459C46.1608 17.2971 43.3452 19.4789 39.6154 19.4789H33.7891V4.51092ZM36.9826 7.22905V16.7486H39.4325C41.5047 16.7486 42.8942 15.3956 42.8942 12.385V11.5927C42.8942 8.58202 41.4315 7.22905 39.3228 7.22905H36.9826ZM47.8551 7.37532H50.4148L50.8292 10.191C51.3167 8.2773 52.56 7.25343 54.815 7.25343H55.6072V10.4835H54.2908C51.6946 10.4835 51.0608 11.3855 51.0608 13.9452V19.5155H47.9038V7.37532H47.8551ZM56.2411 13.6892V13.3479C56.2411 9.28898 58.8373 7.0706 62.3721 7.0706C65.98 7.0706 68.5031 9.28898 68.5031 13.3479V13.6892C68.5031 17.675 66.0531 19.8202 62.3721 19.8202C58.4594 19.7836 56.2411 17.6872 56.2411 13.6892ZM65.2731 13.6526V13.3479C65.2731 11.0929 64.1395 9.73997 62.3355 9.73997C60.5681 9.73997 59.398 10.9832 59.398 13.3479V13.6526C59.398 15.8344 60.5316 17.0777 62.3355 17.0777C64.1395 17.0411 65.2731 15.8344 65.2731 13.6526ZM70.1608 7.37532H72.7936L73.0983 9.66684C73.7322 8.13103 75.0851 7.0706 77.0841 7.0706C80.1679 7.0706 82.2035 9.28898 82.2035 13.3966V13.7379C82.2035 17.7237 79.9485 19.8324 77.0841 19.8324C75.1705 19.8324 73.854 18.967 73.208 17.5775V23.7085H70.1242L70.1608 7.37532ZM78.9978 13.6526V13.3845C78.9978 10.9711 77.7545 9.77654 76.0968 9.77654C74.3294 9.77654 73.1593 11.1295 73.1593 13.3845V13.6161C73.1593 15.7613 74.2929 17.1143 76.0602 17.1143C77.8764 17.0777 78.9978 15.9198 78.9978 13.6526ZM86.8718 17.2727L86.6037 19.4911H83.8977V3.31641H86.9815V9.52057C87.6641 7.93601 89.0171 7.0706 90.9307 7.0706C93.8317 7.10716 95.977 9.10615 95.977 13.1285V13.5064C95.977 17.5287 93.9414 19.8324 90.8576 19.8324C88.8221 19.7836 87.5056 18.8451 86.8718 17.2727ZM92.7347 13.5064V13.2016C92.7347 10.9832 91.528 9.73997 89.8337 9.73997C88.1029 9.73997 86.8962 11.1295 86.8962 13.2382V13.5064C86.8962 15.7613 88.0663 17.0777 89.7972 17.0777C91.6499 17.0777 92.7347 15.9198 92.7347 13.5064ZM97.3299 13.6892V13.3479C97.3299 9.28898 99.9262 7.0706 103.461 7.0706C107.069 7.0706 109.592 9.28898 109.592 13.3479V13.6892C109.592 17.675 107.105 19.8202 103.461 19.8202C99.5483 19.7836 97.3299 17.6872 97.3299 13.6892ZM106.386 13.6526V13.3479C106.386 11.0929 105.253 9.73997 103.449 9.73997C101.681 9.73997 100.511 10.9832 100.511 13.3479V13.6526C100.511 15.8344 101.645 17.0777 103.449 17.0777C105.265 17.0411 106.386 15.8344 106.386 13.6526ZM113.724 13.2016L109.47 7.37532H113.115L115.565 11.0198L118.051 7.37532H121.659L117.344 13.1651L121.891 19.4911H118.319L115.54 15.4688L112.834 19.4911H109.104L113.724 13.2016Z" fill="black"/>
</g>
<defs>
<clipPath id="clip0_2372_54338">
<rect width="121.889" height="24" fill="white"/>
</clipPath>
</defs>
</svg>
