<svg width="105" height="48" viewBox="0 0 105 48" fill="none" xmlns="http://www.w3.org/2000/svg">
<g clip-path="url(#clip0_2372_54350)">
<path d="M62.889 20.8747H60.2767C60.223 20.6609 60.183 20.4129 60.1564 20.1314C60.1032 19.5835 60.1032 19.0318 60.1564 18.4839C60.183 18.203 60.223 17.9553 60.2767 17.7402H66.7871V38.3557C66.4612 38.4123 66.1326 38.4524 65.8026 38.4756C65.4748 38.5007 65.1462 38.514 64.8174 38.5154C64.5025 38.5134 64.1877 38.5001 63.8737 38.4756C63.5439 38.4522 63.2154 38.412 62.8896 38.355V20.8738V20.8742L62.889 20.8747ZM85.5532 26.0591C85.5532 25.3087 85.4526 24.5923 85.2522 23.9085C85.051 23.2258 84.7554 22.6299 84.3681 22.1206C83.9788 21.6121 83.4835 21.2031 82.8807 20.8952C82.2781 20.5871 81.5612 20.4328 80.7308 20.4328C79.0967 20.4328 77.8441 20.9292 76.9736 21.92C76.1028 22.911 75.574 24.2906 75.3862 26.0591H85.5534H85.5532ZM75.3462 29.0326C75.3998 31.2829 75.9825 32.9308 77.0943 33.9751C78.2056 35.0198 79.8468 35.543 82.0169 35.543C83.9185 35.543 85.727 35.2076 87.4415 34.5379C87.6553 34.9397 87.8293 35.4287 87.9635 36.0047C88.0951 36.5655 88.1757 37.1371 88.2045 37.7124C87.321 38.0884 86.3491 38.3685 85.2916 38.5565C84.2327 38.7435 83.0608 38.8378 81.7757 38.8378C79.8997 38.8378 78.292 38.5758 76.9532 38.0538C75.6134 37.5309 74.5084 36.7941 73.6377 35.8435C72.7672 34.8928 72.1306 33.7674 71.7288 32.4678C71.3272 31.1689 71.1257 29.7421 71.1257 28.1883C71.1257 26.6613 71.3198 25.2345 71.7084 23.9081C72.0962 22.5827 72.6936 21.4305 73.4964 20.4527C74.3004 19.4745 75.3116 18.6979 76.5307 18.1219C77.7491 17.5459 79.1889 17.2575 80.8507 17.2575C82.2703 17.2575 83.516 17.4989 84.5879 17.981C85.659 18.4631 86.5568 19.1263 87.2803 19.9702C88.0035 20.8143 88.5527 21.8189 88.9279 22.9837C89.3026 24.1496 89.4909 25.4152 89.4909 26.7818C89.4909 27.157 89.4766 27.5519 89.45 27.9669C89.428 28.3222 89.4013 28.6772 89.3699 29.0317H75.3453L75.3457 29.0324L75.3462 29.0326ZM93.8733 17.7402C94.153 17.6894 94.4345 17.6493 94.7172 17.6199C94.9845 17.5937 95.2664 17.5801 95.5611 17.5801C95.8558 17.5801 96.1501 17.5937 96.4452 17.6199C96.7397 17.6471 97.0078 17.6874 97.2491 17.7402C97.3287 18.1422 97.4092 18.6719 97.4893 19.3276C97.5695 19.984 97.6104 20.5395 97.6104 20.9952C98.1728 20.0847 98.9163 19.2938 99.8402 18.6239C100.765 17.9546 101.95 17.6193 103.396 17.6193C103.611 17.6193 103.832 17.6264 104.059 17.6398C104.254 17.6503 104.449 17.67 104.642 17.6995C104.695 17.941 104.736 18.1959 104.763 18.4633C104.789 18.731 104.803 19.0125 104.803 19.307C104.803 19.6288 104.783 19.9639 104.743 20.3114C104.704 20.6474 104.657 20.9823 104.602 21.3159C104.385 21.2624 104.162 21.2355 103.939 21.2356H103.396C102.673 21.2356 101.983 21.3362 101.327 21.5368C100.67 21.738 100.081 22.0931 99.5583 22.6016C99.0364 23.111 98.6207 23.8077 98.3132 24.6918C98.0045 25.5759 97.8508 26.7145 97.8508 28.1074V38.355C97.5249 38.4116 97.1962 38.4521 96.8661 38.4754C96.5049 38.5022 96.1765 38.5152 95.882 38.5152C95.5534 38.5139 95.2249 38.5006 94.8973 38.4754C94.554 38.4504 94.212 38.4103 93.8723 38.3553V17.7404L93.8733 17.7402ZM65.6699 6.73248C65.6699 7.21347 65.5831 7.69051 65.4135 8.14062C64.9633 8.31017 64.4861 8.39708 64.005 8.39718H63.9991C63.518 8.39724 63.0408 8.3104 62.5905 8.14083C62.4207 7.69063 62.3337 7.21343 62.3338 6.73227V6.72598C62.3338 6.23026 62.4247 5.7555 62.5895 5.31742C63.0398 5.14762 63.5172 5.06077 63.9985 5.06107H64.0039C64.4998 5.06107 64.9744 5.15204 65.4125 5.31742C65.5822 5.76763 65.6691 6.24484 65.6688 6.72598V6.73227H65.6694L65.6699 6.73248ZM70.5801 5.61737H66.6865L69.4394 2.86418C69.0065 2.25621 68.4751 1.72488 67.867 1.29213L65.1136 4.04532V0.15145C64.7475 0.0898642 64.3768 0.0588054 64.0056 0.0585938H63.9985C63.6208 0.0585938 63.2508 0.0908732 62.8903 0.15145V4.04532L60.1362 1.29192C59.833 1.50779 59.5483 1.7487 59.2852 2.01213L59.284 2.01339C59.021 2.27662 58.7803 2.56127 58.5644 2.86439L61.3184 5.61737H57.4239C57.4239 5.61737 57.3313 6.3489 57.3313 6.72703V6.73164C57.3313 7.10977 57.3634 7.48036 57.4241 7.84109H61.3186L58.5642 10.5939C58.9974 11.2018 59.5289 11.7332 60.1369 12.1663L62.8905 9.41335V13.3074C63.2506 13.3678 63.6199 13.3997 63.9972 13.4001H64.0066C64.3775 13.3997 64.7476 13.3687 65.1134 13.3074V9.41335L67.8672 12.167C68.1705 11.9509 68.4554 11.71 68.7188 11.4468H68.7194C68.9824 11.1832 69.223 10.8984 69.4388 10.5951L66.6858 7.8413H70.5803C70.6407 7.48078 70.6726 7.11145 70.6726 6.73416V6.72451C70.6726 6.35351 70.6415 5.98355 70.5803 5.61779V5.61737H70.5801ZM0 37.7933L10.8501 20.9149H1.28573C1.20566 20.4328 1.16562 19.8975 1.16562 19.3078C1.16562 18.7455 1.20629 18.2225 1.28657 17.74H16.7577L16.9589 18.2634L6.02851 35.1812H16.2754C16.3556 35.7171 16.3961 36.2659 16.3961 36.8283C16.3961 37.3649 16.3558 37.8736 16.2756 38.3557H0.201223L0 37.7927V37.7933ZM31.304 28.6706C30.9021 28.6175 30.393 28.5645 29.777 28.5102C29.1607 28.4572 28.6384 28.4299 28.2104 28.4299C26.549 28.4299 25.2832 28.7381 24.4131 29.3543C23.5418 29.971 23.1073 30.9081 23.1073 32.1672C23.1073 32.9709 23.254 33.6005 23.5489 34.0558C23.8432 34.5119 24.2119 34.8594 24.654 35.1007C25.0962 35.3417 25.5846 35.4893 26.1202 35.543C26.6557 35.5964 27.1651 35.623 27.6472 35.623C28.2634 35.623 28.8996 35.5895 29.5561 35.5224C30.2121 35.456 30.7948 35.3552 31.3042 35.2212V28.6706H31.304ZM31.304 24.7731C31.304 23.1919 30.9021 22.0935 30.0987 21.4773C29.2947 20.861 28.1295 20.5529 26.6025 20.5529C25.6641 20.5529 24.7873 20.6271 23.9704 20.7743C23.1621 20.9193 22.3634 21.1137 21.5788 21.3563C21.0695 20.4722 20.8159 19.4147 20.8159 18.1816C21.7256 17.8873 22.73 17.6597 23.829 17.4989C24.9273 17.338 25.9854 17.2575 27.0039 17.2575C29.6827 17.2575 31.7186 17.8674 33.1118 19.0863C34.5045 20.3062 35.2016 22.2549 35.2016 24.9335V37.8331C34.2634 38.0473 33.1252 38.2683 31.7859 38.4961C30.4316 38.7248 29.0604 38.8391 27.687 38.8378C26.3744 38.8378 25.1885 38.7177 24.1308 38.4764C23.0723 38.2347 22.1747 37.8472 21.4382 37.3106C20.7008 36.7752 20.1323 36.0919 19.7299 35.2617C19.3283 34.431 19.1273 33.4266 19.1273 32.2475C19.1273 31.0959 19.3616 30.0844 19.8305 29.2132C20.2912 28.3526 20.9446 27.61 21.7396 27.0434C22.5432 26.4682 23.4674 26.039 24.5123 25.7581C25.5574 25.4766 26.6553 25.3357 27.8073 25.3357C28.6646 25.3357 29.3678 25.3563 29.9172 25.3965C30.466 25.4363 30.9283 25.4833 31.3035 25.537V24.7734L31.304 24.7731ZM43.5199 34.9793C44.0272 35.1667 44.5524 35.3014 45.0873 35.3814C45.6231 35.4621 46.319 35.5021 47.1771 35.5021C48.1413 35.5021 49.025 35.3484 49.8286 35.0403C50.6327 34.7328 51.3223 34.2568 51.8983 33.6135C52.4743 32.9709 52.9295 32.1609 53.2645 31.1821C53.5992 30.2049 53.7671 29.0466 53.7671 27.7064C53.7671 25.5634 53.3714 23.8622 52.5816 22.6029C51.7907 21.344 50.4981 20.7143 48.7039 20.7143C48.0342 20.7143 47.3907 20.8346 46.7755 21.0761C46.1584 21.3171 45.6096 21.6789 45.1273 22.161C44.6452 22.6431 44.2568 23.2531 43.9623 23.9896C43.6668 24.727 43.5201 25.6036 43.5201 26.6219V34.98V34.9795L43.5199 34.9793ZM39.5415 17.7398C39.814 17.6861 40.0886 17.6461 40.3653 17.6195C40.6526 17.5929 40.941 17.5796 41.2295 17.5796C41.4965 17.5796 41.7776 17.5935 42.0729 17.6195C42.3672 17.6467 42.6485 17.6872 42.9168 17.74C42.9432 17.7945 42.9772 17.9611 43.0174 18.2426C43.0573 18.5241 43.0975 18.8253 43.138 19.1465C43.1782 19.4682 43.2182 19.777 43.2585 20.0708C43.2987 20.3659 43.3188 20.5535 43.3188 20.6338C43.5861 20.2056 43.9078 19.7899 44.283 19.3881C44.6582 18.9861 45.1074 18.6245 45.6298 18.3034C46.1521 17.9817 46.7411 17.7274 47.3978 17.5396C48.0539 17.3522 48.7839 17.2577 49.5878 17.2577C50.793 17.2577 51.9117 17.4589 52.9436 17.8609C53.9744 18.2634 54.8579 18.8853 55.5951 19.7294C56.3315 20.5735 56.9072 21.6452 57.3229 22.9441C57.7379 24.2445 57.9454 25.778 57.9454 27.5458C57.9454 31.0819 56.9875 33.8487 55.0717 35.8442C53.1559 37.8403 50.4442 38.8378 46.9348 38.8378C46.3452 38.8378 45.7427 38.7975 45.1265 38.7172C44.5098 38.6366 43.9745 38.5292 43.5188 38.3959V47.8396C43.1794 47.8948 42.8377 47.935 42.4947 47.9601C42.1327 47.9863 41.8042 47.9999 41.5095 47.9999C41.181 47.9985 40.8527 47.9852 40.5252 47.9601C40.1953 47.9367 39.8667 47.8965 39.5409 47.8396V17.74L39.5415 17.7398Z" fill="#FF4A00"/>
</g>
<defs>
<clipPath id="clip0_2372_54350">
<rect width="104.803" height="48" fill="white"/>
</clipPath>
</defs>
</svg>
