<svg width="48" height="48" viewBox="0 0 48 48" fill="none" xmlns="http://www.w3.org/2000/svg">
<g clip-path="url(#clip0_2372_54269)">
<path d="M36.6303 11.3672H11.3672V36.6303H36.6303V11.3672Z" fill="white"/>
<path d="M36.6328 48.0012L48.0012 36.6328H36.6328V48.0012Z" fill="#EA4335"/>
<path d="M48.0012 11.3672H36.6328V36.6303H48.0012V11.3672Z" fill="#FBBC04"/>
<path d="M36.6303 36.6328H11.3672V48.0012H36.6303V36.6328Z" fill="#34A853"/>
<path d="M0 36.6328V44.2118C0 46.3055 1.69579 48.0012 3.78947 48.0012H11.3684V36.6328H0Z" fill="#188038"/>
<path d="M48.0012 11.3684V3.78947C48.0012 1.69579 46.3055 0 44.2118 0H36.6328V11.3684H48.0012Z" fill="#1967D2"/>
<path d="M36.6316 0H3.78947C1.69579 0 0 1.69579 0 3.78947V36.6316H11.3684V11.3684H36.6316V0Z" fill="#4285F4"/>
<path d="M16.5524 30.9658C15.6082 30.3279 14.9545 29.3964 14.5977 28.1648L16.7892 27.2616C16.9882 28.0195 17.3355 28.6069 17.8313 29.0237C18.324 29.4406 18.924 29.6458 19.625 29.6458C20.3419 29.6458 20.9577 29.4279 21.4724 28.9921C21.9871 28.5563 22.2461 28.0006 22.2461 27.3279C22.2461 26.6395 21.9745 26.0774 21.4313 25.6416C20.8882 25.2058 20.2061 24.9879 19.3913 24.9879H18.125V22.8185H19.2619C19.9629 22.8185 20.5534 22.629 21.0334 22.25C21.5134 21.8711 21.7534 21.3532 21.7534 20.6932C21.7534 20.1058 21.5387 19.6385 21.1092 19.2879C20.6798 18.9374 20.1366 18.7606 19.4766 18.7606C18.8324 18.7606 18.3208 18.9311 17.9419 19.2753C17.5632 19.6204 17.2785 20.0562 17.1145 20.5416L14.945 19.6385C15.2324 18.8237 15.7598 18.1037 16.5334 17.4816C17.3071 16.8595 18.2956 16.5469 19.4956 16.5469C20.3829 16.5469 21.1819 16.7174 21.8892 17.0616C22.5966 17.4058 23.1524 17.8827 23.5534 18.489C23.9545 19.0985 24.1534 19.7806 24.1534 20.5385C24.1534 21.3121 23.9671 21.9658 23.5945 22.5027C23.2219 23.0395 22.764 23.45 22.2208 23.7374V23.8669C22.9222 24.156 23.5314 24.631 23.9829 25.2406C24.4408 25.8563 24.6713 26.5921 24.6713 27.4511C24.6713 28.31 24.4534 29.0774 24.0176 29.75C23.5819 30.4227 22.9787 30.9532 22.2145 31.3385C21.4471 31.7237 20.585 31.9195 19.6282 31.9195C18.5198 31.9227 17.4966 31.6037 16.5524 30.9658ZM30.0145 20.09L27.6082 21.83L26.405 20.0048L30.7219 16.8911H32.3766V31.5785H30.0145V20.09Z" fill="#4285F4"/>
</g>
<defs>
<clipPath id="clip0_2372_54269">
<rect width="48" height="48" fill="white"/>
</clipPath>
</defs>
</svg>
