<svg width="41" height="56" viewBox="0 0 41 56" fill="none" xmlns="http://www.w3.org/2000/svg">
<g clip-path="url(#clip0_2372_54297)">
<mask id="mask0_2372_54297" style="mask-type:alpha" maskUnits="userSpaceOnUse" x="0" y="0" width="41" height="56">
<path d="M25.4217 0.800781H4.40427C2.36434 0.800781 0.695312 2.46981 0.695312 4.50974V51.4898C0.695312 53.5298 2.36434 55.1988 4.40427 55.1988H36.5485C38.5885 55.1988 40.2575 53.5298 40.2575 51.4898V15.6366L25.4217 0.800781Z" fill="white"/>
</mask>
<g mask="url(#mask0_2372_54297)">
<path d="M25.4217 0.800781H4.40427C2.36434 0.800781 0.695312 2.46981 0.695312 4.50974V51.4898C0.695312 53.5298 2.36434 55.1988 4.40427 55.1988H36.5485C38.5885 55.1988 40.2575 53.5298 40.2575 51.4898V15.6366L31.6033 9.45501L25.4217 0.800781Z" fill="#0F9D58"/>
</g>
<mask id="mask1_2372_54297" style="mask-type:alpha" maskUnits="userSpaceOnUse" x="0" y="0" width="41" height="56">
<path d="M25.4217 0.800781H4.40427C2.36434 0.800781 0.695312 2.46981 0.695312 4.50974V51.4898C0.695312 53.5298 2.36434 55.1988 4.40427 55.1988H36.5485C38.5885 55.1988 40.2575 53.5298 40.2575 51.4898V15.6366L25.4217 0.800781Z" fill="white"/>
</mask>
<g mask="url(#mask1_2372_54297)">
<path d="M10.5857 27.3828V45.3094H30.3668V27.3828H10.5857ZM19.2399 42.8368H13.0583V39.746H19.2399V42.8368ZM19.2399 37.8915H13.0583V34.8007H19.2399V37.8915ZM19.2399 32.9462H13.0583V29.8554H19.2399V32.9462ZM27.8942 42.8368H21.7126V39.746H27.8942V42.8368ZM27.8942 37.8915H21.7126V34.8007H27.8942V37.8915ZM27.8942 32.9462H21.7126V29.8554H27.8942V32.9462Z" fill="#F1F1F1"/>
</g>
<mask id="mask2_2372_54297" style="mask-type:alpha" maskUnits="userSpaceOnUse" x="0" y="0" width="41" height="56">
<path d="M25.4217 0.800781H4.40427C2.36434 0.800781 0.695312 2.46981 0.695312 4.50974V51.4898C0.695312 53.5298 2.36434 55.1988 4.40427 55.1988H36.5485C38.5885 55.1988 40.2575 53.5298 40.2575 51.4898V15.6366L25.4217 0.800781Z" fill="white"/>
</mask>
<g mask="url(#mask2_2372_54297)">
<path d="M26.5078 14.5508L40.2588 28.2986V15.6356L26.5078 14.5508Z" fill="url(#paint0_linear_2372_54297)"/>
</g>
<mask id="mask3_2372_54297" style="mask-type:alpha" maskUnits="userSpaceOnUse" x="0" y="0" width="41" height="56">
<path d="M25.4217 0.800781H4.40427C2.36434 0.800781 0.695312 2.46981 0.695312 4.50974V51.4898C0.695312 53.5298 2.36434 55.1988 4.40427 55.1988H36.5485C38.5885 55.1988 40.2575 53.5298 40.2575 51.4898V15.6366L25.4217 0.800781Z" fill="white"/>
</mask>
<g mask="url(#mask3_2372_54297)">
<path d="M25.4216 0.800781V11.9276C25.4216 13.9768 27.0814 15.6366 29.1306 15.6366H40.2574L25.4216 0.800781Z" fill="#87CEAC"/>
</g>
<mask id="mask4_2372_54297" style="mask-type:alpha" maskUnits="userSpaceOnUse" x="0" y="0" width="41" height="56">
<path d="M25.4217 0.800781H4.40427C2.36434 0.800781 0.695312 2.46981 0.695312 4.50974V51.4898C0.695312 53.5298 2.36434 55.1988 4.40427 55.1988H36.5485C38.5885 55.1988 40.2575 53.5298 40.2575 51.4898V15.6366L25.4217 0.800781Z" fill="white"/>
</mask>
<g mask="url(#mask4_2372_54297)">
<path d="M4.40427 0.800781C2.36434 0.800781 0.695312 2.46981 0.695312 4.50974V4.81882C0.695312 2.77889 2.36434 1.10986 4.40427 1.10986H25.4217V0.800781H4.40427Z" fill="white" fill-opacity="0.2"/>
</g>
<mask id="mask5_2372_54297" style="mask-type:alpha" maskUnits="userSpaceOnUse" x="0" y="0" width="41" height="56">
<path d="M25.4217 0.800781H4.40427C2.36434 0.800781 0.695312 2.46981 0.695312 4.50974V51.4898C0.695312 53.5298 2.36434 55.1988 4.40427 55.1988H36.5485C38.5885 55.1988 40.2575 53.5298 40.2575 51.4898V15.6366L25.4217 0.800781Z" fill="white"/>
</mask>
<g mask="url(#mask5_2372_54297)">
<path d="M36.5485 54.8886H4.40427C2.36434 54.8886 0.695312 53.2196 0.695312 51.1797V51.4888C0.695312 53.5287 2.36434 55.1977 4.40427 55.1977H36.5485C38.5885 55.1977 40.2575 53.5287 40.2575 51.4888V51.1797C40.2575 53.2196 38.5885 54.8886 36.5485 54.8886Z" fill="#263238" fill-opacity="0.2"/>
</g>
<mask id="mask6_2372_54297" style="mask-type:alpha" maskUnits="userSpaceOnUse" x="0" y="0" width="41" height="56">
<path d="M25.4217 0.800781H4.40427C2.36434 0.800781 0.695312 2.46981 0.695312 4.50974V51.4898C0.695312 53.5298 2.36434 55.1988 4.40427 55.1988H36.5485C38.5885 55.1988 40.2575 53.5298 40.2575 51.4898V15.6366L25.4217 0.800781Z" fill="white"/>
</mask>
<g mask="url(#mask6_2372_54297)">
<path d="M29.1306 15.6386C27.0814 15.6386 25.4216 13.9789 25.4216 11.9297V12.2388C25.4216 14.288 27.0814 15.9477 29.1306 15.9477H40.2574V15.6386H29.1306Z" fill="#263238" fill-opacity="0.1"/>
</g>
<path d="M25.4217 0.800781H4.40427C2.36434 0.800781 0.695312 2.46981 0.695312 4.50974V51.4898C0.695312 53.5298 2.36434 55.1988 4.40427 55.1988H36.5485C38.5885 55.1988 40.2575 53.5298 40.2575 51.4898V15.6366L25.4217 0.800781Z" fill="url(#paint1_radial_2372_54297)"/>
</g>
<defs>
<linearGradient id="paint0_linear_2372_54297" x1="33.384" y1="15.7312" x2="33.384" y2="28.3006" gradientUnits="userSpaceOnUse">
<stop stop-color="#263238" stop-opacity="0.2"/>
<stop offset="1" stop-color="#263238" stop-opacity="0.02"/>
</linearGradient>
<radialGradient id="paint1_radial_2372_54297" cx="0" cy="0" r="1" gradientUnits="userSpaceOnUse" gradientTransform="translate(1.94866 1.88205) scale(63.7934)">
<stop stop-color="white" stop-opacity="0.1"/>
<stop offset="1" stop-color="white" stop-opacity="0"/>
</radialGradient>
<clipPath id="clip0_2372_54297">
<rect width="40.9552" height="56" fill="white"/>
</clipPath>
</defs>
</svg>
