<svg width="125" height="32" viewBox="0 0 125 32" fill="none" xmlns="http://www.w3.org/2000/svg">
<g clip-path="url(#clip0_2372_54354)">
<path d="M39.8982 25.0738L41.4491 21.4454C43.1251 22.7053 45.3514 23.3604 47.5526 23.3604C49.1785 23.3604 50.2041 22.7304 50.2041 21.773C50.1791 19.1021 40.4736 21.1934 40.3985 14.4911C40.3735 11.0895 43.3752 8.46903 47.6277 8.46903C50.1541 8.46903 52.6806 9.09895 54.4816 10.5352L53.0308 14.2391C51.3798 13.1808 49.3286 12.4249 47.3775 12.4249C46.0518 12.4249 45.1763 13.0549 45.1763 13.8612C45.2013 16.4816 54.9819 15.0454 55.0819 21.4454C55.0819 24.9226 52.1553 27.3667 47.9528 27.3667C44.8761 27.3667 42.0495 26.636 39.8982 25.0738ZM99.4073 20.1352C98.6319 21.4958 97.1811 22.4281 95.5051 22.4281C93.0287 22.4281 91.0275 20.4123 91.0275 17.9179C91.0275 15.4234 93.0287 13.4076 95.5051 13.4076C97.1811 13.4076 98.6319 14.3399 99.4073 15.7005L103.685 13.3068C102.084 10.4344 99.0071 8.46903 95.5051 8.46903C90.3271 8.46903 86.1247 12.7021 86.1247 17.9179C86.1247 23.1336 90.3271 27.3667 95.5051 27.3667C99.0321 27.3667 102.084 25.4265 103.685 22.5289L99.4073 20.1352ZM57.2332 0.632812H62.5862V27.0139H57.2332V0.632812ZM105.786 0.632812V27.0139H111.139V19.1021L117.493 27.0139H124.347L116.267 17.6155L123.746 8.84698H117.193L111.139 16.1289V0.632812H105.786ZM78.4954 20.1856C77.7199 21.4706 76.119 22.4281 74.318 22.4281C71.8415 22.4281 69.8404 20.4123 69.8404 17.9179C69.8404 15.4234 71.8415 13.4076 74.318 13.4076C76.119 13.4076 77.7199 14.4155 78.4954 15.7257V20.1856ZM78.4954 8.84698V10.9887C77.6199 9.5021 75.4436 8.46903 73.1673 8.46903C68.4646 8.46903 64.7625 12.6517 64.7625 17.8927C64.7625 23.1336 68.4646 27.3667 73.1673 27.3667C75.4436 27.3667 77.6199 26.3336 78.4954 24.847V26.9887H83.8484V8.84698H78.4954Z" fill="black"/>
<path d="M6.80252 20.158C6.80252 21.9974 5.32667 23.484 3.50062 23.484C1.67458 23.484 0.19873 21.9974 0.19873 20.158C0.19873 18.3186 1.67458 16.832 3.50062 16.832H6.80252V20.158ZM8.45346 20.158C8.45346 18.3186 9.92931 16.832 11.7554 16.832C13.5814 16.832 15.0572 18.3186 15.0572 20.158V28.473C15.0572 30.3123 13.5814 31.799 11.7554 31.799C9.92931 31.799 8.45346 30.3123 8.45346 28.473V20.158Z" fill="#E01E5A"/>
<path d="M11.7569 6.80431C9.93089 6.80431 8.45504 5.3177 8.45504 3.47833C8.45504 1.63896 9.93089 0.152344 11.7569 0.152344C13.583 0.152344 15.0588 1.63896 15.0588 3.47833V6.80431H11.7569ZM11.7569 8.4925C13.583 8.4925 15.0588 9.97911 15.0588 11.8185C15.0588 13.6579 13.583 15.1445 11.7569 15.1445H3.47719C1.65114 15.1445 0.175293 13.6579 0.175293 11.8185C0.175293 9.97911 1.65114 8.4925 3.47719 8.4925H11.7569Z" fill="#36C5F0"/>
<path d="M24.9886 11.8185C24.9886 9.97911 26.4645 8.4925 28.2905 8.4925C30.1166 8.4925 31.5924 9.97911 31.5924 11.8185C31.5924 13.6579 30.1166 15.1445 28.2905 15.1445H24.9886V11.8185ZM23.3377 11.8185C23.3377 13.6579 21.8618 15.1445 20.0358 15.1445C18.2097 15.1445 16.7339 13.6579 16.7339 11.8185V3.47833C16.7339 1.63896 18.2097 0.152344 20.0358 0.152344C21.8618 0.152344 23.3377 1.63896 23.3377 3.47833V11.8185Z" fill="#2EB67D"/>
<path d="M20.0358 25.147C21.8618 25.147 23.3377 26.6336 23.3377 28.473C23.3377 30.3123 21.8618 31.799 20.0358 31.799C18.2097 31.799 16.7339 30.3123 16.7339 28.473V25.147H20.0358ZM20.0358 23.484C18.2097 23.484 16.7339 21.9974 16.7339 20.158C16.7339 18.3186 18.2097 16.832 20.0358 16.832H28.3155C30.1416 16.832 31.6174 18.3186 31.6174 20.158C31.6174 21.9974 30.1416 23.484 28.3155 23.484H20.0358Z" fill="#ECB22E"/>
</g>
<defs>
<clipPath id="clip0_2372_54354">
<rect width="124.571" height="32" fill="white"/>
</clipPath>
</defs>
</svg>
