<svg width="84" height="84" viewBox="0 0 84 84" fill="none" xmlns="http://www.w3.org/2000/svg">
<path opacity="0.1" d="M84 12C84 5.37258 78.6274 0 72 0H12C5.37258 0 0 5.37258 0 12V72C0 78.6274 5.37258 84 12 84H72C78.6274 84 84 78.6274 84 72V12Z" fill="white"/>
<path d="M59.98 37.42C59.3 37.14 58.4 37 57.28 37H46.72C43.24 37 42 38.24 42 41.76V57.24C42 58.4 42.14 59.3 42.44 60C43.06 61.44 44.38 62 46.72 62H57.28C60.76 62 62 60.74 62 57.24V41.76C62 39.38 61.44 38.04 59.98 37.42ZM54 57.5H50C49.96 57.5 49.9 57.5 49.86 57.48C49.56 57.46 49.3 57.36 49.08 57.16C48.72 56.9 48.5 56.48 48.5 56C48.5 55.18 49.18 54.5 50 54.5H54C54.82 54.5 55.5 55.18 55.5 56C55.5 56.82 54.82 57.5 54 57.5Z" fill="white"/>
<path opacity="0.7" d="M59.9834 30.38V32C59.9834 33.1 59.0834 34 57.9834 34H46.7234C41.6034 34 39.0034 36.62 39.0034 41.76V60C39.0034 61.1 38.1034 62 37.0034 62H33.1034C32.3034 62 31.6634 61.36 31.6634 60.58C31.6634 59.78 32.3034 59.16 33.1034 59.16H37.0034V51.5H30.0034C25.5634 51.28 22.0234 47.62 22.0234 43.12V30.38C22.0234 25.76 25.7834 22 30.4234 22H51.6034C56.2234 22 59.9834 25.76 59.9834 30.38Z" fill="white"/>
</svg>
