<svg width="84" height="84" viewBox="0 0 84 84" fill="none" xmlns="http://www.w3.org/2000/svg">
<path opacity="0.1" d="M84 12C84 5.37258 78.6274 0 72 0H12C5.37258 0 0 5.37258 0 12V72C0 78.6274 5.37258 84 12 84H72C78.6274 84 84 78.6274 84 72V12Z" fill="white"/>
<path opacity="0.7" d="M44.38 30H31.58C31.06 30 30.56 30.02 30.08 30.08C24.7 30.54 22 33.72 22 39.58V47.58C22 55.58 25.2 57.16 31.58 57.16H32.38C32.82 57.16 33.4 57.46 33.66 57.8L36.06 61C37.12 62.42 38.84 62.42 39.9 61L42.3 57.8C42.6 57.4 43.08 57.16 43.58 57.16H44.38C50.24 57.16 53.42 54.48 53.88 49.08C53.94 48.6 53.96 48.1 53.96 47.58V39.58C53.96 33.2 50.76 30 44.38 30ZM31 46C29.88 46 29 45.1 29 44C29 42.9 29.9 42 31 42C32.1 42 33 42.9 33 44C33 45.1 32.1 46 31 46ZM37.98 46C36.86 46 35.98 45.1 35.98 44C35.98 42.9 36.88 42 37.98 42C39.08 42 39.98 42.9 39.98 44C39.98 45.1 39.1 46 37.98 46ZM44.98 46C43.86 46 42.98 45.1 42.98 44C42.98 42.9 43.88 42 44.98 42C46.08 42 46.98 42.9 46.98 44C46.98 45.1 46.08 46 44.98 46Z" fill="white"/>
<path d="M61.96 31.58V39.58C61.96 43.58 60.72 46.3 58.24 47.8C57.64 48.16 56.94 47.68 56.94 46.98L56.96 39.58C56.96 31.58 52.38 27 44.38 27L32.2 27.02C31.5 27.02 31.02 26.32 31.38 25.72C32.88 23.24 35.6 22 39.58 22H52.38C58.76 22 61.96 25.2 61.96 31.58Z" fill="white"/>
</svg>
