<svg width="32" height="32" viewBox="0 0 32 32" fill="none" xmlns="http://www.w3.org/2000/svg">
<path d="M16 2.66797C8.65333 2.66797 2.66667 8.65464 2.66667 16.0013C2.66667 23.348 8.65333 29.3346 16 29.3346C23.3467 29.3346 29.3333 23.348 29.3333 16.0013C29.3333 8.65464 23.3467 2.66797 16 2.66797ZM21.8 20.7613C21.6133 21.0813 21.28 21.2546 20.9333 21.2546C20.76 21.2546 20.5867 21.2146 20.4267 21.108L16.2933 18.6413C15.2667 18.028 14.5067 16.6813 14.5067 15.4946V10.028C14.5067 9.4813 14.96 9.02797 15.5067 9.02797C16.0533 9.02797 16.5067 9.4813 16.5067 10.028V15.4946C16.5067 15.9746 16.9067 16.6813 17.32 16.9213L21.4533 19.388C21.9333 19.668 22.0933 20.2813 21.8 20.7613Z" fill="#F2A84C"/>
</svg>
