<svg width="32" height="32" viewBox="0 0 32 32" fill="none" xmlns="http://www.w3.org/2000/svg">
<path d="M21.3203 2.39844H10.1469C5.2936 2.39844 2.40027 5.29177 2.40027 10.1451V21.3184C2.40027 26.1718 5.2936 29.0651 10.1469 29.0651H21.3203C26.1736 29.0651 29.0669 26.1718 29.0669 21.3184V10.1451C29.0669 5.29177 26.1736 2.39844 21.3203 2.39844ZM13.0269 19.5984L10.0269 22.5984C9.82694 22.7984 9.5736 22.8918 9.32027 22.8918C9.06694 22.8918 8.80027 22.7984 8.6136 22.5984L7.6136 21.5984C7.2136 21.2118 7.2136 20.5718 7.6136 20.1851C8.00027 19.7984 8.62694 19.7984 9.02694 20.1851L9.32027 20.4784L11.6136 18.1851C12.0003 17.7984 12.6269 17.7984 13.0269 18.1851C13.4136 18.5718 13.4136 19.2118 13.0269 19.5984ZM13.0269 10.2651L10.0269 13.2651C9.82694 13.4651 9.5736 13.5584 9.32027 13.5584C9.06694 13.5584 8.80027 13.4651 8.6136 13.2651L7.6136 12.2651C7.2136 11.8784 7.2136 11.2384 7.6136 10.8518C8.00027 10.4651 8.62694 10.4651 9.02694 10.8518L9.32027 11.1451L11.6136 8.85177C12.0003 8.46511 12.6269 8.46511 13.0269 8.85177C13.4136 9.23844 13.4136 9.87844 13.0269 10.2651ZM23.1469 21.8918H16.1469C15.6003 21.8918 15.1469 21.4384 15.1469 20.8918C15.1469 20.3451 15.6003 19.8918 16.1469 19.8918H23.1469C23.7069 19.8918 24.1469 20.3451 24.1469 20.8918C24.1469 21.4384 23.7069 21.8918 23.1469 21.8918ZM23.1469 12.5584H16.1469C15.6003 12.5584 15.1469 12.1051 15.1469 11.5584C15.1469 11.0118 15.6003 10.5584 16.1469 10.5584H23.1469C23.7069 10.5584 24.1469 11.0118 24.1469 11.5584C24.1469 12.1051 23.7069 12.5584 23.1469 12.5584Z" fill="#57B6F0"/>
</svg>
