<svg width="32" height="32" viewBox="0 0 32 32" fill="none" xmlns="http://www.w3.org/2000/svg">
<path d="M21.5867 2.66797H10.4133C5.56 2.66797 2.66667 5.5613 2.66667 10.4146V21.5746C2.66667 26.4413 5.56 29.3346 10.4133 29.3346H21.5733C26.4267 29.3346 29.32 26.4413 29.32 21.588V10.4146C29.3333 5.5613 26.44 2.66797 21.5867 2.66797ZM9.33333 17.748C8.37333 17.748 7.58667 16.9613 7.58667 16.0013C7.58667 15.0413 8.37333 14.2546 9.33333 14.2546C10.2933 14.2546 11.08 15.0413 11.08 16.0013C11.08 16.9613 10.2933 17.748 9.33333 17.748ZM16 17.748C15.04 17.748 14.2533 16.9613 14.2533 16.0013C14.2533 15.0413 15.04 14.2546 16 14.2546C16.96 14.2546 17.7467 15.0413 17.7467 16.0013C17.7467 16.9613 16.96 17.748 16 17.748ZM22.6667 17.748C21.7067 17.748 20.92 16.9613 20.92 16.0013C20.92 15.0413 21.7067 14.2546 22.6667 14.2546C23.6267 14.2546 24.4133 15.0413 24.4133 16.0013C24.4133 16.9613 23.6267 17.748 22.6667 17.748Z" fill="#A5ADC5"/>
</svg>
