<svg width="32" height="32" viewBox="0 0 32 32" fill="none" xmlns="http://www.w3.org/2000/svg">
<path d="M25 10.668V13.468C24.4133 13.388 23.7467 13.348 23 13.3346V10.668C23 6.46797 21.8133 3.66797 16 3.66797C10.1867 3.66797 9 6.46797 9 10.668V13.3346C8.25333 13.348 7.58667 13.388 7 13.468V10.668C7 6.8013 7.93333 1.66797 16 1.66797C24.0667 1.66797 25 6.8013 25 10.668Z" fill="#83BF6E"/>
<path d="M25 13.4654C24.4133 13.3854 23.7467 13.3454 23 13.332H9C8.25333 13.3454 7.58667 13.3854 7 13.4654C3.6 13.8787 2.66667 15.5454 2.66667 19.9987V22.6654C2.66667 27.9987 4 29.332 9.33333 29.332H22.6667C28 29.332 29.3333 27.9987 29.3333 22.6654V19.9987C29.3333 15.5454 28.4 13.8787 25 13.4654ZM11.6133 22.2787C11.36 22.5187 11.0133 22.6654 10.6667 22.6654C10.4933 22.6654 10.32 22.6254 10.16 22.5587C9.98667 22.492 9.85333 22.3987 9.72 22.2787C9.48 22.0254 9.33333 21.6787 9.33333 21.332C9.33333 21.1587 9.37333 20.9854 9.44 20.8254C9.50667 20.6654 9.6 20.5187 9.72 20.3854C9.85333 20.2654 9.98667 20.172 10.16 20.1054C10.6533 19.892 11.24 20.012 11.6133 20.3854C11.7333 20.5187 11.8267 20.6654 11.8933 20.8254C11.96 20.9854 12 21.1587 12 21.332C12 21.6787 11.8533 22.0254 11.6133 22.2787ZM17.2267 21.8387C17.16 21.9987 17.0667 22.1454 16.9467 22.2787C16.6933 22.5187 16.3467 22.6654 16 22.6654C15.64 22.6654 15.3067 22.5187 15.0533 22.2787C14.9333 22.1454 14.84 21.9987 14.7733 21.8387C14.7067 21.6787 14.6667 21.5054 14.6667 21.332C14.6667 20.972 14.8133 20.6387 15.0533 20.3854C15.5467 19.892 16.44 19.892 16.9467 20.3854C17.1867 20.6387 17.3333 20.972 17.3333 21.332C17.3333 21.5054 17.2933 21.6787 17.2267 21.8387ZM22.28 22.2787C22.0267 22.5187 21.68 22.6654 21.3333 22.6654C20.9867 22.6654 20.64 22.5187 20.3867 22.2787C20.1467 22.0254 20 21.692 20 21.332C20 20.972 20.1467 20.6387 20.3867 20.3854C20.8933 19.892 21.7867 19.892 22.28 20.3854C22.3333 20.452 22.3867 20.5187 22.44 20.5987C22.4933 20.6654 22.5333 20.7454 22.56 20.8254C22.6 20.9054 22.6267 20.9854 22.64 21.0654C22.6533 21.1587 22.6667 21.252 22.6667 21.332C22.6667 21.6787 22.52 22.0254 22.28 22.2787Z" fill="#BBDCAF"/>
</svg>
