<svg width="32" height="32" viewBox="0 0 32 32" fill="none" xmlns="http://www.w3.org/2000/svg">
<path d="M28.2818 11.0536C28.6411 11.6454 28.1639 12.3346 27.4716 12.3346H3.66669C3.1144 12.3346 2.66669 11.8869 2.66669 11.3346V8.5613C2.66669 5.30797 5.30669 2.66797 8.56002 2.66797H11.6534C13.8267 2.66797 14.5067 3.37464 15.3734 4.53464L17.24 7.01464C17.6534 7.5613 17.7067 7.62797 18.48 7.62797H22.2C24.7756 7.62797 27.0342 8.99854 28.2818 11.0536Z" fill="#E0704A"/>
<path d="M28.3101 14.332C28.861 14.332 29.3082 14.7777 29.3101 15.3287L29.3334 22.1991C29.3334 26.1324 26.1334 29.3324 22.2 29.3324H9.80002C5.86669 29.3324 2.66669 26.1324 2.66669 22.1991V15.3324C2.66669 14.7801 3.11439 14.3324 3.66667 14.3324L28.3101 14.332Z" fill="#EFB7A4"/>
</svg>
