<svg width="192" height="192" viewBox="0 0 192 192" fill="none" xmlns="http://www.w3.org/2000/svg">
<g filter="url(#filter0_d_3345_43945)">
<rect x="59" y="44" width="72" height="72" rx="12" fill="white"/>
</g>
<path d="M87.75 94.8491C87.7 94.8491 87.6333 94.8824 87.5833 94.8824C84.35 93.2824 81.7167 90.6324 80.1 87.3991C80.1 87.3491 80.1333 87.2824 80.1333 87.2324C82.1667 87.8324 84.2667 88.2824 86.35 88.6324C86.7167 90.7324 87.15 92.8158 87.75 94.8491Z" fill="#F2A84C"/>
<path d="M109.9 87.4158C108.25 90.7324 105.5 93.4158 102.15 95.0324C102.783 92.9158 103.317 90.7824 103.667 88.6324C105.767 88.2824 107.833 87.8324 109.867 87.2324C109.85 87.2991 109.9 87.3658 109.9 87.4158Z" fill="#F2A84C"/>
<path d="M110.033 72.8501C107.933 72.2168 105.817 71.7001 103.667 71.3335C103.317 69.1835 102.8 67.0501 102.15 64.9668C105.6 66.6168 108.383 69.4001 110.033 72.8501Z" fill="#F2A84C"/>
<path d="M87.7508 65.1477C87.1508 67.181 86.7174 69.2477 86.3674 71.3477C84.2174 71.681 82.0841 72.2143 79.9674 72.8477C81.5841 69.4977 84.2674 66.7477 87.5841 65.0977C87.6341 65.0977 87.7008 65.1477 87.7508 65.1477Z" fill="#F2A84C"/>
<path d="M100.817 70.984C96.95 70.5507 93.05 70.5507 89.1833 70.984C89.6 68.7007 90.1333 66.4173 90.8833 64.2173C90.9167 64.084 90.9 63.984 90.9167 63.8507C92.2333 63.534 93.5833 63.334 95 63.334C96.4 63.334 97.7667 63.534 99.0667 63.8507C99.0833 63.984 99.0833 64.084 99.1167 64.2173C99.8667 66.434 100.4 68.7007 100.817 70.984Z" fill="#F2A84C"/>
<path d="M85.9833 85.8189C83.6833 85.4022 81.4167 84.8689 79.2167 84.1189C79.0833 84.0855 78.9833 84.1022 78.85 84.0855C78.5333 82.7689 78.3333 81.4189 78.3333 80.0022C78.3333 78.6022 78.5333 77.2355 78.85 75.9355C78.9833 75.9189 79.0833 75.9189 79.2167 75.8855C81.4333 75.1522 83.6833 74.6022 85.9833 74.1855C85.5667 78.0522 85.5667 81.9522 85.9833 85.8189Z" fill="#F2A84C"/>
<path d="M111.667 80.0022C111.667 81.4189 111.467 82.7689 111.15 84.0855C111.017 84.1022 110.917 84.0855 110.784 84.1189C108.567 84.8522 106.3 85.4022 104.017 85.8189C104.45 81.9522 104.45 78.0522 104.017 74.1855C106.3 74.6022 108.584 75.1355 110.784 75.8855C110.917 75.9189 111.017 75.9355 111.15 75.9355C111.467 77.2522 111.667 78.6022 111.667 80.0022Z" fill="#F2A84C"/>
<path d="M100.817 89.0176C100.4 91.3176 99.8667 93.5842 99.1167 95.7842C99.0833 95.9176 99.0833 96.0176 99.0667 96.1509C97.7667 96.4676 96.4 96.6676 95 96.6676C93.5833 96.6676 92.2333 96.4676 90.9167 96.1509C90.9 96.0176 90.9167 95.9176 90.8833 95.7842C90.15 93.5676 89.6 91.3176 89.1833 89.0176C91.1167 89.2342 93.05 89.3842 95 89.3842C96.95 89.3842 98.9 89.2342 100.817 89.0176Z" fill="#F2A84C"/>
<path d="M101.272 86.2729C97.1037 86.7988 92.8963 86.7988 88.7278 86.2729C88.2019 82.1044 88.2019 77.8969 88.7278 73.7284C92.8963 73.2025 97.1037 73.2025 101.272 73.7284C101.798 77.8969 101.798 82.1044 101.272 86.2729Z" fill="#F2A84C"/>
<defs>
<filter id="filter0_d_3345_43945" x="0" y="0" width="192" height="192" filterUnits="userSpaceOnUse" color-interpolation-filters="sRGB">
<feFlood flood-opacity="0" result="BackgroundImageFix"/>
<feColorMatrix in="SourceAlpha" type="matrix" values="0 0 0 0 0 0 0 0 0 0 0 0 0 0 0 0 0 0 127 0" result="hardAlpha"/>
<feOffset dx="1" dy="16"/>
<feGaussianBlur stdDeviation="30"/>
<feComposite in2="hardAlpha" operator="out"/>
<feColorMatrix type="matrix" values="0 0 0 0 0.575 0 0 0 0 0.606167 0 0 0 0 0.716667 0 0 0 0.12 0"/>
<feBlend mode="normal" in2="BackgroundImageFix" result="effect1_dropShadow_3345_43945"/>
<feBlend mode="normal" in="SourceGraphic" in2="effect1_dropShadow_3345_43945" result="shape"/>
</filter>
</defs>
</svg>
