<svg width="40" height="40" viewBox="0 0 40 40" fill="none" xmlns="http://www.w3.org/2000/svg">
<path d="M12.75 34.8491C12.7 34.8491 12.6333 34.8824 12.5833 34.8824C9.35 33.2824 6.71667 30.6324 5.1 27.3991C5.1 27.3491 5.13333 27.2824 5.13333 27.2324C7.16667 27.8324 9.26667 28.2824 11.35 28.6324C11.7167 30.7324 12.15 32.8158 12.75 34.8491Z" fill="#F2A84C"/>
<path d="M34.9 27.4158C33.25 30.7324 30.5 33.4158 27.15 35.0324C27.7833 32.9158 28.3167 30.7824 28.6667 28.6324C30.7667 28.2824 32.8333 27.8324 34.8667 27.2324C34.85 27.2991 34.9 27.3658 34.9 27.4158Z" fill="#F2A84C"/>
<path d="M35.0333 12.8501C32.9333 12.2168 30.8167 11.7001 28.6667 11.3335C28.3167 9.18346 27.8 7.05013 27.15 4.9668C30.6 6.6168 33.3833 9.40013 35.0333 12.8501Z" fill="#F2A84C"/>
<path d="M12.7508 5.14766C12.1508 7.18099 11.7174 9.24766 11.3674 11.3477C9.21745 11.681 7.08411 12.2143 4.96745 12.8477C6.58411 9.49766 9.26745 6.74766 12.5841 5.09766C12.6341 5.09766 12.7008 5.14766 12.7508 5.14766Z" fill="#F2A84C"/>
<path d="M25.8167 10.984C21.95 10.5507 18.05 10.5507 14.1833 10.984C14.6 8.70065 15.1333 6.41732 15.8833 4.21732C15.9167 4.08398 15.9 3.98398 15.9167 3.85065C17.2333 3.53398 18.5833 3.33398 20 3.33398C21.4 3.33398 22.7667 3.53398 24.0667 3.85065C24.0833 3.98398 24.0833 4.08398 24.1167 4.21732C24.8667 6.43398 25.4 8.70065 25.8167 10.984Z" fill="#F2A84C"/>
<path d="M10.9833 25.8189C8.68334 25.4022 6.41667 24.8689 4.21667 24.1189C4.08334 24.0855 3.98334 24.1022 3.85 24.0855C3.53334 22.7689 3.33334 21.4189 3.33334 20.0022C3.33334 18.6022 3.53334 17.2355 3.85 15.9355C3.98334 15.9189 4.08334 15.9189 4.21667 15.8855C6.43334 15.1522 8.68334 14.6022 10.9833 14.1855C10.5667 18.0522 10.5667 21.9522 10.9833 25.8189Z" fill="#F2A84C"/>
<path d="M36.6669 20.0022C36.6669 21.4189 36.4669 22.7689 36.1503 24.0855C36.0169 24.1022 35.9169 24.0855 35.7836 24.1189C33.5669 24.8522 31.3003 25.4022 29.0169 25.8189C29.4503 21.9522 29.4503 18.0522 29.0169 14.1855C31.3003 14.6022 33.5836 15.1355 35.7836 15.8855C35.9169 15.9189 36.0169 15.9355 36.1503 15.9355C36.4669 17.2522 36.6669 18.6022 36.6669 20.0022Z" fill="#F2A84C"/>
<path d="M25.8167 29.0176C25.4 31.3176 24.8667 33.5842 24.1167 35.7842C24.0833 35.9176 24.0833 36.0176 24.0667 36.1509C22.7667 36.4676 21.4 36.6676 20 36.6676C18.5833 36.6676 17.2333 36.4676 15.9167 36.1509C15.9 36.0176 15.9167 35.9176 15.8833 35.7842C15.15 33.5676 14.6 31.3176 14.1833 29.0176C16.1167 29.2342 18.05 29.3842 20 29.3842C21.95 29.3842 23.9 29.2342 25.8167 29.0176Z" fill="#F2A84C"/>
<path d="M26.2722 26.2729C22.1037 26.7988 17.8963 26.7988 13.7278 26.2729C13.2019 22.1044 13.2019 17.8969 13.7278 13.7284C17.8963 13.2025 22.1037 13.2025 26.2722 13.7284C26.7982 17.8969 26.7982 22.1044 26.2722 26.2729Z" fill="#F2A84C"/>
</svg>
