<svg width="40" height="40" viewBox="0 0 40 40" fill="none" xmlns="http://www.w3.org/2000/svg">
<path d="M34.9173 6.88398C34.434 6.18398 33.8173 5.56732 33.1173 5.08398C31.534 3.93398 29.4673 3.33398 26.984 3.33398H13.0173C12.684 3.33398 12.3507 3.35065 12.034 3.38398C6.56732 3.73398 3.33398 7.28398 3.33398 13.0173V26.984C3.33398 29.4673 3.93398 31.534 5.08398 33.1173C5.56732 33.8173 6.18398 34.434 6.88398 34.9173C8.25065 35.9173 9.98398 36.5007 12.034 36.634C12.3507 36.6507 12.684 36.6673 13.0173 36.6673H26.984C33.0507 36.6673 36.6673 33.0507 36.6673 26.984V13.0173C36.6673 10.534 36.0673 8.46732 34.9173 6.88398ZM14.1007 17.8007L13.284 16.9507C12.8507 16.5173 12.5007 15.734 12.5007 15.2007V13.2007C12.5007 12.1507 13.284 11.3673 14.2507 11.3673H17.8173C18.5006 11.3673 18.9173 12.1173 18.5507 12.7007L15.4673 17.6673C15.1673 18.1507 14.484 18.2173 14.1007 17.8007ZM27.5007 15.034C27.5007 15.734 27.0673 16.6007 26.634 17.034L22.884 20.3507C22.3673 20.784 22.0173 21.6507 22.0173 22.3507V26.1007C22.0173 26.6173 21.6673 27.3173 21.234 27.584L20.0007 28.3673C18.8673 29.0673 17.3007 28.284 17.3007 26.884V22.2673C17.3007 21.6507 16.9507 20.8673 16.6007 20.434L16.2007 20.0007C15.934 19.7173 15.884 19.284 16.084 18.934L20.5507 11.7673C20.7173 11.5173 20.984 11.3507 21.284 11.3507H25.7507C26.7173 11.3507 27.5007 12.134 27.5007 13.1007V15.034V15.034Z" fill="#F2A84C"/>
</svg>
