<svg width="40" height="40" viewBox="0 0 40 40" fill="none" xmlns="http://www.w3.org/2000/svg">
<path fill-rule="evenodd" clip-rule="evenodd" d="M20 5C11.729 5 5 11.729 5 20C5 28.271 11.729 35 20 35C28.271 35 35 28.271 35 20C35 11.729 28.271 5 20 5ZM15.5 12.5V18.5C15.5 20.4593 16.7522 22.1262 18.5 22.7439V24.5H17C16.5858 24.5 16.25 24.8358 16.25 25.25V26.75C16.25 27.1642 16.5858 27.5 17 27.5H23C23.4142 27.5 23.75 27.1642 23.75 26.75V25.25C23.75 24.8358 23.4142 24.5 23 24.5H21.5V22.7439C23.2478 22.1262 24.5 20.4593 24.5 18.5V12.5H15.5ZM14.75 18.5V13.25H13.25C12.8358 13.25 12.5 13.5858 12.5 14V15.8214C12.5 17.2348 13.4354 18.4484 14.771 18.973C14.7571 18.8172 14.75 18.6594 14.75 18.5ZM27.5 14C27.5 13.5858 27.1642 13.25 26.75 13.25H25.25V18.5C25.25 18.6594 25.2429 18.8172 25.229 18.973C26.5646 18.4484 27.5 17.2348 27.5 15.8214V14Z" fill="#D34B6A"/>
</svg>
