<svg width="40" height="40" viewBox="0 0 40 40" fill="none" xmlns="http://www.w3.org/2000/svg">
<path d="M15 7.08333V9.58333H19.5833V30C19.5833 32.5333 21.6333 34.5833 24.1667 34.5833H26.6667V32.0833H24.1667C23.0167 32.0833 22.0833 31.15 22.0833 30V22.0833H26.6667V19.5833H22.0833V9.58333H26.6667V7.08333H15Z" fill="#E79CAD"/>
<path d="M28.6667 24.1667H34.6667C35.7667 24.1667 36.6667 23.2667 36.6667 22.1667V19.5C36.6667 18.4 35.7667 17.5 34.6667 17.5H28.6667C27.5667 17.5 26.6667 18.4 26.6667 19.5V19.5833V22.0833V22.1667C26.6667 23.2667 27.5667 24.1667 28.6667 24.1667Z" fill="#E79CAD"/>
<path d="M28.6667 11.6667H34.6667C35.7667 11.6667 36.6667 10.7667 36.6667 9.66667V7C36.6667 5.9 35.7667 5 34.6667 5H28.6667C27.5667 5 26.6667 5.9 26.6667 7V7.08333V9.58333V9.66667C26.6667 10.7667 27.5667 11.6667 28.6667 11.6667Z" fill="#E79CAD"/>
<path d="M28.6667 36.6667H34.6667C35.7667 36.6667 36.6667 35.7667 36.6667 34.6667V32C36.6667 30.9 35.7667 30 34.6667 30H28.6667C27.5667 30 26.6667 30.9 26.6667 32V32.0833V34.5833V34.6667C26.6667 35.7667 27.5667 36.6667 28.6667 36.6667Z" fill="#E79CAD"/>
<path d="M6.66732 13.332H11.6673C13.5006 13.332 15.0006 11.832 15.0006 9.9987V9.58203V7.08203V6.66536C15.0006 4.83203 13.5006 3.33203 11.6673 3.33203H6.66732C4.83398 3.33203 3.33398 4.83203 3.33398 6.66536V9.9987C3.33398 11.832 4.83398 13.332 6.66732 13.332Z" fill="#D34B6A"/>
</svg>
