<svg width="40" height="40" viewBox="0 0 40 40" fill="none" xmlns="http://www.w3.org/2000/svg">
<path d="M16.2432 35.0007C16.1689 35.0007 16.0945 35.0006 16.0202 34.9709C10.3262 33.8113 5.70253 29.6188 3.97796 24.0585C3.79955 23.4639 4.12664 22.8395 4.70645 22.6611C5.30113 22.4826 5.92553 22.8097 6.10394 23.3895C7.59064 28.1767 11.5601 31.7745 16.4662 32.7706C17.0758 32.8895 17.4623 33.4842 17.3285 34.0938C17.2244 34.629 16.7487 35.0007 16.2432 35.0007Z" fill="#F2A84C"/>
<path d="M34.0248 18.9146C33.4598 18.9146 32.9692 18.4834 32.9097 17.9185C32.1961 10.8715 26.3088 5.56403 19.2321 5.56403C12.1406 5.56403 6.26811 10.8715 5.55449 17.9036C5.49502 18.5132 4.95981 18.9741 4.3354 18.8997C3.72585 18.8403 3.27984 18.2902 3.3393 17.6806C4.17185 9.50378 11.0107 3.33398 19.2321 3.33398C27.4684 3.33398 34.3072 9.50378 35.1249 17.6806C35.1844 18.2902 34.7384 18.8403 34.1288 18.8997C34.0991 18.9146 34.0545 18.9146 34.0248 18.9146Z" fill="#F2A84C"/>
<path d="M22.2202 35.0006C21.6998 35.0006 21.239 34.6438 21.1349 34.1086C21.016 33.4991 21.4025 32.9192 21.9972 32.8003C26.8735 31.8042 30.843 28.2361 32.3446 23.4787C32.523 22.884 33.1623 22.5569 33.7421 22.7502C34.3368 22.9286 34.649 23.5679 34.4706 24.1477C32.7163 29.6782 28.1075 33.8261 22.4432 34.9857C22.3689 34.9857 22.2945 35.0006 22.2202 35.0006Z" fill="#F2A84C"/>
</svg>
