<svg width="40" height="40" viewBox="0 0 40 40" fill="none" xmlns="http://www.w3.org/2000/svg">
<path d="M27.9164 5.93203V3.33203C27.9164 2.6487 27.3497 2.08203 26.6664 2.08203C25.9831 2.08203 25.4164 2.6487 25.4164 3.33203V5.83203H14.5831V3.33203C14.5831 2.6487 14.0164 2.08203 13.3331 2.08203C12.6497 2.08203 12.0831 2.6487 12.0831 3.33203V5.93203C7.58306 6.3487 5.39973 9.03203 5.0664 13.0154C5.03306 13.4987 5.43306 13.8987 5.89973 13.8987H34.0997C34.5831 13.8987 34.9831 13.482 34.9331 13.0154C34.5997 9.03203 32.4164 6.3487 27.9164 5.93203Z" fill="#F2A84C"/>
<path fill-rule="evenodd" clip-rule="evenodd" d="M6.66667 16.3984H33.3333C34.25 16.3984 35 17.1484 35 18.0651V28.3318C35 33.3318 32.5 36.6651 26.6667 36.6651H13.3333C7.5 36.6651 5 33.3318 5 28.3318V18.0651C5 17.1484 5.75 16.3984 6.66667 16.3984ZM14.1667 24.032C12.786 24.032 11.6667 25.1513 11.6667 26.532C11.6667 27.9127 12.786 29.032 14.1667 29.032H25.8333C27.214 29.032 28.3333 27.9127 28.3333 26.532C28.3333 25.1513 27.214 24.032 25.8333 24.032H14.1667Z" fill="#F6BF7C"/>
</svg>
