<svg width="40" height="40" viewBox="0 0 40 40" fill="none" xmlns="http://www.w3.org/2000/svg">
<path d="M25.9842 2.91602C21.0342 2.91602 17.0176 6.93268 17.0176 11.8827C17.0176 16.8327 21.0342 20.8494 25.9842 20.8494C30.9342 20.8494 34.9509 16.8327 34.9509 11.8827C34.9509 6.93268 30.9342 2.91602 25.9842 2.91602Z" fill="#83BF6E"/>
<path d="M5.55078 27.2668C5.55078 24.4772 7.82595 22.2168 10.6008 22.2168C13.3756 22.2168 15.6508 24.4772 15.6508 27.2668C15.6508 30.0563 13.3756 32.3168 10.6008 32.3168C7.81026 32.3168 5.55078 30.0573 5.55078 27.2668Z" fill="#BBDCAF" stroke="#BBDCAF"/>
<path d="M27.7009 27.6992C25.1176 27.6992 23.0176 29.7992 23.0176 32.3826C23.0176 34.9659 25.1176 37.0659 27.7009 37.0659C30.2842 37.0659 32.3842 34.9659 32.3842 32.3826C32.3842 29.7992 30.2842 27.6992 27.7009 27.6992Z" fill="#BBDCAF"/>
</svg>
