<svg width="40" height="40" viewBox="0 0 40 40" fill="none" xmlns="http://www.w3.org/2000/svg">
<path fill-rule="evenodd" clip-rule="evenodd" d="M20.342 8.42499C18.7491 8.42499 17.3037 8.68006 15.9849 9.07417C15.3386 9.26734 14.658 8.89994 14.4648 8.25358C14.2717 7.60721 14.639 6.92663 15.2854 6.73346C16.8005 6.28067 18.4822 5.98199 20.342 5.98199C28.8179 5.98199 35.684 12.8481 35.684 21.324C35.684 29.7999 28.8179 36.666 20.342 36.666C11.8661 36.666 5 29.7999 5 21.324C5 18.1748 5.95597 15.2368 7.583 12.7963C7.95721 12.235 8.7156 12.0833 9.27691 12.4575C9.83822 12.8317 9.9899 13.5901 9.61569 14.1514C8.24598 16.206 7.443 18.6752 7.443 21.324C7.443 28.4507 13.2153 34.223 20.342 34.223C27.4687 34.223 33.241 28.4507 33.241 21.324C33.241 14.1973 27.4687 8.42499 20.342 8.42499Z" fill="#E0704A"/>
<path fill-rule="evenodd" clip-rule="evenodd" d="M19.1245 1.9662C19.6333 2.40913 19.6867 3.1807 19.2438 3.68953L14.537 9.0967C14.094 9.60553 13.3225 9.65896 12.8136 9.21603C12.3048 8.77309 12.2514 8.00153 12.6943 7.49269L17.4011 2.08553C17.8441 1.57669 18.6156 1.52327 19.1245 1.9662Z" fill="#E0704A"/>
<path fill-rule="evenodd" clip-rule="evenodd" d="M12.629 7.5745C13.0268 7.02962 13.7909 6.91034 14.3358 7.30809L19.8244 11.3146C20.3693 11.7124 20.4886 12.4765 20.0908 13.0214C19.6931 13.5663 18.9289 13.6856 18.384 13.2878L12.8954 9.2813C12.3506 8.88355 12.2313 8.11939 12.629 7.5745Z" fill="#E0704A"/>
<path fill-rule="evenodd" clip-rule="evenodd" d="M19.6091 14.4186C20.2837 14.4186 20.8306 14.9655 20.8306 15.6401V19.0603C20.8306 19.3104 20.9261 19.6728 21.1384 20.0452C21.3508 20.4176 21.614 20.684 21.8279 20.8107L21.8312 20.8127L26.88 23.8257C27.4593 24.1714 27.6487 24.9213 27.303 25.5006C26.9573 26.0799 26.2074 26.2692 25.6281 25.9235L20.5825 22.9124L20.5808 22.9114C19.916 22.517 19.3818 21.8963 19.0163 21.2554C18.6504 20.6139 18.3876 19.8363 18.3876 19.0603V15.6401C18.3876 14.9655 18.9345 14.4186 19.6091 14.4186Z" fill="#E0704A"/>
</svg>
