<svg width="40" height="40" viewBox="0 0 40 40" fill="none" xmlns="http://www.w3.org/2000/svg">
<path d="M20.0008 7.75C12.0341 7.75 5.55078 14.2333 5.55078 22.2C5.55078 30.1667 12.0341 36.6667 20.0008 36.6667C27.9674 36.6667 34.4508 30.1833 34.4508 22.2167C34.4508 14.25 27.9674 7.75 20.0008 7.75ZM21.2508 21.6667C21.2508 22.35 20.6841 22.9167 20.0008 22.9167C19.3174 22.9167 18.7508 22.35 18.7508 21.6667V13.3333C18.7508 12.65 19.3174 12.0833 20.0008 12.0833C20.6841 12.0833 21.2508 12.65 21.2508 13.3333V21.6667Z" fill="#6E9EF9"/>
<path d="M24.8158 5.7487H15.1824C14.5158 5.7487 13.9824 5.21536 13.9824 4.5487C13.9824 3.88203 14.5158 3.33203 15.1824 3.33203H24.8158C25.4824 3.33203 26.0158 3.86536 26.0158 4.53203C26.0158 5.1987 25.4824 5.7487 24.8158 5.7487Z" fill="#4A86F7"/>
</svg>
