<svg width="40" height="40" viewBox="0 0 40 40" fill="none" xmlns="http://www.w3.org/2000/svg">
<path fill-rule="evenodd" clip-rule="evenodd" d="M13.0233 5C10.24 5 8.08117 5.32255 6.70186 6.70186C5.32255 8.08117 5 10.24 5 13.0233V26.9767C5 29.76 5.32255 31.9188 6.70186 33.2981C8.08117 34.6774 10.24 35 13.0233 35H26.9767C29.76 35 31.9188 34.6774 33.2981 33.2981C34.6774 31.9188 35 29.76 35 26.9767V18.6047C35 15.8214 34.6774 13.6626 33.2981 12.2833C31.9188 10.9039 29.76 10.5814 26.9767 10.5814H22.7907C22.1875 10.5814 21.979 10.4888 21.8913 10.4358C21.7764 10.3663 21.6848 10.2644 21.3934 9.88115L19.3023 7.09302L19.2564 7.03169C18.894 6.54764 18.4706 5.98205 17.8162 5.58896C17.1093 5.16426 16.2534 5 15.1163 5H13.0233ZM24.4387 22.5936L25.5126 21.5086C26.3997 20.6219 26.8316 19.7819 26.8432 18.9419C26.8432 18.0552 26.4113 17.2036 25.5242 16.3169C23.785 14.5786 22.0925 14.5436 20.3183 16.3169L19.2328 17.4019C19.2226 17.4108 19.2131 17.4205 19.2043 17.4307C19.1326 17.514 19.1082 17.6376 19.1394 17.7519C19.8164 20.1202 21.7073 22.0102 24.0769 22.6869C24.1002 22.6986 24.1469 22.6986 24.1819 22.6986H24.1819C24.2753 22.6986 24.3687 22.6636 24.4387 22.5936ZM18.0188 28.9986C17.6803 29.3369 17.0383 29.6636 16.5714 29.7336L13.7 30.1419L13.7 30.1419C13.5949 30.1536 13.4899 30.1652 13.3849 30.1652C12.9063 30.1652 12.4627 30.0019 12.1476 29.6869C11.7624 29.3019 11.599 28.7419 11.6923 28.1236L12.1009 25.2536C12.1709 24.7752 12.4861 24.1452 12.8363 23.8069L18.0422 18.6036L18.0422 18.6036C18.1356 18.8486 18.2289 19.0936 18.3573 19.3736C18.4741 19.6186 18.6025 19.8752 18.7425 20.1086C18.8593 20.3069 18.9876 20.4936 19.0927 20.6336C19.2211 20.8319 19.3728 21.0186 19.4662 21.1236C19.5246 21.2052 19.5713 21.2636 19.5946 21.2869C19.8864 21.6369 20.2249 21.9636 20.5167 22.2086L20.5168 22.2086L20.5168 22.2087L20.5169 22.2087C20.5985 22.2903 20.6452 22.3369 20.6685 22.3486L20.6685 22.3486L20.6686 22.3486L20.6686 22.3486C20.8436 22.4886 21.0187 22.6286 21.1704 22.7336C21.3572 22.8736 21.5439 23.0019 21.7424 23.1069C21.9758 23.2469 22.2326 23.3752 22.4894 23.5036C22.7579 23.6202 23.003 23.7252 23.2481 23.8069L18.0188 28.9986Z" fill="#57B6F0"/>
</svg>
