<svg width="40" height="40" viewBox="0 0 40 40" fill="none" xmlns="http://www.w3.org/2000/svg">
<path d="M35.1168 8.71732C32.4334 8.45065 29.7501 8.25065 27.0501 8.10065V8.08398L26.6834 5.91732C26.4334 4.38398 26.0668 2.08398 22.1668 2.08398H17.8001C13.9168 2.08398 13.5501 4.28398 13.2834 5.90065L12.9334 8.03399C11.3834 8.13399 9.83343 8.23399 8.28343 8.38399L4.88343 8.71732C4.18343 8.78399 3.68343 9.40065 3.7501 10.084C3.81677 10.7673 4.41677 11.2673 5.11677 11.2007L8.51677 10.8673C17.2501 10.0007 26.0501 10.334 34.8834 11.2173C34.9334 11.2173 34.9668 11.2173 35.0168 11.2173C35.6501 11.2173 36.2001 10.734 36.2668 10.084C36.3168 9.40065 35.8168 8.78399 35.1168 8.71732Z" fill="#57B6F0"/>
<path d="M32.0509 13.566C31.6509 13.1493 31.1009 12.916 30.5342 12.916H9.46755C8.90088 12.916 8.33422 13.1493 7.95088 13.566C7.56755 13.9827 7.35088 14.5493 7.38422 15.1327L8.41755 32.2327C8.60088 34.766 8.83422 37.9327 14.6509 37.9327H25.3509C31.1675 37.9327 31.4009 34.7827 31.5842 32.2327L32.6175 15.1493C32.6509 14.5493 32.4342 13.9827 32.0509 13.566ZM22.7675 29.5827H17.2176C16.5342 29.5827 15.9676 29.016 15.9676 28.3327C15.9676 27.6493 16.5342 27.0827 17.2176 27.0827H22.7675C23.4509 27.0827 24.0175 27.6493 24.0175 28.3327C24.0175 29.016 23.4509 29.5827 22.7675 29.5827ZM24.1675 22.916H15.8342C15.1509 22.916 14.5842 22.3493 14.5842 21.666C14.5842 20.9827 15.1509 20.416 15.8342 20.416H24.1675C24.8509 20.416 25.4175 20.9827 25.4175 21.666C25.4175 22.3493 24.8509 22.916 24.1675 22.916Z" fill="#84CAF4"/>
</svg>
