<svg width="24" height="24" viewBox="0 0 24 24" fill="none" xmlns="http://www.w3.org/2000/svg">
<path fill-rule="evenodd" clip-rule="evenodd" d="M12 8.25C12.4142 8.25 12.75 8.58579 12.75 9V14C12.75 14.4142 12.4142 14.75 12 14.75C11.5858 14.75 11.25 14.4142 11.25 14V9C11.25 8.58579 11.5858 8.25 12 8.25Z" fill="#E0704A"/>
<path fill-rule="evenodd" clip-rule="evenodd" d="M12.0001 3.34375C11.2003 3.34375 10.2324 3.89264 9.416 5.36496L3.35602 16.2649C2.59552 17.6365 2.62804 18.7184 3.03565 19.4128C3.44283 20.1065 4.36986 20.6612 5.94009 20.6612H12.0001C12.0419 20.6612 12.0829 20.6647 12.1229 20.6712H18.0601C19.6246 20.6712 20.5525 20.117 20.9611 19.4222C21.3699 18.7273 21.4041 17.6455 20.6442 16.2749L14.5845 5.36559C13.7681 3.89327 12.7999 3.34375 12.0001 3.34375ZM11.8773 22.1612H5.94009C4.04033 22.1612 2.50735 21.476 1.74204 20.1722C0.977148 18.8691 1.12466 17.196 2.04417 15.5376L8.10419 4.63754C8.10431 4.63732 8.10407 4.63776 8.10419 4.63754C9.06775 2.90025 10.4501 1.84375 12.0001 1.84375C13.5501 1.84375 14.9321 2.8996 15.8957 4.63691L18.8357 9.92691L21.9558 15.5472C22.8759 17.2066 23.0203 18.8802 22.254 20.1828C21.4877 21.4855 19.9556 22.1712 18.0601 22.1712H12.0001C11.9583 22.1712 11.9173 22.1678 11.8773 22.1612Z" fill="#E0704A"/>
<path fill-rule="evenodd" clip-rule="evenodd" d="M10.9946 17C10.9946 16.4477 11.4423 16 11.9946 16H12.0036C12.5559 16 13.0036 16.4477 13.0036 17C13.0036 17.5523 12.5559 18 12.0036 18H11.9946C11.4423 18 10.9946 17.5523 10.9946 17Z" fill="#E0704A"/>
</svg>
