<svg width="56" height="56" viewBox="0 0 56 56" fill="none" xmlns="http://www.w3.org/2000/svg">
<path d="M28.0003 4.66797C21.887 4.66797 16.917 9.63797 16.917 15.7513C16.917 21.748 21.607 26.6013 27.7203 26.8113C27.907 26.788 28.0937 26.788 28.2337 26.8113C28.2803 26.8113 28.3037 26.8113 28.3503 26.8113C28.3737 26.8113 28.3737 26.8113 28.397 26.8113C34.3703 26.6013 39.0603 21.748 39.0837 15.7513C39.0837 9.63797 34.1137 4.66797 28.0003 4.66797Z" fill="#DCDEE4"/>
<path d="M39.8552 33.0167C33.3452 28.6767 22.7285 28.6767 16.1719 33.0167C13.2085 35.0001 11.5752 37.6834 11.5752 40.5534C11.5752 43.4234 13.2085 46.0834 16.1485 48.0434C19.4152 50.2367 23.7085 51.3334 28.0019 51.3334C32.2952 51.3334 36.5885 50.2367 39.8552 48.0434C42.7952 46.0601 44.4285 43.4001 44.4285 40.5067C44.4052 37.6367 42.7952 34.9767 39.8552 33.0167Z" fill="#DCDEE4"/>
</svg>
