<svg width="16" height="18" viewBox="0 0 16 18" fill="none" xmlns="http://www.w3.org/2000/svg">
<path fill-rule="evenodd" clip-rule="evenodd" d="M6.37872 2.06985C6.30801 2.15004 6.26815 2.28449 6.19899 2.69513L6.07408 3.43895C6.50465 3.42678 6.93523 3.4207 7.36582 3.4207C8.31955 3.4207 9.27425 3.43862 10.2288 3.47408L10.0977 2.69983C10.0335 2.30612 9.99293 2.16479 9.91837 2.07887C9.87711 2.03132 9.73327 1.90116 9.15396 1.90116H7.14327C6.55533 1.90116 6.41589 2.0277 6.37872 2.06985ZM11.4049 3.52662C12.6427 3.59121 13.8794 3.68503 15.1124 3.80722C15.4287 3.83857 15.6597 4.12043 15.6284 4.43676C15.597 4.7531 15.3152 4.98412 14.9988 4.95278C12.4616 4.70134 9.90961 4.57186 7.36582 4.57186C5.86571 4.57186 4.36548 4.64762 2.86507 4.79918L2.86338 4.79935L1.2978 4.95284C0.981431 4.98385 0.69982 4.75253 0.668804 4.43616C0.637787 4.11979 0.86911 3.83818 1.18548 3.80717L2.74937 3.65384C2.74965 3.65382 2.74992 3.65379 2.75019 3.65376C3.46632 3.58144 4.18248 3.52595 4.89868 3.48729L5.06377 2.50421C5.06672 2.4867 5.06976 2.46836 5.07283 2.44979C5.12568 2.13062 5.2032 1.66239 5.51532 1.30846C5.87913 0.895904 6.43422 0.75 7.14327 0.75H9.15396C9.87163 0.75 10.4262 0.907632 10.7878 1.32439C11.1004 1.68456 11.1759 2.15446 11.2264 2.46823C11.2289 2.4835 11.2313 2.4984 11.2336 2.5129C11.2337 2.51346 11.2338 2.51402 11.2339 2.51459L11.4022 3.50884C11.4032 3.51478 11.4041 3.5207 11.4049 3.52662ZM2.85456 6.23073C3.17179 6.21025 3.44555 6.45082 3.46602 6.76804L3.96465 14.493C3.96469 14.4936 3.96472 14.4941 3.96476 14.4946C3.98642 14.8037 4.00475 15.0488 4.04778 15.2625C4.08969 15.4706 4.14787 15.6072 4.223 15.7051C4.35256 15.8737 4.67254 16.0988 5.68513 16.0988H10.6121C11.6247 16.0988 11.9447 15.8737 12.0742 15.7051C12.1494 15.6072 12.2075 15.4706 12.2495 15.2625C12.2925 15.0488 12.3108 14.8037 12.3325 14.4946C12.3325 14.4941 12.3325 14.4936 12.3326 14.493L12.8312 6.76804C12.8517 6.45082 13.1254 6.21025 13.4427 6.23073C13.7599 6.25121 14.0005 6.52497 13.98 6.84219L13.4811 14.5703L13.4809 14.5735L13.4799 14.5881C13.4597 14.8768 13.4375 15.1943 13.378 15.4898C13.3163 15.7961 13.2075 16.1194 12.9872 16.4063C12.5258 17.007 11.7407 17.25 10.6121 17.25H5.68513C4.55655 17.25 3.77141 17.007 3.31005 16.4063C3.08971 16.1194 2.98097 15.7961 2.91928 15.4898C2.85978 15.1943 2.83754 14.8768 2.81732 14.5881L2.8163 14.5735L2.81609 14.5703L2.31725 6.84219C2.29678 6.52497 2.53734 6.25121 2.85456 6.23073ZM5.65443 9.38372C5.65443 9.06584 5.91213 8.80814 6.23001 8.80814H10.0672C10.3851 8.80814 10.6428 9.06584 10.6428 9.38372C10.6428 9.70161 10.3851 9.9593 10.0672 9.9593H6.23001C5.91213 9.9593 5.65443 9.70161 5.65443 9.38372ZM6.29141 12.4535C6.29141 12.1356 6.5491 11.8779 6.86699 11.8779H9.42257C9.74045 11.8779 9.99815 12.1356 9.99815 12.4535C9.99815 12.7714 9.74045 13.0291 9.42257 13.0291H6.86699C6.5491 13.0291 6.29141 12.7714 6.29141 12.4535Z" fill="#6A7185"/>
</svg>
