<svg width="18" height="18" viewBox="0 0 18 18" fill="none" xmlns="http://www.w3.org/2000/svg">
<path d="M3.11814 15.0081L3.11643 15.0064C2.85558 14.7606 2.7082 14.3686 2.76035 13.9041C2.76036 13.904 2.76038 13.9039 2.76039 13.9037L3.03777 11.4748C3.03777 11.4748 3.03778 11.4747 3.03778 11.4747C3.03779 11.4747 3.03779 11.4746 3.0378 11.4746C3.0565 11.312 3.11963 11.0982 3.21951 10.8831C3.31976 10.6673 3.4407 10.4853 3.55112 10.3723L3.55117 10.3724L3.55697 10.3662L9.71447 3.84871L9.71449 3.8487C10.429 3.09231 11.0976 2.76823 11.7164 2.75076C12.3352 2.73329 13.0212 3.01916 13.7777 3.73379C14.5341 4.44836 14.8581 5.11689 14.8756 5.7357C14.8931 6.35456 14.6072 7.04051 13.8926 7.79697L7.73508 14.3145L7.73507 14.3145L7.733 14.3167C7.49277 14.5741 7.00758 14.835 6.66014 14.8919L6.66014 14.8919L6.65684 14.8925L4.26844 15.3004C4.20651 15.3044 4.16177 15.3083 4.1241 15.3117C4.06686 15.3167 4.02598 15.3203 3.96602 15.3203C3.62101 15.3203 3.32184 15.2018 3.11814 15.0081ZM9.80502 3.91952L9.80488 3.91967L3.64896 10.443C3.64865 10.4433 3.64835 10.4436 3.64805 10.444C3.51881 10.58 3.41128 10.769 3.33668 10.9289C3.26101 11.0911 3.18789 11.2906 3.16321 11.4695L3.16308 11.4695L3.16175 11.4811L2.88466 13.9077C2.88458 13.9083 2.88451 13.9089 2.88443 13.9096C2.84214 14.2621 2.91949 14.6414 3.20271 14.9088C3.48845 15.1787 3.86847 15.2258 4.20593 15.1747L4.20594 15.1748L4.21521 15.1732L6.63021 14.7607L6.63098 14.7606C6.81614 14.7286 7.01514 14.6425 7.17196 14.5582C7.32906 14.4737 7.50855 14.3561 7.6356 14.2227L7.63697 14.2212L13.7945 7.70371L13.7954 7.70267C14.2754 7.19177 14.7008 6.60446 14.7429 5.90737C14.7867 5.18349 14.4131 4.50195 13.6856 3.81797C13.0407 3.19795 12.4057 2.86283 11.7585 2.86283C10.9611 2.86283 10.3319 3.3617 9.80502 3.91952Z" fill="#35353D" stroke="#4A86F7"/>
<path d="M12.8354 8.77242L12.8358 8.77246C12.8499 8.77384 12.8634 8.78046 12.8746 8.79417C12.8841 8.80577 12.889 8.81913 12.8895 8.83293C12.8859 8.84676 12.8777 8.86084 12.8642 8.87272C12.8479 8.88705 12.8307 8.89232 12.8169 8.89232H12.8168H12.8167H12.8166H12.8165H12.8164H12.8163H12.8162H12.8161H12.8161H12.816H12.8159H12.8158H12.8157H12.8156H12.8155H12.8154H12.8153H12.8152H12.8152H12.8151H12.815H12.8149H12.8148H12.8147H12.8146H12.8145H12.8144H12.8143H12.8142H12.8141H12.814H12.814H12.8139H12.8138H12.8137H12.8136H12.8135H12.8134H12.8133H12.8132H12.8131H12.813H12.8129H12.8128H12.8127H12.8126H12.8125H12.8124H12.8124H12.8123H12.8122H12.8121H12.812H12.8119H12.8118H12.8117H12.8116H12.8115H12.8114H12.8113H12.8112H12.8111H12.811H12.8109H12.8108H12.8107H12.8106H12.8105H12.8104H12.8103H12.8102H12.8101H12.81H12.8099H12.8098H12.8097H12.8096H12.8095H12.8094H12.8093H12.8092H12.8091H12.809H12.8089H12.8088H12.8087H12.8086H12.8085H12.8084H12.8083H12.8082H12.8081H12.808H12.8079H12.8078H12.8077H12.8076H12.8075H12.8074H12.8073H12.8072H12.8071H12.807H12.8069H12.8068H12.8067H12.8066H12.8065H12.8064H12.8063H12.8062H12.8061H12.806H12.8059H12.8058H12.8057H12.8056H12.8055H12.8054H12.8053H12.8052H12.8051H12.8049H12.8048H12.8047H12.8046H12.8045H12.8044H12.8043H12.8042H12.8041H12.804H12.8039H12.8038H12.8037H12.8036H12.8035H12.8034H12.8033H12.8032H12.8031H12.803H12.8029H12.8027H12.8026H12.8025H12.8024H12.8023H12.8022H12.8021H12.802H12.8019H12.8018H12.8017H12.8016H12.8015H12.8014H12.8013H12.8012H12.801H12.8009H12.8008H12.8007H12.8006H12.8005H12.8004H12.8003H12.8002H12.8001H12.8H12.7999H12.7998H12.7997H12.7995H12.7994H12.7993H12.7992H12.7991H12.799H12.7989H12.7988H12.7987H12.7986H12.7985H12.7984H12.7983H12.7981H12.798H12.7979H12.7978H12.7977H12.7976H12.7975H12.7974H12.7973H12.7972H12.7971H12.797H12.7968H12.7967H12.7966H12.7965H12.7964H12.7963H12.7962H12.7961H12.796H12.7959H12.7958H12.7956H12.7955H12.7954H12.7953H12.7952H12.7951H12.795H12.7949H12.7948H12.7947H12.7946H12.7944H12.7943H12.7942H12.7941H12.794H12.7939H12.7938H12.7937H12.7936H12.7935H12.7933H12.7932H12.7931H12.793H12.7929H12.7928H12.7927H12.7926H12.7925H12.7924H12.7922H12.7921H12.792H12.7919H12.7918H12.7917H12.7916H12.7915H12.7914H12.7913H12.7911H12.791H12.7909H12.7908H12.7907H12.7906H12.7905H12.7904H12.7903H12.7902H12.7901H12.7899H12.7898H12.7898C10.6882 8.67268 9.00138 7.07347 8.67643 4.98384C8.67224 4.95143 8.69246 4.91627 8.73228 4.90648C8.76458 4.90452 8.79834 4.92632 8.80616 4.9672C9.12815 7.0037 10.7791 8.57016 12.8354 8.77242Z" fill="#35353D" stroke="#4A86F7"/>
</svg>
