<svg width="24" height="24" viewBox="0 0 24 24" fill="none" xmlns="http://www.w3.org/2000/svg">
<path fill-rule="evenodd" clip-rule="evenodd" d="M11.9999 9.17188C10.4341 9.17188 9.16992 10.4361 9.16992 12.0019C9.16992 13.5677 10.4341 14.8319 11.9999 14.8319C13.5657 14.8319 14.8299 13.5677 14.8299 12.0019C14.8299 10.4361 13.5657 9.17188 11.9999 9.17188ZM7.66992 12.0019C7.66992 9.60766 9.60571 7.67188 11.9999 7.67188C14.3941 7.67188 16.3299 9.60766 16.3299 12.0019C16.3299 14.3961 14.3941 16.3319 11.9999 16.3319C9.60571 16.3319 7.66992 14.3961 7.66992 12.0019Z" fill="#A5ADC5"/>
<path fill-rule="evenodd" clip-rule="evenodd" d="M2.25758 8.99571C4.6485 5.23735 8.15211 2.96875 12.0001 2.96875C15.8482 2.96875 19.352 5.23755 21.7429 8.99621C22.2879 9.85055 22.5351 10.9449 22.5351 11.9937C22.5351 13.0426 22.2879 14.137 21.7429 14.9913C19.352 18.75 15.8482 21.0188 12.0001 21.0188C8.15194 21.0188 4.64819 18.75 2.25727 14.9913C1.71229 14.137 1.46509 13.0426 1.46509 11.9937C1.46509 10.9447 1.71239 9.85013 2.25758 8.99571ZM12.0001 4.46875C8.78823 4.46875 5.71198 6.35995 3.52291 9.80129L3.52228 9.80228C3.16769 10.3578 2.96509 11.153 2.96509 11.9937C2.96509 12.8345 3.16769 13.6297 3.52228 14.1852L3.52291 14.1862C5.71198 17.6275 8.78824 19.5188 12.0001 19.5188C15.2119 19.5188 18.2882 17.6275 20.4773 14.1862L20.4779 14.1852C20.8325 13.6297 21.0351 12.8345 21.0351 11.9937C21.0351 11.153 20.8325 10.3578 20.4779 9.80228L20.4773 9.80129C18.2882 6.35995 15.2119 4.46875 12.0001 4.46875Z" fill="#A5ADC5"/>
</svg>
