<svg width="24" height="24" viewBox="0 0 24 24" fill="none" xmlns="http://www.w3.org/2000/svg">
<path d="M23.6668 16.887C23.6668 21.1337 21.1352 23.6654 16.8885 23.6654H15.5002C14.8585 23.6654 14.3335 23.1404 14.3335 22.4987V15.767C14.3335 15.452 14.5902 15.1837 14.9052 15.1837L16.9585 15.1487C17.1218 15.137 17.2618 15.0204 17.2968 14.857L17.7052 12.6287C17.7402 12.4187 17.5768 12.2204 17.3552 12.2204L14.8702 12.2554C14.5435 12.2554 14.2868 11.9987 14.2752 11.6837L14.2285 8.82536C14.2285 8.6387 14.3802 8.47538 14.5785 8.47538L17.3785 8.4287C17.5768 8.4287 17.7285 8.27705 17.7285 8.07872L17.6818 5.27869C17.6818 5.08035 17.5302 4.9287 17.3318 4.9287L14.1818 4.97538C12.2452 5.01038 10.7052 6.59703 10.7402 8.5337L10.7985 11.742C10.8102 12.0687 10.5535 12.3254 10.2268 12.337L8.82683 12.3604C8.6285 12.3604 8.47684 12.512 8.47684 12.7103L8.51184 14.927C8.51184 15.1254 8.66349 15.277 8.86183 15.277L10.2618 15.2537C10.5885 15.2537 10.8452 15.5104 10.8568 15.8254L10.9618 22.4754C10.9735 23.1287 10.4485 23.6654 9.79515 23.6654H7.11183C2.86516 23.6654 0.333496 21.1337 0.333496 16.8754V7.11036C0.333496 2.8637 2.86516 0.332031 7.11183 0.332031H16.8885C21.1352 0.332031 23.6668 2.8637 23.6668 7.11036V16.887V16.887Z" fill="#4A86F7"/>
</svg>
