<svg width="40" height="40" viewBox="0 0 40 40" fill="none" xmlns="http://www.w3.org/2000/svg">
<rect width="40" height="40" rx="4" fill="#4A86F7"/>
<path d="M14.9658 12.3522C14.9364 11.017 13.9815 10 12.431 10C10.8805 10 9.86682 11.017 9.86682 12.3522C9.86682 13.6598 10.8505 14.7061 12.3722 14.7061H12.4011C13.9815 14.7061 14.9658 13.6598 14.9658 12.3522Z" fill="white"/>
<path d="M14.6673 16.5649H10.1348V30.183H14.6673V16.5649Z" fill="white"/>
<path d="M25.7945 16.2451C28.777 16.2451 31.013 18.1919 31.013 22.3748L31.0128 30.183H26.4806V22.8973C26.4806 21.0673 25.8247 19.8185 24.1839 19.8185C22.9317 19.8185 22.1859 20.6604 21.8583 21.4735C21.7385 21.7649 21.7091 22.1709 21.7091 22.5779V30.1834H17.1761C17.1761 30.1834 17.2358 17.8431 17.1761 16.5653H21.7091V18.4941C22.3106 17.5669 23.388 16.2451 25.7945 16.2451Z" fill="white"/>
</svg>
