<svg width="26" height="26" viewBox="0 0 26 26" fill="none" xmlns="http://www.w3.org/2000/svg">
<path fill-rule="evenodd" clip-rule="evenodd" d="M24.6961 12.8859C24.6961 11.9924 24.6159 11.1333 24.467 10.3086H12.6001V15.1825H19.3812C19.0891 16.7575 18.2014 18.092 16.8669 18.9854V22.1469H20.939C23.3216 19.9533 24.6961 16.7231 24.6961 12.8859Z" fill="#4285F4"/>
<path fill-rule="evenodd" clip-rule="evenodd" d="M12.5997 25.1982C16.0017 25.1982 18.8538 24.0699 20.9386 22.1456L16.8665 18.9841C15.7382 19.7401 14.2949 20.1868 12.5997 20.1868C9.31794 20.1868 6.54021 17.9704 5.54939 14.9922H1.33984V18.2567C3.41312 22.3746 7.67421 25.1982 12.5997 25.1982Z" fill="#34A853"/>
<path fill-rule="evenodd" clip-rule="evenodd" d="M5.54973 14.994C5.29773 14.238 5.15455 13.4304 5.15455 12.6C5.15455 11.7695 5.29773 10.962 5.54973 10.206V6.94141H1.34018C0.486818 8.64241 0 10.5668 0 12.6C0 14.6331 0.486818 16.5575 1.34018 18.2585L5.54973 14.994Z" fill="#FBBC05"/>
<path fill-rule="evenodd" clip-rule="evenodd" d="M12.5997 5.01136C14.4496 5.01136 16.1105 5.64709 17.4163 6.89564L21.0302 3.28173C18.8481 1.24855 15.9959 0 12.5997 0C7.67421 0 3.41312 2.82355 1.33984 6.94145L5.54939 10.206C6.54021 7.22782 9.31794 5.01136 12.5997 5.01136Z" fill="#EA4335"/>
</svg>
