<svg width="24" height="24" viewBox="0 0 24 24" fill="none" xmlns="http://www.w3.org/2000/svg">
<path fill-rule="evenodd" clip-rule="evenodd" d="M12 4.3758C7.78927 4.3758 4.3758 7.78927 4.3758 12C4.3758 16.2107 7.78927 19.6242 12 19.6242C16.2107 19.6242 19.6242 16.2107 19.6242 12C19.6242 7.78927 16.2107 4.3758 12 4.3758ZM3 12C3 7.02944 7.02944 3 12 3C16.9706 3 21 7.02944 21 12C21 16.9706 16.9706 21 12 21C7.02944 21 3 16.9706 3 12Z" fill="white"/>
<path fill-rule="evenodd" clip-rule="evenodd" d="M10.2116 6.22935C9.51559 7.55316 8.96178 9.51931 8.96178 12C8.96178 14.4807 9.51559 16.4468 10.2116 17.7707C10.5605 18.4344 10.9359 18.9192 11.2781 19.2286C11.6343 19.5506 11.8867 19.6242 12 19.6242C12.1133 19.6242 12.3657 19.5506 12.7219 19.2286C13.0641 18.9192 13.4395 18.4344 13.7884 17.7707C14.4844 16.4468 15.0382 14.4807 15.0382 12C15.0382 9.51931 14.4844 7.55316 13.7884 6.22935C13.4395 5.56564 13.0641 5.08082 12.7219 4.77142C12.3657 4.44935 12.1133 4.3758 12 4.3758C11.8867 4.3758 11.6343 4.44935 11.2781 4.77142C10.9359 5.08082 10.5605 5.56564 10.2116 6.22935ZM10.3554 3.75087C10.8314 3.32055 11.401 3 12 3C12.599 3 13.1686 3.32055 13.6446 3.75087C14.1346 4.19386 14.6017 4.81971 15.0062 5.58913C15.8171 7.13155 16.414 9.32145 16.414 12C16.414 14.6785 15.8171 16.8684 15.0062 18.4109C14.6017 19.1803 14.1346 19.8061 13.6446 20.2491C13.1686 20.6794 12.599 21 12 21C11.401 21 10.8314 20.6794 10.3554 20.2491C9.86544 19.8061 9.39832 19.1803 8.99381 18.4109C8.1829 16.8684 7.58599 14.6785 7.58599 12C7.58599 9.32145 8.1829 7.13155 8.99381 5.58913C9.39832 4.81971 9.86544 4.19386 10.3554 3.75087Z" fill="white"/>
<path fill-rule="evenodd" clip-rule="evenodd" d="M3.28662 12C3.28662 11.6201 3.59461 11.3121 3.97452 11.3121H20.0255C20.4054 11.3121 20.7134 11.6201 20.7134 12C20.7134 12.3799 20.4054 12.6879 20.0255 12.6879H3.97452C3.59461 12.6879 3.28662 12.3799 3.28662 12Z" fill="white"/>
</svg>
