<svg width="33" height="32" viewBox="0 0 33 32" fill="none" xmlns="http://www.w3.org/2000/svg">
<rect x="1" width="32" height="32" rx="4" fill="#4A86F7"/>
<path d="M12.544 9.8818C12.5205 8.8136 11.7566 8 10.5162 8C9.27578 8 8.46484 8.8136 8.46484 9.8818C8.46484 10.9279 9.25182 11.7649 10.4691 11.7649H10.4923C11.7566 11.7649 12.544 10.9279 12.544 9.8818Z" fill="white"/>
<path d="M12.3052 13.252H8.67926V24.1464H12.3052V13.252Z" fill="white"/>
<path d="M21.2069 12.9961C23.593 12.9961 25.3818 14.5535 25.3818 17.8998L25.3816 24.1464H21.7558V18.3178C21.7558 16.8538 21.2311 15.8548 19.9185 15.8548C18.9168 15.8548 18.3201 16.5283 18.058 17.1788C17.9622 17.4119 17.9386 17.7367 17.9386 18.0623V24.1467H14.3123C14.3123 24.1467 14.36 14.2745 14.3123 13.2522H17.9386V14.7953C18.4199 14.0535 19.2818 12.9961 21.2069 12.9961Z" fill="white"/>
</svg>
