<svg width="32" height="32" viewBox="0 0 32 32" fill="none" xmlns="http://www.w3.org/2000/svg">
<rect width="32" height="32" rx="4" fill="#4A86F7"/>
<path fill-rule="evenodd" clip-rule="evenodd" d="M15.5208 13.0066L15.5544 13.5602L14.9948 13.4924C12.9579 13.2325 11.1784 12.3512 9.66756 10.8711L8.92891 10.1367L8.73865 10.679C8.33575 11.888 8.59316 13.1647 9.43253 14.0234C9.8802 14.498 9.77948 14.5658 9.00725 14.2833C8.73865 14.1929 8.50363 14.1251 8.48124 14.159C8.4029 14.2381 8.6715 15.2663 8.88414 15.6731C9.17513 16.238 9.76828 16.7916 10.4174 17.1193L10.9658 17.3792L10.3167 17.3905C9.68994 17.3905 9.66756 17.4018 9.73471 17.639C9.95854 18.3734 10.8427 19.1531 11.8276 19.492L12.5214 19.7293L11.9171 20.0908C11.0218 20.6106 9.96973 20.9044 8.91772 20.9269C8.41409 20.9382 8 20.9834 8 21.0173C8 21.1303 9.36538 21.7631 10.16 22.0116C12.5438 22.746 15.3753 22.4297 17.5017 21.1755C19.0126 20.2829 20.5235 18.509 21.2286 16.7916C21.6091 15.8764 21.9896 14.2042 21.9896 13.402C21.9896 12.8823 22.0232 12.8145 22.6499 12.1931C23.0192 11.8315 23.3662 11.436 23.4333 11.3231C23.5452 11.1084 23.534 11.1084 22.9633 11.3005C22.012 11.6394 21.8777 11.5942 22.3477 11.0858C22.6947 10.7242 23.1088 10.0689 23.1088 9.87682C23.1088 9.84293 22.9409 9.89942 22.7506 10.0011C22.5492 10.1141 22.1015 10.2836 21.7658 10.3853L21.1614 10.5773L20.613 10.2045C20.3108 10.0011 19.8856 9.77514 19.6617 9.70734C19.0909 9.54916 18.218 9.57176 17.7032 9.75254C16.3042 10.261 15.4201 11.5716 15.5208 13.0066Z" fill="white"/>
</svg>
