<svg width="740" height="588" viewBox="0 0 740 588" fill="none" xmlns="http://www.w3.org/2000/svg">
<path d="M549.652 243.632C547.569 230.496 535.24 221.537 522.104 223.62L413.323 240.866L332.392 206.878C330.847 206.229 329.279 205.759 327.689 205.445C327.308 205.176 326.905 204.93 326.457 204.751L284.732 187.505C281.663 186.24 278.147 187.696 276.87 190.764C275.605 193.832 277.061 197.349 280.129 198.625L294.284 204.482C291.742 204.258 289.233 205.691 288.203 208.177C286.938 211.246 288.394 214.762 291.462 216.039L300.801 219.902C300.79 219.925 300.779 219.947 300.768 219.969L291.428 216.106C288.36 214.84 284.844 216.296 283.567 219.365C282.302 222.433 283.757 225.949 286.826 227.226L299.189 232.332V232.344L288.203 227.797C285.135 226.532 281.619 227.987 280.342 231.056C279.077 234.124 280.532 237.64 283.601 238.917L325.326 256.163C325.382 256.185 325.438 256.207 325.505 256.23L400.971 287.921C403.939 289.164 407.108 289.802 410.299 289.802C411.553 289.802 412.819 289.702 414.073 289.5L529.629 271.18C542.776 269.097 551.735 256.767 549.652 243.632Z" fill="#F6BF7C"/>
<path d="M463.98 250.732L433.789 286.388L452.838 283.756L463.98 250.732Z" fill="#F2A84C"/>
<path d="M560.95 303.231C544.634 292.592 522.775 297.184 512.137 313.5L390.724 492.394L390.623 492.282C390.623 492.282 382.314 507.792 362.268 522.439C340.857 538.094 307.016 532.663 307.016 532.663L414.89 587.748L439.918 546.113L571.208 352.067C581.858 335.74 577.266 313.88 560.95 303.231Z" fill="#2961CC"/>
<g opacity="0.6">
<path opacity="0.6" d="M545.819 282.232L541.105 298.235L527.364 300.575C527.364 300.575 519.134 304.45 515.628 308.974C512.123 313.498 506.726 321.897 506.726 321.897L535.058 318.717L489.727 472.482L525.293 418.718L563.255 282.232H545.819Z" fill="#10339F"/>
</g>
<path d="M557.581 204.058C503 199.007 454.668 239.165 449.617 293.745L647.269 312.021C652.319 257.44 612.162 209.097 557.581 204.058Z" fill="#E0704A"/>
<g opacity="0.4">
<path opacity="0.8" d="M611.599 226.354C629.114 244.45 639.797 269.165 639.528 296.332L458.641 294.585L647.222 312.021C650.368 278.079 636.023 246.555 611.599 226.354Z" fill="#9C3A50"/>
</g>
<path d="M73.8648 222.244C43.7971 222.244 19.3398 246.701 19.3398 276.769C19.3398 306.837 43.7971 331.294 73.8648 331.294C103.932 331.294 128.39 306.837 128.39 276.769C128.39 246.701 103.932 222.244 73.8648 222.244ZM110.696 313.847C101.357 304.642 88.5459 298.942 74.3911 298.942C59.9788 298.942 46.9663 304.855 37.582 314.362C27.7274 304.843 21.5795 291.517 21.5795 276.769C21.5795 247.933 45.0401 224.484 73.8648 224.484C102.689 224.484 126.15 247.944 126.15 276.769C126.15 291.249 120.237 304.373 110.696 313.847Z" fill="#BBDCAF"/>
<path d="M54.525 71.9844C24.4573 71.9844 0 96.4529 0 126.521C0 156.588 24.4573 181.046 54.525 181.046C84.5926 181.046 109.05 156.588 109.05 126.521C109.05 96.4529 84.5926 71.9844 54.525 71.9844ZM80.8524 171.672L54.5362 149.522L28.2199 171.672C12.6878 162.591 2.23968 145.759 2.23968 126.521C2.23968 97.6847 25.7003 74.2353 54.525 74.2353C83.3496 74.2353 106.81 97.6959 106.81 126.521C106.81 145.759 96.3622 162.591 80.8524 171.672Z" fill="#BBDCAF"/>
<path d="M257.228 316.746C227.16 316.746 202.703 341.203 202.703 371.271C202.703 401.339 227.16 425.796 257.228 425.796C287.296 425.796 311.753 401.339 311.753 371.271C311.753 341.203 287.285 316.746 257.228 316.746ZM257.228 318.986C286.064 318.986 309.513 342.446 309.513 371.271C309.513 378.729 307.934 385.807 305.112 392.234H209.333C206.511 385.818 204.932 378.729 204.932 371.271C204.932 342.446 228.392 318.986 257.228 318.986Z" fill="#BBDCAF"/>
<path d="M166.057 296.13C165.441 296.13 164.938 295.626 164.938 295.01V39.989C164.938 39.3731 165.441 38.8691 166.057 38.8691H598.102C598.718 38.8691 599.222 39.3731 599.222 39.989V195.02C599.222 195.635 598.718 196.139 598.102 196.139C597.487 196.139 596.983 195.635 596.983 195.02V41.1088H167.177V295.01C167.177 295.626 166.673 296.13 166.057 296.13Z" fill="white"/>
<path d="M596.805 63.1362H167.346C166.73 63.1362 166.227 62.6322 166.227 62.0163C166.227 61.4004 166.73 60.8965 167.346 60.8965H596.805C597.421 60.8965 597.925 61.4004 597.925 62.0163C597.925 62.6322 597.432 63.1362 596.805 63.1362Z" fill="white"/>
<path d="M434.104 132.029H323.061C322.445 132.029 321.941 131.525 321.941 130.909V99.7331C321.941 99.1172 322.445 98.6133 323.061 98.6133H434.104C434.72 98.6133 435.224 99.1172 435.224 99.7331V130.909C435.224 131.525 434.72 132.029 434.104 132.029ZM324.181 129.79H432.985V100.853H324.181V129.79Z" fill="#F3F9F1"/>
<path d="M434.104 181.426H323.061C322.445 181.426 321.941 180.922 321.941 180.306V149.13C321.941 148.514 322.445 148.01 323.061 148.01H434.104C434.72 148.01 435.224 148.514 435.224 149.13V180.306C435.224 180.922 434.72 181.426 434.104 181.426ZM324.181 179.186H432.985V150.249H324.181V179.186Z" fill="#F3F9F1"/>
<path d="M396.087 116.441H335.784C335.168 116.441 334.664 115.937 334.664 115.321C334.664 114.705 335.168 114.201 335.784 114.201H396.087C396.703 114.201 397.207 114.705 397.207 115.321C397.207 115.937 396.714 116.441 396.087 116.441Z" fill="#F3F9F1"/>
<path d="M396.087 165.837H335.784C335.168 165.837 334.664 165.333 334.664 164.717C334.664 164.102 335.168 163.598 335.784 163.598H396.087C396.703 163.598 397.207 164.102 397.207 164.717C397.207 165.333 396.714 165.837 396.087 165.837Z" fill="#F3F9F1"/>
<path d="M178.276 24.4349C185.024 24.4349 190.493 18.965 190.493 12.2174C190.493 5.46994 185.024 0 178.276 0C171.529 0 166.059 5.46994 166.059 12.2174C166.059 18.965 171.529 24.4349 178.276 24.4349Z" fill="white"/>
<path d="M218.549 24.4349C225.297 24.4349 230.767 18.965 230.767 12.2174C230.767 5.46994 225.297 0 218.549 0C211.802 0 206.332 5.46994 206.332 12.2174C206.332 18.965 211.802 24.4349 218.549 24.4349Z" fill="white"/>
<path d="M259.186 24.4349C265.934 24.4349 271.404 18.965 271.404 12.2174C271.404 5.46994 265.934 0 259.186 0C252.439 0 246.969 5.46994 246.969 12.2174C246.969 18.965 252.439 24.4349 259.186 24.4349Z" fill="white"/>
<path d="M561.654 93.0141L492.269 104.627C487.711 105.388 483.389 102.309 482.627 97.751C481.866 93.1933 484.945 88.8707 489.503 88.1092L558.888 76.4965C563.446 75.735 567.769 78.8146 568.53 83.3723C569.303 87.9413 566.223 92.2526 561.654 93.0141Z" fill="#F2A84C"/>
<path d="M685.822 373.433L625.44 398.551L591.072 411.172L611.207 317.508C614.421 302.435 605.306 287.261 590.255 283.23C574.712 279.064 558.731 288.303 554.566 303.846L514.072 455.092L514.027 455.248C512.258 461.844 512.549 469.045 515.304 475.865C522.045 492.517 541.016 500.557 557.668 493.816L676.27 445.808C681.309 444.375 687.39 443.076 694.378 442.404C717.222 440.198 740 459.179 740 459.179L685.822 373.433Z" fill="#2961CC"/>
<path d="M270.263 181.066H221.953C212.065 181.066 204.047 173.048 204.047 163.16C204.047 153.272 212.065 145.254 221.953 145.254H270.263C280.151 145.254 288.169 153.272 288.169 163.16C288.169 173.048 280.151 181.066 270.263 181.066Z" fill="#FADD6F"/>
<path d="M269.873 175.814C276.862 175.814 282.527 170.149 282.527 163.16C282.527 156.171 276.862 150.506 269.873 150.506C262.884 150.506 257.219 156.171 257.219 163.16C257.219 170.149 262.884 175.814 269.873 175.814Z" fill="white"/>
<path d="M221.953 99.7324H270.263C280.151 99.7324 288.169 107.75 288.169 117.639C288.169 127.527 280.151 135.545 270.263 135.545H221.953C212.065 135.545 204.047 127.527 204.047 117.639C204.047 107.75 212.065 99.7324 221.953 99.7324Z" fill="#FADD6F"/>
<path d="M222.346 130.293C229.334 130.293 235 124.627 235 117.639C235 110.65 229.334 104.984 222.346 104.984C215.357 104.984 209.691 110.65 209.691 117.639C209.691 124.627 215.357 130.293 222.346 130.293Z" fill="white"/>
<path d="M588.829 213.754C575.682 211.761 563.409 220.798 561.416 233.945L549.377 313.341L471.873 327.071L443.093 314.069C440.07 312.703 436.498 314.047 435.131 317.082C433.765 320.105 435.109 323.677 438.144 325.044L451.963 331.281L414.235 336.936C410.954 337.429 408.681 340.497 409.174 343.779C409.577 346.444 411.66 348.426 414.179 348.829L410.137 349.434C406.855 349.926 404.582 352.995 405.075 356.276C405.568 359.557 408.636 361.83 411.917 361.338L442.825 356.701C442.825 356.724 442.836 356.746 442.847 356.78L414.235 361.069C410.954 361.562 408.681 364.63 409.174 367.911C409.666 371.192 412.735 373.465 416.016 372.973L448.245 368.135L448.256 368.146L420.562 372.301C417.281 372.794 415.008 375.862 415.501 379.143C415.993 382.424 419.062 384.697 422.343 384.205L466.991 377.508C468.043 377.351 468.995 376.926 469.779 376.31C470.093 376.265 470.406 376.243 470.731 376.187L574.798 357.754C584.966 355.951 592.85 347.866 594.406 337.653L609.042 241.179C611.013 228.021 601.965 215.747 588.829 213.754Z" fill="#F6BF7C"/>
<path d="M54.5261 149.005C65.5905 149.005 74.56 140.036 74.56 128.971C74.56 117.907 65.5905 108.938 54.5261 108.938C43.4617 108.938 34.4922 117.907 34.4922 128.971C34.4922 140.036 43.4617 149.005 54.5261 149.005Z" fill="#BBDCAF"/>
<path d="M73.8663 244.482L46.4414 291.975H101.291L73.8663 244.482Z" fill="#BBDCAF"/>
<path d="M77.3917 101.581H31.6575C29.5522 101.581 27.8164 99.856 27.8164 97.7395C27.8164 95.6342 29.541 93.8984 31.6575 93.8984H77.3917C79.497 93.8984 81.2327 95.623 81.2327 97.7395C81.2327 99.856 79.5082 101.581 77.3917 101.581Z" fill="#BBDCAF"/>
<path d="M270.026 349.949C270.026 357.027 264.293 362.76 257.215 362.76C250.138 362.76 244.404 357.027 244.404 349.949H224.605C224.605 367.956 239.208 382.559 257.215 382.559C275.222 382.559 289.825 367.956 289.825 349.949H270.026Z" fill="#BBDCAF"/>
<path d="M390.227 297.249H166.057C165.441 297.249 164.938 296.746 164.938 296.13C164.938 295.514 165.441 295.01 166.057 295.01H390.227C390.843 295.01 391.347 295.514 391.347 296.13C391.347 296.746 390.843 297.249 390.227 297.249Z" fill="white"/>
<path d="M549.371 313.343L571.857 310.398L551.98 296.131L549.371 313.343Z" fill="#F2A84C"/>
<path d="M489.732 156.72L540.125 194.961L578.365 144.568L527.973 106.328L489.732 156.72Z" fill="#FADD6F"/>
<path d="M537.845 139.273C537.621 139.363 537.296 139.43 537.845 139.755C538.181 139.766 537.901 139.464 537.845 139.273Z" fill="#4A86F7"/>
<path d="M547.142 148.041C547.209 147.705 547.131 147.425 547.03 147.201C546.929 147.593 546.929 147.895 547.142 148.041Z" fill="#4A86F7"/>
<path d="M537.678 160.091C537.801 160.338 537.913 160.438 538.014 160.483V160.438L538.126 160.494C538.372 160.483 538.54 160.136 538.708 160.797L538.126 160.494C538.092 160.494 538.058 160.494 538.025 160.483C537.991 161.805 539.469 162.779 539.525 163.719C539.301 163.563 539.223 164.391 539.1 164.559C539.458 165.018 539.817 165.522 540.164 165.937C539.705 165.366 539.29 165.534 538.842 165.567C539.078 166.06 539.402 166.205 539.581 166.463C539.357 166.362 539.122 166.217 539.044 166.541C539.29 166.777 539.447 166.833 539.626 166.877C539.794 166.922 539.962 166.945 540.13 166.933C540.164 166.844 540.141 166.777 540.119 166.709C540.22 166.855 540.567 166.799 540.612 167.202C540.578 167.258 540.533 167.314 540.489 167.37C540.544 167.426 540.623 167.493 540.69 167.549C540.69 167.516 540.701 167.482 540.701 167.46C540.869 167.583 541.015 167.661 541.16 167.65C541.216 167.65 541.317 167.628 541.44 167.572C541.362 167.068 540.892 166.53 540.612 166.687C541.967 166.138 541.429 166.15 542.773 165.836C542.919 165.489 541.81 165.22 541.564 165.366C541.799 164.537 542.146 164.201 542.471 163.943C542.471 163.932 542.471 163.91 542.471 163.899L542.515 163.91C542.863 163.63 543.075 163.384 542.84 162.6C543.21 163.148 543.579 163.708 543.938 164.279L542.515 163.899C542.504 163.91 542.482 163.921 542.471 163.932C542.112 165.31 544.285 165.567 544.822 166.228C544.52 164.783 544.106 163.35 543.658 162.006C543.781 162.185 544.554 162.891 544.666 162.936C544.33 162.6 544.498 161.67 544.867 160.673C545.024 160.17 545.225 159.632 545.438 159.151C545.617 158.658 545.808 158.187 545.976 157.829L545.897 158.053C545.998 158.255 546.222 158.064 546.424 157.728C546.592 157.392 546.704 156.911 546.625 156.608C546.782 156.754 546.692 156.855 546.636 157.09C547.118 156.676 546.894 156.239 546.625 155.825C546.356 155.41 546.088 155.03 546.614 154.593C546.345 155.5 546.681 155.769 547.062 155.802C546.961 155.365 547.129 154.727 547.096 154.212C547.062 153.697 546.905 153.327 546.334 153.462C546.625 153.003 546.513 152.555 547.062 152.622C546.816 151.972 546.67 151.356 546.345 150.774C546.48 150.897 546.816 150.998 546.838 150.449C546.827 150.718 546.894 150.976 546.984 151.222C547.051 151.48 547.14 151.715 547.219 151.95C547.364 152.42 547.465 152.835 547.051 153.092C547.734 153.182 548.159 152.756 548.686 153.361C548.484 151.032 547.129 149.934 546.121 148.893C546.155 148.288 546.166 147.672 546.144 147.045L545.819 147.067L546.468 146.508C546.222 146.351 546.021 146.261 546.077 146.194C546.121 146.127 546.256 146.149 546.39 146.194C546.278 146.026 546.144 145.88 546.032 145.824C545.942 145.88 545.853 145.936 545.797 146.037C545.808 145.802 545.909 145.768 546.032 145.824C546.39 145.6 546.972 145.735 547.51 145.936C547.532 145.869 547.566 145.791 547.588 145.724C546.76 144.996 545.741 144.335 545.584 145.287C545.595 145.544 545.573 145.813 545.573 146.071C545.55 145.735 545.561 145.477 545.584 145.287C545.584 144.895 545.573 144.492 545.55 144.089C544.251 143.294 544.509 143.417 543.199 142.375C543.389 142.151 543.814 142.387 543.837 142.039C542.493 141.547 543.12 139.061 542.303 139.296C541.597 138.657 541.474 139.329 541.004 139.072C541.082 139.027 541.239 138.949 541.194 138.859C540.97 138.881 540.768 138.937 540.589 139.016C540.645 138.747 541.048 138.96 540.97 138.456C540.231 138.243 540.108 138.4 539.671 137.885C539.324 137.918 539.458 138.344 539.514 138.68C539.581 139.038 539.604 139.329 539.492 139.251C539.413 138.624 539.245 137.84 538.876 137.952C538.854 138.467 539.033 138.893 539.022 139.251L538.618 138.478C538.45 138.736 538.462 139.016 538.047 138.59C538.148 139.072 538.058 139.15 537.902 139.229C537.991 139.565 538.372 139.587 538.708 139.699C539.055 139.8 539.346 140.001 539.458 140.113C539.234 139.934 539.156 139.956 539.055 139.956C538.977 139.956 538.91 139.968 538.831 139.968C538.775 139.979 538.719 139.968 538.63 139.979C538.54 140.035 538.428 140.08 538.305 140.124L538.316 139.889C538.316 139.844 538.305 139.822 538.294 139.788L538.249 139.598C538.126 139.632 538.036 139.699 537.98 139.766C537.902 139.9 537.846 140.08 537.834 140.214C537.79 140.494 537.835 140.718 537.879 140.897C537.969 141.267 538.025 141.479 537.174 141.759C537.375 141.11 537.207 140.214 536.726 140.505L536.86 141.569C536.647 141.647 536.86 140.976 536.547 141.379C536.636 141.692 536.849 142.342 537.051 142.633L537.252 142.745C537.219 142.857 537.14 142.79 537.051 142.633L537.006 142.61C536.939 143.204 536.86 143.798 536.815 144.391C536.894 144.066 536.647 143.932 536.569 144.268L536.782 145.477C536.815 145.567 536.838 145.69 536.849 145.869L536.782 145.477C536.659 145.097 536.379 145.432 536.2 145.948C535.841 147.448 537.667 147.291 536.883 148.389C536.905 148.221 536.815 148.187 536.849 148.019L536.491 148.602C537.935 148.792 536.591 152.118 538.137 152.196C537.543 153.047 537.778 152.286 537.028 151.211L536.614 152.118C536.547 151.748 536.659 151.446 536.491 151.043C535.864 152.252 536.737 153.361 537.196 153.954C537.017 154.425 536.009 153.697 536.401 154.974C536.905 156.765 537.465 154.503 537.767 155.567C537.532 155.858 537.308 156.149 537.095 156.452C537.834 157.807 537.499 158.904 537.678 160.091ZM538.91 139.553C538.966 139.52 538.999 139.509 539.134 139.677L539.245 139.856C539.134 139.744 539.022 139.643 538.91 139.553ZM537.331 146.519L536.681 146.597L537.364 146.351L537.331 146.519ZM537.958 153.54C537.958 153.865 538.114 154.246 538.137 154.559C537.319 154.727 538.114 154.234 537.958 153.54Z" fill="#83BF6E"/>
<path d="M547.207 146.642C547.711 146.877 548.181 147.045 548.271 146.429C548.193 146.373 548.103 146.295 548.013 146.216C547.834 146.149 547.644 146.071 547.442 145.992L547.207 146.642Z" fill="#4A86F7"/>
<path d="M539.613 167.527C540.173 167.908 539.647 167.729 539.77 168.221C539.983 168.322 540.162 168.289 540.308 168.188C540.308 167.975 540.308 167.773 540.296 167.561C540.274 167.583 540.252 167.605 540.229 167.639C540.252 167.09 539.972 167.393 539.613 167.527Z" fill="#4A86F7"/>
<path d="M548.722 146.216C548.431 145.745 548.128 145.286 547.803 144.85C547.77 145.062 547.658 145.387 547.523 145.768C547.703 145.925 547.859 146.07 548.016 146.205C548.386 146.35 548.666 146.44 548.722 146.216Z" fill="#4A86F7"/>
<path d="M544.352 167.808L544.262 167.785L544.284 167.864C544.318 167.842 544.33 167.819 544.352 167.808Z" fill="#4A86F7"/>
<path d="M558.988 162.275L559.268 162.163C559.257 161.928 559.257 161.715 558.988 162.275Z" fill="#4A86F7"/>
<path d="M545.607 166.956C546.055 166.508 544.778 166.564 545.282 166.217C545.148 166.273 544.98 166.34 544.801 166.441C544.823 166.71 544.834 166.967 544.846 167.236C545.036 166.922 545.182 166.687 545.607 166.956Z" fill="#4A86F7"/>
<path d="M507.607 150.214C507.63 150.124 507.596 150.158 507.551 150.237C507.573 150.237 507.596 150.248 507.63 150.248C507.619 150.237 507.607 150.214 507.607 150.214Z" fill="#4A86F7"/>
<path d="M507.808 150.293C507.752 150.27 507.684 150.248 507.617 150.248C507.696 150.394 507.785 150.808 507.808 150.293Z" fill="#4A86F7"/>
<path d="M518.698 178.681L518.833 178.278C518.161 177.36 517.623 176.934 517.119 176.486C517.153 176.598 517.187 176.688 517.209 176.8C516.604 176.553 516.324 175.993 516.212 175.445C516 175.097 515.809 174.672 515.675 174.078C516.112 174.022 516.033 174.705 516.212 175.445C516.47 175.893 516.795 176.195 517.108 176.486C516.772 175.321 516.224 174.448 515.596 173.619C514.981 172.768 514.376 172.018 514.006 171.178L514.107 171.111C513.737 170.596 513.368 170.092 513.01 169.565C513.558 169.845 512.618 169.341 512.494 168.782C512.069 168.322 511.789 167.382 511.778 166.631L511.386 165.512C512.114 166.643 511.935 165.198 512.382 164.963L511.744 164.403C511.867 164.045 512.282 164.717 512.192 164.168C511.744 163.798 511.296 162.398 510.68 162.107C510.58 162.219 510.524 162.421 510.49 162.667C510.535 162.723 510.535 162.712 510.49 162.69L510.479 162.746C510.501 163.026 510.501 163.194 510.49 163.283C510.512 163.496 510.568 163.697 510.658 163.91C510.557 163.653 510.49 163.496 510.445 163.395C510.378 163.35 510.3 163.026 510.445 163.395C510.468 163.406 510.479 163.373 510.49 163.283C510.468 163.093 510.468 162.914 510.479 162.746C510.479 162.723 510.479 162.712 510.479 162.678C510.412 162.634 510.3 162.566 510.232 162.544C510.255 162.645 510.266 162.757 510.288 162.891C510.098 162.578 510.132 162.522 510.232 162.544C510.064 161.615 509.964 162.007 509.762 162.107C510.199 160.853 509.493 160.439 510.188 159.409C509.471 160.741 509.56 157.079 508.788 157.975C509.359 157.023 508.676 157.438 509.225 156.788C509.281 157.919 510.277 158.804 510.826 159.554L511.061 158.591C511.565 158.748 511.61 159.229 511.576 159.733C511.565 160.226 511.487 160.752 511.711 160.954C511.408 160.685 511.375 159.879 511.565 159.8L510.971 160.215C511.083 161.48 511.879 162.264 512.472 162.981C512.416 162.141 513.2 163.787 513.458 163.059C513.357 162.869 513.256 162.678 513.166 162.477C513.301 162.119 513.693 162.645 514.017 162.914C514.197 164.996 516.033 168.233 515.888 169.095C515.854 168.658 515.417 168.02 515.092 167.762L515.204 168.759C514.869 168.054 515.193 167.247 514.533 166.284C514.208 166.631 513.323 166.072 513.11 167.124C513.368 169.465 514.835 168.378 515.876 170.82C516.112 170.976 514.992 170.64 515.832 171.816C517.075 173.272 518.676 173.765 519.437 173.216C518.799 172.813 517.579 171.816 518.082 171.29C518.654 171.794 519.46 172.723 519.863 172.511C519.594 173.563 518.945 171.536 518.911 172.69C519.202 173.093 519.538 173.127 519.785 173.239C519.325 173.16 519.583 173.922 519.538 174.157C520.524 175.456 520.893 176.419 522.215 177.639C522.215 177.539 522.215 177.516 522.237 177.662L522.215 177.639C522.215 177.785 522.215 178.11 522.047 178.233C522.472 178.435 523.133 178.468 523.648 178.345C524.174 178.211 524.555 177.953 524.555 177.662C524.947 177.897 525.126 178.043 525.294 178.199C525.462 178.356 525.641 178.479 526.033 178.491C525.171 177.438 526.224 178.681 526.56 177.987C527.243 178.043 526.705 178.401 526.996 178.636C527.131 178.591 527.456 178.379 527.489 178.166C527.433 178.054 527.332 177.964 527.164 177.83C527.444 177.942 527.523 178.02 527.489 178.166C527.657 178.468 527.433 178.827 527.142 179.196C526.862 179.532 526.526 179.868 526.795 180.271C526.974 180.529 527.579 180.898 528.217 181.145C528.531 181.257 528.855 181.357 529.113 181.425C529.37 181.469 529.55 181.492 529.594 181.503C530.009 180.775 529.146 178.222 528.676 177.449C528.643 176.979 529.281 177.841 529.606 177.785C530.11 178.009 530.389 177.729 530.569 177.416C530.759 177.102 530.871 176.732 531.252 176.654C531.173 176.867 531.084 177.091 530.994 177.292C531.207 177.416 532.024 176.531 531.991 176.206C532.192 176.374 532.293 177.617 532.786 177.606C534.163 176.676 534.197 174.515 533.581 174.101C533.211 174.873 532.842 175.624 532.439 176.307C531.98 175.915 533.211 174.728 532.607 174.258C533.155 173.798 533.727 173.283 534.32 172.746C534.13 172.981 533.659 173.776 534.152 173.742C534.813 172.97 534.589 173.429 535.261 173.115C535.082 174.526 535.149 177.449 535.104 178.759C535.35 178.356 535.563 177.942 535.776 177.539L536.269 177.561C537.086 175.993 536.179 173.272 536 172.533C536.728 171.951 537.523 173.071 537.568 173.418C537.948 173.015 538.083 172.611 538.105 172.219C538.016 172.197 537.926 172.186 537.836 172.152C537.467 172.029 537.086 171.783 536.739 171.458C536.739 171.469 536.728 171.48 536.728 171.492C536.728 171.57 536.705 171.682 536.616 171.884C536.649 171.738 536.683 171.615 536.728 171.492C536.728 171.458 536.717 171.447 536.705 171.424C536.694 171.413 536.694 171.413 536.683 171.402C536.526 171.346 535.966 171.928 535.955 171.592C536.593 171.2 536.224 171.088 536.19 170.842C536.089 170.719 536 170.585 535.91 170.45C535.395 169.644 535.048 168.524 534.891 167.919C534.712 167.247 534.488 166.62 534.119 166.105C534.253 166.24 534.376 166.251 534.443 166.24C533.055 164.392 533.525 161.435 533.122 161.043L533.615 160.73C532.394 159.129 532.271 158.882 532.282 156.665C532.372 156.687 532.573 156.911 532.64 156.553C532.192 156.083 531.677 155.601 531.677 154.067L531.856 154.112C531.767 153.328 531.688 152.544 531.644 151.749C532.495 151.738 532.204 150.752 531.991 149.644C531.767 148.546 531.632 147.314 532.584 147.045C532.125 146.553 532.136 144.817 532.036 144.011C531.924 144 531.845 143.876 531.8 143.596C531.924 143.563 531.991 143.731 532.036 144.011C532.103 144.011 532.192 143.977 532.293 143.865C531.509 142.812 533.032 141.323 533.167 140.349C533.099 139.655 532.752 139.856 532.405 140.08C532.652 139.8 532.786 139.431 532.864 139.027C532.898 138.826 532.92 138.613 532.931 138.4C532.954 138.098 532.988 137.784 533.01 137.482C533.133 136.217 533.458 135.018 533.783 134.817C534.645 133.641 534.544 134.862 535.014 134.839C535.53 134.022 535.283 133.764 535.115 133.507C535.037 133.383 534.981 133.271 535.104 133.092C535.227 132.913 535.518 132.678 536.145 132.443C535.91 132.689 535.518 133.137 535.731 133.07C536.145 132.79 536.941 132.891 537.59 133.07C538.262 133.249 538.833 133.518 539.214 133.316C539.035 133.238 538.844 133.115 538.654 133.07C539.404 132.678 540.378 133.249 540.871 133.899C541.397 134.548 541.61 135.13 541.957 134.649L542.081 134.022C542.876 135.388 543.032 135.567 543.279 135.769C543.391 135.869 543.514 135.959 543.682 136.217C543.772 136.34 543.872 136.497 543.984 136.709C544.096 136.922 544.163 137.101 544.275 137.381L544.186 137.415C544.847 138.154 544.589 138.971 545.586 138.882L545.485 138.535C546.235 139.52 546.235 139.655 546.862 140.752C547.008 140.842 547.433 141.312 547.355 141.558C547.68 141.413 548.128 142.017 548.464 142.779C548.822 143.518 549.057 144.391 549.147 144.671C548.665 143.742 548.564 144.324 548.408 144.705C549.169 145.041 549.382 145.444 549.236 146.362C550.11 146.217 551.129 146.082 551.577 147.874C551.398 147.617 551.207 147.213 551.073 147.426C550.939 147.639 551.218 148.009 551.308 148.132C551.162 148.344 550.916 147.807 550.647 148.065C551.185 148.568 551.286 149.095 551.274 149.677C551.274 150.271 551.252 150.92 551.375 151.782C551.106 151.234 550.927 151.715 550.625 151.906C551.129 151.973 550.916 152.555 550.715 153.025C550.491 153.485 550.3 153.854 550.983 153.585C550.502 155.22 549.998 157.202 549.438 158.905C548.833 160.584 548.139 161.951 547.501 162.309C547.019 162.432 547.153 163.462 546.907 163.955L546.56 163.675C546.493 165.086 546.325 164.974 546.101 166.016C546.437 166.049 546.84 165.993 547.176 165.937C547.489 165.568 546.784 165.523 546.426 165.646C546.381 165.668 546.336 165.691 546.291 165.713C546.325 165.691 546.37 165.668 546.426 165.646C547.355 165.164 547.859 165.332 548.352 165.512C548.856 165.702 549.348 165.836 550.099 164.896C549.236 164.996 550.031 163.686 548.564 164.672C549.08 163.944 550.412 164.414 550.782 163.362L550.726 164.269C550.995 164.078 551.14 163.653 551.23 163.474L551.498 163.933C551.79 162.499 553.458 162.869 553.111 161.491C553.436 162.51 553.693 160.864 554.264 160.786C554.085 161.962 552.294 162.678 552.775 163.406C553.29 163.306 553.313 162.734 553.805 162.6C553.928 162.309 554.018 162.174 553.895 162.578C553.861 162.578 553.839 162.589 553.805 162.6C553.682 162.914 553.503 163.384 553.525 163.597C555.004 162.925 554.892 161.547 555.328 160.73C555.015 161.167 554.701 161.626 554.365 162.04C553.828 161.323 554.78 161.424 554.567 160.618C555.463 160.36 555.362 159.431 556 159.117C555.888 159.252 555.944 159.308 555.832 159.442C556.941 158.109 558.352 158.557 558.822 158.009C559.337 157.505 559.718 156.127 559.125 156.307C559.259 155.702 557.96 158.389 557.624 156.889C559.293 156.833 558.43 154.94 560.368 153.574C560.256 154.66 561.308 153.485 561.14 154.414C561.611 153.44 561.476 153.305 561.398 152.701L561.913 152.633C561.812 150.954 561.387 151.95 561.98 149.856C561.913 150.64 562.921 149.408 562.91 150.024C563.223 149.52 563.391 148.96 563.369 148.456L563.38 148.557C564.197 146.564 564.668 147.236 565.138 145.276L564.825 145.343C565.362 142.756 567.098 140.013 567.814 137.437L567.266 138.221C567.445 138.064 567.523 137.18 567.826 136.474L528.004 106.328L489.762 156.721L518.698 178.681ZM510.792 164.325C510.669 164.537 511.296 164.201 511.285 164.515C512.114 165.892 510.143 164.213 510.792 164.325ZM509.381 159.476C509.348 159.7 509.281 159.879 509.415 160.282L509.057 159.476C509.135 159.744 509.269 159.532 509.381 159.476ZM528.318 179.868C528.262 180.26 528.183 180.641 528.105 181.033L528.071 179.89L528.318 179.868ZM518.575 170.361C519.191 171.424 518.25 170.45 518.038 170.439C517.78 169.543 518.362 170.361 518.575 170.361ZM517.209 172.141C516.996 171.861 516.772 171.592 516.582 171.312C516.683 171.088 516.907 171.391 517.142 171.548C517.399 171.839 517.433 172.141 517.209 172.141ZM516.615 167.886C516.75 167.998 516.907 168.098 517.063 168.199L516.414 168.468C516.515 168.255 516.615 168.188 516.615 167.886ZM506.47 149.039C506.156 148.636 505.809 148.177 505.663 147.605C505.91 147.953 506.022 147.09 506.391 147.393C506.223 148.076 506.268 148.591 506.47 149.039C506.66 149.285 506.828 149.509 506.94 149.733C506.727 149.509 506.582 149.274 506.47 149.039ZM505.641 144.851L506.089 145.287L506.335 145.634L505.641 144.851ZM506.828 143.865C506.895 143.888 506.873 143.91 506.828 143.944C506.839 144.056 506.85 144.167 506.862 144.268L506.873 144.257C506.895 144.671 506.906 144.884 506.918 144.974C506.906 144.873 506.895 144.615 506.862 144.268L506.425 144.649C506.481 144.167 506.738 144.022 506.828 143.944C506.839 143.91 506.839 143.888 506.828 143.865ZM508.586 156.486L508.217 156.06L508.665 156.027L508.586 156.486ZM507.668 154.123L508.205 154.212L508.553 154.795L507.668 154.123ZM510.591 158.244C510.232 157.684 509.863 157.124 510.524 157.135C510.524 157.102 510.512 157.068 510.501 157.034C510.725 157.594 511.016 158.065 510.591 158.244ZM510.311 156.385C510.333 156.564 510.378 156.743 510.445 156.911C510.3 156.609 510.053 156.374 510.311 156.385ZM512.405 158.602L512.494 159.543L512.36 158.893L512.405 158.602ZM512.416 160.842C512.494 160.965 512.584 161.066 512.674 161.021L512.808 161.962C512.651 162.04 512.573 161.402 512.416 160.842C512.282 160.629 512.158 160.304 512.102 160.148C512.237 160.282 512.338 160.551 512.416 160.842ZM511.744 160.965C511.811 161.021 511.89 161.043 512.013 161.043C511.901 161.066 511.823 161.032 511.744 160.965ZM511.946 157.953L511.419 157.751L511.912 157.404L511.946 157.953ZM511.711 154.739C511.655 155.03 511.386 154.728 511.263 154.772L511.755 155.679C511.016 156.105 510.356 154.28 509.919 154.851C510.031 154.257 510.445 154.38 509.986 153.305C509.448 152.667 509.448 154.324 509.292 154.672C508.844 153.865 508.676 153.899 508.474 153.91L508.407 154L508.396 153.91C508.239 153.899 508.06 153.809 507.735 153.249C507.981 152.645 508.105 152.32 508.105 151.906C507.926 151.357 507.713 150.808 507.545 150.248C507.534 150.259 507.534 150.271 507.522 150.293C507.478 150.539 507.433 150.775 507.366 150.999C507.231 150.954 507.388 150.517 507.522 150.293C507.567 150.002 507.601 149.699 507.612 149.386C507.511 148.916 507.433 148.512 507.175 148.154C507.074 147.617 507.377 147.796 507.534 147.852C507.478 147.527 507.41 147.236 507.332 146.956C507.209 146.81 507.074 146.676 506.985 146.486C506.918 146.542 506.873 146.564 506.962 146.43C506.974 146.452 506.985 146.463 506.985 146.486C507.03 146.441 507.074 146.396 507.097 146.34C507.086 146.318 507.074 146.284 507.063 146.262C507.142 146.239 507.13 146.284 507.097 146.34C507.186 146.519 507.265 146.721 507.332 146.956C507.5 147.157 507.646 147.359 507.612 147.751C507.657 147.874 507.612 147.874 507.534 147.852C507.612 148.344 507.634 148.871 507.612 149.386C507.668 149.666 507.746 149.957 507.869 150.282C507.959 149.016 508.665 151.133 508.295 149.464C508.597 150.058 508.9 149.688 509.113 150.719C508.698 151.323 508.329 150.506 507.814 150.304C507.993 151.088 508.105 151.536 508.093 151.906L508.217 152.253L508.127 152.141L508.385 153.91H508.474C509.135 153.014 510.479 152.208 510.949 152.969C510.635 153.888 511.274 154.772 511.711 154.739ZM507.578 143.809L507.377 143.72L507.388 143.395L506.974 142.477C507.13 142.701 507.298 142.533 507.422 142.499L507.388 143.384L507.578 143.809ZM508.452 146.284C508.653 146.362 508.945 146.15 508.933 146.956L509.18 146.889L508.866 147.65C508.721 147.202 508.586 146.743 508.452 146.284ZM510.568 151.2C510.658 151.312 510.624 151.446 510.714 151.558C510.703 152.107 510.445 151.782 510.333 151.278L510.568 151.2ZM509.101 141.625C509.135 141.614 509.169 141.614 509.213 141.558C509.213 141.76 509.169 141.726 509.101 141.625C508.945 141.659 508.833 141.323 508.709 141.67C508.698 142.073 508.9 142.152 508.978 142.275C508.631 142.723 508.351 142.924 507.981 143.148C507.937 143.204 507.903 143.227 507.881 143.204C507.914 143.182 507.948 143.16 507.981 143.148C508.161 142.936 508.497 142.253 508.586 141.704L508.508 141.592C508.687 140.819 508.956 141.401 509.101 141.625ZM508.093 140.752C507.78 141.76 507.388 140.774 507.097 140.304C507.545 141.01 507.746 140.427 508.093 140.752ZM507.41 138.378L506.694 136.799L507.388 138.12L507.41 138.378ZM506.705 136.127C506.391 135.388 506.313 135.937 506.156 136.362C505.977 134.94 506.526 134.705 506.705 136.127ZM506.235 137.28C506.727 137.516 506.47 137.538 506.347 137.65L506.492 138.031C506.257 137.829 506.279 137.717 506.347 137.65L506.055 136.844C506.235 137.18 506.47 137.336 506.235 137.28ZM506.19 141.178L506.436 141.715C506.615 141.648 506.772 141.771 506.806 142.521L506.436 141.715C506.223 141.793 505.966 142.118 505.798 142.085C506.033 142.029 506.1 141.469 506.19 141.178ZM505.551 136.62L505.865 137.359C505.596 137.818 505.417 137.986 505.227 137.224C505.361 137.46 505.372 136.788 505.551 136.62Z" fill="#83BF6E"/>
<path d="M512.445 167.359C512.535 167.819 512.546 168.065 512.479 167.382C512.468 167.371 512.457 167.371 512.445 167.359Z" fill="#4A86F7"/>
<path d="M571.41 139.543C571.466 140.17 571.913 139.89 572.07 140.002C571.219 142.522 569.271 144.448 568.867 146.609C568.252 147.057 568.229 146.117 567.714 146.856C569.17 146.229 566.975 149.398 567.949 149.028C566.583 149.297 566.236 151.772 565.094 150.708C564.5 151.593 565.228 151.783 565.497 151.581C564.858 152.645 564.343 153.496 564.22 154.627C563.884 154.829 563.235 156.106 562.395 157.349C561.566 158.592 560.547 159.79 559.752 159.879C560.805 159.723 560.021 160.159 559.819 160.943L560.737 160.809C560.379 161.246 560.01 161.671 559.618 162.085C559.438 162.388 559.36 162.444 559.315 162.41C559.102 162.612 559.069 162.119 558.487 162.567C557.68 163.384 557.904 163.664 557.714 164.37L557.904 164.303C557.748 164.516 557.568 164.717 557.389 164.919C556.986 165.322 558.363 163.004 556.807 164.124C556.919 164.258 556.717 165.658 556.023 165.68C556.74 165.019 556.336 164.784 555.956 164.896C555.631 165.199 555.284 165.479 554.926 165.77L555.81 166.083C552.831 168.693 548.923 170.551 544.746 171.526C544.69 171.156 543.973 171.369 543.257 171.391C543.033 171.403 542.809 171.414 542.607 171.403C542.54 171.582 542.495 171.738 542.518 171.839C541.465 171.671 541.79 173.105 540.86 172.847C540.849 173.06 540.782 173.306 540.692 173.553C541.163 173.62 541.577 173.844 541.107 174.079C541.084 174.113 541.062 174.146 541.04 174.18L541.532 174.348C541.958 174.616 541.028 174.717 540.312 174.908C540.11 175.008 539.908 175.098 539.718 175.176C539.673 175.232 539.628 175.277 539.595 175.3C539.606 175.266 539.617 175.232 539.64 175.199C539.349 175.344 539.091 175.524 538.945 175.96C538.061 176.319 537.669 177.203 537.131 178.11C536.605 179.017 535.911 179.969 534.679 180.216C535.015 180.104 535.396 179.846 535.362 179.622C534.701 180.227 533.839 180.652 533.033 180.966C532.215 181.291 531.465 181.503 530.927 181.895L531.174 182.343C529.763 183.004 528.475 183.306 527.187 183.138L527.064 183.698C526.426 183.598 525.541 183.463 524.656 183.239L540.11 194.964L578.353 144.571L571.566 139.42L571.41 139.543Z" fill="#83BF6E"/>
<path d="M541.074 174.157L540.525 173.967C540.301 174.415 540.021 174.829 539.809 175.087C539.943 175.008 540.133 174.941 540.335 174.885C540.604 174.751 540.861 174.538 541.074 174.157Z" fill="#4A86F7"/>
</svg>
