<svg width="48" height="48" viewBox="0 0 48 48" fill="none" xmlns="http://www.w3.org/2000/svg">
<rect width="48" height="48" rx="12" fill="#FCF1ED"/>
<path d="M23.9987 12.334C17.5704 12.334 12.332 17.5723 12.332 24.0007C12.332 30.429 17.5704 35.6673 23.9987 35.6673C30.427 35.6673 35.6654 30.429 35.6654 24.0007C35.6654 17.5723 30.427 12.334 23.9987 12.334ZM29.0737 28.1657C28.9104 28.4457 28.6187 28.5973 28.3154 28.5973C28.1637 28.5973 28.012 28.5623 27.872 28.469L24.2554 26.3107C23.357 25.774 22.692 24.5957 22.692 23.5573V18.774C22.692 18.2957 23.0887 17.899 23.567 17.899C24.0454 17.899 24.442 18.2957 24.442 18.774V23.5573C24.442 23.9773 24.792 24.5957 25.1537 24.8057L28.7704 26.964C29.1904 27.209 29.3304 27.7457 29.0737 28.1657Z" fill="#E0704A"/>
</svg>
