<svg width="48" height="48" viewBox="0 0 48 48" fill="none" xmlns="http://www.w3.org/2000/svg">
<rect width="48" height="48" rx="12" fill="#EEF8FE"/>
<path d="M28.6566 12.0996H18.8799C14.6332 12.0996 12.1016 14.6313 12.1016 18.8779V28.6546C12.1016 32.9013 14.6332 35.4329 18.8799 35.4329H28.6566C32.9032 35.4329 35.4349 32.9013 35.4349 28.6546V18.8779C35.4349 14.6313 32.9032 12.0996 28.6566 12.0996ZM21.3999 27.1496L18.7749 29.7746C18.5999 29.9496 18.3782 30.0313 18.1566 30.0313C17.9349 30.0313 17.7016 29.9496 17.5382 29.7746L16.6632 28.8996C16.3132 28.5613 16.3132 28.0013 16.6632 27.6629C17.0016 27.3246 17.5499 27.3246 17.8999 27.6629L18.1566 27.9196L20.1632 25.9129C20.5016 25.5746 21.0499 25.5746 21.3999 25.9129C21.7382 26.2513 21.7382 26.8113 21.3999 27.1496ZM21.3999 18.9829L18.7749 21.6079C18.5999 21.7829 18.3782 21.8646 18.1566 21.8646C17.9349 21.8646 17.7016 21.7829 17.5382 21.6079L16.6632 20.7329C16.3132 20.3946 16.3132 19.8346 16.6632 19.4963C17.0016 19.1579 17.5499 19.1579 17.8999 19.4963L18.1566 19.7529L20.1632 17.7463C20.5016 17.4079 21.0499 17.4079 21.3999 17.7463C21.7382 18.0846 21.7382 18.6446 21.3999 18.9829ZM30.2549 29.1563H24.1299C23.6516 29.1563 23.2549 28.7596 23.2549 28.2813C23.2549 27.8029 23.6516 27.4063 24.1299 27.4063H30.2549C30.7449 27.4063 31.1299 27.8029 31.1299 28.2813C31.1299 28.7596 30.7449 29.1563 30.2549 29.1563ZM30.2549 20.9896H24.1299C23.6516 20.9896 23.2549 20.5929 23.2549 20.1146C23.2549 19.6363 23.6516 19.2396 24.1299 19.2396H30.2549C30.7449 19.2396 31.1299 19.6363 31.1299 20.1146C31.1299 20.5929 30.7449 20.9896 30.2549 20.9896Z" fill="#57B6F0"/>
</svg>
