<svg width="48" height="48" viewBox="0 0 48 48" fill="none" xmlns="http://www.w3.org/2000/svg">
<rect width="48" height="48" rx="12" fill="#FCF1ED"/>
<path d="M34.6509 19.5208C35.0269 20.1021 34.5509 20.7923 33.8586 20.7923H13.332C12.7797 20.7923 12.332 20.3446 12.332 19.7923V17.4907C12.332 14.644 14.642 12.334 17.4887 12.334H20.1954C22.097 12.334 22.692 12.9523 23.4504 13.9673L25.0837 16.1373C25.4454 16.6157 25.492 16.674 26.1687 16.674H29.4237C31.6138 16.674 33.542 17.8066 34.6509 19.5208Z" fill="#E0704A"/>
<path d="M34.6454 22.541C35.1964 22.541 35.6435 22.9867 35.6454 23.5376L35.6654 29.4247C35.6654 32.8663 32.8654 35.6663 29.4237 35.6663H18.5737C15.132 35.6663 12.332 32.8663 12.332 29.4247V23.5413C12.332 22.989 12.7797 22.5413 13.332 22.5413L34.6454 22.541Z" fill="#EFB7A4"/>
</svg>
