<svg width="48" height="48" viewBox="0 0 48 48" fill="none" xmlns="http://www.w3.org/2000/svg">
<rect width="48" height="48" rx="12" fill="#F3F9F1"/>
<path d="M29.5432 14.154V12.334C29.5432 11.8557 29.1466 11.459 28.6682 11.459C28.1899 11.459 27.7932 11.8557 27.7932 12.334V14.084H20.2099V12.334C20.2099 11.8557 19.8132 11.459 19.3349 11.459C18.8566 11.459 18.4599 11.8557 18.4599 12.334V14.154C15.3099 14.4457 13.7816 16.324 13.5482 19.1123C13.5249 19.4507 13.8049 19.7307 14.1316 19.7307H33.8716C34.2099 19.7307 34.4899 19.439 34.4549 19.1123C34.2216 16.324 32.6932 14.4457 29.5432 14.154Z" fill="#83BF6E"/>
<path d="M33.3333 21.4805H14.6667C14.025 21.4805 13.5 22.0055 13.5 22.6471V29.8338C13.5 33.3338 15.25 35.6671 19.3333 35.6671H28.6667C32.75 35.6671 34.5 33.3338 34.5 29.8338V22.6471C34.5 22.0055 33.975 21.4805 33.3333 21.4805ZM20.745 31.2455C20.6867 31.2921 20.6283 31.3505 20.57 31.3855C20.5 31.4321 20.43 31.4671 20.36 31.4905C20.29 31.5255 20.22 31.5488 20.15 31.5605C20.0683 31.5721 19.9983 31.5838 19.9167 31.5838C19.765 31.5838 19.6133 31.5488 19.4733 31.4905C19.3217 31.4321 19.205 31.3505 19.0883 31.2455C18.8783 31.0238 18.75 30.7205 18.75 30.4171C18.75 30.1138 18.8783 29.8105 19.0883 29.5888C19.205 29.4838 19.3217 29.4021 19.4733 29.3438C19.6833 29.2505 19.9167 29.2271 20.15 29.2738C20.22 29.2855 20.29 29.3088 20.36 29.3438C20.43 29.3671 20.5 29.4021 20.57 29.4488C20.6283 29.4955 20.6867 29.5421 20.745 29.5888C20.955 29.8105 21.0833 30.1138 21.0833 30.4171C21.0833 30.7205 20.955 31.0238 20.745 31.2455ZM20.745 27.1621C20.5233 27.3721 20.22 27.5005 19.9167 27.5005C19.6133 27.5005 19.31 27.3721 19.0883 27.1621C18.8783 26.9405 18.75 26.6371 18.75 26.3338C18.75 26.0305 18.8783 25.7271 19.0883 25.5055C19.415 25.1788 19.9283 25.0738 20.36 25.2605C20.5117 25.3188 20.64 25.4005 20.745 25.5055C20.955 25.7271 21.0833 26.0305 21.0833 26.3338C21.0833 26.6371 20.955 26.9405 20.745 27.1621ZM24.8283 31.2455C24.6067 31.4555 24.3033 31.5838 24 31.5838C23.6967 31.5838 23.3933 31.4555 23.1717 31.2455C22.9617 31.0238 22.8333 30.7205 22.8333 30.4171C22.8333 30.1138 22.9617 29.8105 23.1717 29.5888C23.6033 29.1571 24.3967 29.1571 24.8283 29.5888C25.0383 29.8105 25.1667 30.1138 25.1667 30.4171C25.1667 30.7205 25.0383 31.0238 24.8283 31.2455ZM24.8283 27.1621C24.77 27.2088 24.7117 27.2555 24.6533 27.3021C24.5833 27.3488 24.5133 27.3838 24.4433 27.4071C24.3733 27.4421 24.3033 27.4655 24.2333 27.4771C24.1517 27.4888 24.0817 27.5005 24 27.5005C23.6967 27.5005 23.3933 27.3721 23.1717 27.1621C22.9617 26.9405 22.8333 26.6371 22.8333 26.3338C22.8333 26.0305 22.9617 25.7271 23.1717 25.5055C23.2767 25.4005 23.405 25.3188 23.5567 25.2605C23.9883 25.0738 24.5017 25.1788 24.8283 25.5055C25.0383 25.7271 25.1667 26.0305 25.1667 26.3338C25.1667 26.6371 25.0383 26.9405 24.8283 27.1621ZM28.9117 31.2455C28.69 31.4555 28.3867 31.5838 28.0833 31.5838C27.78 31.5838 27.4767 31.4555 27.255 31.2455C27.045 31.0238 26.9167 30.7205 26.9167 30.4171C26.9167 30.1138 27.045 29.8105 27.255 29.5888C27.6867 29.1571 28.48 29.1571 28.9117 29.5888C29.1217 29.8105 29.25 30.1138 29.25 30.4171C29.25 30.7205 29.1217 31.0238 28.9117 31.2455ZM28.9117 27.1621C28.8533 27.2088 28.795 27.2555 28.7367 27.3021C28.6667 27.3488 28.5967 27.3838 28.5267 27.4071C28.4567 27.4421 28.3867 27.4655 28.3167 27.4771C28.235 27.4888 28.1533 27.5005 28.0833 27.5005C27.78 27.5005 27.4767 27.3721 27.255 27.1621C27.045 26.9405 26.9167 26.6371 26.9167 26.3338C26.9167 26.0305 27.045 25.7271 27.255 25.5055C27.3717 25.4005 27.4883 25.3188 27.64 25.2605C27.85 25.1671 28.0833 25.1438 28.3167 25.1905C28.3867 25.2021 28.4567 25.2255 28.5267 25.2605C28.5967 25.2838 28.6667 25.3188 28.7367 25.3655C28.795 25.4121 28.8533 25.4588 28.9117 25.5055C29.1217 25.7271 29.25 26.0305 29.25 26.3338C29.25 26.6371 29.1217 26.9405 28.9117 27.1621Z" fill="#BBDCAF"/>
</svg>
