<svg width="48" height="48" viewBox="0 0 48 48" fill="none" xmlns="http://www.w3.org/2000/svg">
<rect width="48" height="48" rx="12" fill="#FBEDF0"/>
<path d="M31.5494 29.6357L32.0044 33.3223C32.1211 34.2907 31.0828 34.9673 30.2544 34.4656L26.2178 32.0623C25.9378 31.899 25.8678 31.549 26.0194 31.269C26.6028 30.1956 26.9178 28.9823 26.9178 27.769C26.9178 23.499 23.2544 20.0223 18.7511 20.0223C17.8294 20.0223 16.9311 20.1623 16.0911 20.4423C15.6594 20.5823 15.2394 20.1857 15.3444 19.7423C16.4061 15.4957 20.4894 12.334 25.3661 12.334C31.0594 12.334 35.6678 16.639 35.6678 21.9473C35.6678 25.0973 34.0461 27.8857 31.5494 29.6357Z" fill="#E79CAD"/>
<path d="M25.1654 27.7682C25.1654 29.1565 24.652 30.4398 23.7887 31.4548C22.6337 32.8548 20.802 33.7532 18.7487 33.7532L15.7037 35.5615C15.1904 35.8765 14.537 35.4448 14.607 34.8498L14.8987 32.5515C13.3354 31.4665 12.332 29.7282 12.332 27.7682C12.332 25.7148 13.4287 23.9065 15.1087 22.8332C16.147 22.1565 17.3954 21.7715 18.7487 21.7715C22.2954 21.7715 25.1654 24.4548 25.1654 27.7682Z" fill="#D34B6A"/>
</svg>
