<svg width="48" height="48" viewBox="0 0 48 48" fill="none" xmlns="http://www.w3.org/2000/svg">
<rect width="48" height="48" rx="12" fill="#FEF6ED"/>
<path d="M35.3503 24.8821H31.8749V22.2462C31.8749 22.0887 31.87 21.9343 31.8602 21.783C33.4773 20.2583 33.6238 18.2485 33.6249 16.1502C33.6249 15.6793 33.2618 15.2752 32.7909 15.2527C32.6729 15.2472 32.5549 15.2656 32.4441 15.3069C32.3334 15.3483 32.2321 15.4116 32.1465 15.4931C32.0609 15.5746 31.9927 15.6726 31.946 15.7812C31.8993 15.8899 31.8752 16.0068 31.8749 16.125C31.8749 17.6563 31.7732 18.7582 31.3335 19.6163C30.2824 17.3659 27.7362 16.1212 23.9999 16.1212C21.8234 16.1212 19.9427 16.6205 18.5623 17.5644C17.7475 18.1216 17.1295 18.8173 16.7194 19.6272C16.2343 18.7855 16.1249 17.7109 16.1249 16.1502C16.1249 15.6793 15.764 15.2752 15.2937 15.2511C15.1752 15.2452 15.0568 15.2634 14.9456 15.3046C14.8344 15.3459 14.7328 15.4093 14.6469 15.491C14.5609 15.5727 14.4925 15.6711 14.4458 15.7801C14.399 15.8891 14.3749 16.0064 14.3749 16.125C14.3749 18.1829 14.5177 20.1571 16.149 21.6829C16.1333 21.8674 16.1253 22.0551 16.1249 22.2462V24.8821H12.6495C12.1787 24.8821 11.7745 25.2441 11.751 25.715C11.7453 25.8334 11.7637 25.9517 11.8051 26.0628C11.8465 26.1739 11.9101 26.2754 11.9919 26.3611C12.0737 26.4469 12.1721 26.5151 12.2811 26.5617C12.3901 26.6083 12.5075 26.6322 12.626 26.6321H16.126V27.5C16.1252 28.5061 16.3181 29.503 16.6942 30.4362C15.2904 31.6913 14.3848 33.0781 14.3749 35.3389C14.3749 35.8169 14.737 36.2303 15.2149 36.2495C15.3327 36.2542 15.4502 36.235 15.5604 36.1932C15.6706 36.1514 15.7712 36.0877 15.8562 36.0061C15.9412 35.9244 16.0088 35.8264 16.055 35.718C16.1011 35.6095 16.1249 35.4929 16.1249 35.375C16.1249 33.8623 16.6226 32.9299 17.5561 32.0216C18.6326 33.5539 20.2187 34.6537 22.0312 35.1245C22.1605 35.1579 22.2957 35.1613 22.4265 35.1343C22.5572 35.1074 22.6801 35.0509 22.7857 34.9691C22.8913 34.8873 22.9767 34.7825 23.0355 34.6626C23.0943 34.5427 23.1249 34.411 23.1249 34.2774V20.5246C23.1249 20.0538 23.487 19.6496 23.9578 19.6261C24.0761 19.6204 24.1944 19.6388 24.3053 19.6801C24.4163 19.7215 24.5178 19.7849 24.6035 19.8666C24.6893 19.9483 24.7576 20.0466 24.8042 20.1555C24.8509 20.2643 24.8749 20.3816 24.8749 20.5V34.2774C24.8749 34.411 24.9055 34.5427 24.9643 34.6626C25.0231 34.7825 25.1086 34.8873 25.2141 34.9691C25.3197 35.0509 25.4426 35.1074 25.5734 35.1343C25.7042 35.1613 25.8394 35.1579 25.9687 35.1245C27.7809 34.6534 29.3667 33.5537 30.4432 32.0216C31.3729 32.9261 31.87 33.8547 31.8744 35.3548C31.8724 35.581 31.9567 35.7995 32.1101 35.9658C32.2635 36.1321 32.4745 36.2337 32.7002 36.25C32.8192 36.2568 32.9383 36.2392 33.0503 36.1982C33.1623 36.1573 33.2647 36.0939 33.3513 36.012C33.4379 35.9301 33.5068 35.8313 33.5539 35.7218C33.6009 35.6122 33.6251 35.4942 33.6249 35.375C33.6249 33.0956 32.7171 31.6984 31.3067 30.4362C31.6828 29.503 31.8757 28.5061 31.8749 27.5V26.6321H35.3749C35.4935 26.6322 35.6108 26.6083 35.7198 26.5617C35.8288 26.5151 35.9272 26.4469 36.009 26.3611C36.0908 26.2754 36.1544 26.1739 36.1958 26.0628C36.2372 25.9517 36.2556 25.8334 36.2499 25.715C36.227 25.2441 35.8212 24.8821 35.3503 24.8821Z" fill="#F2A84C"/>
<path d="M27.5774 15.6875L27.5949 15.6924C28.337 15.9002 28.9659 15.1155 28.5902 14.4428C28.1361 13.627 27.4725 12.9473 26.6677 12.4739C25.863 12.0005 24.9465 11.7506 24.0129 11.75H23.9899C23.0468 11.7506 22.1214 12.0056 21.3111 12.4881C20.5008 12.9706 19.8357 13.6627 19.3858 14.4915C19.0117 15.1795 19.6668 15.968 20.4161 15.7416C21.494 15.4135 22.7015 15.2462 24.0014 15.2462C25.3188 15.2462 26.5219 15.3949 27.5774 15.6875Z" fill="#F8CF9C"/>
</svg>
