<svg width="48" height="48" viewBox="0 0 48 48" fill="none" xmlns="http://www.w3.org/2000/svg">
<rect width="48" height="48" rx="12" fill="#EEF8FE"/>
<path d="M18.9253 34.3942C18.8903 34.3942 18.8436 34.4175 18.8086 34.4175C16.5453 33.2975 14.702 31.4425 13.5703 29.1792C13.5703 29.1442 13.5936 29.0975 13.5936 29.0625C15.017 29.4825 16.487 29.7975 17.9453 30.0425C18.202 31.5125 18.5053 32.9708 18.9253 34.3942Z" fill="#57B6F0"/>
<path d="M34.4289 29.1908C33.2739 31.5125 31.3489 33.3908 29.0039 34.5225C29.4472 33.0408 29.8206 31.5475 30.0656 30.0425C31.5356 29.7975 32.9822 29.4825 34.4056 29.0625C34.3939 29.1092 34.4289 29.1558 34.4289 29.1908Z" fill="#57B6F0"/>
<path d="M34.5222 18.9949C33.0522 18.5516 31.5706 18.1899 30.0656 17.9332C29.8206 16.4282 29.4589 14.9349 29.0039 13.4766C31.4189 14.6316 33.3672 16.5799 34.5222 18.9949Z" fill="#57B6F0"/>
<path d="M18.9249 13.6034C18.5049 15.0267 18.2016 16.4734 17.9566 17.9434C16.4516 18.1767 14.9582 18.55 13.4766 18.9934C14.6082 16.6484 16.4866 14.7234 18.8082 13.5684C18.8432 13.5684 18.8899 13.6034 18.9249 13.6034Z" fill="#57B6F0"/>
<path d="M28.073 17.689C25.3664 17.3857 22.6364 17.3857 19.9297 17.689C20.2214 16.0907 20.5947 14.4923 21.1197 12.9523C21.143 12.859 21.1314 12.789 21.143 12.6957C22.0647 12.474 23.0097 12.334 24.0014 12.334C24.9814 12.334 25.938 12.474 26.848 12.6957C26.8597 12.789 26.8597 12.859 26.883 12.9523C27.408 14.504 27.7814 16.0907 28.073 17.689Z" fill="#57B6F0"/>
<path d="M17.687 28.073C16.077 27.7814 14.4904 27.408 12.9504 26.883C12.857 26.8597 12.787 26.8714 12.6937 26.8597C12.472 25.938 12.332 24.993 12.332 24.0014C12.332 23.0214 12.472 22.0647 12.6937 21.1547C12.787 21.143 12.857 21.143 12.9504 21.1197C14.502 20.6064 16.077 20.2214 17.687 19.9297C17.3954 22.6364 17.3954 25.3664 17.687 28.073Z" fill="#57B6F0"/>
<path d="M35.6675 24.0014C35.6675 24.993 35.5275 25.938 35.3058 26.8597C35.2125 26.8714 35.1425 26.8597 35.0492 26.883C33.4975 27.3964 31.9108 27.7814 30.3125 28.073C30.6158 25.3664 30.6158 22.6364 30.3125 19.9297C31.9108 20.2214 33.5092 20.5947 35.0492 21.1197C35.1425 21.143 35.2125 21.1547 35.3058 21.1547C35.5275 22.0764 35.6675 23.0214 35.6675 24.0014Z" fill="#57B6F0"/>
<path d="M28.073 30.3125C27.7814 31.9225 27.408 33.5092 26.883 35.0492C26.8597 35.1425 26.8597 35.2125 26.848 35.3058C25.938 35.5275 24.9814 35.6675 24.0014 35.6675C23.0097 35.6675 22.0647 35.5275 21.143 35.3058C21.1314 35.2125 21.143 35.1425 21.1197 35.0492C20.6064 33.4975 20.2214 31.9225 19.9297 30.3125C21.283 30.4642 22.6364 30.5692 24.0014 30.5692C25.3664 30.5692 26.7314 30.4642 28.073 30.3125Z" fill="#57B6F0"/>
<path d="M28.3892 28.3912C25.4713 28.7594 22.5261 28.7594 19.6081 28.3912C19.24 25.4733 19.24 22.528 19.6081 19.6101C22.5261 19.2419 25.4713 19.2419 28.3892 19.6101C28.7574 22.528 28.7574 25.4733 28.3892 28.3912Z" fill="#57B6F0"/>
</svg>
