<svg width="48" height="48" viewBox="0 0 48 48" fill="none" xmlns="http://www.w3.org/2000/svg">
<rect width="48" height="48" rx="12" fill="#EDF3FE"/>
<path fill-rule="evenodd" clip-rule="evenodd" d="M17.0013 29.099V14.2123V13.209C17.0013 12.7307 16.4724 12.334 15.8346 12.334C15.1969 12.334 14.668 12.7307 14.668 13.209V34.7923C14.668 35.2706 15.1969 35.6673 15.8346 35.6673C16.4724 35.6673 17.0013 35.2706 17.0013 34.7923V29.099Z" fill="#4A86F7"/>
<path d="M29.3979 22.8949L30.7855 24.2334C31.9457 25.3635 32.3779 26.4497 32.0025 27.3165C31.6272 28.1833 30.5239 28.666 28.886 28.666H17V14.666H28.886C30.5466 14.666 31.6727 15.1378 32.0367 15.9936C32.412 16.8604 31.9684 17.9576 30.7855 19.0986L29.4206 20.4152C29.0453 20.7773 28.8405 21.271 28.8633 21.7648C28.8746 22.2146 29.068 22.6206 29.3979 22.8949Z" fill="#A3C2FB"/>
</svg>
