<svg width="108" height="167" viewBox="0 0 108 167" fill="none" xmlns="http://www.w3.org/2000/svg">
<path d="M4.4375 116.188V92.375C4.4375 91.0417 4.55208 89.8438 4.78125 88.7812C5.03125 87.6979 5.52083 86.8438 6.25 86.2188C7 85.5729 8.125 85.25 9.625 85.25C11.1667 85.25 12.3021 85.5625 13.0312 86.1875C13.7812 86.8125 14.2604 87.6667 14.4688 88.75C14.6979 89.8125 14.8125 91.0208 14.8125 92.375V117C14.875 117.896 15.0625 118.708 15.375 119.438C15.6667 120.125 16.1042 120.708 16.6875 121.188C17.2917 121.646 18.0417 121.875 18.9375 121.875C19.8542 121.875 20.6146 121.646 21.2188 121.188C21.8229 120.729 22.2604 120.146 22.5312 119.438C22.8646 118.688 23.0417 117.875 23.0625 117V92.375C23.0625 91.0208 23.1667 89.8125 23.375 88.75C23.6042 87.6667 24.0833 86.8125 24.8125 86.1875C25.5625 85.5625 26.7083 85.25 28.25 85.25C29.7708 85.25 30.8958 85.5729 31.625 86.2188C32.3542 86.8438 32.8333 87.6979 33.0625 88.7812C33.3125 89.8438 33.4375 91.0417 33.4375 92.375V116.188C33.4375 118.354 33.0938 120.25 32.4062 121.875C31.7188 123.479 30.7292 124.833 29.4375 125.938C26.8542 128.146 23.3542 129.25 18.9375 129.25C14.5625 129.25 11.0729 128.125 8.46875 125.875C7.19792 124.771 6.20833 123.406 5.5 121.781C4.79167 120.156 4.4375 118.292 4.4375 116.188ZM55.6875 111.75H51.6875V121.875C51.6875 123.208 51.6042 124.417 51.4375 125.5C51.2708 126.583 50.8438 127.438 50.1562 128.062C49.4896 128.688 48.3958 129 46.875 129C45.3958 129 44.3229 128.688 43.6562 128.062C42.9896 127.417 42.5729 126.562 42.4062 125.5C42.2604 124.417 42.1875 123.208 42.1875 121.875V92.375C42.1875 91.0417 42.2604 89.8438 42.4062 88.7812C42.5729 87.6979 42.9896 86.8438 43.6562 86.2188C44.3229 85.5729 45.3958 85.25 46.875 85.25H57.1875C59.8125 85.375 62.125 85.9167 64.125 86.875C65 87.2917 65.8542 87.8125 66.6875 88.4375C67.5208 89.0417 68.2604 89.8021 68.9062 90.7188C69.5729 91.6146 70.0938 92.6875 70.4688 93.9375C70.8646 95.1875 71.0625 96.625 71.0625 98.25C71.0625 100.479 70.7083 102.438 70 104.125C69.3125 105.792 68.3125 107.188 67 108.312C64.3333 110.604 60.5625 111.75 55.6875 111.75ZM51.6875 92.625V104.312H55.9375C56.9792 104.25 57.9167 104 58.75 103.562C59.5833 103.125 60.2604 102.479 60.7812 101.625C61.3021 100.75 61.5625 99.625 61.5625 98.25C61.5625 96.9583 61.3021 95.9271 60.7812 95.1562C60.2812 94.3646 59.6562 93.7604 58.9062 93.3438C58.1771 92.9688 57.2917 92.7292 56.25 92.625H51.6875Z" fill="black"/>
<path d="M40.4375 65.1875V41.375C40.4375 40.0417 40.5521 38.8438 40.7812 37.7812C41.0312 36.6979 41.5208 35.8438 42.25 35.2188C43 34.5729 44.125 34.25 45.625 34.25C47.1667 34.25 48.3021 34.5625 49.0312 35.1875C49.7812 35.8125 50.2604 36.6667 50.4688 37.75C50.6979 38.8125 50.8125 40.0208 50.8125 41.375V66C50.875 66.8958 51.0625 67.7083 51.375 68.4375C51.6667 69.125 52.1042 69.7083 52.6875 70.1875C53.2917 70.6458 54.0417 70.875 54.9375 70.875C55.8542 70.875 56.6146 70.6458 57.2188 70.1875C57.8229 69.7292 58.2604 69.1458 58.5312 68.4375C58.8646 67.6875 59.0417 66.875 59.0625 66V41.375C59.0625 40.0208 59.1667 38.8125 59.375 37.75C59.6042 36.6667 60.0833 35.8125 60.8125 35.1875C61.5625 34.5625 62.7083 34.25 64.25 34.25C65.7708 34.25 66.8958 34.5729 67.625 35.2188C68.3542 35.8438 68.8333 36.6979 69.0625 37.7812C69.3125 38.8438 69.4375 40.0417 69.4375 41.375V65.1875C69.4375 67.3542 69.0938 69.25 68.4062 70.875C67.7188 72.4792 66.7292 73.8333 65.4375 74.9375C62.8542 77.1458 59.3542 78.25 54.9375 78.25C50.5625 78.25 47.0729 77.125 44.4688 74.875C43.1979 73.7708 42.2083 72.4062 41.5 70.7812C40.7917 69.1562 40.4375 67.2917 40.4375 65.1875ZM91.6875 60.75H87.6875V70.875C87.6875 72.2083 87.6042 73.4167 87.4375 74.5C87.2708 75.5833 86.8438 76.4375 86.1562 77.0625C85.4896 77.6875 84.3958 78 82.875 78C81.3958 78 80.3229 77.6875 79.6562 77.0625C78.9896 76.4167 78.5729 75.5625 78.4062 74.5C78.2604 73.4167 78.1875 72.2083 78.1875 70.875V41.375C78.1875 40.0417 78.2604 38.8438 78.4062 37.7812C78.5729 36.6979 78.9896 35.8438 79.6562 35.2188C80.3229 34.5729 81.3958 34.25 82.875 34.25H93.1875C95.8125 34.375 98.125 34.9167 100.125 35.875C101 36.2917 101.854 36.8125 102.688 37.4375C103.521 38.0417 104.26 38.8021 104.906 39.7188C105.573 40.6146 106.094 41.6875 106.469 42.9375C106.865 44.1875 107.062 45.625 107.062 47.25C107.062 49.4792 106.708 51.4375 106 53.125C105.312 54.7917 104.312 56.1875 103 57.3125C100.333 59.6042 96.5625 60.75 91.6875 60.75ZM87.6875 41.625V53.3125H91.9375C92.9792 53.25 93.9167 53 94.75 52.5625C95.5833 52.125 96.2604 51.4792 96.7812 50.625C97.3021 49.75 97.5625 48.625 97.5625 47.25C97.5625 45.9583 97.3021 44.9271 96.7812 44.1562C96.2812 43.3646 95.6562 42.7604 94.9062 42.3438C94.1771 41.9688 93.2917 41.7292 92.25 41.625H87.6875Z" fill="#5B845F"/>
</svg>
