<svg width="103" height="103" viewBox="0 0 103 103" fill="none" xmlns="http://www.w3.org/2000/svg">
<path opacity="0.4" d="M56.4973 88.8281C56.4007 88.4492 55.9897 89.1054 56.0753 88.3776L56.8711 88.5353C56.671 88.0849 56.0754 88.378 55.7468 88.2409C55.4181 88.1039 56.1761 88.3947 56.0103 88.8524C55.25 88.737 55.1479 88.249 54.8346 87.5302C54.8039 87.4795 54.7862 87.4217 54.7832 87.3626C54.7803 87.3035 54.7921 87.2448 54.8176 87.1912C55.0168 87.1812 55.231 87.2471 55.4324 87.2809C55.5695 87.6008 55.8219 87.8589 56.1409 88.005C56.4599 88.1511 56.8225 88.1745 57.1585 88.0713L57.6337 87.5872C57.9488 88.1195 57.708 89.0744 58.3495 89.0314L58.2064 88.6109C58.3664 88.4823 58.4644 88.4446 58.5425 88.4517C58.329 88.1773 58.1139 87.8704 57.911 87.5845C58.2209 87.569 58.5246 87.6521 58.8151 87.6924C58.9684 87.8948 59.1618 88.0641 59.3837 88.1901C59.3782 88.0808 59.1758 88.0253 59.1427 87.8077C59.9917 87.6994 60.7581 88.8233 61.4209 88.9874C61.7377 88.6646 60.907 88.695 61.1026 88.1699C61.4257 88.4169 61.8587 87.9787 61.8954 88.4921C61.867 87.9235 62.3505 88.2719 62.2969 88.0882C62.4297 88.0816 62.5405 88.0761 62.6544 88.1362C62.7191 88.3193 62.7837 88.5023 62.9641 88.5591C62.9483 88.242 63.0839 88.2903 63.262 88.3033C63.2018 88.2705 63.1501 88.2245 63.111 88.1685C63.5868 88.2211 64.0662 88.2333 64.5442 88.206C65.0289 88.3322 65.5282 88.3959 66.0296 88.395C65.9256 88.2657 65.8636 88.1084 65.8516 87.9436C65.9291 87.9397 66.0038 87.8808 66.0802 87.8551L66.2423 87.9899C66.4503 88.1549 66.6649 88.2317 67.0126 87.8635C66.9968 87.5464 66.9947 87.5025 66.8143 87.4458C67.094 87.2232 67.2994 86.9229 67.4036 86.5834L67.6003 86.2995C67.5449 86.3023 67.5007 86.3045 67.4564 86.3067L67.4421 86.0221C67.4614 85.8284 67.5325 85.6433 67.6483 85.4856L67.2989 85.6016C67.1856 85.3675 67.0198 85.1623 66.814 85.0012C66.814 85.0012 66.8107 84.9355 66.7421 84.8951L66.7454 84.9608C66.6943 84.9198 66.6405 84.8823 66.5844 84.8484C66.6284 84.8426 66.6728 84.8403 66.7172 84.8417C66.6132 84.6104 66.4313 84.4216 66.2023 84.3081C65.9826 84.1997 65.7515 84.1159 65.513 84.0579C65.4833 84.1588 65.4887 84.2663 65.5283 84.3638C65.4842 84.3449 65.4389 84.3291 65.3927 84.316C65.3927 84.316 65.1569 84.2621 64.7635 84.1612C64.2 83.5426 65.636 83.6353 65.0758 82.863L65.3465 82.948C65.3316 82.9275 65.323 82.9033 65.3217 82.878C65.3205 82.8528 65.3266 82.8279 65.3394 82.806L65.719 82.8528C65.521 82.6654 65.0124 82.4823 65.3696 82.0808L65.9341 82.0525C65.915 81.6698 66.1103 81.5831 66.1515 81.296L64.7575 80.2695C64.7684 80.4882 64.9554 80.6765 64.7876 80.8713C64.3371 80.9596 64.5427 80.4121 64.0866 80.6103L64.1915 80.9337C64.1855 80.8135 64.1833 80.7701 64.1828 80.7591C64.1822 80.7482 64.3642 80.8375 64.3287 81.0147C64.1005 81.333 63.7754 81.0426 63.7158 80.7386C63.2017 80.6657 63.4575 81.3434 63.3285 81.4266C63.2072 80.7749 62.488 81.2603 62.1932 80.9133L62.3036 81.3462C61.823 81.721 61.5676 81.2736 61.3806 81.0856L61.397 81.4135C60.878 81.2421 60.3295 82.256 60.2688 81.0422L60.2798 81.2611C60.0363 81.2733 59.6588 81.4896 59.529 81.1124C59.535 81.2327 59.4208 81.3919 59.3223 81.4188C59.2993 80.9595 59.0026 81.2373 58.6705 81.2539C58.8558 81.409 58.7056 81.9541 58.8704 82.1431C58.2619 82.623 58.5459 81.4246 58.1314 81.3467C57.822 81.5924 58.2934 81.7004 58.3049 81.93C57.7285 81.4984 56.7371 82.9729 56.5551 81.7762L56.8945 81.4632C56.6916 81.1773 56.5571 81.1515 56.5626 81.2609C56.568 81.3702 56.6561 81.3548 56.6727 81.4636C55.7958 81.9021 55.6218 80.4199 54.7916 80.4614C54.8026 80.6801 54.907 80.7738 54.8826 80.9504C54.4912 81.1125 54.725 79.796 54.0652 80.1359L54.0788 80.4093C53.8624 80.5188 53.7769 80.1396 53.8179 80.0718C53.6441 81.0342 52.5849 79.8266 51.9794 81.0298C51.7843 80.4586 51.0143 79.9267 50.717 80.1937C50.2883 80.7195 50.9507 80.873 50.7766 81.386C50.4999 81.3999 50.4256 80.8007 49.9778 80.9437C50.0395 80.4035 50.9601 79.9515 50.1967 79.5512L50.0437 79.8222C50.1323 79.8178 50.2596 79.7018 50.3757 79.8056C50.5592 80.1472 50.1818 80.1438 50.1114 80.2899L49.2771 80.0249C49.2481 79.4454 49.7793 79.6378 49.8502 79.5027C49.1529 79.5376 48.2476 80.2954 47.6491 79.865L47.66 80.0839C46.8889 79.5305 47.1116 81.0979 46.5532 80.1392C46.205 80.2773 46.5843 80.7626 46.1189 80.7749C45.9861 80.7816 46.1079 80.556 46.1046 80.4903C45.4827 80.2584 45.8095 81.0206 45.2498 80.4785L45.3424 81.0001C45.3424 81.0001 45.2649 81.0039 45.2317 81.0056C44.6088 80.5325 43.8976 79.6252 43.3119 79.8957C43.3355 80.3659 43.7544 80.3123 43.9048 80.6555C43.7152 80.4856 43.4846 80.3662 43.235 80.3096C42.9854 80.2529 42.7252 80.2606 42.4793 80.3318C42.2358 80.344 41.9857 80.4446 41.7538 80.4672C41.5228 80.5282 41.2814 80.5403 41.0454 80.5026C41.2001 80.0454 40.3403 79.7155 40.8492 79.2406C41.1543 79.7954 41.3416 79.3255 41.6642 79.3422C41.6088 79.218 41.5118 79.1169 41.3895 79.0551C41.2672 78.9934 41.1271 78.975 40.9926 79.0033C40.712 79.0701 40.452 79.2033 40.2353 79.3918L39.8826 79.6615C39.7742 79.7547 39.66 79.8412 39.5406 79.92C39.4421 79.9894 39.3219 80.022 39.2015 80.012C39.0811 80.0019 38.9682 79.9498 38.883 79.8652L38.9868 80.3861C38.7688 80.4628 38.0259 80.6972 38.2486 80.2695C38.0338 80.5493 37.8588 80.8569 37.7284 81.1835C37.6458 81.3814 37.5818 81.5868 37.5372 81.7963C37.4821 82.0385 37.4571 82.2863 37.4631 82.5344C37.5232 82.3907 37.5942 82.2514 37.6754 82.1181L37.9793 81.763C38.1737 81.5737 38.3935 81.4114 38.6322 81.2807C39.0429 81.0628 39.3478 80.9491 39.3314 80.621C39.9163 80.7781 39.107 81.2355 39.7394 81.456C39.1827 81.418 39.1267 81.6287 39.203 81.8222C39.243 81.9275 39.2744 82.0363 39.2968 82.1467C39.3113 82.3018 39.2848 82.4582 39.2197 82.6002C39.0581 82.4767 38.9226 82.4285 38.7814 82.4904C38.6137 82.595 38.4913 82.7573 38.4381 82.946C38.2729 83.4147 38.3987 83.9348 38.2343 83.9759C38.5584 84.411 38.8009 84.8997 38.9502 85.4195C39.2446 85.6329 39.5864 85.7741 39.9472 85.8305C40.3096 85.8737 40.6535 86.0113 40.9437 86.2298C40.8332 86.0727 40.7634 85.8914 40.7403 85.7014C40.7173 85.5115 40.7417 85.3187 40.8114 85.1401C40.9617 85.4834 41.2671 85.5997 41.4976 85.1058C40.9925 83.8814 40.7356 86.0647 40.1208 85.0869C40.1584 84.8565 40.1494 84.6213 40.0943 84.3945C40.0391 84.1677 39.9389 83.954 39.7995 83.7659C39.938 83.7429 40.0662 83.6792 40.1676 83.5831C40.2726 83.6698 40.3841 83.7485 40.5012 83.8185C40.5445 83.9137 40.6085 83.9981 40.6886 84.0661C40.7687 84.1341 40.863 84.1839 40.9647 84.2118C41.315 84.3368 41.7045 84.3612 41.9129 84.7564C42.1213 85.1515 41.5803 85.8691 42.1955 86.1891C41.9631 86.2007 41.7344 86.289 41.4926 86.334C42.2563 86.2958 41.5122 86.7276 42.0162 87.0422L41.9937 86.5937C42.3369 86.5765 42.4332 86.7256 42.5271 87.0498L42.4383 86.3851C42.6375 86.3752 42.9696 86.3589 42.8664 86.7368C42.9445 86.6359 43.0028 86.5211 43.0382 86.399C43.0437 86.5084 43.0481 86.5961 43.3048 86.6271C43.2114 86.5331 43.1117 86.5378 43.1589 86.371C43.8753 86.7189 43.5178 85.783 43.9599 85.9691C43.9517 85.8051 44.1005 85.6773 44.2876 85.646C44.0231 86.5691 44.9062 86.9198 45.0349 87.4944L45.5824 88.0151C45.4663 87.9113 45.6656 87.6817 45.8737 87.6274C46.1013 87.5174 45.819 86.5341 46.3949 86.9548L46.6448 87.2929C46.6448 87.2929 46.636 87.1182 46.7213 87.0482L46.9922 87.3633C47.6634 86.5842 47.8254 88.0452 48.4858 87.7162C48.3087 87.7251 48.0608 87.6494 48.2248 87.3781C48.3648 87.2944 48.5047 87.4301 48.5677 87.5804L48.5622 87.471L49.5551 88.2435C49.5382 87.9045 48.9107 87.7827 49.2501 87.4698C49.5895 87.1568 49.7216 87.5774 49.9131 87.6336C49.8482 87.8889 49.4452 88.041 49.7882 88.2431C49.8602 88.1298 50.2493 87.9241 50.1172 87.7224C50.4546 88.0344 50.9769 88.2713 51.2787 88.7605C51.3961 88.6669 51.2673 88.5309 51.1987 88.4904L51.202 88.5561C50.9935 88.3802 51.2692 87.9055 50.7793 88.0944C50.8711 87.2677 51.4612 87.9728 51.8802 87.9189L51.3482 87.2658C52.5646 86.295 53.7785 87.7142 54.8183 87.8704C54.485 88.0844 54.26 87.7997 54.2037 88.4493C54.8117 88.8464 54.7487 88.6963 55.3363 88.9081C55.8356 88.6858 56.2031 89.3799 56.4973 88.8281ZM43.6926 80.1839L43.6893 80.1182L44.0539 80.3082L44.0577 80.3845L43.6926 80.1839ZM51.2749 86.6887C51.3267 86.7581 51.3942 86.815 51.4719 86.8544C51.3468 86.7948 51.2887 86.7428 51.2749 86.6887ZM64.5779 83.5565C64.6164 83.8097 64.7328 84.0449 64.9112 84.2303C64.7452 84.2386 64.5295 84.1399 64.2933 84.075L64.0808 83.8228C64.2619 83.6712 64.2565 83.3424 64.5779 83.5565ZM62.7218 83.7152L62.4412 83.6522C62.4412 83.5718 62.4372 83.4919 62.4292 83.4119C62.5008 83.4323 62.5656 83.4713 62.617 83.5246C62.6684 83.5778 62.7046 83.6436 62.7218 83.7152ZM60.3986 81.639C60.5386 81.7745 60.613 82.1543 60.8709 81.9879C60.8655 81.8786 60.8622 81.813 60.7721 81.7846L61.0931 81.7686C61.3324 82.3376 60.9594 82.4222 60.609 82.5165C60.5773 82.6068 60.5243 82.6883 60.4544 82.7544C60.388 82.7577 60.3626 82.6933 60.3256 82.6184C60.2515 82.6503 60.1884 82.7029 60.1445 82.7699L60.1385 82.6497C60.252 82.4796 60.2996 82.543 60.3378 82.6398C60.3759 82.7365 60.5258 82.6303 60.6211 82.5378C60.7701 82.1905 60.4766 81.865 60.4324 81.648L60.3986 81.639ZM56.4249 81.8378C56.4414 82.1659 56.296 81.921 56.173 82.1245L55.6901 81.7868C55.9473 81.16 56.2169 81.8918 56.4576 81.8249L56.4249 81.8378ZM51.9483 81.0753C51.6273 81.0913 51.292 81.0419 51.1912 81.2443C51.2207 80.9468 51.9088 80.5069 51.981 81.0624L51.9483 81.0753ZM52.3465 81.7127L52.5537 81.1981C52.5048 81.5513 53.0168 81.5807 53.0632 81.6222C53.082 81.701 53.086 81.7828 53.0753 81.863L52.6165 81.7869C52.5914 81.7482 52.5557 81.7177 52.5134 81.6984C52.4712 81.6792 52.4242 81.6722 52.3781 81.6784L52.3465 81.7127ZM40.3618 80.8109C40.4745 80.8534 40.5845 80.9027 40.691 80.9587L40.382 81.2151L40.3618 80.8109ZM40.8312 81.5437C40.8819 81.5215 40.9384 81.5155 40.9927 81.5265C41.0469 81.5376 41.0963 81.565 41.1339 81.6051C41.0443 81.6358 40.9572 81.673 40.8732 81.7167C40.8288 81.7142 40.7843 81.7164 40.7404 81.7233C40.5555 81.7983 40.454 81.9903 40.3422 81.9739C40.3923 81.8677 40.4648 81.7731 40.5547 81.6967C40.6447 81.6204 40.7501 81.5637 40.8639 81.5308L40.8312 81.5437ZM49.6512 86.8357L50.3622 87.0742L50.3441 86.7133L50.3633 87.0961L50.3671 87.1725L49.6512 86.8357ZM51.3719 87.5167C50.9395 87.7466 50.5579 87.2177 50.5714 86.8223L50.9659 87.1644L50.7929 86.8113L51.3719 87.5167Z" fill="#BBDCAF"/>
<path opacity="0.2" d="M23.8952 27.8001C23.4069 28.0305 23.5273 28.8079 22.9666 28.5514C23.6089 28.8354 22.8822 29.2521 23.1073 29.2882C22.9914 29.4207 22.8828 29.5449 22.767 29.6773C22.6526 29.6471 22.5338 29.6422 22.419 29.6631C22.3042 29.6839 22.1961 29.7299 22.1028 29.7979C22.478 29.9214 22.2943 30.097 22.162 30.3173C22.2338 30.2633 22.3175 30.2264 22.4068 30.2098C22.0105 30.7838 21.6289 31.3415 21.3017 31.8882C20.8001 32.341 20.2912 32.8018 19.8324 33.292C20.0278 33.3143 20.2117 33.4028 20.353 33.5426C20.2806 33.6254 20.2437 33.754 20.197 33.8592C19.7389 33.8824 19.4251 33.827 19.2426 34.5881C19.415 34.9434 19.5183 34.946 19.6704 34.9621C19.4712 35.4324 19.3049 35.9168 19.1726 36.4118C19.096 36.5428 18.9954 36.658 18.8757 36.7513L19.0493 36.7424C19.0226 36.8605 19.0037 36.9805 18.9922 37.1015C18.9009 37.3514 18.7208 37.5573 18.4853 37.6811L18.8991 37.7945C18.8719 38.1654 18.9005 38.5399 18.9838 38.906C18.9838 38.906 18.926 38.9723 18.9839 39.096L19.0273 39.0464L19.1259 39.2787L18.9891 39.1591C18.9489 39.5206 19.0385 39.8888 19.2423 40.1988L19.4141 40.4513C19.4817 40.5176 19.5531 40.5801 19.6279 40.6383L20.0214 40.9823C20.0781 40.8618 20.0864 40.7229 20.0445 40.5934L20.1985 40.728C20.4721 40.8957 20.772 41.0146 21.0842 41.0789C21.5034 41.4455 21.2941 41.5985 20.944 41.7745C20.5938 41.9505 20.1021 42.0466 20.7765 42.6217C20.589 42.56 20.4028 42.514 20.2054 42.4291C20.2738 42.4889 20.3081 42.5189 20.2199 42.6025C19.9205 42.5202 19.6294 42.4077 19.3512 42.2667C19.6462 42.5079 19.9562 42.7301 20.279 42.9319C20.5271 43.1488 20.7152 43.3133 20.3275 43.515C20.0936 43.4762 19.8616 43.4244 19.6326 43.3601C19.346 43.2722 19.0681 43.1564 18.8028 43.0144C18.9824 43.3614 18.8397 43.4559 18.6784 43.5194L18.5547 43.5573L18.3479 43.5518C18.2044 43.5433 18.1869 43.6155 18.146 43.6967L18.6182 44.0367L18.9092 44.2911C19.0998 44.4163 19.2975 44.5306 19.5008 44.6331C19.8756 44.8368 20.2667 45.0075 20.6695 45.1435C21.4431 45.4027 22.2459 45.5539 23.0545 45.5926C22.8235 45.3906 22.1601 45.2343 22.3701 44.9941C22.6993 44.8808 23.0592 44.8738 23.3995 44.9738C23.5567 45.0212 23.7221 45.0266 23.8793 44.9895C24.0364 44.9523 24.1795 44.8739 24.2939 44.7623L23.7846 44.5507C23.8958 44.6479 24.0392 44.6565 23.8417 44.7615C23.5738 45.0678 23.3231 44.8194 23.2745 44.6161C23.5536 44.1588 24.4604 44.1919 24.8684 44.3296C25.9261 43.7933 24.7467 43.5364 24.9264 43.3137C25.3496 43.5376 25.736 43.3202 26.0783 43.0497C26.4205 42.7791 26.6944 42.4487 27.0333 42.4236L26.449 42.2633C26.6867 41.4045 27.3745 41.3777 27.799 41.2375L27.4185 41.0509C27.7996 40.7704 27.7773 40.3125 27.8859 39.9984C27.9946 39.6843 28.1709 39.5171 28.9001 39.7018L28.6382 39.6042C28.7758 39.257 28.8694 38.6667 29.4274 38.7017C29.3077 38.597 29.1538 38.4624 29.2124 38.3091C29.729 38.5124 29.6021 38.0361 29.799 37.6384C29.5166 37.7714 29.0382 37.2653 28.717 37.4082C28.5954 36.4252 29.6917 37.3985 30.0597 36.9605C30.019 36.4719 29.5588 36.9462 29.3127 36.8479C30.173 36.4166 29.3131 34.3789 30.7346 34.8767L30.8147 35.4582C31.2688 35.3877 31.399 35.2386 31.276 35.1894C31.1529 35.1403 31.1063 35.2455 30.9832 35.1963C31.1769 33.9045 32.878 34.6176 33.4139 33.625C33.1737 33.5026 33.0124 33.5663 32.8341 33.4249C32.9862 32.8712 34.1647 33.9748 34.3301 33.0089L33.9977 32.9228C34.0576 32.5953 34.5144 32.7463 34.5453 32.8318C33.6899 32.0838 35.7835 31.6058 35.0585 30.139C35.8081 30.283 36.9789 29.7727 36.9613 29.275C36.787 28.4213 36.08 29.0744 35.73 28.4907C35.9906 28.1926 36.6101 28.4857 36.8543 27.8957C37.3419 28.3221 37.0257 29.6676 38.0637 29.0848L37.9071 28.7287C37.8274 28.8198 37.8557 29.0637 37.6859 29.1198C37.1765 29.0981 37.4984 28.6782 37.4122 28.5006L38.3726 27.7475C38.9536 28.1533 38.3387 28.5801 38.4163 28.7502C38.6742 28.2699 38.8766 27.7606 39.0195 27.232C39.0843 26.9611 39.2037 26.7079 39.3706 26.4873C39.5375 26.2668 39.7487 26.0835 39.9912 25.9484L39.7075 25.8757C40.4223 25.5071 40.323 25.1719 40.1671 24.9186C40.0112 24.6654 39.9202 24.5274 40.8232 24.3235C41.0049 23.8394 39.9571 24.2091 40.4067 23.6086C40.5443 23.4513 40.7471 23.5993 40.8155 23.6591C41.6765 22.9508 40.3193 23.2253 41.6159 22.6057L40.7813 22.6796C40.8175 22.6382 40.8465 22.6051 40.8827 22.5637C41.4751 22.2488 42.2288 21.8705 42.9041 21.4089C43.5208 21.1029 44.0202 20.6101 44.3331 19.999C43.5604 20.2439 43.2897 20.7087 42.5986 20.9811C43.3722 20.5457 43.9933 19.8897 44.3846 19.0943C44.653 18.441 45.0132 17.8315 45.4548 17.2833C45.9326 17.3066 47.0458 16.1027 47.2965 16.5411C46.3158 17.1447 46.7607 17.154 46.5678 17.599C47.6973 16.877 47.6901 16.3155 47.5355 15.8881C47.3809 15.4606 47.2269 15.1362 48.0135 14.582L47.3975 14.803C47.5496 14.6291 48.0019 13.8703 48.1901 14.0349C48.0532 13.7252 47.9881 13.42 47.8282 13.1194C47.4839 13.8412 46.2219 15.3531 46.8675 15.2017C46.1355 15.9352 46.5102 15.0061 45.7006 15.7594C46.3088 15.0638 46.2016 15.0139 46.0364 15.0302C45.8712 15.0465 45.6325 15.1298 45.7839 14.6632C46.1883 14.4837 46.5101 14.1643 46.6921 13.7625C46.8328 13.414 47.025 13.0897 47.2622 12.7999C47.1082 12.6652 47.3374 11.799 47.477 11.3804C47.4021 10.8619 46.3892 10.2246 45.8293 9.50115C45.9484 9.88288 46.057 10.5185 45.6956 10.8454C45.6437 10.3179 45.2555 10.0368 44.823 10.4623C45.042 11.2821 45.2784 11.1673 45.6088 10.9448C45.7455 10.8317 45.9127 10.7601 46.0912 10.7383C46.2347 10.7468 46.357 10.8832 46.3754 11.2937C46.0833 11.9083 45.8973 12.5702 45.8249 13.2525C45.747 13.2574 45.6707 13.2745 45.599 13.3034C45.5715 13.3225 45.5491 13.348 45.5339 13.3779L45.4832 13.4359C45.4788 13.2411 45.4627 13.0465 45.4347 12.8529L45.4485 12.7334C45.4668 12.472 45.3915 12.2095 45.236 11.9923C44.8651 11.6223 44.5173 11.2304 44.1945 10.8186C44.0662 10.3265 44.9252 9.68952 44.0631 9.24253C44.4226 9.18873 44.7876 9.17014 45.153 9.18725C43.998 9.12703 45.1939 8.72628 44.5095 8.31778L44.5513 8.82204C44.0295 8.74559 43.8954 8.65753 43.8251 8.28916L43.8223 9.01729C43.5064 9.03328 43.0035 9.09034 43.2319 8.69101C43.0936 8.80216 42.9761 8.93655 42.8844 9.08845C42.8982 8.96904 42.8201 8.88605 42.5213 8.91701C42.6325 9.01426 42.7937 8.95075 42.6758 9.15455C41.9388 9.06526 41.9334 9.57199 41.7379 9.79556C41.658 9.88608 41.5478 9.94471 41.4266 9.96154C41.4311 10.1117 41.1007 10.3341 40.898 10.566C41.1956 9.94948 41.0639 9.70286 40.8744 9.52253C40.6848 9.34221 40.4717 9.2582 40.4988 8.91655C40.3704 8.80434 40.2336 8.68463 40.0375 8.61542C40.1231 8.69023 39.8294 9.16401 39.5602 9.45461C39.2416 9.81894 39.2395 11.0299 38.7301 11.0083L38.482 10.7913C38.5247 10.8287 38.3977 11.112 38.3233 11.2661C38.2479 11.1858 38.1648 11.1131 38.0752 11.0491C37.5735 12.0716 37.3669 12.0664 37.1195 11.9524C36.8721 11.8383 36.5588 11.6957 36.121 12.438C36.3961 12.1234 36.6917 11.9581 36.4758 12.6021C36.3052 12.9352 36.1203 12.9051 36.0137 12.768L36.0426 12.9247C35.5116 13.0501 34.9925 13.2167 34.49 13.4227C34.6782 13.7772 35.5108 13.015 35.1401 13.9913C34.7694 14.9676 34.5201 14.5451 34.2371 14.7652C34.2115 14.3629 34.7177 13.4903 34.1497 13.8119C34.1003 14.0755 33.6717 14.9282 33.9527 14.9694C33.2665 15.2829 32.5481 15.5261 31.8085 15.6952C31.7057 15.9853 32.0052 15.8673 32.1191 15.8062L32.1244 15.6791C32.5377 15.4999 32.5021 16.4041 33.0104 15.4604C33.0979 15.6403 33.1177 15.8434 33.0664 16.0323C33.015 16.2213 32.8959 16.383 32.7311 16.4874C32.3798 16.7009 32.0651 16.9678 31.7978 17.2786C32.1629 17.1949 32.5346 17.1389 32.91 17.1114C32.7999 17.6385 32.5821 18.1342 32.27 18.5681C31.9897 18.9156 31.6529 19.2134 31.2728 19.4497C30.5161 19.849 29.8011 20.3196 29.1376 20.8555C29.2048 20.3299 29.6663 20.2511 29.0629 19.7673C28.5252 20.0208 28.0387 20.3667 27.6252 20.7896L27.6759 20.7317C27.6567 21.3579 26.661 21.3054 26.9511 22.0266C27.4065 22.1619 27.1008 21.2516 27.7595 21.8276L26.9321 22.6528C27.5559 22.7162 27.7594 21.8275 28.1516 21.586C28.3616 21.3459 27.6291 21.9767 27.3028 21.4867C28.0268 20.6587 28.6409 20.8887 29.5984 21.0539C29.6705 21.0622 29.7388 21.0925 29.794 21.1408C29.8492 21.1891 29.8884 21.2528 29.9062 21.3231C29.718 21.5384 29.5224 21.762 29.3342 21.9773C28.8481 21.9489 28.3703 22.0738 27.9691 22.3343C27.5678 22.5947 27.2637 22.9775 27.0998 23.4278L27.2133 24.3162C26.4124 24.3172 25.6604 23.3819 25.1502 24.207L25.6977 24.3058C25.7192 24.4794 25.6838 24.6536 25.5965 24.8018C26.0506 24.7313 26.5289 24.6674 27.0218 24.587C26.7322 24.9182 26.4498 25.2412 26.1674 25.5641C25.8311 25.6167 25.5099 25.7323 25.2204 25.9049C25.3145 25.9872 25.5575 25.7613 25.8036 25.8596C25.2256 26.9176 23.5242 27.1542 22.8258 27.8147C22.9027 28.2619 23.4919 27.2428 23.8952 27.8001ZM35.5199 29.6804C35.7497 29.2969 36.1209 28.9932 35.9781 28.7076C36.265 28.9147 36.1392 29.9735 35.5199 29.6804ZM43.9698 20.0174L44.0298 20.0699L43.3754 20.5935L43.3155 20.5411C43.582 20.4089 43.7974 20.232 44.0126 20.0549L43.9698 20.0174ZM46.0107 15.9573L45.5248 16.4093L45.5749 16.0586L46.0107 15.9573ZM21.7908 41.7552C21.6083 41.4668 21.3777 41.2107 21.1092 40.9984C21.4064 41.0647 21.7101 41.0892 22.0114 41.0714L22.4175 41.2804C22.3319 41.5855 22.5056 41.9565 21.8752 41.8143L21.7908 41.7552ZM24.2011 40.4145C24.3207 40.3514 24.4367 40.2822 24.5487 40.2071C24.6135 40.2819 24.6884 40.3474 24.7711 40.4016C24.7016 40.4484 24.622 40.4791 24.5381 40.4915C24.4541 40.504 24.3679 40.4979 24.2854 40.4736L24.2011 40.4145ZM28.4568 39.1386C28.1975 39.2625 27.7191 39.1364 27.6755 39.5659C27.7782 39.6557 27.8466 39.7156 27.9914 39.55L27.7255 39.9749C26.9062 39.9452 27.118 39.4438 27.3215 38.9349C27.2443 38.8478 27.1963 38.7393 27.1846 38.6253C27.1925 38.5299 27.2861 38.5095 27.4236 38.5421C27.4448 38.4353 27.4384 38.3239 27.4047 38.2186L27.4986 38.3007C27.6131 38.5323 27.5125 38.5613 27.3947 38.5751C27.3777 38.7104 27.3432 38.8425 27.2925 38.9681C27.6741 39.3602 28.2598 39.1565 28.5408 39.1976L28.4568 39.1386ZM31.0564 34.2668C30.6859 34.1036 31.0638 34.0687 30.9467 33.8056L31.6699 33.4443C32.2357 34.1437 31.2698 33.9711 31.1697 34.2928L31.0564 34.2668ZM34.4624 29.6469L34.8052 30.239C34.4801 29.9548 34.0423 30.507 33.9574 30.5351C33.8777 30.4769 33.8032 30.4118 33.7349 30.3406L34.1766 29.8355C34.2453 29.8478 34.3155 29.8424 34.3802 29.8197C34.445 29.797 34.5023 29.7577 34.5465 29.7059L34.4624 29.6469ZM44.9241 15.957C44.9548 16.2222 44.8897 16.4865 44.7404 16.7023C44.6468 16.8619 44.5241 17.0022 44.3784 17.1163L44.5869 16.6705C44.5869 16.6705 44.6376 16.6125 44.6593 16.5877C44.7606 16.389 44.8833 16.2023 45.0253 16.0309L44.9241 15.957ZM34.955 15.1006L34.1033 15.7294L34.2811 16.1478C34.2137 16.0173 34.1369 15.8915 34.0514 15.7716L34.0948 15.722L34.0263 15.6621L34.955 15.1006ZM32.7562 16.5969C32.8078 16.4346 32.8992 16.2888 33.0222 16.1721C33.1453 16.0555 33.296 15.9716 33.4616 15.9281C33.581 15.917 33.702 15.95 33.8014 16.0208C33.9007 16.0916 33.9718 16.1952 34.0013 16.3123C33.8013 16.3386 33.6031 16.3751 33.4075 16.4215L33.7722 16.6088C33.4754 16.6102 33.1804 16.6411 32.8916 16.7009L32.7562 16.5969ZM33.4153 17.2757C33.3645 17.2673 33.3128 17.2692 33.2634 17.2813C33.214 17.2933 33.1679 17.3152 33.1278 17.3457C33.2864 17.2506 33.3567 17.2391 33.4153 17.2757Z" fill="#BBDCAF"/>
<path opacity="0.3" d="M41.4085 49.5512C41.4658 50.0297 41.4165 50.5166 41.2642 50.9782C41.208 51.1475 41.1795 51.324 41.1797 51.5011C41.2204 51.8079 41.3071 52.1064 41.4369 52.3867C41.5043 52.1646 41.5832 51.9458 41.6734 51.7313C41.5581 51.8382 41.546 52.0489 41.4445 51.7109C41.1411 51.1539 41.4415 50.9465 41.6579 50.9817C41.7831 51.1476 41.8681 51.3399 41.9063 51.5443C41.9689 51.7713 42.0079 52.0044 42.0225 52.24C42.0459 52.6409 42.0149 53.044 41.9303 53.4386C42.2815 54.3854 42.5093 54.4248 42.6806 54.2931C42.852 54.1614 42.9657 53.8777 43.0999 54.0519C42.8746 54.5809 43.2631 55.2872 43.6801 55.9714C44.1453 56.5328 44.5725 57.1239 44.959 57.741C44.9171 57.4514 44.8661 57.1845 44.8471 56.9034C45.3891 57.2068 45.8639 57.6124 46.2448 58.0975C46.6153 58.5035 46.8808 58.9745 47.1721 59.266C47.145 59.0976 47.1273 58.9276 47.1193 58.757C47.6785 59.1728 48.3515 59.4176 49.056 59.4611C49.3966 59.5193 49.7171 59.655 49.9925 59.8575C50.2679 60.0601 50.4904 60.3238 50.6423 60.6278L50.4974 60.2997C50.6773 60.3135 50.8579 60.3179 51.0386 60.3128C51.2308 60.2933 51.4345 60.2782 51.6336 60.2743C52.0284 60.2581 52.4197 60.3348 52.7749 60.4984C52.7463 60.4028 52.7535 60.2997 52.7953 60.2076C52.837 60.1156 52.9107 60.0409 53.0027 59.9966C53.0876 60.1152 53.2159 60.1966 53.3614 60.2243C53.5069 60.252 53.6587 60.2238 53.7857 60.1454C54.0577 60.0253 54.3225 59.7588 54.6767 59.5649C54.0932 59.6079 53.8808 58.824 53.3316 58.8145C53.9789 57.7255 54.7058 59.2627 55.4498 58.8688C55.6589 58.2815 54.8211 58.6794 54.5643 58.4661C55.2289 58.3686 55.5614 57.671 55.8816 57.1187C56.2019 56.5663 56.5374 56.1568 57.3292 56.6289L57.1637 57.3366C57.7965 57.3839 58.0125 57.2235 57.8738 57.126C57.7723 57.2642 57.6416 57.163 57.5109 57.062C58.2637 55.5622 60.1682 56.7566 61.1735 55.5469C60.8985 55.3789 60.6698 55.4241 60.5057 55.2258C60.852 54.5593 62.0249 56.0674 62.4958 54.8602L62.1018 54.726C62.2576 54.321 62.7983 54.5491 62.8191 54.6613C61.9698 53.5611 64.6408 53.2217 64.0562 51.3136C64.9504 51.5629 66.4815 51.1108 66.5774 50.5269C66.6024 49.4793 65.5547 50.1381 65.2748 49.3746C65.702 49.0645 66.3634 49.501 66.8562 48.8631C67.2925 49.4828 66.5521 50.9675 67.9609 50.5414L67.8853 50.0892C67.7964 50.2125 67.7203 50.4515 67.4961 50.4852C66.8916 50.3507 67.3919 49.9243 67.3536 49.7078C67.8257 49.4993 68.2897 49.2943 68.7698 49.0823C69.3182 49.7178 68.4436 50.0108 68.4888 50.243C69.3635 49.4738 69.9829 47.7154 71.3114 47.7356L71.0626 47.5186C72.7 47.5237 71.1239 45.8387 72.8179 46.5566C73.2941 46.1408 72.2167 45.8883 73.0636 45.4675C73.3117 45.3579 73.2999 45.6993 73.3013 45.8107C74.5344 45.6583 73.4412 44.9366 74.7898 45.2187L74.2735 44.6345L74.4575 44.5532C75.8916 44.7041 77.6965 45.3915 78.4856 44.6881C78.1123 44.1246 77.4975 44.443 77.0104 44.0979C78.9774 44.6111 80.439 42.8543 82.0203 42.8189C81.9075 43.4944 83.2799 43.7004 82.681 44.4879C82.0479 43.8337 81.9316 44.5014 81.4376 44.6169C83.0839 45.9628 83.9841 42.437 85.0205 43.7441L84.8643 43.066C85.1103 43.0601 85.8922 43.2282 85.6334 43.5947C86.0364 43.2299 86.4281 42.8609 86.8208 42.4727C86.0492 42.3279 84.4233 41.8509 84.4755 42.6402C83.7158 42.2194 84.7999 41.946 84.0309 41.4172C85.5276 41.9047 84.3554 40.723 85.4212 40.4297C85.5083 41.4931 87.0679 41.0189 87.2783 41.4303C87.4961 41.1006 88.4309 41.0519 88.8854 41.15C89.2917 40.8601 89.6456 40.5047 89.9321 40.0992L90.2413 39.7385C90.3863 39.5905 90.5427 39.4467 90.6877 39.2986C90.9701 39.021 91.2796 38.7718 91.6116 38.5545C90.9759 38.7605 90.0817 38.9874 89.7223 38.4552C90.4234 38.3322 90.96 37.815 90.4359 37.2995C89.8263 37.4566 89.5908 37.5513 89.4917 37.7165C89.452 37.9259 89.4925 38.1411 89.6053 38.3202C89.731 38.5233 89.7831 38.7632 89.7533 39.0016C89.7023 39.2109 89.5528 39.3704 89.085 39.437C88.7717 39.2574 88.4186 39.1531 88.0542 39.1324C87.6898 39.1118 87.324 39.1753 86.9861 39.3181C87.0134 39.1176 86.9804 38.9147 86.891 38.7346C87.1149 38.5921 87.3297 38.4506 87.5354 38.31C87.9169 38.2446 88.2677 38.0567 88.5329 37.7759C88.9741 37.2125 89.5632 36.7777 90.2349 36.5199C90.6381 36.5078 91.0395 36.5608 91.423 36.6767C91.6887 36.7231 91.9641 36.6828 92.2075 36.5619C92.4508 36.4409 92.6488 36.246 92.7717 36.0065C92.7513 36.2442 92.7117 36.4803 92.6532 36.7124C92.6079 36.9559 92.5446 37.196 92.4638 37.431C92.7457 36.6622 92.8681 36.6361 93.0879 36.6791C93.3077 36.7221 93.6066 36.8141 93.9976 36.1838C93.7415 36.2969 93.4934 36.4065 93.2454 36.5161C93.3847 35.95 93.7282 35.4499 94.2113 35.1091C93.8781 35.2844 93.5331 35.4367 93.1791 35.565C93.2502 35.1414 93.3365 34.3841 93.8023 34.4212C93.673 34.308 93.5113 34.2363 93.3384 34.2153C93.4744 34.1552 93.6262 33.9575 93.5986 33.4187C93.5066 33.7301 93.5334 33.9423 93.2999 33.9334C93.4682 32.972 93.1636 32.8452 92.9725 32.8456C92.7814 32.846 92.5744 32.9187 92.4747 32.3464C92.3344 32.5485 92.106 32.2478 91.8649 31.8967C91.9935 31.877 92.1137 31.8197 92.2098 31.7323C92.306 31.6448 92.3736 31.5313 92.4038 31.4066C92.4588 31.0803 92.4515 30.7478 92.382 30.4263C92.2167 29.7056 91.8373 28.9115 91.7882 28.4756C91.4341 27.9067 91.0305 27.3695 90.5818 26.8701C90.8515 27.1992 90.2975 27.1357 89.6919 27.0203L89.7755 27.0582C89.154 26.9499 89.632 28.3354 88.3448 27.3912L87.6637 26.7583C87.7944 26.8593 87.5852 26.9703 87.4801 27.0354C87.2416 26.842 86.9805 26.7053 86.71 26.5259C86.3989 26.6892 86.0511 26.7701 85.7013 26.7608C85.3516 26.7514 85.0121 26.6522 84.7166 26.4726C84.3649 26.3164 83.9941 26.204 83.6127 26.1383C83.4632 26.0953 83.3056 26.0843 83.1503 26.1061C82.9951 26.128 82.8458 26.1822 82.7124 26.2651C83.0405 26.1202 83.6368 26.193 83.481 26.5979C83.3408 26.6497 83.1901 26.6656 83.0432 26.6438C82.8963 26.622 82.7582 26.5635 82.6421 26.4738L82.7077 26.6222C81.8614 26.4343 81.0031 26.2987 80.1378 26.2164C80.4762 26.5712 81.7792 26.4253 81.3617 26.9739C81.2212 27.5869 80.3895 27.1326 79.9697 27.1779C79.8796 26.8442 80.5627 26.3557 79.6885 26.3683C79.6477 26.5357 79.102 27.0754 79.5269 27.2146C78.5232 27.1951 77.5237 27.1029 76.5363 26.9387C76.4064 27.1642 76.8 27.1677 76.9327 27.1651L76.9394 27.0502C77.4657 27.0512 77.4126 27.8404 78.1159 27.2029C78.3541 27.742 78.1302 27.9062 77.6956 28.0047C77.2366 28.068 76.7899 28.2054 76.3738 28.4112C76.8854 28.4654 77.3948 28.5579 77.9111 28.666C77.6117 29.1604 77.2041 29.584 76.7185 29.9052C76.2329 30.2264 75.6819 30.4368 75.1064 30.521C73.9706 30.6705 72.8465 30.9049 71.7439 31.2219C72.1031 30.6711 72.7121 30.7942 72.1713 30.0246C71.383 30.0796 70.6066 30.2586 69.8716 30.5548L69.9883 30.5593C69.634 31.2294 68.4006 30.775 68.4198 31.6629C68.9115 31.9967 69.0302 30.8799 69.5243 31.7822L68.069 32.3409C68.8066 32.6687 69.5243 31.7821 70.1271 31.6746C70.487 31.4503 69.2682 31.8952 69.1258 31.1831C70.4461 30.5999 71.0811 31.0851 72.2165 31.6855C72.4502 31.8251 72.501 31.9614 72.4738 32.0948C72.1298 32.2468 71.7776 32.4023 71.4016 32.5684C70.8172 32.3289 70.1721 32.2612 69.5434 32.3733C68.9147 32.4854 68.3289 32.7727 67.8559 33.2007L67.5253 34.2058C66.5416 33.8839 66.1311 32.5432 65.0538 33.2431L65.6747 33.5664C65.5358 33.8799 65.4069 34.0209 65.2754 34.0697C65.8695 34.1808 66.4935 34.316 67.074 34.4612C66.5539 34.6909 66.0338 34.9207 65.491 35.2071C65.0471 35.1276 64.5917 35.1205 64.1429 35.1861C64.2771 35.2949 64.6314 35.1665 64.8802 35.3834C63.5986 36.3137 61.4018 35.8646 60.2116 36.2876C60.0244 36.9679 61.2982 36.1065 61.4397 36.903C60.7086 36.9365 60.4293 37.8629 59.9017 37.3396C60.5083 37.912 59.4389 38.067 59.6452 38.2093C59.4452 38.2976 59.2543 38.4285 59.0566 38.5438C58.9337 38.4576 58.7929 38.3988 58.6437 38.3712C58.4946 38.3436 58.3407 38.3481 58.1923 38.3841C58.5615 38.6786 58.254 38.8051 57.9706 38.9863C58.0832 38.9567 58.2003 38.9494 58.315 38.9649C57.5562 39.412 56.8009 39.8669 56.0525 40.3376C55.2179 40.6128 54.373 40.8648 53.5487 41.1635C53.7489 41.2912 53.902 41.4785 53.986 41.6988C53.8419 41.7624 53.722 41.8806 53.5918 41.9755C53.0649 41.7786 52.7658 41.556 52.0695 42.2744C52.0191 42.7449 52.1246 42.8104 52.3387 42.8839C51.7847 43.2967 51.2376 43.725 50.7019 44.1576C50.5452 44.2324 50.3795 44.2867 50.2091 44.3192L50.3788 44.4219C50.2475 44.5359 50.1206 44.6385 49.9973 44.749C49.8648 44.8307 49.7174 44.8854 49.5639 44.9099C49.4104 44.9344 49.2539 44.9281 49.104 44.8915L49.3603 45.3199C48.9903 45.6514 48.6363 45.9759 48.2892 46.316C48.2651 46.2613 48.2092 46.3511 48.0905 46.4503L48.2025 46.4008C48.1145 46.4397 48.0461 46.5447 47.9753 46.6227C48.0095 46.5627 48.048 46.505 48.0905 46.4503C47.3111 46.8537 46.6269 47.4172 46.0851 48.1018C46.2133 48.1836 46.37 48.2118 46.5212 48.18C46.4572 48.2083 46.4127 48.3025 46.358 48.3734C46.0911 48.6929 45.8747 49.0499 45.7164 49.4319C45.1956 49.8767 45.0848 49.496 45.0092 48.9785C44.9891 48.7407 44.9286 48.5087 44.8303 48.2919C44.7648 48.1435 44.5025 48.0911 44.1406 48.419C44.2288 48.2066 44.3466 48.0069 44.4905 47.8256C44.4738 47.8358 44.455 47.8424 44.4356 47.8446C44.4162 47.8468 44.3966 47.8447 44.3783 47.8385C44.3599 47.8322 44.3434 47.8221 44.3297 47.8086C44.316 47.7952 44.3056 47.7788 44.2992 47.7607L44.7699 46.9645C44.5345 47.1244 44.2024 47.4767 43.9169 47.6962C43.6314 47.9157 43.4212 48.0459 43.2883 47.5069C43.4905 47.0382 43.7236 46.5826 43.9865 46.1433C43.3674 46.1272 43.5468 45.5159 43.2121 45.2996C41.7467 46.5128 40.7921 48.2186 40.5401 50.0747C40.8796 49.9341 41.1638 49.127 41.4085 49.5512Z" fill="#BBDCAF"/>
</svg>
