<svg width="28" height="28" viewBox="0 0 28 28" fill="none" xmlns="http://www.w3.org/2000/svg">
<path d="M26.4445 12.9962C26.1641 12.9962 25.8949 13.1076 25.6966 13.3059C25.4983 13.5042 25.3869 13.7734 25.3869 14.0539C25.3833 17.1384 24.1566 20.0957 21.9754 22.2766C19.7941 24.4578 16.8368 25.6846 13.7526 25.6881C13.5543 25.6881 13.3588 25.6836 13.1473 25.6701C13.131 25.6692 13.1161 25.669 13.0996 25.6678C12.9022 25.6586 12.7103 25.6439 12.5252 25.6248V25.625C10.5661 25.4161 8.69272 24.7095 7.08329 23.5727H8.4642C8.84218 23.5727 9.19135 23.3711 9.38022 23.0439C9.56909 22.7167 9.56909 22.3134 9.38022 21.9862C9.19135 21.659 8.84217 21.4573 8.4642 21.4573H4.23346C4.21269 21.4573 4.19333 21.4623 4.17279 21.4635C4.1336 21.4651 4.09464 21.4692 4.05592 21.4753C4.02452 21.4807 3.9936 21.4885 3.96267 21.4968C3.92749 21.5057 3.89279 21.5164 3.85855 21.5291C3.82738 21.5409 3.79693 21.5556 3.76671 21.5704C3.73555 21.586 3.70462 21.6018 3.67511 21.6202V21.62C3.64489 21.6396 3.61561 21.6604 3.58752 21.6828C3.56958 21.6967 3.54998 21.7069 3.53275 21.7222C3.52425 21.7298 3.51835 21.739 3.51008 21.7468H3.51032C3.48435 21.7721 3.46003 21.7985 3.4369 21.8261C3.41494 21.8516 3.39228 21.8764 3.37268 21.904C3.35309 21.9317 3.33703 21.9609 3.3205 21.9902C3.30327 22.0202 3.28509 22.0499 3.27069 22.0818C3.257 22.1123 3.24732 22.1437 3.23669 22.1751C3.22442 22.2081 3.21403 22.2419 3.20529 22.2761C3.19821 22.3073 3.19467 22.3387 3.19042 22.3703V22.3701C3.18452 22.4079 3.18074 22.4459 3.17885 22.4841C3.17861 22.4945 3.17578 22.5044 3.17578 22.515V26.7458C3.17578 27.1238 3.3774 27.4729 3.70462 27.6618C4.03185 27.8507 4.43509 27.8507 4.76231 27.6618C5.08953 27.4729 5.29115 27.1237 5.29115 26.7458V24.9482C7.32342 26.5149 9.75488 27.4786 12.3087 27.7296L12.322 27.7303C12.542 27.7527 12.7675 27.7702 12.9769 27.7797C13.2333 27.7974 13.4901 27.8035 13.7527 27.8035C17.3981 27.7995 20.893 26.3494 23.4707 23.7718C26.0483 21.1942 27.4984 17.6989 27.5024 14.0538C27.5024 13.7733 27.391 13.5042 27.1926 13.3058C26.9943 13.1075 26.7252 12.9961 26.4447 12.9961L26.4445 12.9962Z" fill="url(#paint0_linear_2654_120994)"/>
<path d="M13.7498 2.4201C13.9484 2.4201 14.1441 2.42459 14.3563 2.43804C14.3724 2.43899 14.387 2.43922 14.4033 2.4404C14.6007 2.44961 14.7919 2.46401 14.9777 2.48337L14.9775 2.48314C16.9366 2.69207 18.8097 3.39867 20.4189 4.53547H19.0382C18.6602 4.53547 18.3111 4.73709 18.1222 5.06431C17.9333 5.39153 17.9333 5.79478 18.1222 6.12199C18.3111 6.44921 18.6602 6.65084 19.0382 6.65084H23.2694C23.3367 6.65037 23.4038 6.64375 23.4696 6.63053C23.4928 6.62605 23.515 6.61802 23.5379 6.61212C23.5792 6.60197 23.6203 6.58922 23.6602 6.57411C23.6856 6.56396 23.7097 6.55073 23.7345 6.53846C23.7692 6.52193 23.8032 6.50352 23.8358 6.48345C23.8611 6.4674 23.8852 6.44827 23.9092 6.42962C23.9291 6.41451 23.9503 6.40247 23.9692 6.38571C23.9775 6.37839 23.9831 6.36942 23.9912 6.3621V6.36234C24.0181 6.33613 24.0433 6.30874 24.0672 6.27994C24.0884 6.25538 24.1104 6.2313 24.1293 6.20463C24.1493 6.17629 24.1659 6.14608 24.1829 6.11633C24.1999 6.08682 24.2176 6.05778 24.2315 6.02661C24.2452 5.99616 24.2549 5.96453 24.2657 5.93289V5.93312C24.278 5.90007 24.2886 5.86607 24.2974 5.83184C24.3044 5.80138 24.3077 5.77022 24.312 5.73929C24.3179 5.70081 24.3219 5.66209 24.3236 5.62337C24.3238 5.61298 24.3266 5.60354 24.3266 5.59315V1.36241C24.3266 0.984431 24.125 0.635268 23.7978 0.446396C23.4706 0.257524 23.0673 0.257524 22.7401 0.446396C22.4129 0.635268 22.2113 0.984443 22.2113 1.36241V3.15975C20.179 1.59329 17.7475 0.629587 15.1937 0.378584H15.1887C14.9658 0.355683 14.7373 0.338212 14.5258 0.328533C14.2691 0.310826 14.0123 0.304688 13.7497 0.304688C10.1043 0.308701 6.60944 1.75879 4.03171 4.3364C1.45411 6.91425 0.00398898 10.4093 0 14.0544C0 14.4324 0.201619 14.7816 0.528843 14.9704C0.856066 15.1593 1.25931 15.1593 1.58653 14.9704C1.91375 14.7816 2.11537 14.4324 2.11537 14.0544C2.11891 10.9699 3.34561 8.01261 5.52686 5.83167C7.70811 3.65042 10.6654 2.42368 13.7496 2.42018L13.7498 2.4201Z" fill="url(#paint1_linear_2654_120994)"/>
<path d="M18.2916 9.60475L16.5466 11.3497L11.6355 16.2606L9.21034 13.8355C8.94285 13.5692 8.55403 13.4653 8.18947 13.5633C7.8249 13.6613 7.54047 13.9457 7.4425 14.3102C7.34453 14.6747 7.4484 15.0636 7.71471 15.3311L10.8878 18.5042C11.0858 18.7025 11.355 18.8139 11.6355 18.8139C11.9159 18.8139 12.1851 18.7025 12.3834 18.5042L19.7872 11.1004C20.053 10.8329 20.1564 10.4441 20.0585 10.0797C19.9607 9.7157 19.6762 9.43124 19.3119 9.3332C18.9476 9.23523 18.5588 9.33863 18.2915 9.60471L18.2916 9.60475Z" fill="url(#paint2_linear_2654_120994)"/>
<defs>
<linearGradient id="paint0_linear_2654_120994" x1="-0.610048" y1="10.6923" x2="28.6018" y2="25.6493" gradientUnits="userSpaceOnUse">
<stop offset="0.0312411" stop-color="#73BC78"/>
<stop offset="1" stop-color="#438A62"/>
</linearGradient>
<linearGradient id="paint1_linear_2654_120994" x1="-3.78583" y1="-1.99907" x2="25.426" y2="12.9579" gradientUnits="userSpaceOnUse">
<stop offset="0.0312411" stop-color="#73BC78"/>
<stop offset="1" stop-color="#438A62"/>
</linearGradient>
<linearGradient id="paint2_linear_2654_120994" x1="5.4316" y1="7.8162" x2="21.8312" y2="14.6305" gradientUnits="userSpaceOnUse">
<stop offset="0.0312411" stop-color="#73BC78"/>
<stop offset="1" stop-color="#438A62"/>
</linearGradient>
</defs>
</svg>
