<svg width="26" height="30" viewBox="0 0 26 30" fill="none" xmlns="http://www.w3.org/2000/svg">
<path fill-rule="evenodd" clip-rule="evenodd" d="M6.66667 15.2664C6.66667 14.7141 7.11438 14.2664 7.66667 14.2664H17C17.5523 14.2664 18 14.7141 18 15.2664C18 15.8187 17.5523 16.2664 17 16.2664H7.66667C7.11438 16.2664 6.66667 15.8187 6.66667 15.2664Z" fill="white"/>
<path fill-rule="evenodd" clip-rule="evenodd" d="M6.66667 20.5997C6.66667 20.0475 7.11438 19.5997 7.66667 19.5997H13.5067C14.059 19.5997 14.5067 20.0475 14.5067 20.5997C14.5067 21.152 14.059 21.5997 13.5067 21.5997H7.66667C7.11438 21.5997 6.66667 21.152 6.66667 20.5997Z" fill="white"/>
<path fill-rule="evenodd" clip-rule="evenodd" d="M10.2384 0.666218C10.2712 0.666312 10.3028 0.666401 10.3333 0.666401H15.6667C15.6972 0.666401 15.7288 0.666312 15.7616 0.666218C16.3522 0.664541 17.296 0.661859 18.0547 1.16768C18.9671 1.77596 19.3333 2.86767 19.3333 4.33307C19.3333 4.36356 19.3334 4.39522 19.3335 4.42798C19.3352 5.01862 19.3379 5.96236 18.8321 6.7211C18.2238 7.63351 17.1321 7.99974 15.6667 7.99974H10.3333C10.3028 7.99974 10.2712 7.99982 10.2384 7.99992C9.64779 8.0016 8.70404 8.00428 7.9453 7.49845C7.03289 6.89018 6.66667 5.79847 6.66667 4.33307C6.66667 2.86767 7.03289 1.77596 7.9453 1.16768C8.70404 0.661859 9.64779 0.664541 10.2384 0.666218ZM9.0547 2.83179C8.96711 2.89018 8.66667 3.1318 8.66667 4.33307C8.66667 5.53434 8.96711 5.77596 9.0547 5.83435C9.25389 5.96714 9.58031 5.99974 10.3333 5.99974H15.6667C16.8679 5.99974 17.1096 5.69929 17.168 5.6117C17.3007 5.41251 17.3333 5.08609 17.3333 4.33307C17.3333 3.1318 17.0329 2.89018 16.9453 2.83179C16.7461 2.69899 16.4197 2.6664 15.6667 2.6664H10.3333C9.58031 2.6664 9.25389 2.69899 9.0547 2.83179Z" fill="white"/>
<path fill-rule="evenodd" clip-rule="evenodd" d="M8.66521 4.30576C8.69502 4.85724 8.27212 5.32847 7.72064 5.35828C5.57912 5.47403 4.24444 5.92401 3.40286 6.83498C2.55013 7.75803 2 9.37412 2 12.3331V20.3331C2 22.9821 2.34843 24.6413 3.25258 25.6746C4.12782 26.6748 5.75289 27.3331 9 27.3331H17C20.2471 27.3331 21.8722 26.6748 22.7474 25.6746C23.6516 24.6413 24 22.9821 24 20.3331V12.3331C24 9.36678 23.4496 7.75146 22.5976 6.83048C21.7566 5.92138 20.4225 5.47412 18.2794 5.35828C17.7279 5.32847 17.305 4.85724 17.3348 4.30576C17.3646 3.75428 17.8358 3.33138 18.3873 3.36119C20.6841 3.48535 22.6834 3.97809 24.0657 5.47232C25.4371 6.95468 26 9.20602 26 12.3331V20.3331C26 23.0174 25.6818 25.3582 24.2526 26.9916C22.7945 28.658 20.4196 29.3331 17 29.3331H9C5.58044 29.3331 3.20551 28.658 1.74742 26.9916C0.318239 25.3582 0 23.0174 0 20.3331V12.3331C0 9.21202 0.563204 6.96144 1.9338 5.47783C3.31556 3.98213 5.31421 3.48543 7.61269 3.36119C8.16417 3.33138 8.6354 3.75428 8.66521 4.30576Z" fill="white"/>
</svg>
