<svg width="30" height="30" viewBox="0 0 30 30" fill="none" xmlns="http://www.w3.org/2000/svg">
<path fill-rule="evenodd" clip-rule="evenodd" d="M10.6914 13.1902C11.8157 13.5737 12.5688 14.808 12.3306 15.9936L11.9851 18.1738H14.7733C15.6177 18.1738 16.3966 18.5193 16.8794 19.173C17.3645 19.8299 17.4604 20.677 17.1725 21.4855L15.3606 27.0006C14.9933 28.3985 13.576 29.3204 12.2667 29.3204H9.37332C9.04815 29.3204 8.67041 29.2711 8.31595 29.1715C8.00357 29.0836 7.59248 28.9247 7.26814 28.6272L4.94791 26.8313L6.17207 25.2497L8.58224 27.1152L8.61719 27.1501C8.62261 27.1537 8.63509 27.1615 8.65671 27.1723C8.70304 27.1953 8.77039 27.2217 8.85737 27.2461C9.03623 27.2964 9.23182 27.3204 9.37332 27.3204H12.2667C12.7846 27.3204 13.3257 26.9005 13.429 26.4813L13.4381 26.4444L15.2813 20.8339L15.2865 20.8197C15.3784 20.5662 15.319 20.4268 15.2706 20.3612C15.2167 20.2883 15.0757 20.1738 14.7733 20.1738H11.72C10.6743 20.1738 9.79757 19.2619 9.97106 18.1054L9.97228 18.0972L10.3633 15.6299L10.3691 15.6029C10.4036 15.4432 10.2612 15.1549 10.0438 15.0824L10.0285 15.0773L10.0133 15.0718C9.96807 15.055 9.86734 15.0439 9.73053 15.091C9.66691 15.1129 9.61121 15.1426 9.56868 15.1731C9.54794 15.188 9.53264 15.2014 9.52219 15.2118C9.51324 15.2208 9.50913 15.2263 9.50837 15.2273C9.50831 15.2274 9.50839 15.2273 9.50837 15.2273L6.39057 19.8773L4.72941 18.7635L7.8517 14.1068C8.14996 13.6659 8.61313 13.3605 9.07945 13.1999C9.54839 13.0385 10.1281 12.9867 10.6914 13.1902Z" fill="white"/>
<path fill-rule="evenodd" clip-rule="evenodd" d="M2.71492 18.1785C2.69853 18.218 2.66666 18.3281 2.66666 18.5739V26.0405C2.66666 26.2841 2.697 26.3961 2.71346 26.4381C2.7556 26.455 2.88422 26.4938 3.18666 26.4938H3.94666C4.25223 26.4938 4.37895 26.4527 4.41843 26.4358C4.43482 26.3962 4.46665 26.2861 4.46665 26.0405V18.5739C4.46665 18.3281 4.43478 18.218 4.41839 18.1785C4.37895 18.1616 4.25226 18.1204 3.94666 18.1204H3.18666C2.88105 18.1204 2.75436 18.1616 2.71492 18.1785ZM1.34464 16.7158C1.87311 16.223 2.57391 16.1204 3.18666 16.1204H3.94666C4.5594 16.1204 5.2602 16.223 5.78867 16.7158C6.33417 17.2245 6.46665 17.9297 6.46665 18.5739V26.0405C6.46665 26.6847 6.33418 27.3899 5.7886 27.8986C5.26012 28.3913 4.55932 28.4938 3.94666 28.4938H3.18666C2.5811 28.4938 1.87817 28.3974 1.34736 27.906C0.797472 27.397 0.666656 26.6876 0.666656 26.0405V18.5739C0.666656 17.9297 0.799138 17.2245 1.34464 16.7158Z" fill="white"/>
<path fill-rule="evenodd" clip-rule="evenodd" d="M14.6405 2.9995C15.0077 1.6016 16.425 0.679688 17.7344 0.679688H20.6277C20.9529 0.679688 21.3306 0.728991 21.6851 0.82867C21.9975 0.916514 22.4086 1.07547 22.7329 1.37297L25.0531 3.16884L23.829 4.75043L21.4188 2.88494L21.3839 2.84999C21.3784 2.84642 21.366 2.83863 21.3443 2.82787C21.298 2.80478 21.2307 2.77845 21.1437 2.75399C20.9648 2.70369 20.7692 2.67969 20.6277 2.67969H17.7344C17.2165 2.67969 16.6753 3.09964 16.572 3.51885L16.5629 3.55569L14.7197 9.16622L14.7145 9.18048C14.6227 9.43393 14.682 9.57335 14.7305 9.63893C14.7843 9.71185 14.9254 9.82633 15.2277 9.82633H18.2811C19.3268 9.82633 20.2035 10.7382 20.03 11.8948L20.0288 11.9029L19.6377 14.3702L19.6319 14.3972C19.5975 14.5569 19.7399 14.8452 19.9573 14.9177L19.9726 14.9228L19.9877 14.9284C20.033 14.9451 20.1337 14.9563 20.2705 14.9092C20.3341 14.8873 20.3898 14.8576 20.4324 14.827C20.4531 14.8122 20.4684 14.7987 20.4789 14.7883C20.4878 14.7793 20.4919 14.7739 20.4927 14.7728C20.4928 14.7726 20.4927 14.7727 20.4927 14.7728L23.6105 10.1228L25.2716 11.2366L22.1516 15.8899L22.1493 15.8933C21.8511 16.3342 21.3879 16.6397 20.9216 16.8002C20.4527 16.9617 19.873 17.0134 19.3097 16.8099C18.1853 16.4264 17.4323 15.1921 17.6704 14.0066L18.0159 11.8263H15.2277C14.3834 11.8263 13.6045 11.4808 13.1217 10.8271C12.6366 10.1703 12.5407 9.32311 12.8286 8.51463L14.6405 2.9995Z" fill="white"/>
<path fill-rule="evenodd" clip-rule="evenodd" d="M25.5826 3.5644C25.5662 3.60396 25.5344 3.71404 25.5344 3.95964V11.4263C25.5344 11.672 25.5663 11.7821 25.5827 11.8216C25.6221 11.8385 25.7488 11.8797 26.0544 11.8797H26.8144C27.12 11.8797 27.2467 11.8385 27.2861 11.8216C27.3025 11.7821 27.3344 11.672 27.3344 11.4263V3.95964C27.3344 3.71609 27.3041 3.60411 27.2876 3.56206C27.2454 3.54515 27.1168 3.50635 26.8144 3.50635H26.0544C25.7488 3.50635 25.6221 3.54749 25.5826 3.5644ZM24.2124 2.10159C24.7409 1.60884 25.4417 1.50635 26.0544 1.50635H26.8144C27.4199 1.50635 28.1229 1.6028 28.6537 2.09412C29.2036 2.60312 29.3344 3.31252 29.3344 3.95964V11.4263C29.3344 12.0705 29.2019 12.7756 28.6564 13.2843C28.1279 13.7772 27.4271 13.8797 26.8144 13.8797H26.0544C25.4416 13.8797 24.7408 13.7772 24.2124 13.2843C23.6669 12.7756 23.5344 12.0705 23.5344 11.4263V3.95964C23.5344 3.31542 23.6669 2.61028 24.2124 2.10159Z" fill="white"/>
</svg>
