<svg width="30" height="30" viewBox="0 0 30 30" fill="none" xmlns="http://www.w3.org/2000/svg">
<path fill-rule="evenodd" clip-rule="evenodd" d="M3.08621 3.12558C4.8655 1.34628 7.52802 0.666016 10.96 0.666016H18.96C22.3919 0.666016 25.0545 1.34628 26.8338 3.12558C28.613 4.90487 29.2933 7.56739 29.2933 10.9993V18.9993C29.2933 22.4313 28.613 25.0938 26.8338 26.8731C25.0545 28.6524 22.3919 29.3327 18.96 29.3327H10.96C7.52802 29.3327 4.8655 28.6524 3.08621 26.8731C1.30692 25.0938 0.626648 22.4313 0.626648 18.9993V10.9993C0.626648 7.56739 1.30692 4.90487 3.08621 3.12558ZM4.50042 4.53979C3.27971 5.7605 2.62665 7.76465 2.62665 10.9993V18.9993C2.62665 22.2341 3.27971 24.2382 4.50042 25.4589C5.72113 26.6796 7.72528 27.3327 10.96 27.3327H18.96C22.1947 27.3327 24.1988 26.6796 25.4195 25.4589C26.6402 24.2382 27.2933 22.2341 27.2933 18.9993V10.9993C27.2933 7.76465 26.6402 5.7605 25.4195 4.53979C24.1988 3.31908 22.1947 2.66602 18.96 2.66602H10.96C7.72528 2.66602 5.72113 3.31908 4.50042 4.53979Z" fill="white"/>
<path d="M19.6481 16.7178L18.599 14.7307L15.8103 21.806L15.8085 21.8107C15.6926 22.1005 15.5325 22.3909 15.3054 22.6242C15.0739 22.8622 14.7193 23.0894 14.26 23.0894C13.8006 23.0894 13.4461 22.8622 13.2145 22.6242C12.9875 22.3909 12.8274 22.1005 12.7115 21.8107L12.7102 21.8074L11.1915 17.9707L11.191 17.9694C11.0929 17.7251 10.8689 17.4489 10.5466 17.23C10.224 17.011 9.88687 16.9064 9.62805 16.906L9.62665 16.906L1.62998 16.9327C1.0777 16.9345 0.628495 16.4883 0.626654 15.936C0.624813 15.3837 1.07103 14.9345 1.62331 14.9327L9.62665 14.906C10.3676 14.906 11.0899 15.1814 11.67 15.5754C12.2505 15.9694 12.773 16.5393 13.0485 17.228L13.0498 17.2313L14.2593 20.287L17.0027 13.3266C17.1953 12.8367 17.6357 12.1593 18.457 12.1158C19.2754 12.0724 19.7862 12.6958 20.031 13.1592L21.4186 15.7876C21.5203 15.9811 21.7412 16.2156 22.0548 16.4047C22.3686 16.5939 22.6782 16.6793 22.8933 16.6793H28.3066C28.8589 16.6793 29.3066 17.1271 29.3066 17.6793C29.3066 18.2316 28.8589 18.6793 28.3066 18.6793H22.8933C22.2284 18.6793 21.5647 18.4447 21.0219 18.1173C20.479 17.7899 19.9598 17.3105 19.6481 16.7178Z" fill="white"/>
</svg>
