<svg width="30" height="28" viewBox="0 0 30 28" fill="none" xmlns="http://www.w3.org/2000/svg">
<path fill-rule="evenodd" clip-rule="evenodd" d="M15 11.0002C13.3431 11.0002 12 12.3433 12 14.0002C12 15.657 13.3431 17.0002 15 17.0002C16.6569 17.0002 18 15.657 18 14.0002C18 12.3433 16.6569 11.0002 15 11.0002ZM10 14.0002C10 11.2388 12.2386 9.00018 15 9.00018C17.7614 9.00018 20 11.2388 20 14.0002C20 16.7616 17.7614 19.0002 15 19.0002C12.2386 19.0002 10 16.7616 10 14.0002Z" fill="white"/>
<path fill-rule="evenodd" clip-rule="evenodd" d="M11.8046 3.02707C11.4477 2.43247 10.6961 2.24751 10.138 2.57958L10.1234 2.58824L7.81668 3.90811C7.08685 4.32516 6.83506 5.27069 7.25253 5.99323L6.38667 6.49351L7.25184 5.99204C7.96526 7.22288 8.15705 8.57193 7.51976 9.67781C6.88257 10.7835 5.61972 11.2935 4.2 11.2935C3.3557 11.2935 2.66667 11.989 2.66667 12.8268V15.1735C2.66667 16.0113 3.35571 16.7068 4.2 16.7068C5.61972 16.7068 6.88257 17.2168 7.51976 18.3225C8.15697 19.4283 7.96531 20.7771 7.25212 22.0078C6.83523 22.7303 7.08655 23.675 7.81614 24.0919L10.138 25.4206C10.6962 25.7527 11.4477 25.5679 11.8046 24.9733L11.9479 24.7258C12.6611 23.4954 13.7361 22.6568 15.0117 22.6568C16.2883 22.6568 17.3599 23.496 18.0666 24.7278L18.0676 24.7295L18.2087 24.9733C18.5656 25.5679 19.3172 25.7528 19.8754 25.4208L19.8899 25.4121L22.1967 24.0922C22.9246 23.6763 23.1802 22.7439 22.7597 22.0052C22.0478 20.7752 21.8568 19.4275 22.4936 18.3225C23.1308 17.2168 24.3936 16.7068 25.8133 16.7068C26.6576 16.7068 27.3467 16.0113 27.3467 15.1735V12.8268C27.3467 11.9825 26.6511 11.2935 25.8133 11.2935C24.3936 11.2935 23.1308 10.7835 22.4936 9.67781C21.8564 8.57214 22.048 7.22341 22.7611 5.99276C23.1782 5.27027 22.9269 4.32537 22.1972 3.90842L19.8753 2.57971C19.3171 2.24763 18.5656 2.43248 18.2087 3.02708L18.0654 3.27455C17.3523 4.50496 16.2773 5.34351 15.0017 5.34351C13.7252 5.34351 12.6536 4.5045 11.9469 3.27289L11.9458 3.27084L11.8046 3.02707ZM9.12331 0.856063C10.6692 -0.0577549 12.6301 0.502879 13.5261 2.00888L13.5322 2.01911L13.6788 2.27248L13.6809 2.27618C14.1742 3.13679 14.6888 3.34351 15.0017 3.34351C15.316 3.34351 15.8345 3.13503 16.3346 2.27247V2.27247L16.4872 2.00885C17.3832 0.502836 19.3441 -0.0577598 20.89 0.856076L23.1895 2.17193C24.8863 3.14156 25.4617 5.31633 24.4925 6.99379L24.4918 6.99498C23.9919 7.85747 24.0704 8.40843 24.2264 8.67921C24.3826 8.95015 24.8197 9.29351 25.8133 9.29351C27.7489 9.29351 29.3467 10.8711 29.3467 12.8268V15.1735C29.3467 17.109 27.769 18.7068 25.8133 18.7068C24.8197 18.7068 24.3826 19.0502 24.2264 19.3211C24.0704 19.5919 23.9919 20.1429 24.4918 21.0054L24.4949 21.0107C25.4592 22.6982 24.8876 24.8577 23.19 25.8281V25.8281L20.8899 27.1443C19.344 28.0581 17.3832 27.4974 16.4873 25.9915L16.4812 25.9813L16.3346 25.7279L16.3324 25.7242C15.8391 24.8636 15.3245 24.6568 15.0117 24.6568C14.6973 24.6568 14.1789 24.8653 13.6788 25.7279V25.7279L13.5261 25.9915C12.6302 27.4975 10.6693 28.0581 9.12343 27.1444L6.82386 25.8284V25.8284C5.12744 24.8586 4.55171 22.6838 5.5208 21.0066L5.52149 21.0054C6.02141 20.1429 5.94295 19.5919 5.7869 19.3211C5.63077 19.0502 5.19362 18.7068 4.2 18.7068C2.2443 18.7068 0.666668 17.109 0.666668 15.1735V12.8268C0.666668 10.8913 2.2443 9.29351 4.2 9.29351C5.19362 9.29351 5.63077 8.95015 5.7869 8.67921C5.94295 8.40843 6.02141 7.85747 5.52149 6.99498L5.5208 6.99379C4.55171 5.31651 5.1269 3.14202 6.82332 2.17224L9.12331 0.856063Z" fill="white"/>
</svg>
