<svg width="748" height="615" viewBox="0 0 748 615" fill="none" xmlns="http://www.w3.org/2000/svg">
<path d="M194.127 285.005C187.318 285.005 180.509 282.355 175.387 277.091C165.322 266.741 165.548 250.187 175.898 240.122L208 205.5C210.282 203.277 232 185.5 244.5 180L334.015 143.334C347.265 137.607 362.654 143.715 368.381 156.964C374.109 170.214 368.001 185.603 354.751 191.33L258.106 233.076L212.367 277.578C207.281 282.545 200.698 285.005 194.127 285.005Z" fill="#84CAF4"/>
<path d="M429.138 590.473C429.138 590.473 417.445 590.866 383.554 571.769C361.76 559.494 351.137 543.25 346.312 533.209L342.747 523.964L256.535 300.358C249.453 281.987 228.824 272.837 210.452 279.919C192.081 287.002 182.931 307.631 190.013 326.002L288.643 581.823C289.166 583.189 289.796 584.484 290.461 585.744L302.131 615L429.138 590.473Z" fill="#FADD6F"/>
<path opacity="0.27" d="M278.399 428.205C278.399 428.205 285.146 392.673 286.608 378.27L256.555 300.358C249.472 281.987 228.843 272.837 210.472 279.919C192.1 287.002 182.95 307.631 190.033 326.002L256.555 497.292C265.403 487.715 278.399 428.205 278.399 428.205Z" fill="#E0704A"/>
<path d="M536.524 202.001H369.34V75.9922H536.524V202.001ZM371.716 199.624H534.147V78.3688H371.716V199.624Z" fill="white"/>
<path d="M726.867 202.001H559.684V75.9922H726.867V202.001ZM562.06 199.624H724.491V78.3688H562.06V199.624Z" fill="white"/>
<path d="M726.867 351.122H559.684V225.113H726.867V351.122ZM562.06 348.745H724.491V227.49H562.06V348.745Z" fill="white"/>
<path d="M302.147 361.983L174.427 300.738C164.409 295.937 160.179 283.911 164.98 273.894L174.7 253.621C183.482 235.321 205.43 227.597 223.73 236.379L336.453 290.435C346.471 295.236 350.701 307.261 345.901 317.279L328.991 352.548C324.178 362.566 312.164 366.796 302.147 361.983Z" fill="white"/>
<path d="M344.424 393.046C358.743 364.55 361.143 331.539 351.102 301.272C341.061 271.006 319.41 245.956 290.89 231.637C262.371 217.318 229.348 214.906 199.057 224.935C168.767 234.964 143.718 256.592 129.398 285.087L344.424 393.046ZM317.532 347.319L318.637 347.89C319.077 348.104 319.481 348.413 319.802 348.781C320.123 349.149 320.372 349.589 320.539 350.053C320.693 350.528 320.765 351.015 320.729 351.514C320.693 352.001 320.563 352.489 320.337 352.928L317.52 358.24C317.069 359.119 316.273 359.785 315.334 360.094C314.395 360.403 313.361 360.32 312.482 359.868L311.377 359.298C310.497 358.846 309.832 358.062 309.523 357.111C309.214 356.172 309.297 355.139 309.749 354.259L312.494 348.888C312.957 348.009 313.742 347.355 314.692 347.058C315.631 346.761 316.653 346.856 317.532 347.319ZM317.461 317.303L318.566 317.873C319.006 318.087 319.41 318.396 319.731 318.764C320.052 319.133 320.301 319.572 320.467 320.036C320.622 320.511 320.693 320.998 320.646 321.497C320.61 321.985 320.479 322.472 320.254 322.911L317.52 328.283C317.307 328.722 316.998 329.126 316.629 329.447C316.261 329.768 315.821 330.018 315.358 330.184C314.882 330.338 314.395 330.41 313.896 330.374C313.397 330.338 312.922 330.208 312.482 329.982L311.389 329.423C310.949 329.21 310.545 328.901 310.224 328.52C309.903 328.152 309.654 327.712 309.487 327.249C309.333 326.774 309.262 326.286 309.297 325.787C309.333 325.288 309.464 324.813 309.689 324.361L312.434 318.99C312.648 318.55 312.957 318.158 313.326 317.826C313.694 317.505 314.122 317.255 314.597 317.101C315.061 316.946 315.56 316.875 316.047 316.911C316.534 316.946 317.009 317.077 317.461 317.303ZM310.949 294.784L313.694 289.401C314.146 288.522 314.93 287.856 315.881 287.547C316.831 287.238 317.853 287.322 318.733 287.773L319.826 288.332C320.265 288.545 320.669 288.854 320.99 289.223C321.311 289.591 321.561 290.031 321.727 290.494C321.882 290.958 321.953 291.457 321.917 291.956C321.882 292.443 321.751 292.93 321.525 293.37L318.768 298.741C318.317 299.621 317.532 300.286 316.594 300.595C315.655 300.904 314.633 300.821 313.742 300.369L312.636 299.799C312.197 299.585 311.793 299.276 311.472 298.908C311.151 298.539 310.902 298.1 310.747 297.636C310.593 297.173 310.533 296.674 310.569 296.174C310.593 295.699 310.723 295.224 310.949 294.784ZM294.515 335.555L295.608 336.114C296.048 336.339 296.452 336.637 296.772 337.005C297.093 337.373 297.343 337.813 297.509 338.288C297.664 338.752 297.735 339.251 297.699 339.75C297.664 340.249 297.533 340.724 297.307 341.164L294.562 346.535C294.111 347.415 293.326 348.08 292.388 348.389C291.449 348.698 290.415 348.615 289.536 348.163L288.419 347.605C287.539 347.141 286.874 346.369 286.565 345.418C286.256 344.479 286.339 343.446 286.791 342.566L289.536 337.183C289.987 336.328 290.748 335.674 291.675 335.365C292.59 335.056 293.6 335.115 294.479 335.531L294.515 335.555ZM294.432 305.55L295.537 306.121C295.976 306.335 296.38 306.643 296.701 307.012C297.022 307.38 297.272 307.82 297.438 308.283C297.604 308.747 297.664 309.246 297.628 309.745C297.592 310.232 297.462 310.719 297.236 311.159L294.491 316.542C294.039 317.422 293.243 318.087 292.304 318.396C291.366 318.705 290.332 318.622 289.452 318.17L288.347 317.6C287.468 317.148 286.803 316.364 286.494 315.425C286.185 314.486 286.268 313.464 286.719 312.573L289.476 307.202C289.916 306.323 290.688 305.657 291.615 305.348C292.542 305.027 293.564 305.099 294.443 305.515L294.432 305.55ZM287.908 283.055L290.653 277.684C290.867 277.245 291.176 276.841 291.544 276.52C291.912 276.199 292.352 275.949 292.815 275.795C293.279 275.64 293.778 275.569 294.277 275.605C294.764 275.64 295.251 275.771 295.691 275.997L296.796 276.567C297.236 276.781 297.64 277.09 297.961 277.459C298.282 277.827 298.531 278.267 298.698 278.742C298.852 279.217 298.923 279.704 298.888 280.204C298.852 280.703 298.721 281.178 298.496 281.629L295.762 287.001C295.549 287.452 295.24 287.844 294.871 288.165C294.503 288.498 294.063 288.736 293.588 288.902C293.112 289.056 292.625 289.116 292.126 289.08C291.627 289.045 291.152 288.914 290.712 288.688L289.607 288.118C289.167 287.904 288.763 287.595 288.442 287.226C288.122 286.858 287.872 286.418 287.706 285.943C287.551 285.48 287.48 284.981 287.516 284.481C287.551 283.982 287.682 283.495 287.908 283.055ZM271.461 323.85L272.567 324.421C273.006 324.635 273.41 324.944 273.731 325.312C274.052 325.68 274.301 326.12 274.468 326.583C274.634 327.047 274.694 327.546 274.658 328.033C274.622 328.532 274.492 329.008 274.266 329.447L271.521 334.83C271.307 335.282 270.998 335.674 270.63 335.995C270.261 336.328 269.822 336.565 269.346 336.732C268.871 336.886 268.384 336.945 267.885 336.91C267.385 336.874 266.91 336.743 266.47 336.518L265.377 335.959C264.938 335.745 264.534 335.436 264.213 335.068C263.892 334.7 263.642 334.26 263.476 333.796C263.321 333.333 263.25 332.834 263.286 332.347C263.321 331.848 263.452 331.372 263.678 330.933L266.435 325.561C266.649 325.11 266.946 324.718 267.326 324.385C267.694 324.052 268.122 323.803 268.598 323.636C269.061 323.47 269.56 323.411 270.059 323.434C270.558 323.47 271.034 323.589 271.485 323.815L271.461 323.85ZM271.402 293.833L272.495 294.392C272.935 294.618 273.339 294.915 273.66 295.283C273.981 295.652 274.23 296.091 274.397 296.567C274.551 297.042 274.622 297.529 274.587 298.028C274.551 298.527 274.42 299.003 274.195 299.454L271.449 304.813C271.236 305.253 270.927 305.657 270.558 305.978C270.19 306.299 269.75 306.548 269.287 306.715C268.823 306.869 268.324 306.929 267.825 306.905C267.338 306.869 266.851 306.739 266.411 306.513L265.306 305.942C264.427 305.491 263.749 304.707 263.452 303.756C263.143 302.805 263.226 301.783 263.678 300.904L266.411 295.533C266.839 294.642 267.611 293.964 268.538 293.631C269.465 293.299 270.499 293.358 271.39 293.786L271.402 293.833ZM264.878 271.315L267.623 265.932C268.075 265.052 268.859 264.387 269.81 264.078C270.76 263.769 271.782 263.852 272.662 264.304L273.779 264.874C274.218 265.088 274.622 265.397 274.943 265.765C275.264 266.134 275.514 266.574 275.668 267.037C275.822 267.5 275.894 268 275.858 268.487C275.822 268.974 275.692 269.461 275.466 269.901L272.709 275.284C272.495 275.724 272.186 276.128 271.818 276.448C271.45 276.769 271.01 277.019 270.546 277.173C270.083 277.328 269.584 277.399 269.097 277.363C268.598 277.328 268.122 277.197 267.683 276.971L266.577 276.401C266.126 276.187 265.722 275.866 265.389 275.486C265.056 275.106 264.807 274.654 264.652 274.179C264.498 273.692 264.438 273.192 264.486 272.681C264.534 272.182 264.676 271.683 264.914 271.244L264.878 271.315ZM248.444 312.086L249.561 312.656C250 312.87 250.404 313.179 250.725 313.548C251.058 313.916 251.296 314.356 251.462 314.819C251.617 315.294 251.676 315.782 251.652 316.281C251.617 316.768 251.486 317.255 251.26 317.695L248.515 323.066C248.301 323.506 247.992 323.91 247.624 324.231C247.255 324.551 246.816 324.801 246.352 324.955C245.877 325.11 245.39 325.181 244.891 325.146C244.403 325.11 243.916 324.979 243.477 324.765L242.371 324.195C241.932 323.981 241.528 323.672 241.207 323.304C240.874 322.923 240.637 322.496 240.47 322.02C240.316 321.545 240.244 321.058 240.28 320.559C240.316 320.06 240.446 319.584 240.672 319.145L243.405 313.773C243.619 313.322 243.928 312.93 244.297 312.597C244.665 312.264 245.105 312.015 245.568 311.848C246.031 311.682 246.542 311.623 247.03 311.658C247.529 311.694 248.016 311.825 248.456 312.038L248.444 312.086ZM248.361 282.081L249.478 282.651C249.917 282.865 250.321 283.174 250.642 283.543C250.963 283.911 251.213 284.351 251.367 284.814C251.521 285.278 251.593 285.777 251.557 286.264C251.521 286.751 251.391 287.238 251.165 287.678L248.42 293.061C248.206 293.501 247.897 293.905 247.517 294.226C247.148 294.546 246.709 294.796 246.233 294.962C245.77 295.117 245.271 295.188 244.772 295.152C244.273 295.117 243.797 294.986 243.346 294.76L242.253 294.202C241.813 293.988 241.409 293.679 241.088 293.311C240.767 292.942 240.506 292.503 240.351 292.039C240.197 291.576 240.126 291.077 240.161 290.577C240.197 290.09 240.328 289.603 240.553 289.163L243.31 283.792C243.524 283.341 243.833 282.949 244.201 282.616C244.57 282.283 245.01 282.034 245.473 281.867C245.936 281.701 246.435 281.641 246.935 281.665C247.434 281.701 247.909 281.82 248.361 282.045V282.081ZM241.849 259.551L244.594 254.179C245.045 253.3 245.829 252.635 246.768 252.326C247.707 252.017 248.741 252.1 249.62 252.551L250.737 253.11C251.177 253.324 251.581 253.633 251.902 254.013C252.234 254.381 252.472 254.821 252.638 255.285C252.793 255.76 252.864 256.247 252.829 256.746C252.793 257.245 252.662 257.721 252.436 258.16L249.691 263.543C249.24 264.423 248.456 265.088 247.505 265.397C246.554 265.706 245.532 265.623 244.653 265.171L243.56 264.613C243.108 264.399 242.704 264.09 242.371 263.71C242.039 263.329 241.789 262.89 241.635 262.426C241.48 261.951 241.409 261.452 241.456 260.953C241.492 260.454 241.635 259.967 241.86 259.527L241.849 259.551ZM225.426 300.345L226.519 300.904C226.959 301.118 227.363 301.427 227.684 301.795C228.017 302.164 228.266 302.603 228.421 303.067C228.575 303.53 228.646 304.029 228.611 304.528C228.575 305.027 228.444 305.503 228.219 305.942L225.486 311.325C225.034 312.205 224.25 312.87 223.299 313.179C222.348 313.488 221.326 313.405 220.447 312.953L219.354 312.395C218.914 312.181 218.51 311.884 218.177 311.504C217.845 311.135 217.595 310.696 217.441 310.232C217.286 309.769 217.215 309.27 217.251 308.771C217.286 308.283 217.417 307.796 217.643 307.356L220.388 301.973C220.613 301.534 220.911 301.142 221.291 300.821C221.659 300.5 222.099 300.25 222.562 300.096C223.038 299.941 223.525 299.882 224.024 299.918C224.511 299.953 224.998 300.084 225.438 300.31L225.426 300.345ZM225.343 270.341L226.46 270.899C226.9 271.125 227.304 271.422 227.624 271.802C227.945 272.171 228.195 272.61 228.361 273.086C228.516 273.561 228.587 274.048 228.551 274.547C228.516 275.034 228.385 275.522 228.159 275.961L225.402 281.332C224.951 282.212 224.166 282.877 223.228 283.186C222.289 283.495 221.267 283.412 220.376 282.96L219.271 282.39C218.819 282.164 218.427 281.867 218.106 281.499C217.773 281.119 217.536 280.691 217.369 280.215C217.215 279.752 217.144 279.253 217.179 278.754C217.215 278.267 217.346 277.779 217.571 277.34L220.304 271.968C220.518 271.529 220.827 271.125 221.208 270.804C221.576 270.483 222.016 270.234 222.491 270.079C222.966 269.925 223.454 269.865 223.953 269.901C224.44 269.936 224.927 270.079 225.367 270.293L225.343 270.341ZM218.831 247.798L221.588 242.427C221.802 241.987 222.111 241.583 222.479 241.262C222.847 240.942 223.287 240.692 223.751 240.526C224.214 240.371 224.713 240.312 225.2 240.336C225.699 240.371 226.175 240.502 226.614 240.728L227.72 241.298C228.171 241.512 228.563 241.821 228.884 242.189C229.205 242.558 229.454 242.997 229.621 243.473C229.775 243.936 229.847 244.435 229.811 244.934C229.775 245.433 229.645 245.909 229.419 246.348L226.662 251.72C226.21 252.599 225.426 253.264 224.487 253.573C223.549 253.882 222.515 253.799 221.635 253.348L220.518 252.789C219.627 252.349 218.95 251.565 218.629 250.626C218.308 249.688 218.379 248.654 218.819 247.763L218.831 247.798ZM202.385 288.581L203.49 289.152C204.369 289.603 205.047 290.387 205.344 291.338C205.653 292.289 205.569 293.311 205.118 294.19L202.385 299.561C202.171 300.001 201.862 300.405 201.482 300.726C201.113 301.047 200.674 301.296 200.198 301.462C199.735 301.617 199.236 301.676 198.737 301.653C198.249 301.617 197.762 301.486 197.322 301.26L196.205 300.69C195.766 300.476 195.362 300.167 195.041 299.799C194.72 299.43 194.471 298.991 194.304 298.527C194.15 298.052 194.078 297.565 194.114 297.066C194.15 296.567 194.28 296.091 194.506 295.64L197.251 290.28C197.465 289.817 197.774 289.413 198.154 289.08C198.535 288.736 198.974 288.486 199.461 288.332C199.937 288.165 200.448 288.106 200.959 288.153C201.47 288.201 201.957 288.343 202.408 288.581H202.385ZM194.53 265.587L197.287 260.216C197.501 259.776 197.81 259.372 198.178 259.052C198.546 258.731 198.986 258.481 199.45 258.315C199.925 258.16 200.412 258.101 200.911 258.125C201.398 258.16 201.886 258.291 202.325 258.517L203.43 259.087C204.31 259.539 204.987 260.323 205.284 261.274C205.593 262.224 205.51 263.246 205.058 264.126L202.325 269.497C201.874 270.376 201.089 271.042 200.139 271.351C199.188 271.66 198.166 271.576 197.287 271.125L196.194 270.566C195.314 270.115 194.649 269.342 194.34 268.404C194.031 267.465 194.102 266.443 194.542 265.563L194.53 265.587ZM171.584 283.84L174.329 278.457C174.542 278.017 174.851 277.613 175.22 277.292C175.588 276.971 176.028 276.722 176.503 276.555C176.979 276.401 177.466 276.33 177.965 276.365C178.464 276.401 178.939 276.532 179.391 276.757L180.484 277.316C180.924 277.53 181.328 277.839 181.649 278.207C181.969 278.576 182.219 279.015 182.385 279.479C182.54 279.942 182.599 280.441 182.575 280.94C182.54 281.427 182.409 281.915 182.183 282.354L179.426 287.726C179.213 288.165 178.904 288.569 178.535 288.89C178.167 289.211 177.727 289.46 177.264 289.627C176.788 289.781 176.301 289.841 175.802 289.817C175.315 289.781 174.828 289.651 174.388 289.425L173.283 288.854C172.831 288.629 172.439 288.332 172.106 287.951C171.786 287.583 171.536 287.143 171.382 286.668C171.227 286.193 171.168 285.694 171.203 285.194C171.239 284.695 171.382 284.22 171.607 283.768L171.584 283.84Z" fill="url(#paint0_linear_2477_78236)"/>
<path d="M434.803 348.734C431.5 348.734 428.196 348.104 425.071 346.857L309.531 306.905C296.127 301.534 289.627 286.312 294.998 272.908C300.369 259.504 315.591 253.004 328.996 258.375L417.062 293.43L434.542 230.723C439.853 217.295 455.04 210.711 468.468 216.023C481.896 221.335 488.479 236.522 483.167 249.95L459.128 332.205C456.573 338.669 451.546 343.862 445.153 346.607C441.85 348.021 438.332 348.734 434.803 348.734Z" fill="#84CAF4"/>
<path d="M579.967 368.734L589.307 373.844C589.307 373.844 598.599 362.258 596.282 346.881H583.888C583.698 340.714 582.462 334.808 580.347 329.342L591.113 325.111C591.113 325.111 588.178 310.554 574.881 302.486L568.072 310.649C563.687 306.324 558.565 302.759 552.909 300.157L557.603 291.577C557.603 291.577 546.016 282.284 530.64 284.602V295.273C524.805 295.273 519.196 296.223 513.944 297.958L510.272 286.586C510.272 286.586 495.561 288.618 486.684 301.392L494.836 309.105C490.605 312.955 486.993 317.47 484.177 322.497L474.789 316.52C474.789 316.52 464.748 327.464 466.055 342.96L477.593 343.72C477.451 345.313 477.368 346.929 477.368 348.568C477.368 353.072 477.926 357.433 478.984 361.604L466.899 364.29C466.899 364.29 467.54 379.132 479.412 389.161L488.526 381.176C492.935 386.868 498.472 391.645 504.806 395.162L498.947 405.857C498.947 405.857 510.533 415.15 525.91 412.833V401.627C527.467 401.769 529.047 401.853 530.652 401.853C536.938 401.853 542.963 400.759 548.56 398.763L551.709 409.529C551.709 409.529 566.467 407.913 575.701 395.388L567.418 387.106C572.789 381.996 577.103 375.745 579.967 368.734ZM530.628 367.213C519.41 367.213 510.308 358.111 510.308 346.893C510.308 335.675 519.41 326.573 530.628 326.573C541.846 326.573 550.948 335.675 550.948 346.893C550.948 358.111 541.857 367.213 530.628 367.213Z" fill="#57B6F0"/>
<path d="M298.57 112.39L241.832 155.92L285.362 212.658L342.1 169.128L298.57 112.39Z" fill="#FADD6F"/>
<path d="M747.292 60.0811H166.789V34.877H747.292V60.0811ZM169.166 57.7045H744.916V37.2536H169.166V57.7045Z" fill="white"/>
<path d="M193.74 29.0067C185.742 29.0067 179.23 22.4948 179.23 14.4974C179.23 6.50008 185.742 0 193.74 0C201.737 0 208.249 6.51196 208.249 14.5093C208.249 22.5067 201.737 29.0067 193.74 29.0067ZM193.74 2.37663C187.05 2.37663 181.607 7.81911 181.607 14.5093C181.607 21.1995 187.05 26.642 193.74 26.642C200.43 26.642 205.872 21.1995 205.872 14.5093C205.872 7.81911 200.43 2.37663 193.74 2.37663Z" fill="white"/>
<path d="M231.709 29.0067C223.711 29.0067 217.199 22.4948 217.199 14.4974C217.199 6.50008 223.711 0 231.709 0C239.706 0 246.218 6.51196 246.218 14.5093C246.218 22.5067 239.706 29.0067 231.709 29.0067ZM231.709 2.37663C225.018 2.37663 219.576 7.81911 219.576 14.5093C219.576 21.1995 225.018 26.642 231.709 26.642C238.399 26.642 243.841 21.1995 243.841 14.5093C243.841 7.81911 238.399 2.37663 231.709 2.37663Z" fill="white"/>
<path d="M272.052 29.0067C264.055 29.0067 257.543 22.4948 257.543 14.4974C257.543 6.50008 264.055 0 272.052 0C280.05 0 286.562 6.51196 286.562 14.5093C286.562 22.5067 280.05 29.0067 272.052 29.0067ZM272.052 2.37663C265.362 2.37663 259.92 7.81911 259.92 14.5093C259.92 21.1995 265.362 26.642 272.052 26.642C278.743 26.642 284.185 21.1995 284.185 14.5093C284.185 7.81911 278.743 2.37663 272.052 2.37663Z" fill="white"/>
<path d="M515.111 100.164H440.176V102.541H515.111V100.164Z" fill="white"/>
<path d="M705.74 100.164H630.805V102.541H705.74V100.164Z" fill="white"/>
<path d="M705.74 245.85H630.805V248.226H705.74V245.85Z" fill="white"/>
<path d="M705.919 275H583V277.377H705.919V275Z" fill="white"/>
<path d="M589.81 112.51C596.865 112.51 602.584 106.79 602.584 99.7353C602.584 92.6802 596.865 86.9609 589.81 86.9609C582.754 86.9609 577.035 92.6802 577.035 99.7353C577.035 106.79 582.754 112.51 589.81 112.51Z" fill="#83BF6E"/>
<path d="M405.331 87.6738L390.988 112.51H419.674L405.331 87.6738Z" fill="#E79CAD"/>
<path d="M599.125 238.375H576.5V261H599.125V238.375Z" fill="#2961CC"/>
<path d="M253.36 311.789C233.979 308.355 215.477 321.272 212.031 340.665L208.098 431.583L139.579 390.075L139.71 389.862L71.9643 346.892L0 423.384C27.8303 405.773 64.5849 427.911 68.233 430.193C68.3399 430.264 68.4469 430.336 68.5538 430.395L205.008 511.925C210.617 515.276 216.939 516.975 223.296 516.975C228.335 516.975 233.385 515.906 238.102 513.755C248.762 508.883 256.355 499.091 258.399 487.553L282.248 353.119C285.671 333.737 272.742 315.224 253.36 311.789Z" fill="#FADD6F"/>
<path d="M394.63 174.634L355.38 190.771C352.493 191.96 349.189 190.581 348.001 187.693C346.813 184.806 348.191 181.502 351.079 180.314L390.329 164.177C393.216 162.988 396.52 164.367 397.708 167.254C398.896 170.142 397.518 173.446 394.63 174.634Z" fill="#84CAF4"/>
<path d="M409.923 156.359L370.673 172.496C367.786 173.684 364.482 172.306 363.294 169.418C362.106 166.531 363.484 163.227 366.372 162.039L405.622 145.901C408.509 144.713 411.813 146.092 413.001 148.979C414.189 151.867 412.811 155.17 409.923 156.359Z" fill="#84CAF4"/>
<path d="M406.002 145.89L366.751 162.027C363.864 163.215 360.56 161.837 359.372 158.949C358.184 156.062 359.562 152.758 362.45 151.57L401.7 135.433C404.587 134.244 407.891 135.623 409.079 138.51C410.268 141.398 408.889 144.701 406.002 145.89Z" fill="#84CAF4"/>
<path d="M401.994 136.157L362.744 152.295C359.856 153.483 356.553 152.105 355.364 149.217C354.176 146.329 355.554 143.026 358.442 141.838L397.692 125.7C400.58 124.512 403.883 125.89 405.071 128.778C406.272 131.666 404.893 134.969 401.994 136.157Z" fill="#84CAF4"/>
<path d="M495.062 213.125L481.919 253.48C480.956 256.451 477.76 258.067 474.789 257.104C471.818 256.142 470.202 252.945 471.165 249.974L484.307 209.619C485.27 206.648 488.467 205.032 491.437 205.995C494.408 206.969 496.036 210.154 495.062 213.125Z" fill="#84CAF4"/>
<path d="M486.757 205.435L473.614 245.79C472.652 248.761 469.455 250.377 466.484 249.415C463.514 248.452 461.898 245.256 462.86 242.285L476.003 201.93C476.965 198.959 480.162 197.343 483.133 198.305C486.103 199.28 487.72 202.464 486.757 205.435Z" fill="#84CAF4"/>
<path d="M477.644 199.388L464.501 239.744C463.538 242.714 460.342 244.33 457.371 243.368C454.4 242.405 452.784 239.209 453.747 236.238L466.89 195.883C467.852 192.912 471.049 191.296 474.019 192.258C476.99 193.233 478.618 196.429 477.644 199.388Z" fill="#84CAF4"/>
<path d="M420.601 152.318L420.328 162.764L443.976 220.266L451.783 217.058L428.135 159.555L420.601 152.318Z" fill="#FADD6F"/>
<path d="M467.316 196.025L454.173 236.38C453.21 239.351 450.014 240.967 447.043 240.005C444.072 239.042 442.456 235.845 443.419 232.875L456.561 192.52C457.524 189.549 460.72 187.933 463.691 188.895C466.65 189.87 468.278 193.054 467.316 196.025Z" fill="#84CAF4"/>
<path d="M444.711 205.733L440.612 247.977C440.315 251.091 437.546 253.36 434.432 253.063C431.319 252.766 429.049 249.997 429.346 246.884L433.446 204.639C433.743 201.526 436.512 199.256 439.625 199.553C442.739 199.851 445.02 202.619 444.711 205.733Z" fill="#84CAF4"/>
<path d="M457.263 196.5L450.894 186.601C449.206 183.975 449.955 180.481 452.581 178.782C455.207 177.095 458.701 177.843 460.4 180.47L466.769 190.368C468.457 192.994 467.708 196.488 465.082 198.187C462.456 199.887 458.962 199.126 457.263 196.5Z" fill="#84CAF4"/>
<path d="M443.306 187.765L451.624 179.447C453.835 177.236 457.411 177.236 459.622 179.447C461.832 181.657 461.832 185.234 459.622 187.444L451.304 195.762C449.093 197.973 445.516 197.973 443.306 195.762C441.096 193.552 441.096 189.963 443.306 187.765Z" fill="#84CAF4"/>
<path d="M383.822 134.993L344.572 151.131C341.684 152.319 338.381 150.94 337.192 148.053C336.004 145.165 337.383 141.862 340.27 140.673L379.52 124.536C382.408 123.348 385.711 124.726 386.9 127.614C388.1 130.501 386.709 133.805 383.822 134.993Z" fill="#84CAF4"/>
<g opacity="0.35">
<path d="M224.29 441.589L208.094 431.583L209.021 410.301L224.29 441.589Z" fill="#E0704A"/>
</g>
<path d="M417.062 293.43L435.03 299.907L422.03 275.605L417.062 293.43Z" fill="#57B6F0"/>
<defs>
<linearGradient id="paint0_linear_2477_78236" x1="93.9445" y1="196.982" x2="415.121" y2="413.639" gradientUnits="userSpaceOnUse">
<stop stop-color="#E283AE"/>
<stop offset="1" stop-color="#D94841"/>
</linearGradient>
</defs>
</svg>
