<svg width="304" height="256" viewBox="0 0 304 256" fill="none" xmlns="http://www.w3.org/2000/svg">
<g filter="url(#filter0_d_2477_78747)">
<rect x="59" y="44" width="184" height="136" rx="12" fill="white"/>
</g>
<path d="M75 80C75 91.0457 83.9543 100 95 100C106.046 100 115 91.0457 115 80C115 68.9543 106.046 60 95 60C83.9543 60 75 68.9543 75 80ZM111.278 80C111.278 88.9902 103.99 96.2781 95 96.2781C86.0098 96.2781 78.7219 88.9902 78.7219 80C78.7219 71.0098 86.0098 63.7219 95 63.7219C103.99 63.7219 111.278 71.0098 111.278 80Z" fill="#EBEEF2"/>
<path d="M95 61.8609C95 60.8332 95.835 59.991 96.8584 60.0865C100.531 60.4292 104.051 61.7829 107.019 64.0142C110.484 66.6196 113.009 70.2805 114.213 74.4455C115.417 78.6104 115.235 83.0538 113.695 87.1064C112.154 91.159 109.339 94.6013 105.672 96.9147C102.005 99.2281 97.6862 100.287 93.3652 99.9331C89.0442 99.5787 84.9554 97.8298 81.7146 94.9499C78.4739 92.07 76.2567 88.2149 75.3971 83.9655C74.6609 80.3262 74.9545 76.5664 76.2265 73.1038C76.5809 72.1391 77.7005 71.748 78.6282 72.1905C79.5558 72.633 79.938 73.7414 79.6042 74.7135C78.6677 77.4407 78.4689 80.3795 79.0451 83.2275C79.7447 86.6862 81.5493 89.8238 84.187 92.1678C86.8246 94.5118 90.1526 95.9352 93.6695 96.2236C97.1863 96.5121 100.702 95.6499 103.686 93.767C106.67 91.8841 108.962 89.0824 110.216 85.7839C111.47 82.4855 111.618 78.869 110.638 75.4791C109.658 72.0893 107.603 69.1096 104.782 66.9891C102.46 65.2429 99.7217 64.1571 96.857 63.8281C95.8359 63.7109 95 62.8887 95 61.8609Z" fill="#83BF6E"/>
<path d="M131.207 79.1108C130.909 77.2443 129.447 76.1534 127.602 76.1534C125.344 76.1534 123.678 77.8452 123.678 80.6364C123.678 83.4276 125.335 85.1193 127.602 85.1193C129.52 85.1193 130.922 83.9176 131.207 82.1918L129.878 82.1875C129.652 83.304 128.714 83.9176 127.611 83.9176C126.115 83.9176 124.986 82.7713 124.986 80.6364C124.986 78.5185 126.111 77.3551 127.615 77.3551C128.727 77.3551 129.661 77.9815 129.878 79.1108H131.207ZM135.438 85.1321C137.283 85.1321 138.489 83.7812 138.489 81.7571C138.489 79.7202 137.283 78.3693 135.438 78.3693C133.593 78.3693 132.387 79.7202 132.387 81.7571C132.387 83.7812 133.593 85.1321 135.438 85.1321ZM135.442 84.0625C134.236 84.0625 133.674 83.0099 133.674 81.7528C133.674 80.5 134.236 79.4347 135.442 79.4347C136.64 79.4347 137.202 80.5 137.202 81.7528C137.202 83.0099 136.64 84.0625 135.442 84.0625ZM139.911 85H141.185V80.9645C141.185 80.0824 141.803 79.4688 142.528 79.4688C143.235 79.4688 143.725 79.9375 143.725 80.6491V85H144.995V80.8281C144.995 80.0398 145.477 79.4688 146.308 79.4688C146.981 79.4688 147.535 79.8438 147.535 80.7301V85H148.809V80.6108C148.809 79.1151 147.974 78.3693 146.789 78.3693C145.847 78.3693 145.14 78.821 144.825 79.5199H144.756C144.471 78.804 143.87 78.3693 142.996 78.3693C142.131 78.3693 141.488 78.7997 141.215 79.5199H141.134V78.4545H139.911V85ZM150.517 87.4545H151.791V83.9815H151.868C152.098 84.3991 152.566 85.1278 153.76 85.1278C155.345 85.1278 156.495 83.858 156.495 81.7401C156.495 79.6179 155.328 78.3693 153.747 78.3693C152.532 78.3693 152.093 79.1108 151.868 79.5156H151.761V78.4545H150.517V87.4545ZM151.765 81.7273C151.765 80.3594 152.362 79.4517 153.474 79.4517C154.629 79.4517 155.208 80.4276 155.208 81.7273C155.208 83.0398 154.612 84.0412 153.474 84.0412C152.379 84.0412 151.765 83.1037 151.765 81.7273ZM157.923 76.2727V83.4744C157.923 84.5099 158.456 85.0639 159.559 85.0469C159.9 85.0426 160.173 84.9872 160.352 84.9318L160.122 83.9134C160.032 83.9389 159.943 83.9688 159.721 83.973C159.312 83.9858 159.197 83.7727 159.197 83.2102V76.2727H157.923ZM164.013 85.1321C165.441 85.1321 166.451 84.429 166.741 83.3636L165.535 83.1463C165.305 83.7642 164.751 84.0795 164.026 84.0795C162.935 84.0795 162.202 83.3722 162.168 82.1108H166.822V81.6591C166.822 79.294 165.407 78.3693 163.924 78.3693C162.1 78.3693 160.898 79.7585 160.898 81.7699C160.898 83.8026 162.083 85.1321 164.013 85.1321ZM162.173 81.1562C162.224 80.2273 162.897 79.4219 163.933 79.4219C164.921 79.4219 165.569 80.1548 165.573 81.1562H162.173ZM171.291 78.4545H169.949V76.8864H168.674V78.4545H167.716V79.4773H168.674V83.3423C168.67 84.5312 169.578 85.1065 170.583 85.0852C170.988 85.081 171.261 85.0043 171.41 84.9489L171.18 83.8963C171.095 83.9134 170.937 83.9517 170.733 83.9517C170.319 83.9517 169.949 83.8153 169.949 83.0781V79.4773H171.291V78.4545ZM175.451 85.1321C176.879 85.1321 177.888 84.429 178.178 83.3636L176.972 83.1463C176.742 83.7642 176.188 84.0795 175.464 84.0795C174.373 84.0795 173.64 83.3722 173.606 82.1108H178.259V81.6591C178.259 79.294 176.844 78.3693 175.362 78.3693C173.538 78.3693 172.336 79.7585 172.336 81.7699C172.336 83.8026 173.521 85.1321 175.451 85.1321ZM173.61 81.1562C173.661 80.2273 174.335 79.4219 175.37 79.4219C176.359 79.4219 177.006 80.1548 177.011 81.1562H173.61ZM182.123 85.1278C183.316 85.1278 183.785 84.3991 184.015 83.9815H184.122V85H185.366V76.2727H184.092V79.5156H184.015C183.785 79.1108 183.35 78.3693 182.132 78.3693C180.551 78.3693 179.387 79.6179 179.387 81.7401C179.387 83.858 180.534 85.1278 182.123 85.1278ZM182.404 84.0412C181.267 84.0412 180.674 83.0398 180.674 81.7273C180.674 80.4276 181.254 79.4517 182.404 79.4517C183.517 79.4517 184.113 80.3594 184.113 81.7273C184.113 83.1037 183.504 84.0412 182.404 84.0412ZM191.779 76.2727H190.463V85H191.779V76.2727ZM198.5 80.0526C198.235 79.0341 197.439 78.3693 196.024 78.3693C194.545 78.3693 193.497 79.1491 193.497 80.3082C193.497 81.2372 194.059 81.8551 195.287 82.1278L196.395 82.3707C197.025 82.5114 197.319 82.7926 197.319 83.2017C197.319 83.7088 196.778 84.1051 195.943 84.1051C195.18 84.1051 194.69 83.777 194.537 83.1335L193.305 83.321C193.518 84.4801 194.481 85.1321 195.951 85.1321C197.532 85.1321 198.627 84.2926 198.627 83.108C198.627 82.1832 198.039 81.6122 196.838 81.3352L195.798 81.0966C195.078 80.9261 194.767 80.6832 194.771 80.2401C194.767 79.7372 195.312 79.3793 196.037 79.3793C196.829 79.3793 197.196 79.8182 197.345 80.2571L198.5 80.0526ZM204.933 80.0526C204.669 79.0341 203.872 78.3693 202.457 78.3693C200.979 78.3693 199.93 79.1491 199.93 80.3082C199.93 81.2372 200.493 81.8551 201.72 82.1278L202.828 82.3707C203.459 82.5114 203.753 82.7926 203.753 83.2017C203.753 83.7088 203.212 84.1051 202.376 84.1051C201.614 84.1051 201.124 83.777 200.97 83.1335L199.739 83.321C199.952 84.4801 200.915 85.1321 202.385 85.1321C203.966 85.1321 205.061 84.2926 205.061 83.108C205.061 82.1832 204.473 81.6122 203.271 81.3352L202.232 81.0966C201.511 80.9261 201.2 80.6832 201.205 80.2401C201.2 79.7372 201.746 79.3793 202.47 79.3793C203.263 79.3793 203.629 79.8182 203.778 80.2571L204.933 80.0526ZM210.608 82.2855C210.613 83.3977 209.786 83.9261 209.07 83.9261C208.282 83.9261 207.736 83.3551 207.736 82.4645V78.4545H206.462V82.6179C206.462 84.2415 207.353 85.0852 208.61 85.0852C209.594 85.0852 210.263 84.5653 210.566 83.8665H210.634V85H211.887V78.4545H210.608V82.2855ZM216.42 85.1321C217.847 85.1321 218.857 84.429 219.147 83.3636L217.941 83.1463C217.711 83.7642 217.157 84.0795 216.433 84.0795C215.342 84.0795 214.609 83.3722 214.575 82.1108H219.228V81.6591C219.228 79.294 217.813 78.3693 216.33 78.3693C214.506 78.3693 213.305 79.7585 213.305 81.7699C213.305 83.8026 214.489 85.1321 216.42 85.1321ZM214.579 81.1562C214.63 80.2273 215.303 79.4219 216.339 79.4219C217.327 79.4219 217.975 80.1548 217.979 81.1562H214.579ZM225.547 80.0526C225.282 79.0341 224.485 78.3693 223.071 78.3693C221.592 78.3693 220.544 79.1491 220.544 80.3082C220.544 81.2372 221.106 81.8551 222.333 82.1278L223.441 82.3707C224.072 82.5114 224.366 82.7926 224.366 83.2017C224.366 83.7088 223.825 84.1051 222.99 84.1051C222.227 84.1051 221.737 83.777 221.583 83.1335L220.352 83.321C220.565 84.4801 221.528 85.1321 222.998 85.1321C224.579 85.1321 225.674 84.2926 225.674 83.108C225.674 82.1832 225.086 81.6122 223.885 81.3352L222.845 81.0966C222.125 80.9261 221.814 80.6832 221.818 80.2401C221.814 79.7372 222.359 79.3793 223.083 79.3793C223.876 79.3793 224.243 79.8182 224.392 80.2571L225.547 80.0526Z" fill="#35353D"/>
<path d="M85.7884 84.1193C87.6037 84.1193 88.8864 83.0881 88.8949 81.6733C88.8864 80.5739 88.1151 79.6491 87.1392 79.4744V79.4233C87.9872 79.2188 88.5625 78.4219 88.571 77.4801C88.5625 76.1463 87.3864 75.1534 85.7884 75.1534C84.1733 75.1534 82.9972 76.1463 83.0057 77.4801C82.9972 78.4176 83.5724 79.2188 84.4375 79.4233V79.4744C83.4446 79.6491 82.6733 80.5739 82.6818 81.6733C82.6733 83.0881 83.956 84.1193 85.7884 84.1193ZM85.7884 83.0412C84.6974 83.0412 84.0071 82.4616 84.0156 81.5881C84.0071 80.6804 84.7571 80.0327 85.7884 80.0327C86.8026 80.0327 87.5526 80.6804 87.5611 81.5881C87.5526 82.4616 86.8665 83.0412 85.7884 83.0412ZM85.7884 78.9801C84.9062 78.9801 84.2798 78.4219 84.2884 77.5909C84.2798 76.7727 84.8849 76.2315 85.7884 76.2315C86.6747 76.2315 87.2798 76.7727 87.2884 77.5909C87.2798 78.4219 86.6577 78.9801 85.7884 78.9801ZM90.2383 82.2955H94.3761V84H95.6246V82.2955H96.788V81.179H95.6246V78.5455H94.3931V81.179H91.6062V81.1108L94.9428 75.2727H93.6559L90.2383 81.2301V82.2955ZM102.828 82.3636C102.833 83.348 103.451 84.179 104.605 84.179C105.748 84.179 106.374 83.348 106.374 82.3636V81.9034C106.374 80.9148 105.765 80.0881 104.605 80.0881C103.468 80.0881 102.833 80.919 102.828 81.9034V82.3636ZM98.4393 77.3693C98.4393 78.3537 99.0614 79.1847 100.216 79.1847C101.354 79.1847 101.985 78.358 101.98 77.3693V76.9091C101.985 75.9205 101.371 75.0938 100.216 75.0938C99.0827 75.0938 98.4393 75.9205 98.4393 76.9091V77.3693ZM98.7972 84H99.8157L105.816 75.2727H104.797L98.7972 84ZM103.821 81.9034C103.826 81.4134 104.039 80.9403 104.605 80.9403C105.194 80.9403 105.377 81.4134 105.377 81.9034V82.3636C105.377 82.8537 105.176 83.3267 104.605 83.3267C104.026 83.3267 103.826 82.8494 103.821 82.3636V81.9034ZM99.4364 76.9091C99.4364 76.4233 99.6495 75.946 100.216 75.946C100.804 75.946 100.988 76.419 100.988 76.9091V77.3693C100.988 77.8594 100.787 78.3324 100.216 78.3324C99.6367 78.3324 99.4364 77.8594 99.4364 77.3693V76.9091Z" fill="#35353D"/>
<path d="M211.247 124H212.623L216.42 116.44V115.273H210.65V116.402H215.056V116.466L211.247 124ZM222.457 122.364C222.462 123.348 223.08 124.179 224.234 124.179C225.376 124.179 226.003 123.348 226.003 122.364V121.903C226.003 120.915 225.393 120.088 224.234 120.088C223.097 120.088 222.462 120.919 222.457 121.903V122.364ZM218.068 117.369C218.068 118.354 218.69 119.185 219.845 119.185C220.983 119.185 221.614 118.358 221.609 117.369V116.909C221.614 115.92 221 115.094 219.845 115.094C218.712 115.094 218.068 115.92 218.068 116.909V117.369ZM218.426 124H219.445L225.445 115.273H224.426L218.426 124ZM223.45 121.903C223.455 121.413 223.668 120.94 224.234 120.94C224.822 120.94 225.006 121.413 225.006 121.903V122.364C225.006 122.854 224.805 123.327 224.234 123.327C223.655 123.327 223.455 122.849 223.45 122.364V121.903ZM219.065 116.909C219.065 116.423 219.278 115.946 219.845 115.946C220.433 115.946 220.616 116.419 220.616 116.909V117.369C220.616 117.859 220.416 118.332 219.845 118.332C219.266 118.332 219.065 117.859 219.065 117.369V116.909Z" fill="#35353D"/>
<path d="M213.269 159.119C215.084 159.119 216.367 158.088 216.375 156.673C216.367 155.574 215.596 154.649 214.62 154.474V154.423C215.468 154.219 216.043 153.422 216.051 152.48C216.043 151.146 214.867 150.153 213.269 150.153C211.654 150.153 210.478 151.146 210.486 152.48C210.478 153.418 211.053 154.219 211.918 154.423V154.474C210.925 154.649 210.154 155.574 210.162 156.673C210.154 158.088 211.436 159.119 213.269 159.119ZM213.269 158.041C212.178 158.041 211.488 157.462 211.496 156.588C211.488 155.68 212.238 155.033 213.269 155.033C214.283 155.033 215.033 155.68 215.042 156.588C215.033 157.462 214.347 158.041 213.269 158.041ZM213.269 153.98C212.387 153.98 211.76 153.422 211.769 152.591C211.76 151.773 212.365 151.232 213.269 151.232C214.155 151.232 214.76 151.773 214.769 152.591C214.76 153.422 214.138 153.98 213.269 153.98ZM222.457 157.364C222.462 158.348 223.08 159.179 224.234 159.179C225.376 159.179 226.003 158.348 226.003 157.364V156.903C226.003 155.915 225.393 155.088 224.234 155.088C223.097 155.088 222.462 155.919 222.457 156.903V157.364ZM218.068 152.369C218.068 153.354 218.69 154.185 219.845 154.185C220.983 154.185 221.614 153.358 221.609 152.369V151.909C221.614 150.92 221 150.094 219.845 150.094C218.712 150.094 218.068 150.92 218.068 151.909V152.369ZM218.426 159H219.445L225.445 150.273H224.426L218.426 159ZM223.45 156.903C223.455 156.413 223.668 155.94 224.234 155.94C224.822 155.94 225.006 156.413 225.006 156.903V157.364C225.006 157.854 224.805 158.327 224.234 158.327C223.655 158.327 223.455 157.849 223.45 157.364V156.903ZM219.065 151.909C219.065 151.423 219.278 150.946 219.845 150.946C220.433 150.946 220.616 151.419 220.616 151.909V152.369C220.616 152.859 220.416 153.332 219.845 153.332C219.266 153.332 219.065 152.859 219.065 152.369V151.909Z" fill="#35353D"/>
<path d="M99.2756 117.273H97.9588V126H99.2756V117.273ZM102.365 122.114C102.365 121.07 103.004 120.473 103.891 120.473C104.756 120.473 105.28 121.04 105.28 121.99V126H106.554V121.837C106.554 120.217 105.663 119.369 104.325 119.369C103.341 119.369 102.697 119.825 102.395 120.52H102.314V119.455H101.091V126H102.365V122.114ZM111.541 126H112.858V122.932H114.647C116.672 122.932 117.673 121.709 117.673 120.098C117.673 118.491 116.68 117.273 114.652 117.273H111.541V126ZM112.858 121.815V118.402H114.511C115.815 118.402 116.348 119.109 116.348 120.098C116.348 121.087 115.815 121.815 114.528 121.815H112.858ZM119.114 126H120.388V122.003C120.388 121.151 121.049 120.533 121.931 120.533C122.178 120.533 122.37 120.584 122.523 120.661L122.933 119.595C122.715 119.45 122.434 119.357 122.076 119.357C121.3 119.357 120.653 119.791 120.414 120.494H120.346V119.455H119.114V126ZM126.395 126.132C128.24 126.132 129.446 124.781 129.446 122.757C129.446 120.72 128.24 119.369 126.395 119.369C124.55 119.369 123.344 120.72 123.344 122.757C123.344 124.781 124.55 126.132 126.395 126.132ZM126.399 125.062C125.193 125.062 124.631 124.01 124.631 122.753C124.631 121.5 125.193 120.435 126.399 120.435C127.597 120.435 128.159 121.5 128.159 122.753C128.159 124.01 127.597 125.062 126.399 125.062ZM133.613 128.591C135.279 128.591 136.566 127.828 136.566 126.145V119.455H135.317V120.516H135.223C134.998 120.111 134.546 119.369 133.327 119.369C131.746 119.369 130.583 120.618 130.583 122.702C130.583 124.79 131.772 125.902 133.319 125.902C134.52 125.902 134.985 125.224 135.215 124.807H135.296V126.094C135.296 127.121 134.593 127.564 133.625 127.564C132.564 127.564 132.151 127.031 131.925 126.656L130.83 127.108C131.175 127.909 132.049 128.591 133.613 128.591ZM133.6 124.845C132.462 124.845 131.87 123.972 131.87 122.685C131.87 121.428 132.449 120.452 133.6 120.452C134.712 120.452 135.309 121.359 135.309 122.685C135.309 124.036 134.699 124.845 133.6 124.845ZM138.275 126H139.549V122.003C139.549 121.151 140.209 120.533 141.091 120.533C141.338 120.533 141.53 120.584 141.684 120.661L142.093 119.595C141.875 119.45 141.594 119.357 141.236 119.357C140.461 119.357 139.813 119.791 139.574 120.494H139.506V119.455H138.275V126ZM145.619 126.132C147.047 126.132 148.056 125.429 148.346 124.364L147.14 124.146C146.91 124.764 146.356 125.08 145.632 125.08C144.541 125.08 143.808 124.372 143.774 123.111H148.427V122.659C148.427 120.294 147.012 119.369 145.529 119.369C143.706 119.369 142.504 120.759 142.504 122.77C142.504 124.803 143.689 126.132 145.619 126.132ZM143.778 122.156C143.829 121.227 144.502 120.422 145.538 120.422C146.527 120.422 147.174 121.155 147.179 122.156H143.778ZM154.746 121.053C154.482 120.034 153.685 119.369 152.27 119.369C150.791 119.369 149.743 120.149 149.743 121.308C149.743 122.237 150.305 122.855 151.533 123.128L152.641 123.371C153.271 123.511 153.565 123.793 153.565 124.202C153.565 124.709 153.024 125.105 152.189 125.105C151.426 125.105 150.936 124.777 150.783 124.134L149.551 124.321C149.764 125.48 150.727 126.132 152.197 126.132C153.778 126.132 154.874 125.293 154.874 124.108C154.874 123.183 154.286 122.612 153.084 122.335L152.044 122.097C151.324 121.926 151.013 121.683 151.017 121.24C151.013 120.737 151.558 120.379 152.283 120.379C153.075 120.379 153.442 120.818 153.591 121.257L154.746 121.053ZM161.179 121.053C160.915 120.034 160.118 119.369 158.703 119.369C157.225 119.369 156.176 120.149 156.176 121.308C156.176 122.237 156.739 122.855 157.966 123.128L159.074 123.371C159.705 123.511 159.999 123.793 159.999 124.202C159.999 124.709 159.458 125.105 158.623 125.105C157.86 125.105 157.37 124.777 157.216 124.134L155.985 124.321C156.198 125.48 157.161 126.132 158.631 126.132C160.212 126.132 161.307 125.293 161.307 124.108C161.307 123.183 160.719 122.612 159.517 122.335L158.478 122.097C157.757 121.926 157.446 121.683 157.451 121.24C157.446 120.737 157.992 120.379 158.716 120.379C159.509 120.379 159.875 120.818 160.025 121.257L161.179 121.053Z" fill="#969DB3"/>
<path d="M105.54 154.636C105.54 151.845 103.869 150.153 101.611 150.153C99.3438 150.153 97.6776 151.845 97.6776 154.636C97.6776 157.423 99.3438 159.119 101.611 159.119C103.869 159.119 105.54 157.428 105.54 154.636ZM104.236 154.636C104.236 156.763 103.111 157.918 101.611 157.918C100.107 157.918 98.9858 156.763 98.9858 154.636C98.9858 152.51 100.107 151.355 101.611 151.355C103.111 151.355 104.236 152.51 104.236 154.636ZM107.079 161.455H108.353V157.982H108.43C108.66 158.399 109.129 159.128 110.322 159.128C111.907 159.128 113.058 157.858 113.058 155.74C113.058 153.618 111.89 152.369 110.309 152.369C109.095 152.369 108.656 153.111 108.43 153.516H108.324V152.455H107.079V161.455ZM108.328 155.727C108.328 154.359 108.924 153.452 110.037 153.452C111.191 153.452 111.771 154.428 111.771 155.727C111.771 157.04 111.174 158.041 110.037 158.041C108.941 158.041 108.328 157.104 108.328 155.727ZM117.306 159.132C118.734 159.132 119.744 158.429 120.034 157.364L118.828 157.146C118.598 157.764 118.044 158.08 117.319 158.08C116.228 158.08 115.495 157.372 115.461 156.111H120.115V155.659C120.115 153.294 118.7 152.369 117.217 152.369C115.393 152.369 114.191 153.759 114.191 155.77C114.191 157.803 115.376 159.132 117.306 159.132ZM115.466 155.156C115.517 154.227 116.19 153.422 117.225 153.422C118.214 153.422 118.862 154.155 118.866 155.156H115.466ZM122.803 155.114C122.803 154.07 123.442 153.473 124.328 153.473C125.193 153.473 125.717 154.04 125.717 154.99V159H126.991V154.837C126.991 153.217 126.101 152.369 124.763 152.369C123.778 152.369 123.135 152.825 122.832 153.52H122.751V152.455H121.528V159H122.803V155.114Z" fill="#969DB3"/>
<line x1="75" y1="137.5" x2="227" y2="137.5" stroke="#F7F8FA"/>
<path d="M84 114.25C80.2781 114.25 77.25 117.278 77.25 121C77.25 124.722 80.2781 127.75 84 127.75C87.722 127.75 90.75 124.722 90.75 121C90.75 117.278 87.722 114.25 84 114.25ZM84 121V116.275C86.7 116.275 88.725 118.3 88.725 121H84Z" fill="#F2A84C"/>
<path fill-rule="evenodd" clip-rule="evenodd" d="M84 148.25C80.278 148.25 77.25 151.278 77.25 155C77.25 158.722 80.278 161.75 84 161.75C87.722 161.75 90.75 158.722 90.75 155C90.75 151.278 87.722 148.25 84 148.25ZM88.725 155C88.725 152.3 86.7 150.275 84 150.275C81.3 150.275 79.275 152.3 79.275 155C79.275 157.7 81.2984 159.75 83.9984 159.75C86.6984 159.75 88.725 157.7 88.725 155Z" fill="#A5ADC5"/>
<circle r="4" transform="matrix(-1 0 0 1 84 155)" fill="#DCDEE4"/>
<defs>
<filter id="filter0_d_2477_78747" x="0" y="0" width="304" height="256" filterUnits="userSpaceOnUse" color-interpolation-filters="sRGB">
<feFlood flood-opacity="0" result="BackgroundImageFix"/>
<feColorMatrix in="SourceAlpha" type="matrix" values="0 0 0 0 0 0 0 0 0 0 0 0 0 0 0 0 0 0 127 0" result="hardAlpha"/>
<feOffset dx="1" dy="16"/>
<feGaussianBlur stdDeviation="30"/>
<feComposite in2="hardAlpha" operator="out"/>
<feColorMatrix type="matrix" values="0 0 0 0 0.575 0 0 0 0 0.606167 0 0 0 0 0.716667 0 0 0 0.12 0"/>
<feBlend mode="normal" in2="BackgroundImageFix" result="effect1_dropShadow_2477_78747"/>
<feBlend mode="normal" in="SourceGraphic" in2="effect1_dropShadow_2477_78747" result="shape"/>
</filter>
</defs>
</svg>
