<svg width="376" height="516" viewBox="0 0 376 516" fill="none" xmlns="http://www.w3.org/2000/svg">
<g filter="url(#filter0_d_2477_78722)">
<rect x="59" y="44" width="256" height="396" rx="12" fill="white"/>
</g>
<path d="M106.272 231L107.607 227.151H113.289L114.617 231H116.947L111.712 216.455H109.177L103.942 231H106.272ZM108.246 225.304L110.391 219.097H110.505L112.65 225.304H108.246ZM123.99 220.091H121.64V219.111C121.64 218.145 122.037 217.619 123.074 217.619C123.515 217.619 123.827 217.719 124.026 217.783L124.523 216.064C124.225 215.95 123.607 215.773 122.748 215.773C121.022 215.773 119.509 216.781 119.509 218.827V220.091H117.826V221.795H119.509V231H121.64V221.795H123.99V220.091ZM131.274 220.091H129.037V217.477H126.913V220.091H125.315V221.795H126.913V228.237C126.906 230.219 128.419 231.178 130.095 231.142C130.77 231.135 131.224 231.007 131.473 230.915L131.089 229.161C130.947 229.189 130.684 229.253 130.343 229.253C129.654 229.253 129.037 229.026 129.037 227.797V221.795H131.274V220.091ZM138.207 231.22C140.587 231.22 142.27 230.048 142.753 228.273L140.743 227.911C140.359 228.94 139.436 229.466 138.229 229.466C136.411 229.466 135.189 228.287 135.132 226.185H142.888V225.432C142.888 221.49 140.53 219.949 138.058 219.949C135.018 219.949 133.016 222.264 133.016 225.616C133.016 229.004 134.99 231.22 138.207 231.22ZM135.139 224.594C135.224 223.045 136.347 221.703 138.072 221.703C139.72 221.703 140.8 222.925 140.807 224.594H135.139ZM145.244 231H147.368V224.338C147.368 222.918 148.468 221.888 149.939 221.888C150.35 221.888 150.67 221.973 150.926 222.101L151.608 220.325C151.245 220.084 150.777 219.928 150.18 219.928C148.887 219.928 147.808 220.652 147.41 221.824H147.297V220.091H145.244V231ZM157.357 235.318C160.134 235.318 162.279 234.047 162.279 231.241V220.091H160.198V221.859H160.042C159.665 221.185 158.912 219.949 156.881 219.949C154.246 219.949 152.307 222.03 152.307 225.503C152.307 228.983 154.289 230.837 156.867 230.837C158.87 230.837 159.644 229.707 160.027 229.011H160.162V231.156C160.162 232.868 158.99 233.607 157.378 233.607C155.61 233.607 154.921 232.719 154.544 232.094L152.719 232.847C153.294 234.182 154.75 235.318 157.357 235.318ZM157.336 229.075C155.439 229.075 154.452 227.619 154.452 225.474C154.452 223.379 155.418 221.753 157.336 221.753C159.189 221.753 160.184 223.266 160.184 225.474C160.184 227.726 159.168 229.075 157.336 229.075ZM165.127 216.455V228.457C165.127 230.183 166.015 231.107 167.854 231.078C168.422 231.071 168.877 230.979 169.175 230.886L168.792 229.189C168.642 229.232 168.493 229.281 168.124 229.288C167.442 229.31 167.25 228.955 167.25 228.017V216.455H165.127ZM175.171 231.22C178.246 231.22 180.256 228.969 180.256 225.595C180.256 222.2 178.246 219.949 175.171 219.949C172.096 219.949 170.086 222.2 170.086 225.595C170.086 228.969 172.096 231.22 175.171 231.22ZM175.178 229.438C173.168 229.438 172.231 227.683 172.231 225.588C172.231 223.5 173.168 221.724 175.178 221.724C177.174 221.724 178.112 223.5 178.112 225.588C178.112 227.683 177.174 229.438 175.178 229.438ZM184.66 231H186.819L189.035 223.124H189.198L191.414 231H193.58L196.783 220.091H194.589L192.465 228.067H192.359L190.228 220.091H188.033L185.888 228.102H185.782L183.644 220.091H181.45L184.66 231ZM204.262 231H206.457V225.886H209.44C212.813 225.886 214.482 223.848 214.482 221.163C214.482 218.486 212.827 216.455 209.447 216.455H204.262V231ZM206.457 224.026V218.337H209.212C211.386 218.337 212.273 219.516 212.273 221.163C212.273 222.811 211.386 224.026 209.241 224.026H206.457ZM216.885 231H219.008V224.338C219.008 222.918 220.109 221.888 221.579 221.888C221.991 221.888 222.311 221.973 222.566 222.101L223.248 220.325C222.886 220.084 222.417 219.928 221.821 219.928C220.528 219.928 219.449 220.652 219.051 221.824H218.937V220.091H216.885V231ZM229.019 231.22C232.094 231.22 234.104 228.969 234.104 225.595C234.104 222.2 232.094 219.949 229.019 219.949C225.944 219.949 223.934 222.2 223.934 225.595C223.934 228.969 225.944 231.22 229.019 231.22ZM229.026 229.438C227.016 229.438 226.078 227.683 226.078 225.588C226.078 223.5 227.016 221.724 229.026 221.724C231.022 221.724 231.959 223.5 231.959 225.588C231.959 227.683 231.022 229.438 229.026 229.438ZM236.474 220.091V231.696C236.474 232.705 236.055 233.259 235.047 233.259H234.706V235.084C234.855 235.091 234.99 235.091 235.139 235.091C237.398 235.091 238.598 233.898 238.598 231.71V220.091H236.474ZM237.526 218.408C238.257 218.408 238.868 217.839 238.868 217.143C238.868 216.447 238.257 215.872 237.526 215.872C236.787 215.872 236.183 216.447 236.183 217.143C236.183 217.839 236.787 218.408 237.526 218.408ZM246.157 231.22C248.536 231.22 250.219 230.048 250.702 228.273L248.692 227.911C248.309 228.94 247.385 229.466 246.178 229.466C244.36 229.466 243.138 228.287 243.081 226.185H250.837V225.432C250.837 221.49 248.479 219.949 246.007 219.949C242.968 219.949 240.965 222.264 240.965 225.616C240.965 229.004 242.939 231.22 246.157 231.22ZM243.088 224.594C243.174 223.045 244.296 221.703 246.022 221.703C247.669 221.703 248.749 222.925 248.756 224.594H243.088ZM257.788 231.22C260.366 231.22 262.036 229.672 262.27 227.548H260.203C259.933 228.727 259.017 229.423 257.803 229.423C256.006 229.423 254.848 227.925 254.848 225.545C254.848 223.209 256.027 221.739 257.803 221.739C259.152 221.739 259.976 222.591 260.203 223.614H262.27C262.043 221.412 260.246 219.949 257.767 219.949C254.692 219.949 252.703 222.264 252.703 225.595C252.703 228.884 254.621 231.22 257.788 231.22ZM269.633 220.091H267.396V217.477H265.272V220.091H263.674V221.795H265.272V228.237C265.265 230.219 266.778 231.178 268.454 231.142C269.129 231.135 269.583 231.007 269.832 230.915L269.449 229.161C269.306 229.189 269.044 229.253 268.703 229.253C268.014 229.253 267.396 229.026 267.396 227.797V221.795H269.633V220.091Z" fill="#35353D"/>
<circle cx="187" cy="139" r="51" fill="#F7F8FA"/>
<rect x="102" y="262" width="160" height="7" rx="3.5" fill="#EBEEF2"/>
<rect x="102" y="287" width="83" height="7" rx="3.5" fill="#EBEEF2"/>
<rect x="82" y="67" width="24" height="7" rx="3.5" fill="#DCDEE4"/>
<rect x="102" y="312" width="133" height="7" rx="3.5" fill="#EBEEF2"/>
<rect x="81" y="370" width="13" height="48" rx="4" fill="#EBEEF2"/>
<rect x="106" y="351" width="13" height="67" rx="4" fill="#DCDEE4"/>
<rect x="131" y="379" width="13" height="39" rx="4" fill="#EBEEF2"/>
<rect x="181" y="364" width="13" height="54" rx="4" fill="#EBEEF2"/>
<rect x="231" y="386" width="13" height="32" rx="4" fill="#EBEEF2"/>
<rect x="281" y="375" width="13" height="43" rx="4" fill="#EBEEF2"/>
<rect x="256" y="354" width="13" height="64" rx="4" fill="#DCDEE4"/>
<rect x="156" y="344" width="13" height="74" rx="4" fill="#E0704A"/>
<rect x="206" y="394" width="13" height="24" rx="4" fill="#EBEEF2"/>
<circle cx="288" cy="71" r="8" fill="#EBEEF2"/>
<path fill-rule="evenodd" clip-rule="evenodd" d="M222.108 147C222.692 144.427 223 141.75 223 139C223 119.118 206.882 103 187 103C167.118 103 151 119.118 151 139C151 141.75 151.308 144.427 151.892 147H222.108ZM216.938 159H157.062C163.52 168.648 174.518 175 187 175C199.482 175 210.48 168.648 216.938 159Z" fill="#35353D"/>
<defs>
<filter id="filter0_d_2477_78722" x="0" y="0" width="376" height="516" filterUnits="userSpaceOnUse" color-interpolation-filters="sRGB">
<feFlood flood-opacity="0" result="BackgroundImageFix"/>
<feColorMatrix in="SourceAlpha" type="matrix" values="0 0 0 0 0 0 0 0 0 0 0 0 0 0 0 0 0 0 127 0" result="hardAlpha"/>
<feOffset dx="1" dy="16"/>
<feGaussianBlur stdDeviation="30"/>
<feComposite in2="hardAlpha" operator="out"/>
<feColorMatrix type="matrix" values="0 0 0 0 0.575 0 0 0 0 0.606167 0 0 0 0 0.716667 0 0 0 0.12 0"/>
<feBlend mode="normal" in2="BackgroundImageFix" result="effect1_dropShadow_2477_78722"/>
<feBlend mode="normal" in="SourceGraphic" in2="effect1_dropShadow_2477_78722" result="shape"/>
</filter>
</defs>
</svg>
