<svg width="386" height="369" viewBox="0 0 386 369" fill="none" xmlns="http://www.w3.org/2000/svg">
<rect width="96" height="96" rx="8" transform="matrix(-1 0 0 1 314 72)" fill="#EDF3FE"/>
<rect width="40" height="40" rx="8" transform="matrix(-1 0 0 1 386 0)" fill="#EDF3FE"/>
<rect width="56" height="56" rx="8" transform="matrix(-1 0 0 1 370 313)" fill="#EDF3FE"/>
<rect width="48" height="48" rx="8" transform="matrix(-1 0 0 1 48 164)" fill="#EDF3FE"/>
<rect width="72" height="72" rx="8" transform="matrix(-1 0 0 1 346 152)" fill="#ABDAF7"/>
<rect width="96" height="96" rx="8" transform="matrix(-1 0 0 1 168 225)" fill="#A3C2FB"/>
<rect width="72" height="72" rx="8" transform="matrix(-1 0 0 1 152 55)" fill="#BBDCAF"/>
<path d="M139.457 274.512H133.499V269.993C133.499 269.723 133.491 269.459 133.474 269.199C136.246 266.586 136.497 263.14 136.499 259.543C136.499 258.736 135.877 258.043 135.069 258.005C134.867 257.995 134.665 258.027 134.475 258.098C134.285 258.168 134.111 258.277 133.965 258.417C133.818 258.557 133.701 258.725 133.621 258.911C133.541 259.097 133.499 259.297 133.499 259.5C133.499 262.125 133.325 264.014 132.571 265.485C130.769 261.627 126.404 259.493 119.999 259.493C116.268 259.493 113.044 260.349 110.678 261.968C109.281 262.923 108.221 264.115 107.518 265.504C106.687 264.061 106.499 262.219 106.499 259.543C106.499 258.736 105.88 258.043 105.074 258.002C104.871 257.992 104.668 258.023 104.477 258.094C104.287 258.164 104.113 258.273 103.965 258.413C103.818 258.553 103.701 258.722 103.621 258.909C103.54 259.096 103.499 259.297 103.499 259.5C103.499 263.028 103.744 266.412 106.54 269.028C106.513 269.344 106.5 269.666 106.499 269.993V274.512H100.541C99.7341 274.512 99.0413 275.133 99.0009 275.94C98.9912 276.143 99.0227 276.346 99.0937 276.536C99.1647 276.727 99.2736 276.901 99.4139 277.048C99.5542 277.195 99.7229 277.312 99.9097 277.392C100.097 277.471 100.298 277.512 100.501 277.512H106.501V279C106.5 280.725 106.83 282.434 107.475 284.033C105.068 286.185 103.516 288.563 103.499 292.438C103.499 293.258 104.12 293.966 104.939 293.999C105.141 294.007 105.342 293.974 105.531 293.903C105.72 293.831 105.893 293.722 106.038 293.582C106.184 293.442 106.3 293.274 106.379 293.088C106.458 292.902 106.499 292.702 106.499 292.5C106.499 289.907 107.352 288.308 108.953 286.751C110.798 289.378 113.517 291.263 116.624 292.071C116.846 292.128 117.078 292.134 117.302 292.087C117.526 292.041 117.737 291.944 117.918 291.804C118.099 291.664 118.245 291.484 118.346 291.279C118.447 291.073 118.499 290.847 118.499 290.618V267.042C118.499 266.235 119.12 265.542 119.927 265.502C120.13 265.492 120.332 265.524 120.523 265.594C120.713 265.665 120.887 265.774 121.034 265.914C121.181 266.054 121.298 266.223 121.378 266.409C121.458 266.596 121.499 266.797 121.499 267V290.618C121.499 290.847 121.552 291.073 121.652 291.279C121.753 291.484 121.9 291.664 122.081 291.804C122.262 291.944 122.472 292.041 122.696 292.087C122.921 292.134 123.152 292.128 123.374 292.071C126.481 291.263 129.199 289.378 131.045 286.751C132.638 288.302 133.491 289.894 133.498 292.465C133.495 292.853 133.639 293.228 133.902 293.513C134.165 293.798 134.527 293.972 134.914 294C135.118 294.012 135.322 293.981 135.514 293.911C135.706 293.841 135.882 293.732 136.03 293.592C136.178 293.452 136.297 293.282 136.377 293.094C136.458 292.907 136.499 292.704 136.499 292.5C136.499 288.593 134.943 286.197 132.525 284.033C133.17 282.434 133.5 280.725 133.499 279V277.512H139.499C139.702 277.512 139.903 277.471 140.09 277.392C140.277 277.312 140.446 277.195 140.586 277.048C140.726 276.901 140.835 276.727 140.906 276.536C140.977 276.346 141.009 276.143 140.999 275.94C140.96 275.133 140.264 274.512 139.457 274.512Z" fill="#4A86F7"/>
<path d="M126.131 258.75L126.161 258.758C127.433 259.115 128.511 257.769 127.867 256.616C127.089 255.218 125.951 254.053 124.572 253.241C123.192 252.429 121.621 252.001 120.02 252H119.981C118.364 252.001 116.778 252.438 115.389 253.265C114 254.092 112.86 255.279 112.088 256.7C111.447 257.879 112.57 259.231 113.855 258.843C115.702 258.28 117.772 257.993 120.001 257.993C122.259 257.993 124.322 258.248 126.131 258.75Z" fill="#4A86F7"/>
<path d="M125.217 83.9507C125.1 83.934 124.983 83.934 124.867 83.9507C122.283 83.8673 120.233 81.7507 120.233 79.1507C120.233 76.5007 122.383 74.334 125.05 74.334C127.7 74.334 129.867 76.484 129.867 79.1507C129.85 81.7507 127.8 83.8673 125.217 83.9507Z" fill="#83BF6E"/>
<path d="M130.65 95.5007C128.783 96.7507 126.167 97.2173 123.75 96.9007C124.383 95.534 124.717 94.0173 124.733 92.4173C124.733 90.7507 124.367 89.1673 123.667 87.784C126.133 87.4507 128.75 87.9173 130.633 89.1673C133.267 90.9007 133.267 93.7507 130.65 95.5007Z" fill="#83BF6E"/>
<path d="M106.733 83.9507C106.85 83.934 106.967 83.934 107.083 83.9507C109.667 83.8673 111.717 81.7507 111.717 79.1507C111.717 76.484 109.567 74.334 106.9 74.334C104.25 74.334 102.1 76.484 102.1 79.1507C102.1 81.7507 104.15 83.8673 106.733 83.9507Z" fill="#83BF6E"/>
<path d="M106.917 92.4157C106.917 94.0324 107.267 95.5657 107.9 96.949C105.55 97.199 103.1 96.699 101.3 95.5157C98.6667 93.7657 98.6667 90.9157 101.3 89.1657C103.083 87.9657 105.6 87.4824 107.967 87.749C107.283 89.149 106.917 90.7324 106.917 92.4157Z" fill="#83BF6E"/>
<path d="M116.2 97.45C116.067 97.4333 115.917 97.4333 115.767 97.45C112.7 97.35 110.25 94.8333 110.25 91.7333C110.267 88.5667 112.817 86 116 86C119.167 86 121.733 88.5667 121.733 91.7333C121.717 94.8333 119.283 97.35 116.2 97.45Z" fill="#83BF6E"/>
<path d="M110.783 100.9C108.267 102.584 108.267 105.35 110.783 107.017C113.65 108.934 118.35 108.934 121.217 107.017C123.733 105.334 123.733 102.567 121.217 100.9C118.367 98.9837 113.667 98.9837 110.783 100.9Z" fill="#83BF6E"/>
<path d="M323.333 182.413V188.666H317.893C317.733 188.653 317.387 188.453 317.307 188.306L315.92 185.679C315.373 184.639 314.427 184.053 313.413 184.106C312.4 184.159 311.533 184.839 311.093 185.946L309.253 190.559L308.987 189.866C308.333 188.173 306.467 186.893 304.627 186.893L296.667 186.933V182.413C296.667 177.559 299.56 174.666 304.413 174.666H315.587C320.44 174.666 323.333 177.559 323.333 182.413Z" fill="#57B6F0"/>
<path d="M323.333 193.586V190.666H317.893C317 190.666 315.947 190.026 315.533 189.239L314.147 186.613C313.773 185.906 313.24 185.946 312.947 186.679L309.88 194.426C309.547 195.293 308.987 195.293 308.64 194.426L307.12 190.586C306.76 189.653 305.64 188.893 304.64 188.893L296.667 188.933V193.586C296.667 198.359 299.467 201.239 304.173 201.319C304.32 201.333 304.48 201.333 304.627 201.333H315.293C315.493 201.333 315.693 201.333 315.88 201.319C320.56 201.213 323.333 198.346 323.333 193.586Z" fill="#57B6F0"/>
<path d="M296.667 188.933V193.346C296.64 192.919 296.627 192.466 296.627 191.999V188.933H296.667Z" fill="#57B6F0"/>
<g filter="url(#filter0_d_2477_78405)">
<rect width="170" height="170" rx="12" transform="matrix(-1 0 0 1 298 103)" fill="white"/>
</g>
<path d="M146.659 210.907C146.659 210.907 145 211.109 145 209.481V207.928H146.624C146.624 204.337 146.659 202.679 146.659 202.575C146.659 197.258 154.109 198.343 154.109 198.343C154.109 198.343 153.877 201.357 152.19 201.357C150.502 201.357 150.155 202.541 150.155 203.089V207.934H154.97C154.97 207.934 155.12 210.913 153.138 210.913H152.56C151.375 210.913 150.288 210.913 150.219 210.948C150.56 211.086 156.259 213.119 156.259 221.179C156.259 230.902 146.659 232.831 146.659 232.831V210.89V210.907ZM150.155 227.698C150.155 227.698 153.172 226.48 153.172 221.196C153.172 215.705 150.155 214.268 150.155 214.268V227.698Z" fill="#4A86F7"/>
<path d="M158.486 207.928C160.995 207.928 160.365 210.504 160.365 210.504C160.365 210.504 160.365 210.636 160.428 210.636C160.492 210.636 160.498 210.608 160.567 210.504C161.233 209.561 162.118 208.795 163.146 208.27C164.173 207.745 165.314 207.477 166.468 207.49C166.861 207.472 167.253 207.528 167.624 207.657V211.774C167.624 213.91 164.572 213.685 164.572 213.685V211.318C164.005 211.347 163.453 211.513 162.964 211.802C162.475 212.09 162.063 212.493 161.763 212.975C160.677 214.499 160.579 216.636 160.579 217.311V222.837H156.938V207.928H158.486Z" fill="#4A86F7"/>
<path d="M183.213 216.907C183.213 216.907 184.369 218.397 184.64 218.87C184.682 218.929 184.704 219 184.704 219.072C184.704 220.088 182.063 223.443 176.612 223.443C168.336 223.443 168.203 217.617 168.203 215.515C168.203 210.706 171.255 207.316 175.971 207.316C176.451 207.316 181.057 207.386 181.057 212.132V212.161C181.057 212.64 180.924 217.548 173.936 217.548C173.404 217.545 172.873 217.501 172.347 217.415L172.278 217.45C172.278 217.617 172.376 220.464 177.329 220.464C178.542 220.499 179.738 220.182 180.774 219.55C181.809 218.919 182.638 218.001 183.161 216.907H183.213ZM175.485 210.377C173.208 210.377 172.018 212.513 172.018 214.476C172.018 214.545 172.393 214.713 173.613 214.713C177.375 214.713 177.445 212.403 177.445 212.074C177.45 210.469 175.959 210.377 175.485 210.377Z" fill="#4A86F7"/>
<path d="M197.322 216.905C197.322 216.905 198.478 218.395 198.75 218.868C198.791 218.927 198.814 218.998 198.814 219.07C198.814 220.086 196.172 223.441 190.722 223.441C182.469 223.441 182.336 217.615 182.336 215.513C182.336 210.704 185.388 207.314 190.098 207.314H190.133C190.607 207.314 195.219 207.384 195.219 212.13V212.159C195.219 212.638 195.086 217.546 188.098 217.546C187.566 217.543 187.034 217.499 186.509 217.413L186.439 217.448C186.439 217.615 186.538 220.462 191.491 220.462C192.703 220.497 193.9 220.18 194.935 219.548C195.971 218.917 196.8 217.999 197.322 216.905ZM189.589 210.375C187.318 210.375 186.122 212.511 186.122 214.474C186.122 214.543 186.497 214.711 187.717 214.711C191.479 214.711 191.549 212.401 191.549 212.072C191.56 210.467 190.081 210.375 189.589 210.375Z" fill="#4A86F7"/>
<path d="M211.67 219.579C212.311 219.579 213.195 219.106 213.6 217.38L215.028 219.279C215.067 219.375 215.09 219.476 215.097 219.579C215.097 220.261 213.843 223.24 210.415 223.24C209.724 223.251 209.049 223.025 208.505 222.6C207.96 222.174 207.578 221.575 207.422 220.902C207.387 220.803 207.352 220.803 207.318 220.803L207.219 220.867C206.266 222.53 204.468 223.373 202.434 223.373C197.145 223.373 196.504 218.228 196.504 216.502C196.504 212.16 198.775 207.316 205.751 207.316C206.058 207.316 206.399 207.35 206.734 207.35V201.576C206.734 201.576 206.624 198.545 208.895 198.545H210.311V217.882C210.311 218.188 210.346 219.574 211.67 219.574V219.579ZM206.716 210.607C206.169 210.435 205.595 210.365 205.023 210.399C203.364 210.399 200.278 211.652 200.278 215.994C200.278 216.871 200.313 219.822 203.127 219.822C203.606 219.817 204.08 219.717 204.52 219.528C204.96 219.339 205.359 219.065 205.692 218.721C206.026 218.378 206.288 217.971 206.464 217.526C206.64 217.081 206.726 216.605 206.716 216.127V210.607Z" fill="#4A86F7"/>
<path d="M220.382 223.444C213.603 223.444 212.684 218.363 212.684 215.938C212.684 213.513 213.533 207.363 221.469 207.363C222.606 207.375 223.737 207.546 224.827 207.871V210.995C224.827 213.339 221.706 213.022 221.706 213.022V210.712C221.339 210.565 220.945 210.496 220.55 210.51C218.816 210.51 216.417 211.93 216.417 215.863C216.417 218.403 217.978 220.366 220.995 220.366C222.118 220.365 223.216 220.036 224.155 219.421C225.094 218.805 225.834 217.93 226.283 216.902C226.283 216.902 227.468 218.357 227.739 218.83C227.789 218.899 227.814 218.983 227.809 219.067C227.809 220.049 225.809 223.438 220.382 223.438" fill="#4A86F7"/>
<path d="M239.304 217.617C239.304 218.327 239.576 219.65 240.968 219.65C241.812 219.65 243.003 219.176 243.61 217.248L244.985 219.176C245.04 219.27 245.073 219.374 245.083 219.482C245.083 220.296 243.558 223.241 239.934 223.241C238.102 223.241 236.778 222.294 236.339 220.902C236.316 220.804 236.316 220.77 236.316 220.77L236.212 220.868C235.693 221.694 234.966 222.37 234.104 222.828C233.242 223.286 232.275 223.51 231.299 223.478C226.005 223.478 225.52 218.16 225.52 216.503C225.52 212.161 227.797 207.316 234.767 207.316C236.313 207.351 237.849 207.568 239.344 207.963V217.617H239.304ZM235.738 210.608C235.179 210.423 234.591 210.345 234.004 210.377C232.339 210.377 229.253 211.63 229.253 215.972C229.253 216.849 229.288 219.829 232.102 219.829C232.583 219.826 233.058 219.728 233.501 219.542C233.943 219.355 234.345 219.083 234.683 218.742C235.02 218.4 235.287 217.996 235.468 217.551C235.649 217.106 235.741 216.631 235.738 216.151V210.608Z" fill="#4A86F7"/>
<path d="M260.806 213.263C260.823 212.959 260.777 212.654 260.669 212.369C260.561 212.083 260.395 211.824 260.182 211.606C259.968 211.389 259.711 211.218 259.427 211.106C259.144 210.994 258.84 210.942 258.535 210.953C256.466 210.953 255.315 212.784 255.315 214.885V222.836H251.721V213.263C251.751 212.969 251.718 212.673 251.626 212.392C251.533 212.112 251.382 211.854 251.183 211.636C250.984 211.418 250.741 211.245 250.47 211.127C250.199 211.009 249.906 210.95 249.611 210.953C247.646 210.953 246.49 212.784 246.49 214.885V222.836H242.866V210.953C242.665 210.945 242.467 210.895 242.286 210.809C242.104 210.722 241.941 210.599 241.808 210.449C241.675 210.298 241.573 210.121 241.51 209.93C241.446 209.739 241.422 209.537 241.439 209.337V207.928H244.375C246.438 207.928 246.49 209.354 246.49 209.354C247.001 208.775 247.634 208.316 248.343 208.011C249.053 207.705 249.821 207.561 250.594 207.587C252.293 207.587 253.882 208.066 254.697 209.654C254.697 209.654 254.697 209.689 254.766 209.689L254.836 209.62C254.934 209.452 256.125 207.587 259.546 207.587C262.193 207.587 264.43 209.013 264.43 212.206C264.43 212.206 264.395 217.357 264.395 217.663C264.395 218.407 264.702 219.591 266.089 219.591C266.938 219.591 268.094 219.152 268.736 217.224L270.129 219.152C270.183 219.246 270.217 219.35 270.227 219.458C270.227 220.272 268.701 223.217 265.025 223.217C264.47 223.24 263.915 223.148 263.397 222.946C262.879 222.745 262.407 222.44 262.012 222.048C261.618 221.657 261.308 221.189 261.102 220.673C260.897 220.157 260.8 219.604 260.818 219.048V213.263" fill="#4A86F7"/>
<path d="M271.571 222.501V229.592C271.571 232.531 267.942 232.184 267.942 232.184V210.953C267.942 210.953 266.555 211.028 266.555 209.377V207.928H273.028C276.051 207.928 281.304 208.707 281.304 215.243C281.304 216.669 281.165 223.107 274.114 223.107C273.228 223.134 272.35 222.925 271.571 222.501ZM272.589 210.953C272.25 210.936 271.91 210.936 271.571 210.953V219.106C271.571 219.106 272.115 220.053 273.947 220.053C276.796 220.053 277.472 217.38 277.472 215.382C277.49 211.531 274.981 210.953 272.606 210.953H272.589Z" fill="#4A86F7"/>
<path d="M199.219 154.098C200.891 154.098 201.797 153.296 201.797 151.523C201.802 151.183 201.739 150.846 201.611 150.531C201.483 150.217 201.293 149.931 201.053 149.691C200.813 149.451 200.527 149.261 200.212 149.133C199.897 149.006 199.559 148.943 199.219 148.948C197.392 148.948 196.642 149.92 196.642 151.523C196.605 151.87 196.647 152.221 196.764 152.549C196.881 152.878 197.069 153.177 197.316 153.424C197.563 153.67 197.862 153.859 198.192 153.976C198.521 154.092 198.872 154.134 199.219 154.098Z" fill="#4A86F7"/>
<path d="M199.222 160.807C200.894 160.807 201.8 160.005 201.8 158.231V155.656H199.222C197.395 155.656 196.645 156.628 196.645 158.231C196.645 159.834 197.135 160.807 199.222 160.807Z" fill="#4A86F7"/>
<path d="M203.363 154.098H205.941C207.605 154.098 208.519 153.296 208.519 151.522V148.947H205.941C204.106 148.947 203.363 149.919 203.363 151.522V154.098Z" fill="#4A86F7"/>
<path d="M203.369 151.463C203.369 151.352 203.369 151.24 203.369 151.129H205.969V154.097C204.855 154.103 203.787 154.546 202.995 155.33C202.203 156.114 201.751 157.177 201.735 158.29H199.105V155.715C200.234 155.713 201.315 155.265 202.113 154.468C202.911 153.671 203.36 152.59 203.362 151.463" fill="#4A86F7"/>
<path d="M195.038 154.098H192.453C190.781 154.098 189.875 153.296 189.875 151.522V148.947H192.453C194.288 148.947 195.03 149.919 195.03 151.522V154.098" fill="#4A86F7"/>
<path d="M195.031 151.463C195.031 151.352 195.031 151.24 195.031 151.129H192.453V154.097C193.568 154.103 194.636 154.546 195.428 155.33C196.22 156.114 196.672 157.177 196.687 158.29H199.317V155.715C198.189 155.713 197.107 155.265 196.309 154.468C195.512 153.671 195.063 152.59 195.061 151.463" fill="#4A86F7"/>
<path d="M227.95 154.098C229.621 154.098 230.527 153.296 230.527 151.523C230.532 151.183 230.469 150.846 230.341 150.531C230.214 150.217 230.024 149.931 229.784 149.691C229.543 149.451 229.257 149.261 228.942 149.133C228.627 149.006 228.29 148.943 227.95 148.948C226.115 148.948 225.372 149.92 225.372 151.523C225.336 151.87 225.378 152.221 225.494 152.549C225.611 152.878 225.8 153.177 226.047 153.424C226.294 153.67 226.593 153.859 226.922 153.976C227.251 154.092 227.602 154.134 227.95 154.098Z" fill="#4A86F7"/>
<path d="M227.949 160.807C229.62 160.807 230.527 160.005 230.527 158.231V155.656H227.949C226.114 155.656 225.371 156.628 225.371 158.231C225.371 159.834 225.854 160.807 227.949 160.807Z" fill="#4A86F7"/>
<path d="M232.09 154.098H234.668C236.332 154.098 237.245 153.296 237.245 151.522V148.947H234.668C232.833 148.947 232.09 149.919 232.09 151.522V154.098Z" fill="#4A86F7"/>
<path d="M232.1 151.463C232.1 151.352 232.1 151.24 232.1 151.129H234.7V154.097C233.585 154.103 232.517 154.546 231.725 155.33C230.933 156.114 230.481 157.177 230.466 158.29H227.836V155.715C228.964 155.713 230.046 155.265 230.844 154.468C231.641 153.671 232.091 152.59 232.093 151.463" fill="#4A86F7"/>
<path d="M223.761 154.098H221.183C219.512 154.098 218.605 153.296 218.605 151.522V148.947H221.183C223.018 148.947 223.761 149.919 223.761 151.522V154.098Z" fill="#4A86F7"/>
<path d="M223.756 151.463C223.756 151.352 223.756 151.24 223.756 151.129H221.156V154.097C222.271 154.103 223.339 154.546 224.131 155.33C224.923 156.114 225.375 157.177 225.391 158.29H228.02V155.715C226.892 155.713 225.81 155.265 225.013 154.468C224.215 153.671 223.766 152.59 223.764 151.463" fill="#4A86F7"/>
<path d="M227.95 167.998C229.621 167.998 230.527 167.204 230.527 165.423C230.532 165.084 230.469 164.746 230.341 164.432C230.214 164.117 230.024 163.831 229.784 163.591C229.543 163.351 229.257 163.161 228.942 163.034C228.627 162.906 228.29 162.843 227.95 162.848C226.115 162.848 225.372 163.82 225.372 165.423C225.336 165.77 225.378 166.121 225.494 166.45C225.611 166.779 225.8 167.077 226.047 167.324C226.294 167.571 226.593 167.759 226.922 167.876C227.251 167.993 227.602 168.034 227.95 167.998Z" fill="#4A86F7"/>
<path d="M227.949 174.722C229.62 174.722 230.527 173.928 230.527 172.147V169.564H227.949C226.114 169.564 225.371 170.537 225.371 172.132C225.371 173.728 225.884 174.722 227.949 174.722Z" fill="#4A86F7"/>
<path d="M232.09 167.998H234.668C236.332 167.998 237.245 167.204 237.245 165.423V162.848H234.668C232.833 162.848 232.09 163.82 232.09 165.423V167.998Z" fill="#4A86F7"/>
<path d="M232.1 165.371C232.1 165.252 232.1 165.148 232.1 165.037H234.7V168.006C233.586 168.009 232.518 168.45 231.726 169.233C230.934 170.016 230.481 171.078 230.466 172.191H227.836V169.616C228.964 169.616 230.045 169.169 230.843 168.373C231.641 167.577 232.091 166.498 232.093 165.371" fill="#4A86F7"/>
<path d="M223.761 167.998H221.183C219.512 167.998 218.605 167.204 218.605 165.423V162.848H221.183C223.018 162.848 223.761 163.82 223.761 165.423V167.998Z" fill="#4A86F7"/>
<path d="M223.756 165.371C223.756 165.252 223.756 165.148 223.756 165.037H221.156V168.006C222.27 168.011 223.337 168.453 224.128 169.235C224.92 170.018 225.373 171.079 225.391 172.191H228.02V169.616C226.893 169.616 225.811 169.169 225.013 168.373C224.215 167.577 223.766 166.498 223.764 165.371" fill="#4A86F7"/>
<path d="M199.368 167.998C201.039 167.998 201.945 167.204 201.945 165.423C201.95 165.084 201.887 164.746 201.759 164.432C201.632 164.117 201.442 163.831 201.202 163.591C200.961 163.351 200.675 163.161 200.36 163.034C200.045 162.906 199.708 162.843 199.368 162.848C197.533 162.848 196.79 163.82 196.79 165.423C196.754 165.77 196.796 166.121 196.912 166.45C197.029 166.779 197.218 167.077 197.465 167.324C197.712 167.571 198.011 167.759 198.34 167.876C198.669 167.993 199.02 168.034 199.368 167.998Z" fill="#4A86F7"/>
<path d="M199.371 174.722C201.042 174.722 201.948 173.928 201.948 172.147V169.564H199.371C197.536 169.564 196.793 170.537 196.793 172.132C196.793 173.728 197.276 174.707 199.371 174.707" fill="#4A86F7"/>
<path d="M203.504 167.998H206.089C207.753 167.998 208.667 167.204 208.667 165.423V162.848H206.089C204.254 162.848 203.504 163.82 203.504 165.423V167.998Z" fill="#4A86F7"/>
<path d="M203.518 165.371C203.518 165.252 203.518 165.148 203.518 165.037H206.118V168.006C205.004 168.009 203.936 168.45 203.144 169.233C202.352 170.016 201.899 171.078 201.884 172.191H199.254V169.616C200.382 169.616 201.463 169.169 202.261 168.373C203.059 167.577 203.509 166.498 203.51 165.371" fill="#4A86F7"/>
<path d="M195.187 167.998H192.609C190.938 167.998 190.031 167.204 190.031 165.423V162.848H192.609C194.444 162.848 195.187 163.82 195.187 165.423V167.998Z" fill="#4A86F7"/>
<path d="M195.178 165.371C195.178 165.252 195.178 165.148 195.178 165.037H192.578V168.006C193.692 168.011 194.759 168.453 195.55 169.235C196.342 170.018 196.795 171.079 196.812 172.191H199.435V169.616C198.307 169.616 197.226 169.169 196.427 168.373C195.629 167.577 195.18 166.498 195.178 165.371Z" fill="#4A86F7"/>
<path d="M213.407 160.979C215.078 160.979 215.984 160.185 215.984 158.404C215.989 158.064 215.926 157.727 215.798 157.412C215.671 157.098 215.481 156.812 215.241 156.572C215 156.331 214.714 156.142 214.399 156.014C214.084 155.887 213.747 155.823 213.407 155.828C211.572 155.828 210.829 156.801 210.829 158.404C210.793 158.751 210.835 159.101 210.951 159.43C211.068 159.759 211.257 160.058 211.504 160.305C211.751 160.551 212.05 160.74 212.379 160.856C212.708 160.973 213.059 161.015 213.407 160.979Z" fill="#4A86F7"/>
<path d="M213.41 167.686C215.081 167.686 215.987 166.891 215.987 165.118V162.535H213.41C211.575 162.535 210.832 163.515 210.832 165.118C210.832 166.721 211.315 167.686 213.41 167.686Z" fill="#4A86F7"/>
<path d="M217.551 160.979H220.129C221.8 160.979 222.706 160.184 222.706 158.403V155.828H220.129C218.294 155.828 217.551 156.8 217.551 158.403V160.979Z" fill="#4A86F7"/>
<path d="M217.555 158.344C217.555 158.233 217.555 158.129 217.555 158.018H220.155V160.986C219.04 160.99 217.97 161.432 217.178 162.216C216.386 163.001 215.934 164.065 215.921 165.179H213.254V162.597C213.814 162.597 214.368 162.486 214.885 162.272C215.401 162.058 215.871 161.744 216.266 161.348C216.662 160.953 216.975 160.483 217.189 159.966C217.402 159.45 217.511 158.896 217.51 158.337" fill="#4A86F7"/>
<path d="M209.23 160.977H206.652C204.98 160.977 204.074 160.182 204.074 158.401V155.826H206.652C208.487 155.826 209.23 156.798 209.23 158.401V160.977Z" fill="#4A86F7"/>
<path d="M209.217 158.342C209.217 158.231 209.217 158.127 209.217 158.016H206.609V160.984C207.725 160.988 208.795 161.43 209.589 162.214C210.382 162.998 210.836 164.062 210.851 165.177H213.473V162.595C212.914 162.595 212.36 162.484 211.843 162.27C211.326 162.056 210.856 161.742 210.461 161.346C210.066 160.951 209.752 160.481 209.539 159.964C209.325 159.448 209.216 158.894 209.217 158.335" fill="#4A86F7"/>
<path d="M213.407 175.219C215.078 175.219 215.984 174.425 215.984 172.644C215.989 172.304 215.926 171.967 215.798 171.652C215.671 171.338 215.481 171.052 215.241 170.812C215 170.572 214.714 170.382 214.399 170.254C214.084 170.127 213.747 170.064 213.407 170.069C211.572 170.069 210.829 171.041 210.829 172.644C210.793 172.991 210.835 173.342 210.951 173.67C211.068 173.999 211.257 174.298 211.504 174.545C211.751 174.791 212.05 174.98 212.379 175.097C212.708 175.213 213.059 175.255 213.407 175.219Z" fill="#4A86F7"/>
<path d="M213.41 181.928C215.081 181.928 215.987 181.134 215.987 179.353V176.777H213.41C211.575 176.777 210.832 177.75 210.832 179.353C210.832 180.956 211.315 181.928 213.41 181.928Z" fill="#4A86F7"/>
<path d="M217.551 175.219H220.129C221.8 175.219 222.706 174.425 222.706 172.644V170.068H220.129C218.294 170.068 217.551 171.041 217.551 172.644V175.219Z" fill="#4A86F7"/>
<path d="M217.555 172.584C217.555 172.473 217.555 172.361 217.555 172.25H220.155V175.219C219.041 175.222 217.973 175.663 217.181 176.446C216.389 177.229 215.936 178.291 215.921 179.404H213.254V176.836C213.813 176.837 214.367 176.728 214.884 176.515C215.401 176.301 215.87 175.988 216.266 175.593C216.661 175.198 216.975 174.729 217.188 174.212C217.402 173.696 217.511 173.143 217.51 172.584" fill="#4A86F7"/>
<path d="M209.23 175.219H206.652C204.98 175.219 204.074 174.425 204.074 172.644V170.068H206.652C208.487 170.068 209.23 171.041 209.23 172.644V175.219Z" fill="#4A86F7"/>
<path d="M209.217 172.584C209.217 172.473 209.217 172.361 209.217 172.25H206.609V175.219C207.724 175.222 208.793 175.663 209.586 176.446C210.379 177.228 210.834 178.291 210.851 179.404H213.473V176.836C212.914 176.837 212.36 176.728 211.843 176.515C211.326 176.301 210.857 175.988 210.461 175.593C210.066 175.198 209.752 174.729 209.539 174.212C209.325 173.696 209.216 173.143 209.217 172.584Z" fill="#4A86F7"/>
<path d="M213.407 147.151C215.078 147.151 215.984 146.349 215.984 144.575C215.989 144.236 215.926 143.899 215.798 143.584C215.671 143.269 215.481 142.984 215.241 142.743C215 142.503 214.714 142.314 214.399 142.186C214.084 142.058 213.747 141.995 213.407 142C211.572 142 210.829 142.972 210.829 144.575C210.793 144.923 210.835 145.273 210.951 145.602C211.068 145.931 211.257 146.23 211.504 146.476C211.751 146.723 212.05 146.912 212.379 147.028C212.708 147.145 213.059 147.187 213.407 147.151Z" fill="#4A86F7"/>
<path d="M213.41 153.859C215.081 153.859 215.987 153.065 215.987 151.284V148.746H213.41C211.575 148.746 210.832 149.718 210.832 151.321C210.832 152.924 211.315 153.896 213.41 153.896" fill="#4A86F7"/>
<path d="M217.551 147.152H220.129C221.8 147.152 222.706 146.351 222.706 144.577V142.002H220.129C218.294 142.002 217.551 142.974 217.551 144.577V147.152Z" fill="#4A86F7"/>
<path d="M217.555 144.518C217.555 144.406 217.555 144.295 217.555 144.184H220.155V147.152C219.04 147.158 217.972 147.6 217.18 148.384C216.389 149.168 215.936 150.232 215.921 151.345H213.254V148.748C213.813 148.749 214.367 148.639 214.884 148.426C215.401 148.213 215.87 147.899 216.266 147.504C216.661 147.109 216.975 146.64 217.188 146.124C217.402 145.607 217.511 145.054 217.51 144.495" fill="#4A86F7"/>
<path d="M209.23 147.152H206.652C204.98 147.152 204.074 146.351 204.074 144.577V142.002H206.652C208.487 142.002 209.23 142.974 209.23 144.577V147.152Z" fill="#4A86F7"/>
<path d="M209.217 144.518C209.217 144.406 209.217 144.295 209.217 144.184H206.609V147.152C207.725 147.158 208.794 147.6 209.587 148.384C210.38 149.168 210.834 150.231 210.851 151.345H213.473V148.748C212.914 148.749 212.36 148.639 211.843 148.426C211.326 148.213 210.857 147.899 210.461 147.504C210.066 147.109 209.752 146.64 209.539 146.124C209.325 145.607 209.216 145.054 209.217 144.495" fill="#4A86F7"/>
<path d="M215.866 183.284C215.864 183.744 215.68 184.185 215.355 184.51C215.029 184.835 214.588 185.019 214.128 185.021H212.516C212.287 185.021 212.061 184.976 211.85 184.889C211.64 184.801 211.448 184.674 211.286 184.512C211.125 184.351 210.997 184.16 210.91 183.949C210.822 183.738 210.777 183.512 210.777 183.284V179.299C210.777 179.071 210.822 178.845 210.91 178.635C210.997 178.424 211.125 178.232 211.286 178.071C211.448 177.91 211.64 177.782 211.85 177.695C212.061 177.607 212.287 177.562 212.516 177.562H214.143C214.603 177.564 215.044 177.748 215.37 178.073C215.695 178.399 215.879 178.839 215.881 179.299V183.284" fill="#4A86F7"/>
<defs>
<filter id="filter0_d_2477_78405" x="69" y="59" width="290" height="290" filterUnits="userSpaceOnUse" color-interpolation-filters="sRGB">
<feFlood flood-opacity="0" result="BackgroundImageFix"/>
<feColorMatrix in="SourceAlpha" type="matrix" values="0 0 0 0 0 0 0 0 0 0 0 0 0 0 0 0 0 0 127 0" result="hardAlpha"/>
<feOffset dx="1" dy="16"/>
<feGaussianBlur stdDeviation="30"/>
<feComposite in2="hardAlpha" operator="out"/>
<feColorMatrix type="matrix" values="0 0 0 0 0.575 0 0 0 0 0.606167 0 0 0 0 0.716667 0 0 0 0.12 0"/>
<feBlend mode="normal" in2="BackgroundImageFix" result="effect1_dropShadow_2477_78405"/>
<feBlend mode="normal" in="SourceGraphic" in2="effect1_dropShadow_2477_78405" result="shape"/>
</filter>
</defs>
</svg>
