<svg width="149" height="149" viewBox="0 0 149 149" fill="none" xmlns="http://www.w3.org/2000/svg">
<path d="M148.809 74.4044L74.4044 0L5.78353e-06 74.4044L74.4044 148.809L148.809 74.4044Z" fill="#C7BAAF"/>
<path d="M144.833 74.4042L74.4045 3.97559L3.97595 74.4042L74.4045 144.833L144.833 74.4042Z" fill="#F06A2B"/>
<path d="M140.289 74.4043L74.4045 8.51953L8.51973 74.4043L74.4045 140.289L140.289 74.4043Z" fill="white"/>
<path fill-rule="evenodd" clip-rule="evenodd" d="M48.3946 97.1914L49.5739 99.7031L52.2103 100.106L50.3021 102.061L50.7532 104.822L48.3946 103.519L46.0366 104.822L46.4871 102.061L44.5796 100.106L47.2159 99.7031L48.3946 97.1914Z" fill="#FFCB00"/>
<path fill-rule="evenodd" clip-rule="evenodd" d="M100.605 97.1914L101.785 99.7031L104.421 100.106L102.513 102.061L102.964 104.822L100.605 103.519L98.2474 104.822L98.6978 102.061L96.7903 100.106L99.4267 99.7031L100.605 97.1914Z" fill="#FFCB00"/>
<path fill-rule="evenodd" clip-rule="evenodd" d="M72.6483 20.0801H75.6414C75.7877 20.0801 75.9064 20.1987 75.9064 20.345V20.4518C75.9064 20.5535 75.8678 20.6513 75.7986 20.7256L66.39 30.8227C66.2465 30.9766 66.2462 31.2152 66.3892 31.3695L73.8274 39.3961C73.9689 39.5488 73.9702 39.7844 73.8304 39.9387L72.4669 41.4432C72.318 41.6076 72.064 41.6201 71.8996 41.4711C71.8911 41.4634 71.883 41.4554 71.8752 41.447L62.5054 31.3689C62.3622 31.2149 62.362 30.9765 62.5051 30.8223L72.3539 20.2085C72.4299 20.1266 72.5366 20.0801 72.6483 20.0801Z" fill="#F06A2A"/>
<path fill-rule="evenodd" clip-rule="evenodd" d="M76.3424 43.374H73.3621C73.2145 43.374 73.0949 43.2544 73.0949 43.1068V42.995C73.0949 42.895 73.1322 42.7985 73.1995 42.7246L82.6061 32.3925C82.7455 32.2394 82.7456 32.0054 82.6064 31.8521L75.176 23.672C75.0376 23.5196 75.0368 23.2873 75.1742 23.134L76.5348 21.6154C76.6829 21.4502 76.9368 21.4362 77.102 21.5843C77.1118 21.5931 77.1213 21.6024 77.1302 21.6122L86.5025 31.8522C86.6427 32.0053 86.643 32.2399 86.5034 32.3935L76.6395 43.2426C76.5634 43.3263 76.4555 43.374 76.3424 43.374Z" fill="#F06A2A"/>
<path fill-rule="evenodd" clip-rule="evenodd" d="M74.9939 36.9494C76.9448 36.9494 78.4836 34.7532 78.3011 32.405C78.2199 31.3602 77.5865 29.4899 77.3718 29.8227C77.2657 29.987 77.5063 31.2703 77.4275 32.0552C77.2965 33.3602 76.8028 34.1548 76.5505 33.6902C76.2983 33.2257 76.3849 32.3087 76.3236 31.3436C76.2572 30.2972 76.0841 29.255 75.8689 28.6086C75.7751 28.3266 74.8921 25.9303 74.2554 25.7041C74.2141 25.7041 74.1881 25.7041 74.1776 25.7041C74.157 25.7041 74.0986 25.7241 74.063 25.7559C73.9227 25.8809 74.1337 26.7034 73.5493 27.7052C73.1656 28.3628 72.418 29.2202 72.0515 30.0621C71.5553 31.2021 71.4668 32.3191 71.4923 32.909C71.6036 35.4823 73.043 36.9494 74.9939 36.9494Z" fill="#F06A2A"/>
<path fill-rule="evenodd" clip-rule="evenodd" d="M27.0482 59.8408H121.764L136.551 74.4998L121.764 89.1589H27.0482L12.451 74.4998L27.0482 59.8408Z" fill="url(#paint0_linear_2700_118431)"/>
<path fill-rule="evenodd" clip-rule="evenodd" d="M43.0411 49.6052C43.0124 49.6633 42.9715 49.6931 42.9018 49.6931C42.8609 49.6931 42.8049 49.6633 42.7352 49.591C42.6669 49.5187 42.5686 49.4478 42.458 49.3755C42.3324 49.2876 42.1931 49.2167 42.0128 49.1586C41.8325 49.0863 41.6099 49.0565 41.3464 49.0565C41.0815 49.0565 40.8602 49.1019 40.6513 49.1728C40.4574 49.2451 40.2908 49.3599 40.1515 49.4904C40.0122 49.6208 39.9152 49.7782 39.8456 49.9511C39.7759 50.1241 39.7349 50.3127 39.7349 50.4998C39.7349 50.7593 39.7909 50.9621 39.8865 51.135C39.9849 51.2924 40.1242 51.437 40.3044 51.5533C40.471 51.6681 40.6649 51.7688 40.8875 51.8411C41.1101 51.929 41.3327 51.9999 41.5553 52.0722C41.7766 52.1445 41.9992 52.231 42.2217 52.3317C42.4443 52.4182 42.6246 52.5486 42.8049 52.6776C42.9851 52.8081 43.1108 52.9966 43.2214 53.1965C43.3197 53.3993 43.3743 53.6588 43.3743 53.9622C43.3743 54.2798 43.3197 54.5676 43.2214 54.8412C43.1244 55.1163 42.9715 55.3616 42.7776 55.5629C42.5836 55.7656 42.3324 55.923 42.0551 56.0535C41.7629 56.1683 41.4433 56.2264 41.0815 56.2264C40.6103 56.2264 40.1938 56.1399 39.8592 55.967C39.5124 55.794 39.2201 55.5473 38.9565 55.2467L39.0958 55.0142C39.1368 54.9561 39.1791 54.9433 39.2338 54.9433C39.2624 54.9433 39.3034 54.9561 39.3457 55.0014C39.3867 55.044 39.4564 55.1021 39.5124 55.1588C39.582 55.2169 39.6653 55.2892 39.7623 55.3616C39.8592 55.4324 39.9698 55.5048 40.0955 55.5629C40.2211 55.621 40.3604 55.6777 40.527 55.7203C40.6936 55.7656 40.8739 55.7784 41.0815 55.7784C41.3737 55.7784 41.6236 55.7359 41.8462 55.6494C42.0688 55.5629 42.2627 55.4324 42.4157 55.2892C42.5686 55.1446 42.6943 54.9433 42.7776 54.7406C42.8609 54.525 42.9018 54.2939 42.9018 54.0628C42.9018 53.8034 42.8458 53.5879 42.7502 53.4149C42.6519 53.2405 42.5126 53.0959 42.3324 52.981C42.1658 52.8662 41.9718 52.7655 41.7492 52.6932C41.5266 52.6209 41.3054 52.533 41.0815 52.4621C40.8602 52.3898 40.6376 52.3019 40.415 52.2168C40.1938 52.1289 40.0122 52.0141 39.8319 51.8709C39.6653 51.7263 39.526 51.5533 39.4154 51.3364C39.3171 51.1194 39.2624 50.8614 39.2624 50.5282C39.2624 50.2843 39.3034 50.039 39.4004 49.8079C39.4987 49.5754 39.6243 49.3755 39.8032 49.1869C39.9849 49.014 40.1938 48.8693 40.4574 48.7545C40.7209 48.6538 41.0132 48.5957 41.3464 48.5957C41.7219 48.5957 42.0551 48.6538 42.3597 48.7843C42.6519 48.9133 42.9291 49.1019 43.1804 49.3457L43.0411 49.6052Z" fill="black" stroke="black" stroke-width="0.200809"/>
<path fill-rule="evenodd" clip-rule="evenodd" d="M50.5345 52.4104C50.5345 51.8949 50.4637 51.4217 50.3222 51.0063C50.1821 50.5908 49.9838 50.2472 49.7299 49.9613C49.476 49.674 49.1653 49.4585 48.7991 49.3022C48.4315 49.1444 48.0362 49.0726 47.5992 49.0726C47.1609 49.0726 46.7669 49.1444 46.3993 49.3022C46.0317 49.4585 45.7224 49.674 45.4685 49.9613C45.2147 50.2472 45.0024 50.5908 44.8609 51.0063C44.7194 51.4217 44.6487 51.8808 44.6487 52.4104C44.6487 52.9258 44.7194 53.399 44.8609 53.8145C45.0024 54.2299 45.1994 54.5736 45.4685 54.8609C45.7224 55.1467 46.0317 55.3622 46.3993 55.52C46.7669 55.6763 47.1609 55.7495 47.5992 55.7495C48.0362 55.7495 48.4454 55.6763 48.7991 55.52C49.1653 55.3763 49.476 55.1467 49.7299 54.8609C49.9838 54.5736 50.1821 54.2299 50.3222 53.8145C50.4637 53.399 50.5345 52.9413 50.5345 52.4104ZM51.0053 52.4111C51.0053 52.9849 50.9226 53.501 50.7572 53.9747C50.5917 54.4485 50.3571 54.8489 50.0548 55.1802C49.751 55.5088 49.393 55.7682 48.9781 55.9543C48.5645 56.1418 48.0953 56.2264 47.5855 56.2264C47.0878 56.2264 46.62 56.1418 46.2051 55.9543C45.7915 55.7682 45.4335 55.5243 45.1284 55.1802C44.826 54.8489 44.5914 54.4485 44.426 53.9747C44.2605 53.501 44.1778 52.9849 44.1778 52.4111C44.1778 51.8386 44.2605 51.3212 44.426 50.8488C44.5914 50.3751 44.826 49.9732 45.1284 49.6433C45.4335 49.3134 45.7915 49.0539 46.2051 48.8678C46.62 48.6817 47.0878 48.5957 47.5855 48.5957C48.0953 48.5957 48.5645 48.6817 48.9781 48.8678C49.393 49.0539 49.751 49.2993 50.0548 49.6433C50.3571 49.9732 50.5917 50.3751 50.7572 50.8488C50.9226 51.3212 51.0053 51.8386 51.0053 52.4111Z" fill="black" stroke="black" stroke-width="0.200809"/>
<path fill-rule="evenodd" clip-rule="evenodd" d="M54.8341 55.7478C55.1649 55.7478 55.4567 55.6892 55.7223 55.5578C55.9867 55.4264 56.199 55.2521 56.3839 55.0349C56.5701 54.8177 56.7017 54.5406 56.7941 54.2505C56.8879 53.9448 56.94 53.6262 56.94 53.2619V48.5957H57.431V53.2619C57.431 53.6833 57.3646 54.0605 57.2461 54.4248C57.1262 54.7877 56.953 55.0935 56.729 55.3692C56.5037 55.6307 56.225 55.8493 55.9073 55.995C55.5895 56.1393 55.2183 56.2264 54.8211 56.2264C54.4239 56.2264 54.0514 56.1536 53.7337 55.995C53.4159 55.835 53.1385 55.6307 52.9119 55.3692C52.6879 55.1078 52.5147 54.7877 52.3962 54.4248C52.2764 54.0605 52.21 53.669 52.21 53.2619V48.5957H52.714V53.2476C52.714 53.5962 52.7674 53.9305 52.8598 54.2348C52.9523 54.5406 53.0981 54.802 53.2701 55.0206C53.4563 55.2392 53.6673 55.4135 53.9329 55.5435C54.1973 55.6892 54.5034 55.7478 54.8341 55.7478Z" fill="black" stroke="black" stroke-width="0.200809"/>
<path fill-rule="evenodd" clip-rule="evenodd" d="M60.9471 52.161H61.0891H61.4332C61.7944 52.161 62.1247 52.1199 62.4071 52.0501C62.6896 51.9652 62.9411 51.868 63.1294 51.716C63.3332 51.575 63.4752 51.3942 63.5847 51.1998C63.6943 51.004 63.7422 50.7672 63.7422 50.518C63.7422 50.0018 63.5539 49.6253 63.1773 49.3747C62.8007 49.1242 62.2497 48.9982 61.5119 48.9982H60.021V52.161V52.5512V55.8248H59.4391V48.5957H61.5119C62.455 48.5957 63.1619 48.7627 63.6156 49.0831C64.0879 49.4021 64.3071 49.8759 64.3071 50.5029C64.3071 50.7822 64.2592 51.0328 64.1512 51.256C64.0401 51.4778 63.8826 51.6872 63.6789 51.8543C63.4752 52.0213 63.239 52.1747 62.9566 52.2719C62.6741 52.3841 62.3438 52.454 61.9997 52.495C62.0938 52.5512 62.171 52.621 62.2497 52.7032L65.0618 55.8248H64.5432C64.4799 55.8248 64.4336 55.8098 64.3858 55.7961C64.3395 55.7837 64.2916 55.7399 64.2592 55.6989L61.6539 52.773C61.5907 52.7032 61.5119 52.6484 61.4502 52.621C61.3715 52.5923 60.9146 52.5799 60.7588 52.5799C60.7588 52.202 60.8205 52.161 60.9471 52.161Z" fill="black" stroke="black" stroke-width="0.200809"/>
<path fill-rule="evenodd" clip-rule="evenodd" d="M70.0086 54.8901C70.0357 54.8901 70.0743 54.9057 70.0872 54.9325L70.2831 55.1628C70.1401 55.3224 69.9958 55.4792 69.8244 55.6091C69.6543 55.7391 69.4714 55.8535 69.2742 55.9397C69.0784 56.0258 68.8542 56.0965 68.6326 56.1558C68.3968 56.2137 68.134 56.2264 67.8596 56.2264C67.3867 56.2264 66.9538 56.1403 66.5608 55.9538C66.1679 55.7673 65.8264 55.5216 65.552 55.1769C65.2763 54.8478 65.0534 54.4452 64.8962 53.9705C64.739 53.4973 64.6604 52.9789 64.6604 52.404C64.6604 51.8446 64.739 51.3262 64.9091 50.853C65.0676 50.3784 65.3033 49.9899 65.5907 49.6452C65.8793 49.3147 66.2336 49.0548 66.6394 48.8683C67.0466 48.6819 67.5053 48.5957 67.9897 48.5957C68.2384 48.5957 68.4613 48.6098 68.6713 48.6536C68.8813 48.696 69.0655 48.7539 69.2485 48.826C69.4314 48.898 69.5886 48.9983 69.7458 49.1127C69.903 49.2271 70.0615 49.3571 70.2045 49.5012L70.0615 49.7314C70.0357 49.7738 69.9958 49.7893 69.9429 49.7893C69.9172 49.7893 69.8772 49.7738 69.8386 49.7314C69.7986 49.6876 69.7329 49.6452 69.6672 49.5873C69.6028 49.5294 69.51 49.4729 69.4185 49.415C69.3271 49.343 69.2085 49.285 69.0655 49.2427C68.9341 49.1847 68.7756 49.1424 68.5927 49.0986C68.4226 49.0548 68.2126 49.0407 67.9897 49.0407C67.5697 49.0407 67.1896 49.1127 66.8494 49.2709C66.5093 49.4291 66.2078 49.6452 65.9579 49.9461C65.7092 50.2343 65.5121 50.5931 65.3678 50.9957C65.2248 51.3983 65.159 51.8715 65.159 52.3885C65.159 52.921 65.2248 53.3815 65.3678 53.7982C65.5121 54.2135 65.6963 54.5596 65.945 54.8478C66.1949 55.1345 66.4822 55.3492 66.8108 55.5074C67.1381 55.6671 67.5053 55.7391 67.8853 55.7391C68.134 55.7391 68.344 55.7236 68.5398 55.6812C68.737 55.6515 68.9083 55.595 69.0655 55.5216C69.2227 55.4495 69.3799 55.3648 69.51 55.2645C69.6543 55.1628 69.7857 55.0483 69.9172 54.9057C69.93 54.8901 69.9429 54.876 69.9558 54.876C69.9687 54.9057 69.9958 54.8901 70.0086 54.8901Z" fill="black" stroke="black" stroke-width="0.200809"/>
<path fill-rule="evenodd" clip-rule="evenodd" d="M76.3076 48.5957V49.0278H72.0776V51.9592H75.5947V52.3776H72.0776V55.3927H76.3076V55.8248H71.4882V48.5957H76.3076Z" fill="black" stroke="black" stroke-width="0.200809"/>
<path fill-rule="evenodd" clip-rule="evenodd" d="M82.3314 48.5957V49.7328H78.6576V51.9873H81.7537V53.123H78.6576V56.2264H77.1104V48.6112H82.3314V48.5957Z" fill="black"/>
<path fill-rule="evenodd" clip-rule="evenodd" d="M88.9326 52.4111C88.9326 52.0042 88.8756 51.6388 88.7615 51.3174C88.6489 50.9947 88.4945 50.7148 88.2956 50.4886C88.0967 50.2638 87.8422 50.0955 87.5459 49.97C87.2483 49.8445 86.9228 49.788 86.5557 49.788C86.1871 49.788 85.8616 49.8445 85.5654 49.97C85.2677 50.0955 85.0271 50.2638 84.8143 50.4886C84.6029 50.7148 84.4471 50.9947 84.3331 51.3174C84.2204 51.6388 84.1634 52.0042 84.1634 52.4111C84.1634 52.8179 84.2204 53.1834 84.3331 53.5061C84.4471 53.8274 84.6029 54.1087 84.8143 54.3335C85.0271 54.5583 85.2677 54.7266 85.5654 54.8535C85.8616 54.979 86.1871 55.0341 86.5557 55.0341C86.9228 55.0341 87.2483 54.979 87.5459 54.8535C87.8422 54.7266 88.0828 54.5583 88.2956 54.3335C88.4945 54.1087 88.6489 53.8274 88.7615 53.5061C88.8756 53.1834 88.9326 52.8179 88.9326 52.4111ZM90.3634 52.4111C90.3634 52.9605 90.2783 53.4684 90.0943 53.932C89.9102 54.3969 89.6551 54.8038 89.3135 55.1429C88.9886 55.4805 88.5773 55.7476 88.1089 55.9455C87.6404 56.142 87.1162 56.2264 86.5487 56.2264C85.9812 56.2264 85.4556 56.1296 84.9871 55.9455C84.5201 55.7476 84.1227 55.4957 83.7825 55.1429C83.4409 54.8038 83.1858 54.3969 83.0017 53.932C82.8177 53.4684 82.7326 52.9605 82.7326 52.4111C82.7326 51.863 82.8177 51.3552 83.0017 50.8902C83.1858 50.4252 83.4409 50.0183 83.7825 49.6793C84.1227 49.3416 84.5201 49.0745 84.9871 48.8766C85.4556 48.6801 85.9812 48.5957 86.5487 48.5957C87.1162 48.5957 87.6404 48.694 88.1089 48.8919C88.5773 49.0897 88.9733 49.3568 89.3135 49.6945C89.6397 50.0322 89.9102 50.4404 90.0943 50.9054C90.2644 51.3552 90.3634 51.863 90.3634 52.4111Z" fill="black"/>
<path fill-rule="evenodd" clip-rule="evenodd" d="M92.9113 52.2235H93.202C93.4418 52.2235 93.6443 52.1938 93.8208 52.123C93.9985 52.0508 94.1376 51.9645 94.2519 51.8484C94.365 51.7338 94.4532 51.5908 94.5042 51.4309C94.5551 51.2737 94.5924 51.0855 94.5924 50.8987C94.5924 50.5094 94.4793 50.2079 94.2519 50.0069C94.0246 49.8045 93.6829 49.6899 93.2269 49.6899H92.4192V52.2235V53.2469V56.2264H91.1668V48.5957H93.2144C93.6692 48.5957 94.0618 48.6537 94.3898 48.7542C94.7191 48.8533 94.9838 49.0118 95.1875 49.1987C95.3888 49.3869 95.5528 49.6318 95.6423 49.8923C95.7429 50.164 95.7939 50.4528 95.7939 50.7826C95.7939 51.043 95.7554 51.2879 95.692 51.5186C95.6299 51.7479 95.528 51.9503 95.4012 52.1372C95.2745 52.324 95.1229 52.484 94.9341 52.6269C94.744 52.7713 94.5414 52.886 94.3016 52.9596C94.4532 53.0586 94.5924 53.203 94.7067 53.3899L96.3878 56.2123H95.2633C95.149 56.2123 95.0596 56.184 94.9838 56.1415C94.908 56.0976 94.8459 56.0269 94.7949 55.9249L93.3921 53.4776C93.3536 53.4196 93.2778 53.2894 93.202 53.2752H92.7597V52.3537C92.7721 52.2235 92.9113 52.2235 92.9113 52.2235Z" fill="black"/>
<path fill-rule="evenodd" clip-rule="evenodd" d="M100.799 55.1448C101.118 55.1448 101.408 55.1158 101.641 55.0592C101.874 55.0039 102.106 54.9196 102.323 54.8216V53.1349H101.365C101.278 53.1349 101.206 53.1059 101.147 53.0645C101.09 53.0078 101.06 52.9526 101.06 52.8821V52.0947H103.617V55.4404C103.429 55.5799 103.224 55.6918 103.006 55.7913C102.789 55.8894 102.57 55.975 102.323 56.0441C102.078 56.1145 101.831 56.156 101.554 56.185C101.278 56.2126 100.987 56.2264 100.669 56.2264C100.102 56.2264 99.5936 56.1284 99.1139 55.946C98.6342 55.7623 98.2273 55.4957 97.8932 55.1586C97.5448 54.8216 97.2835 54.4141 97.0808 53.9499C96.8909 53.4872 96.7895 52.9664 96.7895 52.418C96.7895 51.8558 96.8766 51.3502 97.0665 50.8722C97.255 50.4081 97.5162 50.0006 97.8646 49.6635C98.213 49.3265 98.6342 49.0598 99.1282 48.8775C99.6222 48.6938 100.175 48.5957 100.784 48.5957C101.408 48.5957 101.961 48.68 102.411 48.8623C102.876 49.046 103.254 49.285 103.573 49.5654L103.152 50.1981C103.064 50.3252 102.963 50.3956 102.832 50.3956C102.745 50.3956 102.658 50.3666 102.57 50.31C102.455 50.2395 102.339 50.1829 102.222 50.1125C102.106 50.0434 101.975 49.9881 101.831 49.9439C101.685 49.9025 101.525 49.861 101.351 49.832C101.177 49.8044 100.959 49.7906 100.726 49.7906C100.349 49.7906 99.9991 49.8458 99.695 49.9729C99.3895 50.1 99.1282 50.2686 98.9112 50.5075C98.6927 50.7327 98.5328 51.0131 98.4172 51.3364C98.3001 51.6596 98.2415 52.0243 98.2415 52.418C98.2415 52.8545 98.3001 53.233 98.4314 53.57C98.5628 53.9071 98.737 54.1889 98.954 54.4141C99.1724 54.6392 99.448 54.8216 99.7535 54.9473C100.058 55.0744 100.436 55.1448 100.799 55.1448Z" fill="black"/>
<path fill-rule="evenodd" clip-rule="evenodd" d="M108.5 53.1603H105.983V55.0888H109.642V56.2264H104.421V48.5957H109.642V49.7347H105.968V52.0807H108.86V52.9155C108.86 52.9155 108.844 53.1603 108.5 53.1603Z" fill="black"/>
<path d="M24.4009 78.2578V68.369H20.7069V67.0459H29.5938V68.369H25.8846V78.2578H24.4009ZM28.6914 74.1967C28.6914 72.6926 29.1095 71.5786 29.9457 70.8546C30.6442 70.2529 31.4956 69.9521 32.5001 69.9521C33.6167 69.9521 34.5293 70.3192 35.2381 71.0534C35.9468 71.7825 36.3011 72.7921 36.3011 74.082C36.3011 75.1272 36.1431 75.9507 35.827 76.5523C35.5159 77.1489 35.0596 77.6128 34.458 77.9442C33.8614 78.2757 33.2088 78.4414 32.5001 78.4414C31.3631 78.4414 30.4428 78.0768 29.7392 77.3477C29.0406 76.6186 28.6914 75.5683 28.6914 74.1967ZM30.1063 74.1967C30.1063 75.2369 30.3331 76.017 30.7869 76.537C31.2407 77.052 31.8118 77.3095 32.5001 77.3095C33.1833 77.3095 33.7518 77.0494 34.2056 76.5294C34.6594 76.0093 34.8862 75.2165 34.8862 74.1508C34.8862 73.1464 34.6568 72.3867 34.1979 71.8717C33.7442 71.3517 33.1782 71.0917 32.5001 71.0917C31.8118 71.0917 31.2407 71.3491 30.7869 71.8641C30.3331 72.3791 30.1063 73.1566 30.1063 74.1967ZM37.9225 81.3705V70.1357H39.1768V71.1911C39.4725 70.7781 39.8065 70.4696 40.1787 70.2657C40.5509 70.0566 41.0021 69.9521 41.5323 69.9521C42.2258 69.9521 42.8376 70.1306 43.3679 70.4875C43.8981 70.8444 44.2984 71.3491 44.5686 72.0018C44.8388 72.6493 44.9739 73.3606 44.9739 74.1355C44.9739 74.9666 44.8235 75.7161 44.5227 76.3841C44.227 77.0469 43.7936 77.5567 43.2226 77.9137C42.6566 78.2655 42.0601 78.4414 41.4329 78.4414C40.974 78.4414 40.5611 78.3445 40.194 78.1507C39.8319 77.957 39.5337 77.7123 39.2991 77.4165V81.3705H37.9225ZM39.1691 74.2426C39.1691 75.2878 39.3807 76.0603 39.8039 76.56C40.2271 77.0596 40.7395 77.3095 41.3411 77.3095C41.953 77.3095 42.4756 77.052 42.909 76.537C43.3475 76.017 43.5667 75.2139 43.5667 74.1279C43.5667 73.0929 43.3526 72.3179 42.9243 71.8029C42.5011 71.2879 41.9938 71.0305 41.4023 71.0305C40.816 71.0305 40.2959 71.3058 39.8421 71.8564C39.3935 72.402 39.1691 73.1974 39.1691 74.2426ZM51.1765 78.2578V67.0459H55.4058C56.1502 67.0459 56.7187 67.0816 57.1113 67.1529C57.6619 67.2447 58.1234 67.4206 58.4956 67.6806C58.8678 67.9356 59.1661 68.295 59.3904 68.759C59.6198 69.223 59.7346 69.7329 59.7346 70.2886C59.7346 71.2421 59.4312 72.0502 58.8244 72.713C58.2177 73.3708 57.1215 73.6996 55.5358 73.6996H52.6602V78.2578H51.1765ZM52.6602 72.3765H55.5588C56.5173 72.3765 57.198 72.1981 57.6008 71.8412C58.0036 71.4842 58.205 70.982 58.205 70.3345C58.205 69.8654 58.0851 69.4652 57.8455 69.1338C57.611 68.7973 57.2999 68.5755 56.9124 68.4684C56.6626 68.4021 56.2012 68.369 55.5282 68.369H52.6602V72.3765ZM67.0078 75.6422L68.4303 75.8181C68.206 76.6492 67.7904 77.2942 67.1837 77.753C66.5769 78.2119 65.802 78.4414 64.8587 78.4414C63.6707 78.4414 62.7275 78.0768 62.0289 77.3477C61.3355 76.6135 60.9888 75.5861 60.9888 74.2656C60.9888 72.8991 61.3406 71.8386 62.0442 71.084C62.7479 70.3294 63.6605 69.9521 64.7822 69.9521C65.8682 69.9521 66.7554 70.3218 67.4437 71.0611C68.132 71.8004 68.4762 72.8405 68.4762 74.1814C68.4762 74.263 68.4736 74.3854 68.4686 74.5485H62.4113C62.4623 75.4408 62.7147 76.124 63.1685 76.5982C63.6223 77.0724 64.1882 77.3095 64.8663 77.3095C65.3711 77.3095 65.802 77.1769 66.1589 76.9118C66.5158 76.6466 66.7987 76.2234 67.0078 75.6422ZM62.4878 73.4166H67.0231C66.9619 72.7334 66.7885 72.221 66.503 71.8794C66.0645 71.3491 65.496 71.084 64.7975 71.084C64.1653 71.084 63.6325 71.2956 63.1991 71.7188C62.7708 72.142 62.5337 72.7079 62.4878 73.4166ZM70.1511 78.2578V70.1357H71.3901V71.367C71.7062 70.7908 71.9968 70.411 72.262 70.2274C72.5322 70.0439 72.8279 69.9521 73.1491 69.9521C73.6131 69.9521 74.0847 70.1 74.564 70.3957L74.0898 71.6729C73.7533 71.4741 73.4168 71.3746 73.0803 71.3746C72.7795 71.3746 72.5092 71.4664 72.2696 71.65C72.03 71.8284 71.8592 72.0782 71.7572 72.3995C71.6042 72.8889 71.5277 73.4243 71.5277 74.0055V78.2578H70.1511ZM75.7112 78.2578V71.2064H74.4952V70.1357H75.7112V69.2714C75.7112 68.7259 75.7596 68.3205 75.8565 68.0554C75.9891 67.6985 76.2211 67.4104 76.5525 67.1912C76.889 66.9668 77.3581 66.8547 77.9597 66.8547C78.3472 66.8547 78.7755 66.9006 79.2446 66.9923L79.0381 68.1931C78.7525 68.1421 78.4823 68.1166 78.2274 68.1166C77.8093 68.1166 77.5136 68.2058 77.3402 68.3843C77.1669 68.5627 77.0802 68.8967 77.0802 69.3862V70.1357H78.6633V71.2064H77.0802V78.2578H75.7112ZM79.2293 74.1967C79.2293 72.6926 79.6474 71.5786 80.4835 70.8546C81.1821 70.2529 82.0335 69.9521 83.038 69.9521C84.1546 69.9521 85.0672 70.3192 85.7759 71.0534C86.4847 71.7825 86.839 72.7921 86.839 74.082C86.839 75.1272 86.681 75.9507 86.3648 76.5523C86.0538 77.1489 85.5975 77.6128 84.9958 77.9442C84.3993 78.2757 83.7467 78.4414 83.038 78.4414C81.901 78.4414 80.9807 78.0768 80.277 77.3477C79.5785 76.6186 79.2293 75.5683 79.2293 74.1967ZM80.6441 74.1967C80.6441 75.2369 80.871 76.017 81.3248 76.537C81.7786 77.052 82.3496 77.3095 83.038 77.3095C83.7212 77.3095 84.2897 77.0494 84.7435 76.5294C85.1972 76.0093 85.4241 75.2165 85.4241 74.1508C85.4241 73.1464 85.1947 72.3867 84.7358 71.8717C84.282 71.3517 83.7161 71.0917 83.038 71.0917C82.3496 71.0917 81.7786 71.3491 81.3248 71.8641C80.871 72.3791 80.6441 73.1566 80.6441 74.1967ZM88.4451 78.2578V70.1357H89.6841V71.367C90.0002 70.7908 90.2908 70.411 90.5559 70.2274C90.8262 70.0439 91.1219 69.9521 91.4431 69.9521C91.9071 69.9521 92.3787 70.1 92.858 70.3957L92.3838 71.6729C92.0473 71.4741 91.7108 71.3746 91.3743 71.3746C91.0734 71.3746 90.8032 71.4664 90.5636 71.65C90.3239 71.8284 90.1531 72.0782 90.0512 72.3995C89.8982 72.8889 89.8217 73.4243 89.8217 74.0055V78.2578H88.4451ZM93.6763 78.2578V70.1357H94.9076V71.2752C95.1626 70.8775 95.5016 70.5588 95.9248 70.3192C96.348 70.0745 96.8298 69.9521 97.3703 69.9521C97.9719 69.9521 98.4639 70.077 98.8463 70.3269C99.2338 70.5767 99.5066 70.9259 99.6647 71.3746C100.307 70.4263 101.143 69.9521 102.173 69.9521C102.979 69.9521 103.598 70.1764 104.032 70.6251C104.465 71.0687 104.682 71.7545 104.682 72.6824V78.2578H103.313V73.1413C103.313 72.5907 103.267 72.1955 103.175 71.9559C103.088 71.7111 102.928 71.5148 102.693 71.367C102.459 71.2191 102.183 71.1452 101.867 71.1452C101.296 71.1452 100.822 71.3364 100.445 71.7188C100.067 72.0961 99.8788 72.7028 99.8788 73.539V78.2578H98.5022V72.9807C98.5022 72.3689 98.39 71.91 98.1657 71.6041C97.9413 71.2981 97.5742 71.1452 97.0644 71.1452C96.6769 71.1452 96.3174 71.2472 95.986 71.4511C95.6597 71.6551 95.4226 71.9533 95.2747 72.3459C95.1269 72.7385 95.0529 73.3045 95.0529 74.0438V78.2578H93.6763ZM112.284 75.6422L113.706 75.8181C113.482 76.6492 113.066 77.2942 112.46 77.753C111.853 78.2119 111.078 78.4414 110.135 78.4414C108.947 78.4414 108.004 78.0768 107.305 77.3477C106.612 76.6135 106.265 75.5861 106.265 74.2656C106.265 72.8991 106.617 71.8386 107.32 71.084C108.024 70.3294 108.937 69.9521 110.058 69.9521C111.144 69.9521 112.031 70.3218 112.72 71.0611C113.408 71.8004 113.752 72.8405 113.752 74.1814C113.752 74.263 113.75 74.3854 113.745 74.5485H107.687C107.738 75.4408 107.991 76.124 108.445 76.5982C108.898 77.0724 109.464 77.3095 110.142 77.3095C110.647 77.3095 111.078 77.1769 111.435 76.9118C111.792 76.6466 112.075 76.2234 112.284 75.6422ZM107.764 73.4166H112.299C112.238 72.7334 112.065 72.221 111.779 71.8794C111.341 71.3491 110.772 71.084 110.074 71.084C109.441 71.084 108.909 71.2956 108.475 71.7188C108.047 72.142 107.81 72.7079 107.764 73.4166ZM115.427 78.2578V70.1357H116.666V71.367C116.982 70.7908 117.273 70.411 117.538 70.2274C117.808 70.0439 118.104 69.9521 118.425 69.9521C118.889 69.9521 119.361 70.1 119.84 70.3957L119.366 71.6729C119.029 71.4741 118.693 71.3746 118.356 71.3746C118.056 71.3746 117.785 71.4664 117.546 71.65C117.306 71.8284 117.135 72.0782 117.033 72.3995C116.88 72.8889 116.804 73.4243 116.804 74.0055V78.2578H115.427Z" fill="black"/>
<path d="M59.5162 102.971L57.2277 94.3461H58.3984L59.7104 99.9998C59.8515 100.592 59.9731 101.18 60.0751 101.765C60.2947 100.843 60.4242 100.312 60.4634 100.17L62.1048 94.3461H63.4814L64.7168 98.7114C65.0267 99.7938 65.2502 100.812 65.3875 101.765C65.4973 101.22 65.6405 100.594 65.817 99.888L67.1701 94.3461H68.3173L65.9523 102.971H64.8522L63.0343 96.3993C62.8813 95.8502 62.7911 95.5129 62.7637 95.3874C62.6735 95.7836 62.5891 96.1209 62.5107 96.3993L60.6811 102.971H59.5162ZM69.2586 95.5639V94.3461H70.3175V95.5639H69.2586ZM69.2586 102.971V96.7229H70.3175V102.971H69.2586ZM71.9354 102.971V96.7229H72.8884V97.6112C73.3473 96.9249 74.0101 96.5817 74.8769 96.5817C75.2534 96.5817 75.5986 96.6503 75.9123 96.7876C76.23 96.921 76.4673 97.0974 76.6242 97.3171C76.781 97.5367 76.8909 97.7975 76.9536 98.0995C76.9928 98.2956 77.0124 98.6388 77.0124 99.1291V102.971H75.9535V99.1702C75.9535 98.7388 75.9123 98.4172 75.83 98.2054C75.7476 97.9897 75.6005 97.8191 75.3887 97.6936C75.1809 97.5642 74.9357 97.4995 74.6533 97.4995C74.2023 97.4995 73.8121 97.6426 73.4826 97.9289C73.1571 98.2152 72.9943 98.7584 72.9943 99.5585V102.971H71.9354ZM80.9541 102.024L81.1071 102.959C80.809 103.022 80.5423 103.053 80.307 103.053C79.9226 103.053 79.6245 102.992 79.4127 102.871C79.2009 102.749 79.0519 102.59 78.9656 102.394C78.8793 102.194 78.8362 101.776 78.8362 101.141V97.5465H78.0596V96.7229H78.8362V95.1756L79.8893 94.5403V96.7229H80.9541V97.5465H79.8893V101.2C79.8893 101.502 79.9069 101.696 79.9422 101.782C79.9814 101.869 80.0422 101.937 80.1246 101.988C80.2109 102.039 80.3325 102.065 80.4893 102.065C80.607 102.065 80.7619 102.051 80.9541 102.024ZM86.2724 100.959L87.3666 101.094C87.1941 101.733 86.8744 102.229 86.4077 102.582C85.941 102.935 85.3448 103.112 84.6193 103.112C83.7054 103.112 82.9798 102.831 82.4425 102.271C81.9091 101.706 81.6424 100.916 81.6424 99.8997C81.6424 98.8486 81.913 98.0329 82.4543 97.4524C82.9955 96.8719 83.6976 96.5817 84.5604 96.5817C85.3958 96.5817 86.0783 96.866 86.6077 97.4347C87.1372 98.0034 87.4019 98.8035 87.4019 99.835C87.4019 99.8978 87.4 99.9919 87.3961 100.117H82.7367C82.7759 100.804 82.97 101.329 83.3191 101.694C83.6682 102.059 84.1035 102.241 84.6251 102.241C85.0134 102.241 85.3448 102.139 85.6194 101.935C85.8939 101.731 86.1116 101.406 86.2724 100.959ZM82.7955 99.2467H86.2842C86.2371 98.7212 86.1037 98.327 85.8841 98.0642C85.5468 97.6563 85.1095 97.4524 84.5722 97.4524C84.0859 97.4524 83.676 97.6152 83.3426 97.9407C83.0132 98.2662 82.8308 98.7016 82.7955 99.2467ZM88.6903 102.971V96.7229H89.6434V97.6701C89.8866 97.2269 90.1101 96.9347 90.3141 96.7935C90.5219 96.6523 90.7494 96.5817 90.9965 96.5817C91.3534 96.5817 91.7162 96.6954 92.0849 96.9229L91.7201 97.9054C91.4613 97.7524 91.2024 97.6759 90.9435 97.6759C90.7121 97.6759 90.5043 97.7465 90.3199 97.8877C90.1356 98.025 90.0042 98.2172 89.9258 98.4643C89.8081 98.8408 89.7493 99.2526 89.7493 99.6997V102.971H88.6903Z" fill="black"/>
<path d="M67.1526 116.41V117.428H61.4519C61.4441 117.173 61.4852 116.928 61.5754 116.692C61.7206 116.304 61.952 115.922 62.2696 115.545C62.5913 115.169 63.0541 114.733 63.658 114.239C64.5954 113.47 65.2288 112.862 65.5583 112.415C65.8877 111.964 66.0525 111.539 66.0525 111.139C66.0525 110.719 65.9015 110.366 65.5995 110.08C65.3014 109.79 64.9111 109.644 64.4287 109.644C63.9189 109.644 63.511 109.797 63.2051 110.103C62.8991 110.409 62.7442 110.833 62.7403 111.374L61.6519 111.262C61.7264 110.45 62.0069 109.833 62.4932 109.409C62.9795 108.982 63.6326 108.768 64.4523 108.768C65.2798 108.768 65.9348 108.997 66.4172 109.456C66.8996 109.915 67.1408 110.484 67.1408 111.162C67.1408 111.507 67.0702 111.847 66.929 112.18C66.7878 112.513 66.5525 112.864 66.2231 113.233C65.8975 113.602 65.3543 114.108 64.5935 114.751C63.9581 115.284 63.5502 115.647 63.3698 115.839C63.1894 116.028 63.0403 116.218 62.9227 116.41H67.1526ZM68.2939 113.174C68.2939 112.155 68.3978 111.335 68.6057 110.715C68.8175 110.092 69.1293 109.611 69.5411 109.274C69.9568 108.937 70.4785 108.768 71.106 108.768C71.5688 108.768 71.9747 108.862 72.3238 109.05C72.6729 109.235 72.9611 109.503 73.1886 109.856C73.4161 110.205 73.5945 110.633 73.724 111.139C73.8534 111.641 73.9181 112.319 73.9181 113.174C73.9181 114.186 73.8142 115.004 73.6063 115.628C73.3984 116.247 73.0866 116.728 72.6709 117.069C72.2591 117.406 71.7375 117.575 71.106 117.575C70.2745 117.575 69.6215 117.277 69.1469 116.681C68.5782 115.963 68.2939 114.794 68.2939 113.174ZM69.3823 113.174C69.3823 114.59 69.547 115.533 69.8764 116.004C70.2098 116.471 70.6197 116.704 71.106 116.704C71.5923 116.704 72.0002 116.469 72.3297 115.998C72.6631 115.528 72.8297 114.586 72.8297 113.174C72.8297 111.754 72.6631 110.811 72.3297 110.345C72.0002 109.878 71.5884 109.644 71.0942 109.644C70.6079 109.644 70.2196 109.85 69.9294 110.262C69.5646 110.788 69.3823 111.758 69.3823 113.174ZM80.566 116.41V117.428H74.8653C74.8574 117.173 74.8986 116.928 74.9888 116.692C75.1339 116.304 75.3653 115.922 75.683 115.545C76.0046 115.169 76.4674 114.733 77.0714 114.239C78.0088 113.47 78.6422 112.862 78.9717 112.415C79.3011 111.964 79.4658 111.539 79.4658 111.139C79.4658 110.719 79.3148 110.366 79.0128 110.08C78.7148 109.79 78.3245 109.644 77.8421 109.644C77.3322 109.644 76.9244 109.797 76.6184 110.103C76.3125 110.409 76.1576 110.833 76.1537 111.374L75.0653 111.262C75.1398 110.45 75.4203 109.833 75.9066 109.409C76.3929 108.982 77.0459 108.768 77.8656 108.768C78.6932 108.768 79.3482 108.997 79.8306 109.456C80.313 109.915 80.5542 110.484 80.5542 111.162C80.5542 111.507 80.4836 111.847 80.3424 112.18C80.2012 112.513 79.9659 112.864 79.6364 113.233C79.3109 113.602 78.7677 114.108 78.0068 114.751C77.3715 115.284 76.9636 115.647 76.7832 115.839C76.6027 116.028 76.4537 116.218 76.3361 116.41H80.566ZM87.2727 116.41V117.428H81.572C81.5641 117.173 81.6053 116.928 81.6955 116.692C81.8406 116.304 82.072 115.922 82.3897 115.545C82.7113 115.169 83.1741 114.733 83.7781 114.239C84.7155 113.47 85.3489 112.862 85.6784 112.415C86.0078 111.964 86.1725 111.539 86.1725 111.139C86.1725 110.719 86.0215 110.366 85.7195 110.08C85.4215 109.79 85.0312 109.644 84.5488 109.644C84.0389 109.644 83.6311 109.797 83.3251 110.103C83.0192 110.409 82.8643 110.833 82.8604 111.374L81.772 111.262C81.8465 110.45 82.1269 109.833 82.6133 109.409C83.0996 108.982 83.7526 108.768 84.5723 108.768C85.3999 108.768 86.0549 108.997 86.5373 109.456C87.0197 109.915 87.2609 110.484 87.2609 111.162C87.2609 111.507 87.1903 111.847 87.0491 112.18C86.9079 112.513 86.6726 112.864 86.3431 113.233C86.0176 113.602 85.4744 114.108 84.7135 114.751C84.0782 115.284 83.6703 115.647 83.4899 115.839C83.3094 116.028 83.1604 116.218 83.0427 116.41H87.2727Z" fill="black"/>
<defs>
<linearGradient id="paint0_linear_2700_118431" x1="258.219" y1="71.4105" x2="125.472" y2="120.48" gradientUnits="userSpaceOnUse">
<stop stop-color="#FFCB00"/>
<stop offset="1" stop-color="#F06A2B"/>
</linearGradient>
</defs>
</svg>
