<svg width="120" height="134" viewBox="0 0 120 134" fill="none" xmlns="http://www.w3.org/2000/svg">
<path d="M10.3398 103.767L60.7654 129.427L109.276 103.767V3.42676H10.3398V103.767Z" fill="white"/>
<path d="M110.299 3.80859L9.31979 105.553L61.6602 131.468L110.299 106.575V3.80859Z" fill="#EBEEF2"/>
<path d="M7.0228 36.8724V105.936L8.81003 106.83L59.2356 132.489L60.7675 133.255L62.2994 132.489L110.938 106.83L112.725 105.936V0.106445H7.0228V36.8724ZM10.3419 104.021V3.42559H109.406V104.021L60.7675 129.681L10.3419 104.021Z" fill="#DCDEE4"/>
<path d="M59.873 5.08517C60.3836 5.08517 60.8943 5.08517 61.4049 5.21283L59.873 8.149C57.5751 8.02134 55.5326 9.80857 55.4049 12.1064C55.2773 14.4043 57.0645 16.4469 59.3624 16.5745H59.873C60.8943 16.5745 61.9155 16.1916 62.6815 15.5533L64.3411 18.3618C63.0645 19.2554 61.5326 19.766 59.873 19.766C55.7879 19.8937 52.3411 16.8298 52.2134 12.7447C52.0858 8.65964 55.1496 5.21283 59.2347 5.08517H59.873ZM65.107 11.3405L67.0219 14.532L65.107 17.5958L63.3198 14.532H59.6177L61.5326 11.3405H65.107ZM62.0432 10.1916C62.0432 9.68091 62.1709 9.17027 62.4262 8.7873C62.6815 8.40432 63.1921 8.02134 63.5751 7.76602L63.8304 7.63836C64.3411 7.38304 64.4687 7.25538 64.4687 7.00006C64.4687 6.74474 64.0858 6.48942 63.8304 6.48942C63.3198 6.48942 62.9368 6.74474 62.6815 7.25538L62.0432 6.61708C62.1709 6.36176 62.4262 6.10645 62.6815 5.85113C63.0645 5.59581 63.4475 5.59581 63.8304 5.59581C64.2134 5.59581 64.7241 5.72347 64.9794 5.97879C65.2347 6.23411 65.49 6.61708 65.49 7.00006C65.49 7.63836 65.107 8.149 64.3411 8.40432L63.9581 8.65964C63.5751 8.91496 63.3198 9.04262 63.1921 9.42559H65.49V10.3192L62.0432 10.1916ZM59.873 26.149L72.0006 19.2554V0.106445H47.6177V19.1277L59.873 26.149Z" fill="#E0704A"/>
<path d="M115.15 71.3408H4.59682L0.511719 80.277L4.59682 89.2132H115.15L119.107 80.277L115.15 71.3408Z" fill="#E0704A"/>
<path d="M22.0868 52.1807C22.9294 52.1807 23.6698 52.3509 24.3081 52.6913C24.9464 53.0317 25.44 53.5211 25.7889 54.1594C26.1379 54.7892 26.3124 55.5126 26.3124 56.3296C26.3124 57.1381 26.1336 57.8487 25.7762 58.4615C25.4102 59.0658 24.8996 59.5381 24.2443 59.8785C23.5889 60.219 22.8315 60.3892 21.9719 60.3892H19.2528C19.1932 60.3892 19.1634 60.4232 19.1634 60.4913V65.3679C19.1634 65.436 19.1379 65.4913 19.0868 65.5339C19.0443 65.5764 18.9889 65.5977 18.9209 65.5977H16.6868C16.6187 65.5977 16.5634 65.5764 16.5209 65.5339C16.4783 65.4913 16.457 65.436 16.457 65.3679V52.4105C16.457 52.3424 16.4783 52.287 16.5209 52.2445C16.5634 52.2019 16.6187 52.1807 16.6868 52.1807H22.0868ZM21.6783 58.2317C22.2741 58.2317 22.7464 58.0615 23.0953 57.7211C23.4528 57.3807 23.6315 56.9381 23.6315 56.3934C23.6315 55.8232 23.4528 55.3679 23.0953 55.0275C22.7464 54.6785 22.2741 54.5041 21.6783 54.5041H19.2528C19.1932 54.5041 19.1634 54.5381 19.1634 54.6062V58.1296C19.1634 58.1977 19.1932 58.2317 19.2528 58.2317H21.6783ZM35.9762 59.6615C36.0443 60.1466 36.0655 60.687 36.04 61.2828C36.0315 61.4445 35.9506 61.5253 35.7975 61.5253H29.8868C29.8102 61.5253 29.7804 61.5551 29.7975 61.6147C29.84 61.87 29.9123 62.1253 30.0145 62.3807C30.3464 63.0956 31.023 63.453 32.0443 63.453C32.8613 63.4445 33.5038 63.1126 33.9719 62.4573C34.0315 62.3807 34.0911 62.3424 34.1506 62.3424C34.1847 62.3424 34.2272 62.3679 34.2783 62.419L35.657 63.7722C35.7251 63.8402 35.7592 63.8998 35.7592 63.9509C35.7592 63.9764 35.7336 64.0275 35.6826 64.1041C35.257 64.6317 34.7166 65.036 34.0613 65.3168C33.3889 65.6062 32.657 65.7509 31.8655 65.7509C30.7762 65.7509 29.8485 65.5041 29.0826 65.0104C28.3251 64.5083 27.7804 63.8104 27.4485 62.9168C27.1762 62.2785 27.04 61.4445 27.04 60.4147C27.04 59.7083 27.1379 59.087 27.3336 58.5509C27.6315 57.6487 28.1464 56.9296 28.8783 56.3934C29.6102 55.8573 30.4783 55.5892 31.4826 55.5892C32.7592 55.5892 33.7847 55.9594 34.5592 56.6998C35.3336 57.4402 35.806 58.4275 35.9762 59.6615ZM31.5081 57.9253C30.6996 57.9253 30.1677 58.2998 29.9123 59.0487C29.8613 59.219 29.8187 59.4232 29.7847 59.6615C29.7847 59.7211 29.8187 59.7509 29.8868 59.7509H33.1932C33.2698 59.7509 33.2953 59.7211 33.2698 59.6615C33.2017 59.2956 33.1677 59.1168 33.1677 59.1253C33.057 58.7424 32.857 58.4445 32.5677 58.2317C32.2868 58.0275 31.9336 57.9253 31.5081 57.9253ZM42.6145 55.6275C43.0741 55.6275 43.44 55.7168 43.7124 55.8956C43.806 55.9466 43.84 56.0402 43.8145 56.1764L43.4187 58.3594C43.4102 58.5126 43.3209 58.5594 43.1506 58.4998C42.9549 58.4317 42.7336 58.3977 42.4868 58.3977C42.3847 58.3977 42.24 58.4104 42.0528 58.436C41.6017 58.4785 41.2145 58.6487 40.8911 58.9466C40.5762 59.2445 40.4187 59.6445 40.4187 60.1466V65.3679C40.4187 65.436 40.3932 65.4913 40.3421 65.5339C40.2996 65.5764 40.2485 65.5977 40.1889 65.5977H37.9421C37.8826 65.5977 37.8272 65.5764 37.7762 65.5339C37.7336 65.4913 37.7123 65.436 37.7123 65.3679V55.9849C37.7123 55.9253 37.7336 55.87 37.7762 55.819C37.8272 55.7764 37.8826 55.7551 37.9421 55.7551H40.1889C40.2485 55.7551 40.2996 55.7764 40.3421 55.819C40.3932 55.87 40.4187 55.9253 40.4187 55.9849V56.7126C40.4187 56.7466 40.4315 56.7722 40.457 56.7892C40.4741 56.8062 40.4911 56.7977 40.5081 56.7636C41.0358 56.0062 41.7379 55.6275 42.6145 55.6275ZM50.7719 55.7424C50.84 55.7424 50.8953 55.7636 50.9379 55.8062C50.9804 55.8487 51.0017 55.9041 51.0017 55.9722V57.7849C51.0017 57.853 50.9804 57.9083 50.9379 57.9509C50.8953 57.9934 50.84 58.0147 50.7719 58.0147H48.9209C48.8528 58.0147 48.8187 58.0445 48.8187 58.1041V65.3679C48.8187 65.436 48.7975 65.4913 48.7549 65.5339C48.7123 65.5764 48.657 65.5977 48.5889 65.5977H46.3549C46.2868 65.5977 46.2315 65.5764 46.1889 65.5339C46.1464 65.4913 46.1251 65.436 46.1251 65.3679V58.1041C46.1251 58.0445 46.0911 58.0147 46.023 58.0147H44.8996C44.8315 58.0147 44.7762 57.9934 44.7336 57.9509C44.6911 57.9083 44.6698 57.853 44.6698 57.7849V55.9722C44.6698 55.9041 44.6911 55.8487 44.7336 55.8062C44.7762 55.7636 44.8315 55.7424 44.8996 55.7424H46.023C46.0911 55.7424 46.1251 55.7083 46.1251 55.6402V55.219C46.1251 54.4275 46.2443 53.8105 46.4826 53.3679C46.7294 52.9339 47.1209 52.6232 47.657 52.436C48.2017 52.2487 48.9549 52.1679 49.9166 52.1934H50.6443C50.7038 52.1934 50.7549 52.2147 50.7975 52.2573C50.8485 52.3083 50.8741 52.3636 50.8741 52.4232V53.9679C50.8741 54.036 50.8485 54.0913 50.7975 54.1339C50.7549 54.1849 50.7038 54.2105 50.6443 54.2105H50.006C49.5634 54.219 49.2528 54.3083 49.0741 54.4785C48.9038 54.6573 48.8187 54.9764 48.8187 55.436V55.6402C48.8187 55.7083 48.8528 55.7424 48.9209 55.7424H50.7719ZM56.3251 65.7509C55.2528 65.7509 54.3336 65.47 53.5677 64.9083C52.8017 64.3466 52.2783 63.5807 51.9975 62.6104C51.8187 62.0147 51.7294 61.3636 51.7294 60.6573C51.7294 59.9083 51.8187 59.2317 51.9975 58.6275C52.2953 57.6828 52.8272 56.9424 53.5932 56.4062C54.3592 55.87 55.2783 55.6019 56.3506 55.6019C57.3889 55.6019 58.2826 55.8658 59.0315 56.3934C59.7634 56.9296 60.2826 57.67 60.5889 58.6147C60.8017 59.253 60.9081 59.9211 60.9081 60.619C60.9081 61.3083 60.8187 61.9551 60.64 62.5594C60.3592 63.5551 59.8358 64.3339 59.0698 64.8956C58.3124 65.4658 57.3975 65.7509 56.3251 65.7509ZM56.3251 63.4402C56.7421 63.4402 57.0996 63.3126 57.3975 63.0573C57.6953 62.8019 57.9081 62.4487 58.0358 61.9977C58.1294 61.5892 58.1762 61.1424 58.1762 60.6573C58.1762 60.1211 58.1294 59.67 58.0358 59.3041C57.8911 58.87 57.6741 58.5296 57.3847 58.2828C57.0868 58.0445 56.7251 57.9253 56.2996 57.9253C55.8741 57.9253 55.5166 58.0445 55.2272 58.2828C54.9379 58.5296 54.7294 58.87 54.6017 59.3041C54.4996 59.6019 54.4485 60.053 54.4485 60.6573C54.4485 61.236 54.4953 61.6828 54.5889 61.9977C54.7166 62.4487 54.9294 62.8019 55.2272 63.0573C55.5251 63.3126 55.8911 63.4402 56.3251 63.4402ZM67.5464 55.6275C68.006 55.6275 68.3719 55.7168 68.6443 55.8956C68.7464 55.9466 68.7804 56.0402 68.7464 56.1764L68.3506 58.3594C68.3421 58.5126 68.2528 58.5594 68.0826 58.4998C67.8868 58.4317 67.6655 58.3977 67.4187 58.3977C67.3166 58.3977 67.1762 58.4104 66.9975 58.436C66.5379 58.4785 66.1464 58.6487 65.823 58.9466C65.5081 59.2445 65.3506 59.6445 65.3506 60.1466V65.3679C65.3506 65.436 65.3251 65.4913 65.2741 65.5339C65.2315 65.5764 65.1762 65.5977 65.1081 65.5977H62.8741C62.8145 65.5977 62.7592 65.5764 62.7081 65.5339C62.6655 65.4913 62.6443 65.436 62.6443 65.3679V55.9849C62.6443 55.9253 62.6655 55.87 62.7081 55.819C62.7592 55.7764 62.8145 55.7551 62.8741 55.7551H65.1081C65.1762 55.7551 65.2315 55.7764 65.2741 55.819C65.3251 55.87 65.3506 55.9253 65.3506 55.9849V56.7126C65.3506 56.7466 65.3592 56.7722 65.3762 56.7892C65.4102 56.8062 65.4315 56.7977 65.44 56.7636C65.9677 56.0062 66.6698 55.6275 67.5464 55.6275ZM80.8868 55.6019C81.8826 55.6019 82.6613 55.8998 83.223 56.4956C83.7847 57.0998 84.0655 57.9466 84.0655 59.036V65.3679C84.0655 65.436 84.0443 65.4913 84.0017 65.5339C83.9592 65.5764 83.9081 65.5977 83.8485 65.5977H81.6017C81.5421 65.5977 81.4868 65.5764 81.4358 65.5339C81.3932 65.4913 81.3719 65.436 81.3719 65.3679V59.6232C81.3719 59.1041 81.24 58.6913 80.9762 58.3849C80.7038 58.0785 80.3421 57.9253 79.8911 57.9253C79.4485 57.9253 79.0868 58.0785 78.806 58.3849C78.5251 58.6913 78.3847 59.0998 78.3847 59.6104V65.3679C78.3847 65.436 78.3634 65.4913 78.3209 65.5339C78.2698 65.5764 78.2145 65.5977 78.1549 65.5977H75.9336C75.8655 65.5977 75.8102 65.5764 75.7677 65.5339C75.7251 65.4913 75.7038 65.436 75.7038 65.3679V59.6232C75.7038 59.1126 75.5634 58.6998 75.2826 58.3849C75.0017 58.0785 74.6358 57.9253 74.1847 57.9253C73.7847 57.9253 73.4443 58.0445 73.1634 58.2828C72.8911 58.5296 72.7294 58.87 72.6783 59.3041V65.3679C72.6783 65.436 72.657 65.4913 72.6145 65.5339C72.5634 65.5764 72.5081 65.5977 72.4485 65.5977H70.2145C70.1464 65.5977 70.0911 65.5764 70.0485 65.5339C70.006 65.4913 69.9847 65.436 69.9847 65.3679V55.9849C69.9847 55.9253 70.006 55.87 70.0485 55.819C70.0911 55.7764 70.1464 55.7551 70.2145 55.7551H72.4485C72.5081 55.7551 72.5634 55.7764 72.6145 55.819C72.657 55.87 72.6783 55.9253 72.6783 55.9849V56.7381C72.6783 56.7722 72.6911 56.7977 72.7166 56.8147C72.7421 56.8232 72.7677 56.8062 72.7932 56.7636C73.3209 55.9892 74.1336 55.6019 75.2315 55.6019C75.8698 55.6019 76.4272 55.7381 76.9038 56.0105C77.3804 56.2743 77.7464 56.6573 78.0017 57.1594C78.0358 57.236 78.0826 57.236 78.1421 57.1594C78.4145 56.6317 78.7932 56.2402 79.2783 55.9849C79.7549 55.7296 80.2911 55.6019 80.8868 55.6019ZM94.623 59.6615C94.6996 60.1466 94.7251 60.687 94.6996 61.2828C94.6826 61.4445 94.5975 61.5253 94.4443 61.5253H88.5336C88.457 61.5253 88.4315 61.5551 88.457 61.6147C88.4911 61.87 88.5592 62.1253 88.6613 62.3807C88.9932 63.0956 89.6698 63.453 90.6911 63.453C91.5081 63.4445 92.1549 63.1126 92.6315 62.4573C92.6826 62.3807 92.7379 62.3424 92.7975 62.3424C92.84 62.3424 92.8868 62.3679 92.9379 62.419L94.3166 63.7722C94.3762 63.8402 94.406 63.8998 94.406 63.9509C94.406 63.9764 94.3804 64.0275 94.3294 64.1041C93.9123 64.6317 93.3719 65.036 92.7081 65.3168C92.0443 65.6062 91.3166 65.7509 90.5251 65.7509C89.4272 65.7509 88.4996 65.5041 87.7421 65.0104C86.9762 64.5083 86.4272 63.8104 86.0953 62.9168C85.8315 62.2785 85.6996 61.4445 85.6996 60.4147C85.6996 59.7083 85.7932 59.087 85.9804 58.5509C86.2783 57.6487 86.7932 56.9296 87.5251 56.3934C88.257 55.8573 89.1294 55.5892 90.1421 55.5892C91.4187 55.5892 92.4443 55.9594 93.2187 56.6998C93.9932 57.4402 94.4613 58.4275 94.623 59.6615ZM90.1549 57.9253C89.3549 57.9253 88.8272 58.2998 88.5719 59.0487C88.5209 59.219 88.4741 59.4232 88.4315 59.6615C88.4315 59.7211 88.4655 59.7509 88.5336 59.7509H91.84C91.9166 59.7509 91.9421 59.7211 91.9166 59.6615C91.857 59.2956 91.8272 59.1168 91.8272 59.1253C91.7081 58.7424 91.5081 58.4445 91.2272 58.2317C90.9379 58.0275 90.5804 57.9253 90.1549 57.9253ZM101.261 55.6275C101.721 55.6275 102.087 55.7168 102.359 55.8956C102.461 55.9466 102.5 56.0402 102.474 56.1764L102.078 58.3594C102.061 58.5126 101.968 58.5594 101.797 58.4998C101.61 58.4317 101.389 58.3977 101.134 58.3977C101.032 58.3977 100.891 58.4104 100.712 58.436C100.253 58.4785 99.8613 58.6487 99.5379 58.9466C99.223 59.2445 99.0656 59.6445 99.0656 60.1466V65.3679C99.0656 65.436 99.0443 65.4913 99.0017 65.5339C98.9507 65.5764 98.8953 65.5977 98.8358 65.5977H96.5889C96.5294 65.5977 96.4783 65.5764 96.4358 65.5339C96.3847 65.4913 96.3592 65.436 96.3592 65.3679V55.9849C96.3592 55.9253 96.3847 55.87 96.4358 55.819C96.4783 55.7764 96.5294 55.7551 96.5889 55.7551H98.8358C98.8953 55.7551 98.9507 55.7764 99.0017 55.819C99.0443 55.87 99.0656 55.9253 99.0656 55.9849V56.7126C99.0656 56.7466 99.0783 56.7722 99.1038 56.7892C99.1294 56.8062 99.1507 56.7977 99.1677 56.7636C99.6868 56.0062 100.385 55.6275 101.261 55.6275Z" fill="#35353D"/>
<path d="M48.5893 33.274C48.5893 33.2144 48.6106 33.1591 48.6531 33.108C48.6957 33.0655 48.7467 33.0442 48.8063 33.0442H51.0531C51.1127 33.0442 51.168 33.0655 51.2191 33.108C51.2616 33.1591 51.2829 33.2144 51.2829 33.274V46.2187C51.2829 46.2867 51.2616 46.3421 51.2191 46.3846C51.168 46.4272 51.1127 46.4484 51.0531 46.4484H48.8063C48.7467 46.4484 48.6957 46.4272 48.6531 46.3846C48.6106 46.3421 48.5893 46.2867 48.5893 46.2187V40.9336C48.5893 40.874 48.5553 40.8442 48.4872 40.8442H44.2489C44.1893 40.8442 44.1595 40.874 44.1595 40.9336V46.2187C44.1595 46.2867 44.1382 46.3421 44.0957 46.3846C44.0446 46.4272 43.9893 46.4484 43.9297 46.4484H41.6829C41.6233 46.4484 41.5723 46.4272 41.5297 46.3846C41.4787 46.3421 41.4531 46.2867 41.4531 46.2187V33.274C41.4531 33.2144 41.4787 33.1591 41.5297 33.108C41.5723 33.0655 41.6233 33.0442 41.6829 33.0442H43.9297C43.9893 33.0442 44.0446 33.0655 44.0957 33.108C44.1382 33.1591 44.1595 33.2144 44.1595 33.274V38.4187C44.1595 38.4867 44.1893 38.5208 44.2489 38.5208H48.4872C48.5553 38.5208 48.5893 38.4867 48.5893 38.4187V33.274ZM54.768 35.4953C54.334 35.4953 53.9723 35.3506 53.6829 35.0612C53.3936 34.7804 53.2489 34.4229 53.2489 33.9889C53.2489 33.5378 53.3893 33.1719 53.6701 32.891C53.951 32.6102 54.317 32.4697 54.768 32.4697C55.2191 32.4697 55.585 32.6102 55.8659 32.891C56.1467 33.1719 56.2872 33.5378 56.2872 33.9889C56.2872 34.4229 56.1425 34.7804 55.8531 35.0612C55.5638 35.3506 55.2021 35.4953 54.768 35.4953ZM53.6191 46.4484C53.5595 46.4484 53.5042 46.4272 53.4531 46.3846C53.4106 46.3421 53.3893 46.2867 53.3893 46.2187V36.8229C53.3893 36.7548 53.4106 36.6995 53.4531 36.657C53.5042 36.6144 53.5595 36.5931 53.6191 36.5931H55.8659C55.9255 36.5931 55.9765 36.6144 56.0191 36.657C56.0701 36.6995 56.0957 36.7548 56.0957 36.8229V46.2187C56.0957 46.2867 56.0701 46.3421 56.0191 46.3846C55.9765 46.4272 55.9255 46.4484 55.8659 46.4484H53.6191ZM64.2021 36.8357C64.2021 36.7761 64.2276 36.7208 64.2787 36.6697C64.3212 36.6272 64.3723 36.6059 64.4319 36.6059H66.6787C66.7382 36.6059 66.7936 36.6272 66.8446 36.6697C66.8872 36.7208 66.9084 36.7761 66.9084 36.8357V45.5676C66.9084 47.2357 66.4276 48.4272 65.4659 49.1421C64.5042 49.8655 63.2616 50.2272 61.7382 50.2272C61.2872 50.2272 60.7893 50.1931 60.2446 50.125C60.117 50.108 60.0531 50.0272 60.0531 49.8825L60.1297 47.9038C60.1297 47.7336 60.2191 47.6612 60.3978 47.6867C60.8574 47.7633 61.2787 47.8016 61.6616 47.8016C62.4787 47.8016 63.1084 47.6272 63.551 47.2782C63.985 46.9123 64.2021 46.3378 64.2021 45.5548C64.2021 45.5123 64.1893 45.4867 64.1638 45.4782C64.1382 45.4697 64.1127 45.4825 64.0872 45.5165C63.6021 46.0357 62.8957 46.2953 61.968 46.2953C61.134 46.2953 60.3723 46.0953 59.6829 45.6953C58.985 45.2953 58.4872 44.6484 58.1893 43.7548C58.0021 43.1676 57.9084 42.4059 57.9084 41.4697C57.9084 40.474 58.0233 39.6655 58.2531 39.0442C58.517 38.2612 58.968 37.6357 59.6063 37.1676C60.2446 36.691 60.9893 36.4527 61.8404 36.4527C62.8191 36.4527 63.568 36.7463 64.0872 37.3336C64.1127 37.3591 64.1382 37.3676 64.1638 37.3591C64.1893 37.3506 64.2021 37.3293 64.2021 37.2953V36.8357ZM64.0489 43.0144C64.151 42.6399 64.2021 42.1165 64.2021 41.4442C64.2021 41.0527 64.1893 40.7506 64.1638 40.5378C64.1382 40.3165 64.0957 40.108 64.0361 39.9123C63.917 39.5719 63.7255 39.2953 63.4616 39.0825C63.1978 38.8782 62.8659 38.7761 62.4659 38.7761C62.0829 38.7761 61.7595 38.8782 61.4957 39.0825C61.2233 39.2953 61.0233 39.5719 60.8957 39.9123C60.717 40.2953 60.6276 40.8144 60.6276 41.4697C60.6276 42.1846 60.7042 42.6953 60.8574 43.0016C60.968 43.3506 61.168 43.6272 61.4574 43.8314C61.7467 44.0442 62.0872 44.1506 62.4787 44.1506C62.8872 44.1506 63.2276 44.0442 63.4999 43.8314C63.7638 43.6272 63.9467 43.3548 64.0489 43.0144ZM73.9808 36.4527C75.0021 36.4527 75.8233 36.7676 76.4446 37.3974C77.0659 38.0187 77.3765 38.8655 77.3765 39.9378V46.2187C77.3765 46.2867 77.3553 46.3421 77.3127 46.3846C77.2701 46.4272 77.2191 46.4484 77.1595 46.4484H74.9127C74.8531 46.4484 74.7978 46.4272 74.7467 46.3846C74.7042 46.3421 74.6829 46.2867 74.6829 46.2187V40.4867C74.6829 39.9846 74.5382 39.5719 74.2489 39.2484C73.968 38.9336 73.5893 38.7761 73.1127 38.7761C72.6446 38.7761 72.2659 38.9336 71.9765 39.2484C71.6872 39.5719 71.5425 39.9846 71.5425 40.4867V46.2187C71.5425 46.2867 71.5212 46.3421 71.4787 46.3846C71.4361 46.4272 71.3808 46.4484 71.3127 46.4484H69.0787C69.0106 46.4484 68.9553 46.4272 68.9127 46.3846C68.8701 46.3421 68.8489 46.2867 68.8489 46.2187V33.274C68.8489 33.2144 68.8701 33.1591 68.9127 33.108C68.9553 33.0655 69.0106 33.0442 69.0787 33.0442H71.3127C71.3808 33.0442 71.4361 33.0655 71.4787 33.108C71.5212 33.1591 71.5425 33.2144 71.5425 33.274V37.5123C71.5425 37.5463 71.5553 37.5719 71.5808 37.5889C71.6063 37.5974 71.6233 37.5889 71.6318 37.5633C72.1595 36.8229 72.9425 36.4527 73.9808 36.4527Z" fill="#35353D"/>
<path d="M51.6516 77.4408C51.6516 77.4833 51.6346 77.5174 51.6005 77.5429C51.575 77.577 51.5409 77.594 51.4984 77.594H47.158C47.1154 77.594 47.0941 77.6153 47.0941 77.6578V80.045C47.0941 80.0876 47.1154 80.1089 47.158 80.1089H50.0814C50.1239 80.1089 50.1622 80.1216 50.1963 80.1472C50.2218 80.1812 50.2346 80.2195 50.2346 80.2621V81.2323C50.2346 81.2748 50.2218 81.3131 50.1963 81.3472C50.1622 81.3727 50.1239 81.3855 50.0814 81.3855H47.158C47.1154 81.3855 47.0941 81.4067 47.0941 81.4493V85.1004C47.0941 85.1429 47.0771 85.177 47.0431 85.2025C47.0175 85.2365 46.9835 85.2536 46.9409 85.2536H45.7665C45.7239 85.2536 45.6899 85.2365 45.6643 85.2025C45.6303 85.177 45.6133 85.1429 45.6133 85.1004V76.4706C45.6133 76.428 45.6303 76.394 45.6643 76.3684C45.6899 76.3344 45.7239 76.3174 45.7665 76.3174H51.4984C51.5409 76.3174 51.575 76.3344 51.6005 76.3684C51.6346 76.394 51.6516 76.428 51.6516 76.4706V77.4408ZM57.4729 85.2536C57.3877 85.2536 57.3324 85.211 57.3069 85.1259L56.8856 83.7599C56.8686 83.7259 56.8473 83.7089 56.8218 83.7089H53.4516C53.426 83.7089 53.4048 83.7259 53.3877 83.7599L52.9665 85.1259C52.9409 85.211 52.8856 85.2536 52.8005 85.2536H51.5239C51.4729 85.2536 51.4346 85.2365 51.409 85.2025C51.3835 85.177 51.3792 85.1344 51.3963 85.0748L54.1665 76.445C54.192 76.3599 54.2473 76.3174 54.3324 76.3174H55.9282C56.0133 76.3174 56.0686 76.3599 56.0941 76.445L58.8771 85.0748C58.8856 85.0919 58.8899 85.1131 58.8899 85.1387C58.8899 85.2153 58.8431 85.2536 58.7494 85.2536H57.4729ZM53.7835 82.4706C53.775 82.5216 53.792 82.5472 53.8346 82.5472H56.426C56.4771 82.5472 56.4941 82.5216 56.4771 82.4706L55.1622 78.194C55.1537 78.1599 55.1409 78.1429 55.1239 78.1429C55.1069 78.1429 55.0941 78.1599 55.0856 78.194L53.7835 82.4706ZM60.358 85.2536C60.3154 85.2536 60.2814 85.2365 60.2558 85.2025C60.2218 85.177 60.2048 85.1429 60.2048 85.1004V76.4706C60.2048 76.428 60.2218 76.394 60.2558 76.3684C60.2814 76.3344 60.3154 76.3174 60.358 76.3174H61.5324C61.575 76.3174 61.6133 76.3344 61.6473 76.3684C61.6728 76.394 61.6856 76.428 61.6856 76.4706V83.9131C61.6856 83.9557 61.7069 83.977 61.7494 83.977H66.026C66.0686 83.977 66.1026 83.994 66.1282 84.028C66.1622 84.0536 66.1792 84.0876 66.1792 84.1302V85.1004C66.1792 85.1429 66.1622 85.177 66.1282 85.2025C66.1026 85.2365 66.0686 85.2536 66.026 85.2536H60.358ZM67.6473 85.2536C67.6048 85.2536 67.5707 85.2365 67.5452 85.2025C67.5111 85.177 67.4941 85.1429 67.4941 85.1004V76.4706C67.4941 76.428 67.5111 76.394 67.5452 76.3684C67.5707 76.3344 67.6048 76.3174 67.6473 76.3174H68.8218C68.8643 76.3174 68.9026 76.3344 68.9367 76.3684C68.9622 76.394 68.975 76.428 68.975 76.4706V83.9131C68.975 83.9557 68.9963 83.977 69.0388 83.977H73.3154C73.358 83.977 73.3962 83.994 73.4303 84.028C73.4558 84.0536 73.4686 84.0876 73.4686 84.1302V85.1004C73.4686 85.1429 73.4558 85.177 73.4303 85.2025C73.3962 85.2365 73.358 85.2536 73.3154 85.2536H67.6473Z" fill="white"/>
<path d="M45.218 108.31C45.1924 108.335 45.1839 108.361 45.1924 108.386C45.2094 108.412 45.235 108.424 45.269 108.424H50.286C50.3456 108.424 50.3967 108.446 50.4392 108.488C50.4903 108.531 50.5158 108.582 50.5158 108.641V110.441C50.5158 110.501 50.4903 110.552 50.4392 110.595C50.3967 110.637 50.3456 110.658 50.286 110.658H41.9626C41.8945 110.658 41.8392 110.637 41.7967 110.595C41.7541 110.552 41.7328 110.501 41.7328 110.441V108.731C41.7328 108.62 41.7711 108.527 41.8477 108.45C42.452 107.863 43.069 107.22 43.6988 106.522C44.3286 105.824 44.7243 105.39 44.886 105.22C45.2265 104.812 45.5754 104.42 45.9328 104.046C47.0563 102.803 47.618 101.88 47.618 101.276C47.618 100.841 47.4648 100.484 47.1584 100.203C46.852 99.9308 46.452 99.7947 45.9584 99.7947C45.4648 99.7947 45.0648 99.9308 44.7584 100.203C44.4435 100.484 44.286 100.854 44.286 101.314V101.773C44.286 101.833 44.2648 101.884 44.2222 101.927C44.1797 101.969 44.1286 101.99 44.069 101.99H41.886C41.8265 101.99 41.7754 101.969 41.7328 101.927C41.6818 101.884 41.6562 101.833 41.6562 101.773V100.905C41.6988 100.241 41.9116 99.65 42.2945 99.1308C42.6775 98.6202 43.1839 98.2287 43.8137 97.9564C44.452 97.684 45.1669 97.5479 45.9584 97.5479C46.835 97.5479 47.5967 97.7138 48.2435 98.0457C48.8903 98.3691 49.3882 98.8074 49.7371 99.3606C50.0945 99.9223 50.2733 100.539 50.2733 101.212C50.2733 101.731 50.1414 102.263 49.8775 102.807C49.6222 103.352 49.235 103.939 48.7158 104.569C48.3328 105.046 47.9201 105.522 47.4775 105.999C47.035 106.467 46.3754 107.144 45.4988 108.029L45.218 108.31ZM56.5286 110.863C55.1669 110.863 54.0945 110.484 53.3116 109.727C52.5201 108.969 52.1243 107.935 52.1243 106.624V101.735C52.1243 100.45 52.5201 99.433 53.3116 98.684C54.0945 97.9266 55.1669 97.5479 56.5286 97.5479C57.8818 97.5479 58.9584 97.9266 59.7584 98.684C60.5499 99.433 60.9456 100.45 60.9456 101.735V106.624C60.9456 107.935 60.5499 108.969 59.7584 109.727C58.9584 110.484 57.8818 110.863 56.5286 110.863ZM56.5286 108.629C57.0818 108.629 57.5201 108.458 57.8435 108.118C58.1754 107.778 58.3414 107.322 58.3414 106.752V101.658C58.3414 101.097 58.1754 100.646 57.8435 100.305C57.5201 99.9649 57.0818 99.7947 56.5286 99.7947C55.9839 99.7947 55.5499 99.9649 55.2265 100.305C54.8945 100.646 54.7286 101.097 54.7286 101.658V106.752C54.7286 107.322 54.8945 107.778 55.2265 108.118C55.5499 108.458 55.9839 108.629 56.5286 108.629ZM66.1286 108.31C66.1031 108.335 66.0988 108.361 66.1158 108.386C66.1243 108.412 66.1499 108.424 66.1924 108.424H71.2094C71.269 108.424 71.3201 108.446 71.3626 108.488C71.4052 108.531 71.4265 108.582 71.4265 108.641V110.441C71.4265 110.501 71.4052 110.552 71.3626 110.595C71.3201 110.637 71.269 110.658 71.2094 110.658H62.8733C62.8137 110.658 62.7626 110.637 62.7201 110.595C62.6775 110.552 62.6562 110.501 62.6562 110.441V108.731C62.6562 108.62 62.6903 108.527 62.7584 108.45C63.3711 107.863 63.9882 107.22 64.6094 106.522C65.2392 105.824 65.635 105.39 65.7967 105.22C66.1456 104.812 66.4988 104.42 66.8562 104.046C67.9797 102.803 68.5414 101.88 68.5414 101.276C68.5414 100.841 68.3882 100.484 68.0818 100.203C67.7669 99.9308 67.3626 99.7947 66.869 99.7947C66.3754 99.7947 65.9754 99.9308 65.669 100.203C65.3626 100.484 65.2094 100.854 65.2094 101.314V101.773C65.2094 101.833 65.1882 101.884 65.1456 101.927C65.1031 101.969 65.0477 101.99 64.9797 101.99H62.7967C62.7371 101.99 62.686 101.969 62.6435 101.927C62.6009 101.884 62.5797 101.833 62.5797 101.773V100.905C62.6137 100.241 62.8222 99.65 63.2052 99.1308C63.5882 98.6202 64.0988 98.2287 64.7371 97.9564C65.3754 97.684 66.086 97.5479 66.869 97.5479C67.7456 97.5479 68.5073 97.7138 69.1541 98.0457C69.8094 98.3691 70.3116 98.8074 70.6605 99.3606C71.0094 99.9223 71.1839 100.539 71.1839 101.212C71.1839 101.731 71.0562 102.263 70.8009 102.807C70.5371 103.352 70.1456 103.939 69.6265 104.569C69.2435 105.046 68.8307 105.522 68.3882 105.999C67.9456 106.467 67.286 107.144 66.4094 108.029L66.1286 108.31ZM74.8477 97.7521C74.9158 97.7181 75.0094 97.701 75.1286 97.701H77.3754C77.435 97.701 77.486 97.7223 77.5286 97.7649C77.5711 97.8074 77.5924 97.8585 77.5924 97.9181V110.441C77.5924 110.501 77.5711 110.552 77.5286 110.595C77.486 110.637 77.435 110.658 77.3754 110.658H75.2052C75.1456 110.658 75.0945 110.637 75.052 110.595C75.0009 110.552 74.9754 110.501 74.9754 110.441V100.293C74.9754 100.267 74.9669 100.241 74.9499 100.216C74.9243 100.19 74.8988 100.186 74.8733 100.203L73.035 100.701L72.9584 100.714C72.8477 100.714 72.7924 100.646 72.7924 100.51L72.7414 98.9266C72.7414 98.7989 72.7967 98.7096 72.9073 98.6585L74.8477 97.7521Z" fill="#35353D"/>
</svg>
