<svg width="136" height="48" viewBox="0 0 136 48" fill="none" xmlns="http://www.w3.org/2000/svg">
<path d="M66.0979 5.8541C66.6966 4.01148 69.3034 4.01148 69.9021 5.8541L72.9393 15.2016C73.2071 16.0257 73.975 16.5836 74.8414 16.5836H84.67C86.6074 16.5836 87.413 19.0628 85.8456 20.2016L77.8941 25.9787C77.1931 26.488 76.8998 27.3907 77.1675 28.2148L80.2047 37.5623C80.8034 39.4049 78.6945 40.9372 77.127 39.7984L69.1756 34.0213C68.4746 33.512 67.5254 33.512 66.8244 34.0213L58.873 39.7984C57.3055 40.9372 55.1966 39.4049 55.7953 37.5623L58.8325 28.2148C59.1002 27.3907 58.8069 26.488 58.1059 25.9787L50.1544 20.2016C48.587 19.0628 49.3926 16.5836 51.33 16.5836H61.1586C62.025 16.5836 62.7929 16.0257 63.0607 15.2016L66.0979 5.8541Z" fill="#F2A84C"/>
<path d="M18.0979 13.8541C18.6966 12.0115 21.3034 12.0115 21.9021 13.8541L24.0413 20.4377C24.309 21.2617 25.0769 21.8197 25.9434 21.8197H32.8658C34.8032 21.8197 35.6088 24.2989 34.0413 25.4377L28.441 29.5066C27.74 30.0159 27.4467 30.9186 27.7145 31.7426L29.8536 38.3262C30.4523 40.1689 28.3433 41.7011 26.7759 40.5623L21.1756 36.4934C20.4746 35.9841 19.5254 35.9841 18.8244 36.4934L13.2241 40.5623C11.6567 41.7011 9.5477 40.1689 10.1464 38.3262L12.2855 31.7426C12.5533 30.9186 12.26 30.0159 11.559 29.5066L5.95867 25.4377C4.39124 24.2989 5.19679 21.8197 7.13424 21.8197H14.0566C14.9231 21.8197 15.691 21.2617 15.9587 20.4377L18.0979 13.8541Z" fill="#F2A84C"/>
<path d="M114.098 13.8541C114.697 12.0115 117.303 12.0115 117.902 13.8541L120.041 20.4377C120.309 21.2617 121.077 21.8197 121.943 21.8197H128.866C130.803 21.8197 131.609 24.2989 130.041 25.4377L124.441 29.5066C123.74 30.0159 123.447 30.9186 123.714 31.7426L125.854 38.3262C126.452 40.1689 124.343 41.7011 122.776 40.5623L117.176 36.4934C116.475 35.9841 115.525 35.9841 114.824 36.4934L109.224 40.5623C107.657 41.7011 105.548 40.1689 106.146 38.3262L108.286 31.7426C108.553 30.9186 108.26 30.0159 107.559 29.5066L101.959 25.4377C100.391 24.2989 101.197 21.8197 103.134 21.8197H110.057C110.923 21.8197 111.691 21.2617 111.959 20.4377L114.098 13.8541Z" fill="#F2A84C"/>
</svg>
