<svg width="59" height="54" viewBox="0 0 59 54" fill="none" xmlns="http://www.w3.org/2000/svg">
<path d="M52.4106 31.7152C52.0187 31.7557 51.7948 31.7789 51.5148 31.8079C51.4838 31.7828 51.3595 31.6825 51.2664 31.6072C50.7314 31.6343 50.1714 31.6923 49.6614 31.6884C49.2135 31.7348 48.7533 31.6692 48.3053 31.7155C47.8014 31.7677 47.2914 31.7639 46.8185 31.8411C46.3706 31.8875 45.885 32.1075 45.4498 32.0111C44.9275 31.8954 44.4791 32.1964 43.969 32.1926C43.4839 32.1579 43.011 32.2352 42.532 32.2564C42.532 32.2564 42.5382 32.3124 42.5504 32.4243C41.1629 32.6811 39.7194 32.9436 38.3808 33.6481C38.3497 33.623 38.2066 33.6095 38.0575 33.54C38.0697 33.6519 38.0509 33.7388 38.0631 33.8507C37.3037 34.1556 36.5565 34.5725 35.7661 34.8523C34.8138 35.2055 33.973 35.8019 32.9774 36.0181C32.4796 36.1262 31.9752 36.433 31.5578 36.7592C31.2963 36.956 31.1909 36.7689 30.9918 36.7612C30.9792 36.904 30.9603 36.9908 30.9227 37.1645C30.3002 37.427 29.7026 37.6585 29.0552 37.9519C29.0368 37.784 29.0246 37.6721 28.9813 37.5351C28.6392 37.5139 28.3536 37.2322 27.8365 37.6818C27.9429 37.3596 28.0054 37.155 28.1179 36.8888C27.701 36.9602 27.533 36.9776 27.3091 37.0008C27.2964 37.1436 27.2836 37.2863 27.2709 37.4291C27.1091 37.5025 26.8913 37.5816 26.6734 37.6608C26.6113 37.6106 26.5182 37.5354 26.5431 37.5045C26.6245 37.2131 26.7059 36.9218 26.7562 36.6053C26.4023 36.2175 26.1341 36.613 25.8292 36.6729C25.8231 36.6169 25.8109 36.505 25.8047 36.4491C25.6617 36.4356 25.5125 36.3661 25.3695 36.3526C25.3888 36.0111 25.4142 35.7255 25.4522 35.2972C25.9636 34.5369 26.6119 33.7341 27.1111 32.8618C27.3421 32.3852 27.7844 32.0282 27.8724 31.5381C28.0352 30.9553 28.5457 30.7044 28.6896 30.2085C28.8585 29.6817 29.3007 29.3247 29.4757 28.8539C29.6756 28.3522 30.1179 27.9952 30.2929 27.5243C30.7116 26.4341 31.5157 25.502 31.8102 24.3114C32.2026 24.0162 32.1913 23.3949 32.7079 23.1999C32.7836 22.5979 33.0706 22.1155 33.3265 21.608C33.701 20.8901 33.8082 20.0585 34.3319 19.4101C34.4815 19.2248 34.4758 18.9141 34.6009 18.5051C33.7352 19.1322 32.9692 19.636 32.0724 20.2381C31.9604 20.2497 31.6494 20.2535 31.3074 20.2323C31.17 20.5295 31.0825 20.765 30.995 21.0004C30.0921 21.5465 29.3379 22.4168 28.1371 22.5694C28.2482 23.0672 27.7005 23.237 27.5693 23.5902C26.3803 24.1093 25.5762 25.0414 24.4738 25.8346C24.4738 25.8346 24.2748 25.8269 24.1068 25.8443C23.6834 26.1144 23.5705 26.6354 23.0228 26.8053C22.612 26.9327 22.2569 27.309 22.0136 27.6737C21.7205 28.1002 21.3032 28.4263 20.9235 28.5788C20.4379 28.7988 20.2879 29.2388 19.8955 29.5341C19.7835 29.5456 19.5845 29.5379 19.3605 29.5611C18.7804 30.47 17.9208 31.1531 17.1355 31.9984C16.9676 32.0158 16.7934 31.9772 16.5695 32.0003C16.345 32.2782 16.1456 32.5252 15.8713 32.8648C15.8219 32.6719 15.8096 32.56 15.7602 32.367C15.4421 32.8244 15.0253 32.8958 14.5091 32.8361C14.4409 32.73 14.4286 32.618 14.3853 32.481C13.6014 32.5621 12.7865 32.6182 12.0586 32.6935C11.8911 32.4562 11.7546 32.244 11.5871 32.0066C11.6059 31.9198 11.6436 31.7461 11.6562 31.6033C11.5941 31.5532 11.532 31.503 11.4699 31.4528C11.364 31.5204 11.2582 31.5879 11.0714 31.6921C10.5496 31.3217 10.4324 30.7679 10.3961 30.1775C10.6582 29.7259 10.6581 29.7259 10.3607 29.0776C10.3043 29.3381 10.3165 29.45 10.2478 29.5986C10.1608 29.5793 10.0676 29.5041 9.91844 29.4346C10.037 29.2243 10.1306 29.0448 10.2492 28.8345C10.1061 28.821 9.9942 28.8326 9.93821 28.8384C9.75278 28.1785 9.56732 27.5186 9.37577 26.8027C9.42564 26.741 9.52537 26.6175 9.67499 26.4323C9.50701 26.4496 9.41995 26.4303 9.27691 26.4168C9.32066 26.2991 9.3644 26.1814 9.43309 26.0328C9.30886 25.9325 9.18465 25.8322 9.06043 25.7319C9.03595 25.508 9.02374 25.3961 9.00538 25.2283C9.31027 25.1684 9.59063 24.8847 9.92613 25.1047C9.77787 24.5258 9.34835 24.7401 8.86935 24.7613C8.99403 24.6069 9.08763 24.4275 9.18737 24.304C9.0203 23.8119 8.93412 23.2832 8.46828 22.907C8.06455 22.5809 8.2024 22.0291 8.37128 21.5023C8.22824 21.4888 8.14118 21.4695 7.97321 21.4869C8.06683 21.3074 8.1355 21.1588 8.25406 20.9485C8.223 20.9234 8.16093 20.8733 7.94965 20.7536C7.85694 20.4237 7.80187 19.9201 7.58493 19.4898C7.23765 18.9033 7.50629 18.253 7.15901 17.6664C6.8489 17.1609 6.69447 16.526 6.59609 15.8854C6.47322 15.021 6.1264 14.1797 5.86049 13.3018C5.71088 13.487 5.61113 13.6105 5.48645 13.7649C5.55469 13.871 5.59802 14.0081 5.70343 14.1952C5.51051 14.2435 5.34866 14.3169 5.1868 14.3902C5.13648 14.7066 5.06116 15.0539 5.06683 15.3646C5.04144 15.6502 4.84807 15.9531 5.15864 16.2039C4.81611 16.4375 4.91499 16.8234 4.95171 17.1591C4.83973 17.1707 4.78376 17.1765 4.72777 17.1823C4.86242 18.4134 4.62387 19.5981 4.29835 20.7636C4.34119 21.1553 4.3841 21.5471 4.458 21.9639C4.35826 22.0874 4.25851 22.2109 4.23357 22.2417C4.21385 22.838 4.15698 23.3532 4.16219 23.9185C3.90105 23.8607 3.758 23.8472 3.49685 23.7893C3.42159 24.1367 3.40227 24.4781 3.35195 24.7946C3.61921 24.9084 3.83053 25.0281 4.06674 25.1168C4.00939 25.8867 3.94593 26.6007 3.84483 27.4883C3.55308 27.1506 3.64056 26.9152 3.58502 26.6663C3.09333 26.8304 3.41615 27.1931 3.3597 27.4536C3.22278 27.4961 3.11079 27.5077 2.83695 27.5926C2.96729 27.7489 3.0727 27.936 3.20304 28.0923C3.14705 28.0981 3.03502 28.1097 2.97902 28.1155C3.12206 28.129 3.29622 28.1675 3.47031 28.2061C3.41999 28.5226 3.36351 28.783 3.276 29.0185C3.13909 29.0609 3.02713 29.0726 2.91514 29.0841C2.92739 29.1961 2.90853 29.2829 2.95183 29.4198C3.19416 29.5645 3.4925 29.7035 3.76589 29.8732C3.62103 30.8786 3.47004 31.8279 3.31907 32.7773C3.26307 32.7831 3.2631 32.7831 3.20711 32.7889C3.19487 32.677 3.15771 32.596 3.10217 32.347C2.84624 32.8545 2.63406 33.2443 2.37201 33.6959C1.98664 33.5377 1.6013 33.3795 1.06677 33.1519C1.06677 33.1519 0.817853 33.2059 0.568949 33.26C0.683199 31.9748 0.548534 30.7438 0.500929 29.532C0.404359 27.8726 0.618775 26.2093 0.634189 24.5382C0.643482 22.8113 0.907842 21.0862 1.02912 19.3476C1.11798 18.3481 1.15085 17.3544 1.27077 16.38C1.40384 15.008 1.50585 13.611 1.78196 12.2525C1.88873 11.6756 1.76541 11.0658 1.97805 10.4213C2.17799 9.91962 2.07955 9.27898 2.13033 8.70782C2.19516 7.22976 2.37199 5.74012 2.29378 4.24856C2.24573 3.2915 2.3346 2.29199 2.35522 1.18633C2.55471 0.939329 2.82901 0.599683 3.17811 0.167424C3.42656 0.368076 3.74982 0.476101 3.82984 0.94884C4.03545 0.757792 4.24104 0.566732 4.39065 0.381478C5.39806 0.531889 6.19324 1.07209 6.988 1.867C6.97531 2.00979 6.97493 2.26452 6.93685 2.69289C6.94297 2.74885 6.8305 3.01515 6.7303 3.39336C7.08461 3.52647 7.32079 3.61515 7.58193 3.67302C7.71795 4.13996 7.85399 4.60697 7.93401 5.07971C8.00791 5.49649 8.46765 5.81673 7.98163 6.29146C8.2056 6.26828 8.26159 6.26252 8.42956 6.24514C8.26068 6.77193 8.98156 7.15004 8.53272 7.7058C8.66307 7.86209 8.78727 7.96237 8.91762 8.11866C8.8988 8.20549 8.82396 8.29813 8.80515 8.38496C9.49972 9.55808 9.70874 10.9512 10.0236 12.2768C10.0857 12.327 10.2038 12.3713 10.241 12.4523C10.3648 12.8074 10.6377 13.2319 10.5563 13.5232C10.4124 14.0192 10.9653 14.4147 10.5353 14.8836C10.7527 15.0592 10.914 15.2405 11.1004 15.391C11.0566 15.5087 11.0129 15.6265 10.9753 15.8002C11.0685 15.8754 11.1927 15.9757 11.323 16.132C11.3597 16.4677 11.3776 16.8903 11.4327 17.3939C11.1716 17.3361 10.9975 17.2975 10.7923 17.2338C10.885 17.5638 10.9716 17.8377 11.0582 18.1117C11.2012 18.1252 11.2883 18.1445 11.5184 18.1773C11.5118 18.3761 11.4182 18.5555 11.4676 18.7485C11.486 18.9163 11.6102 19.0167 11.6846 19.1788C11.7966 19.1672 11.9396 19.1807 12.1697 19.2135C12.1382 19.4431 12.1254 19.5859 12.0751 19.9023C12.0253 19.9641 11.8385 20.0683 11.6019 20.2342C11.695 20.3095 11.8192 20.4098 11.9434 20.5101C11.8743 20.9134 11.7929 21.2048 12.1157 21.5675C12.6371 22.1926 12.872 23.0455 13.2127 23.8308C13.2809 23.937 13.1624 24.1473 13.1186 24.265C13.2306 24.2534 13.3176 24.2727 13.3176 24.2727C13.3976 24.7454 13.5275 25.1564 13.5455 25.579C13.5634 26.0016 13.4133 26.4415 13.3004 26.9625C13.4369 27.1747 13.6236 27.0705 13.9045 26.5322C13.9036 27.0416 13.8909 27.1844 13.8844 27.3831C13.7474 27.4256 13.6166 27.524 13.3179 27.6398C13.6411 27.7478 13.8463 27.8115 14.0514 27.8752C14.0886 27.9562 14.1008 28.0681 14.1441 28.2051C14.2811 28.1627 14.5422 28.2205 14.561 28.1337C14.7981 27.713 15.2338 27.5547 15.6135 27.4022C15.9569 26.6593 16.7225 26.4103 17.2583 25.8739C17.8192 25.3065 18.467 24.7584 19.1271 24.3223C19.7873 23.8861 20.4474 23.45 20.9833 22.9135C21.5442 22.3462 22.2353 21.9351 22.8022 21.4237C23.3941 20.8815 24.0792 20.4145 24.7704 20.0034C25.4366 19.6232 25.9664 19.0308 26.6326 18.6506C27.3238 18.2395 28.0088 17.7725 28.6007 17.2302C29.2236 16.713 29.927 16.4138 30.525 15.9275C31.1541 15.4663 31.7832 15.0051 32.4184 14.5998C33.0785 14.1636 33.8007 13.7777 34.4919 13.3666C35.1271 12.9614 35.8182 12.5503 36.5033 12.0833C36.7832 12.0543 37.1192 12.0195 37.4551 11.9847C37.4674 12.0966 37.5046 12.1777 37.5168 12.2896C37.8646 12.6215 38.1139 12.3127 38.3567 12.2027C38.7793 12.4419 39.1707 12.6561 39.5933 12.8953C39.5994 12.9513 39.6116 13.0632 39.6488 13.1442C40.4078 13.094 40.5311 13.7037 40.6732 14.2266C40.8153 14.7495 40.8205 15.3149 40.8818 15.8745C40.3577 16.7776 40.4363 18.0144 39.4398 18.74C39.5391 18.8712 39.6323 18.9465 39.7316 19.0777C39.4258 19.6469 39.0639 20.2219 38.7144 20.9089C38.7454 20.934 38.8137 21.0402 38.8509 21.1212C38.6011 21.6847 38.3823 22.2732 38.1014 22.8116C37.9829 23.0219 37.8455 23.319 37.6526 23.3673C37.1609 23.5314 36.9115 23.8401 36.8546 24.3553C36.8231 24.585 36.5926 24.8069 36.5673 25.0925C36.7418 24.8763 36.8914 24.6911 37.0909 24.4441C37.1342 24.5811 37.2273 24.6563 37.2024 24.6872C36.8222 25.0944 36.6533 25.6212 36.4534 26.1229C36.3033 26.5628 36.0663 26.9835 35.7115 27.1051C35.2758 27.2634 35.2066 27.6666 34.7272 27.9426C35.0133 27.9696 35.0692 27.9638 35.1563 27.9831C35.0679 28.7279 34.9866 29.0193 34.4761 29.2702C34.0714 29.4536 33.9712 29.8317 33.8089 30.1598C34.0145 29.9687 34.2201 29.7777 34.5753 29.4014C34.2507 30.0575 34.0136 30.4782 33.689 31.1342C35.3513 30.2831 37.0188 29.9974 38.6058 29.4936C40.2489 28.9841 41.1137 28.8663 42.5318 28.8893C42.7869 28.8912 43.0546 28.7503 43.3035 28.6962C43.7514 28.6499 44.2116 28.7155 44.6595 28.6691C45.0515 28.6286 45.4561 28.4452 45.8791 28.4297C46.9491 28.3756 48.0685 28.5145 49.1323 28.4044C49.2443 28.3928 49.3746 28.549 49.4988 28.6493C49.6607 28.576 49.8475 28.4718 50.0465 28.4795C50.9297 28.5296 51.8129 28.5797 52.6834 28.7726C53.3798 28.9269 54.0639 28.9692 54.7664 29.1795C55.4379 29.3647 55.9907 29.7601 56.6123 30.0071C57.2649 30.2791 57.6993 30.885 58.0278 31.5584C57.0261 31.7186 57.2294 32.801 56.6996 33.3935C56.9551 33.1407 57.1795 32.8629 57.435 32.6101C57.4661 32.6351 57.5282 32.6853 57.5592 32.7104C57.4096 32.8956 57.26 33.0809 57.1104 33.2661C56.9857 33.4205 56.8361 33.6058 56.7114 33.7601C56.5618 33.9454 56.3251 34.1113 56.4428 34.4104C56.1195 34.3024 56.2245 34.7443 56.0565 34.7617C55.7206 34.7964 56.0495 35.2151 55.7446 35.275C55.5517 35.3232 55.3959 35.4525 55.2402 35.5818C55.0595 35.742 54.941 35.9523 54.7914 36.1376C54.5862 36.0739 54.4681 36.0295 54.2879 35.935C54.3933 36.1222 54.4615 36.2283 54.5608 36.3595C54.486 36.4521 54.4423 36.5698 54.2926 36.7551C54.0127 36.784 53.6768 36.8188 53.3408 36.8536C53.2161 37.0079 53.1413 37.1006 53.0726 37.2491C53.1719 37.3803 53.2152 37.5174 53.3145 37.6486C53.1093 37.5849 52.9663 37.5714 52.7922 37.5329C52.7423 37.5946 52.6925 37.6563 52.6426 37.7181C52.7169 37.8802 52.7851 37.9863 52.8595 38.1483C52.3052 38.5169 51.7388 38.7736 51.3149 39.2985C51.1154 39.5455 50.7606 39.6671 50.4369 39.8138C50.4369 39.8138 50.443 39.8698 50.4242 39.9566C49.9509 40.2886 49.5086 40.6456 48.9294 41.0451C48.9238 40.7344 48.9303 40.5356 48.9369 40.3369C48.6814 40.5897 48.5567 40.7441 48.4565 41.1223C48.4006 41.1281 48.4006 41.1281 48.3446 41.1339C48.2886 41.1397 48.1766 41.1512 48.1206 41.157C48.1267 41.213 48.1639 41.2941 48.1451 41.3809C48.1512 41.4368 48.1512 41.4368 48.1573 41.4928C47.9207 41.6587 47.6529 41.7996 47.3104 42.0331C47.093 41.8576 46.8446 41.6569 46.5651 41.4312C46.5091 41.437 46.4842 41.4679 46.4032 41.5046C46.4465 41.6416 46.5209 41.8036 46.5764 42.0525C46.6635 42.0718 46.8065 42.0853 47.1236 42.1374C46.7063 42.4635 46.3638 42.697 46.0523 42.9556C45.9342 42.9112 45.841 42.836 45.7539 42.8167C45.6844 43.4747 45.2176 43.6079 44.7198 43.716C44.5519 43.7334 44.421 43.8318 44.2592 43.9051C43.9416 44.1077 43.655 44.3355 43.2876 44.5999C43.2876 44.5999 43.1695 44.5555 42.9893 44.461C42.8646 44.6154 42.7461 44.8257 42.4967 45.1344C42.5776 45.0977 42.4656 45.1094 42.3847 45.146C41.7745 45.5204 41.2263 45.945 40.61 46.2634C40.5291 46.3001 40.5102 46.3869 40.4542 46.3927C40.0868 46.6571 39.5274 46.4603 39.2343 46.8868C38.991 47.2515 38.512 47.2728 38.1944 47.4754C37.8519 47.7089 37.4472 47.8923 37.0487 48.1316C36.9429 48.1991 36.7748 48.2165 36.7 48.3091C36.5942 48.3767 36.5255 48.5253 36.3759 48.7105C36.2079 48.7279 35.9779 48.6951 35.8348 48.6816C35.6603 48.8978 35.5106 49.083 35.361 49.2683C34.7451 49.332 34.0982 49.3707 33.6804 49.9515C33.6305 50.0133 33.5806 50.075 33.5246 50.0808C32.5666 50.1233 31.9682 50.8644 31.1217 51.15C30.3002 51.4048 29.5653 51.9336 28.7499 52.2444C27.6917 52.6651 26.5964 53.0048 25.5072 53.4005C25.4262 53.4371 25.3142 53.4487 25.1712 53.4352C24.2197 53.279 23.2622 53.0668 22.3917 52.8739C22.0628 52.4553 21.7711 52.1177 21.3551 51.6797C21.3617 51.4809 21.4369 51.1336 21.4872 50.8171C22.0476 50.5045 22.5209 50.1725 23.0874 49.9158C23.6229 49.634 24.1645 49.4083 24.7682 49.2326C26.0254 48.8196 27.171 48.1634 28.3661 47.7002C29.1006 47.4261 29.7235 46.909 30.5385 46.8529C31.5849 46.0656 32.811 45.6274 33.9939 45.0523C34.5044 44.8014 35.052 44.6315 35.4943 44.2745C35.9116 43.9484 36.3972 43.7283 36.8456 43.4273C38.2778 42.5434 39.6851 41.6904 41.1173 40.8065C41.8583 40.3337 42.5994 39.8609 43.3094 39.363C44.0193 38.8651 44.6922 38.2861 45.4643 37.8384C46.7346 37.0279 47.7504 35.9607 48.9587 35.1C49.6188 34.6638 50.1114 33.9904 50.6412 33.398C51.2886 33.1046 51.7623 32.5179 52.4106 31.7152Z" fill="#ABDAF7"/>
</svg>
