<svg width="612" height="612" viewBox="0 0 612 612" fill="none" xmlns="http://www.w3.org/2000/svg">
<path d="M390.273 224.85C398.29 224.816 407.304 210.981 411.953 205.071C421.145 193.387 429.634 181.232 438.258 169.193C446.883 157.155 455.484 145.08 464.952 133.599C471.099 126.145 478.021 117.385 486.797 112.329C505.5 101.559 502.723 135.517 503.132 144.313C504.177 166.691 503.7 192.357 513.44 213.332C519.254 225.854 529.006 230.847 543.217 228.157C547.839 227.29 553.158 224.725 557.66 226.898C562.469 229.219 565.244 234.559 567.105 238.991C573.885 255.155 574.671 273.74 575.522 290.842C576.457 309.284 576.184 327.899 576.256 346.211C576.286 353.976 579.295 362.085 581.741 369.479C584.946 379.172 588.546 388.75 592.027 398.364C599.667 419.513 607.714 441.306 609.654 463.68C610.87 477.692 609.226 493.007 598.652 503.892C593.344 509.357 585.45 512.218 578.439 515.377C569.969 519.202 561.417 522.875 553.08 526.947C526.229 540.065 499.992 558.794 498.673 589.19C498.475 593.789 499.122 598.305 499.244 602.882C499.319 605.797 498.559 608.39 495.27 609.474C487.019 612.197 473.995 603.636 467.449 600.125C453.12 592.439 439.433 583.771 425.393 575.651C416.107 570.279 403.416 560.981 392.135 560.883C382.082 560.796 374.816 573.191 369.863 579.94C365.227 586.264 358.74 597.722 349.309 598.414C344.736 598.75 340.946 595.955 338.005 593.036C332.862 587.919 329.234 582.025 323.366 577.421C313.738 569.873 300.492 563.566 287.519 564.592C278.53 565.302 272.643 570.057 267.016 576.105C264.65 578.647 262.976 580.71 259.134 580.845C253.034 581.062 246.579 578.847 240.924 577.023C220.687 570.497 201.116 561.226 182.843 550.912C173.711 545.759 164.608 540.192 156.818 533.359C151.703 528.883 145.615 522.848 145.622 516.023C145.622 508.12 148.699 499.757 151 492.075C155.299 477.725 160.269 463.55 165.368 449.432C177.165 416.781 189.917 384.438 203.625 352.401C213.297 329.835 222.983 306.79 235.841 285.575C238.42 281.365 241.366 277.457 244.634 273.911C248.125 270.043 249.686 265.243 250.85 260.376C258.076 230.167 252.528 197.071 249.05 166.736C248.169 159.037 247.282 151.337 246.666 143.616C246.135 136.978 244.613 129.031 246.9 122.58C251.4 109.868 267.987 120.981 274.745 125.679C298.542 142.22 318.676 163.562 339.23 183.342C349.019 192.748 358.782 202.224 369.125 211.118C374.502 215.751 383.246 224.881 390.273 224.85Z" stroke="url(#paint0_radial_2477_78404)" stroke-width="3"/>
<path d="M391.631 230.549C400.114 225.479 406.384 216.584 412.284 209.2C420.779 198.574 428.801 187.614 437.055 176.819C444.861 166.611 452.754 156.382 461.618 146.929C467.023 141.165 473.486 133.933 481.481 131.203C498.809 125.281 496.18 157.141 496.633 165.007C497.755 184.561 498.012 206.728 507.135 224.82C512.832 236.116 522.28 240.756 535.398 238.347C539.936 237.514 543.811 236.013 548.325 237.913C553.55 240.11 556.808 245.163 559.108 249.795C566.312 264.305 567.843 281.456 569.116 297.184C570.432 313.433 571.359 330.363 570.397 346.09C570.014 352.379 572.19 359.617 573.858 365.842C576.429 375.419 579.393 384.897 582.152 394.428C587.76 413.793 593.163 433.661 593.777 453.807C594.221 468.352 591.815 483.516 582.512 495.617C573.078 507.88 558.454 513.321 544.552 520.123C520.518 531.868 491.296 547.731 486.218 574.903C485.446 579.023 485.865 582.983 485.675 587.099C485.579 589.216 485.276 591.625 483.026 592.698C477.183 595.485 466.502 587.848 462.027 585.28C449.66 578.18 437.899 570.197 425.771 562.757C416.141 556.847 405.439 549.358 394.025 547.072C380.173 544.298 370.315 562.421 360.561 568.795C343.647 579.843 334.01 558.91 325.946 548.59C316.687 536.738 299.796 526.956 285.472 537.58C279.994 541.644 276.73 546.645 269.581 548.46C258.402 551.298 245.626 549.151 234.576 546.848C217.963 543.379 201.53 537.887 186.516 530.423C175.765 525.077 158.909 516.205 160.174 503.213C161.017 494.468 164.099 485.577 166.824 477.061C170.902 464.31 175.55 451.719 180.378 439.195C191.491 410.283 203.745 381.693 217.224 353.665C226.424 334.54 264.022 281.193 265.363 277.179C269.359 265.211 268.656 251.603 268.036 239.264C267.213 222.852 265.083 206.519 263.108 190.2C262.173 182.432 261.03 174.626 260.57 166.818C260.243 161.261 259.962 153.961 263.447 149.091C270.244 139.589 285.798 150.175 292.379 154.554C312.553 167.967 330.023 184.934 347.886 200.843C356.657 208.651 365.412 216.576 374.886 223.663C378.711 226.521 386.392 233.683 391.631 230.549Z" stroke="url(#paint1_radial_2477_78404)" stroke-width="3"/>
<path d="M393.13 233.406C410.104 219.559 422.902 201.581 437.079 185.088C444.196 176.808 454.182 171.507 462.659 164.366C467.068 160.652 472.643 156.015 478.788 155.299C495.228 153.386 493.006 182.102 493.629 190.696C494.84 207.314 495.758 226.086 504.148 241.162C509.276 250.373 517.693 254.909 528.757 253.187C533.666 252.424 537.836 251.236 542.656 253.187C547.538 255.165 550.984 259.284 553.567 263.456C560.996 275.444 563.371 290.342 565.14 303.84C567.199 319.636 568.004 335.61 567.546 351.569C567.151 365.533 571.595 379.429 574.524 393.063C578.402 411.123 581.789 429.513 581.277 447.995C580.87 462.592 577.675 477.303 569.182 489.781C560.534 502.461 547.589 510.085 533.62 516.958C512.503 527.349 484.205 540.297 476.186 563.091C475.017 566.406 474.889 569.496 474.685 572.916C474.587 574.576 474.556 576.722 472.689 577.545C468.191 579.527 459.472 572.201 456.435 570.156C446.733 563.63 437.469 556.556 427.897 549.866C418.961 543.622 409.648 536.819 399.176 532.94C382.498 526.766 372.746 546.502 356.855 545.948C346.988 545.603 339.912 536.841 335.018 529.902C328.999 521.359 325.041 509.058 314.057 504.783C305.876 501.598 301.114 506.596 294.907 510.445C284.388 516.966 270.129 517.411 257.953 516.732C241.5 515.817 224.804 512.242 209.68 506.156C202.823 503.4 195.692 500.022 190.366 495.049C185.377 490.388 184.098 485.979 185.119 479.752C188.252 460.689 196.982 441.441 204.781 423.16C214.58 400.191 225.398 377.54 237.569 355.565C245.869 340.58 254.652 325.257 266.119 312.104C269.109 308.676 272.358 305.167 276.302 302.659C279.266 300.764 281.713 299.961 283.405 296.766C288.419 287.3 287.107 274.131 286.586 263.989C285.757 247.769 283.547 231.63 281.558 215.511C280.39 206.105 276.713 188.387 285.532 180.876C293.148 174.393 306.133 182.216 312.841 186.212C329.807 196.32 344.697 209.323 360.028 221.387C367.055 226.916 371.289 228.5 379.1 233.068C380.03 233.613 381.102 234.311 382.289 234.967C383.509 235.643 384.861 236.253 386.15 236.424C388.922 236.787 391.037 235.106 393.13 233.406Z" stroke="url(#paint2_radial_2477_78404)" stroke-width="3"/>
<path d="M392.024 238.754C407.033 225.959 419.363 210.545 433.409 196.809C439.706 190.65 446.312 184.431 453.995 179.738C458.126 177.214 463.326 174.535 468.461 175.23C483.199 177.227 481.868 200.845 482.731 210.387C483.998 224.565 485.275 240.853 493.223 253.39C498.429 261.602 506.114 264.682 516.029 263.148C526.663 261.502 534.383 265.183 540.315 273.558C547.747 284.058 550.776 297.313 552.929 309.504C555.504 324.131 556.65 339.035 556.345 353.946C556.045 368.417 558.661 382.437 560.361 396.812C562.614 415.872 563.725 435.543 559.108 454.387C555.086 470.794 546.225 485.614 532.521 496.724C518.219 508.328 500.199 514.073 484.377 523.495C474.507 529.372 461.452 537.567 457.615 548.547C456.336 552.209 458.062 558.885 451.768 555.96C448.168 554.288 445.01 551.158 442.067 548.686C437.311 544.692 432.687 540.565 427.997 536.503C417.998 527.847 407.786 518.576 395.949 512.087C381.044 503.912 369.571 516.065 354.457 514.583C346.323 513.788 339.831 508.545 334.732 502.997C331.429 499.408 328.568 495.481 325.898 491.471C323.109 487.286 320.985 482.33 317.38 478.679C312.25 473.475 306.177 475.733 299.545 476.71C287.859 478.428 276.049 478.805 264.296 477.834C249.889 476.645 235.069 473.859 221.976 467.989C216.879 465.705 211.474 462.812 208.058 458.516C204.641 454.22 204.874 449.777 205.903 444.854C208.944 430.254 216.02 415.683 222.727 401.832C231.123 384.497 240.505 367.502 251.18 351.272C258.549 340.069 266.51 328.829 276.5 319.457C279.408 316.731 282.521 314.138 285.997 312.04C288.382 310.601 291.457 309.829 293.249 307.742C298.842 301.215 297.172 288.11 296.847 280.455C296.199 265.178 293.118 250.141 292.37 234.883C291.96 226.556 290.931 213.514 298.578 207.398C305.767 201.647 317.089 206.856 324.016 210.294C337.635 217.049 349.769 226.124 362.429 234.258C367.639 237.602 373.089 241.267 379.038 243.434C384.339 245.358 388.176 242.032 392.024 238.754Z" stroke="url(#paint3_radial_2477_78404)" stroke-width="3"/>
<path d="M391.785 241.903C404.992 231.719 416.716 219.442 430.14 209.184C438 203.18 451.214 192.84 462.296 197.483C474.473 202.577 474.805 220.334 475.787 230.598C476.955 242.815 478.55 257.16 486.153 267.616C488.557 270.922 491.739 273.74 495.93 274.934C500.414 276.212 504.339 274.815 508.829 274.633C518.247 274.251 525.809 279.464 531.002 286.364C538.344 296.114 541.815 308.307 544.235 319.824C546.957 332.798 548.306 346.091 548.253 359.426C548.206 372.127 548.51 384.695 548.86 397.41C549.327 414.038 548.573 430.9 543.81 447.03C539.115 462.919 530.315 477.365 517.372 488.713C504.741 499.783 489.303 507.252 473.578 513.794C464.652 517.506 451.314 523.777 446.806 532.63C444.796 536.568 444.934 540.433 439.716 536.246C433.145 530.974 427.873 523.869 422.253 517.763C414.142 508.955 405.873 499.925 396.23 492.532C390.073 487.811 384.097 485.707 376.125 486.031C370.05 486.282 364.041 487.422 357.944 486.846C343.634 485.497 333.821 475.045 324.682 465.806C318.805 459.863 314.322 454.435 305.962 451.375C296.081 447.757 285.331 446.235 275.072 443.819C263.806 441.163 252.086 438.096 242.163 432.296C233.328 427.135 229.367 420.857 231.748 411.463C235.458 396.809 244.596 382.364 253.05 369.356C261.65 356.115 271.321 343.099 283.144 332.128C289.528 326.203 297.024 322.16 303.882 316.899C312.492 310.283 309.232 295.31 308.503 286.414C307.293 271.645 298.239 225.173 327.564 229.461C339.804 231.251 351.101 238.3 361.902 243.455C366.385 245.591 371.764 248.683 376.901 249.166C382.495 249.694 387.808 244.965 391.785 241.903Z" stroke="url(#paint4_radial_2477_78404)" stroke-width="3"/>
<path d="M390.662 247.278C402.631 239.495 413.938 230.182 426.865 223.504C435.237 219.172 446.422 214.919 455.28 220.506C465.276 226.813 467.607 240.722 468.88 250.941C470.191 261.471 471.295 274.039 478.874 282.645C481.288 285.382 484.544 287.64 488.442 288.06C492.182 288.465 495.921 287.321 499.728 287.7C508.278 288.549 515.321 293.355 520.431 299.552C535.545 317.883 538.906 345.165 539.301 367.282C539.498 378.353 538.466 389.746 537.728 400.888C536.771 415.346 534.713 429.826 529.756 443.615C519.22 472.932 495.853 492.582 466.776 506.306C457.624 510.625 447.722 513.93 440.367 520.698C436.569 524.187 433.841 523.425 430.378 519.857C424.965 514.281 420.828 507.477 416.31 501.287C409.886 492.482 403.365 483.489 395.669 475.702C390.363 470.335 385.251 466.524 377.296 465.368C371.624 464.543 365.844 464.736 360.137 464.239C349.294 463.295 338.535 460.061 329.541 454.336C322.413 449.788 315.935 444.373 309.757 438.777C301.771 431.472 293.138 425.12 283.998 419.822C271.363 412.497 248.057 402.204 254.225 384.95C261.032 365.918 278.325 348.082 295.079 335.872C300.705 331.772 307.604 328.406 311.752 322.876C317.953 314.596 317.735 306.198 317.71 296.351C317.675 281.609 314.223 249.531 338.043 249.185C347.48 249.048 356.404 252.834 365.481 254.647C375.648 256.691 382.505 252.593 390.662 247.278Z" stroke="url(#paint5_radial_2477_78404)" stroke-width="3"/>
<path d="M389.592 253.074C405.191 245.377 430.823 228.112 448.17 241.243C457.338 248.178 460.782 260.444 462.834 270.734C464.495 279.014 465.118 289.002 472.158 295.258C477.333 299.857 484.865 297.814 491.344 299.577C499.377 301.764 505.948 306.783 510.888 312.951C524.693 330.186 528.93 354.151 529.831 374.885C530.764 396.418 526.397 420.145 517.99 440.408C507.505 465.673 487.654 484.602 462.513 497.839C457.872 500.28 453.11 502.5 448.413 504.845C445.263 506.422 442.216 508.758 438.901 510C433.376 512.068 428.858 509.632 425.257 505.727C420.072 500.109 416.382 493.209 412.491 486.805C407.166 478.048 401.937 469.095 395.689 460.949C391.485 455.475 386.957 449.744 379.663 447.785C374.688 446.448 369.419 446.171 364.267 446.219C353.22 446.323 344.287 445.785 334.169 441.004C317.559 433.137 302.623 421.04 290.196 408.26C280.443 398.23 265.292 382.36 271.813 367.746C277.652 354.635 291.628 346.966 302.927 338.326C308.42 334.126 313.437 329.407 317.344 323.865C322.27 316.875 324.337 310.296 325.143 302.015C326.5 288.077 326.852 267.062 344.883 262.755C351.537 261.164 358.429 262.073 365.169 261.238C374.082 260.146 381.724 256.958 389.592 253.074Z" stroke="url(#paint6_radial_2477_78404)" stroke-width="3"/>
<path d="M389.015 261.079C406.083 255.598 427.594 248.396 442.763 261.635C450.112 268.048 454.221 277.068 457.29 285.797C459.491 292.049 460.139 301.978 466.902 305.811C471.88 308.627 478.748 309.017 484.081 311.563C491.062 314.915 497.258 320.058 502.18 326.586C514.499 342.792 519.26 363.898 520.624 383.145C523.581 424.967 500.024 467.52 461.268 489.9C449.715 496.572 437.419 505.185 425.616 494.401C412.74 482.628 406.709 464.892 397.559 450.84C394.066 445.472 389.866 438.63 383.542 435.634C379.74 433.833 374.97 433.709 370.785 433.627C360.126 433.41 350.539 432.589 340.593 428.616C325.222 422.478 311.042 412.691 299.426 401.6C289.297 391.928 277.394 378.134 284.696 364.087C290.307 353.317 302.218 346.487 310.998 338.118C320.776 328.803 327.365 317.287 330.583 304.639C333.706 292.335 335.814 278.84 349.085 272.356C353.637 270.131 359.531 267.807 364.57 266.973C372.827 265.64 380.995 263.671 389.015 261.08L389.015 261.079Z" stroke="url(#paint7_radial_2477_78404)" stroke-width="3"/>
<path d="M388.896 270.001C406.132 267.464 424.103 267.183 437.687 278.966C444.024 284.464 448.527 291.416 452.606 298.445C455.607 303.616 458.139 308.957 463.06 312.819C467.616 316.398 472.906 319.118 477.581 322.572C483.607 326.956 488.971 332.41 493.466 338.722C504.286 354.111 509.347 372.832 511.103 390.741C511.956 399.41 512.401 408.816 510.075 417.427C507.83 425.744 504.282 433.968 500.145 441.614C491.357 457.871 478.488 471.96 462.218 482.174C451.059 489.176 440.207 492.963 428.886 483.894C416.125 473.67 409.084 457.64 400.803 444.427C395.122 435.364 389.554 425.208 377.483 423.515C367.877 422.166 358.761 421.072 349.681 417.584C336.289 412.394 324.157 404.762 314.006 395.142C304.758 386.345 296.911 375.214 301.85 362.63C305.77 352.66 314.552 344.924 320.831 336.213C327.843 326.505 331.71 315.839 334.819 304.607C337.624 294.513 341.935 285.008 351.087 278.484C353 277.06 355.005 275.801 357.085 274.717C359.753 273.404 362.401 273.506 365.393 273.248C373.29 272.576 381.096 271.15 388.896 270.001Z" stroke="url(#paint8_radial_2477_78404)" stroke-width="3"/>
<path d="M390.302 279.844C406.673 280.061 422.145 283.711 434.904 293.709C440.361 297.983 444.857 303.087 449.858 307.791C453.888 311.578 457.635 315.157 460.958 319.511C468.825 329.841 479.006 338.236 486.011 349.213C495.377 363.867 500.553 380.653 502.623 397.308C503.635 405.441 503.988 413.843 502.846 422.071C501.865 429.137 498.42 435.906 494.898 442.185C487.996 454.491 478.185 466.441 465.773 474.429C438.41 492.045 418.515 457.314 406.864 439.489C401.505 431.291 395.299 418.764 384.682 415.406C377.098 413.005 369.385 411.544 362.035 408.452C342.298 400.147 319.083 383.291 322.174 360.825C323.494 351.214 328.858 342.453 332.46 333.479C336.168 324.239 338.236 314.703 340.504 305.1C342.623 296.125 345.639 288.97 353.724 283.173C357.584 280.402 362.206 280.647 366.943 280.4C374.724 279.996 382.549 279.746 390.302 279.844Z" stroke="url(#paint9_radial_2477_78404)" stroke-width="3"/>
<path d="M392.402 288.805C417.112 292.413 444.09 305.818 458.44 325.527C475.321 348.709 489.537 373.825 493.623 401.523C495.518 414.365 496.45 428.433 490.254 440.55C485.541 449.772 478.496 460.484 468.59 465.559C444.358 477.976 425.068 450.358 413.857 434.622C407.821 426.151 401.94 415.368 393.127 408.982C388.018 405.278 381.258 403.387 375.646 400.397C358.64 391.332 344.923 376.412 342.469 357.827C341.336 349.234 342.737 340.58 343.853 332.05C344.993 323.321 345.612 314.482 347.202 305.807C348.473 298.882 350.625 290.72 358.618 288.17C368.692 284.954 382.311 287.332 392.402 288.805Z" stroke="url(#paint10_radial_2477_78404)" stroke-width="3"/>
<path d="M396.373 297.593C419.605 302.857 442.266 314.003 456.136 332.741C463.49 342.677 468.567 354.211 473.582 365.286C479.267 377.838 483.68 390.955 485.868 404.348C488.595 421.025 491.053 448.037 470.556 456.751C450.212 465.4 432.207 443.545 421.946 430.621C415.372 422.334 409.339 413.467 402.154 405.55C398.258 401.257 393.756 397.95 389.188 394.317C376.528 384.277 366.505 369.963 361.155 355.373C355.967 341.234 353.67 323.742 355.385 308.815C356.123 302.375 358.607 297.772 365.673 295.824C375.498 293.125 386.776 295.418 396.373 297.593Z" stroke="url(#paint11_radial_2477_78404)" stroke-width="3"/>
<path d="M402.629 306.326C423.084 311.555 441.766 322.831 454.043 339.284C467.805 357.724 475.453 381.47 479.342 403.295C481.407 414.896 487.007 440.036 470.979 445.948C454.951 451.861 439.156 434.767 430.46 424.928C419.923 412.987 409.749 400.113 400.295 387.252C392.075 376.083 383.671 364.16 377.323 352.058C373.763 345.333 370.82 338.216 368.538 330.815C366.889 325.402 364.43 318.519 365.657 312.844C368.757 298.531 392.849 303.825 402.629 306.326Z" stroke="url(#paint12_radial_2477_78404)" stroke-width="3"/>
<path d="M408.753 317.101C447.436 328.574 466.46 364.923 473.092 399.921C474.631 408.053 480.181 430.851 468.364 435.397C456.907 439.803 443.32 425.792 436.883 419.235C416.935 398.91 402.145 373.801 387.493 350.006C382.92 342.579 372.995 329.184 377.573 319.971C382.554 309.969 400.732 314.725 408.753 317.101Z" stroke="url(#paint13_radial_2477_78404)" stroke-width="3"/>
<path d="M416.201 328.852C444.688 338.83 461.026 367.849 466.413 394.529C467.731 401.064 471.835 417.661 463.884 422.611C456.53 427.191 445.875 416.26 441.641 412.172C432.212 403.068 424.445 392.278 416.979 381.619C410.072 371.764 402.992 361.803 397.15 351.431C394.075 345.97 387.514 335.726 392.262 329.518C397.369 322.834 409.875 326.637 416.201 328.852Z" stroke="url(#paint14_radial_2477_78404)" stroke-width="3"/>
<path d="M424.518 341.802C443.121 349.407 455.202 369.773 459.216 387.739C460.295 392.574 463.09 403.021 458.122 407.1C453.547 410.855 446.839 404.804 443.741 402.118C430.01 390.216 417.745 372.787 410.212 356.818C408.318 352.803 404.601 345.585 408.424 341.454C412.349 337.217 420.246 340.056 424.518 341.802Z" stroke="url(#paint15_radial_2477_78404)" stroke-width="3"/>
<path d="M432.336 355.542C441.574 359.827 448.542 371.026 450.763 380.303C452.324 386.833 450.975 394.68 442.934 388.99C434.953 383.337 427.665 372.849 424.434 363.96C421.97 357.178 424.401 351.862 432.336 355.542Z" stroke="url(#paint16_radial_2477_78404)" stroke-width="3"/>
<path d="M368.354 8.05551C386.605 7.78044 405.571 -1.21065 424.167 3.22988C439.44 6.87634 440.715 25.2333 447.634 36.2474C453.131 44.9996 462.87 49.965 472.214 54.6964C480.602 58.9475 489.243 62.7681 497.493 67.2476C502.827 70.1472 513.301 75.1267 513.49 81.4152C513.672 87.4353 505.509 92.9558 500.685 96.4531C494.396 101.014 487.692 105.055 481.302 109.482C470.525 116.944 462.548 125.895 454.998 136.147C446.405 147.813 438.108 159.672 430.105 171.722C424.194 180.595 418.328 189.528 411.834 198.056C407.758 203.404 400.113 215.21 392.601 215.265C389.016 215.291 385.046 212.143 382.181 210.02C377.33 206.428 372.896 202.333 368.556 198.226C360.474 190.576 352.758 182.602 344.948 174.715C334.814 164.476 324.846 154.697 313.339 145.697C301.43 136.392 289.128 127.502 276.993 118.431C268.772 112.287 259.541 106.15 254.497 97.2886C248.192 86.1894 254.841 77.0791 254.917 65.8544C254.985 56.1987 279.122 56.9108 285.834 55.6836C292.627 54.4522 298.951 51.7382 305.76 50.6871C314.26 49.3757 322.957 49.3584 331.548 49.0359C342.058 48.6444 352.062 48.4899 356.069 38.0773C358.346 32.1523 358.825 25.744 360.189 19.6095C361.075 15.6363 362.588 8.14191 368.354 8.05551Z" stroke="url(#paint17_radial_2477_78404)" stroke-width="3"/>
<path d="M371.607 12.8055C386.906 11.7936 406.485 5.81404 422.277 11.4685C435.772 16.2994 437.521 31.4076 444.61 41.5806C450.457 49.9788 460.026 53.7175 469.425 57.9152C476.965 61.283 484.578 64.5493 491.877 68.3722C497.256 71.1896 506.338 75.4917 507.451 81.3498C508.453 86.6172 500.435 92.2642 496.356 95.2205C490.401 99.5332 483.935 103.222 477.604 107.032C466.483 113.727 456.482 120.583 448.313 130.379C440.109 140.221 433.972 150.988 427.588 161.87C422.592 170.383 417.452 178.853 411.685 186.941C407.39 192.967 401.894 201.629 394.237 204.386C388.179 206.57 378.127 195.5 374.579 192.236C367.285 185.518 360.436 178.398 353.631 171.266C345.338 162.571 338.085 153.598 328.624 145.919C311.711 132.185 290.647 120.704 278.075 103.033C270.494 92.3748 268.554 80.5132 269.688 68.6581C270.138 63.9625 277.288 62.8367 281.457 62.2451C288.385 61.261 295.432 61.1376 302.388 60.3836C308.899 59.6748 315.085 58.1016 321.47 56.8335C327.939 55.5504 334.567 55.1906 341.081 54.2457C345.124 53.6605 349.83 53.0818 353.081 50.5225C356.447 47.8741 357.857 43.505 358.928 39.6865C360.921 32.5123 360.811 13.5204 371.607 12.8055Z" stroke="url(#paint18_radial_2477_78404)" stroke-width="3"/>
<path d="M378.003 18.9143C392.045 17.2119 409.535 14.8299 422.473 21.7636C433.052 27.4317 435.334 39.5202 442.227 48.1548C447.959 55.3363 457.075 58.0492 465.547 61.6123C472.496 64.5372 479.475 67.4776 486.087 71.0229C491.102 73.7117 497.902 77.1767 499.651 82.5152C501.146 87.0794 494.449 92.2362 491.116 94.7663C485.436 99.0748 479.071 102.588 472.79 106.076C462.512 111.783 451.536 117.034 443.175 125.158C435.063 133.051 430.274 142.427 424.89 151.978C420.765 159.294 416.482 166.565 411.563 173.458C407.787 178.751 403.315 185.309 397.034 188.068C391.618 190.453 385.206 184.33 381.384 181.27C375.078 176.218 369.293 170.61 363.484 165.083C357.217 159.115 351.436 152.506 345.015 146.732C331.504 134.59 316.542 124.888 306.19 109.922C299.484 100.23 293.392 87.1872 294.487 75.7297C295.277 67.4901 314.949 68.0319 321.234 67.2406C331.511 65.9395 342.31 63.4266 351.776 59.4359C359.889 56.0076 362.39 47.8611 364.209 40.3674C365.351 35.6717 365.969 30.7539 367.734 26.2122C369.781 20.9548 372.116 19.6278 378.003 18.9143Z" stroke="url(#paint19_radial_2477_78404)" stroke-width="3"/>
<path d="M384.59 24.6129C396.462 23.5996 410.501 23.8271 420.771 30.3921C429.766 36.1454 432.135 46.3885 439.221 53.6739C444.749 59.3589 453.764 61.5925 461.075 64.6505C470.013 68.3875 486.525 73.6249 489.889 83.0517C493.016 91.82 473.038 100.992 467.081 104.168C457.652 109.194 447.312 113.398 438.605 119.494C431.109 124.743 426.965 131.777 422.511 139.242C416.823 148.762 410.078 163.213 398.994 168.302C390.734 172.095 378.454 159.758 372.731 155.549C366.753 151.143 359.667 147.825 353.899 143.28C344.797 136.104 337.47 124.478 331.878 114.879C326.439 105.546 320.418 93.4276 320.777 82.8414C321.012 75.8827 332.603 74.5599 338.265 73.0765C346.314 70.9496 353.527 68.1219 359.001 62.0474C364.575 55.8647 367.2 48.5771 369.499 40.916C370.67 36.9837 371.583 32.4973 373.95 28.9801C376.524 25.0924 380.026 25.0033 384.59 24.6129Z" stroke="url(#paint20_radial_2477_78404)" stroke-width="3"/>
<path d="M391.433 31.5544C401.69 31.61 412.627 33.7847 420.539 40.2307C427.129 45.5995 429.331 54.0035 436.068 59.1431C441.402 63.2141 448.889 65.2863 455.083 68.012C462.673 71.3461 475.932 76.059 478.566 84.3493C481.13 92.4396 466.526 99.5953 460.747 102.697C452.274 107.24 443.292 110.917 434.842 115.501C428.212 119.092 423.939 123.483 419.667 129.33C414.648 136.193 409.088 145.77 400.784 149.436C394.772 152.08 385.167 145.681 379.87 143.358C376.312 141.8 372.7 140.374 368.844 139.592C365.842 138.98 363.063 138.921 360.485 137.154C354.001 132.704 353.154 122.948 351.016 116.329C348.179 107.538 344.955 98.21 344.34 89.0099C343.956 83.3555 349.576 80.4698 353.53 77.2426C358.203 73.4289 361.565 68.0298 365.092 63.3139C369.754 57.0901 372.655 50.3176 375.623 43.3109C376.963 40.1504 378.278 36.4375 380.942 33.99C383.705 31.4333 387.731 31.5347 391.433 31.5544Z" stroke="url(#paint21_radial_2477_78404)" stroke-width="3"/>
<path d="M397.52 38.8481C406.134 39.9656 414.367 43.4475 420.457 49.3287C425.132 53.837 427.765 59.8243 433.382 63.4433C438.618 66.8158 444.572 69.1641 450.171 71.9487C456.09 74.8958 465.983 79.2741 467.594 86.0711C469.328 93.3965 459.349 99.0395 453.818 102.164C446.829 106.112 439.309 109.11 432.078 112.639C426.815 115.21 421.894 118.597 417.455 122.701C412.917 126.909 408.57 132.614 402.332 134.743C396.806 136.625 390.12 133.104 384.517 132.482C378.53 131.817 372.242 132.982 367.101 129.297C356.501 121.697 358.467 102.623 358.24 91.718C358.006 80.9584 364.493 72.3077 370.665 63.6C374.74 57.8486 378.19 51.8596 381.986 45.9629C385.86 39.9528 389.939 37.8653 397.52 38.8481Z" stroke="url(#paint22_radial_2477_78404)" stroke-width="3"/>
<path d="M402.455 45.6226C414.935 48.927 421.568 59.2468 430.999 66.6241C438.719 72.6603 454.708 77.1864 456.824 87.3514C459.224 98.8934 438.039 105.803 429.864 109.816C420.798 114.269 413.423 122.199 403.826 125.497C398.789 127.231 394.089 125.741 389.053 124.819C383.522 123.807 377.871 123.046 373.421 119.554C364.664 112.679 364.725 99.2532 364.484 89.5823C364.233 79.5723 370.235 70.7165 376.224 62.7423C382.567 54.2827 389.656 42.2384 402.455 45.6226Z" stroke="url(#paint23_radial_2477_78404)" stroke-width="3"/>
<path d="M405.831 51.158C414.723 54.8811 421.951 62.705 428.775 69.054C434.464 74.3537 445.916 80.0537 446.732 88.1323C447.694 97.6283 435.466 103.383 427.967 107.12C420.6 110.797 412.82 116.096 404.734 118.133C396.31 120.256 384.964 114.601 379.003 109.208C372.357 103.195 369.901 93.3542 370.166 84.9104C370.436 76.0697 375.928 67.9574 381.627 61.2618C387.718 54.1031 395.51 46.8294 405.831 51.158Z" stroke="url(#paint24_radial_2477_78404)" stroke-width="3"/>
<path d="M407.511 56.2958C414.906 59.8522 421.162 66.0171 426.742 71.7013C431.051 76.0882 438.376 82.5609 438.556 88.8902C438.754 95.8525 432.605 101.753 426.303 104.52C420.086 107.248 412.292 110.123 405.472 110.531C390.621 111.419 373.985 93.361 375.339 79.8016C376.624 66.9462 392.775 49.2049 407.511 56.2958Z" stroke="url(#paint25_radial_2477_78404)" stroke-width="3"/>
<path d="M408.321 61.0413C417.957 65.9478 431.693 77.8652 432.019 88.8982C432.392 101.562 417.107 104.741 406.028 103.091C394.722 101.414 378.357 86.8129 380.568 75.1706C382.726 63.8075 396.894 55.2265 408.321 61.0413Z" stroke="url(#paint26_radial_2477_78404)" stroke-width="3"/>
<path d="M409.876 66.055C417.943 70.2088 428.02 79.0732 428.326 88.3188C428.687 99.3354 415.78 99.127 407.749 96.6292C399.409 94.0319 385.164 82.5907 387.413 72.945C389.608 63.5655 402.143 62.0743 409.876 66.055Z" stroke="url(#paint27_radial_2477_78404)" stroke-width="3"/>
<path d="M410.811 70.4233C416.567 73.1653 423.843 80.0267 424.076 86.5514C424.356 94.5256 414.119 92.9752 409.179 90.915C403.3 88.466 393.085 80.2576 394.74 73.3693C396.37 66.587 406.068 68.161 410.811 70.4233Z" stroke="url(#paint28_radial_2477_78404)" stroke-width="3"/>
<path d="M81.9019 445.53C70.3524 427.881 60.8187 407.929 51.1284 389.113C36.9702 361.618 23.191 333.717 12.6444 304.826C6.9901 289.337 -1.16068 269.265 3.26855 252.644C4.88647 246.567 9.78396 241.026 12.9655 235.577C17.3528 228.064 21.5227 220.441 25.7017 212.83C34.0789 197.564 42.3721 182.25 51.2868 167.245C55.5804 160.021 60.9884 153.01 64.6515 145.488C66.7937 141.093 65.7914 135.833 65.6561 131.136C65.3408 120.256 64.7426 109.383 64.2334 98.5105C63.6121 85.2111 62.9509 71.8811 63.1962 58.5668C63.3096 52.5606 62.159 37.8542 67.7388 34.5481C70.7431 32.7699 76.1612 36.9615 78.6658 38.9047C83.2725 42.4728 87.4236 46.5733 91.5326 50.6204C101.035 59.9791 110.086 69.9188 120.701 78.2383C126.158 82.5127 132.825 88.1127 140.275 85.3234C147.8 82.5069 154.315 77.6284 161.814 74.6519C170.443 71.2247 179.423 69.8021 188.574 68.1853C195.337 66.9872 201.329 64.1968 207.563 61.5725C214.455 58.6738 221.404 55.6713 228.672 53.6586C233.473 52.3286 242.109 50.1814 245.148 54.835C249.47 61.4478 245.971 73.8453 244.698 81.3821C242.941 91.798 240.703 102.137 238.776 112.526C237.374 120.067 235.837 127.635 235.673 135.301C235.409 147.661 236.323 160.061 237.173 172.388C238.747 195.213 240.882 217.874 240.882 240.776C240.882 260.841 215.847 307.209 211.438 318.062C202.639 339.726 194.296 361.966 182.588 382.467C179.418 388.012 175.194 396.548 168.669 399.466C164.649 401.266 162.324 400.439 159.734 404.685C156.199 410.478 154.811 417.9 153.23 424.312C150.683 434.64 148.527 445.047 146.222 455.422C141.571 476.405 136.31 497.245 131.248 518.141C129.717 524.458 129.379 532.101 126.683 538.123C124.952 542.005 122.772 541.603 120.142 538.598C115.527 533.326 112.964 525.939 110.332 519.712C106.475 510.59 103.034 501.318 99.6416 492.04C96.2496 482.763 92.9626 473.44 89.565 464.159C87.3248 458.031 85.5058 451.04 81.9019 445.53Z" stroke="url(#paint29_radial_2477_78404)" stroke-width="3"/>
<path d="M84.4442 431.011C72.8712 412.342 63.6515 391.618 54.6563 371.639C43.1368 346.071 32.3405 319.923 25.1398 292.981C20.9146 277.165 16.2499 258.501 21.0958 242.339C22.8247 236.573 26.7103 232.266 30.1402 227.323C34.0542 221.689 37.6402 215.839 41.1705 209.988C48.437 197.945 55.4552 185.775 62.2251 173.477C65.8254 166.963 70.6475 159.795 71.8964 152.435C72.8898 146.584 71.4519 139.938 71.0332 134.063C70.2799 123.48 69.5032 112.899 68.8437 102.312C68.0825 90.0951 67.3817 77.844 67.503 65.6007C67.5708 58.7771 66.4501 47.0633 71.2064 42.2374C75.3562 38.0275 90.3661 53.3554 93.2179 56.0511C102.122 64.4699 110.6 73.3229 120.121 81.1587C125.736 85.7893 132.565 91.4276 140.007 93.3797C146.349 95.0415 153.574 91.8349 159.438 89.9409C166.781 87.5725 174.394 85.662 181.583 82.9094C187.988 80.4588 193.694 76.5584 199.517 73.1326C205.922 69.3644 212.433 65.5473 219.421 62.7514C223.721 61.0376 230.921 58.2008 235.02 61.6072C239.746 65.5423 236.658 77.672 235.985 82.6582C234.6 92.7732 232.541 102.81 230.698 112.855C227.638 129.54 224.962 145.447 225.603 162.437C226.44 184.563 228.41 206.667 229.5 228.787C229.907 236.956 230.726 245.255 230.284 253.432C230.029 258.119 228.485 261.686 225.001 264.413C220.248 268.137 217.616 276.71 214.888 282.674C210.638 291.971 206.685 301.386 202.679 310.777C193.883 331.388 185.404 352.396 174.028 371.943C170.43 378.127 166.417 385.208 160.473 389.782C157.158 392.335 153.965 391.692 150.442 393.249C145.807 395.312 143.714 402.094 142.2 406.149C139.271 413.973 137.308 422.118 135.47 430.201C131.31 448.489 128.575 466.821 126.561 485.405C126.093 489.761 124.472 506.911 116.658 497.904C108.02 487.949 103.79 473.579 98.923 461.862C94.5483 451.308 90.4778 440.746 84.4442 431.011Z" stroke="url(#paint30_radial_2477_78404)" stroke-width="3"/>
<path d="M86.5787 405.209C76.397 387.66 68.801 368.22 61.5349 349.32C52.7175 326.385 44.8577 302.877 40.4547 278.82C37.6918 263.711 35.5683 247.052 40.1601 232.043C43.295 221.794 51.7689 213.864 57.5992 204.864C63.4296 195.863 68.9021 186.495 73.4637 176.848C76.2946 170.862 79.1467 164.421 78.7718 157.76C77.8654 141.562 75.7063 125.385 74.6559 109.171C73.9551 98.4433 73.379 87.6956 73.5509 76.9369C73.6535 70.4492 73.2331 61.5356 76.9149 55.7928C80.9861 49.4438 115.747 83.2504 119.659 86.4454C129.47 94.4562 142.489 104.157 156.441 102.608C169.778 101.126 179.735 94.7068 190.185 87.4434C196.13 83.3221 212.011 70.1058 219.742 75.0031C224.162 77.8013 222.631 87.0247 222.33 91.4066C221.737 100.042 220.461 108.63 219.354 117.22C217.75 129.746 215.272 142.615 214.545 155.194C214.041 163.953 214.715 172.764 214.729 181.538C214.748 194.12 214.644 206.7 214.524 219.282C214.421 229.846 214.524 240.499 213.431 251.026C212.758 257.57 211.247 262.537 206.977 267.232C203.263 271.316 201.089 277.477 198.727 282.685C194.828 291.284 191.215 299.995 187.543 308.678C179.854 326.857 172.326 345.246 162.716 362.647C158.332 370.59 152.194 383.946 141.564 385.81C137.732 386.482 136.075 386.976 133.895 390.447C130.801 395.373 129.408 401.273 128.196 406.8C125.37 419.685 125.792 432.946 122.999 445.806C121.849 451.043 119.363 457.881 113.672 451.903C107.018 444.924 103.359 434.766 99.2488 426.406C97.198 422.233 95.2781 417.933 92.7739 413.971C90.8464 410.927 88.372 408.322 86.5787 405.209Z" stroke="url(#paint31_radial_2477_78404)" stroke-width="3"/>
<path d="M89.7587 371.971C81.4903 355.758 75.4765 338.15 70.0563 320.859C64.0437 301.652 59.0637 281.984 56.9439 262.054C55.4758 248.293 55.0421 233.631 59.5357 220.275C62.3782 211.828 68.3553 206.102 73.3682 198.834C80.9447 187.864 86.9471 175.995 85.4871 162.817C83.8529 148.043 82.6268 133.22 81.809 118.348C81.3152 109.377 80.9449 100.371 81.2892 91.3906C81.5045 85.712 81.8674 78.3963 84.6419 73.4562C88.3576 66.8462 116.632 91.6746 120.752 94.7695C130.971 102.446 141.695 108.072 154.357 111.359C164.689 114.04 172.812 108.563 180.541 102.913C185.34 99.3998 197.412 88.0479 203.647 91.6043C207.084 93.5537 206.906 99.9772 207.081 103.427C207.414 110.002 207.067 116.606 206.915 123.18C206.681 132.889 208.29 143.224 206.995 152.85C204.128 174.185 201.647 195.466 199.683 216.933C198.601 228.767 197.618 240.672 195.531 252.4C194.782 256.61 193.988 260.959 192.293 264.948C191.205 267.514 189.35 268.914 187.828 271.079C180.585 281.406 176.857 294.885 172.214 306.515C166.042 321.975 159.966 337.519 152.675 352.568C148.84 360.484 144.433 371.54 136.607 376.987C134.242 378.633 132.349 377.932 130.077 378.966C127.455 380.158 126.671 383.776 125.942 386.113C124.282 391.417 121.772 413.618 112.033 403.388C107.396 398.506 104.419 392.286 100.774 386.782C99.4534 384.791 98.126 382.847 96.3443 381.186C93.3572 378.409 91.6528 375.672 89.7587 371.971Z" stroke="url(#paint32_radial_2477_78404)" stroke-width="3"/>
<path d="M93.3428 336.555C79.9626 304.549 70.8478 267.039 72.6133 232.144C73.2026 220.541 75.17 208.055 81.9015 197.997C85.8777 192.066 90.3663 187.326 91.8028 180.201C92.8387 175.058 91.6626 169.52 91.2368 164.346C90.6195 156.852 90.0672 149.354 89.6206 141.849C89.0757 132.546 88.6556 123.211 88.8793 113.89C89.0408 107.23 88.8581 98.0326 92.7174 92.2462C97.3205 85.3384 118.914 102.921 122.762 105.395C132.088 111.392 141.124 115.595 152.362 117.114C155.636 117.561 158.992 119.067 162.293 118.872C165.664 118.668 168.665 116.743 171.315 114.966C174.789 112.641 183.026 104.577 187.263 106.886C189.602 108.162 189.897 112.952 190.393 115.435C191.329 120.092 191.831 124.816 192.575 129.503C193.843 137.452 197.971 145.345 197.854 153.323C197.545 174.775 190.369 196.538 186.428 217.561C184.077 230.059 181.944 242.642 178.761 254.988C177.753 258.894 176.71 262.918 175 266.631C173.808 269.222 171.681 270.887 170.345 273.287C165.215 282.491 162.102 293.075 158.65 302.958C154.159 315.789 149.804 328.662 145.022 341.404C142.026 349.39 139.39 359.658 133.832 366.541C129.773 371.568 128.56 368.132 124.78 365.482C122.853 364.127 120.954 364.44 118.771 363.852C115.655 363.011 113.412 360.636 111.394 358.409C108.609 355.338 106.314 351.247 102.898 348.737C101.695 347.851 100.204 347.892 99.156 347.176C96.1063 345.093 94.6001 339.565 93.3428 336.555Z" stroke="url(#paint33_radial_2477_78404)" stroke-width="3"/>
<path d="M98.1061 302.526C89.6945 276.549 84.9049 247.646 87.1276 220.188C87.902 210.635 89.7014 201.022 93.6533 192.123C95.4458 188.074 97.4439 185.035 97.5514 180.598C97.7994 170.303 96.9314 159.978 96.7232 149.684C96.5734 142.318 96.5196 134.916 97.1583 127.568C97.5841 122.654 98.0951 116.009 101.344 111.985C106.078 106.136 122.168 116.695 126.614 118.844C133.987 122.405 142.183 125.939 150.713 124.526C153.322 124.093 155.627 123.326 158.287 123.226C160.573 123.13 162.682 123.397 164.868 122.646C167.577 121.716 171.782 117.583 174.276 119.004C175.979 119.972 176.059 122.845 176.604 124.755C177.501 127.89 178.662 130.919 180.071 133.802C181.578 136.878 183.906 139.498 185.152 142.684C187.169 147.857 187.358 153.648 187.349 159.086C187.311 180.781 182.694 202.752 177.868 223.898C175.356 234.91 172.676 245.982 168.865 256.684C167.707 259.934 166.544 263.617 164.405 266.474C163.074 268.257 161.406 269.466 160.403 271.491C151.854 288.793 148.679 308.798 142.504 327.166C140.897 331.948 132.775 358.444 125.136 344.59C120.495 336.175 118.384 327.28 112.033 319.602C110.103 317.262 108.505 315.703 105.559 314.788C103.598 314.186 104.594 315.635 102.543 313.612C100.081 311.157 99.0866 305.552 98.1061 302.526Z" stroke="url(#paint34_radial_2477_78404)" stroke-width="3"/>
<path d="M103.079 275.515C96.2133 245.102 95.886 212.895 101.972 182.003C103.505 174.215 103.138 166.11 103.528 158.226C103.901 150.567 103.124 136.948 109.477 131.385C114.082 127.351 123.868 131.728 129.02 133.242C135.582 135.171 142.361 136.857 148.735 133.689C152.468 131.834 156.021 129.293 159.719 127.303C161.485 126.351 164.191 124.392 165.864 125.209C168.624 126.56 169.786 132.881 171.087 135.949C175.248 145.751 176.308 156.134 176.279 166.616C176.225 185.976 173.37 205.435 169.497 224.427C167.715 233.163 165.814 242.023 162.716 250.449C160.964 255.217 157.584 258.736 155.579 263.288C149.121 277.949 145.671 293.701 139.766 308.614C138.056 312.93 132.363 329.053 125.651 320.931C119.154 313.068 119.926 301.596 113.816 293.42C113.116 292.495 112.279 291.35 111.148 290.813C110.471 290.496 109.183 291.055 108.799 290.813C104.614 288.303 103.949 279.374 103.079 275.515Z" stroke="url(#paint35_radial_2477_78404)" stroke-width="3"/>
<path d="M107.619 255.81C105.31 240.208 104.738 224.262 104.592 208.397C104.513 199.725 103.917 190.198 106.287 181.711C107.746 176.499 109.022 171.466 109.941 166.091C110.93 160.311 111.65 151.001 117.016 147.48C121.024 144.85 129.265 146.653 134.139 146.749C139.484 146.851 143.449 145.834 147.274 142.335C149.683 140.135 158.428 130.043 160.949 131.209C163.351 132.319 163.719 139.351 164.343 142.392C166.322 152.003 167.009 161.741 166.904 171.516C166.74 186.656 165.074 201.852 162.214 216.756C161.024 222.917 159.793 229.285 157.417 235.171C155.815 239.135 152.974 242.44 151.318 246.378C146.568 257.654 143.342 269.578 138.507 280.893C136.95 284.524 132.81 296.357 126.43 293.52C121.103 291.155 119.484 283.111 115.912 279.158C109.823 272.434 108.885 264.385 107.619 255.81Z" stroke="url(#paint36_radial_2477_78404)" stroke-width="3"/>
<path d="M110.677 245.981C109.185 233.518 108.44 220.956 108.448 208.38C108.427 200.275 108.308 191.725 110.273 183.771C111.259 179.776 113.565 176.304 115.21 172.523C116.901 168.63 118.789 163.257 122.668 161.574C126.313 159.993 131.63 160.584 136.026 159.195C139.925 157.96 142.334 155.375 144.969 152.591C146.654 150.818 153.946 141.709 155.557 142.763C157.282 143.892 157.141 149.362 157.379 152.21C158.047 160.044 158.261 167.92 158.018 175.787C157.663 186.52 156.672 197.335 154.429 207.882C152.84 215.366 149.055 221.008 146.279 227.983C142.675 237.02 139.824 246.382 135.88 255.333C133.913 259.792 131.385 266.393 126.312 268.677C124.369 269.555 119.424 270.408 117.481 269.43C115.144 268.256 114.154 263.884 113.552 261.821C112.055 256.651 111.326 251.241 110.677 245.981Z" stroke="url(#paint37_radial_2477_78404)" stroke-width="3"/>
<path d="M114.41 234.388C112.532 218.916 110.938 201.435 114.717 185.915C116.243 179.644 120.764 173.398 126.923 170.841C130.108 169.516 133.899 169.231 136.986 167.252C139.268 165.786 141.329 163.922 143.249 162.084C144.333 161.048 150.275 154.412 151.336 155.694C152.455 157.044 152.089 160.359 152.118 162.623C152.173 168.056 151.973 173.489 151.517 178.898C151.006 185.113 150.343 191.476 148.55 197.503C147.094 202.366 144.032 206.796 142.212 211.531C137.394 223.977 133.619 237.094 126.486 248.781C124.968 251.267 122.699 256.183 119.271 253.196C115.002 249.48 114.987 239.168 114.41 234.388Z" stroke="url(#paint38_radial_2477_78404)" stroke-width="3"/>
<path d="M117.796 220.9C116.482 209.883 115.865 197.661 118.573 186.6C119.943 180.999 122.799 176.001 128.327 173.563C132.267 171.817 136.663 171.346 140.449 168.961C141.785 168.116 145.533 165.013 146.351 166.543C148.111 169.817 146.086 177.122 145.163 181.663C143.763 188.498 139.847 194.203 137.526 200.701C133.966 210.668 132.063 223.298 125.995 232.382C120.128 241.137 118.181 224.114 117.796 220.9Z" stroke="url(#paint39_radial_2477_78404)" stroke-width="3"/>
<path d="M121.01 208.302C119.827 198.956 119.242 182.33 128.759 176.997C130.527 176.007 140.281 173.275 141.152 175.916C141.866 178.092 140.685 181.507 139.583 183.965C137.541 188.539 135.315 192.829 133.63 197.556C132.196 201.58 130.873 205.699 129.206 209.672C128.507 211.357 127.659 214.525 126.067 215.582C121.783 218.427 121.368 211.148 121.01 208.302Z" stroke="url(#paint40_radial_2477_78404)" stroke-width="3"/>
<defs>
<radialGradient id="paint0_radial_2477_78404" cx="0" cy="0" r="1" gradientUnits="userSpaceOnUse" gradientTransform="translate(305.999 306) rotate(89.9997) scale(284.5 284.499)">
<stop stop-color="#EDF3FE"/>
<stop offset="1" stop-color="#EDF3FE" stop-opacity="0"/>
</radialGradient>
<radialGradient id="paint1_radial_2477_78404" cx="0" cy="0" r="1" gradientUnits="userSpaceOnUse" gradientTransform="translate(305.999 306) rotate(89.9997) scale(284.5 284.499)">
<stop stop-color="#EDF3FE"/>
<stop offset="1" stop-color="#EDF3FE" stop-opacity="0"/>
</radialGradient>
<radialGradient id="paint2_radial_2477_78404" cx="0" cy="0" r="1" gradientUnits="userSpaceOnUse" gradientTransform="translate(305.999 306) rotate(89.9997) scale(284.5 284.499)">
<stop stop-color="#EDF3FE"/>
<stop offset="1" stop-color="#EDF3FE" stop-opacity="0"/>
</radialGradient>
<radialGradient id="paint3_radial_2477_78404" cx="0" cy="0" r="1" gradientUnits="userSpaceOnUse" gradientTransform="translate(305.999 306) rotate(89.9997) scale(284.5 284.499)">
<stop stop-color="#EDF3FE"/>
<stop offset="1" stop-color="#EDF3FE" stop-opacity="0"/>
</radialGradient>
<radialGradient id="paint4_radial_2477_78404" cx="0" cy="0" r="1" gradientUnits="userSpaceOnUse" gradientTransform="translate(305.999 306) rotate(89.9997) scale(284.5 284.499)">
<stop stop-color="#EDF3FE"/>
<stop offset="1" stop-color="#EDF3FE" stop-opacity="0"/>
</radialGradient>
<radialGradient id="paint5_radial_2477_78404" cx="0" cy="0" r="1" gradientUnits="userSpaceOnUse" gradientTransform="translate(305.999 306) rotate(89.9997) scale(284.5 284.499)">
<stop stop-color="#EDF3FE"/>
<stop offset="1" stop-color="#EDF3FE" stop-opacity="0"/>
</radialGradient>
<radialGradient id="paint6_radial_2477_78404" cx="0" cy="0" r="1" gradientUnits="userSpaceOnUse" gradientTransform="translate(305.999 306) rotate(89.9997) scale(284.5 284.499)">
<stop stop-color="#EDF3FE"/>
<stop offset="1" stop-color="#EDF3FE" stop-opacity="0"/>
</radialGradient>
<radialGradient id="paint7_radial_2477_78404" cx="0" cy="0" r="1" gradientUnits="userSpaceOnUse" gradientTransform="translate(305.999 306) rotate(89.9997) scale(284.5 284.499)">
<stop stop-color="#EDF3FE"/>
<stop offset="1" stop-color="#EDF3FE" stop-opacity="0"/>
</radialGradient>
<radialGradient id="paint8_radial_2477_78404" cx="0" cy="0" r="1" gradientUnits="userSpaceOnUse" gradientTransform="translate(305.999 306) rotate(89.9997) scale(284.5 284.499)">
<stop stop-color="#EDF3FE"/>
<stop offset="1" stop-color="#EDF3FE" stop-opacity="0"/>
</radialGradient>
<radialGradient id="paint9_radial_2477_78404" cx="0" cy="0" r="1" gradientUnits="userSpaceOnUse" gradientTransform="translate(305.999 306) rotate(89.9997) scale(284.5 284.499)">
<stop stop-color="#EDF3FE"/>
<stop offset="1" stop-color="#EDF3FE" stop-opacity="0"/>
</radialGradient>
<radialGradient id="paint10_radial_2477_78404" cx="0" cy="0" r="1" gradientUnits="userSpaceOnUse" gradientTransform="translate(305.999 306) rotate(89.9997) scale(284.5 284.499)">
<stop stop-color="#EDF3FE"/>
<stop offset="1" stop-color="#EDF3FE" stop-opacity="0"/>
</radialGradient>
<radialGradient id="paint11_radial_2477_78404" cx="0" cy="0" r="1" gradientUnits="userSpaceOnUse" gradientTransform="translate(305.999 306) rotate(89.9997) scale(284.5 284.499)">
<stop stop-color="#EDF3FE"/>
<stop offset="1" stop-color="#EDF3FE" stop-opacity="0"/>
</radialGradient>
<radialGradient id="paint12_radial_2477_78404" cx="0" cy="0" r="1" gradientUnits="userSpaceOnUse" gradientTransform="translate(305.999 306) rotate(89.9997) scale(284.5 284.499)">
<stop stop-color="#EDF3FE"/>
<stop offset="1" stop-color="#EDF3FE" stop-opacity="0"/>
</radialGradient>
<radialGradient id="paint13_radial_2477_78404" cx="0" cy="0" r="1" gradientUnits="userSpaceOnUse" gradientTransform="translate(305.999 306) rotate(89.9997) scale(284.5 284.499)">
<stop stop-color="#EDF3FE"/>
<stop offset="1" stop-color="#EDF3FE" stop-opacity="0"/>
</radialGradient>
<radialGradient id="paint14_radial_2477_78404" cx="0" cy="0" r="1" gradientUnits="userSpaceOnUse" gradientTransform="translate(305.999 306) rotate(89.9997) scale(284.5 284.499)">
<stop stop-color="#EDF3FE"/>
<stop offset="1" stop-color="#EDF3FE" stop-opacity="0"/>
</radialGradient>
<radialGradient id="paint15_radial_2477_78404" cx="0" cy="0" r="1" gradientUnits="userSpaceOnUse" gradientTransform="translate(305.999 306) rotate(89.9997) scale(284.5 284.499)">
<stop stop-color="#EDF3FE"/>
<stop offset="1" stop-color="#EDF3FE" stop-opacity="0"/>
</radialGradient>
<radialGradient id="paint16_radial_2477_78404" cx="0" cy="0" r="1" gradientUnits="userSpaceOnUse" gradientTransform="translate(305.999 306) rotate(89.9997) scale(284.5 284.499)">
<stop stop-color="#EDF3FE"/>
<stop offset="1" stop-color="#EDF3FE" stop-opacity="0"/>
</radialGradient>
<radialGradient id="paint17_radial_2477_78404" cx="0" cy="0" r="1" gradientUnits="userSpaceOnUse" gradientTransform="translate(305.999 306) rotate(89.9997) scale(284.5 284.499)">
<stop stop-color="#EDF3FE"/>
<stop offset="1" stop-color="#EDF3FE" stop-opacity="0"/>
</radialGradient>
<radialGradient id="paint18_radial_2477_78404" cx="0" cy="0" r="1" gradientUnits="userSpaceOnUse" gradientTransform="translate(305.999 306) rotate(89.9997) scale(284.5 284.499)">
<stop stop-color="#EDF3FE"/>
<stop offset="1" stop-color="#EDF3FE" stop-opacity="0"/>
</radialGradient>
<radialGradient id="paint19_radial_2477_78404" cx="0" cy="0" r="1" gradientUnits="userSpaceOnUse" gradientTransform="translate(305.999 306) rotate(89.9997) scale(284.5 284.499)">
<stop stop-color="#EDF3FE"/>
<stop offset="1" stop-color="#EDF3FE" stop-opacity="0"/>
</radialGradient>
<radialGradient id="paint20_radial_2477_78404" cx="0" cy="0" r="1" gradientUnits="userSpaceOnUse" gradientTransform="translate(305.999 306) rotate(89.9997) scale(284.5 284.499)">
<stop stop-color="#EDF3FE"/>
<stop offset="1" stop-color="#EDF3FE" stop-opacity="0"/>
</radialGradient>
<radialGradient id="paint21_radial_2477_78404" cx="0" cy="0" r="1" gradientUnits="userSpaceOnUse" gradientTransform="translate(305.999 306) rotate(89.9997) scale(284.5 284.499)">
<stop stop-color="#EDF3FE"/>
<stop offset="1" stop-color="#EDF3FE" stop-opacity="0"/>
</radialGradient>
<radialGradient id="paint22_radial_2477_78404" cx="0" cy="0" r="1" gradientUnits="userSpaceOnUse" gradientTransform="translate(305.999 306) rotate(89.9997) scale(284.5 284.499)">
<stop stop-color="#EDF3FE"/>
<stop offset="1" stop-color="#EDF3FE" stop-opacity="0"/>
</radialGradient>
<radialGradient id="paint23_radial_2477_78404" cx="0" cy="0" r="1" gradientUnits="userSpaceOnUse" gradientTransform="translate(305.999 306) rotate(89.9997) scale(284.5 284.499)">
<stop stop-color="#EDF3FE"/>
<stop offset="1" stop-color="#EDF3FE" stop-opacity="0"/>
</radialGradient>
<radialGradient id="paint24_radial_2477_78404" cx="0" cy="0" r="1" gradientUnits="userSpaceOnUse" gradientTransform="translate(305.999 306) rotate(89.9997) scale(284.5 284.499)">
<stop stop-color="#EDF3FE"/>
<stop offset="1" stop-color="#EDF3FE" stop-opacity="0"/>
</radialGradient>
<radialGradient id="paint25_radial_2477_78404" cx="0" cy="0" r="1" gradientUnits="userSpaceOnUse" gradientTransform="translate(305.999 306) rotate(89.9997) scale(284.5 284.499)">
<stop stop-color="#EDF3FE"/>
<stop offset="1" stop-color="#EDF3FE" stop-opacity="0"/>
</radialGradient>
<radialGradient id="paint26_radial_2477_78404" cx="0" cy="0" r="1" gradientUnits="userSpaceOnUse" gradientTransform="translate(305.999 306) rotate(89.9997) scale(284.5 284.499)">
<stop stop-color="#EDF3FE"/>
<stop offset="1" stop-color="#EDF3FE" stop-opacity="0"/>
</radialGradient>
<radialGradient id="paint27_radial_2477_78404" cx="0" cy="0" r="1" gradientUnits="userSpaceOnUse" gradientTransform="translate(305.999 306) rotate(89.9997) scale(284.5 284.499)">
<stop stop-color="#EDF3FE"/>
<stop offset="1" stop-color="#EDF3FE" stop-opacity="0"/>
</radialGradient>
<radialGradient id="paint28_radial_2477_78404" cx="0" cy="0" r="1" gradientUnits="userSpaceOnUse" gradientTransform="translate(305.999 306) rotate(89.9997) scale(284.5 284.499)">
<stop stop-color="#EDF3FE"/>
<stop offset="1" stop-color="#EDF3FE" stop-opacity="0"/>
</radialGradient>
<radialGradient id="paint29_radial_2477_78404" cx="0" cy="0" r="1" gradientUnits="userSpaceOnUse" gradientTransform="translate(305.999 306) rotate(89.9997) scale(284.5 284.499)">
<stop stop-color="#EDF3FE"/>
<stop offset="1" stop-color="#EDF3FE" stop-opacity="0"/>
</radialGradient>
<radialGradient id="paint30_radial_2477_78404" cx="0" cy="0" r="1" gradientUnits="userSpaceOnUse" gradientTransform="translate(305.999 306) rotate(89.9997) scale(284.5 284.499)">
<stop stop-color="#EDF3FE"/>
<stop offset="1" stop-color="#EDF3FE" stop-opacity="0"/>
</radialGradient>
<radialGradient id="paint31_radial_2477_78404" cx="0" cy="0" r="1" gradientUnits="userSpaceOnUse" gradientTransform="translate(305.999 306) rotate(89.9997) scale(284.5 284.499)">
<stop stop-color="#EDF3FE"/>
<stop offset="1" stop-color="#EDF3FE" stop-opacity="0"/>
</radialGradient>
<radialGradient id="paint32_radial_2477_78404" cx="0" cy="0" r="1" gradientUnits="userSpaceOnUse" gradientTransform="translate(305.999 306) rotate(89.9997) scale(284.5 284.499)">
<stop stop-color="#EDF3FE"/>
<stop offset="1" stop-color="#EDF3FE" stop-opacity="0"/>
</radialGradient>
<radialGradient id="paint33_radial_2477_78404" cx="0" cy="0" r="1" gradientUnits="userSpaceOnUse" gradientTransform="translate(305.999 306) rotate(89.9997) scale(284.5 284.499)">
<stop stop-color="#EDF3FE"/>
<stop offset="1" stop-color="#EDF3FE" stop-opacity="0"/>
</radialGradient>
<radialGradient id="paint34_radial_2477_78404" cx="0" cy="0" r="1" gradientUnits="userSpaceOnUse" gradientTransform="translate(305.999 306) rotate(89.9997) scale(284.5 284.499)">
<stop stop-color="#EDF3FE"/>
<stop offset="1" stop-color="#EDF3FE" stop-opacity="0"/>
</radialGradient>
<radialGradient id="paint35_radial_2477_78404" cx="0" cy="0" r="1" gradientUnits="userSpaceOnUse" gradientTransform="translate(305.999 306) rotate(89.9997) scale(284.5 284.499)">
<stop stop-color="#EDF3FE"/>
<stop offset="1" stop-color="#EDF3FE" stop-opacity="0"/>
</radialGradient>
<radialGradient id="paint36_radial_2477_78404" cx="0" cy="0" r="1" gradientUnits="userSpaceOnUse" gradientTransform="translate(305.999 306) rotate(89.9997) scale(284.5 284.499)">
<stop stop-color="#EDF3FE"/>
<stop offset="1" stop-color="#EDF3FE" stop-opacity="0"/>
</radialGradient>
<radialGradient id="paint37_radial_2477_78404" cx="0" cy="0" r="1" gradientUnits="userSpaceOnUse" gradientTransform="translate(305.999 306) rotate(89.9997) scale(284.5 284.499)">
<stop stop-color="#EDF3FE"/>
<stop offset="1" stop-color="#EDF3FE" stop-opacity="0"/>
</radialGradient>
<radialGradient id="paint38_radial_2477_78404" cx="0" cy="0" r="1" gradientUnits="userSpaceOnUse" gradientTransform="translate(305.999 306) rotate(89.9997) scale(284.5 284.499)">
<stop stop-color="#EDF3FE"/>
<stop offset="1" stop-color="#EDF3FE" stop-opacity="0"/>
</radialGradient>
<radialGradient id="paint39_radial_2477_78404" cx="0" cy="0" r="1" gradientUnits="userSpaceOnUse" gradientTransform="translate(305.999 306) rotate(89.9997) scale(284.5 284.499)">
<stop stop-color="#EDF3FE"/>
<stop offset="1" stop-color="#EDF3FE" stop-opacity="0"/>
</radialGradient>
<radialGradient id="paint40_radial_2477_78404" cx="0" cy="0" r="1" gradientUnits="userSpaceOnUse" gradientTransform="translate(305.999 306) rotate(89.9997) scale(284.5 284.499)">
<stop stop-color="#EDF3FE"/>
<stop offset="1" stop-color="#EDF3FE" stop-opacity="0"/>
</radialGradient>
</defs>
</svg>
