<svg width="725" height="585" viewBox="0 0 725 585" fill="none" xmlns="http://www.w3.org/2000/svg">
<path opacity="0.15" d="M638.667 564.025C636.95 566.107 634.903 567.893 632.608 569.314C619.016 577.714 599.745 571.256 589.655 554.923C584.811 547.084 582.748 538.126 583.893 529.739C585.041 521.171 589.342 514.186 595.999 510.07C602.655 505.953 610.825 505.237 619.005 508.038C627.019 510.787 634.102 516.618 638.951 524.46C643.795 532.299 645.858 541.257 644.713 549.644C644.086 554.91 641.991 559.893 638.667 564.025ZM593.469 518.261C590.687 521.737 588.936 525.924 588.416 530.345C587.431 537.703 589.268 545.594 593.54 552.521C602.311 566.713 618.756 572.5 630.202 565.426C635.677 562.045 639.222 556.227 640.187 549.035C641.175 541.68 639.354 533.807 635.063 526.86L637.007 525.66L635.063 526.86C630.772 519.919 624.54 514.766 617.513 512.367C610.655 510.016 603.867 510.584 598.392 513.965C596.528 515.119 594.865 516.57 593.469 518.261Z" fill="white"/>
<path d="M724.708 45.207H237.105V430.624H724.708V72.9276V45.207ZM722.486 428.402H239.328V72.9276H722.486V428.402Z" fill="white"/>
<path d="M210.059 51.5229L141.979 68.4122C137.544 69.5124 134.842 73.9975 135.942 78.43L135.943 78.4331C137.044 82.8655 141.532 85.5669 145.966 84.4667L214.047 67.5774C218.481 66.4772 221.184 61.992 220.083 57.5596L220.083 57.5565C218.982 53.124 214.494 50.4227 210.059 51.5229Z" fill="#FADD6F"/>
<path d="M192.695 159.465C213.833 159.465 230.968 142.339 230.968 121.213C230.968 100.087 213.833 82.9609 192.695 82.9609C171.557 82.9609 154.422 100.087 154.422 121.213C154.422 142.339 171.557 159.465 192.695 159.465Z" fill="white"/>
<path d="M621.206 24.5792C618.774 24.5792 616.397 23.8583 614.375 22.5077C612.353 21.1572 610.776 19.2377 609.846 16.9918C608.915 14.746 608.672 12.2749 609.147 9.89085C609.621 7.50682 610.793 5.317 612.513 3.5984C614.233 1.87979 616.424 0.709602 618.81 0.235763C621.195 -0.238075 623.667 0.00573954 625.914 0.936396C628.161 1.86705 630.081 3.44274 631.432 5.46417C632.783 7.4856 633.503 9.86192 633.503 12.2927C633.499 15.5505 632.202 18.6737 629.896 20.977C627.591 23.2804 624.466 24.5758 621.206 24.5792ZM621.206 2.22432C619.214 2.22432 617.266 2.81488 615.61 3.92121C613.953 5.02754 612.662 6.60001 611.899 8.43977C611.137 10.2795 610.937 12.3039 611.326 14.257C611.715 16.2101 612.674 18.0041 614.083 19.4121C615.492 20.8202 617.287 21.7792 619.241 22.1677C621.195 22.5561 623.221 22.3567 625.062 21.5947C626.902 20.8326 628.476 19.5422 629.583 17.8865C630.69 16.2307 631.28 14.284 631.28 12.2927C631.277 9.62344 630.215 7.06446 628.326 5.17699C626.438 3.28953 623.877 2.22768 621.206 2.22432Z" fill="white"/>
<path d="M655.69 24.5792C653.258 24.5798 650.88 23.8594 648.857 22.5093C646.835 21.1591 645.258 19.2399 644.327 16.9941C643.396 14.7483 643.152 12.277 643.627 9.89279C644.101 7.50854 645.272 5.31841 646.992 3.59948C648.712 1.88056 650.903 0.710092 653.289 0.235997C655.674 -0.238098 658.147 0.00552423 660.394 0.936088C662.641 1.86665 664.561 3.44229 665.912 5.46378C667.263 7.48528 667.984 9.86179 667.983 12.2927C667.979 15.55 666.683 18.6727 664.378 20.9759C662.074 23.2792 658.949 24.575 655.69 24.5792ZM655.69 2.22433C653.698 2.2237 651.75 2.81372 650.093 3.91966C648.435 5.02561 647.144 6.59782 646.381 8.43752C645.618 10.2772 645.418 12.3017 645.806 14.255C646.195 16.2083 647.154 18.0027 648.563 19.4111C649.971 20.8195 651.766 21.7787 653.72 22.1674C655.675 22.5562 657.7 22.357 659.541 21.595C661.382 20.833 662.956 19.5426 664.063 17.8868C665.17 16.231 665.761 14.2842 665.761 12.2927C665.758 9.62373 664.697 7.06478 662.809 5.17723C660.921 3.28967 658.361 2.22769 655.69 2.22433Z" fill="white"/>
<path d="M690.175 24.5792C687.743 24.5792 685.366 23.8583 683.343 22.5077C681.321 21.1572 679.745 19.2377 678.815 16.9918C677.884 14.746 677.641 12.2749 678.115 9.89085C678.59 7.50682 679.762 5.317 681.482 3.5984C683.202 1.87979 685.393 0.709602 687.778 0.235763C690.164 -0.238075 692.636 0.00573954 694.883 0.936396C697.13 1.86705 699.05 3.44274 700.401 5.46417C701.752 7.4856 702.472 9.86192 702.472 12.2927C702.467 15.5505 701.17 18.6737 698.865 20.977C696.56 23.2804 693.435 24.5758 690.175 24.5792ZM690.175 2.22432C688.183 2.22432 686.235 2.81488 684.578 3.92121C682.922 5.02754 681.631 6.60001 680.868 8.43977C680.106 10.2795 679.906 12.3039 680.295 14.257C680.684 16.2101 681.643 18.0041 683.052 19.4121C684.461 20.8202 686.256 21.7792 688.21 22.1677C690.164 22.5561 692.19 22.3567 694.03 21.5947C695.871 20.8326 697.444 19.5422 698.551 17.8865C699.658 16.2307 700.249 14.284 700.249 12.2927C700.246 9.62344 699.183 7.06446 697.295 5.17699C695.406 3.28953 692.846 2.22768 690.175 2.22432Z" fill="white"/>
<path d="M497.256 207.174C494.172 207.174 491.158 206.26 488.594 204.548C486.029 202.836 484.031 200.402 482.851 197.555C481.671 194.707 481.362 191.574 481.964 188.551C482.565 185.528 484.05 182.751 486.231 180.572C488.411 178.393 491.19 176.909 494.214 176.307C497.239 175.706 500.374 176.015 503.223 177.194C506.072 178.374 508.507 180.371 510.22 182.934C511.933 185.496 512.848 188.509 512.848 191.591C512.843 195.723 511.198 199.683 508.275 202.605C505.353 205.526 501.39 207.169 497.256 207.174ZM497.256 178.229C494.612 178.229 492.027 179.013 489.828 180.481C487.63 181.949 485.916 184.036 484.904 186.478C483.892 188.919 483.628 191.606 484.143 194.198C484.659 196.79 485.933 199.171 487.802 201.04C489.672 202.908 492.054 204.181 494.648 204.697C497.241 205.212 499.929 204.947 502.372 203.936C504.815 202.925 506.903 201.212 508.372 199.015C509.841 196.817 510.625 194.234 510.625 191.591C510.62 188.049 509.21 184.653 506.704 182.148C504.198 179.643 500.8 178.234 497.256 178.229Z" fill="white"/>
<path d="M441.963 266.024C438.879 266.024 435.865 265.11 433.301 263.398C430.737 261.685 428.738 259.252 427.558 256.404C426.378 253.557 426.069 250.423 426.671 247.401C427.272 244.378 428.757 241.601 430.938 239.422C433.118 237.242 435.897 235.758 438.921 235.157C441.946 234.556 445.081 234.864 447.93 236.044C450.779 237.223 453.214 239.22 454.927 241.783C456.64 244.346 457.555 247.359 457.555 250.441C457.55 254.572 455.905 258.533 452.983 261.454C450.06 264.376 446.097 266.019 441.963 266.024ZM441.963 237.079C439.319 237.079 436.734 237.862 434.535 239.331C432.337 240.799 430.623 242.886 429.611 245.327C428.599 247.769 428.335 250.456 428.85 253.048C429.366 255.64 430.64 258.02 432.509 259.889C434.379 261.758 436.761 263.031 439.355 263.546C441.948 264.062 444.636 263.797 447.079 262.786C449.522 261.774 451.61 260.062 453.079 257.864C454.548 255.667 455.332 253.083 455.332 250.441C455.328 246.898 453.918 243.501 451.412 240.996C448.906 238.49 445.508 237.08 441.963 237.075V237.079Z" fill="white"/>
<path d="M441.963 329.09C438.879 329.09 435.865 328.176 433.301 326.464C430.737 324.752 428.738 322.318 427.558 319.471C426.378 316.623 426.069 313.49 426.671 310.467C427.272 307.444 428.757 304.667 430.938 302.488C433.118 300.309 435.897 298.825 438.921 298.223C441.946 297.622 445.081 297.931 447.93 299.11C450.779 300.29 453.214 302.287 454.927 304.85C456.64 307.412 457.555 310.425 457.555 313.507C457.55 317.639 455.905 321.599 452.983 324.521C450.06 327.442 446.097 329.085 441.963 329.09ZM441.963 300.145C439.319 300.145 436.734 300.929 434.535 302.397C432.337 303.865 430.623 305.952 429.611 308.394C428.599 310.835 428.335 313.522 428.85 316.114C429.366 318.706 430.64 321.087 432.509 322.956C434.379 324.824 436.761 326.097 439.355 326.613C441.948 327.128 444.636 326.864 447.079 325.852C449.522 324.841 451.61 323.128 453.079 320.931C454.548 318.733 455.332 316.15 455.332 313.507C455.327 309.965 453.917 306.569 451.411 304.064C448.905 301.56 445.507 300.15 441.963 300.145Z" fill="white"/>
<path d="M266.596 266.715L364.621 308.702C375.065 313.176 383.581 321.208 388.656 331.369C393.73 341.53 395.032 353.161 392.331 364.191C389.403 376.147 381.989 386.521 371.621 393.166C361.254 399.81 348.728 402.217 336.634 399.889L252.668 383.706C234.889 380.282 216.392 384.258 201.825 395.012C198.252 397.586 195.047 400.636 192.301 404.078L228.872 320.472L335.644 349.88L246.944 313.538C243.759 312.234 240.872 310.297 238.46 307.844C236.047 305.39 234.158 302.473 232.908 299.268C231.658 296.063 231.073 292.637 231.188 289.199C231.303 285.761 232.116 282.383 233.577 279.268C236.375 273.302 241.384 268.657 247.546 266.315C253.707 263.972 260.539 264.116 266.596 266.715Z" fill="#FADD6F"/>
<path d="M295.872 169.116L353.239 178.489L401.637 81.3464C406.72 71.1472 414.083 62.2539 423.156 55.3552L443.676 39.7559C444.743 38.9493 446.072 38.5676 447.405 38.6849C448.737 38.8021 449.979 39.41 450.889 40.3906C451.384 40.9254 451.765 41.5548 452.01 42.2409C452.255 42.9269 452.358 43.6555 452.314 44.3826C452.269 45.1096 452.078 45.8201 451.751 46.4712C451.424 47.1224 450.969 47.7006 450.413 48.1711L426.087 68.6697C425.441 69.2136 424.932 69.9004 424.598 70.6756C424.265 71.4508 424.117 72.2929 424.166 73.1353C424.215 73.9776 424.459 74.7969 424.88 75.5282C425.302 76.2595 425.887 76.8827 426.591 77.3482L436.316 83.7738C439.288 85.737 441.454 88.7033 442.418 92.1308C443.382 95.5583 443.08 99.2181 441.567 102.441L392.28 207.45C388.342 215.839 381.684 222.653 373.385 226.785C365.087 230.917 355.634 232.125 346.562 230.214L284.293 217.09L295.872 169.116Z" fill="#F2A84C"/>
<path d="M627.084 211.783H546.575L521.805 191.592L546.575 171.404H627.084V211.783Z" fill="white"/>
<path d="M574.443 270.628H493.935L469.164 250.438L493.935 230.25H574.443V270.628Z" fill="#FADD6F"/>
<path d="M469.915 54.9531L418.336 71.5963L452.075 113.993L590.723 155.84L608.566 96.8005L469.915 54.9531ZM451.104 87.7729C449.785 87.7729 448.496 87.3822 447.4 86.65C446.303 85.9177 445.449 84.877 444.944 83.6594C444.44 82.4418 444.308 81.1019 444.565 79.8093C444.822 78.5167 445.457 77.3294 446.389 76.3975C447.322 75.4656 448.51 74.8309 449.803 74.5738C451.097 74.3167 452.437 74.4487 453.655 74.953C454.874 75.4574 455.915 76.3114 456.648 77.4072C457.38 78.5031 457.771 79.7914 457.771 81.1093C457.771 82.8766 457.069 84.5715 455.818 85.8212C454.568 87.0709 452.872 87.7729 451.104 87.7729Z" fill="#ABDAF7"/>
<path d="M574.443 333.697H493.935L469.164 313.506L493.935 293.318H574.443V333.697Z" fill="white"/>
<path d="M574.603 333.857H493.881L493.837 333.822L468.914 313.514L469.066 313.39L493.881 293.168H574.603V333.857ZM493.996 333.54H574.285V293.479H494.008L469.432 313.508L493.996 333.54Z" fill="#EBEEF2"/>
<path d="M416.473 91.4219L444.054 78.1848C445.42 77.5291 446.991 77.4427 448.421 77.9446C449.851 78.4466 451.023 79.4956 451.679 80.8612C452.335 82.2267 452.422 83.7969 451.92 85.2261C451.417 86.6554 450.368 87.8267 449.001 88.4824L421.42 101.719L416.473 91.4219Z" fill="#F2A84C"/>
<path d="M306.706 152.936C317.818 205.638 284.11 257.383 231.376 268.505C178.641 279.627 126.874 245.921 115.746 193.219L306.706 152.936Z" fill="white"/>
<path d="M225.742 222.92C226.657 223.872 227.616 224.976 228.571 226.109C229.047 226.677 229.524 227.254 229.981 227.822L230.66 228.67C230.765 228.796 230.889 228.971 231.01 229.139C231.13 229.307 231.244 229.457 231.349 229.644C231.98 230.805 232.384 232.076 232.537 233.388C232.67 234.41 232.705 235.133 232.854 235.438C232.876 236 232.902 236.453 232.908 236.818C232.914 237.183 232.908 237.453 232.93 237.678C232.93 237.931 232.959 238.184 233.016 238.43C233.08 238.7 233.213 238.776 233.073 240.204C233.041 240.061 232.981 239.782 232.857 240.601C232.797 241.483 232.718 242.368 232.61 243.244C235.004 242.07 237.312 240.988 239.718 239.772C240.358 239.437 240.978 239.066 241.576 238.662L241.404 238.747L241.722 238.525C241.887 238.281 240.553 238.824 243.433 237.313L241.722 238.525C241.68 238.578 241.631 238.624 241.576 238.662C245.208 236.926 248.856 234.683 252.03 232.769C251.665 232.15 251.251 231.561 250.792 231.008C250.142 230.231 249.395 229.539 248.57 228.949C249.725 229.577 250.821 230.306 251.846 231.129C251.983 231.646 252.091 232.166 252.189 232.684L253.177 232.09C252.495 231.305 251.766 230.563 250.992 229.869C249.368 228.428 247.552 227.22 245.595 226.28C246.011 226.423 247.182 226.563 247.16 226.467C246.843 226.413 245.89 225.811 244.436 225.017C243.703 224.614 242.849 224.173 241.88 223.637C241.359 223.349 240.854 223.031 240.369 222.685C240.091 222.482 239.829 222.258 239.585 222.015C239.449 221.877 239.322 221.731 239.204 221.578C239.077 221.407 238.965 221.227 238.867 221.038C238.671 220.652 238.555 220.23 238.528 219.797C238.515 219.578 238.521 219.359 238.547 219.141C238.569 218.938 238.607 218.737 238.661 218.541C238.86 217.837 239.16 217.164 239.55 216.545C239.9 215.967 240.283 215.411 240.699 214.879C240.898 214.615 241.101 214.358 241.309 214.108L241.626 213.737L241.884 213.419C242.531 212.543 243.056 211.582 243.442 210.564C243.792 209.647 244.068 208.703 244.268 207.743C244.195 208.089 244.122 208.438 244.03 208.78C243.925 209.494 244.366 208.409 244.665 206.749C244.968 205.054 245.057 203.327 244.928 201.609C245.046 202.037 245.02 202.631 244.982 203.722C245.12 202.691 245.136 201.647 245.03 200.613C244.939 199.786 244.79 198.968 244.582 198.163C244.398 197.389 244.185 196.621 243.982 195.745C243.779 194.869 243.585 193.889 243.366 192.683C243.935 194.825 244.163 196.138 244.36 196.865C244.557 197.592 244.677 197.744 244.757 197.617C244.592 196.71 244.373 195.504 244.068 194.257C243.774 193.022 243.402 191.808 242.953 190.62C242.639 189.756 242.234 188.926 241.747 188.145C241.43 187.65 241.226 187.552 241.293 187.993C240.889 187.113 240.391 186.28 239.807 185.508C239.369 184.925 239.086 184.604 239.264 184.556C238.232 183.646 237.02 183.122 235.867 183.24C234.715 183.357 233.572 184.033 232.584 184.969C232.787 184.734 232.981 184.534 232.87 184.534C232.715 184.577 232.573 184.655 232.454 184.763C232.34 184.848 232.194 184.953 232.025 185.08C231.857 185.207 231.664 185.397 231.441 185.629C232.224 184.796 233.13 184.089 234.127 183.532C234.981 183.057 235.973 182.893 236.934 183.068C237.381 183.153 237.811 183.314 238.204 183.544C238.398 183.652 238.585 183.771 238.766 183.9C238.937 184.039 239.106 184.169 239.261 184.315C239.815 184.826 240.272 185.432 240.61 186.105C240.81 186.045 240.677 185.613 240.699 185.401C240.699 185.296 240.763 185.248 240.918 185.337C241.234 185.554 241.514 185.82 241.747 186.124C241.113 185.135 240.321 184.256 239.404 183.522C238.987 183.192 238.526 182.921 238.036 182.716C237.803 182.618 237.565 182.535 237.321 182.469C237.085 182.413 236.845 182.375 236.604 182.354C235.699 182.288 234.795 182.485 234 182.922C233.262 183.319 232.591 183.83 232.013 184.436C231.721 184.715 231.47 185.029 231.21 185.324C230.949 185.619 230.717 185.937 230.505 186.276L230.187 186.752L229.87 187.241C229.663 187.558 229.479 187.876 229.292 188.218C229.105 188.561 228.933 188.878 228.759 189.211C228.584 189.545 228.416 189.887 228.247 190.23C227.911 190.922 227.558 191.604 227.225 192.312C225.682 194.757 224.278 197.287 223.018 199.889L223.037 200.292L222.056 201.507C221.78 202.558 221.631 203.227 221.533 203.411C221.434 203.595 221.45 203.307 221.533 202.885C221.39 203.316 221.291 203.738 221.196 204.097C221.116 204.384 221.054 204.677 221.012 204.973C221.146 204.853 221.246 204.7 221.301 204.528C220.983 205.458 220.945 205.436 221.012 204.973C220.694 205.239 220.793 203.703 221.142 202.053C221.031 202.285 220.917 202.516 220.825 202.739C220.691 203.249 220.577 203.773 220.456 204.287C220.336 204.801 220.266 205.312 220.193 205.794C220.12 206.277 220.072 206.746 220.047 207.152C220.021 207.559 220.015 207.939 220.012 208.247C220.043 208.866 220.097 209.237 220.18 209.228C220.263 209.218 220.269 209.129 220.326 208.91C220.383 208.691 220.431 208.387 220.545 207.958L220.704 207.156L220.91 206.362C221.034 205.832 221.228 205.312 221.383 204.792C221.275 205.147 221.174 205.477 221.066 205.785C220.958 206.093 220.913 206.378 220.84 206.638C220.691 207.162 220.615 207.59 220.523 207.958C220.204 209.555 220.124 211.19 220.288 212.81C220.546 213.867 220.916 214.893 221.39 215.872C221.571 216.237 221.707 216.564 221.894 216.862C222.082 217.161 222.212 217.449 222.39 217.732C222.733 218.306 223.107 218.909 223.685 219.709C224.476 220.804 225.323 221.857 226.225 222.863C226.327 223.256 225.034 221.835 225.742 222.92Z" fill="#D34B6A"/>
<path d="M221.516 200.302C221.77 199.21 221.947 198.538 221.544 199.258C220.688 201.36 220.031 203.538 219.582 205.763C219.69 205.389 219.871 204.938 220.061 204.418C220.252 203.897 220.519 203.332 220.795 202.72C220.915 202.285 221.036 201.86 221.15 201.451L221.516 200.302Z" fill="#D34B6A"/>
<path d="M223.316 197.97C223.701 197.282 224.063 196.634 224.386 196.066C224.71 195.498 224.948 194.972 225.126 194.553C224.449 195.651 223.844 196.793 223.316 197.97Z" fill="#D34B6A"/>
<path d="M232.336 243.374L232.469 243.308C232.488 243.035 232.482 242.921 232.336 243.374Z" fill="#D34B6A"/>
<path d="M253.852 235.483C253.902 235.543 253.95 235.597 253.994 235.641C254.312 235.984 254.506 235.959 254.629 235.791C254.883 235.454 254.858 234.521 255.331 234.956L255.185 234.74L253.852 235.483Z" fill="#D34B6A"/>
<path d="M205.981 260.658C205.778 260.226 202.171 262.428 198.444 265.062C196.615 266.35 194.771 267.753 193.25 268.959C199.245 270.085 205.333 270.643 211.433 270.625C211.328 269.581 211.226 268.53 211.115 267.493C210.721 263.631 210.521 260.001 210.626 258.002C209.07 258.871 207.522 259.757 205.981 260.658Z" fill="#D34B6A"/>
<path d="M255.322 240.997C255.386 240.195 255.405 239.39 255.379 238.585C255.217 237.805 255.061 237.89 254.973 238.268C254.865 238.818 254.815 239.377 254.823 239.937C254.732 239.176 254.584 238.423 254.379 237.684C254.296 237.387 254.197 237.095 254.084 236.808C254.023 236.675 253.985 236.564 253.915 236.418L253.722 236.006C253.665 235.882 253.604 235.758 253.547 235.641C247.613 238.893 241.902 241.454 240.632 242.269L239.774 242.361C235.847 244.703 233.955 245.811 231.358 247.156C230.843 249.111 230.3 250.799 229.723 252.395C228.881 254.697 227.885 256.941 226.741 259.109L225.865 260.966C225.749 261.188 225.659 261.423 225.598 261.667C225.598 261.829 225.856 261.47 226.138 261.077C226.324 260.788 226.536 260.518 226.773 260.271C226.814 260.296 226.599 260.778 225.84 262.2C225.413 262.62 225.02 263.072 224.662 263.552C224.408 263.885 224.113 264.304 223.76 264.856C223.408 265.408 222.976 266.087 222.443 266.934C221.973 267.886 221.808 268.324 221.538 268.914C221.392 269.232 221.22 269.606 220.922 270.12C224.441 269.765 227.938 269.223 231.399 268.495C237.859 267.136 244.164 265.128 250.22 262.501C250.509 261.714 250.823 260.845 251.096 260.036C251.699 258.29 252.131 256.831 251.96 257.161C252.56 255.828 253.318 254.641 253.153 255.831C253.55 253.61 253.871 251.389 254.074 249.168C253.947 250.189 254.677 249.65 254.709 250.12C254.963 249.053 255.039 247.952 254.934 246.861C254.836 246.261 254.665 246.156 254.496 246.835C254.85 245.387 255.097 243.915 255.236 242.431C255.255 241.984 255.274 241.59 255.322 240.997Z" fill="#D34B6A"/>
<path d="M208.898 173.797C208.968 174.815 209.041 175.792 209.105 176.741C209.178 173.209 209.403 181.022 209.638 178.455L209.549 175.666C209.667 174.396 209.826 177.084 209.965 178.648C209.895 183.059 210 189.3 210.108 194.831C210.216 200.362 210.314 205.192 210.213 206.772C210.257 204.966 210.099 201.663 209.949 200.089L209.879 204.214C209.791 200.857 210.076 198.185 209.832 193.242C209.606 194.082 209.197 190.494 208.93 194.267C208.765 203.767 209.737 202.05 209.962 213.48C210.073 214.533 209.486 211.103 209.803 217.183C210.054 220.991 210.365 224.313 210.686 226.661C211.007 229.009 211.346 230.396 211.613 230.377C211.315 227.166 210.797 220.737 211.153 219.734C211.41 222.945 211.699 228.492 211.972 228.768C211.654 232.113 211.603 222.704 211.397 227.083C211.495 229.339 211.683 230.301 211.8 231.351C211.553 229.853 211.569 233.391 211.483 234.067C211.553 235.898 211.613 237.532 211.67 239.081C211.727 240.629 211.765 242.086 211.813 243.561C211.883 246.417 212.013 249.365 212.21 253.132C212.55 252.941 212.877 252.763 213.191 252.602C214.328 251.967 215.524 251.294 216.607 250.739C217.134 250.933 215.626 251.342 213.191 252.602C212.873 252.786 212.527 252.963 212.21 253.132C212.21 253.239 212.21 253.341 212.21 253.449C212.235 253.179 212.242 253.093 212.21 253.595C212.21 253.538 212.21 253.5 212.21 253.449C212.21 253.573 212.181 253.734 212.159 253.896L214.185 252.627C216.124 251.745 213.01 253.969 218.312 251.04C225.817 246.963 216.582 251.224 221.093 248.775L224.586 247.477C226.491 246.379 228.24 245.437 229.932 244.57C230.034 244.177 230.097 243.875 230.154 243.574C230.256 243.082 230.358 242.587 230.551 241.638C230.878 240.093 231.11 238.529 231.246 236.955L231.291 237.072C231.354 235.032 231.202 233.477 230.85 232.255C230.802 232.103 230.767 231.938 230.71 231.811C230.653 231.684 230.592 231.538 230.535 231.408C230.429 231.157 230.295 230.919 230.135 230.697C229.996 230.49 229.831 230.301 229.643 230.136C229.458 229.959 229.259 229.799 229.046 229.657L229.272 229.936L229.383 230.075L229.472 230.206C229.583 230.383 229.716 230.523 229.815 230.726C229.659 230.488 229.497 230.294 229.335 230.091L228.786 229.476C228.44 229.082 228.129 228.736 227.833 228.413C227.265 227.778 226.798 227.226 226.332 226.68C225.865 226.134 225.405 225.576 224.855 224.887C224.306 224.199 223.665 223.383 222.874 222.292C222.674 222.044 222.173 221.403 221.719 220.705C221.325 220.137 220.987 219.533 220.709 218.9C220.649 218.9 220.509 218.719 220.303 218.405C220.207 218.243 220.099 218.046 219.985 217.818C219.846 217.566 219.72 217.308 219.607 217.043C218.956 215.592 218.528 214.05 218.337 212.471C218.142 210.759 218.188 209.029 218.474 207.33C218.502 207.14 218.531 206.953 218.56 206.772C218.588 206.591 218.636 206.423 218.671 206.255C218.744 205.921 218.807 205.62 218.877 205.328C219.026 204.773 219.15 204.329 219.23 204.033C219.106 204.56 219.001 204.985 218.912 205.338C218.823 205.69 218.807 205.972 218.779 206.159C218.725 206.556 218.737 206.67 218.779 206.616C218.88 206.508 219.096 205.715 219.341 205.147C219.403 204.55 219.501 203.956 219.633 203.37C219.699 203.091 219.763 202.812 219.839 202.533C219.915 202.253 220.011 201.984 220.106 201.701C220.58 200.371 221.168 199.083 221.861 197.852C221.738 197.535 221.63 197.145 221.925 196.062C222.22 194.98 222.954 193.207 224.671 190.246C224.205 191.198 223.42 192.677 223.849 192.131C224.278 191.585 224.97 190.135 225.221 189.662C225.656 189.126 224.611 191.058 225.151 190.487C225.389 189.961 225.64 189.462 225.89 188.974L226.268 188.257C226.405 188.015 226.548 187.777 226.687 187.539C227.273 186.564 227.941 185.64 228.684 184.779C229.543 183.762 230.525 182.856 231.608 182.082C232.292 181.612 233.032 181.232 233.812 180.949C234.76 180.614 235.771 180.497 236.771 180.606C236.504 180.582 236.235 180.582 235.968 180.606C235.835 180.608 235.704 180.628 235.577 180.666C235.434 180.714 235.504 180.739 235.682 180.758C235.86 180.777 236.155 180.822 236.453 180.876C236.732 180.933 237.004 181.018 237.266 181.13C237.444 181.022 238.247 181.168 239.111 181.682C240.025 182.249 240.823 182.985 241.463 183.849C241.942 184.498 242.387 185.171 242.794 185.867C243.051 186.27 243.152 186.299 242.962 185.626C244.679 188.666 245.759 192.347 246.356 196.177C246.953 200.007 247.01 204.021 246.315 207.733C246.001 209.545 245.417 211.299 244.581 212.937C244.179 213.708 243.694 214.431 243.133 215.095C242.651 215.66 242.203 216.209 241.813 216.739C241.449 217.219 241.122 217.726 240.835 218.255C240.617 218.641 240.469 219.062 240.397 219.499C240.317 220.182 240.685 220.648 241.07 221.064C241.355 221.382 241.69 221.653 242.06 221.867C242.521 222.155 243.082 222.457 243.686 222.771C244.891 223.365 246.057 224.035 247.178 224.776L246.775 224.802C247.831 225.417 248.836 226.117 249.778 226.896C250.366 227.386 250.924 227.909 251.451 228.463C251.944 228.981 252.445 229.536 253.106 230.367C253.382 230.713 253.687 231.11 254.02 231.57C254.706 231.167 255.363 230.789 255.979 230.456C255.141 231.056 258.281 229.431 258.785 229.241C260.989 227.794 263.154 226.303 265.227 224.729C264.396 225.315 263.606 225.958 262.862 226.652C262.643 226.898 262.452 227.167 262.291 227.454C264.345 226.087 265.215 225.306 266.542 224.303C265.777 224.976 264.98 225.643 266.107 224.986C268.251 223.328 270.242 221.481 272.057 219.468C271.71 219.785 271.044 220.397 270.469 220.902C271.506 219.968 272.462 218.948 273.326 217.852C273.803 217.242 274.227 216.594 274.596 215.914C274.753 215.612 274.892 215.302 275.012 214.984C275.076 214.835 275.111 214.692 275.162 214.549C275.184 214.479 275.196 214.413 275.216 214.343C275.239 214.269 275.257 214.194 275.27 214.118C275.288 214.205 275.298 214.295 275.301 214.384C275.311 214.503 275.311 214.621 275.301 214.74C275.301 214.867 275.282 214.993 275.27 215.108C275.264 215.196 275.264 215.285 275.27 215.374C275.022 215.834 274.765 216.244 274.523 216.618C274.282 216.993 274.063 217.342 273.86 217.656C273.45 218.29 273.111 218.849 272.758 219.369C273.331 218.748 273.861 218.09 274.346 217.399C274.577 217.062 274.631 217.005 274.647 217.021C274.663 217.037 274.647 217.132 274.704 217.094C274.933 216.879 275.124 216.627 275.27 216.348C275.46 215.976 275.615 215.588 275.733 215.187C275.793 215.006 275.816 214.832 275.854 214.67C275.854 214.587 275.876 214.508 275.885 214.429C275.895 214.349 275.904 214.276 275.911 214.184C275.962 213.477 275.981 212.915 275.974 212.525C275.974 211.731 275.841 211.573 275.657 212.081C275.743 211.519 275.816 211.005 275.87 210.526C275.924 210.047 275.981 209.599 276.028 209.18C276.139 208.339 276.19 207.594 276.241 206.838C276.263 206.464 276.289 206.086 276.311 205.696C276.333 205.306 276.33 204.906 276.333 204.478C276.333 203.621 276.333 202.663 276.276 201.508L276.616 202.39L276.581 200.264L276.482 198.141L276.733 199.858C276.819 200.432 276.87 201.009 276.94 201.587C277.067 197.49 276.822 197.119 276.654 196.64C276.485 196.161 276.378 195.564 275.92 191.084L276.219 191.017C275.984 189.711 275.654 188.423 275.231 187.165C275.076 186.654 274.946 186.162 274.809 185.642C274.671 185.061 274.565 184.473 274.492 183.881C273.92 182.294 274.244 183.7 274.371 184.557C274.431 184.988 274.46 185.28 274.352 184.991C274.295 184.849 274.219 184.557 274.066 184.074C273.914 183.592 273.714 182.907 273.396 181.99C273.323 181.653 273.215 181.225 273.079 180.72C272.942 180.216 272.761 179.702 272.565 179.134C272.165 178.002 271.701 176.893 271.174 175.815C270.856 175.275 270.726 175.132 270.736 175.224C270.82 175.526 270.926 175.821 271.053 176.107C271.247 176.557 271.507 177.112 271.723 177.665C271.939 178.217 272.19 178.721 272.333 179.093C271.516 177.195 270.603 175.339 269.599 173.533L268.116 170.82C267.904 170.462 267.694 170.113 267.447 169.725C267.151 169.286 266.833 168.863 266.494 168.456C265.277 167.056 263.879 165.824 262.335 164.794C262.578 164.985 262.804 165.197 263.008 165.429C263.129 165.569 263.164 165.638 263.151 165.67C263.138 165.702 262.913 165.648 262.833 165.651C262.754 165.654 262.776 165.753 263.237 166.171C263.351 166.276 263.497 166.397 263.662 166.552L264.253 167.111C264.723 167.526 265.288 168.11 266.008 168.862C264.625 167.45 263.164 166.118 261.63 164.87C260.76 164.185 259.837 163.571 258.868 163.033L209.203 173.505L208.898 173.797ZM211.546 216.951C211.759 222.561 211.353 216.583 211.229 216.145C211.207 212.055 211.419 216.488 211.549 216.935L211.546 216.951ZM210.784 203.227L210.988 205.312L210.591 205.188C210.712 204.536 210.783 203.875 210.803 203.212L210.784 203.227ZM210.575 218.671C210.673 220.321 210.645 221.527 210.521 221.083L210.283 216.64C210.368 215.955 210.467 217.599 210.578 218.655L210.575 218.671Z" fill="#D34B6A"/>
<path d="M214.411 270.568C215.046 270.549 215.681 270.522 216.316 270.486C216.656 269.994 217.234 269.217 218.196 267.9L217.392 269.22C217.157 269.601 217.03 269.823 217.237 269.575C218.107 268.373 219.488 266.802 220.78 265.133C222.072 263.464 223.269 261.747 223.86 260.373C223.51 260.935 223.136 261.481 222.777 262.036C223.977 259.58 225.58 256.775 226.761 254.379C227.942 251.983 228.755 250.051 228.584 249.527L228.13 249.905C228.341 249.399 228.526 248.938 228.682 248.521C227.412 249.156 225.923 249.873 224.044 250.787C224.129 250.686 225.034 250.121 223.707 250.727C221.85 251.952 219.964 253.157 214.386 256.055L214.563 255.848C213.812 256.254 213.062 256.664 212.312 257.076C212.782 260.329 213.481 263.461 213.617 262.315C213.786 264.555 213.868 265.736 213.935 266.834C213.995 267.878 214.052 268.849 214.252 270.575H214.281C214.173 266.85 214.217 268.719 214.411 270.568Z" fill="#D34B6A"/>
<path d="M250.391 262.425H250.426C250.48 262.279 250.53 262.134 250.587 261.984C250.524 262.124 250.454 262.273 250.391 262.425Z" fill="#D34B6A"/>
<path d="M221.668 200.974C221.855 200.616 222.046 200.257 222.239 199.895C222.434 199.308 222.581 198.705 222.678 198.093C222.678 197.846 222.458 198.058 221.906 199.137C221.795 199.454 221.646 199.873 221.512 200.314C221.392 200.838 221.239 201.419 221.125 202.047C221.296 201.676 221.474 201.317 221.668 200.974Z" fill="#D34B6A"/>
<path d="M200.529 216.344C200.229 215.176 199.772 214.054 199.17 213.009C198.621 212.046 197.983 211.135 197.265 210.29C196.948 209.868 196.557 209.494 196.208 209.103C195.859 208.713 195.465 208.367 195.087 208.008C193.512 206.576 191.812 205.286 190.007 204.156C188.937 203.474 187.785 202.808 186.515 202.145L186.324 202.497L186.48 202.179L182.096 209.455C181.635 210.249 181.181 211.013 180.629 212.076C180.076 213.139 179.403 214.488 178.549 216.462L179.041 215.751C177.914 218.324 176.774 221.088 175.755 224.001C175.247 225.451 174.765 226.933 174.355 228.444C173.931 229.95 173.586 231.477 173.32 233.019C173.054 234.537 172.915 236.073 172.904 237.614C172.879 239.058 173.1 240.496 173.558 241.866C174.031 243.135 174.809 244.087 175.822 244.522C176.835 244.957 178.111 244.912 179.343 244.576C179.048 244.646 178.759 244.671 178.473 244.719C178.194 244.745 177.915 244.755 177.635 244.747C177.233 244.746 176.834 244.685 176.451 244.566L176.327 244.538C176.262 244.515 176.198 244.489 176.136 244.458C176.238 244.5 176.343 244.535 176.454 244.566L176.619 244.604L176.79 244.646L176.99 244.661C177.142 244.684 177.295 244.692 177.448 244.687C178.293 244.672 179.131 244.519 179.927 244.233C180.928 243.883 181.894 243.44 182.813 242.91C183.289 242.662 183.734 242.367 184.172 242.12L185.372 241.361C185.661 241.139 185.858 240.993 185.839 241.044C185.699 241.13 185.521 241.25 185.372 241.361C185.099 241.58 184.712 241.85 184.334 242.129C183.956 242.409 183.566 242.643 183.286 242.808C183.435 242.872 184.772 242.469 186.953 240.778C187.179 240.489 187.407 240.216 187.62 239.921L188.588 239.34C190.15 237.928 189.858 238.071 189.572 238.214C189.287 238.357 189.014 238.531 190.525 237.062C191.08 236.745 192.169 235.793 193.471 234.431L194.487 233.34C194.827 232.946 195.186 232.537 195.551 232.118C196.256 231.268 196.979 230.376 197.63 229.421C198.902 227.637 199.909 225.679 200.621 223.608C201.067 222.207 201.371 220.766 201.529 219.305C201.475 218.962 201.405 218.829 201.37 218.848C201.335 218.867 201.339 218.902 201.332 218.978C201.326 219.054 201.307 219.165 201.297 219.295C201.288 219.425 201.297 219.587 201.275 219.765C201.274 219.958 201.261 220.151 201.237 220.343C201.215 220.549 201.192 220.771 201.167 220.993C201.167 221.107 201.167 221.221 201.129 221.336L201.062 221.678C200.745 223.519 199.986 225.226 200.31 223.744C200.421 223.462 200.497 223.211 200.589 222.967C200.691 222.708 200.776 222.443 200.843 222.173C201.079 221.311 201.202 220.421 201.208 219.527C201.12 219.821 201.014 220.109 200.891 220.39C200.999 219.031 200.877 217.663 200.529 216.344Z" fill="#D34B6A"/>
<path d="M191.644 266.614C191.009 267.119 190.932 267.249 190.294 267.773C191.069 267.189 191.853 266.637 192.644 266.107C192.644 265.847 193.463 265.063 194.745 264.085C196.028 263.108 197.768 261.94 199.53 260.83C203.051 258.609 206.654 256.571 206.705 256.045C208.534 255.22 208.61 255.236 207.715 255.807C206.819 256.378 204.905 257.523 202.791 259.012C204.06 258.358 205.33 257.718 206.6 257.092C205.115 257.974 203.826 258.64 202.279 259.662C205.302 258.114 208.105 256.451 210.417 255.02C210.372 254.249 210.334 253.363 210.296 252.44C210.207 250.193 210.118 247.712 209.978 246.065L210.185 245.215C210.064 240.912 209.836 238.259 209.658 235.695C209.658 236.098 209.658 236.489 209.642 236.885C209.4 234.732 209.313 232.565 209.382 230.399C209.337 228.829 209.296 227.042 209.334 224.792C209.585 225.5 209.429 227.689 209.382 230.399C209.445 232.405 209.547 234.055 209.658 235.695C209.813 226.947 209.023 218.878 208.851 211.262L208.921 211.189L208.537 203.456C208.807 205.477 208.347 201.936 208.356 199.607C208.182 197.148 208.143 193.15 208.255 190.243L208.175 185.309C208.445 190.786 208.521 184.912 208.81 184.595L208.524 181.45C208.639 180.181 208.785 183.478 208.804 181.149C208.683 179.797 208.604 176.745 208.486 174.219C208.35 174.349 208.216 174.482 208.08 174.619C208.055 174.644 208.029 174.673 208.004 174.695C208.004 174.961 208.004 175.164 207.981 175.307C207.981 176.17 207.981 177.062 207.981 178.02C207.959 176.871 207.943 176.18 207.934 175.688C207.899 175.421 207.889 174.013 207.934 175.688C207.934 175.777 207.956 175.637 207.969 175.307C207.969 175.096 207.969 174.896 207.969 174.707L207.137 175.526L206.184 176.513L205.673 177.027L205.162 177.566C204.81 177.931 204.448 178.306 204.076 178.696C203.343 179.486 202.546 180.314 201.721 181.235C202.991 179.496 202.514 179.908 201.994 180.378C201.473 180.848 200.924 181.371 202.086 179.816C200.587 181.641 199.863 182.647 199.352 183.389C198.841 184.132 198.552 184.633 197.99 185.531L196.927 186.515C195.266 189.145 195.145 189.504 194.768 190.17C194.39 190.837 193.717 191.779 191.164 195.695C191.98 194.356 191.377 195.06 190.723 195.879C190.069 196.697 189.377 197.573 189.974 196.532C189.072 197.846 188.224 199.166 187.5 200.381C187.703 200.489 187.91 200.594 188.113 200.699C189.383 201.397 190.622 202.137 191.831 202.92C193.037 203.723 194.228 204.56 195.361 205.484C196.501 206.413 197.576 207.418 198.581 208.492C199.588 209.593 200.476 210.797 201.232 212.084C202.004 213.392 202.58 214.806 202.94 216.282C203.286 217.769 203.393 219.302 203.257 220.823C203.196 221.578 203.081 222.327 202.914 223.066L202.619 224.155C202.527 224.516 202.378 224.859 202.26 225.214L202.07 225.741C202.003 225.912 201.921 226.081 201.848 226.249L201.394 227.264L200.873 228.238L200.613 228.724L200.324 229.19L199.743 230.12C199.543 230.437 199.327 230.713 199.108 231.012C198.889 231.31 198.695 231.611 198.473 231.891L197.796 232.738C196.898 233.864 195.961 234.908 195.006 235.959C193.099 238.047 191.036 239.988 188.834 241.762C187.665 242.746 188.434 242.308 188.961 242.01C187.218 243.19 186.421 243.771 185.827 244.298C185.23 244.889 184.562 245.405 183.84 245.834C182.853 246.26 181.831 246.6 180.785 246.849C179.711 247.108 178.602 247.199 177.499 247.119C176.131 247.153 175.937 247.087 176.099 247.23C176.261 247.372 176.76 247.468 176.652 247.518C175.772 247.437 174.918 247.172 174.147 246.741C173.378 246.304 172.704 245.717 172.166 245.015C171.232 243.698 170.635 242.173 170.426 240.572C170.214 239.123 170.165 237.654 170.28 236.193C170.379 234.807 170.571 233.429 170.854 232.068C171.388 229.485 172.096 226.941 172.972 224.453C173.794 222.057 174.68 219.795 175.54 217.646C176.233 216.339 176.261 216.549 176.325 216.641C176.388 216.733 176.487 216.71 177.337 214.978C175.969 217.237 177.064 214.635 178.426 211.89C179.696 209.279 181.243 206.563 180.531 207.448L180.404 207.619C180.452 207.549 180.493 207.496 180.531 207.448C181.633 205.995 183.227 203.386 184.659 201.21C184.217 200.997 183.77 200.788 183.303 200.575L183.748 200.711C182.291 199.964 180.795 199.299 179.265 198.719C178.268 198.335 177.244 198.029 176.201 197.802C175.826 197.589 176.337 197.719 176.763 197.821C177.188 197.922 177.518 197.998 176.795 197.659C173.277 196.767 169.896 195.542 166.797 194.486C163.698 193.429 160.917 192.537 158.704 192.303C159.056 192.071 156.955 191.278 155.237 190.633C153.519 189.989 152.205 189.463 154.205 189.621C153.221 189.446 152.237 189.278 151.253 189.12C151.773 189.012 154.088 189.437 156.475 189.961C158.863 190.484 161.333 191.065 162.222 191.075C165.251 191.976 168.252 192.963 171.226 194.035C170.985 193.8 172.537 194.057 171.099 193.55C170.01 193.213 168.851 192.871 168.133 192.68C169.683 193.09 170.575 193.366 171.099 193.55C172.22 193.895 173.267 194.232 173.677 194.337C174.086 194.441 173.864 194.292 172.432 193.702C177.011 195.369 181.492 197.294 185.853 199.467C186.948 197.881 187.726 196.97 187.634 197.713C188.288 196.761 188.726 196.079 189.008 195.599C189.194 195.337 189.338 195.048 189.437 194.743C189.472 194.508 189.069 194.876 188.656 195.403C191.717 191.002 194.298 187.543 196.777 183.919C197.266 183.367 198.438 181.888 200.032 179.937C201.632 177.983 203.333 176.114 205.127 174.336L115.738 193.194C123.856 231.65 153.618 259.986 189.599 268.176C190.245 267.61 190.928 267.088 191.644 266.614ZM207.991 179.743C207.896 180.425 208.283 179.972 208.239 181.178C208.534 187.778 207.632 178.401 207.991 179.743ZM156.12 189.326L154.92 189.158L152.805 188.523C153.914 188.786 155.019 189.053 156.12 189.326ZM146.795 188.041C147.506 188.022 148.192 188.009 148.89 188L149.611 188.546C148.686 188.309 147.745 188.14 146.795 188.041Z" fill="#D34B6A"/>
<path d="M208.54 194.165V194.035C208.509 195.926 208.487 196.897 208.54 194.165Z" fill="#D34B6A"/>
<path d="M256.207 248.026C256.236 248.15 256.251 248.277 256.252 248.404C256.417 247.391 256.286 247.969 256.207 248.026Z" fill="#D34B6A"/>
<path d="M306.704 152.936L262.856 162.185C265.411 163.974 267.69 166.127 269.621 168.576C270.959 170.264 272.14 172.069 273.152 173.97C274.155 175.876 275.018 177.852 275.736 179.882C276.449 181.919 277.034 183.998 277.489 186.108L277.806 187.694C277.908 188.224 277.987 188.76 278.079 189.281L278.213 190.08L278.317 190.886L278.524 192.495C278.419 192.448 278.435 193.187 278.505 194.297C278.549 194.853 278.571 195.5 278.603 196.201C278.635 196.903 278.676 197.623 278.676 198.343C278.676 199.064 278.702 199.777 278.676 200.425C278.651 201.072 278.632 201.659 278.6 202.132C278.546 203.084 278.416 203.55 278.283 203.16C278.314 202.941 278.336 202.722 278.356 202.503C278.324 198.292 277.946 203.722 277.721 207.12C277.94 205.346 277.978 206.949 278.038 207.926C278.073 208.412 278.111 208.738 278.19 208.402C278.259 208.049 278.308 207.692 278.336 207.333C278.365 207.047 278.397 206.698 278.438 206.301C278.455 206.09 278.474 205.871 278.495 205.645C278.495 205.407 278.521 205.153 278.536 204.88C278.536 205.442 278.537 206.006 278.511 206.571L278.46 208.262C278.41 209.389 278.34 210.515 278.273 211.642C278.361 212.272 278.39 212.91 278.359 213.546C278.359 213.739 278.343 213.942 278.336 214.155C278.336 214.26 278.336 214.364 278.317 214.472V214.641L278.292 214.844C278.218 215.416 278.077 215.979 277.873 216.519C277.419 217.681 276.787 218.765 276 219.733C275.164 220.781 274.239 221.753 273.234 222.64C271.098 224.506 268.831 226.217 266.45 227.758C264.075 229.345 261.687 230.83 259.535 232.226C259.827 232.055 260.091 231.841 260.319 231.591C258.732 232.648 257.02 233.679 255.293 234.663C255.392 234.904 255.493 235.158 255.611 235.437C255.722 235.618 255.833 235.818 255.928 236.024C256.023 236.231 256.134 236.443 256.223 236.659C256.4 237.082 256.552 237.514 256.681 237.954C256.93 238.823 257.114 239.71 257.233 240.606C257.119 240.959 256.992 241.304 256.865 241.644C257.011 243.783 256.687 246.131 256.23 248.422C256.258 249.393 255.938 251.595 255.442 253.784C254.88 256.358 254.122 258.909 254.023 259.629C253.759 260.091 253.532 260.572 253.344 261.07C293.071 242.101 316.194 197.87 306.704 152.936Z" fill="#D34B6A"/>
<path d="M163.939 258.659L75.1914 510.509L165.828 584.005C165.828 584.005 138.229 549.456 157.558 477.038C171.892 423.323 202.581 324.093 217.477 276.432C218.583 272.894 218.98 269.172 218.645 265.48C218.31 261.789 217.25 258.199 215.525 254.917C213.801 251.635 211.446 248.726 208.595 246.355C205.744 243.984 202.453 242.198 198.91 241.099C191.941 238.937 184.404 239.559 177.883 242.833C171.362 246.108 166.364 251.78 163.939 258.659Z" fill="#FADD6F"/>
<path d="M158.047 195.092C160.726 196.652 163.071 198.726 164.945 201.195C166.819 203.664 168.186 206.479 168.967 209.478C169.748 212.477 169.929 215.6 169.497 218.669C169.066 221.738 168.032 224.692 166.454 227.359L84.1802 366.464L85.9772 398.7C86.0554 400.102 85.6277 401.486 84.7719 402.6C83.9161 403.713 82.6889 404.484 81.3133 404.77C80.5105 404.937 79.6816 404.935 78.88 404.762C78.0784 404.59 77.3217 404.251 76.6589 403.769C75.9961 403.286 75.4417 402.671 75.0316 401.961C74.6215 401.251 74.3647 400.463 74.2777 399.649L72.0744 378.982L43.0337 426.312C42.652 426.936 42.1423 427.472 41.5383 427.884C40.9342 428.296 40.2495 428.576 39.5294 428.704C38.8093 428.833 38.0701 428.807 37.3607 428.629C36.6513 428.451 35.9877 428.124 35.4139 427.671C34.4824 426.938 33.8306 425.908 33.5677 424.753C33.3047 423.598 33.4465 422.387 33.9693 421.324L47.4277 393.845L30.242 418.129C29.4921 419.193 28.3621 419.928 27.0853 420.183C25.8086 420.438 24.4826 420.194 23.3811 419.5C22.2837 418.814 21.4893 417.736 21.16 416.486C20.8308 415.235 20.9916 413.906 21.6095 412.77L34.6265 388.752L19.1172 410.694C18.6924 411.295 18.1461 411.8 17.5137 412.176C16.8813 412.552 16.1769 412.792 15.4461 412.879C14.7153 412.966 13.9743 412.899 13.2712 412.681C12.568 412.464 11.9183 412.102 11.3641 411.618C10.4335 410.803 9.82013 409.687 9.63196 408.465C9.4438 407.243 9.69293 405.994 10.3355 404.938L24.0161 382.425L8.9036 402.717C8.12563 403.762 6.96603 404.457 5.67739 404.652C4.38875 404.846 3.07547 404.524 2.02362 403.755C1.00585 403.011 0.311233 401.907 0.0821851 400.668C-0.146862 399.429 0.107011 398.149 0.791758 397.091L126.46 202.647C129.743 197.569 134.857 193.951 140.739 192.544C146.622 191.137 152.82 192.049 158.047 195.092Z" fill="#F2A84C"/>
<path d="M193.253 141.319C192.38 141.855 191.71 142.359 193.139 142.271L193.809 141.953C194.078 141.757 194.38 141.547 194.685 141.303C194.215 141.334 193.729 141.319 193.253 141.319Z" fill="#FAA284"/>
<path d="M193.389 142.652C194.661 142.249 195.901 141.748 197.097 141.154C196.868 141.192 196.582 141.23 196.252 141.259C195.922 141.288 195.547 141.303 195.144 141.313C194.674 141.557 194.22 141.783 193.811 141.97C193.252 142.382 192.89 142.652 193.389 142.652Z" fill="#FAA284"/>
<path d="M228.72 133.387L228.99 133.402L229.095 133.085C227.952 132.853 226.52 132.634 226.158 132.688C226.12 132.46 228.19 132.054 227.184 131.543C223.018 130.423 218.77 130.67 218.894 131.353C221.08 131.623 223.27 131.906 225.463 132.2C225.564 132.768 220.783 131.648 220.904 132.339C218.948 131.821 216.992 131.315 215.036 130.823C215.786 130.965 218.1 131.33 217.259 130.842C214.719 130.302 215.96 130.461 214.316 129.842C217.961 129.755 221.599 129.475 225.215 129.004L222.069 128.633L221.37 128.151C217.272 127.64 213.214 128.903 212.052 129.22C209.785 128.605 210.82 127.659 211.417 127.554C211.23 127.513 211.055 127.478 210.88 127.446C210.683 128.057 210.442 128.653 210.16 129.23C210.376 129.315 210.477 129.382 210.249 129.407L210.099 129.36C210.077 129.411 210.052 129.461 210.03 129.509C209.857 129.841 209.714 130.187 209.601 130.543C209.487 130.872 209.436 131.22 209.452 131.568L209.947 130.823C209.476 131.843 208.904 132.814 208.239 133.72C207.975 134.075 207.709 134.427 207.36 134.833C207.188 135.04 206.998 135.262 206.772 135.497C206.547 135.731 206.312 136.004 206.017 136.284C205.82 136.62 204.724 137.769 204.264 137.93C204.413 138.21 202.978 139.517 201.175 140.523C199.723 141.349 198.187 142.019 196.593 142.522C197.787 142.04 198.057 141.808 197.946 141.738C197.62 141.702 197.291 141.702 196.965 141.738C196.687 141.977 196.387 142.189 196.07 142.373C195.769 142.551 195.449 142.696 195.117 142.804C194.307 143.062 193.462 143.192 192.612 143.191C192.585 143.444 192.499 143.686 192.362 143.9C192.225 144.114 192.04 144.293 191.822 144.423C191.187 144.81 190.047 145.241 187.863 145.299C188.539 145.187 189.58 145.045 189.132 144.918C188.685 144.791 187.701 144.984 187.358 145.038C186.932 144.886 188.31 144.756 187.824 144.496C186.476 144.824 185.07 144.837 183.716 144.534L183.186 144.432L182.637 144.299C182.262 144.216 181.878 144.105 181.471 143.982C181.065 143.858 180.643 143.734 180.202 143.61L179.506 143.385C179.265 143.315 179.017 143.233 178.763 143.141C180.113 143.423 179.065 142.868 178.735 142.439C178.417 142.792 177.147 142.011 176.217 141.253C175.741 140.881 175.344 140.51 175.096 140.361C174.849 140.212 174.75 140.272 174.922 140.729C174.068 140.021 173.269 139.25 172.531 138.422C171.749 137.531 171.042 136.576 170.42 135.566C169.797 134.541 169.266 133.464 168.832 132.346L168.515 131.514C168.429 131.235 168.34 130.956 168.251 130.677C168.162 130.397 168.096 130.121 168.023 129.842L167.918 129.43C167.883 129.293 167.848 129.154 167.819 128.998C167.671 128.366 167.576 127.723 167.537 127.075C167.537 126.897 167.556 126.72 167.569 126.545L167.594 126.285C167.607 126.199 167.625 126.115 167.648 126.031C167.689 125.863 167.727 125.695 167.778 125.533L167.978 125.07C168.046 124.918 168.129 124.773 168.226 124.638C168.31 124.498 168.405 124.364 168.508 124.238C168.711 123.993 168.936 123.768 169.182 123.566L169.543 123.277C169.67 123.191 169.801 123.115 169.931 123.036C170.061 122.956 170.188 122.883 170.312 122.817L170.667 122.655C171.424 122.322 172.223 122.096 173.042 121.985C173.567 121.901 174.099 121.874 174.63 121.906C174.911 121.954 175.199 121.954 175.48 121.906C175.817 121.865 176.204 121.805 176.608 121.725L177.833 121.522C178.207 121.468 178.583 121.433 178.96 121.417L178.782 121.798C179.716 121.62 180.37 121.528 180.887 121.481C181.405 121.433 181.792 121.411 182.195 121.398C183.008 121.373 183.897 121.351 186.113 121.198C184.262 121.497 185.015 121.751 186.78 122.277C187.796 122.112 188.812 121.96 189.834 121.824L190.339 122.458C191.571 122.382 192.879 122.655 194.219 122.941C194.806 122.734 196.085 122.779 197.374 122.883C198.892 123.004 200.419 123.201 200.867 123.083C202.038 124.086 204.407 123.524 205.226 124.438C205.771 124.415 206.317 124.427 206.861 124.473C206.302 124.013 206.147 123.588 207.29 123.985L207.569 124.029L207.191 123.534C207.128 123.236 207.782 123.508 208.639 123.915C208.61 123.721 208.575 123.531 208.537 123.34C208.487 123.055 208.429 122.769 208.353 122.487C208.452 122.15 208.522 122.538 208.601 122.782C208.68 123.026 208.772 123.121 208.918 122.147C208.783 120.737 208.532 119.341 208.169 117.971L208.064 117.518L207.95 116.975C207.88 116.613 207.798 116.255 207.763 115.877C207.728 115.5 207.674 115.125 207.655 114.732C207.636 114.338 207.629 113.932 207.655 113.513C207.633 112.913 207.591 112.495 207.566 112.212C207.571 112.047 207.535 111.884 207.461 111.736C207.369 111.635 207.242 111.914 207.125 112.225C207.007 112.536 206.921 112.859 206.852 112.859C206.782 112.859 206.718 112.517 206.798 111.457C207.062 111.119 207.289 110.753 207.474 110.365C207.531 110.235 207.585 110.092 207.639 109.931C207.693 109.769 207.763 109.588 207.826 109.385C207.89 109.182 207.944 108.953 208.01 108.699C208.077 108.446 208.16 108.166 208.236 107.855C208.261 107.164 208.214 106.84 208.198 106.393C208.222 105.658 208.37 104.933 208.636 104.247L209.137 104.628C209.473 103.779 209.884 102.961 210.366 102.185C210.747 101.598 211.065 101.296 211.261 101.42C211.797 100.265 212.578 99.2408 213.551 98.4185C214.547 97.1968 213.935 97.3618 212.947 97.9393C212.706 98.0885 212.443 98.2566 212.176 98.4502C211.909 98.6437 211.658 98.8436 211.417 99.034C210.938 99.4212 210.55 99.7797 210.382 99.9003C211.351 98.8652 212.373 97.8802 213.443 96.9493C213.633 96.7906 213.817 96.632 214.001 96.5082C213.487 96.4702 212.684 96.4733 212.487 96.413L208.001 97.6284C209.988 97.0953 209.833 96.7335 210.134 96.2988C208.718 96.5908 208.083 96.9176 207.121 97.1397C207.69 96.9017 208.264 96.6573 207.48 96.6224L202.807 98.0948C203.246 98.0865 203.684 98.0462 204.118 97.9742C202.921 98.19 200.375 98.8849 198.61 98.8786C198.737 98.7072 199.302 98.466 199.422 98.2947C200.93 98.4565 201.686 97.9552 202.381 97.5395C199.089 98.19 201.54 97.5903 199.905 97.6029C197.578 98.0281 196.711 98.7009 197.365 98.9103C194.711 99.2276 193.857 99.2815 191.237 100.138L191.657 99.5354L189.218 100.135L191.123 99.1515C186.326 99.6401 190.409 100.189 185.091 100.83L184.996 100.379C183.005 100.913 182.456 101.798 180.776 101.535C178.871 102.169 184.25 101.579 179.649 102.486C178.795 102.398 177.014 102.537 175.671 102.68C174.376 103.102 176.404 103.039 177.5 102.855L177.817 102.788L177.5 102.855C170.975 104.162 173.128 102.036 167.111 103.705C169.302 103.654 165.486 104.895 170.528 103.987C168.166 104.682 165.673 104.175 163.248 105.111L164.781 104.244C163.977 104.414 163.187 104.646 162.419 104.939L162.549 104.511C160.86 105.269 159.2 105.374 157.787 105.574C155.667 110.3 154.53 115.407 154.443 120.585C154.356 125.764 155.322 130.906 157.283 135.7C159.243 140.494 162.157 144.84 165.848 148.476C169.538 152.111 173.929 154.96 178.754 156.85C183.579 158.739 188.737 159.63 193.916 159.468C199.096 159.306 204.188 158.095 208.886 155.908C213.583 153.721 217.787 150.604 221.243 146.745C224.7 142.887 227.336 138.367 228.993 133.459C228.885 133.431 228.803 133.409 228.72 133.387ZM209.537 101.972L210.153 101.303C209.56 102.191 209.306 102.664 208.991 102.889L208.944 102.664C209.144 102.432 209.331 102.191 209.537 101.972Z" fill="#FAA284"/>
<path d="M158.974 104.783C158.678 104.782 158.382 104.809 158.091 104.863C158.015 105.028 157.936 105.18 157.859 105.361C158.491 105.189 158.917 105.009 158.974 104.783Z" fill="#2448B1"/>
<path d="M214.879 97.4451C215.178 97.2013 215.411 96.8874 215.559 96.5312C215.438 96.5566 215.317 96.582 215.197 96.601C214.598 97.1411 214.065 97.7503 213.609 98.4161C214.121 98.0036 214.54 97.7243 214.879 97.4451Z" fill="#FAA284"/>
<path d="M226.073 128.481C227.438 128.798 228.778 129.188 230.051 129.588C231.338 123.822 231.273 117.837 229.863 112.101C228.452 106.364 225.734 101.031 221.92 96.5176C221.841 96.562 221.761 96.6064 221.692 96.654C221.085 97.1205 220.977 97.3394 221.082 97.4029C221.347 97.4384 221.616 97.4178 221.873 97.3425C220.447 97.828 218.853 99.1545 217.745 100.49C216.637 101.826 215.907 103.118 215.523 103.435C214.916 104.222 214.71 104.308 214.57 104.222C214.431 104.136 214.345 103.867 214.059 104.022C213.672 104.692 213.618 105.06 213.643 105.25C213.669 105.44 213.815 105.482 213.923 105.539C214.031 105.596 214.094 105.666 214.005 105.929C213.933 106.123 213.841 106.309 213.732 106.484C213.669 106.614 213.592 106.757 213.5 106.926L213.345 107.192C213.297 107.29 213.243 107.395 213.189 107.509C213.211 107.398 213.237 107.259 213.275 107.125C213.313 106.992 213.348 106.859 213.38 106.748C213.437 106.526 213.453 106.389 213.351 106.526C212.986 107.189 212.23 108.052 211.611 109.064C210.992 110.076 210.535 111.238 210.697 112.082C210.802 111.717 210.891 111.355 211.014 111.006C211.03 111.758 210.995 112.574 210.941 113.396C210.922 113.808 210.903 114.221 210.875 114.63C210.846 115.039 210.859 115.436 210.852 115.813C210.846 116.191 210.875 116.556 210.894 116.886C210.913 117.216 210.948 117.54 210.992 117.806C211.094 118.339 211.208 118.704 211.472 118.806L211.888 118.434C211.888 118.799 211.903 119.126 211.91 119.424C211.916 119.723 211.91 119.986 211.91 120.224C211.91 120.697 211.891 121.065 211.888 121.363C211.888 121.954 211.888 122.264 211.888 122.575C211.888 122.734 211.903 122.893 211.907 123.086C211.91 123.28 211.881 123.508 211.849 123.81C211.83 123.962 211.814 124.127 211.783 124.321C211.751 124.514 211.703 124.72 211.656 124.955C211.64 125.022 211.624 125.095 211.608 125.165L211.926 125.235C211.837 125.231 211.749 125.22 211.662 125.203C212.47 125.509 213.32 125.692 214.183 125.745C218.199 127.332 223.66 126.869 228.01 128.919C227.317 128.658 226.365 128.385 226.073 128.481Z" fill="#FAA284"/>
<path d="M214.783 96.6704C214.564 96.8893 214.345 97.1114 214.129 97.3367L215.123 96.6133L214.783 96.6704Z" fill="#FAA284"/>
<path d="M185.461 97.1754C185.436 97.81 192.373 95.9823 191.649 97.0199L191.259 97.0009C188.881 97.515 192.078 97.5752 194.008 97.131C191.919 97.2103 197.501 95.6015 192.529 96.3472L196.285 95.2525C198.11 93.1836 206.527 93.5834 212.235 92.0096C211.838 92.146 211.746 92.2571 211.705 92.3269C213.301 91.8865 214.923 91.5494 216.563 91.3178C212.324 87.9394 207.415 85.4996 202.161 84.16C196.908 82.8205 191.43 82.6116 186.089 83.5473C180.749 84.483 175.669 86.542 171.184 89.5878C166.7 92.6336 162.915 96.5968 160.078 101.215C168.282 99.8663 176.81 98.7461 185.461 97.1754Z" fill="#FAA284"/>
<path d="M208.433 124.66C208.433 124.59 208.433 124.511 208.433 124.422C208.496 124.498 208.623 124.657 208.696 124.245C208.36 124.175 207.992 124.111 207.582 124.061L208.004 124.609L208.433 124.66Z" fill="#FAA284"/>
<path d="M208.141 128.601C208.421 128.18 208.616 127.708 208.716 127.211C208.063 127.22 207.411 127.274 206.766 127.373C205.216 127.628 203.629 127.562 202.105 127.18L203.772 127.744C202.68 127.633 198.807 126.71 199.191 126.996C198.4 126.577 197.73 125.822 198.47 125.698C197.122 125.812 195.779 125.94 194.441 126.082C195.054 126.063 194.803 125.098 195.076 124.977C193.441 124.686 192.143 125.612 193.152 125.907C190.063 124.809 190.809 125.273 188.307 124.197C187.355 124.159 188.307 125.168 188.961 125.349C187.494 125.359 186.03 125.224 184.59 124.946C184.548 124.946 184.526 124.946 184.482 124.946L184.45 124.911C183.333 124.64 182.163 124.693 181.075 125.063C181.831 124.578 182.608 124.111 183.399 123.642C183.755 124.067 184.104 124.479 184.45 124.911L184.59 124.936C186.352 124.879 186.65 124.413 186.583 123.848C186.517 123.283 186.094 122.658 186.466 122.344C183.841 122.97 181.256 123.754 178.726 124.692C178.967 124.517 179.564 123.654 179.522 123.55C179.364 123.746 178.703 123.905 177.754 124.057C176.805 124.21 175.567 124.375 174.303 124.667C173.68 124.8 173.068 124.982 172.474 125.212L172.261 125.295C172.195 125.323 172.141 125.358 172.081 125.387L171.903 125.473L171.811 125.517L171.744 125.558C171.564 125.666 171.396 125.791 171.242 125.933C170.953 126.205 170.767 126.57 170.718 126.964C170.718 127.059 170.718 127.151 170.699 127.24L170.722 127.506C170.727 127.561 170.736 127.615 170.747 127.668L170.776 127.843L170.836 128.179L170.722 127.659C170.518 127.322 170.487 127.887 170.636 128.788C170.797 129.741 171.129 130.657 171.617 131.492C171.385 131.327 171.299 131.01 171.093 130.435C171.252 131.822 171.941 132.517 172.601 133.12C173.417 133.739 174.07 134.545 174.506 135.471C174.309 135.249 174.16 135.027 174.004 134.836L173.789 134.573L173.604 134.332C173.423 134.11 173.231 133.898 173.027 133.697C172.709 133.412 172.531 133.415 172.427 133.548C172.744 133.951 173.138 134.5 173.589 135.04C173.814 135.309 174.043 135.588 174.293 135.836C174.417 135.963 174.535 136.093 174.655 136.214L175.027 136.531C175.246 136.727 175.478 136.907 175.722 137.07C175.897 137.202 176.089 137.309 176.294 137.388C176.611 137.505 176.792 137.438 176.757 137.108C177.605 138.022 178.662 138.46 178.345 138.825C179.1 139.138 179.878 139.395 180.672 139.593C181.461 139.784 182.262 139.924 183.069 140.015C182.885 140.015 182.697 140.072 182.729 140.174C182.761 140.275 183.008 140.434 183.716 140.602C182.367 140.285 181.021 140.069 179.859 139.71C178.697 139.352 177.748 138.869 177.319 138.216C177.122 138.444 177.202 138.768 177.164 138.993C177.125 139.219 176.951 139.374 176.211 139.165C177.306 139.853 178.498 140.372 179.748 140.704C180.764 140.972 181.808 141.123 182.859 141.154C184.62 141.165 186.375 140.951 188.082 140.52C189.665 140.624 191.254 140.566 192.825 140.345L192.959 140.028C193.276 140.18 193.594 140.345 193.936 140.475C194.479 140.158 194.803 139.92 194.943 139.939C195.083 139.958 194.943 140.101 194.749 140.256C195.135 140.115 195.505 139.932 195.851 139.71C195.755 139.62 195.627 139.57 195.495 139.571C196.045 139.466 196.07 139.539 195.851 139.71C196 139.844 195.914 140.085 195.683 140.367C195.382 140.713 195.043 141.024 194.673 141.294H195.13C196.112 140.8 197.029 140.19 197.864 139.476C198.397 138.942 198.403 138.67 197.378 138.898C197.061 138.977 196.775 139.066 196.47 139.142C196.165 139.219 195.86 139.285 195.556 139.349C195.962 139.241 196.314 139.152 196.616 139.079C196.918 139.006 197.165 138.939 197.378 138.898C198.288 138.633 199.182 138.315 200.054 137.946C201.299 136.797 201.712 136.252 202.239 135.703C202.49 135.414 202.772 135.128 203.118 134.703C203.299 134.497 203.49 134.253 203.709 133.964C203.928 133.675 204.16 133.329 204.436 132.939C204.753 132.939 204.214 133.837 204.814 133.428C205.471 132.114 206.579 130.841 207.439 129.62C207.538 129.483 207.633 129.35 207.722 129.217C207.487 129.172 207.185 129.099 206.792 128.988C206.207 128.331 206.798 128.468 208.141 128.601Z" fill="#FAA284"/>
<path d="M189.809 141.499C190.539 141.536 191.27 141.466 191.98 141.293C191.526 141.293 191.107 141.293 190.739 141.318C190.422 141.333 190.108 141.394 189.809 141.499Z" fill="#FAA284"/>
<path d="M193.979 123.106C194.048 123.046 194.13 123.001 194.218 122.975C193.636 122.915 193.979 122.998 193.979 123.106Z" fill="#FAA284"/>
</svg>
