<svg width="118" height="79" viewBox="0 0 118 79" fill="none" xmlns="http://www.w3.org/2000/svg">
<path opacity="0.9" d="M46.5578 71.114C47.1894 71.7529 47.9418 72.2597 48.7712 72.605C49.6005 72.9502 50.4903 73.127 51.3887 73.125H70.1163C71.3448 73.1227 72.5228 72.636 73.3947 71.7706L110.833 34.3398C112.111 33.0597 112.828 31.3251 112.828 29.5166C112.828 27.7081 112.111 25.9735 110.833 24.6934L93.009 6.86916C91.7285 5.59112 89.9934 4.87332 88.1842 4.87332C86.3751 4.87332 84.6399 5.59112 83.3595 6.86916L45.9363 44.2848C45.0692 45.1553 44.5808 46.333 44.5774 47.5617V66.3C44.5718 67.1936 44.7441 68.0795 45.0841 68.9059C45.4241 69.7324 45.9251 70.483 46.5578 71.114ZM59.2024 53.625C60.1666 53.625 61.1091 53.9109 61.9108 54.4466C62.7125 54.9822 63.3373 55.7436 63.7063 56.6344C64.0753 57.5252 64.1718 58.5054 63.9837 59.451C63.7956 60.3967 63.3313 61.2653 62.6495 61.9471C61.9677 62.6289 61.0991 63.0932 60.1534 63.2813C59.2078 63.4694 58.2276 63.3729 57.3368 63.0039C56.446 62.6349 55.6846 62.0101 55.149 61.2084C54.6133 60.4067 54.3274 59.4642 54.3274 58.5C54.3274 57.2071 54.841 55.9671 55.7552 55.0528C56.6695 54.1386 57.9094 53.625 59.2024 53.625Z" fill="#5A7ED4"/>
<path d="M58.2041 59.0006C56.8708 41.3339 17.7044 27.5002 5.20562 46.5006C-9.92418 69.5006 32.7031 85.0006 45.7041 73.5006" stroke="#7090DC" stroke-width="3" stroke-linecap="round"/>
</svg>
