<svg width="40" height="40" viewBox="0 0 40 40" fill="none" xmlns="http://www.w3.org/2000/svg">
<path d="M26.9835 3.33398H13.0168C6.95016 3.33398 3.3335 6.95065 3.3335 13.0173V26.9673C3.3335 33.0507 6.95016 36.6673 13.0168 36.6673H26.9668C33.0335 36.6673 36.6502 33.0507 36.6502 26.984V13.0173C36.6668 6.95065 33.0502 3.33398 26.9835 3.33398ZM27.2835 23.9173L23.5835 27.6173C22.6835 28.5173 21.5168 28.9507 20.3502 28.9507C19.1835 28.9507 18.0002 28.5007 17.1168 27.6173C16.2502 26.7507 15.7668 25.6007 15.7668 24.384C15.7668 23.1673 16.2502 22.0007 17.1168 21.1507L19.4668 18.8007C19.9502 18.3173 20.7502 18.3173 21.2335 18.8007C21.7168 19.284 21.7168 20.084 21.2335 20.5673L18.8835 22.9173C18.4835 23.3173 18.2668 23.834 18.2668 24.384C18.2668 24.934 18.4835 25.4673 18.8835 25.8507C19.7002 26.6673 21.0168 26.6673 21.8335 25.8507L25.5335 22.1507C27.6502 20.034 27.6502 16.6007 25.5335 14.484C23.4168 12.3673 19.9835 12.3673 17.8668 14.484L13.8335 18.5173C12.9835 19.3673 12.5168 20.484 12.5168 21.6673C12.5168 22.8507 12.9835 23.984 13.8335 24.8173C14.3168 25.3007 14.3168 26.1007 13.8335 26.584C13.3502 27.0673 12.5502 27.0673 12.0668 26.584C10.7335 25.3007 10.0002 23.5507 10.0002 21.684C10.0002 19.8173 10.7168 18.0673 12.0335 16.7507L16.0668 12.7173C19.1502 9.63398 24.1835 9.63398 27.2668 12.7173C30.3668 15.8007 30.3668 20.834 27.2835 23.9173Z" fill="#E0704A"/>
</svg>
