<svg width="40" height="40" viewBox="0 0 40 40" fill="none" xmlns="http://www.w3.org/2000/svg">
<path d="M26.285 5H13.715C8.255 5 5 8.255 5 13.715V26.27C5 31.745 8.255 35 13.715 35H26.27C31.73 35 34.985 31.745 34.985 26.285V13.715C35 8.255 31.745 5 26.285 5ZM18.425 28.265C17.99 28.7 17.165 29.12 16.565 29.21L12.875 29.735C12.74 29.75 12.605 29.765 12.47 29.765C11.855 29.765 11.285 29.555 10.88 29.15C10.385 28.655 10.175 27.935 10.295 27.14L10.82 23.45C10.91 22.835 11.315 22.025 11.765 21.59L18.455 14.9C18.575 15.215 18.695 15.53 18.86 15.89C19.01 16.205 19.175 16.535 19.355 16.835C19.505 17.09 19.67 17.33 19.805 17.51C19.97 17.765 20.165 18.005 20.285 18.14C20.36 18.245 20.42 18.32 20.45 18.35C20.825 18.8 21.26 19.22 21.635 19.535C21.74 19.64 21.8 19.7 21.83 19.715C22.055 19.895 22.28 20.075 22.475 20.21C22.715 20.39 22.955 20.555 23.21 20.69C23.51 20.87 23.84 21.035 24.17 21.2C24.515 21.35 24.83 21.485 25.145 21.59L18.425 28.265ZM28.055 18.635L26.675 20.03C26.585 20.12 26.465 20.165 26.345 20.165C26.3 20.165 26.24 20.165 26.21 20.15C23.165 19.28 20.735 16.85 19.865 13.805C19.82 13.64 19.865 13.46 19.985 13.355L21.38 11.96C23.66 9.68 25.835 9.725 28.07 11.96C29.21 13.1 29.765 14.195 29.765 15.335C29.75 16.415 29.195 17.495 28.055 18.635Z" fill="#83BF6E"/>
</svg>
