<svg width="40" height="40" viewBox="0 0 40 40" fill="none" xmlns="http://www.w3.org/2000/svg">
<path d="M22.0833 20.0007C23.2339 20.0007 24.1667 19.0679 24.1667 17.9173C24.1667 16.7667 23.2339 15.834 22.0833 15.834C20.9327 15.834 20 16.7667 20 17.9173C20 19.0679 20.9327 20.0007 22.0833 20.0007Z" fill="#F2A84C"/>
<path d="M26.9835 3.33398H13.0168C6.95016 3.33398 3.3335 6.95065 3.3335 13.0173V26.9673C3.3335 33.0507 6.95016 36.6673 13.0168 36.6673H26.9668C33.0335 36.6673 36.6502 33.0507 36.6502 26.984V13.0173C36.6668 6.95065 33.0502 3.33398 26.9835 3.33398ZM26.4835 22.4507C24.7668 24.1507 22.3168 24.684 20.1502 24.0007L18.3835 25.7507C18.2335 25.9007 17.9668 25.9007 17.8002 25.7507L16.1835 24.134C15.9502 23.9007 15.5502 23.9007 15.3002 24.134C15.0502 24.3673 15.0668 24.7673 15.3002 25.0173L16.9168 26.634C17.0835 26.8007 17.0835 27.0673 16.9168 27.2173L16.2335 27.9007C15.9502 28.2007 15.4002 28.384 15.0002 28.334L13.1835 28.084C12.5835 28.0007 12.0335 27.434 11.9335 26.834L11.6835 25.0173C11.6168 24.6173 11.8168 24.0673 12.0835 23.784L16.0002 19.8673C15.3335 17.7007 15.8502 15.2507 17.5668 13.534C20.0168 11.084 24.0168 11.084 26.4835 13.534C28.9502 15.984 28.9502 19.984 26.4835 22.4507Z" fill="#F2A84C"/>
</svg>
