<svg width="227" height="217" viewBox="0 0 227 217" fill="none" xmlns="http://www.w3.org/2000/svg">
<path opacity="0.3" d="M145.921 213.074C151.094 218.242 156.16 218.375 161.466 213.074L164.693 209.85C164.96 209.584 165.066 209.158 164.96 208.785C162.933 201.725 157.28 196.078 150.214 194.053C150.107 194.027 150 194 149.894 194C149.6 194 149.334 194.107 149.12 194.32L145.921 197.543C143.281 200.154 142.001 202.684 142.001 205.242C141.974 207.879 143.254 210.437 145.921 213.074Z" fill="white"/>
<path opacity="0.3" d="M155.295 191.189C156.078 191.568 156.834 191.946 157.562 192.378C158.156 192.73 158.723 193.108 159.29 193.514C159.749 193.811 160.289 194.243 160.802 194.676C160.856 194.703 161.044 194.865 161.26 195.081C162.151 195.838 163.15 196.811 164.041 197.892C164.122 197.946 164.257 198.135 164.446 198.378C164.716 198.703 165.174 199.243 165.579 199.865C165.903 200.27 166.281 200.865 166.632 201.459C167.064 202.189 167.442 202.919 167.82 203.676C168.198 204.486 168.495 205.27 168.765 206L185.716 189.027C186.067 188.676 186.391 188 186.472 187.541L187.93 177.189C188.2 175.351 187.687 173.622 186.553 172.459C185.581 171.514 184.232 171 182.774 171C182.45 171 182.126 171.027 181.802 171.081L171.437 172.541C170.951 172.622 170.276 172.946 169.952 173.297L153 190.27C153.756 190.541 154.485 190.838 155.295 191.189Z" fill="white"/>
<path fill-rule="evenodd" clip-rule="evenodd" d="M80.8309 45.2871L80.8917 45.4232C81.1245 46.0084 81.3475 46.6086 81.5473 46.9904C84.279 52.1917 85.3184 58.764 85.9406 64.5503C87.4227 78.3958 89.6479 92.1598 92.132 105.863C92.8278 109.702 93.9934 113.453 94.9357 117.234C95.2158 118.353 95.5131 119.462 95.808 120.574C95.9417 121.057 95.9656 122.126 96.0837 122.658C96.1643 123.042 96.3195 123.304 96.44 123.447C96.7539 123.802 97.1211 123.903 97.4957 123.853C97.7388 123.825 98.1179 123.719 98.4373 123.222C101.779 117.982 103.752 109.516 105.055 100.168C106.968 86.4385 107.477 70.7971 109.136 61.0835C109.574 58.5298 109.57 53.1735 110.115 48.6043C110.353 46.5778 110.669 44.7095 111.235 43.4101C111.429 44.5371 111.54 45.9631 111.738 46.7498C112.593 50.1482 112.921 53.667 113.575 57.1046C115.559 67.5612 127.923 97.8994 132.697 107.499C136.555 115.265 162.709 157.358 185.757 174.662C186.252 175.033 186.953 174.935 187.324 174.44C187.696 173.944 187.594 173.241 187.102 172.872C164.331 155.775 138.513 114.175 134.7 106.503C129.981 97.0082 117.733 67.0241 115.775 56.6914C115.115 53.2067 114.772 49.6457 113.907 46.2039C113.595 44.9624 113.417 42.2631 112.938 41.212C112.667 40.6184 112.261 40.3155 111.898 40.2072C111.454 40.0773 110.873 40.0989 110.284 40.7466C109.323 41.8088 108.645 43.7401 108.221 46.0838C107.343 50.9653 107.438 57.7389 106.932 60.7081C105.269 70.4354 104.753 86.1043 102.839 99.8602C101.769 107.525 100.284 114.588 97.8717 119.617C97.6091 118.644 97.3565 117.671 97.1088 116.691C96.1732 112.957 95.0218 109.258 94.3327 105.466C91.8627 91.8147 89.6417 78.1016 88.1652 64.3131C87.5156 58.2576 86.3851 51.3906 83.532 45.9495C83.1286 45.1834 82.6039 43.5304 82.089 42.9267C81.7587 42.5399 81.377 42.371 81.0377 42.342C80.6213 42.2999 80.1491 42.4087 79.7319 42.9491C78.0179 45.156 76.1544 49.5487 74.3423 54.9109C70.2312 67.093 66.2725 84.3481 64.359 91.3394C63.0733 96.0347 61.9723 100.808 60.5384 105.46C60.4673 105.691 58.7456 109.99 57.9229 112.036C57.107 110.984 56.1759 109.306 55.17 107.334C51.6408 100.397 47.6186 89.7862 46.3576 86.5829C43.9362 80.4398 41.6794 74.2493 39.1145 68.1622C35.067 58.5559 30.7105 49.0954 26.767 39.4446C26.5368 38.8718 25.881 38.5986 25.3119 38.8312C24.7367 39.0651 24.4634 39.7209 24.696 40.29C28.6385 49.9507 33 59.4199 37.0525 69.0348C39.6098 75.1009 41.8601 81.2766 44.2752 87.4048C45.5489 90.6379 49.6143 101.347 53.1764 108.347C54.8075 111.557 56.4002 113.998 57.5617 114.816C57.8867 115.039 58.6715 115.295 59.3115 114.413C60.1291 113.284 62.5769 106.449 62.6793 106.12C64.118 101.444 65.2238 96.6478 66.518 91.9313C68.4267 84.9636 72.3687 67.7671 76.4665 55.6298C77.9403 51.2606 79.4142 47.5545 80.8309 45.2871Z" fill="#E99CAD"/>
</svg>
