<svg width="28" height="28" viewBox="0 0 28 28" fill="none" xmlns="http://www.w3.org/2000/svg">
<path d="M21.5485 19.6337L22.0035 23.3204C22.1201 24.2887 21.0818 24.9654 20.2535 24.4637L16.2168 22.0604C15.9368 21.897 15.8668 21.547 16.0185 21.267C16.6018 20.1937 16.9168 18.9804 16.9168 17.767C16.9168 13.497 13.2535 10.0204 8.75012 10.0204C7.82845 10.0204 6.93012 10.1604 6.09012 10.4404C5.65845 10.5804 5.23845 10.1837 5.34345 9.74036C6.40512 5.4937 10.4885 2.33203 15.3651 2.33203C21.0585 2.33203 25.6668 6.63703 25.6668 11.9454C25.6668 15.0954 24.0451 17.8837 21.5485 19.6337Z" fill="#EFB7A4"/>
<path d="M15.1668 17.7701C15.1668 19.1584 14.6535 20.4418 13.7902 21.4568C12.6352 22.8568 10.8035 23.7551 8.75016 23.7551L5.70516 25.5634C5.19183 25.8784 4.5385 25.4468 4.6085 24.8518L4.90016 22.5534C3.33683 21.4684 2.3335 19.7301 2.3335 17.7701C2.3335 15.7168 3.43016 13.9084 5.11016 12.8351C6.1485 12.1584 7.39683 11.7734 8.75016 11.7734C12.2968 11.7734 15.1668 14.4568 15.1668 17.7701Z" fill="#E0704A"/>
</svg>
