<svg width="28" height="28" viewBox="0 0 28 28" fill="none" xmlns="http://www.w3.org/2000/svg">
<path d="M24.6524 9.51889C25.0284 10.1002 24.5524 10.7904 23.86 10.7904H3.3335C2.78121 10.7904 2.3335 10.3426 2.3335 9.79037V7.4887C2.3335 4.64203 4.6435 2.33203 7.49016 2.33203H10.1968C12.0985 2.33203 12.6935 2.95036 13.4518 3.96536L15.0852 6.13537C15.4468 6.6137 15.4935 6.67203 16.1702 6.67203H19.4252C21.6153 6.67203 23.5434 7.80465 24.6524 9.51889Z" fill="#83BF6E"/>
<path d="M24.6469 12.543C25.1978 12.543 25.645 12.9886 25.6469 13.5396L25.6668 19.4266C25.6668 22.8683 22.8668 25.6683 19.4252 25.6683H8.57516C5.1335 25.6683 2.3335 22.8683 2.3335 19.4266V13.5433C2.3335 12.991 2.7812 12.5433 3.33348 12.5433L24.6469 12.543Z" fill="#BBDCAF"/>
</svg>
