<svg width="28" height="28" viewBox="0 0 28 28" fill="none" xmlns="http://www.w3.org/2000/svg">
<path fill-rule="evenodd" clip-rule="evenodd" d="M6.99984 19.097V4.21036V3.20703C6.99984 2.7287 6.47095 2.33203 5.83317 2.33203C5.19539 2.33203 4.6665 2.7287 4.6665 3.20703V24.7904C4.6665 25.2687 5.19539 25.6654 5.83317 25.6654C6.47095 25.6654 6.99984 25.2687 6.99984 24.7904V19.097Z" fill="#4A86F7"/>
<path d="M19.3979 12.8968L20.7855 14.2354C21.9457 15.3655 22.3779 16.4517 22.0025 17.3184C21.6272 18.1852 20.5239 18.668 18.886 18.668H7V4.66797H18.886C20.5466 4.66797 21.6727 5.13976 22.0367 5.99556C22.412 6.86233 21.9684 7.9595 20.7855 9.10057L19.4206 10.4172C19.0453 10.7793 18.8405 11.273 18.8633 11.7667C18.8746 12.2166 19.068 12.6225 19.3979 12.8968Z" fill="#A3C2FB"/>
</svg>
