<svg width="28" height="28" viewBox="0 0 28 28" fill="none" xmlns="http://www.w3.org/2000/svg">
<path d="M21.875 9.33203V11.782C21.3617 11.712 20.7783 11.677 20.125 11.6654V9.33203C20.125 5.65703 19.0867 3.20703 14 3.20703C8.91333 3.20703 7.875 5.65703 7.875 9.33203V11.6654C7.22167 11.677 6.63833 11.712 6.125 11.782V9.33203C6.125 5.9487 6.94167 1.45703 14 1.45703C21.0583 1.45703 21.875 5.9487 21.875 9.33203Z" fill="#F2A84C"/>
<path d="M21.8752 11.7846C21.3618 11.7146 20.7785 11.6796 20.1252 11.668H7.87516C7.22183 11.6796 6.6385 11.7146 6.12516 11.7846C3.15016 12.1463 2.3335 13.6046 2.3335 17.5013V19.8346C2.3335 24.5013 3.50016 25.668 8.16683 25.668H19.8335C24.5002 25.668 25.6668 24.5013 25.6668 19.8346V17.5013C25.6668 13.6046 24.8502 12.1463 21.8752 11.7846ZM10.1618 19.4963C9.94016 19.7063 9.63683 19.8346 9.3335 19.8346C9.18183 19.8346 9.03016 19.7996 8.89016 19.7413C8.7385 19.683 8.62183 19.6013 8.50516 19.4963C8.29516 19.2746 8.16683 18.9713 8.16683 18.668C8.16683 18.5163 8.20183 18.3646 8.26016 18.2246C8.3185 18.0846 8.40016 17.9563 8.50516 17.8396C8.62183 17.7346 8.7385 17.653 8.89016 17.5946C9.32183 17.408 9.83516 17.513 10.1618 17.8396C10.2668 17.9563 10.3485 18.0846 10.4068 18.2246C10.4652 18.3646 10.5002 18.5163 10.5002 18.668C10.5002 18.9713 10.3718 19.2746 10.1618 19.4963ZM15.0735 19.1113C15.0152 19.2513 14.9335 19.3796 14.8285 19.4963C14.6068 19.7063 14.3035 19.8346 14.0002 19.8346C13.6852 19.8346 13.3935 19.7063 13.1718 19.4963C13.0668 19.3796 12.9852 19.2513 12.9268 19.1113C12.8685 18.9713 12.8335 18.8196 12.8335 18.668C12.8335 18.353 12.9618 18.0613 13.1718 17.8396C13.6035 17.408 14.3852 17.408 14.8285 17.8396C15.0385 18.0613 15.1668 18.353 15.1668 18.668C15.1668 18.8196 15.1318 18.9713 15.0735 19.1113ZM19.4952 19.4963C19.2735 19.7063 18.9702 19.8346 18.6668 19.8346C18.3635 19.8346 18.0602 19.7063 17.8385 19.4963C17.6285 19.2746 17.5002 18.983 17.5002 18.668C17.5002 18.353 17.6285 18.0613 17.8385 17.8396C18.2818 17.408 19.0635 17.408 19.4952 17.8396C19.5418 17.898 19.5885 17.9563 19.6352 18.0263C19.6818 18.0846 19.7168 18.1546 19.7402 18.2246C19.7752 18.2946 19.7985 18.3646 19.8102 18.4346C19.8218 18.5163 19.8335 18.598 19.8335 18.668C19.8335 18.9713 19.7052 19.2746 19.4952 19.4963Z" fill="#F8CF9C"/>
</svg>
