<svg width="28" height="28" viewBox="0 0 28 28" fill="none" xmlns="http://www.w3.org/2000/svg">
<path d="M18.6551 2.10156H8.87843C4.63176 2.10156 2.1001 4.63323 2.1001 8.8799V18.6566C2.1001 22.9032 4.63176 25.4349 8.87843 25.4349H18.6551C22.9018 25.4349 25.4334 22.9032 25.4334 18.6566V8.8799C25.4334 4.63323 22.9018 2.10156 18.6551 2.10156ZM11.3984 17.1516L8.77343 19.7766C8.59843 19.9516 8.37677 20.0332 8.1551 20.0332C7.93343 20.0332 7.7001 19.9516 7.53677 19.7766L6.66176 18.9016C6.31176 18.5632 6.31176 18.0032 6.66176 17.6649C7.0001 17.3266 7.54843 17.3266 7.89843 17.6649L8.1551 17.9216L10.1618 15.9149C10.5001 15.5766 11.0484 15.5766 11.3984 15.9149C11.7368 16.2532 11.7368 16.8132 11.3984 17.1516ZM11.3984 8.9849L8.77343 11.6099C8.59843 11.7849 8.37677 11.8666 8.1551 11.8666C7.93343 11.8666 7.7001 11.7849 7.53677 11.6099L6.66176 10.7349C6.31176 10.3966 6.31176 9.83656 6.66176 9.49823C7.0001 9.1599 7.54843 9.1599 7.89843 9.49823L8.1551 9.7549L10.1618 7.74823C10.5001 7.4099 11.0484 7.4099 11.3984 7.74823C11.7368 8.08656 11.7368 8.64656 11.3984 8.9849ZM20.2534 19.1582H14.1284C13.6501 19.1582 13.2534 18.7616 13.2534 18.2832C13.2534 17.8049 13.6501 17.4082 14.1284 17.4082H20.2534C20.7434 17.4082 21.1284 17.8049 21.1284 18.2832C21.1284 18.7616 20.7434 19.1582 20.2534 19.1582ZM20.2534 10.9916H14.1284C13.6501 10.9916 13.2534 10.5949 13.2534 10.1166C13.2534 9.63823 13.6501 9.24156 14.1284 9.24156H20.2534C20.7434 9.24156 21.1284 9.63823 21.1284 10.1166C21.1284 10.5949 20.7434 10.9916 20.2534 10.9916Z" fill="#57B6F0"/>
</svg>
