<svg width="28" height="28" viewBox="0 0 28 28" fill="none" xmlns="http://www.w3.org/2000/svg">
<path d="M14.0002 2.33203C7.57183 2.33203 2.3335 7.57036 2.3335 13.9987C2.3335 20.427 7.57183 25.6654 14.0002 25.6654C20.4285 25.6654 25.6668 20.427 25.6668 13.9987C25.6668 7.57036 20.4285 2.33203 14.0002 2.33203ZM19.0752 18.1637C18.9118 18.4437 18.6202 18.5954 18.3168 18.5954C18.1652 18.5954 18.0135 18.5604 17.8735 18.467L14.2568 16.3087C13.3585 15.772 12.6935 14.5937 12.6935 13.5554V8.77203C12.6935 8.2937 13.0902 7.89703 13.5685 7.89703C14.0468 7.89703 14.4435 8.2937 14.4435 8.77203V13.5554C14.4435 13.9754 14.7935 14.5937 15.1552 14.8037L18.7718 16.962C19.1918 17.207 19.3318 17.7437 19.0752 18.1637Z" fill="#57B6F0"/>
</svg>
