<svg width="745" height="561" viewBox="0 0 745 561" fill="none" xmlns="http://www.w3.org/2000/svg">
<path d="M88.7005 104.734H1.03516V170.401H88.7005V104.734Z" fill="#BBDCAF"/>
<path d="M88.7005 186.902H1.03516V252.569H88.7005V186.902Z" fill="#F4BCC9"/>
<path d="M88.7005 269.07H1.03516V334.737H88.7005V269.07Z" fill="#ABDAF7"/>
<path d="M283.342 448.47C322.582 448.47 354.392 416.66 354.392 377.421C354.392 338.181 322.582 306.371 283.342 306.371C244.103 306.371 212.293 338.181 212.293 377.421C212.293 416.66 244.103 448.47 283.342 448.47Z" fill="#BBDCAF"/>
<path d="M283.117 377.421L295.116 307.396C291.213 306.733 287.206 306.371 283.117 306.371C253.136 306.371 227.513 324.944 217.078 351.208L283.117 377.421Z" fill="#83BF6E"/>
<path d="M283.34 400.475C296.073 400.475 306.395 390.153 306.395 377.42C306.395 364.687 296.073 354.365 283.34 354.365C270.607 354.365 260.285 364.687 260.285 377.42C260.285 390.153 270.607 400.475 283.34 400.475Z" fill="url(#paint0_linear_2698_109813)"/>
<path d="M595.23 61.9895H0V41.3672H595.23V61.9895ZM2.07051 59.919H593.159V43.4377H2.07051V59.919Z" fill="#FEF6ED"/>
<path d="M390.142 275.645H119.195V112.271H121.266V273.574H390.142V275.645Z" fill="#FEF6ED"/>
<path d="M346 239.607H128V241.678H346V239.607Z" fill="#FEF6ED"/>
<path d="M390.147 210.549H128V212.619H390.147V210.549Z" fill="#FEF6ED"/>
<path d="M390.147 181.498H128V183.569H390.147V181.498Z" fill="#FEF6ED"/>
<path d="M390.147 152.439H128V154.51H390.147V152.439Z" fill="#FEF6ED"/>
<path d="M186.516 112.271H184.445V269.061H186.516V112.271Z" fill="#FEF6ED"/>
<path d="M249.051 112.271H246.98V269.061H249.051V112.271Z" fill="#FEF6ED"/>
<path d="M313.485 112.271H311.414V269.061H313.485V112.271Z" fill="#FEF6ED"/>
<path d="M375.641 112.271H373.57V232H375.641V112.271Z" fill="#FEF6ED"/>
<path d="M355.574 258.201L355.578 258.203C355.925 258.368 356.3 258.455 356.681 258.455C357.619 258.455 358.537 257.929 358.98 256.999C359.592 255.736 359.062 254.206 357.788 253.594C357.788 253.593 357.787 253.593 357.787 253.593L316.13 233.479L315.988 233.41L315.831 233.389L315.614 233.359C314.627 233.202 278.436 227.597 262.609 225.931L262.609 225.931C258.264 225.475 252.354 222.746 245.749 218.884C239.209 215.061 232.141 210.221 225.474 205.656L225.396 205.603L225.396 205.603L225.347 205.569C220.72 202.4 216.202 199.306 212.126 196.744C208.05 194.182 204.353 192.11 201.393 191.036C186.437 185.594 172.004 189.447 155.081 194.864L155.081 194.864C146.906 197.482 139.913 196.627 134.946 195.111C130.001 193.601 127.077 191.438 127.04 191.411C127.04 191.411 127.04 191.411 127.04 191.411L127.04 191.411L127.034 191.406C125.921 190.563 124.32 190.756 123.461 191.886C122.612 192.994 122.813 194.606 123.939 195.462C124.606 195.974 137.773 205.773 156.644 199.73L156.644 199.73C175.801 193.592 187.516 191.426 199.654 195.835L199.654 195.835C202.21 196.763 205.62 198.673 209.58 201.172C213.502 203.647 217.895 206.655 222.436 209.765L222.516 209.82L222.517 209.82L222.543 209.838C229.366 214.512 236.679 219.523 243.532 223.495C250.361 227.452 256.879 230.469 262.078 231.016C277.037 232.595 310.527 237.748 314.463 238.358L355.574 258.201Z" fill="#E79CAD" stroke="#E79CAD" stroke-width="2"/>
<path d="M352.631 221.698L352.631 221.698C351.34 220.366 349.096 219.191 346.021 218.177C342.972 217.171 339.222 216.359 335.032 215.683C326.68 214.336 316.711 213.547 307.303 212.803L307.202 212.795L306.966 212.777C300.192 212.24 293.581 211.717 287.916 210.999C282.215 210.278 277.348 209.347 274.212 207.95C271.047 206.542 266.434 203.421 260.937 199.337C255.416 195.234 248.92 190.094 241.967 184.589L241.879 184.52C232.589 177.166 222.708 169.345 213.435 162.61C204.117 155.843 195.478 150.222 188.706 147.266C176.927 142.126 160.236 138.833 146.366 136.824C139.445 135.821 133.251 135.141 128.761 134.711C126.517 134.496 124.699 134.344 123.429 134.244C122.794 134.195 122.297 134.158 121.952 134.134C121.779 134.122 121.645 134.113 121.551 134.106L121.442 134.099C121.421 134.098 121.41 134.098 121.406 134.097C121.405 134.097 121.404 134.097 121.405 134.097L121.392 134.097L121.392 134.097C119.973 134.011 118.92 132.794 119.005 131.392C119.09 129.969 120.321 128.92 121.71 129.005L121.712 129.005L121.712 129.005C122.627 129.063 133.752 129.79 147.7 131.832C161.625 133.871 178.46 137.235 190.748 142.596L190.749 142.597C197.915 145.728 206.838 151.535 216.275 158.376C225.725 165.227 235.753 173.163 245.134 180.588L245.176 180.622C252.038 186.052 258.415 191.1 263.794 195.109C269.211 199.147 273.527 202.065 276.277 203.286C278.868 204.435 283.277 205.282 288.829 205.971C294.338 206.656 300.843 207.171 307.569 207.704L307.597 207.706L307.598 207.706L307.649 207.71C317.796 208.51 328.172 209.328 336.847 210.809C341.194 211.551 345.147 212.464 348.451 213.638C351.739 214.807 354.471 216.263 356.293 218.142L366.962 229.142C366.963 229.143 366.964 229.145 366.966 229.146C367.959 230.16 367.911 231.772 366.921 232.748C366.425 233.242 365.785 233.483 365.141 233.483C364.478 233.483 363.811 233.226 363.305 232.703L352.631 221.698ZM352.631 221.698L363.304 232.702L352.631 221.698Z" fill="#57B6F0" stroke="#57B6F0" stroke-width="2"/>
<path d="M699.664 329.965L624.152 354.956L590.186 363.891L536.301 264.817C528.101 249.743 509.249 244.174 494.176 252.373C479.103 260.572 473.533 279.424 481.732 294.497L539.945 401.532C545.473 411.709 554.552 427.817 584.243 427.817C586.862 427.817 589.523 427.486 592.153 426.793L663.057 408.945C671.94 407.123 686.123 405.29 704.146 406.553C726.839 408.137 744.998 426.296 744.998 426.296L699.664 329.965Z" fill="#FADD6F"/>
<path d="M591.483 250.272C587.673 238.925 577.694 231.409 566.544 230.167C574.702 222.454 578.128 210.435 574.319 199.089C569.101 183.518 552.247 175.133 536.677 180.35L417.85 220.208C402.28 225.425 393.894 242.279 399.112 257.85C402.922 269.196 412.902 276.712 424.051 277.954C415.894 285.667 412.467 297.686 416.277 309.033C421.494 324.603 438.348 332.988 453.919 327.771L572.745 287.913C588.315 282.696 596.711 265.842 591.483 250.272Z" fill="url(#paint1_linear_2698_109813)"/>
<path d="M505.892 135.492L454.008 102.1L420.615 153.984L472.5 187.377L505.892 135.492Z" fill="#FAA284"/>
<path d="M451.032 97.1669C455.754 97.1669 459.583 93.3384 459.583 88.6157C459.583 83.893 455.754 80.0645 451.032 80.0645C446.309 80.0645 442.48 83.893 442.48 88.6157C442.48 93.3384 446.309 97.1669 451.032 97.1669Z" fill="#F2A84C"/>
<path d="M58.326 292.748H31.0781V319.996H58.326V292.748Z" fill="#57B6F0"/>
<path d="M44.9013 154.644C37.375 154.644 31.2773 148.547 31.2773 141.02C31.2773 133.494 37.375 127.396 44.9013 127.396C52.4276 127.396 58.5252 133.494 58.5252 141.02C58.5252 148.536 52.4276 154.644 44.9013 154.644Z" fill="#83BF6E"/>
<path d="M44.7028 209.928L29.1016 236.948H60.3041L44.7028 209.928Z" fill="url(#paint2_linear_2698_109813)"/>
<path d="M362.961 468.162H256.102V477.055H362.961V468.162Z" fill="white"/>
<path d="M363.995 478.1H197.723V467.137H363.995V478.1ZM199.793 476.03H361.924V469.207H199.793V476.03Z" fill="#FEF6ED"/>
<path d="M121.039 104.207C114.672 104.207 109.496 99.031 109.496 92.6642C109.496 86.2974 114.672 81.1211 121.039 81.1211C127.406 81.1211 132.582 86.2974 132.582 92.6642C132.582 99.0206 127.406 104.207 121.039 104.207ZM121.039 83.1812C115.811 83.1812 111.567 87.4361 111.567 92.6538C111.567 97.8715 115.822 102.126 121.039 102.126C126.257 102.126 130.512 97.8819 130.512 92.6538C130.512 87.4258 126.257 83.1812 121.039 83.1812Z" fill="#FEF6ED"/>
<path d="M496.923 27.1942C489.479 27.1942 483.434 21.1379 483.434 13.7048C483.434 6.27167 489.479 0.205078 496.923 0.205078C504.366 0.205078 510.412 6.26132 510.412 13.6944C510.412 21.1276 504.366 27.1942 496.923 27.1942ZM496.923 2.27559C490.629 2.27559 485.504 7.4001 485.504 13.6944C485.504 19.9888 490.629 25.1133 496.923 25.1133C503.217 25.1133 508.342 19.9888 508.342 13.6944C508.342 7.4001 503.217 2.27559 496.923 2.27559Z" fill="#FEF6ED"/>
<path d="M538.86 27.1942C531.417 27.1942 525.371 21.1379 525.371 13.7048C525.371 6.27167 531.427 0.205078 538.86 0.205078C546.294 0.205078 552.35 6.26132 552.35 13.6944C552.35 21.1276 546.304 27.1942 538.86 27.1942ZM538.86 2.27559C532.566 2.27559 527.442 7.4001 527.442 13.6944C527.442 19.9888 532.566 25.1133 538.86 25.1133C545.155 25.1133 550.279 19.9888 550.279 13.6944C550.279 7.4001 545.165 2.27559 538.86 2.27559Z" fill="#FEF6ED"/>
<path d="M581.743 27.1942C574.3 27.1942 568.254 21.1379 568.254 13.7048C568.254 6.27167 574.3 0.205078 581.743 0.205078C589.187 0.205078 595.233 6.26132 595.233 13.6944C595.233 21.1276 589.187 27.1942 581.743 27.1942ZM581.743 2.27559C575.449 2.27559 570.324 7.4001 570.324 13.6944C570.324 19.9888 575.449 25.1133 581.743 25.1133C588.038 25.1133 593.162 19.9888 593.162 13.6944C593.162 7.4001 588.038 2.27559 581.743 2.27559Z" fill="#FEF6ED"/>
<g opacity="0.28">
<path d="M552.555 294.693C552.555 294.693 546.24 364.438 544.501 409.161L513.143 352.233L511.59 307.965L528.04 302.913L552.555 294.693Z" fill="#E0704A"/>
</g>
<path opacity="0.54" d="M590.188 363.89L565.383 369.77L581.709 348.299L590.188 363.89Z" fill="#E0704A"/>
<path d="M557.802 291.154C555.98 286.154 575.433 279.073 573.611 274.072C571.789 269.072 552.336 276.164 550.514 271.163C548.692 266.163 568.144 259.082 566.333 254.082C564.511 249.081 545.058 256.173 543.236 251.172C541.414 246.172 560.867 239.091 559.055 234.091C557.233 229.091 537.78 236.182 535.958 231.182C534.136 226.181 553.589 219.1 551.777 214.1C549.955 209.1 530.503 216.191 528.681 211.191C526.859 206.191 546.311 199.11 544.499 194.109C542.677 189.109 523.225 196.2 521.403 191.2C520.523 188.778 524.622 185.879 528.888 182.949L437.827 213.489C433.406 217.899 422.246 222.982 423.644 226.823C425.466 231.824 444.918 224.732 446.74 229.732C448.562 234.733 429.11 241.814 430.932 246.814C432.754 251.814 452.206 244.723 454.028 249.723C455.85 254.723 436.398 261.805 438.21 266.805C440.032 271.805 459.484 264.714 461.306 269.714C463.128 274.714 443.676 281.795 445.488 286.796C447.31 291.796 466.762 284.704 468.584 289.705C470.406 294.705 450.954 301.786 452.765 306.786C454.587 311.787 474.04 304.695 475.862 309.695C477.56 314.354 460.747 320.835 459.96 325.742L559.179 292.458C558.506 292.189 558.02 291.765 557.802 291.154Z" fill="#4A86F7"/>
<path d="M483.55 230.642C480.165 219.42 468.322 213.064 457.099 216.459L375.004 241.233L309.824 209.409C308.944 208.974 308.044 208.643 307.143 208.343L276.065 191.365C273.435 189.926 270.143 190.899 268.704 193.528C267.265 196.158 268.238 199.45 270.868 200.889L279.201 205.444C277.814 205.817 276.572 206.717 275.837 208.074C274.398 210.703 275.371 213.995 278 215.434C275.371 213.995 272.079 214.968 270.64 217.598C269.201 220.228 270.174 223.52 272.803 224.959C270.174 223.52 266.882 224.493 265.443 227.122C264.004 229.752 264.977 233.044 267.606 234.483L288.291 245.788C289.212 246.44 290.185 247.051 291.241 247.558L294.057 248.935L294.43 249.132C294.533 249.194 294.647 249.215 294.751 249.266L363.906 283.026C366.825 284.455 370.014 285.179 373.213 285.179C375.273 285.179 377.343 284.879 379.342 284.279L469.409 257.103C480.589 253.708 486.946 241.864 483.55 230.642Z" fill="#F6BF7C"/>
<path d="M594.192 464.361L564.418 444.784L497.271 398.508L534.872 313.71C542.377 298.285 535.959 279.702 520.533 272.197C505.108 264.691 486.525 271.11 479.02 286.535L438.469 374.822C431.926 388.27 425.559 416.791 445.757 434.193L526.952 494.342C526.952 494.342 531.217 497.499 542.522 512.459C553.827 527.418 542.522 560.546 542.522 560.546L594.192 464.361Z" fill="#FADD6F"/>
<path opacity="0.54" d="M497.284 398.509L476.145 388.654C476.145 388.654 492.584 390.724 508.683 372.814L497.284 398.509Z" fill="#E0704A"/>
<path d="M80.6973 114.766H8.69531V116.836H80.6973V114.766Z" fill="white"/>
<path d="M80.6973 194.367H8.69531V196.438H80.6973V194.367Z" fill="white"/>
<path d="M80.6973 280.055H8.69531V282.125H80.6973V280.055Z" fill="white"/>
<path d="M493.029 154.075C493.029 151.88 494.623 150.079 496.715 149.737L505.866 135.513L482.583 120.532C481.776 121.464 480.596 122.065 479.271 122.065C476.827 122.065 474.85 120.087 474.85 117.644C474.85 116.992 475.005 116.371 475.254 115.812L453.979 102.115L449.041 109.786C449.538 110.501 449.828 111.36 449.828 112.292C449.828 114.735 447.851 116.712 445.407 116.712C445.138 116.712 444.89 116.681 444.631 116.629L420.582 153.992L472.459 187.389L493.174 155.213C493.091 154.841 493.029 154.468 493.029 154.075ZM431.939 158.485C429.496 158.485 427.518 156.507 427.518 154.064C427.518 151.621 429.496 149.644 431.939 149.644C434.382 149.644 436.359 151.621 436.359 154.064C436.359 156.507 434.382 158.485 431.939 158.485ZM463.234 132.893C463.234 130.45 465.212 128.473 467.655 128.473C470.098 128.473 472.076 130.45 472.076 132.893C472.076 135.337 470.098 137.314 467.655 137.314C465.212 137.314 463.234 135.337 463.234 132.893ZM469.001 175.018C466.558 175.018 464.58 173.041 464.58 170.597C464.58 168.154 466.558 166.177 469.001 166.177C471.444 166.177 473.421 168.154 473.421 170.597C473.411 173.041 471.434 175.018 469.001 175.018ZM481.3 154.841C478.856 154.841 476.879 152.863 476.879 150.42C476.879 147.977 478.856 146 481.3 146C483.743 146 485.72 147.977 485.72 150.42C485.72 152.863 483.743 154.841 481.3 154.841Z" fill="url(#paint3_linear_2698_109813)"/>
<defs>
<linearGradient id="paint0_linear_2698_109813" x1="253.109" y1="347.191" x2="316.808" y2="367.044" gradientUnits="userSpaceOnUse">
<stop offset="0.0312411" stop-color="#73BC78"/>
<stop offset="1" stop-color="#438A62"/>
</linearGradient>
<linearGradient id="paint1_linear_2698_109813" x1="375.816" y1="31.6951" x2="696.168" y2="288.165" gradientUnits="userSpaceOnUse">
<stop stop-color="#4A86F7"/>
<stop offset="1" stop-color="#2448B1"/>
</linearGradient>
<linearGradient id="paint2_linear_2698_109813" x1="24.2457" y1="206.538" x2="71.4886" y2="234.68" gradientUnits="userSpaceOnUse">
<stop stop-color="#E283AE"/>
<stop offset="1" stop-color="#D94841"/>
</linearGradient>
<linearGradient id="paint3_linear_2698_109813" x1="407.31" y1="91.4182" x2="545.481" y2="162.701" gradientUnits="userSpaceOnUse">
<stop stop-color="#E283AE"/>
<stop offset="1" stop-color="#D94841"/>
</linearGradient>
</defs>
</svg>
