<svg width="1845" height="941" viewBox="0 0 1845 941" fill="none" xmlns="http://www.w3.org/2000/svg">
<path d="M704.844 735.738C705.664 736.476 706.928 736.411 707.667 735.591L711.507 731.335C712.235 730.527 712.185 729.286 711.394 728.54L707.762 725.116C706.947 724.347 706.922 723.059 707.707 722.26L710.644 719.266C711.72 718.17 711.21 716.32 709.723 715.931L687.36 710.077C685.868 709.686 684.514 711.059 684.926 712.545L690.832 733.884C691.253 735.406 693.19 735.862 694.247 734.687L697.127 731.483C697.866 730.661 699.131 730.594 699.953 731.334L704.844 735.738Z" fill="white"/>
<g opacity="0.1" filter="url(#filter0_f_3510_45081)">
<ellipse cx="409" cy="167" rx="313" ry="189" fill="white"/>
</g>
<g opacity="0.05" filter="url(#filter1_f_3510_45081)">
<ellipse cx="226.425" cy="187.124" rx="189.513" ry="114.435" transform="rotate(-16.7213 226.425 187.124)" fill="white"/>
</g>
<circle opacity="0.5" cx="103.646" cy="480.227" r="6" fill="white"/>
<circle opacity="0.5" r="6" transform="matrix(1 0 0 -1 1838.64 238)" fill="white"/>
<circle opacity="0.5" cx="960" cy="115" r="5" fill="white"/>
<rect opacity="0.1" x="67.7119" y="338" width="20" height="20" rx="4" transform="rotate(25.8233 67.7119 338)" fill="white"/>
<rect opacity="0.1" width="20" height="20" rx="4" transform="matrix(0.900142 -0.435598 -0.435598 -0.900142 1802.71 380.227)" fill="white"/>
<g opacity="0.6" filter="url(#filter2_f_3510_45081)">
<rect x="72.6846" y="767.719" width="77.5687" height="77.5687" rx="20" transform="rotate(135.915 72.6846 767.719)" fill="#BBDCAF"/>
</g>
<path opacity="0.05" d="M1128.35 845.83C1135.36 847.617 1141.69 851.445 1146.53 856.828C1151.38 862.212 1154.51 868.911 1155.55 876.077C1156.58 883.243 1155.47 890.555 1152.35 897.088C1149.23 903.621 1144.24 909.082 1138.01 912.78C1131.79 916.478 1124.61 918.247 1117.37 917.864C1110.14 917.481 1103.19 914.962 1097.39 910.627C1091.59 906.291 1087.21 900.334 1084.79 893.507C1082.38 886.681 1082.04 879.292 1083.83 872.276C1086.24 862.872 1092.27 854.806 1100.62 849.848C1108.96 844.89 1118.94 843.445 1128.35 845.83ZM1131.35 834.035C1122 831.654 1112.15 832.099 1103.05 835.314C1093.96 838.528 1086.02 844.369 1080.24 852.096C1074.46 859.823 1071.11 869.089 1070.6 878.724C1070.08 888.358 1072.44 897.928 1077.37 906.223C1082.3 914.517 1089.58 921.164 1098.28 925.323C1106.99 929.482 1116.74 930.965 1126.29 929.586C1135.84 928.207 1144.76 924.028 1151.94 917.576C1159.11 911.124 1164.21 902.69 1166.59 893.34C1169.78 880.803 1167.86 867.512 1161.25 856.39C1154.64 845.269 1143.89 837.227 1131.35 834.035Z" fill="white"/>
<path opacity="0.05" d="M976.75 811.571C974.463 813.004 971.957 814.053 969.331 814.677C953.783 818.359 937.535 806.149 933.115 787.467C930.992 778.5 931.861 769.349 935.594 761.752C939.387 753.983 945.673 748.713 953.288 746.907C960.904 745.102 968.882 747 975.76 752.239C982.497 757.377 987.379 765.146 989.505 774.117C991.628 783.084 990.759 792.235 987.026 799.832C984.769 804.631 981.208 808.699 976.75 811.571ZM948.303 753.882C944.567 756.302 941.584 759.723 939.695 763.754C936.438 770.425 935.691 778.493 937.559 786.413C941.404 802.648 955.182 813.329 968.275 810.228C974.537 808.748 979.738 804.346 982.922 797.826C986.182 791.159 986.937 783.113 985.058 775.167L987.281 774.642L985.058 775.167C983.177 767.226 978.89 760.371 972.978 755.877C967.212 751.482 960.592 749.878 954.33 751.359C952.197 751.865 950.161 752.718 948.303 753.882Z" fill="white"/>
<defs>
<filter id="filter0_f_3510_45081" x="-104" y="-222" width="1026" height="778" filterUnits="userSpaceOnUse" color-interpolation-filters="sRGB">
<feFlood flood-opacity="0" result="BackgroundImageFix"/>
<feBlend mode="normal" in="SourceGraphic" in2="BackgroundImageFix" result="shape"/>
<feGaussianBlur stdDeviation="100" result="effect1_foregroundBlur_3510_45081"/>
</filter>
<filter id="filter1_f_3510_45081" x="-158.069" y="-135.312" width="768.987" height="644.875" filterUnits="userSpaceOnUse" color-interpolation-filters="sRGB">
<feFlood flood-opacity="0" result="BackgroundImageFix"/>
<feBlend mode="normal" in="SourceGraphic" in2="BackgroundImageFix" result="shape"/>
<feGaussianBlur stdDeviation="100" result="effect1_foregroundBlur_3510_45081"/>
</filter>
<filter id="filter2_f_3510_45081" x="-45.7197" y="703.281" width="127.124" height="127.123" filterUnits="userSpaceOnUse" color-interpolation-filters="sRGB">
<feFlood flood-opacity="0" result="BackgroundImageFix"/>
<feBlend mode="normal" in="SourceGraphic" in2="BackgroundImageFix" result="shape"/>
<feGaussianBlur stdDeviation="8.5" result="effect1_foregroundBlur_3510_45081"/>
</filter>
</defs>
</svg>
