<svg width="127" height="57" viewBox="0 0 127 57" fill="none" xmlns="http://www.w3.org/2000/svg">
<g opacity="0.3">
<path d="M64.915 11.3394C62.4454 11.2246 60.1481 11.9137 57.7933 12.4881C47.6851 15.0726 39.185 20.4138 31.489 27.3058C26.3201 31.9004 21.668 36.8971 17.1882 42.1235C16.7862 42.583 16.3842 43.0999 15.7524 43.3296C15.0632 43.5593 14.5463 43.5019 14.8909 42.5829C14.9483 42.3532 15.2929 42.1235 14.8335 42.0086C13.3402 41.5491 13.7422 40.4579 14.0294 39.4815C14.5463 37.6437 15.7524 36.1505 16.8436 34.6572C19.8301 30.4072 22.989 26.2145 26.6072 22.5388C29.9958 19.0929 33.8438 16.1638 37.8066 13.4071C40.3337 11.6266 42.8607 9.84616 45.8473 9.0421C47.8 8.5252 49.4081 7.31911 51.3034 6.74478C54.9791 5.71099 58.6548 4.67725 62.4454 4.50496C65.6042 4.33266 68.5907 4.96442 71.2901 6.51511C72.209 7.03201 73.0705 7.08939 73.9894 6.68736C76.459 5.65357 78.986 4.73465 81.4557 3.81572C85.5334 2.32246 89.8409 1.51842 94.0909 0.886654C100.925 -0.147141 107.817 -0.434303 114.652 0.886654C118.672 1.69072 122.578 2.72451 125.622 5.76845C126.426 6.57251 127 7.43401 127 8.6401C127 9.15699 126.828 9.55904 126.311 9.73134C125.736 9.96107 125.679 9.55904 125.392 9.15701C123.497 6.51509 120.51 6.17045 117.638 5.59613C109.77 3.988 101.959 4.73466 94.1483 6.05561C88.1753 7.08941 82.3746 8.69752 76.7462 10.9948C76.2867 11.1671 75.7124 11.1672 76.057 12.0287C77.3779 14.9577 77.1482 17.9443 76.1144 20.8733C74.5063 25.3531 71.8644 29.0288 66.9826 30.4072C64.3981 31.1538 62.6177 30.2923 61.1244 28.1099C57.219 22.424 59.344 16.3361 63.8238 12.6604C64.2258 12.3158 64.6278 12.0287 65.0299 11.6841C64.9724 11.6266 64.915 11.4543 64.915 11.3394ZM62.9623 23.6301C62.9623 25.1233 63.8812 24.951 64.8001 24.8362C67.7866 24.3767 69.3373 22.0794 70.7732 19.8395C71.8069 18.2314 72.7259 16.3936 72.7833 14.326C72.7833 13.5219 72.611 12.9476 71.5772 13.4645C68.8205 15.0152 66.3508 16.853 64.5704 19.4949C63.6514 20.7585 63.0772 22.1368 62.9623 23.6301ZM53.5433 11.9137C57.3339 11.0523 61.067 10.0185 64.915 9.55901C60.8947 9.21441 57.1616 10.4779 53.5433 11.9137ZM75.7124 10.2482C78.8712 9.09959 82.0874 7.95093 85.2462 6.80227C81.8577 7.43403 78.6989 8.58269 75.7124 10.2482Z" fill="white"/>
<path d="M8.28463 37.5867C8.22719 40.8604 7.59545 44.0192 7.07855 47.178C7.02112 47.6374 6.67655 48.1543 7.25088 48.6138C7.8252 49.0158 8.28467 48.6138 8.6867 48.3266C10.8117 46.9482 13.2239 46.2591 15.5212 45.2827C16.9571 44.651 18.3354 43.7894 19.8861 43.2151C22.2409 42.3536 24.5382 41.2624 26.7781 40.2286C27.9267 39.7117 29.3051 39.7117 30.2815 38.7354C31.2578 37.759 32.349 38.0461 33.5551 39.7117C34.1869 40.5732 34.4166 41.6644 33.3829 42.4685C32.5214 43.1003 31.6024 43.732 30.626 44.1915C24.1361 47.3503 17.6462 50.4517 11.2138 53.6105C9.77794 54.2997 8.3421 55.1038 6.96371 55.9078C4.37923 57.3436 3.28798 56.9416 1.90958 54.2997C0.818359 52.2895 0.760971 50.2793 1.45016 48.0969C2.82855 43.9617 4.09206 39.7691 4.66639 35.4042C4.78126 34.5427 4.78122 33.6238 4.83865 32.7623C4.95352 31.7285 5.41298 31.4988 6.27447 32.0732C8.22719 33.3941 8.39949 33.8536 8.28463 37.5867ZM14.6022 50.4517C11.5583 51.428 8.6867 52.7489 6.10222 54.7017C8.91643 53.2658 11.788 51.8875 14.6022 50.4517Z" fill="white"/>
</g>
</svg>
