<svg width="32" height="32" viewBox="0 0 32 32" fill="none" xmlns="http://www.w3.org/2000/svg">
<path fill-rule="evenodd" clip-rule="evenodd" d="M20.7863 3.66602C17.561 3.66602 14.9463 6.28068 14.9463 9.50602C14.9463 12.7314 17.5609 15.346 20.7863 15.346C24.0116 15.346 26.6263 12.7314 26.6263 9.50602C26.6263 6.28068 24.0116 3.66602 20.7863 3.66602ZM12.9463 9.50602C12.9463 5.17611 16.4564 1.66602 20.7863 1.66602C25.1162 1.66602 28.6263 5.17611 28.6263 9.50602C28.6263 13.8359 25.1162 17.346 20.7863 17.346C16.4564 17.346 12.9463 13.8359 12.9463 9.50602Z" fill="#E0704A"/>
<path fill-rule="evenodd" clip-rule="evenodd" d="M8.4797 18.7061C6.76394 18.7061 5.37305 20.097 5.37305 21.8127C5.37305 23.5285 6.76394 24.9194 8.4797 24.9194C10.1955 24.9194 11.5864 23.5285 11.5864 21.8127C11.5864 20.097 10.1955 18.7061 8.4797 18.7061ZM3.37305 21.8127C3.37305 18.9924 5.65936 16.7061 8.4797 16.7061C11.3 16.7061 13.5864 18.9924 13.5864 21.8127C13.5864 24.6331 11.3 26.9194 8.4797 26.9194C5.65936 26.9194 3.37305 24.6331 3.37305 21.8127Z" fill="#E0704A"/>
<path fill-rule="evenodd" clip-rule="evenodd" d="M22.1597 23.506C20.8268 23.506 19.7463 24.5865 19.7463 25.9194C19.7463 27.2522 20.8268 28.3327 22.1597 28.3327C23.4925 28.3327 24.573 27.2522 24.573 25.9194C24.573 24.5865 23.4925 23.506 22.1597 23.506ZM17.7463 25.9194C17.7463 23.4819 19.7223 21.506 22.1597 21.506C24.5971 21.506 26.573 23.4819 26.573 25.9194C26.573 28.3568 24.5971 30.3327 22.1597 30.3327C19.7223 30.3327 17.7463 28.3568 17.7463 25.9194Z" fill="#E0704A"/>
</svg>
