<svg width="32" height="32" viewBox="0 0 32 32" fill="none" xmlns="http://www.w3.org/2000/svg">
<path fill-rule="evenodd" clip-rule="evenodd" d="M9.66667 16.2664C9.66667 15.7141 10.1144 15.2664 10.6667 15.2664H20C20.5523 15.2664 21 15.7141 21 16.2664C21 16.8187 20.5523 17.2664 20 17.2664H10.6667C10.1144 17.2664 9.66667 16.8187 9.66667 16.2664Z" fill="#F2A84C"/>
<path fill-rule="evenodd" clip-rule="evenodd" d="M9.66667 21.5997C9.66667 21.0474 10.1144 20.5997 10.6667 20.5997H16.5067C17.059 20.5997 17.5067 21.0474 17.5067 21.5997C17.5067 22.152 17.059 22.5997 16.5067 22.5997H10.6667C10.1144 22.5997 9.66667 22.152 9.66667 21.5997Z" fill="#F2A84C"/>
<path fill-rule="evenodd" clip-rule="evenodd" d="M13.2384 1.66622C13.2712 1.66631 13.3028 1.6664 13.3333 1.6664H18.6667C18.6972 1.6664 18.7288 1.66631 18.7616 1.66622C19.3522 1.66454 20.296 1.66186 21.0547 2.16768C21.9671 2.77596 22.3333 3.86767 22.3333 5.33307C22.3333 5.36356 22.3334 5.39522 22.3335 5.42798C22.3352 6.01862 22.3379 6.96236 21.8321 7.7211C21.2238 8.63351 20.1321 8.99973 18.6667 8.99973H13.3333C13.3028 8.99973 13.2712 8.99982 13.2384 8.99992C12.6478 9.0016 11.704 9.00428 10.9453 8.49845C10.0329 7.89018 9.66667 6.79847 9.66667 5.33307C9.66667 3.86767 10.0329 2.77596 10.9453 2.16768C11.704 1.66186 12.6478 1.66454 13.2384 1.66622ZM12.0547 3.83178C11.9671 3.89018 11.6667 4.1318 11.6667 5.33307C11.6667 6.53434 11.9671 6.77596 12.0547 6.83435C12.2539 6.96714 12.5803 6.99973 13.3333 6.99973H18.6667C19.8679 6.99973 20.1096 6.69929 20.1679 6.6117C20.3007 6.41251 20.3333 6.08609 20.3333 5.33307C20.3333 4.1318 20.0329 3.89018 19.9453 3.83178C19.7461 3.69899 19.4197 3.6664 18.6667 3.6664H13.3333C12.5803 3.6664 12.2539 3.69899 12.0547 3.83178Z" fill="#F2A84C"/>
<path fill-rule="evenodd" clip-rule="evenodd" d="M11.6652 5.30576C11.695 5.85724 11.2721 6.32847 10.7206 6.35828C8.57912 6.47403 7.24444 6.92401 6.40286 7.83498C5.55013 8.75803 5 10.3741 5 13.3331V21.3331C5 23.982 5.34843 25.6412 6.25258 26.6746C7.12782 27.6748 8.75289 28.3331 12 28.3331H20C23.2471 28.3331 24.8722 27.6748 25.7474 26.6746C26.6516 25.6412 27 23.982 27 21.3331V13.3331C27 10.3668 26.4496 8.75146 25.5976 7.83048C24.7566 6.92138 23.4225 6.47412 21.2794 6.35828C20.7279 6.32847 20.305 5.85724 20.3348 5.30576C20.3646 4.75428 20.8358 4.33138 21.3873 4.36119C23.6841 4.48535 25.6834 4.97809 27.0657 6.47232C28.4371 7.95468 29 10.206 29 13.3331V21.3331C29 24.0174 28.6818 26.3582 27.2526 27.9916C25.7945 29.658 23.4196 30.3331 20 30.3331H12C8.58044 30.3331 6.20551 29.658 4.74742 27.9916C3.31824 26.3582 3 24.0174 3 21.3331V13.3331C3 10.212 3.5632 7.96144 4.9338 6.47783C6.31556 4.98213 8.31421 4.48543 10.6127 4.36119C11.1642 4.33138 11.6354 4.75428 11.6652 5.30576Z" fill="#F2A84C"/>
</svg>
