<svg width="72" height="72" viewBox="0 0 72 72" fill="none" xmlns="http://www.w3.org/2000/svg">
<rect width="72" height="72" rx="12" fill="#EDF3FE"/>
<path d="M41.9842 18.916C37.0342 18.916 33.0176 22.9327 33.0176 27.8827C33.0176 32.8327 37.0342 36.8494 41.9842 36.8494C46.9342 36.8494 50.9509 32.8327 50.9509 27.8827C50.9509 22.9327 46.9342 18.916 41.9842 18.916Z" fill="#4A86F7"/>
<path d="M26.6008 37.7168C23.5508 37.7168 21.0508 40.2001 21.0508 43.2668C21.0508 46.3335 23.5341 48.8168 26.6008 48.8168C29.6508 48.8168 32.1508 46.3335 32.1508 43.2668C32.1508 40.2001 29.6508 37.7168 26.6008 37.7168Z" fill="#A3C2FB"/>
<path d="M43.7009 43.6992C41.1176 43.6992 39.0176 45.7992 39.0176 48.3826C39.0176 50.9659 41.1176 53.0659 43.7009 53.0659C46.2842 53.0659 48.3842 50.9659 48.3842 48.3826C48.3842 45.7992 46.2842 43.6992 43.7009 43.6992Z" fill="#A3C2FB"/>
</svg>
