<svg width="72" height="72" viewBox="0 0 72 72" fill="none" xmlns="http://www.w3.org/2000/svg">
<rect width="72" height="72" rx="12" fill="#FBEDF0"/>
<path d="M36.0007 19.334C31.634 19.334 28.084 22.884 28.084 27.2507C28.084 31.534 31.434 35.0007 35.8007 35.1507C35.934 35.134 36.0673 35.134 36.1673 35.1507C36.2007 35.1507 36.2173 35.1507 36.2506 35.1507C36.2673 35.1507 36.2673 35.1507 36.284 35.1507C40.5506 35.0007 43.9006 31.534 43.9173 27.2507C43.9173 22.884 40.3673 19.334 36.0007 19.334Z" fill="#E79CAD"/>
<path d="M44.4676 39.5828C39.8176 36.4828 32.2342 36.4828 27.5509 39.5828C25.4342 40.9995 24.2676 42.9161 24.2676 44.9661C24.2676 47.0161 25.4342 48.9161 27.5342 50.3161C29.8676 51.8828 32.9342 52.6661 36.0009 52.6661C39.0676 52.6661 42.1342 51.8828 44.4676 50.3161C46.5676 48.8995 47.7342 46.9995 47.7342 44.9328C47.7176 42.8828 46.5676 40.9828 44.4676 39.5828Z" fill="#D34B6A"/>
</svg>
