<svg width="72" height="72" viewBox="0 0 72 72" fill="none" xmlns="http://www.w3.org/2000/svg">
<rect width="72" height="72" rx="12" fill="#F3F9F1"/>
<path d="M43.9164 21.932V19.332C43.9164 18.6487 43.3497 18.082 42.6664 18.082C41.9831 18.082 41.4164 18.6487 41.4164 19.332V21.832H30.5831V19.332C30.5831 18.6487 30.0164 18.082 29.3331 18.082C28.6497 18.082 28.0831 18.6487 28.0831 19.332V21.932C23.5831 22.3487 21.3997 25.032 21.0664 29.0154C21.0331 29.4987 21.4331 29.8987 21.8997 29.8987H50.0997C50.5831 29.8987 50.9831 29.482 50.9331 29.0154C50.5997 25.032 48.4164 22.3487 43.9164 21.932Z" fill="#83BF6E"/>
<path d="M49.3333 32.4004H22.6667C21.75 32.4004 21 33.1504 21 34.0671V44.3337C21 49.3337 23.5 52.6671 29.3333 52.6671H42.6667C48.5 52.6671 51 49.3337 51 44.3337V34.0671C51 33.1504 50.25 32.4004 49.3333 32.4004ZM31.35 46.3504C31.2667 46.4171 31.1833 46.5004 31.1 46.5504C31 46.6171 30.9 46.6671 30.8 46.7004C30.7 46.7504 30.6 46.7837 30.5 46.8004C30.3833 46.8171 30.2833 46.8337 30.1667 46.8337C29.95 46.8337 29.7333 46.7837 29.5333 46.7004C29.3167 46.6171 29.15 46.5004 28.9833 46.3504C28.6833 46.0337 28.5 45.6004 28.5 45.1671C28.5 44.7337 28.6833 44.3004 28.9833 43.9837C29.15 43.8337 29.3167 43.7171 29.5333 43.6337C29.8333 43.5004 30.1667 43.4671 30.5 43.5337C30.6 43.5504 30.7 43.5837 30.8 43.6337C30.9 43.6671 31 43.7171 31.1 43.7837C31.1833 43.8504 31.2667 43.9171 31.35 43.9837C31.65 44.3004 31.8333 44.7337 31.8333 45.1671C31.8333 45.6004 31.65 46.0337 31.35 46.3504ZM31.35 40.5171C31.0333 40.8171 30.6 41.0004 30.1667 41.0004C29.7333 41.0004 29.3 40.8171 28.9833 40.5171C28.6833 40.2004 28.5 39.7671 28.5 39.3337C28.5 38.9004 28.6833 38.4671 28.9833 38.1504C29.45 37.6837 30.1833 37.5337 30.8 37.8004C31.0167 37.8837 31.2 38.0004 31.35 38.1504C31.65 38.4671 31.8333 38.9004 31.8333 39.3337C31.8333 39.7671 31.65 40.2004 31.35 40.5171ZM37.1833 46.3504C36.8667 46.6504 36.4333 46.8337 36 46.8337C35.5667 46.8337 35.1333 46.6504 34.8167 46.3504C34.5167 46.0337 34.3333 45.6004 34.3333 45.1671C34.3333 44.7337 34.5167 44.3004 34.8167 43.9837C35.4333 43.3671 36.5667 43.3671 37.1833 43.9837C37.4833 44.3004 37.6667 44.7337 37.6667 45.1671C37.6667 45.6004 37.4833 46.0337 37.1833 46.3504ZM37.1833 40.5171C37.1 40.5837 37.0167 40.6504 36.9333 40.7171C36.8333 40.7837 36.7333 40.8337 36.6333 40.8671C36.5333 40.9171 36.4333 40.9504 36.3333 40.9671C36.2167 40.9837 36.1167 41.0004 36 41.0004C35.5667 41.0004 35.1333 40.8171 34.8167 40.5171C34.5167 40.2004 34.3333 39.7671 34.3333 39.3337C34.3333 38.9004 34.5167 38.4671 34.8167 38.1504C34.9667 38.0004 35.15 37.8837 35.3667 37.8004C35.9833 37.5337 36.7167 37.6837 37.1833 38.1504C37.4833 38.4671 37.6667 38.9004 37.6667 39.3337C37.6667 39.7671 37.4833 40.2004 37.1833 40.5171ZM43.0167 46.3504C42.7 46.6504 42.2667 46.8337 41.8333 46.8337C41.4 46.8337 40.9667 46.6504 40.65 46.3504C40.35 46.0337 40.1667 45.6004 40.1667 45.1671C40.1667 44.7337 40.35 44.3004 40.65 43.9837C41.2667 43.3671 42.4 43.3671 43.0167 43.9837C43.3167 44.3004 43.5 44.7337 43.5 45.1671C43.5 45.6004 43.3167 46.0337 43.0167 46.3504ZM43.0167 40.5171C42.9333 40.5837 42.85 40.6504 42.7667 40.7171C42.6667 40.7837 42.5667 40.8337 42.4667 40.8671C42.3667 40.9171 42.2667 40.9504 42.1667 40.9671C42.05 40.9837 41.9333 41.0004 41.8333 41.0004C41.4 41.0004 40.9667 40.8171 40.65 40.5171C40.35 40.2004 40.1667 39.7671 40.1667 39.3337C40.1667 38.9004 40.35 38.4671 40.65 38.1504C40.8167 38.0004 40.9833 37.8837 41.2 37.8004C41.5 37.6671 41.8333 37.6337 42.1667 37.7004C42.2667 37.7171 42.3667 37.7504 42.4667 37.8004C42.5667 37.8337 42.6667 37.8837 42.7667 37.9504C42.85 38.0171 42.9333 38.0837 43.0167 38.1504C43.3167 38.4671 43.5 38.9004 43.5 39.3337C43.5 39.7671 43.3167 40.2004 43.0167 40.5171Z" fill="#BBDCAF"/>
</svg>
