<svg width="32" height="32" viewBox="0 0 32 32" fill="none" xmlns="http://www.w3.org/2000/svg">
<path fill-rule="evenodd" clip-rule="evenodd" d="M15.9999 12.2266C13.9122 12.2266 12.2266 13.9122 12.2266 15.9999C12.2266 18.0876 13.9122 19.7732 15.9999 19.7732C18.0876 19.7732 19.7732 18.0876 19.7732 15.9999C19.7732 13.9122 18.0876 12.2266 15.9999 12.2266ZM10.2266 15.9999C10.2266 12.8076 12.8076 10.2266 15.9999 10.2266C19.1922 10.2266 21.7732 12.8076 21.7732 15.9999C21.7732 19.1922 19.1922 21.7732 15.9999 21.7732C12.8076 21.7732 10.2266 19.1922 10.2266 15.9999Z" fill="#57B6F0"/>
<path fill-rule="evenodd" clip-rule="evenodd" d="M3.00978 11.9959C6.19767 6.98476 10.8692 3.95996 15.9998 3.95996C21.1307 3.95996 25.8023 6.98503 28.9902 11.9966C29.7169 13.1357 30.0465 14.5948 30.0465 15.9933C30.0465 17.3918 29.7169 18.8509 28.9902 19.99C25.8023 25.0016 21.1307 28.0266 15.9998 28.0266C10.8689 28.0266 6.19727 25.0016 3.00937 19.99C2.28273 18.8509 1.95312 17.3918 1.95312 15.9933C1.95312 14.5946 2.28286 13.1351 3.00978 11.9959ZM15.9998 5.95996C11.7173 5.95996 7.61565 8.48156 4.69688 13.07L4.69605 13.0713C4.22327 13.812 3.95313 14.8723 3.95313 15.9933C3.95313 17.1143 4.22327 18.1746 4.69605 18.9153L4.69688 18.9166C7.61565 23.505 11.7173 26.0266 15.9998 26.0266C20.2823 26.0266 24.3839 23.505 27.3027 18.9166L27.3035 18.9153C27.7763 18.1746 28.0465 17.1143 28.0465 15.9933C28.0465 14.8723 27.7763 13.812 27.3035 13.0713L27.3027 13.07C24.3839 8.48156 20.2823 5.95996 15.9998 5.95996Z" fill="#57B6F0"/>
</svg>
