<svg width="560" height="560" viewBox="0 0 560 560" fill="none" xmlns="http://www.w3.org/2000/svg">
<path d="M0 12C0 5.37259 5.37258 0 12 0H548C554.627 0 560 5.37258 560 12V548C560 554.627 554.627 560 548 560H12C5.37259 560 0 554.627 0 548V12Z" fill="#F7F8FA"/>
<mask id="mask0_3524_45103" style="mask-type:alpha" maskUnits="userSpaceOnUse" x="0" y="0" width="560" height="560">
<path d="M0 12C0 5.37259 5.37258 0 12 0H548C554.627 0 560 5.37258 560 12V548C560 554.627 554.627 560 548 560H12C5.37259 560 0 554.627 0 548V12Z" fill="#F7F8FA"/>
</mask>
<g mask="url(#mask0_3524_45103)">
<rect x="670.633" y="14.8359" width="196" height="196" rx="24" transform="rotate(63.8437 670.633 14.8359)" fill="#EBEEF2"/>
<rect opacity="0.5" x="204.723" y="298" width="895.656" height="895.656" rx="447.828" transform="rotate(63.8437 204.723 298)" fill="#EBEEF2"/>
</g>
<circle cx="280" cy="280" r="147" fill="white"/>
<circle cx="280" cy="280" r="174.5" stroke="#DCDEE4" stroke-width="3" stroke-dasharray="8 8"/>
<path d="M341.57 344.434C349.47 336.352 355.835 326.701 360.182 315.977C364.375 305.632 366.69 294.289 366.69 282.392C366.69 270.496 364.375 259.153 360.182 248.808C355.835 238.084 349.47 228.433 341.57 220.351C333.67 212.269 324.236 205.756 313.753 201.309C303.641 197.02 292.553 194.652 280.925 194.652C269.296 194.652 258.209 197.02 248.097 201.309C237.614 205.756 228.18 212.269 220.28 220.351C212.38 228.433 206.014 238.084 201.667 248.808C197.474 259.153 195.16 270.496 195.16 282.392C195.16 294.289 197.474 305.632 201.667 315.977C206.014 326.701 212.38 336.352 220.28 344.434" stroke="#A5ADC5" stroke-width="3" stroke-dasharray="2 10"/>
<path d="M212.936 366.162C210.091 369.629 204.952 370.152 201.693 367.072C186.542 352.749 175.492 334.569 169.777 314.414C163.323 291.648 163.985 267.454 171.675 245.075C179.365 222.697 193.715 203.206 212.8 189.216C231.884 175.227 254.791 167.409 278.446 166.811C302.101 166.212 325.373 172.862 345.141 185.869C364.908 198.876 380.225 217.617 389.036 239.578C397.848 261.538 399.732 285.669 394.437 308.731C389.749 329.149 379.633 347.865 365.225 362.935C362.126 366.177 356.967 365.914 353.95 362.595C350.933 359.277 351.205 354.163 354.267 350.886C366.243 338.071 374.663 322.285 378.609 305.097C383.163 285.263 381.542 264.511 373.964 245.625C366.386 226.739 353.214 210.621 336.214 199.436C319.214 188.25 299.2 182.531 278.856 183.045C258.513 183.56 238.814 190.284 222.401 202.314C205.988 214.345 193.647 231.108 187.034 250.353C180.421 269.598 179.851 290.406 185.402 309.984C190.212 326.951 199.419 342.291 212.027 354.484C215.251 357.602 215.781 362.696 212.936 366.162Z" fill="#EBEEF2"/>
<path d="M211.917 365.315C209.029 368.746 203.884 369.207 200.663 366.086C187.467 353.302 177.467 337.535 171.536 320.063C164.733 300.023 163.541 278.504 168.091 257.835C172.641 237.166 182.759 218.136 197.349 202.805C211.939 187.474 230.445 176.427 250.863 170.859C271.281 165.292 292.833 165.416 313.186 171.219C333.538 177.022 351.915 188.283 366.327 203.781C380.739 219.279 390.636 238.425 394.947 259.145C398.705 277.209 398.093 295.869 393.213 313.583C392.021 317.907 387.355 320.121 383.125 318.631C378.896 317.14 376.71 312.509 377.852 308.172C381.776 293.266 382.202 277.615 379.047 262.453C375.34 244.634 366.828 228.169 354.434 214.84C342.04 201.511 326.236 191.827 308.733 186.837C291.23 181.846 272.695 181.739 255.135 186.527C237.575 191.315 221.66 200.816 209.113 214.001C196.566 227.185 187.865 243.551 183.952 261.326C180.039 279.101 181.063 297.608 186.914 314.843C191.893 329.508 200.204 342.776 211.152 353.627C214.337 356.784 214.804 361.884 211.917 365.315Z" fill="#83BF6E"/>
<path d="M262.168 293.853L251.528 318.773H245.848L256.568 294.493H242.888V289.693H262.168V293.853ZM269.402 303.333C266.736 301.947 265.402 299.8 265.402 296.893C265.402 295.453 265.762 294.147 266.482 292.973C267.229 291.773 268.336 290.827 269.802 290.133C271.296 289.413 273.109 289.053 275.242 289.053C277.376 289.053 279.176 289.413 280.642 290.133C282.136 290.827 283.242 291.773 283.962 292.973C284.709 294.147 285.082 295.453 285.082 296.893C285.082 298.36 284.722 299.653 284.002 300.773C283.282 301.867 282.322 302.72 281.122 303.333C282.589 303.973 283.736 304.907 284.562 306.133C285.389 307.36 285.802 308.813 285.802 310.493C285.802 312.307 285.336 313.893 284.402 315.253C283.496 316.587 282.242 317.613 280.642 318.333C279.042 319.053 277.242 319.413 275.242 319.413C273.242 319.413 271.442 319.053 269.842 318.333C268.269 317.613 267.016 316.587 266.082 315.253C265.176 313.893 264.722 312.307 264.722 310.493C264.722 308.813 265.136 307.36 265.962 306.133C266.789 304.88 267.936 303.947 269.402 303.333ZM279.642 297.693C279.642 296.387 279.242 295.373 278.442 294.653C277.669 293.933 276.602 293.573 275.242 293.573C273.909 293.573 272.842 293.933 272.042 294.653C271.269 295.373 270.882 296.4 270.882 297.733C270.882 298.933 271.282 299.893 272.082 300.613C272.909 301.333 273.962 301.693 275.242 301.693C276.522 301.693 277.576 301.333 278.402 300.613C279.229 299.867 279.642 298.893 279.642 297.693ZM275.242 305.773C273.722 305.773 272.482 306.16 271.522 306.933C270.589 307.707 270.122 308.813 270.122 310.253C270.122 311.587 270.576 312.68 271.482 313.533C272.416 314.36 273.669 314.773 275.242 314.773C276.816 314.773 278.056 314.347 278.962 313.493C279.869 312.64 280.322 311.56 280.322 310.253C280.322 308.84 279.856 307.747 278.922 306.973C277.989 306.173 276.762 305.773 275.242 305.773ZM288.585 296.773C288.585 294.747 289.172 293.16 290.345 292.013C291.545 290.867 293.079 290.293 294.945 290.293C296.812 290.293 298.332 290.867 299.505 292.013C300.705 293.16 301.305 294.747 301.305 296.773C301.305 298.827 300.705 300.427 299.505 301.573C298.332 302.72 296.812 303.293 294.945 303.293C293.079 303.293 291.545 302.72 290.345 301.573C289.172 300.427 288.585 298.827 288.585 296.773ZM314.265 290.773L298.545 318.773H293.105L308.785 290.773H314.265ZM294.905 293.653C293.439 293.653 292.705 294.693 292.705 296.773C292.705 298.88 293.439 299.933 294.905 299.933C295.625 299.933 296.185 299.68 296.585 299.173C296.985 298.64 297.185 297.84 297.185 296.773C297.185 294.693 296.425 293.653 294.905 293.653ZM306.145 312.733C306.145 310.68 306.732 309.093 307.905 307.973C309.105 306.827 310.639 306.253 312.505 306.253C314.372 306.253 315.879 306.827 317.025 307.973C318.199 309.093 318.785 310.68 318.785 312.733C318.785 314.787 318.199 316.387 317.025 317.533C315.879 318.68 314.372 319.253 312.505 319.253C310.612 319.253 309.079 318.68 307.905 317.533C306.732 316.387 306.145 314.787 306.145 312.733ZM312.465 309.613C310.945 309.613 310.185 310.653 310.185 312.733C310.185 314.84 310.945 315.893 312.465 315.893C313.959 315.893 314.705 314.84 314.705 312.733C314.705 310.653 313.959 309.613 312.465 309.613Z" fill="#35353D"/>
<path d="M249.14 335.137H247.509V333.308H246.336V335.137H245.183V336.131H246.336V340.904C246.336 342.237 247.41 342.873 248.404 342.873C248.842 342.873 249.12 342.793 249.279 342.734L249.041 341.68C248.941 341.7 248.782 341.739 248.524 341.739C248.006 341.739 247.509 341.58 247.509 340.586V336.131H249.14V335.137ZM253.706 342.933C255.178 342.933 255.675 342.018 255.934 341.6H256.073V342.773H257.206V335.137H256.033V336.35H255.934C255.675 335.952 255.218 335.038 253.726 335.038C251.797 335.038 250.465 336.569 250.465 338.975C250.465 341.401 251.797 342.933 253.706 342.933ZM253.866 341.879C252.394 341.879 251.638 340.586 251.638 338.955C251.638 337.344 252.374 336.092 253.866 336.092C255.297 336.092 256.053 337.245 256.053 338.955C256.053 340.685 255.277 341.879 253.866 341.879ZM264.927 336.847C264.559 335.763 263.734 335.038 262.223 335.038C260.612 335.038 259.419 335.952 259.419 337.245C259.419 338.299 260.045 339.005 261.447 339.333L262.72 339.631C263.491 339.81 263.853 340.178 263.853 340.705C263.853 341.362 263.157 341.898 262.064 341.898C261.104 341.898 260.503 341.486 260.294 340.665L259.18 340.944C259.454 342.241 260.522 342.933 262.084 342.933C263.858 342.933 265.066 341.963 265.066 340.646C265.066 339.582 264.4 338.911 263.038 338.577L261.905 338.299C261 338.075 260.592 337.772 260.592 337.185C260.592 336.529 261.288 336.052 262.223 336.052C263.247 336.052 263.669 336.619 263.873 337.146L264.927 336.847ZM266.833 342.773H268.006V339.915L268.826 339.154L271.685 342.773H273.176L269.711 338.398L272.938 335.137H271.486L268.145 338.538H268.006V332.592H266.833V342.773ZM279.857 336.847C279.489 335.763 278.664 335.038 277.152 335.038C275.542 335.038 274.348 335.952 274.348 337.245C274.348 338.299 274.975 339.005 276.377 339.333L277.65 339.631C278.42 339.81 278.783 340.178 278.783 340.705C278.783 341.362 278.087 341.898 276.993 341.898C276.034 341.898 275.432 341.486 275.223 340.665L274.11 340.944C274.383 342.241 275.452 342.933 277.013 342.933C278.788 342.933 279.996 341.963 279.996 340.646C279.996 339.582 279.33 338.911 277.968 338.577L276.834 338.299C275.929 338.075 275.522 337.772 275.522 337.185C275.522 336.529 276.218 336.052 277.152 336.052C278.177 336.052 278.599 336.619 278.803 337.146L279.857 336.847ZM288.583 342.933C290.055 342.933 290.552 342.018 290.811 341.6H290.95V342.773H292.083V332.592H290.91V336.35H290.811C290.552 335.952 290.095 335.038 288.603 335.038C286.674 335.038 285.342 336.569 285.342 338.975C285.342 341.401 286.674 342.933 288.583 342.933ZM288.742 341.879C287.271 341.879 286.515 340.586 286.515 338.955C286.515 337.344 287.251 336.092 288.742 336.092C290.174 336.092 290.93 337.245 290.93 338.955C290.93 340.685 290.154 341.879 288.742 341.879ZM297.497 342.933C299.566 342.933 300.958 341.362 300.958 338.995C300.958 336.609 299.566 335.038 297.497 335.038C295.429 335.038 294.037 336.609 294.037 338.995C294.037 341.362 295.429 342.933 297.497 342.933ZM297.497 341.879C295.926 341.879 295.21 340.526 295.21 338.995C295.21 337.464 295.926 336.092 297.497 336.092C299.068 336.092 299.784 337.464 299.784 338.995C299.784 340.526 299.068 341.879 297.497 341.879ZM303.922 338.18C303.922 336.847 304.747 336.092 305.871 336.092C306.96 336.092 307.621 336.803 307.621 338.001V342.773H308.794V337.921C308.794 335.972 307.755 335.038 306.209 335.038C305.055 335.038 304.34 335.555 303.982 336.33H303.882V335.137H302.749V342.773H303.922V338.18ZM314.14 342.933C315.691 342.933 316.824 342.157 317.182 341.004L316.049 340.685C315.751 341.481 315.06 341.879 314.14 341.879C312.763 341.879 311.813 340.989 311.758 339.353H317.302V338.856C317.302 336.012 315.611 335.038 314.021 335.038C311.952 335.038 310.58 336.668 310.58 339.015C310.58 341.362 311.932 342.933 314.14 342.933ZM311.758 338.339C311.838 337.151 312.678 336.092 314.021 336.092C315.293 336.092 316.109 337.046 316.109 338.339H311.758Z" fill="#6A7185"/>
<path fill-rule="evenodd" clip-rule="evenodd" d="M281.379 225.773C271.454 225.773 263.379 233.848 263.379 243.773C263.379 253.699 271.454 261.773 281.379 261.773C291.304 261.773 299.379 253.699 299.379 243.773C299.379 233.848 291.304 225.773 281.379 225.773ZM275.979 234.773V241.973C275.979 244.325 277.482 246.325 279.579 247.066V249.173H277.779C277.282 249.173 276.879 249.576 276.879 250.073V251.873C276.879 252.37 277.282 252.773 277.779 252.773H284.979C285.476 252.773 285.879 252.37 285.879 251.873V250.073C285.879 249.576 285.476 249.173 284.979 249.173H283.179V247.066C285.276 246.325 286.779 244.325 286.779 241.973V234.773H275.979ZM275.079 241.973V235.673H273.279C272.782 235.673 272.379 236.076 272.379 236.573V238.759C272.379 240.455 273.501 241.912 275.104 242.541C275.087 242.354 275.079 242.165 275.079 241.973ZM290.379 236.573C290.379 236.076 289.976 235.673 289.479 235.673H287.679V241.973C287.679 242.165 287.67 242.354 287.654 242.541C289.256 241.912 290.379 240.455 290.379 238.759V236.573Z" fill="#83BF6E"/>
<path d="M89.6065 54.2964C91.274 56.885 89.5139 60.308 86.4384 60.4578L73.0977 61.1074C70.0222 61.2571 67.9378 58.0213 69.3459 55.2829L75.4537 43.4048C76.8617 40.6664 80.7062 40.4792 82.3737 43.0679L89.6065 54.2964Z" fill="#DCDEE4"/>
<rect x="84.0039" y="152.959" width="16" height="16" rx="8" transform="rotate(155.544 84.0039 152.959)" fill="#EBEEF2"/>
</svg>
