<svg width="56" height="56" viewBox="0 0 56 56" fill="none" xmlns="http://www.w3.org/2000/svg">
<rect width="56" height="56" rx="12" fill="#FEF6ED"/>
<path d="M27.9998 14.668C20.6532 14.668 14.6665 20.6546 14.6665 28.0013C14.6665 35.348 20.6532 41.3346 27.9998 41.3346C35.3465 41.3346 41.3332 35.348 41.3332 28.0013C41.3332 20.6546 35.3465 14.668 27.9998 14.668ZM26.9998 22.668C26.9998 22.1213 27.4532 21.668 27.9998 21.668C28.5465 21.668 28.9998 22.1213 28.9998 22.668V29.3346C28.9998 29.8813 28.5465 30.3346 27.9998 30.3346C27.4532 30.3346 26.9998 29.8813 26.9998 29.3346V22.668ZM29.2265 33.8413C29.1598 34.0146 29.0665 34.148 28.9465 34.2813C28.8132 34.4013 28.6665 34.4946 28.5065 34.5613C28.3465 34.628 28.1732 34.668 27.9998 34.668C27.8265 34.668 27.6532 34.628 27.4932 34.5613C27.3332 34.4946 27.1865 34.4013 27.0532 34.2813C26.9332 34.148 26.8398 34.0146 26.7732 33.8413C26.7065 33.6813 26.6665 33.508 26.6665 33.3346C26.6665 33.1613 26.7065 32.988 26.7732 32.828C26.8398 32.668 26.9332 32.5213 27.0532 32.388C27.1865 32.268 27.3332 32.1746 27.4932 32.108C27.8132 31.9746 28.1865 31.9746 28.5065 32.108C28.6665 32.1746 28.8132 32.268 28.9465 32.388C29.0665 32.5213 29.1598 32.668 29.2265 32.828C29.2932 32.988 29.3332 33.1613 29.3332 33.3346C29.3332 33.508 29.2932 33.6813 29.2265 33.8413Z" fill="#F2A84C"/>
</svg>
