<svg width="32" height="32" viewBox="0 0 32 32" fill="none" xmlns="http://www.w3.org/2000/svg">
<rect x="1" y="1" width="30" height="30" rx="11" fill="white"/>
<path d="M11.6247 20.3737C11.3562 20.1052 11.3562 19.6699 11.6247 19.4014L15.0277 15.9985L11.6247 12.5955C11.3562 12.327 11.3562 11.8917 11.6247 11.6232C11.8932 11.3548 12.3285 11.3548 12.597 11.6232L15.9999 15.0262L19.4029 11.6232C19.6714 11.3548 20.1067 11.3548 20.3752 11.6232C20.6436 11.8917 20.6436 12.327 20.3752 12.5955L16.9722 15.9985L20.3752 19.4014C20.6436 19.6699 20.6436 20.1052 20.3752 20.3737C20.1067 20.6422 19.6714 20.6422 19.4029 20.3737L15.9999 16.9707L12.597 20.3737C12.3285 20.6422 11.8932 20.6422 11.6247 20.3737Z" fill="#A5ADC5"/>
<rect x="1" y="1" width="30" height="30" rx="11" stroke="#EBEEF2" stroke-width="2"/>
</svg>
