<svg width="1510" height="688" viewBox="0 0 1510 688" fill="none" xmlns="http://www.w3.org/2000/svg">
<path d="M921.73 470.66H901.102V630.025H921.73V470.66Z" fill="#0D318C"/>
<path d="M752.143 470.66H632.038C602.798 470.66 579.094 494.354 579.094 523.583V535.345H713.953C723.017 535.345 731.71 538.944 738.119 545.35C744.529 551.756 748.129 560.445 748.129 569.505V630.025H921.723V470.66H752.143Z" fill="#4A86F7"/>
<path d="M1325.92 461.895H1434.84C1454.76 461.895 1473.85 469.801 1487.93 483.873C1502.01 497.946 1509.92 517.033 1509.92 536.935V617.038H1325.92V461.895Z" fill="#F2A84C"/>
<path d="M1325.92 461.895H1338.67C1349.37 461.895 1359.63 466.142 1367.19 473.702C1374.76 481.262 1379.01 491.515 1379.01 502.207V617.046H1325.92V461.895Z" fill="#E0704A"/>
<path d="M843.046 361.164C841.472 361.162 839.963 360.537 838.85 359.425C837.737 358.312 837.111 356.804 837.109 355.231V258.049C837.11 256.476 837.736 254.967 838.849 253.854C839.962 252.741 841.471 252.115 843.046 252.113C844.62 252.116 846.129 252.742 847.242 253.855C848.354 254.967 848.98 256.476 848.982 258.049V355.231C848.98 356.804 848.354 358.312 847.241 359.425C846.128 360.537 844.619 361.162 843.046 361.164ZM843.046 253.249C841.773 253.251 840.553 253.758 839.653 254.658C838.753 255.557 838.247 256.777 838.245 258.049V355.231C838.245 355.861 838.37 356.485 838.611 357.067C838.852 357.649 839.206 358.178 839.651 358.623C840.097 359.069 840.626 359.422 841.209 359.663C841.791 359.904 842.415 360.028 843.046 360.028C843.676 360.028 844.3 359.904 844.882 359.663C845.465 359.422 845.994 359.069 846.44 358.623C846.885 358.178 847.239 357.649 847.48 357.067C847.721 356.485 847.846 355.861 847.846 355.231V258.049C847.844 256.777 847.338 255.557 846.438 254.658C845.538 253.758 844.318 253.251 843.046 253.249Z" fill="#57B6F0"/>
<path d="M843.046 226.621C841.472 226.62 839.963 225.994 838.85 224.882C837.737 223.769 837.111 222.261 837.109 220.688V123.504C837.111 121.93 837.737 120.422 838.85 119.31C839.963 118.197 841.472 117.572 843.046 117.57V117.57C844.619 117.573 846.128 118.198 847.241 119.311C848.353 120.423 848.979 121.931 848.982 123.504V220.688C848.98 222.261 848.354 223.769 847.241 224.882C846.128 225.994 844.619 226.62 843.046 226.621V226.621ZM843.046 118.706C841.773 118.707 840.553 119.213 839.653 120.113C838.753 121.012 838.247 122.232 838.245 123.504V220.688C838.245 221.96 838.751 223.18 839.651 224.08C840.552 224.98 841.772 225.485 843.046 225.485C844.319 225.485 845.539 224.98 846.44 224.08C847.34 223.18 847.846 221.96 847.846 220.688V123.504C847.844 122.232 847.338 121.012 846.438 120.113C845.538 119.213 844.318 118.707 843.046 118.706V118.706Z" fill="#57B6F0"/>
<path d="M848.415 240.385C848.415 237.422 846.012 235.02 843.048 235.02C840.083 235.02 837.68 237.422 837.68 240.385C837.68 243.348 840.083 245.751 843.048 245.751C846.012 245.751 848.415 243.348 848.415 240.385Z" fill="#F7F8FA"/>
<path d="M1190.51 43.0796C1188.73 43.0796 1186.98 42.5507 1185.5 41.5598C1184.02 40.569 1182.86 39.1607 1182.18 37.513C1181.5 35.8653 1181.32 34.0523 1181.67 32.3032C1182.01 30.5541 1182.87 28.9476 1184.14 27.6867C1185.4 26.4259 1187 25.5674 1188.75 25.2198C1190.5 24.8722 1192.32 25.0512 1193.97 25.734C1195.61 26.4169 1197.02 27.573 1198.01 29.0561C1199.01 30.5392 1199.53 32.2827 1199.53 34.0661C1199.53 36.4564 1198.58 38.7481 1196.89 40.4381C1195.2 42.128 1192.9 43.0781 1190.51 43.0796V43.0796ZM1190.51 26.1853C1188.95 26.1853 1187.43 26.6475 1186.13 27.5134C1184.84 28.3794 1183.83 29.6102 1183.23 31.0502C1182.63 32.4902 1182.48 34.0748 1182.78 35.6035C1183.08 37.1323 1183.83 38.5365 1184.94 39.6386C1186.04 40.7408 1187.45 41.4913 1188.97 41.7954C1190.5 42.0995 1192.09 41.9434 1193.53 41.347C1194.97 40.7505 1196.2 39.7404 1197.07 38.4444C1197.93 37.1484 1198.4 35.6247 1198.4 34.0661C1198.39 31.9766 1197.56 29.9734 1196.09 28.496C1194.61 27.0186 1192.6 26.1875 1190.51 26.1853V26.1853Z" fill="#F7F8FA"/>
<path d="M1190.51 18.3374C1188.73 18.3374 1186.98 17.8086 1185.5 16.8179C1184.02 15.8271 1182.86 14.419 1182.18 12.7715C1181.5 11.1239 1181.32 9.31104 1181.67 7.56204C1182.01 5.81304 1182.87 4.20648 1184.13 2.94552C1185.4 1.68456 1187 0.825836 1188.75 0.477938C1190.5 0.13004 1192.32 0.308594 1193.96 0.991021C1195.61 1.67345 1197.02 2.8291 1198.01 4.31183C1199 5.79456 1199.53 7.53778 1199.53 9.32105C1199.53 11.7116 1198.58 14.0037 1196.89 15.6941C1195.2 17.3845 1192.9 18.3351 1190.51 18.3374ZM1190.51 1.44309C1188.95 1.44309 1187.43 1.90536 1186.13 2.77144C1184.84 3.63752 1183.82 4.8685 1183.23 6.30869C1182.63 7.74888 1182.48 9.33359 1182.78 10.8624C1183.08 12.3912 1183.84 13.7954 1184.94 14.8974C1186.04 15.9995 1187.45 16.7498 1188.98 17.0536C1190.51 17.3574 1192.09 17.2009 1193.53 16.604C1194.97 16.0071 1196.2 14.9965 1197.07 13.7002C1197.94 12.4038 1198.4 10.8798 1198.4 9.32105C1198.39 7.23188 1197.56 5.22898 1196.09 3.75198C1194.61 2.27498 1192.6 1.4446 1190.51 1.44309V1.44309Z" fill="#F7F8FA"/>
<path d="M796.398 370.754H882.332C887.314 370.754 892.092 372.732 895.615 376.253C899.138 379.775 901.117 384.551 901.117 389.53V470.66H777.602V389.522C777.603 387.056 778.09 384.614 779.035 382.336C779.98 380.059 781.365 377.989 783.111 376.246C784.856 374.504 786.928 373.122 789.208 372.179C791.488 371.237 793.931 370.752 796.398 370.754V370.754Z" fill="#FADD6F"/>
<path d="M874.748 370.754H882.545C887.467 370.754 892.188 372.708 895.669 376.188C899.15 379.667 901.106 384.386 901.106 389.306V470.66H864.523V380.974C864.523 378.263 865.601 375.664 867.518 373.747C869.436 371.831 872.036 370.754 874.748 370.754V370.754Z" fill="#F2A84C"/>
<path d="M981.462 123.586L981.297 123.663V123.586H981.462Z" fill="#E17A9E"/>
<path d="M985.946 123.586L981.297 125.718V123.663L981.462 123.586H985.946Z" fill="#E17A9D"/>
<path d="M990.431 123.586L981.297 127.773V125.718L985.946 123.586H990.431Z" fill="#E1799C"/>
<path d="M994.913 123.586L981.297 129.829V127.773L990.431 123.586H994.913Z" fill="#E0799B"/>
<path d="M999.398 123.586L981.297 131.884V129.829L994.913 123.586H999.398Z" fill="#E0789A"/>
<path d="M1003.88 123.586L981.297 133.937V131.884L999.398 123.586H1003.88Z" fill="#E07899"/>
<path d="M1008.37 123.586L981.297 135.992V133.937L1003.88 123.586H1008.37Z" fill="#E07798"/>
<path d="M1012.85 123.586L981.297 138.047V135.992L1008.37 123.586H1012.85Z" fill="#E07697"/>
<path d="M1017.33 123.586L981.297 140.103V138.047L1012.85 123.586H1017.33Z" fill="#E07696"/>
<path d="M1021.82 123.586L981.297 142.158V140.103L1017.33 123.586H1021.82Z" fill="#E07595"/>
<path d="M1026.3 123.586L981.297 144.213V142.158L1021.82 123.586H1026.3Z" fill="#E07594"/>
<path d="M1030.78 123.586L981.297 146.269V144.213L1026.3 123.586H1030.78Z" fill="#E07493"/>
<path d="M1035.27 123.586L981.297 148.324V146.269L1030.78 123.586H1035.27Z" fill="#E07492"/>
<path d="M1039.75 123.586L981.297 150.379V148.324L1035.27 123.586H1039.75Z" fill="#E07391"/>
<path d="M1044.24 123.586L981.297 152.435V150.379L1039.75 123.586H1044.24Z" fill="#E07390"/>
<path d="M1048.72 123.586L981.297 154.49V152.435L1044.24 123.586H1048.72Z" fill="#DF728F"/>
<path d="M1053.21 123.586L981.297 156.543V154.49L1048.72 123.586H1053.21Z" fill="#DF728E"/>
<path d="M1056.49 124.137L981.297 158.598V156.543L1053.21 123.586H1056.49V124.137Z" fill="#DF718D"/>
<path d="M1056.49 126.192L981.297 160.653V158.598L1056.49 124.137V126.192Z" fill="#DF708C"/>
<path d="M1056.49 128.247L981.297 162.708V160.653L1056.49 126.191V128.247Z" fill="#DF708B"/>
<path d="M1056.49 130.301L981.297 164.763V162.708L1056.49 128.246V130.301Z" fill="#DF6F8A"/>
<path d="M1056.49 132.36L981.297 166.821V164.766L1056.49 130.305V132.36Z" fill="#DF6F89"/>
<path d="M1056.49 134.412L981.297 168.876V166.821L1056.49 132.359V134.412Z" fill="#DF6E88"/>
<path d="M1056.49 136.466L981.297 170.93V168.874L1056.49 134.41V136.466Z" fill="#DF6E87"/>
<path d="M1056.49 138.52L981.297 172.984V170.929L1056.49 136.465V138.52Z" fill="#DF6D86"/>
<path d="M1056.49 140.575L981.297 175.039V172.984L1056.49 138.52V140.575Z" fill="#DF6D85"/>
<path d="M1056.49 142.633L981.297 177.095V175.042L1056.49 140.578V142.633Z" fill="#DF6C84"/>
<path d="M1056.49 144.688L981.297 179.15V177.094L1056.49 142.633V144.688Z" fill="#DE6C83"/>
<path d="M1056.49 146.743L981.297 181.204V179.149L1056.49 144.688V146.743Z" fill="#DE6B82"/>
<path d="M1056.49 148.798L981.297 183.259V181.204L1056.49 146.742V148.798Z" fill="#DE6A81"/>
<path d="M1056.49 150.852L981.297 185.314V183.258L1056.49 148.797V150.852Z" fill="#DE6A80"/>
<path d="M1056.49 152.911L981.297 187.372V185.317L1056.49 150.855V152.911Z" fill="#DE697F"/>
<path d="M1056.49 154.963L981.297 189.427V187.372L1056.49 152.91V154.963Z" fill="#DE697E"/>
<path d="M1056.49 157.016L981.297 191.481V189.425L1056.49 154.961V157.016Z" fill="#DE687D"/>
<path d="M1056.49 159.071L981.297 193.535V191.48L1056.49 157.016V159.071Z" fill="#DE687C"/>
<path d="M1056.49 161.126L981.297 195.587V193.535L1056.49 159.07V161.126Z" fill="#DE677B"/>
<path d="M1056.49 163.18L981.297 197.642V195.586L1056.49 161.125V163.18Z" fill="#DE677A"/>
<path d="M1056.49 165.239L981.297 199.7V197.645L1056.49 163.184V165.239Z" fill="#DE6679"/>
<path d="M1056.49 167.294L981.297 201.755V199.7L1056.49 165.238V167.294Z" fill="#DE6678"/>
<path d="M1056.49 169.348L981.297 203.81V201.754L1056.49 167.293V169.348Z" fill="#DD6576"/>
<path d="M1056.49 171.403L981.297 205.864V203.809L1056.49 169.348V171.403Z" fill="#DD6475"/>
<path d="M1056.49 173.462L981.297 207.923V205.868L1056.49 171.406V173.462Z" fill="#DD6474"/>
<path d="M1056.49 175.513L981.297 209.978V207.922L1056.49 173.461V175.513Z" fill="#DD6373"/>
<path d="M1056.49 177.567L981.297 212.031V209.976L1056.49 175.512V177.567Z" fill="#DD6372"/>
<path d="M1056.49 179.622L981.297 214.086V212.031L1056.49 177.566V179.622Z" fill="#DD6271"/>
<path d="M1056.49 181.68L981.297 216.142V214.089L1056.49 179.625V181.68Z" fill="#DD6270"/>
<path d="M1056.49 183.735L981.297 218.196V216.141L1056.49 181.68V183.735Z" fill="#DD616F"/>
<path d="M1056.49 185.79L981.297 220.251V218.196L1056.49 183.734V185.79Z" fill="#DD616E"/>
<path d="M1056.49 187.844L981.297 222.306V220.25L1056.49 185.789V187.844Z" fill="#DD606D"/>
<path d="M1056.49 189.899L981.297 224.361V222.305L1056.49 187.844V189.899Z" fill="#DD5F6C"/>
<path d="M1056.49 191.954L981.297 226.415V224.36L1056.49 189.898V191.954Z" fill="#DD5F6B"/>
<path d="M1056.49 194.008L981.297 228.47V226.415L1056.49 191.953V194.008Z" fill="#DC5E6A"/>
<path d="M1056.49 196.067L981.297 230.529V228.473L1056.49 194.012V196.067Z" fill="#DC5E69"/>
<path d="M1056.49 198.119L981.297 232.583V230.528L1056.49 196.066V198.119Z" fill="#DC5D68"/>
<path d="M1056.49 200.173L981.297 234.637V232.581L1056.49 198.117V200.173Z" fill="#DC5D67"/>
<path d="M1056.49 202.227L981.297 236.691V234.636L1056.49 200.172V202.227Z" fill="#DC5C66"/>
<path d="M1056.49 204.286L981.297 238.747V236.695L1056.49 202.23V204.286Z" fill="#DC5C65"/>
<path d="M1056.49 206.341L981.297 240.802V238.747L1056.49 204.285V206.341Z" fill="#DC5B64"/>
<path d="M1056.49 208.395L981.297 242.857V240.801L1056.49 206.34V208.395Z" fill="#DC5B63"/>
<path d="M1056.49 210.45L981.297 244.911V242.856L1056.49 208.395V210.45Z" fill="#DC5A62"/>
<path d="M1056.49 212.505L981.297 246.966V244.911L1056.49 210.449V212.505Z" fill="#DC5961"/>
<path d="M1056.49 214.563L981.297 249.025V246.969L1056.49 212.508V214.563Z" fill="#DC5960"/>
<path d="M1056.49 216.618L981.297 251.079V249.024L1056.49 214.562V216.618Z" fill="#DC585F"/>
<path d="M1056.49 218.67L981.297 253.134V251.079L1056.49 216.617V218.67Z" fill="#DB585E"/>
<path d="M1056.49 220.723L981.297 255.188V253.132L1056.49 218.668V220.723Z" fill="#DB575D"/>
<path d="M1056.49 222.778L981.297 257.242V255.187L1056.49 220.723V222.778Z" fill="#DB575C"/>
<path d="M1056.49 224.837L981.297 259.298V257.246L1056.49 222.781V224.837Z" fill="#DB565B"/>
<path d="M1056.49 226.891L981.297 261.353V259.297L1056.49 224.836V226.891Z" fill="#DB565A"/>
<path d="M1056.49 228.946L981.297 263.407V261.352L1056.49 226.891V228.946Z" fill="#DB5559"/>
<path d="M1056.49 231.001L981.297 265.462V263.407L1056.49 228.945V231.001Z" fill="#DB5558"/>
<path d="M1056.49 233.055L981.297 267.517V265.461L1056.49 231V233.055Z" fill="#DB5457"/>
<path d="M1056.49 235.11L981.297 269.572V267.516L1056.49 233.055V235.11Z" fill="#DB5356"/>
<path d="M1056.49 237.169L981.297 271.63V269.575L1056.49 235.113V237.169Z" fill="#DB5355"/>
<path d="M1056.49 239.223L981.297 273.685V271.629L1056.49 237.168V239.223Z" fill="#DB5254"/>
<path d="M1056.49 241.275L981.297 275.739V273.684L1056.49 239.223V241.275Z" fill="#DB5253"/>
<path d="M1056.49 243.333L981.297 277.797V275.742L1056.49 241.277V243.333Z" fill="#DA5152"/>
<path d="M1056.49 245.387L981.297 279.849V277.796L1056.49 243.332V245.387Z" fill="#DA5151"/>
<path d="M1056.49 247.442L981.297 281.903V279.848L1056.49 245.387V247.442Z" fill="#DA5050"/>
<path d="M1056.49 249.497L981.297 283.958V281.903L1056.49 247.441V249.497Z" fill="#DA504F"/>
<path d="M1056.49 251.551L981.297 286.013V283.957L1056.49 249.496V251.551Z" fill="#DA4F4E"/>
<path d="M1056.49 253.61L981.297 288.071V286.016L1056.49 251.555V253.61Z" fill="#DA4F4D"/>
<path d="M1056.49 255.665L981.297 290.126V288.071L1056.49 253.609V255.665Z" fill="#DA4E4C"/>
<path d="M1056.49 257.719L981.297 292.181V290.125L1056.49 255.664V257.719Z" fill="#DA4D4B"/>
<path d="M1056.49 259.774L981.297 294.236V292.18L1056.49 257.719V259.774Z" fill="#DA4D4A"/>
<path d="M1056.49 261.826L981.297 296.29V294.235L1056.49 259.773V261.826Z" fill="#DA4C49"/>
<path d="M1056.49 263.883L981.297 298.348V296.292L1056.49 261.828V263.883Z" fill="#DA4C48"/>
<path d="M1056.49 265.938L981.297 300.402V298.347L1056.49 263.883V265.938Z" fill="#DA4B47"/>
<path d="M1056.49 267.993L981.297 302.454V300.402L1056.49 265.938V267.993Z" fill="#D94B46"/>
<path d="M1056.49 270.048L981.297 304.509V302.454L1056.49 267.992V270.048Z" fill="#D94A45"/>
<path d="M1056.49 272.102L981.297 306.564V304.508L1056.49 270.047V272.102Z" fill="#D94A44"/>
<path d="M1056.49 274.157L981.297 308.618V306.563L1056.49 272.102V274.157Z" fill="#D94943"/>
<path d="M1056.49 276.212L981.297 310.673V308.618L1056.49 274.156V276.212Z" fill="#D94942"/>
<path d="M1056.49 278.27L981.297 312.732V310.676L1056.49 276.215V278.27Z" fill="#D94841"/>
<path d="M981.297 312.731L1056.49 278.27V348.612H981.297V312.731Z" fill="#D94841"/>
<path d="M1037.67 123.586L1034.28 125.142V123.586H1037.67Z" fill="#D94B46"/>
<path d="M1041.11 123.586L1034.28 126.714V125.142L1037.67 123.586H1041.11Z" fill="#D94B47"/>
<path d="M1044.55 123.586L1034.28 128.29V126.714L1041.11 123.586H1044.55Z" fill="#DA4B47"/>
<path d="M1047.98 123.586L1034.28 129.866V128.29L1044.55 123.586H1047.98Z" fill="#DA4C48"/>
<path d="M1051.42 123.586L1034.28 131.441V129.866L1047.98 123.586H1051.42Z" fill="#DA4C48"/>
<path d="M1054.85 123.586L1034.28 133.014V131.441L1051.42 123.586H1054.85Z" fill="#DA4C49"/>
<path d="M1056.49 124.412L1034.28 134.59V133.014L1054.85 123.586H1056.49V124.412Z" fill="#DA4D4A"/>
<path d="M1056.49 125.99L1034.28 136.167V134.592L1056.49 124.414V125.99Z" fill="#DA4D4A"/>
<path d="M1056.49 127.561L1034.28 137.741V136.166L1056.49 125.988V127.561Z" fill="#DA4D4B"/>
<path d="M1056.49 129.138L1034.28 139.316V137.743L1056.49 127.562V129.138Z" fill="#DA4E4B"/>
<path d="M1056.49 130.712L1034.28 140.89V139.314L1056.49 129.137V130.712Z" fill="#DA4E4C"/>
<path d="M1056.49 132.287L1034.28 142.464V140.888L1056.49 130.711V132.287Z" fill="#DA4E4D"/>
<path d="M1056.49 133.858L1034.28 144.038V142.463L1056.49 132.285V133.858Z" fill="#DA4F4D"/>
<path d="M1056.49 135.435L1034.28 145.612V144.04L1056.49 133.859V135.435Z" fill="#DA4F4E"/>
<path d="M1056.49 137.013L1034.28 147.191V145.615L1056.49 135.438V137.013Z" fill="#DA4F4F"/>
<path d="M1056.49 138.584L1034.28 148.765V147.189L1056.49 137.012V138.584Z" fill="#DA504F"/>
<path d="M1056.49 140.158L1034.28 150.338V148.762L1056.49 138.582V140.158Z" fill="#DA5050"/>
<path d="M1056.49 141.736L1034.28 151.913V150.34L1056.49 140.16V141.736Z" fill="#DA5151"/>
<path d="M1056.49 143.31L1034.28 153.487V151.912L1056.49 141.734V143.31Z" fill="#DA5152"/>
<path d="M1056.49 144.885L1034.28 155.066V153.49L1056.49 143.312V144.885Z" fill="#DA5152"/>
<path d="M1056.49 146.458L1034.28 156.639V155.063L1056.49 144.883V146.458Z" fill="#DB5253"/>
<path d="M1056.49 148.033L1034.28 158.21V156.637L1056.49 146.457V148.033Z" fill="#DB5254"/>
<path d="M1056.49 149.611L1034.28 159.788V158.213L1056.49 148.035V149.611Z" fill="#DB5355"/>
<path d="M1056.49 151.185L1034.28 161.362V159.787L1056.49 149.609V151.185Z" fill="#DB5356"/>
<path d="M1056.49 152.76L1034.28 162.941V161.365L1056.49 151.188V152.76Z" fill="#DB5457"/>
<path d="M1056.49 154.333L1034.28 164.511V162.938L1056.49 152.758V154.333Z" fill="#DB5458"/>
<path d="M1056.49 155.912L1034.28 166.089V164.513L1056.49 154.336V155.912Z" fill="#DB5559"/>
<path d="M1056.49 157.483L1034.28 167.663V166.088L1056.49 155.91V157.483Z" fill="#DB5559"/>
<path d="M1056.49 159.056L1034.28 169.234V167.661L1056.49 157.48V159.056Z" fill="#DB565A"/>
<path d="M1056.49 160.634L1034.28 170.812V169.236L1056.49 159.059V160.634Z" fill="#DB565B"/>
<path d="M1056.49 162.208L1034.28 172.386V170.81L1056.49 160.633V162.208Z" fill="#DB575C"/>
<path d="M1056.49 163.78L1034.28 173.96V172.385L1056.49 162.207V163.78Z" fill="#DB575D"/>
<path d="M1056.49 165.357L1034.28 175.537V173.962L1056.49 163.781V165.357Z" fill="#DB585F"/>
<path d="M1056.49 166.935L1034.28 177.112V175.54L1056.49 165.359V166.935Z" fill="#DC5960"/>
<path d="M1056.49 168.509L1034.28 178.687V177.111L1056.49 166.934V168.509Z" fill="#DC5961"/>
<path d="M1056.49 170.081L1034.28 180.261V178.685L1056.49 168.508V170.081Z" fill="#DC5A62"/>
<path d="M1056.49 171.658L1034.28 181.835V180.262L1056.49 170.082V171.658Z" fill="#DC5A63"/>
<path d="M1056.49 173.232L1034.28 183.409V181.834L1056.49 171.656V173.232Z" fill="#DC5B64"/>
<path d="M1056.49 174.806L1034.28 184.983V183.408L1056.49 173.23V174.806Z" fill="#DC5C65"/>
<path d="M1056.49 176.381L1034.28 186.562V184.986L1056.49 174.809V176.381Z" fill="#DC5C66"/>
<path d="M1056.49 177.958L1034.28 188.136V186.563L1056.49 176.383V177.958Z" fill="#DC5D68"/>
<path d="M1056.49 179.533L1034.28 189.71V188.135L1056.49 177.957V179.533Z" fill="#DC5E69"/>
<path d="M1056.49 181.107L1034.28 191.284V189.709L1056.49 179.531V181.107Z" fill="#DC5E6A"/>
<path d="M1056.49 182.682L1034.28 192.862V191.287L1056.49 181.109V182.682Z" fill="#DC5F6B"/>
<path d="M1056.49 184.255L1034.28 194.433V192.86L1056.49 182.68V184.255Z" fill="#DD606D"/>
<path d="M1056.49 185.833L1034.28 196.011V194.435L1056.49 184.258V185.833Z" fill="#DD606E"/>
<path d="M1056.49 187.405L1034.28 197.585V196.009L1056.49 185.832V187.405Z" fill="#DD616F"/>
<path d="M1056.49 188.982L1034.28 199.162V197.587L1056.49 187.406V188.982Z" fill="#DD6271"/>
<path d="M1056.49 190.556L1034.28 200.734V199.161L1056.49 188.98V190.556Z" fill="#DD6272"/>
<path d="M1056.49 192.13L1034.28 202.308V200.732L1056.49 190.555V192.13Z" fill="#DD6373"/>
<path d="M1056.49 193.708L1034.28 203.886V202.31L1056.49 192.133V193.708Z" fill="#DD6475"/>
<path d="M1056.49 195.28L1034.28 205.46V203.884L1056.49 193.707V195.28Z" fill="#DD6576"/>
<path d="M1056.49 196.857L1034.28 207.034V205.462L1056.49 195.281V196.857Z" fill="#DE6678"/>
<path d="M1056.49 198.431L1034.28 208.609V207.033L1056.49 196.855V198.431Z" fill="#DE6679"/>
<path d="M1056.49 200.002L1034.28 210.183V208.607L1056.49 198.43V200.002Z" fill="#DE677B"/>
<path d="M1056.49 201.579L1034.28 211.76V210.184L1056.49 200.004V201.579Z" fill="#DE687C"/>
<path d="M1056.49 203.154L1034.28 213.331V211.758L1056.49 201.578V203.154Z" fill="#DE697E"/>
<path d="M1056.49 204.728L1034.28 214.905V213.33L1056.49 203.152V204.728Z" fill="#DE6A7F"/>
<path d="M1056.49 206.303L1034.28 216.483V214.908L1056.49 204.73V206.303Z" fill="#DE6A81"/>
<path d="M1056.49 207.88L1034.28 218.058V216.485L1056.49 206.305V207.88Z" fill="#DE6B82"/>
<path d="M1056.49 209.454L1034.28 219.632V218.056L1056.49 207.879V209.454Z" fill="#DF6C84"/>
<path d="M1056.49 211.029L1034.28 221.206V219.631L1056.49 209.453V211.029Z" fill="#DF6D85"/>
<path d="M1056.49 212.604L1034.28 222.784V221.209L1056.49 211.031V212.604Z" fill="#DF6E87"/>
<path d="M1056.49 214.177L1034.28 224.357V222.782L1056.49 212.602V214.177Z" fill="#DF6F89"/>
<path d="M1056.49 215.755L1034.28 225.933V224.36L1056.49 214.18V215.755Z" fill="#DF708A"/>
<path d="M1056.49 217.33L1034.28 227.507V225.931L1056.49 215.754V217.33Z" fill="#DF718C"/>
<path d="M1056.49 218.901L1034.28 229.081V227.506L1056.49 217.328V218.901Z" fill="#DF728E"/>
<path d="M1056.49 220.478L1034.28 230.655V229.083L1056.49 218.902V220.478Z" fill="#DF7390"/>
<path d="M1056.49 222.052L1034.28 232.23V230.654L1056.49 220.477V222.052Z" fill="#E07391"/>
<path d="M1056.49 223.63L1034.28 233.808V232.232L1056.49 222.055V223.63Z" fill="#E07493"/>
<path d="M1056.49 225.202L1034.28 235.382V233.806L1056.49 223.629V225.202Z" fill="#E07595"/>
<path d="M1056.49 226.779L1034.28 236.956V235.383L1056.49 225.203V226.779Z" fill="#E07697"/>
<path d="M1056.49 228.353L1034.28 238.53V236.955L1056.49 226.777V228.353Z" fill="#E07799"/>
<path d="M1056.49 229.927L1034.28 240.105V238.529L1056.49 228.352V229.927Z" fill="#E0789A"/>
<path d="M1056.49 231.502L1034.28 241.683V240.107L1056.49 229.93V231.502Z" fill="#E1799C"/>
<path d="M1056.49 233.076L1034.28 243.253V241.68L1056.49 231.5V233.076Z" fill="#E17A9E"/>
<path d="M1056.49 234.654L1034.28 244.831V243.256L1056.49 233.078V234.654Z" fill="#E17BA0"/>
<path d="M1056.49 236.225L1034.28 246.405V244.83L1056.49 234.652V236.225Z" fill="#E17CA2"/>
<path d="M1056.49 237.802L1034.28 247.982V246.407L1056.49 236.227V237.802Z" fill="#E17EA4"/>
<path d="M1056.49 239.376L1034.28 249.554V247.981L1056.49 237.801V239.376Z" fill="#E17FA6"/>
<path d="M1056.49 240.951L1034.28 251.128V249.552L1056.49 239.375V240.951Z" fill="#E180A8"/>
<path d="M1056.49 242.529L1034.28 252.706V251.131L1056.49 240.953V242.529Z" fill="#E281AA"/>
<path d="M1056.49 244.1L1034.28 254.28V252.705L1056.49 242.527V244.1Z" fill="#E282AC"/>
<path d="M1056.49 245.677L1034.28 255.855V254.282L1056.49 244.102V245.677Z" fill="#E283AE"/>
<path d="M1034.28 255.853L1056.49 245.676V299.581H1034.28V255.853Z" fill="#E283AE"/>
<path d="M1252.16 82.4883H1127.17C1120.89 82.4883 1115.8 87.573 1115.8 93.8453C1115.8 100.118 1120.89 105.202 1127.17 105.202H1252.16C1258.43 105.202 1263.52 100.118 1263.52 93.8453C1263.52 87.573 1258.43 82.4883 1252.16 82.4883Z" fill="#4A86F7"/>
<path d="M995.907 200.527H995.586C993.649 200.527 992.078 202.097 992.078 204.033V309.462C992.078 311.398 993.649 312.968 995.586 312.968H995.907C997.844 312.968 999.414 311.398 999.414 309.462V204.033C999.414 202.097 997.844 200.527 995.907 200.527Z" fill="#FADD6F"/>
<path d="M1008.3 200.441H1007.99C1006.06 200.441 1004.49 202.006 1004.49 203.936V309.387C1004.49 311.317 1006.06 312.882 1007.99 312.882H1008.3C1010.23 312.882 1011.8 311.317 1011.8 309.387V203.936C1011.8 202.006 1010.23 200.441 1008.3 200.441Z" fill="#FADD6F"/>
<path d="M1020.7 200.613H1020.39C1018.46 200.613 1016.89 202.178 1016.89 204.108V309.559C1016.89 311.489 1018.46 313.054 1020.39 313.054H1020.7C1022.63 313.054 1024.2 311.489 1024.2 309.559V204.108C1024.2 202.178 1022.63 200.613 1020.7 200.613Z" fill="#FADD6F"/>
<path d="M1232.23 55.4688H1148.81C1143.98 55.4688 1140.06 59.3848 1140.06 64.2154C1140.06 69.046 1143.98 72.9621 1148.81 72.9621H1232.23C1237.06 72.9621 1240.98 69.046 1240.98 64.2154C1240.98 59.3848 1237.06 55.4688 1232.23 55.4688Z" fill="#FADD6F"/>
<path d="M1056.5 687.309H921.731V418.712C921.731 401.022 925.217 383.506 931.99 367.164C938.763 350.821 948.69 335.972 961.205 323.464C973.719 310.957 988.576 301.035 1004.93 294.267C1021.28 287.499 1038.8 284.016 1056.5 284.017V284.017V687.309Z" fill="#83BF6E"/>
<path d="M1125.63 123.589H1271.5C1274.51 123.589 1277.5 124.182 1280.29 125.336C1283.07 126.489 1285.6 128.18 1287.74 130.311C1289.87 132.443 1291.56 134.973 1292.71 137.758C1293.87 140.542 1294.46 143.527 1294.46 146.541V658.367C1294.46 662.294 1292.9 666.06 1290.12 668.837C1287.34 671.614 1283.58 673.174 1279.65 673.174H1125.63C1123.68 673.175 1121.76 672.792 1119.96 672.048C1118.16 671.304 1116.53 670.213 1115.15 668.838C1113.78 667.463 1112.69 665.831 1111.94 664.034C1111.2 662.237 1110.81 660.312 1110.81 658.367V138.394C1110.81 134.466 1112.37 130.7 1115.15 127.923C1117.93 125.146 1121.7 123.586 1125.63 123.586L1125.63 123.589Z" fill="#4A86F7"/>
<path d="M1103.8 123.586H1272.63V658.364C1272.63 662.291 1271.07 666.058 1268.29 668.835C1265.51 671.611 1261.74 673.172 1257.82 673.172H1103.8C1099.87 673.172 1096.1 671.611 1093.32 668.835C1090.55 666.058 1088.98 662.291 1088.98 658.364V138.391C1088.99 134.464 1090.55 130.698 1093.32 127.922C1096.1 125.146 1099.87 123.586 1103.8 123.586V123.586Z" fill="#57B6F0"/>
<path d="M1268.31 426.59H1386.33C1391.1 426.59 1395.68 428.485 1399.05 431.857C1402.43 435.23 1404.32 439.805 1404.32 444.574C1404.32 449.344 1402.43 453.918 1399.05 457.291C1395.68 460.664 1391.1 462.559 1386.33 462.559H1268.31V426.59Z" fill="#57B6F0"/>
<path d="M553.758 583.141H678.463C684.817 583.141 689.969 577.992 689.969 571.64V557.304C689.969 550.952 684.817 545.803 678.463 545.803H553.758C547.403 545.803 542.252 550.952 542.252 557.304V571.64C542.252 577.992 547.403 583.141 553.758 583.141Z" fill="#F2A84C"/>
<g opacity="0.55">
<path opacity="0.55" d="M688.023 559.02H674.444V551.772H688.023C688.848 551.772 689.639 552.099 690.222 552.682C690.805 553.265 691.133 554.056 691.133 554.88V555.925C691.129 556.747 690.8 557.534 690.217 558.114C689.634 558.694 688.845 559.02 688.023 559.02V559.02Z" fill="#F7F8FA"/>
</g>
<g opacity="0.55">
<path opacity="0.55" d="M653.975 559.02H670.664V551.772H653.975V559.02Z" fill="#F7F8FA"/>
</g>
<g opacity="0.55">
<path opacity="0.55" d="M633.506 559.02H650.195V551.772H633.506V559.02Z" fill="#F7F8FA"/>
</g>
<g opacity="0.55">
<path opacity="0.55" d="M613.037 559.02H629.727V551.772H613.037V559.02Z" fill="#F7F8FA"/>
</g>
<g opacity="0.55">
<path opacity="0.55" d="M592.569 559.02H609.258V551.772H592.569V559.02Z" fill="#F7F8FA"/>
</g>
<g opacity="0.55">
<path opacity="0.55" d="M572.108 559.02H588.797V551.772H572.108V559.02Z" fill="#F7F8FA"/>
</g>
<g opacity="0.55">
<path opacity="0.55" d="M568.008 559.023H554.943C554.467 559.023 553.996 558.93 553.556 558.748C553.116 558.566 552.717 558.299 552.38 557.962C552.044 557.626 551.777 557.227 551.595 556.787C551.412 556.348 551.319 555.877 551.319 555.401C551.319 554.44 551.701 553.519 552.38 552.84C553.06 552.16 553.982 551.779 554.943 551.779H568.008V559.023Z" fill="#F7F8FA"/>
</g>
<path d="M392.765 583.141H517.471C523.825 583.141 528.977 577.992 528.977 571.64V557.304C528.977 550.952 523.825 545.803 517.471 545.803H392.765C386.411 545.803 381.26 550.952 381.26 557.304V571.64C381.26 577.992 386.411 583.141 392.765 583.141Z" fill="#F2A84C"/>
<g opacity="0.55">
<path opacity="0.55" d="M527.03 559.02H513.451V551.772H527.03C527.855 551.772 528.646 552.099 529.229 552.682C529.812 553.265 530.14 554.056 530.14 554.88V555.925C530.136 556.747 529.807 557.534 529.224 558.114C528.641 558.694 527.852 559.02 527.03 559.02V559.02Z" fill="#F7F8FA"/>
</g>
<g opacity="0.55">
<path opacity="0.55" d="M492.983 559.02H509.672V551.772H492.983V559.02Z" fill="#F7F8FA"/>
</g>
<g opacity="0.55">
<path opacity="0.55" d="M472.514 559.02H489.203V551.772H472.514V559.02Z" fill="#F7F8FA"/>
</g>
<g opacity="0.55">
<path opacity="0.55" d="M452.045 559.02H468.734V551.772H452.045V559.02Z" fill="#F7F8FA"/>
</g>
<g opacity="0.55">
<path opacity="0.55" d="M431.584 559.02H448.273V551.772H431.584V559.02Z" fill="#F7F8FA"/>
</g>
<g opacity="0.55">
<path opacity="0.55" d="M411.108 559.02H427.797V551.772H411.108V559.02Z" fill="#F7F8FA"/>
</g>
<g opacity="0.55">
<path opacity="0.55" d="M407.014 559.02H393.949C393.473 559.02 393.002 558.926 392.562 558.744C392.123 558.562 391.723 558.295 391.387 557.959C391.05 557.622 390.783 557.223 390.601 556.783C390.419 556.344 390.325 555.873 390.325 555.397V555.397C390.325 554.92 390.419 554.447 390.602 554.006C390.785 553.565 391.053 553.165 391.392 552.828C391.73 552.491 392.132 552.224 392.573 552.043C393.015 551.862 393.489 551.77 393.966 551.772H407.031V559.02H407.014Z" fill="#F7F8FA"/>
</g>
<g opacity="0.57">
<path opacity="0.57" d="M1056.32 354.25H976.192C972.181 354.25 968.93 357.499 968.93 361.508C968.93 365.516 972.181 368.765 976.192 368.765H1056.32C1060.33 368.765 1063.59 365.516 1063.59 361.508C1063.59 357.499 1060.33 354.25 1056.32 354.25Z" fill="#F7F8FA"/>
</g>
<g opacity="0.57">
<path opacity="0.57" d="M1056.32 379.352H976.192C972.181 379.352 968.93 382.601 968.93 386.609C968.93 390.617 972.181 393.867 976.192 393.867H1056.32C1060.33 393.867 1063.59 390.617 1063.59 386.609C1063.59 382.601 1060.33 379.352 1056.32 379.352Z" fill="#F7F8FA"/>
</g>
<g opacity="0.57">
<path opacity="0.57" d="M1056.32 404.445H976.192C972.181 404.445 968.93 407.695 968.93 411.703C968.93 415.711 972.181 418.961 976.192 418.961H1056.32C1060.33 418.961 1063.59 415.711 1063.59 411.703C1063.59 407.695 1060.33 404.445 1056.32 404.445Z" fill="#F7F8FA"/>
</g>
<g opacity="0.57">
<path opacity="0.57" d="M1056.32 429.539H976.192C972.181 429.539 968.93 432.788 968.93 436.797C968.93 440.805 972.181 444.055 976.192 444.055H1056.32C1060.33 444.055 1063.59 440.805 1063.59 436.797C1063.59 432.788 1060.33 429.539 1056.32 429.539Z" fill="#F7F8FA"/>
</g>
<g opacity="0.57">
<path opacity="0.57" d="M1056.32 454.637H976.192C972.181 454.637 968.93 457.886 968.93 461.894C968.93 465.903 972.181 469.152 976.192 469.152H1056.32C1060.33 469.152 1063.59 465.903 1063.59 461.894C1063.59 457.886 1060.33 454.637 1056.32 454.637Z" fill="#F7F8FA"/>
</g>
<g opacity="0.57">
<path opacity="0.57" d="M1056.32 479.734H976.192C972.181 479.734 968.93 482.984 968.93 486.992C968.93 491 972.181 494.25 976.192 494.25H1056.32C1060.33 494.25 1063.59 491 1063.59 486.992C1063.59 482.984 1060.33 479.734 1056.32 479.734Z" fill="#F7F8FA"/>
</g>
<g opacity="0.57">
<path opacity="0.57" d="M848.419 382.297H785.133V392.003H848.419V382.297Z" fill="#F7F8FA"/>
</g>
<g opacity="0.57">
<path opacity="0.57" d="M848.419 399.078H785.133V408.784H848.419V399.078Z" fill="#F7F8FA"/>
</g>
<g opacity="0.57">
<path opacity="0.57" d="M848.419 415.855H785.133V425.562H848.419V415.855Z" fill="#F7F8FA"/>
</g>
<g opacity="0.57">
<path opacity="0.57" d="M848.419 432.637H785.133V442.343H848.419V432.637Z" fill="#F7F8FA"/>
</g>
<g opacity="0.57">
<path opacity="0.57" d="M848.419 449.414H785.133V459.12H848.419V449.414Z" fill="#F7F8FA"/>
</g>
<g opacity="0.64">
<g opacity="0.57">
<path opacity="0.57" d="M1331.25 490.199V494.137H1370.28C1370.79 494.117 1371.27 493.902 1371.62 493.534C1371.98 493.167 1372.17 492.678 1372.17 492.168C1372.17 491.658 1371.98 491.169 1371.62 490.802C1371.27 490.434 1370.79 490.219 1370.28 490.199H1331.25Z" fill="#F7F8FA"/>
</g>
<g opacity="0.57">
<path opacity="0.57" d="M1331.25 497.008V500.945H1370.28C1370.79 500.926 1371.27 500.71 1371.62 500.343C1371.98 499.976 1372.17 499.486 1372.17 498.977C1372.17 498.467 1371.98 497.977 1371.62 497.61C1371.27 497.243 1370.79 497.027 1370.28 497.008H1331.25Z" fill="#F7F8FA"/>
</g>
<g opacity="0.57">
<path opacity="0.57" d="M1331.25 503.815V507.742H1370.28C1370.67 507.741 1371.05 507.625 1371.37 507.408C1371.69 507.192 1371.95 506.884 1372.09 506.525C1372.24 506.165 1372.28 505.77 1372.21 505.388C1372.13 505.007 1371.94 504.656 1371.67 504.38C1371.49 504.198 1371.27 504.055 1371.03 503.957C1370.79 503.86 1370.54 503.811 1370.28 503.813L1331.25 503.815Z" fill="#F7F8FA"/>
</g>
<g opacity="0.57">
<path opacity="0.57" d="M1331.25 510.623V514.555H1370.28C1370.8 514.554 1371.3 514.346 1371.67 513.977C1372.04 513.607 1372.25 513.107 1372.25 512.585C1372.25 512.063 1372.04 511.562 1371.67 511.193C1371.3 510.824 1370.8 510.617 1370.28 510.617L1331.25 510.623Z" fill="#F7F8FA"/>
</g>
<g opacity="0.57">
<path opacity="0.57" d="M1331.25 517.43V521.367H1370.28C1370.67 521.366 1371.05 521.25 1371.37 521.034C1371.69 520.817 1371.95 520.51 1372.09 520.15C1372.24 519.791 1372.28 519.396 1372.21 519.014C1372.13 518.632 1371.94 518.282 1371.67 518.006C1371.49 517.824 1371.27 517.68 1371.03 517.583C1370.79 517.485 1370.54 517.436 1370.28 517.438L1331.25 517.43Z" fill="#F7F8FA"/>
</g>
<g opacity="0.57">
<path opacity="0.57" d="M1331.25 523.887V527.821H1370.28C1370.8 527.821 1371.3 527.614 1371.67 527.245C1372.04 526.876 1372.25 526.376 1372.25 525.854C1372.25 525.332 1372.04 524.832 1371.67 524.463C1371.3 524.094 1370.8 523.887 1370.28 523.887H1331.25Z" fill="#F7F8FA"/>
</g>
<g opacity="0.57">
<path opacity="0.57" d="M1331.25 530.695V534.63H1370.28C1370.8 534.63 1371.3 534.423 1371.67 534.054C1372.04 533.685 1372.25 533.184 1372.25 532.663C1372.25 532.141 1372.04 531.64 1371.67 531.271C1371.3 530.903 1370.8 530.695 1370.28 530.695H1331.25Z" fill="#F7F8FA"/>
</g>
<g opacity="0.57">
<path opacity="0.57" d="M1331.25 537.5V541.435H1370.28C1370.8 541.435 1371.3 541.227 1371.67 540.859C1372.04 540.49 1372.25 539.989 1372.25 539.467C1372.25 538.946 1372.04 538.445 1371.67 538.076C1371.3 537.707 1370.8 537.5 1370.28 537.5H1331.25Z" fill="#F7F8FA"/>
</g>
<g opacity="0.57">
<path opacity="0.57" d="M1331.25 544.305V548.242H1370.28C1370.79 548.223 1371.27 548.007 1371.62 547.64C1371.98 547.273 1372.17 546.783 1372.17 546.273C1372.17 545.764 1371.98 545.274 1371.62 544.907C1371.27 544.54 1370.79 544.324 1370.28 544.305H1331.25Z" fill="#F7F8FA"/>
</g>
<g opacity="0.57">
<path opacity="0.57" d="M1331.25 551.109V555.05H1370.28C1370.8 555.05 1371.3 554.842 1371.67 554.473C1372.04 554.103 1372.25 553.602 1372.25 553.08C1372.25 552.557 1372.04 552.056 1371.67 551.686C1371.3 551.317 1370.8 551.109 1370.28 551.109H1331.25Z" fill="#F7F8FA"/>
</g>
<g opacity="0.57">
<path opacity="0.57" d="M1331.25 557.57V561.508H1370.28C1370.8 561.507 1371.3 561.299 1371.67 560.93C1372.04 560.56 1372.25 560.06 1372.25 559.538C1372.25 559.016 1372.04 558.515 1371.67 558.147C1371.3 557.778 1370.8 557.57 1370.28 557.57H1331.25Z" fill="#F7F8FA"/>
</g>
<g opacity="0.57">
<path opacity="0.57" d="M1331.25 564.375V568.313H1370.28C1370.67 568.312 1371.05 568.196 1371.37 567.979C1371.69 567.763 1371.95 567.455 1372.09 567.096C1372.24 566.736 1372.28 566.341 1372.21 565.959C1372.13 565.578 1371.94 565.227 1371.67 564.951C1371.49 564.769 1371.27 564.626 1371.03 564.528C1370.79 564.431 1370.54 564.381 1370.28 564.384L1331.25 564.375Z" fill="#F7F8FA"/>
</g>
<g opacity="0.57">
<path opacity="0.57" d="M1331.25 571.184V575.121H1370.28C1370.8 575.12 1371.3 574.912 1371.67 574.543C1372.04 574.174 1372.25 573.673 1372.25 573.151C1372.25 572.629 1372.04 572.129 1371.67 571.76C1371.3 571.391 1370.8 571.184 1370.28 571.184H1331.25Z" fill="#F7F8FA"/>
</g>
<g opacity="0.57">
<path opacity="0.57" d="M1331.25 577.988V581.929H1370.28C1370.8 581.929 1371.3 581.721 1371.67 581.352C1372.04 580.982 1372.25 580.481 1372.25 579.958C1372.25 579.436 1372.04 578.935 1371.67 578.565C1371.3 578.196 1370.8 577.988 1370.28 577.988H1331.25Z" fill="#F7F8FA"/>
</g>
<g opacity="0.57">
<path opacity="0.57" d="M1331.25 584.797V588.734H1370.28C1370.79 588.715 1371.27 588.499 1371.62 588.132C1371.98 587.765 1372.17 587.275 1372.17 586.766C1372.17 586.256 1371.98 585.766 1371.62 585.399C1371.27 585.032 1370.79 584.816 1370.28 584.797H1331.25Z" fill="#F7F8FA"/>
</g>
</g>
<path d="M1088.98 501.281L1056.48 501.483V500.555H1088.98V501.281Z" fill="#6BB474"/>
<path d="M1088.98 503.771L1056.48 503.972V501.483L1088.98 501.281V503.771Z" fill="#6AB374"/>
<path d="M1088.98 506.263L1056.48 506.465V503.975L1088.98 503.773V506.263Z" fill="#69B274"/>
<path d="M1088.98 508.751L1056.48 508.953V506.463L1088.98 506.262V508.751Z" fill="#68B173"/>
<path d="M1088.98 511.24L1056.48 511.441V508.952L1088.98 508.75V511.24Z" fill="#67B073"/>
<path d="M1088.98 513.732L1056.48 513.934V511.444L1088.98 511.242V513.732Z" fill="#66AF72"/>
<path d="M1088.98 516.22L1056.48 516.422V513.932L1088.98 513.73V516.22Z" fill="#65AE72"/>
<path d="M1088.98 518.709L1056.48 518.91V516.42L1088.98 516.219V518.709Z" fill="#64AD71"/>
<path d="M1088.98 521.201L1056.48 521.402V518.913L1088.98 518.711V521.201Z" fill="#63AC71"/>
<path d="M1088.98 523.689L1056.48 523.89V521.401L1088.98 521.199V523.689Z" fill="#62AB70"/>
<path d="M1088.98 526.174L1056.48 526.379V523.889L1088.98 523.688V526.174Z" fill="#61AA70"/>
<path d="M1088.98 528.665L1056.48 528.87V526.38L1088.98 526.176V528.665Z" fill="#60A96F"/>
<path d="M1088.98 531.154L1056.48 531.355V528.868L1088.98 528.664V531.154Z" fill="#5FA86F"/>
<path d="M1088.98 533.646L1056.48 533.847V531.358L1088.98 531.156V533.646Z" fill="#5EA76F"/>
<path d="M1088.98 536.134L1056.48 536.336V533.846L1088.98 533.645V536.134Z" fill="#5DA66E"/>
<path d="M1088.98 538.623L1056.48 538.824V536.334L1088.98 536.133V538.623Z" fill="#5CA56E"/>
<path d="M1088.98 541.115L1056.48 541.316V538.827L1088.98 538.625V541.115Z" fill="#5BA46D"/>
<path d="M1088.98 543.603L1056.48 543.804V541.315L1088.98 541.113V543.603Z" fill="#5BA26D"/>
<path d="M1088.98 546.095L1056.48 546.297V543.807L1088.98 543.605V546.095Z" fill="#5AA16C"/>
<path d="M1088.98 548.583L1056.48 548.785V546.295L1088.98 546.094V548.583Z" fill="#59A06C"/>
<path d="M1088.98 551.076L1056.48 551.277V548.787L1088.98 548.586V551.076Z" fill="#589F6B"/>
<path d="M1088.98 553.564L1056.48 553.766V551.276L1088.98 551.074V553.564Z" fill="#579E6B"/>
<path d="M1088.98 556.052L1056.48 556.254V553.764L1088.98 553.562V556.052Z" fill="#569D6B"/>
<path d="M1088.98 558.541L1056.48 558.742V556.252L1088.98 556.051V558.541Z" fill="#559C6A"/>
<path d="M1088.98 561.033L1056.48 561.234V558.745L1088.98 558.543V561.033Z" fill="#549B6A"/>
<path d="M1088.98 563.521L1056.48 563.723V561.233L1088.98 561.031V563.521Z" fill="#539A69"/>
<path d="M1088.98 566.013L1056.48 566.215V563.725L1088.98 563.523V566.013Z" fill="#529969"/>
<path d="M1088.98 568.501L1056.48 568.703V566.213L1088.98 566.012V568.501Z" fill="#519868"/>
<path d="M1088.98 570.99L1056.48 571.191V568.702L1088.98 568.5V570.99Z" fill="#509768"/>
<path d="M1088.98 573.482L1056.48 573.683V571.194L1088.98 570.992V573.482Z" fill="#4F9667"/>
<path d="M1088.98 575.97L1056.48 576.172V573.682L1088.98 573.48V575.97Z" fill="#4E9567"/>
<path d="M1088.98 578.459L1056.48 578.66V576.17L1088.98 575.969V578.459Z" fill="#4D9466"/>
<path d="M1088.98 580.951L1056.48 581.152V578.662L1088.98 578.461V580.951Z" fill="#4C9366"/>
<path d="M1088.98 583.439L1056.48 583.641V581.151L1088.98 580.949V583.439Z" fill="#4B9266"/>
<path d="M1088.98 585.931L1056.48 586.133V583.643L1088.98 583.441V585.931Z" fill="#4A9165"/>
<path d="M1088.98 588.419L1056.48 588.621V586.131L1088.98 585.93V588.419Z" fill="#499065"/>
<path d="M1088.98 590.908L1056.48 591.109V588.62L1088.98 588.418V590.908Z" fill="#488F64"/>
<path d="M1088.98 593.4L1056.48 593.602V591.112L1088.98 590.91V593.4Z" fill="#478E64"/>
<path d="M1088.98 595.888L1056.48 596.09V593.6L1088.98 593.398V595.888Z" fill="#468D63"/>
<path d="M1088.98 598.38L1056.48 598.582V596.092L1088.98 595.891V598.38Z" fill="#458C63"/>
<path d="M1088.98 600.869L1056.48 601.07V598.58L1088.98 598.379V600.869Z" fill="#448B62"/>
<path d="M1088.98 603.357L1056.48 603.558V601.069L1088.98 600.867V603.357Z" fill="#438A62"/>
<path d="M1056.48 603.557L1088.98 603.355V617.036H1056.48V603.557Z" fill="#438A62"/>
<path d="M332.341 570.172H328.492V663.904H332.341V570.172Z" fill="#E283AE"/>
<path d="M336.192 570.172H332.344V663.904H336.192V570.172Z" fill="#E282AD"/>
<path d="M340.044 570.172H336.195V663.904H340.044V570.172Z" fill="#E282AC"/>
<path d="M343.888 570.172H340.039V663.904H343.888V570.172Z" fill="#E281AB"/>
<path d="M347.739 570.172H343.891V663.904H347.739V570.172Z" fill="#E281AA"/>
<path d="M351.591 570.172H347.742V663.904H351.591V570.172Z" fill="#E280A9"/>
<path d="M355.442 570.172H351.594V663.904H355.442V570.172Z" fill="#E280A8"/>
<path d="M359.286 570.172H355.438V663.904H359.286V570.172Z" fill="#E17FA7"/>
<path d="M363.138 570.172H359.289V663.904H363.138V570.172Z" fill="#E17FA6"/>
<path d="M366.989 570.172H363.141V663.904H366.989V570.172Z" fill="#E17EA5"/>
<path d="M370.841 570.172H366.992V663.904H370.841V570.172Z" fill="#E17EA4"/>
<path d="M374.684 570.172H370.836V663.904H374.684V570.172Z" fill="#E17DA3"/>
<path d="M378.536 570.172H374.688V663.904H378.536V570.172Z" fill="#E17CA2"/>
<path d="M382.388 570.172H378.539V663.904H382.388V570.172Z" fill="#E17CA1"/>
<path d="M386.231 570.172H382.383V663.904H386.231V570.172Z" fill="#E17BA0"/>
<path d="M390.091 570.172H386.242V663.904H390.091V570.172Z" fill="#E17B9F"/>
<path d="M393.934 570.172H390.086V663.904H393.934V570.172Z" fill="#E17A9E"/>
<path d="M397.786 570.172H393.938V663.904H397.786V570.172Z" fill="#E17A9D"/>
<path d="M401.638 570.172H397.789V663.904H401.638V570.172Z" fill="#E1799C"/>
<path d="M405.489 570.172H401.641V663.904H405.489V570.172Z" fill="#E0799B"/>
<path d="M409.341 570.172H405.492V663.904H409.341V570.172Z" fill="#E0789A"/>
<path d="M413.192 570.172H409.344V663.904H413.192V570.172Z" fill="#E07899"/>
<path d="M417.036 570.172H413.188V663.904H417.036V570.172Z" fill="#E07798"/>
<path d="M420.888 570.172H417.039V663.904H420.888V570.172Z" fill="#E07697"/>
<path d="M424.739 570.172H420.891V663.904H424.739V570.172Z" fill="#E07696"/>
<path d="M428.591 570.172H424.742V663.904H428.591V570.172Z" fill="#E07595"/>
<path d="M432.434 570.172H428.586V663.904H432.434V570.172Z" fill="#E07594"/>
<path d="M436.286 570.172H432.438V663.904H436.286V570.172Z" fill="#E07493"/>
<path d="M440.13 570.172H436.281V663.904H440.13V570.172Z" fill="#E07492"/>
<path d="M443.989 570.172H440.141V663.904H443.989V570.172Z" fill="#E07391"/>
<path d="M447.833 570.172H443.984V663.904H447.833V570.172Z" fill="#E07390"/>
<path d="M451.684 570.172H447.836V663.904H451.684V570.172Z" fill="#DF728F"/>
<path d="M455.536 570.172H451.688V663.904H455.536V570.172Z" fill="#DF728E"/>
<path d="M459.38 570.172H455.531V663.904H459.38V570.172Z" fill="#DF718D"/>
<path d="M463.239 570.172H459.391V663.904H463.239V570.172Z" fill="#DF708C"/>
<path d="M467.083 570.172H463.234V663.904H467.083V570.172Z" fill="#DF708B"/>
<path d="M470.934 570.172H467.086V663.904H470.934V570.172Z" fill="#DF6F8A"/>
<path d="M474.786 570.172H470.938V663.904H474.786V570.172Z" fill="#DF6F89"/>
<path d="M478.63 570.172H474.781V663.904H478.63V570.172Z" fill="#DF6E88"/>
<path d="M482.481 570.172H478.633V663.904H482.481V570.172Z" fill="#DF6E87"/>
<path d="M486.333 570.172H482.484V663.904H486.333V570.172Z" fill="#DF6D86"/>
<path d="M490.184 570.172H486.336V663.904H490.184V570.172Z" fill="#DF6D85"/>
<path d="M494.028 570.172H490.18V663.904H494.028V570.172Z" fill="#DF6C84"/>
<path d="M497.88 570.172H494.031V663.904H497.88V570.172Z" fill="#DE6C83"/>
<path d="M501.731 570.172H497.883V663.904H501.731V570.172Z" fill="#DE6B82"/>
<path d="M505.583 570.172H501.734V663.904H505.583V570.172Z" fill="#DE6A81"/>
<path d="M509.427 570.172H505.578V663.904H509.427V570.172Z" fill="#DE6A80"/>
<path d="M513.278 570.172H509.43V663.904H513.278V570.172Z" fill="#DE697F"/>
<path d="M517.13 570.172H513.281V663.904H517.13V570.172Z" fill="#DE697E"/>
<path d="M520.981 570.172H517.133V663.904H520.981V570.172Z" fill="#DE687D"/>
<path d="M524.833 570.172H520.984V663.904H524.833V570.172Z" fill="#DE687C"/>
<path d="M528.677 570.172H524.828V663.904H528.677V570.172Z" fill="#DE677B"/>
<path d="M532.528 570.172H528.68V663.904H532.528V570.172Z" fill="#DE677A"/>
<path d="M536.38 570.172H532.531V663.904H536.38V570.172Z" fill="#DE6679"/>
<path d="M540.231 570.172H536.383V663.904H540.231V570.172Z" fill="#DE6678"/>
<path d="M544.075 570.172H540.227V663.904H544.075V570.172Z" fill="#DD6576"/>
<path d="M547.927 570.172H544.078V663.904H547.927V570.172Z" fill="#DD6475"/>
<path d="M551.778 570.172H547.93V663.904H551.778V570.172Z" fill="#DD6474"/>
<path d="M555.63 570.172H551.781V663.904H555.63V570.172Z" fill="#DD6373"/>
<path d="M559.481 570.172H555.633V663.904H559.481V570.172Z" fill="#DD6372"/>
<path d="M563.325 570.172H559.477V663.904H563.325V570.172Z" fill="#DD6271"/>
<path d="M567.177 570.172H563.328V663.904H567.177V570.172Z" fill="#DD6270"/>
<path d="M571.028 570.172H567.18V663.904H571.028V570.172Z" fill="#DD616F"/>
<path d="M574.88 570.172H571.031V663.904H574.88V570.172Z" fill="#DD616E"/>
<path d="M578.731 570.172H574.883V663.904H578.731V570.172Z" fill="#DD606D"/>
<path d="M582.575 570.172H578.727V663.904H582.575V570.172Z" fill="#DD5F6C"/>
<path d="M586.427 570.172H582.578V663.904H586.427V570.172Z" fill="#DD5F6B"/>
<path d="M590.278 570.172H586.43V663.904H590.278V570.172Z" fill="#DC5E6A"/>
<path d="M594.13 570.172H590.281V663.904H594.13V570.172Z" fill="#DC5E69"/>
<path d="M597.981 570.172H594.133V663.904H597.981V570.172Z" fill="#DC5D68"/>
<path d="M601.825 570.172H597.977V663.904H601.825V570.172Z" fill="#DC5D67"/>
<path d="M605.677 570.172H601.828V663.904H605.677V570.172Z" fill="#DC5C66"/>
<path d="M609.528 570.172H605.68V663.904H609.528V570.172Z" fill="#DC5C65"/>
<path d="M613.38 570.172H609.531V663.904H613.38V570.172Z" fill="#DC5B64"/>
<path d="M617.224 570.172H613.375V663.904H617.224V570.172Z" fill="#DC5B63"/>
<path d="M621.075 570.172H617.227V663.904H621.075V570.172Z" fill="#DC5A62"/>
<path d="M624.927 570.172H621.078V663.904H624.927V570.172Z" fill="#DC5961"/>
<path d="M628.778 570.172H624.93V663.904H628.778V570.172Z" fill="#DC5960"/>
<path d="M632.622 570.172H628.773V663.904H632.622V570.172Z" fill="#DC585F"/>
<path d="M636.473 570.172H632.625V663.904H636.473V570.172Z" fill="#DB585E"/>
<path d="M640.325 570.172H636.477V663.904H640.325V570.172Z" fill="#DB575D"/>
<path d="M644.169 570.172H640.32V663.904H644.169V570.172Z" fill="#DB575C"/>
<path d="M648.028 570.172H644.18V663.904H648.028V570.172Z" fill="#DB565B"/>
<path d="M651.872 570.172H648.023V663.904H651.872V570.172Z" fill="#DB565A"/>
<path d="M655.724 570.172H651.875V663.904H655.724V570.172Z" fill="#DB5559"/>
<path d="M659.575 570.172H655.727V663.904H659.575V570.172Z" fill="#DB5558"/>
<path d="M663.427 570.172H659.578V663.904H663.427V570.172Z" fill="#DB5457"/>
<path d="M667.278 570.172H663.43V663.904H667.278V570.172Z" fill="#DB5356"/>
<path d="M671.122 570.172H667.273V663.904H671.122V570.172Z" fill="#DB5355"/>
<path d="M674.973 570.172H671.125V663.904H674.973V570.172Z" fill="#DB5254"/>
<path d="M678.817 570.172H674.969V663.904H678.817V570.172Z" fill="#DB5253"/>
<path d="M682.677 570.172H678.828V663.904H682.677V570.172Z" fill="#DA5152"/>
<path d="M686.52 570.172H682.672V663.904H686.52V570.172Z" fill="#DA5151"/>
<path d="M690.372 570.172H686.523V663.904H690.372V570.172Z" fill="#DA5050"/>
<path d="M694.224 570.172H690.375V663.904H694.224V570.172Z" fill="#DA504F"/>
<path d="M698.067 570.172H694.219V663.904H698.067V570.172Z" fill="#DA4F4E"/>
<path d="M701.927 570.172H698.078V663.904H701.927V570.172Z" fill="#DA4F4D"/>
<path d="M705.77 570.172H701.922V663.904H705.77V570.172Z" fill="#DA4E4C"/>
<path d="M709.622 570.172H705.773V663.904H709.622V570.172Z" fill="#DA4D4B"/>
<path d="M713.473 570.172H709.625V663.904H713.473V570.172Z" fill="#DA4D4A"/>
<path d="M717.317 570.172H713.469V663.904H717.317V570.172Z" fill="#DA4C49"/>
<path d="M721.177 570.172H717.328V663.904H721.177V570.172Z" fill="#DA4C48"/>
<path d="M725.02 570.172H721.172V663.904H725.02V570.172Z" fill="#DA4B47"/>
<path d="M728.864 570.172H725.016V663.904H728.864V570.172Z" fill="#D94B46"/>
<path d="M732.716 570.172H728.867V663.904H732.716V570.172Z" fill="#D94A45"/>
<path d="M736.567 570.172H732.719V663.904H736.567V570.172Z" fill="#D94A44"/>
<path d="M740.419 570.172H736.57V663.904H740.419V570.172Z" fill="#D94943"/>
<path d="M744.27 570.172H740.422V663.904H744.27V570.172Z" fill="#D94942"/>
<path d="M748.122 570.172H744.273V663.904H748.122V570.172Z" fill="#D94841"/>
<g opacity="0.51">
<path opacity="0.51" d="M1108.17 134.812H1106.74C1103.18 134.812 1100.3 137.696 1100.3 141.254V202.94C1100.3 206.498 1103.18 209.382 1106.74 209.382H1108.17C1111.73 209.382 1114.61 206.498 1114.61 202.94V141.254C1114.61 137.696 1111.73 134.812 1108.17 134.812Z" fill="#F7F8FA"/>
<path opacity="0.51" d="M1108.17 222.062H1106.74C1103.18 222.062 1100.3 224.946 1100.3 228.504V290.19C1100.3 293.748 1103.18 296.632 1106.74 296.632H1108.17C1111.73 296.632 1114.61 293.748 1114.61 290.19V228.504C1114.61 224.946 1111.73 222.062 1108.17 222.062Z" fill="#F7F8FA"/>
<path opacity="0.51" d="M1108.17 309.312H1106.74C1103.18 309.312 1100.3 312.196 1100.3 315.754V377.44C1100.3 380.998 1103.18 383.882 1106.74 383.882H1108.17C1111.73 383.882 1114.61 380.998 1114.61 377.44V315.754C1114.61 312.196 1111.73 309.312 1108.17 309.312Z" fill="#F7F8FA"/>
<path opacity="0.51" d="M1108.17 396.562H1106.74C1103.18 396.562 1100.3 399.446 1100.3 403.004V464.69C1100.3 468.248 1103.18 471.132 1106.74 471.132H1108.17C1111.73 471.132 1114.61 468.248 1114.61 464.69V403.004C1114.61 399.446 1111.73 396.562 1108.17 396.562Z" fill="#F7F8FA"/>
<path opacity="0.51" d="M1131.03 134.812H1129.6C1126.04 134.812 1123.16 137.696 1123.16 141.254V202.94C1123.16 206.498 1126.04 209.382 1129.6 209.382H1131.03C1134.59 209.382 1137.47 206.498 1137.47 202.94V141.254C1137.47 137.696 1134.59 134.812 1131.03 134.812Z" fill="#F7F8FA"/>
<path opacity="0.51" d="M1131.03 222.062H1129.6C1126.04 222.062 1123.16 224.946 1123.16 228.504V290.19C1123.16 293.748 1126.04 296.632 1129.6 296.632H1131.03C1134.59 296.632 1137.47 293.748 1137.47 290.19V228.504C1137.47 224.946 1134.59 222.062 1131.03 222.062Z" fill="#F7F8FA"/>
<path opacity="0.51" d="M1131.03 309.312H1129.6C1126.04 309.312 1123.16 312.196 1123.16 315.754V377.44C1123.16 380.998 1126.04 383.882 1129.6 383.882H1131.03C1134.59 383.882 1137.47 380.998 1137.47 377.44V315.754C1137.47 312.196 1134.59 309.312 1131.03 309.312Z" fill="#F7F8FA"/>
<path opacity="0.51" d="M1131.03 396.562H1129.6C1126.04 396.562 1123.16 399.446 1123.16 403.004V464.69C1123.16 468.248 1126.04 471.132 1129.6 471.132H1131.03C1134.59 471.132 1137.47 468.248 1137.47 464.69V403.004C1137.47 399.446 1134.59 396.562 1131.03 396.562Z" fill="#F7F8FA"/>
<path opacity="0.51" d="M1153.8 134.812H1152.37C1148.82 134.812 1145.93 137.696 1145.93 141.254V202.94C1145.93 206.498 1148.82 209.382 1152.37 209.382H1153.8C1157.36 209.382 1160.25 206.498 1160.25 202.94V141.254C1160.25 137.696 1157.36 134.812 1153.8 134.812Z" fill="#F7F8FA"/>
<path opacity="0.51" d="M1153.8 222.062H1152.37C1148.82 222.062 1145.93 224.946 1145.93 228.504V290.19C1145.93 293.748 1148.82 296.632 1152.37 296.632H1153.8C1157.36 296.632 1160.25 293.748 1160.25 290.19V228.504C1160.25 224.946 1157.36 222.062 1153.8 222.062Z" fill="#F7F8FA"/>
<path opacity="0.51" d="M1153.8 309.312H1152.37C1148.82 309.312 1145.93 312.196 1145.93 315.754V377.44C1145.93 380.998 1148.82 383.882 1152.37 383.882H1153.8C1157.36 383.882 1160.25 380.998 1160.25 377.44V315.754C1160.25 312.196 1157.36 309.312 1153.8 309.312Z" fill="#F7F8FA"/>
<path opacity="0.51" d="M1153.8 396.562H1152.37C1148.82 396.562 1145.93 399.446 1145.93 403.004V464.69C1145.93 468.248 1148.82 471.132 1152.37 471.132H1153.8C1157.36 471.132 1160.25 468.248 1160.25 464.69V403.004C1160.25 399.446 1157.36 396.562 1153.8 396.562Z" fill="#F7F8FA"/>
<path opacity="0.51" d="M1178.32 134.812H1176.89C1173.33 134.812 1170.45 137.696 1170.45 141.254V202.94C1170.45 206.498 1173.33 209.382 1176.89 209.382H1178.32C1181.88 209.382 1184.76 206.498 1184.76 202.94V141.254C1184.76 137.696 1181.88 134.812 1178.32 134.812Z" fill="#F7F8FA"/>
<path opacity="0.51" d="M1178.32 222.062H1176.89C1173.33 222.062 1170.45 224.946 1170.45 228.504V290.19C1170.45 293.748 1173.33 296.632 1176.89 296.632H1178.32C1181.88 296.632 1184.76 293.748 1184.76 290.19V228.504C1184.76 224.946 1181.88 222.062 1178.32 222.062Z" fill="#F7F8FA"/>
<path opacity="0.51" d="M1178.32 309.312H1176.89C1173.33 309.312 1170.45 312.196 1170.45 315.754V377.44C1170.45 380.998 1173.33 383.882 1176.89 383.882H1178.32C1181.88 383.882 1184.76 380.998 1184.76 377.44V315.754C1184.76 312.196 1181.88 309.312 1178.32 309.312Z" fill="#F7F8FA"/>
<path opacity="0.51" d="M1178.32 396.562H1176.89C1173.33 396.562 1170.45 399.446 1170.45 403.004V464.69C1170.45 468.248 1173.33 471.132 1176.89 471.132H1178.32C1181.88 471.132 1184.76 468.248 1184.76 464.69V403.004C1184.76 399.446 1181.88 396.562 1178.32 396.562Z" fill="#F7F8FA"/>
<path opacity="0.51" d="M1201.98 134.812H1200.55C1196.99 134.812 1194.11 137.696 1194.11 141.254V202.94C1194.11 206.498 1196.99 209.382 1200.55 209.382H1201.98C1205.54 209.382 1208.43 206.498 1208.43 202.94V141.254C1208.43 137.696 1205.54 134.812 1201.98 134.812Z" fill="#F7F8FA"/>
<path opacity="0.51" d="M1201.98 222.062H1200.55C1196.99 222.062 1194.11 224.946 1194.11 228.504V290.19C1194.11 293.748 1196.99 296.632 1200.55 296.632H1201.98C1205.54 296.632 1208.43 293.748 1208.43 290.19V228.504C1208.43 224.946 1205.54 222.062 1201.98 222.062Z" fill="#F7F8FA"/>
<path opacity="0.51" d="M1201.98 309.312H1200.55C1196.99 309.312 1194.11 312.196 1194.11 315.754V377.44C1194.11 380.998 1196.99 383.882 1200.55 383.882H1201.98C1205.54 383.882 1208.43 380.998 1208.43 377.44V315.754C1208.43 312.196 1205.54 309.312 1201.98 309.312Z" fill="#F7F8FA"/>
<path opacity="0.51" d="M1201.98 396.562H1200.55C1196.99 396.562 1194.11 399.446 1194.11 403.004V464.69C1194.11 468.248 1196.99 471.132 1200.55 471.132H1201.98C1205.54 471.132 1208.43 468.248 1208.43 464.69V403.004C1208.43 399.446 1205.54 396.562 1201.98 396.562Z" fill="#F7F8FA"/>
<path opacity="0.51" d="M1225.14 134.812H1223.71C1220.15 134.812 1217.27 137.696 1217.27 141.254V202.94C1217.27 206.498 1220.15 209.382 1223.71 209.382H1225.14C1228.7 209.382 1231.58 206.498 1231.58 202.94V141.254C1231.58 137.696 1228.7 134.812 1225.14 134.812Z" fill="#F7F8FA"/>
<path opacity="0.51" d="M1225.14 222.062H1223.71C1220.15 222.062 1217.27 224.946 1217.27 228.504V290.19C1217.27 293.748 1220.15 296.632 1223.71 296.632H1225.14C1228.7 296.632 1231.58 293.748 1231.58 290.19V228.504C1231.58 224.946 1228.7 222.062 1225.14 222.062Z" fill="#F7F8FA"/>
<path opacity="0.51" d="M1225.14 309.312H1223.71C1220.15 309.312 1217.27 312.196 1217.27 315.754V377.44C1217.27 380.998 1220.15 383.882 1223.71 383.882H1225.14C1228.7 383.882 1231.58 380.998 1231.58 377.44V315.754C1231.58 312.196 1228.7 309.312 1225.14 309.312Z" fill="#F7F8FA"/>
<path opacity="0.51" d="M1225.14 396.562H1223.71C1220.15 396.562 1217.27 399.446 1217.27 403.004V464.69C1217.27 468.248 1220.15 471.132 1223.71 471.132H1225.14C1228.7 471.132 1231.58 468.248 1231.58 464.69V403.004C1231.58 399.446 1228.7 396.562 1225.14 396.562Z" fill="#F7F8FA"/>
</g>
<g opacity="0.15">
<path opacity="0.15" d="M1108.17 340.543H1106.74C1103.18 340.543 1100.3 343.427 1100.3 346.984V408.671C1100.3 412.228 1103.18 415.112 1106.74 415.112H1108.17C1111.73 415.112 1114.61 412.228 1114.61 408.671V346.984C1114.61 343.427 1111.73 340.543 1108.17 340.543Z" fill="#F7F8FA"/>
<path opacity="0.15" d="M1108.17 427.789H1106.74C1103.18 427.789 1100.3 430.673 1100.3 434.231V495.917C1100.3 499.475 1103.18 502.358 1106.74 502.358H1108.17C1111.73 502.358 1114.61 499.475 1114.61 495.917V434.231C1114.61 430.673 1111.73 427.789 1108.17 427.789Z" fill="#F7F8FA"/>
<path opacity="0.15" d="M1108.17 515.043H1106.74C1103.18 515.043 1100.3 517.927 1100.3 521.484V583.171C1100.3 586.728 1103.18 589.612 1106.74 589.612H1108.17C1111.73 589.612 1114.61 586.728 1114.61 583.171V521.484C1114.61 517.927 1111.73 515.043 1108.17 515.043Z" fill="#F7F8FA"/>
<path opacity="0.15" d="M1108.17 602.293H1106.74C1103.18 602.293 1100.3 605.177 1100.3 608.734V670.421C1100.3 673.978 1103.18 676.862 1106.74 676.862H1108.17C1111.73 676.862 1114.61 673.978 1114.61 670.421V608.734C1114.61 605.177 1111.73 602.293 1108.17 602.293Z" fill="#F7F8FA"/>
<path opacity="0.15" d="M1131.03 340.543H1129.6C1126.04 340.543 1123.16 343.427 1123.16 346.984V408.671C1123.16 412.228 1126.04 415.112 1129.6 415.112H1131.03C1134.59 415.112 1137.47 412.228 1137.47 408.671V346.984C1137.47 343.427 1134.59 340.543 1131.03 340.543Z" fill="#F7F8FA"/>
<path opacity="0.15" d="M1131.03 427.789H1129.6C1126.04 427.789 1123.16 430.673 1123.16 434.231V495.917C1123.16 499.475 1126.04 502.358 1129.6 502.358H1131.03C1134.59 502.358 1137.47 499.475 1137.47 495.917V434.231C1137.47 430.673 1134.59 427.789 1131.03 427.789Z" fill="#F7F8FA"/>
<path opacity="0.15" d="M1131.03 515.043H1129.6C1126.04 515.043 1123.16 517.927 1123.16 521.484V583.171C1123.16 586.728 1126.04 589.612 1129.6 589.612H1131.03C1134.59 589.612 1137.47 586.728 1137.47 583.171V521.484C1137.47 517.927 1134.59 515.043 1131.03 515.043Z" fill="#F7F8FA"/>
<path opacity="0.15" d="M1131.03 602.293H1129.6C1126.04 602.293 1123.16 605.177 1123.16 608.734V670.421C1123.16 673.978 1126.04 676.862 1129.6 676.862H1131.03C1134.59 676.862 1137.47 673.978 1137.47 670.421V608.734C1137.47 605.177 1134.59 602.293 1131.03 602.293Z" fill="#F7F8FA"/>
<path opacity="0.15" d="M1153.8 340.543H1152.37C1148.82 340.543 1145.93 343.427 1145.93 346.984V408.671C1145.93 412.228 1148.82 415.112 1152.37 415.112H1153.8C1157.36 415.112 1160.25 412.228 1160.25 408.671V346.984C1160.25 343.427 1157.36 340.543 1153.8 340.543Z" fill="#F7F8FA"/>
<path opacity="0.15" d="M1153.8 427.789H1152.37C1148.82 427.789 1145.93 430.673 1145.93 434.231V495.917C1145.93 499.475 1148.82 502.358 1152.37 502.358H1153.8C1157.36 502.358 1160.25 499.475 1160.25 495.917V434.231C1160.25 430.673 1157.36 427.789 1153.8 427.789Z" fill="#F7F8FA"/>
<path opacity="0.15" d="M1153.8 515.043H1152.37C1148.82 515.043 1145.93 517.927 1145.93 521.484V583.171C1145.93 586.728 1148.82 589.612 1152.37 589.612H1153.8C1157.36 589.612 1160.25 586.728 1160.25 583.171V521.484C1160.25 517.927 1157.36 515.043 1153.8 515.043Z" fill="#F7F8FA"/>
<path opacity="0.15" d="M1153.8 602.293H1152.37C1148.82 602.293 1145.93 605.177 1145.93 608.734V670.421C1145.93 673.978 1148.82 676.862 1152.37 676.862H1153.8C1157.36 676.862 1160.25 673.978 1160.25 670.421V608.734C1160.25 605.177 1157.36 602.293 1153.8 602.293Z" fill="#F7F8FA"/>
<path opacity="0.15" d="M1178.32 340.543H1176.89C1173.33 340.543 1170.45 343.427 1170.45 346.984V408.671C1170.45 412.228 1173.33 415.112 1176.89 415.112H1178.32C1181.88 415.112 1184.76 412.228 1184.76 408.671V346.984C1184.76 343.427 1181.88 340.543 1178.32 340.543Z" fill="#F7F8FA"/>
<path opacity="0.15" d="M1178.32 427.789H1176.89C1173.33 427.789 1170.45 430.673 1170.45 434.231V495.917C1170.45 499.475 1173.33 502.358 1176.89 502.358H1178.32C1181.88 502.358 1184.76 499.475 1184.76 495.917V434.231C1184.76 430.673 1181.88 427.789 1178.32 427.789Z" fill="#F7F8FA"/>
<path opacity="0.15" d="M1178.32 515.043H1176.89C1173.33 515.043 1170.45 517.927 1170.45 521.484V583.171C1170.45 586.728 1173.33 589.612 1176.89 589.612H1178.32C1181.88 589.612 1184.76 586.728 1184.76 583.171V521.484C1184.76 517.927 1181.88 515.043 1178.32 515.043Z" fill="#F7F8FA"/>
<path opacity="0.15" d="M1178.32 602.293H1176.89C1173.33 602.293 1170.45 605.177 1170.45 608.734V670.421C1170.45 673.978 1173.33 676.862 1176.89 676.862H1178.32C1181.88 676.862 1184.76 673.978 1184.76 670.421V608.734C1184.76 605.177 1181.88 602.293 1178.32 602.293Z" fill="#F7F8FA"/>
<path opacity="0.15" d="M1201.98 340.543H1200.55C1196.99 340.543 1194.11 343.427 1194.11 346.984V408.671C1194.11 412.228 1196.99 415.112 1200.55 415.112H1201.98C1205.54 415.112 1208.43 412.228 1208.43 408.671V346.984C1208.43 343.427 1205.54 340.543 1201.98 340.543Z" fill="#F7F8FA"/>
<path opacity="0.15" d="M1201.98 427.789H1200.55C1196.99 427.789 1194.11 430.673 1194.11 434.231V495.917C1194.11 499.475 1196.99 502.358 1200.55 502.358H1201.98C1205.54 502.358 1208.43 499.475 1208.43 495.917V434.231C1208.43 430.673 1205.54 427.789 1201.98 427.789Z" fill="#F7F8FA"/>
<path opacity="0.15" d="M1201.98 515.043H1200.55C1196.99 515.043 1194.11 517.927 1194.11 521.484V583.171C1194.11 586.728 1196.99 589.612 1200.55 589.612H1201.98C1205.54 589.612 1208.43 586.728 1208.43 583.171V521.484C1208.43 517.927 1205.54 515.043 1201.98 515.043Z" fill="#F7F8FA"/>
<path opacity="0.15" d="M1201.98 602.293H1200.55C1196.99 602.293 1194.11 605.177 1194.11 608.734V670.421C1194.11 673.978 1196.99 676.862 1200.55 676.862H1201.98C1205.54 676.862 1208.43 673.978 1208.43 670.421V608.734C1208.43 605.177 1205.54 602.293 1201.98 602.293Z" fill="#F7F8FA"/>
<path opacity="0.15" d="M1225.14 340.543H1223.71C1220.15 340.543 1217.27 343.427 1217.27 346.984V408.671C1217.27 412.228 1220.15 415.112 1223.71 415.112H1225.14C1228.7 415.112 1231.58 412.228 1231.58 408.671V346.984C1231.58 343.427 1228.7 340.543 1225.14 340.543Z" fill="#F7F8FA"/>
<path opacity="0.15" d="M1225.14 427.789H1223.71C1220.15 427.789 1217.27 430.673 1217.27 434.231V495.917C1217.27 499.475 1220.15 502.358 1223.71 502.358H1225.14C1228.7 502.358 1231.58 499.475 1231.58 495.917V434.231C1231.58 430.673 1228.7 427.789 1225.14 427.789Z" fill="#F7F8FA"/>
<path opacity="0.15" d="M1225.14 515.043H1223.71C1220.15 515.043 1217.27 517.927 1217.27 521.484V583.171C1217.27 586.728 1220.15 589.612 1223.71 589.612H1225.14C1228.7 589.612 1231.58 586.728 1231.58 583.171V521.484C1231.58 517.927 1228.7 515.043 1225.14 515.043Z" fill="#F7F8FA"/>
<path opacity="0.15" d="M1225.14 602.293H1223.71C1220.15 602.293 1217.27 605.177 1217.27 608.734V670.421C1217.27 673.978 1220.15 676.862 1223.71 676.862H1225.14C1228.7 676.862 1231.58 673.978 1231.58 670.421V608.734C1231.58 605.177 1228.7 602.293 1225.14 602.293Z" fill="#F7F8FA"/>
</g>
<path d="M624.523 489.656H704.884V508.702H610.603C609.925 508.702 609.275 508.433 608.796 507.954C608.316 507.475 608.047 506.825 608.047 506.147C608.047 501.78 609.782 497.592 612.872 494.504C615.961 491.417 620.151 489.682 624.52 489.682L624.523 489.656Z" fill="#F7F8FA"/>
<path d="M711.05 508.703H807.898V489.657H711.05V508.703Z" fill="#F7F8FA"/>
<path d="M814.573 508.188H911.422V489.141H814.573V508.188Z" fill="#F7F8FA"/>
<path d="M1422.87 518.504H1412.46C1410.57 518.504 1409.05 520.029 1409.05 521.911V536.06C1409.05 537.941 1410.57 539.466 1412.46 539.466H1422.87C1424.75 539.466 1426.28 537.941 1426.28 536.06V521.911C1426.28 520.029 1424.75 518.504 1422.87 518.504Z" fill="#F7F8FA"/>
<path d="M1422.87 546.938H1412.46C1410.57 546.938 1409.05 548.463 1409.05 550.344V564.493C1409.05 566.375 1410.57 567.9 1412.46 567.9H1422.87C1424.75 567.9 1426.28 566.375 1426.28 564.493V550.344C1426.28 548.463 1424.75 546.938 1422.87 546.938Z" fill="#F7F8FA"/>
<path d="M1422.87 575.363H1412.46C1410.57 575.363 1409.05 576.888 1409.05 578.77V592.919C1409.05 594.8 1410.57 596.326 1412.46 596.326H1422.87C1424.75 596.326 1426.28 594.8 1426.28 592.919V578.77C1426.28 576.888 1424.75 575.363 1422.87 575.363Z" fill="#F7F8FA"/>
<path d="M1446.85 518.504H1436.44C1434.56 518.504 1433.03 520.029 1433.03 521.911V536.06C1433.03 537.941 1434.56 539.466 1436.44 539.466H1446.85C1448.73 539.466 1450.26 537.941 1450.26 536.06V521.911C1450.26 520.029 1448.73 518.504 1446.85 518.504Z" fill="#F7F8FA"/>
<path d="M1446.85 546.938H1436.44C1434.56 546.938 1433.03 548.463 1433.03 550.344V564.493C1433.03 566.375 1434.56 567.9 1436.44 567.9H1446.85C1448.73 567.9 1450.26 566.375 1450.26 564.493V550.344C1450.26 548.463 1448.73 546.938 1446.85 546.938Z" fill="#F7F8FA"/>
<path d="M1446.85 575.363H1436.44C1434.56 575.363 1433.03 576.888 1433.03 578.77V592.919C1433.03 594.8 1434.56 596.326 1436.44 596.326H1446.85C1448.73 596.326 1450.26 594.8 1450.26 592.919V578.77C1450.26 576.888 1448.73 575.363 1446.85 575.363Z" fill="#F7F8FA"/>
<path d="M1471.52 518.504H1461.1C1459.22 518.504 1457.7 520.029 1457.7 521.911V536.06C1457.7 537.941 1459.22 539.466 1461.1 539.466H1471.52C1473.4 539.466 1474.92 537.941 1474.92 536.06V521.911C1474.92 520.029 1473.4 518.504 1471.52 518.504Z" fill="#F7F8FA"/>
<path d="M1471.52 546.938H1461.1C1459.22 546.938 1457.7 548.463 1457.7 550.344V564.493C1457.7 566.375 1459.22 567.9 1461.1 567.9H1471.52C1473.4 567.9 1474.92 566.375 1474.92 564.493V550.344C1474.92 548.463 1473.4 546.938 1471.52 546.938Z" fill="#F7F8FA"/>
<path d="M1471.52 575.363H1461.1C1459.22 575.363 1457.7 576.888 1457.7 578.77V592.919C1457.7 594.8 1459.22 596.326 1461.1 596.326H1471.52C1473.4 596.326 1474.92 594.8 1474.92 592.919V578.77C1474.92 576.888 1473.4 575.363 1471.52 575.363Z" fill="#F7F8FA"/>
<path d="M1496.17 518.504H1485.76C1483.88 518.504 1482.35 520.029 1482.35 521.911V536.06C1482.35 537.941 1483.88 539.466 1485.76 539.466H1496.17C1498.05 539.466 1499.58 537.941 1499.58 536.06V521.911C1499.58 520.029 1498.05 518.504 1496.17 518.504Z" fill="#F7F8FA"/>
<path d="M1496.17 546.938H1485.76C1483.88 546.938 1482.35 548.463 1482.35 550.344V564.493C1482.35 566.375 1483.88 567.9 1485.76 567.9H1496.17C1498.05 567.9 1499.58 566.375 1499.58 564.493V550.344C1499.58 548.463 1498.05 546.938 1496.17 546.938Z" fill="#F7F8FA"/>
<path d="M1496.17 575.363H1485.76C1483.88 575.363 1482.35 576.888 1482.35 578.77V592.919C1482.35 594.8 1483.88 596.326 1485.76 596.326H1496.17C1498.05 596.326 1499.58 594.8 1499.58 592.919V578.77C1499.58 576.888 1498.05 575.363 1496.17 575.363Z" fill="#F7F8FA"/>
<g opacity="0.26">
<path opacity="0.26" d="M687.883 584.371H683.634C682.071 584.371 680.805 585.637 680.805 587.199V606.654C680.805 608.215 682.071 609.481 683.634 609.481H687.883C689.445 609.481 690.711 608.215 690.711 606.654V587.199C690.711 585.637 689.445 584.371 687.883 584.371Z" fill="#F7F8FA"/>
<path opacity="0.26" d="M687.883 618.426H683.634C682.071 618.426 680.805 619.692 680.805 621.253V640.708C680.805 642.27 682.071 643.536 683.634 643.536H687.883C689.445 643.536 690.711 642.27 690.711 640.708V621.253C690.711 619.692 689.445 618.426 687.883 618.426Z" fill="#F7F8FA"/>
<path opacity="0.26" d="M687.883 652.48H683.634C682.071 652.48 680.805 653.746 680.805 655.308V674.763C680.805 676.325 682.071 677.591 683.634 677.591H687.883C689.445 677.591 690.711 676.325 690.711 674.763V655.308C690.711 653.746 689.445 652.48 687.883 652.48Z" fill="#F7F8FA"/>
<path opacity="0.26" d="M701.672 584.371H697.423C695.86 584.371 694.594 585.637 694.594 587.199V606.654C694.594 608.215 695.86 609.481 697.423 609.481H701.672C703.234 609.481 704.5 608.215 704.5 606.654V587.199C704.5 585.637 703.234 584.371 701.672 584.371Z" fill="#F7F8FA"/>
<path opacity="0.26" d="M701.672 618.426H697.423C695.86 618.426 694.594 619.692 694.594 621.253V640.708C694.594 642.27 695.86 643.536 697.423 643.536H701.672C703.234 643.536 704.5 642.27 704.5 640.708V621.253C704.5 619.692 703.234 618.426 701.672 618.426Z" fill="#F7F8FA"/>
<path opacity="0.26" d="M701.672 652.48H697.423C695.86 652.48 694.594 653.746 694.594 655.308V674.763C694.594 676.325 695.86 677.591 697.423 677.591H701.672C703.234 677.591 704.5 676.325 704.5 674.763V655.308C704.5 653.746 703.234 652.48 701.672 652.48Z" fill="#F7F8FA"/>
<path opacity="0.26" d="M715.851 584.371H711.602C710.04 584.371 708.773 585.637 708.773 587.199V606.654C708.773 608.215 710.04 609.481 711.602 609.481H715.851C717.414 609.481 718.68 608.215 718.68 606.654V587.199C718.68 585.637 717.414 584.371 715.851 584.371Z" fill="#F7F8FA"/>
<path opacity="0.26" d="M715.851 618.426H711.602C710.04 618.426 708.773 619.692 708.773 621.253V640.708C708.773 642.27 710.04 643.536 711.602 643.536H715.851C717.414 643.536 718.68 642.27 718.68 640.708V621.253C718.68 619.692 717.414 618.426 715.851 618.426Z" fill="#F7F8FA"/>
<path opacity="0.26" d="M715.851 652.48H711.602C710.04 652.48 708.773 653.746 708.773 655.308V674.763C708.773 676.325 710.04 677.591 711.602 677.591H715.851C717.414 677.591 718.68 676.325 718.68 674.763V655.308C718.68 653.746 717.414 652.48 715.851 652.48Z" fill="#F7F8FA"/>
<path opacity="0.26" d="M730.031 584.371H725.782C724.22 584.371 722.953 585.637 722.953 587.199V606.654C722.953 608.215 724.22 609.481 725.782 609.481H730.031C731.593 609.481 732.86 608.215 732.86 606.654V587.199C732.86 585.637 731.593 584.371 730.031 584.371Z" fill="#F7F8FA"/>
<path opacity="0.26" d="M730.031 618.426H725.782C724.22 618.426 722.953 619.692 722.953 621.253V640.708C722.953 642.27 724.22 643.536 725.782 643.536H730.031C731.593 643.536 732.86 642.27 732.86 640.708V621.253C732.86 619.692 731.593 618.426 730.031 618.426Z" fill="#F7F8FA"/>
<path opacity="0.26" d="M730.031 652.48H725.782C724.22 652.48 722.953 653.746 722.953 655.308V674.763C722.953 676.325 724.22 677.591 725.782 677.591H730.031C731.593 677.591 732.86 676.325 732.86 674.763V655.308C732.86 653.746 731.593 652.48 730.031 652.48Z" fill="#F7F8FA"/>
</g>
<g opacity="0.26">
<path opacity="0.26" d="M609.336 584.371H605.087C603.524 584.371 602.258 585.637 602.258 587.199V606.654C602.258 608.215 603.524 609.481 605.087 609.481H609.336C610.898 609.481 612.164 608.215 612.164 606.654V587.199C612.164 585.637 610.898 584.371 609.336 584.371Z" fill="#F7F8FA"/>
<path opacity="0.26" d="M609.336 618.426H605.087C603.524 618.426 602.258 619.692 602.258 621.253V640.708C602.258 642.27 603.524 643.536 605.087 643.536H609.336C610.898 643.536 612.164 642.27 612.164 640.708V621.253C612.164 619.692 610.898 618.426 609.336 618.426Z" fill="#F7F8FA"/>
<path opacity="0.26" d="M609.336 652.48H605.087C603.524 652.48 602.258 653.746 602.258 655.308V674.763C602.258 676.325 603.524 677.591 605.087 677.591H609.336C610.898 677.591 612.164 676.325 612.164 674.763V655.308C612.164 653.746 610.898 652.48 609.336 652.48Z" fill="#F7F8FA"/>
<path opacity="0.26" d="M623.125 584.371H618.876C617.313 584.371 616.047 585.637 616.047 587.199V606.654C616.047 608.215 617.313 609.481 618.876 609.481H623.125C624.687 609.481 625.954 608.215 625.954 606.654V587.199C625.954 585.637 624.687 584.371 623.125 584.371Z" fill="#F7F8FA"/>
<path opacity="0.26" d="M623.125 618.426H618.876C617.313 618.426 616.047 619.692 616.047 621.253V640.708C616.047 642.27 617.313 643.536 618.876 643.536H623.125C624.687 643.536 625.954 642.27 625.954 640.708V621.253C625.954 619.692 624.687 618.426 623.125 618.426Z" fill="#F7F8FA"/>
<path opacity="0.26" d="M623.125 652.48H618.876C617.313 652.48 616.047 653.746 616.047 655.308V674.763C616.047 676.325 617.313 677.591 618.876 677.591H623.125C624.687 677.591 625.954 676.325 625.954 674.763V655.308C625.954 653.746 624.687 652.48 623.125 652.48Z" fill="#F7F8FA"/>
<path opacity="0.26" d="M637.304 584.371H633.055C631.493 584.371 630.227 585.637 630.227 587.199V606.654C630.227 608.215 631.493 609.481 633.055 609.481H637.304C638.867 609.481 640.133 608.215 640.133 606.654V587.199C640.133 585.637 638.867 584.371 637.304 584.371Z" fill="#F7F8FA"/>
<path opacity="0.26" d="M637.304 618.426H633.055C631.493 618.426 630.227 619.692 630.227 621.253V640.708C630.227 642.27 631.493 643.536 633.055 643.536H637.304C638.867 643.536 640.133 642.27 640.133 640.708V621.253C640.133 619.692 638.867 618.426 637.304 618.426Z" fill="#F7F8FA"/>
<path opacity="0.26" d="M637.304 652.48H633.055C631.493 652.48 630.227 653.746 630.227 655.308V674.763C630.227 676.325 631.493 677.591 633.055 677.591H637.304C638.867 677.591 640.133 676.325 640.133 674.763V655.308C640.133 653.746 638.867 652.48 637.304 652.48Z" fill="#F7F8FA"/>
<path opacity="0.26" d="M651.484 584.371H647.235C645.673 584.371 644.406 585.637 644.406 587.199V606.654C644.406 608.215 645.673 609.481 647.235 609.481H651.484C653.046 609.481 654.313 608.215 654.313 606.654V587.199C654.313 585.637 653.046 584.371 651.484 584.371Z" fill="#F7F8FA"/>
<path opacity="0.26" d="M651.484 618.426H647.235C645.673 618.426 644.406 619.692 644.406 621.253V640.708C644.406 642.27 645.673 643.536 647.235 643.536H651.484C653.046 643.536 654.313 642.27 654.313 640.708V621.253C654.313 619.692 653.046 618.426 651.484 618.426Z" fill="#F7F8FA"/>
<path opacity="0.26" d="M651.484 652.48H647.235C645.673 652.48 644.406 653.746 644.406 655.308V674.763C644.406 676.325 645.673 677.591 647.235 677.591H651.484C653.046 677.591 654.313 676.325 654.313 674.763V655.308C654.313 653.746 653.046 652.48 651.484 652.48Z" fill="#F7F8FA"/>
</g>
<g opacity="0.26">
<path opacity="0.26" d="M528.875 584.371H524.626C523.063 584.371 521.797 585.637 521.797 587.199V606.654C521.797 608.215 523.063 609.481 524.626 609.481H528.875C530.437 609.481 531.704 608.215 531.704 606.654V587.199C531.704 585.637 530.437 584.371 528.875 584.371Z" fill="#F7F8FA"/>
<path opacity="0.26" d="M528.875 618.426H524.626C523.063 618.426 521.797 619.692 521.797 621.253V640.708C521.797 642.27 523.063 643.536 524.626 643.536H528.875C530.437 643.536 531.704 642.27 531.704 640.708V621.253C531.704 619.692 530.437 618.426 528.875 618.426Z" fill="#F7F8FA"/>
<path opacity="0.26" d="M528.875 652.48H524.626C523.063 652.48 521.797 653.746 521.797 655.308V674.763C521.797 676.325 523.063 677.591 524.626 677.591H528.875C530.437 677.591 531.704 676.325 531.704 674.763V655.308C531.704 653.746 530.437 652.48 528.875 652.48Z" fill="#F7F8FA"/>
<path opacity="0.26" d="M542.664 584.371H538.415C536.852 584.371 535.586 585.637 535.586 587.199V606.654C535.586 608.215 536.852 609.481 538.415 609.481H542.664C544.226 609.481 545.493 608.215 545.493 606.654V587.199C545.493 585.637 544.226 584.371 542.664 584.371Z" fill="#F7F8FA"/>
<path opacity="0.26" d="M542.664 618.426H538.415C536.852 618.426 535.586 619.692 535.586 621.253V640.708C535.586 642.27 536.852 643.536 538.415 643.536H542.664C544.226 643.536 545.493 642.27 545.493 640.708V621.253C545.493 619.692 544.226 618.426 542.664 618.426Z" fill="#F7F8FA"/>
<path opacity="0.26" d="M542.664 652.48H538.415C536.852 652.48 535.586 653.746 535.586 655.308V674.763C535.586 676.325 536.852 677.591 538.415 677.591H542.664C544.226 677.591 545.493 676.325 545.493 674.763V655.308C545.493 653.746 544.226 652.48 542.664 652.48Z" fill="#F7F8FA"/>
<path opacity="0.26" d="M556.843 584.371H552.594C551.032 584.371 549.766 585.637 549.766 587.199V606.654C549.766 608.215 551.032 609.481 552.594 609.481H556.843C558.406 609.481 559.672 608.215 559.672 606.654V587.199C559.672 585.637 558.406 584.371 556.843 584.371Z" fill="#F7F8FA"/>
<path opacity="0.26" d="M556.843 618.426H552.594C551.032 618.426 549.766 619.692 549.766 621.253V640.708C549.766 642.27 551.032 643.536 552.594 643.536H556.843C558.406 643.536 559.672 642.27 559.672 640.708V621.253C559.672 619.692 558.406 618.426 556.843 618.426Z" fill="#F7F8FA"/>
<path opacity="0.26" d="M556.843 652.48H552.594C551.032 652.48 549.766 653.746 549.766 655.308V674.763C549.766 676.325 551.032 677.591 552.594 677.591H556.843C558.406 677.591 559.672 676.325 559.672 674.763V655.308C559.672 653.746 558.406 652.48 556.843 652.48Z" fill="#F7F8FA"/>
<path opacity="0.26" d="M571.023 584.371H566.774C565.212 584.371 563.945 585.637 563.945 587.199V606.654C563.945 608.215 565.212 609.481 566.774 609.481H571.023C572.585 609.481 573.852 608.215 573.852 606.654V587.199C573.852 585.637 572.585 584.371 571.023 584.371Z" fill="#F7F8FA"/>
<path opacity="0.26" d="M571.023 618.426H566.774C565.212 618.426 563.945 619.692 563.945 621.253V640.708C563.945 642.27 565.212 643.536 566.774 643.536H571.023C572.585 643.536 573.852 642.27 573.852 640.708V621.253C573.852 619.692 572.585 618.426 571.023 618.426Z" fill="#F7F8FA"/>
<path opacity="0.26" d="M571.023 652.48H566.774C565.212 652.48 563.945 653.746 563.945 655.308V674.763C563.945 676.325 565.212 677.591 566.774 677.591H571.023C572.585 677.591 573.852 676.325 573.852 674.763V655.308C573.852 653.746 572.585 652.48 571.023 652.48Z" fill="#F7F8FA"/>
</g>
<path d="M859.44 570.148H774.668C772.789 570.148 771.266 571.671 771.266 573.549C771.266 575.428 772.789 576.95 774.668 576.95H859.44C861.319 576.95 862.843 575.428 862.843 573.549C862.843 571.671 861.319 570.148 859.44 570.148Z" fill="#2448B1"/>
<path d="M885.518 570.148H879.903C878.023 570.148 876.5 571.671 876.5 573.549C876.5 575.428 878.023 576.95 879.903 576.95H885.518C887.397 576.95 888.92 575.428 888.92 573.549C888.92 571.671 887.397 570.148 885.518 570.148Z" fill="#2448B1"/>
<path d="M793.057 547.926H787.442C785.562 547.926 784.039 549.448 784.039 551.327C784.039 553.205 785.562 554.728 787.442 554.728H793.057C794.936 554.728 796.46 553.205 796.46 551.327C796.46 549.448 794.936 547.926 793.057 547.926Z" fill="#2448B1"/>
<path d="M888.19 559.453H803.418C801.539 559.453 800.016 560.976 800.016 562.854C800.016 564.732 801.539 566.255 803.418 566.255H888.19C890.069 566.255 891.593 564.732 891.593 562.854C891.593 560.976 890.069 559.453 888.19 559.453Z" fill="#2448B1"/>
<path d="M905.229 580.836H820.457C818.578 580.836 817.055 582.359 817.055 584.237C817.055 586.115 818.578 587.638 820.457 587.638H905.229C907.108 587.638 908.632 586.115 908.632 584.237C908.632 582.359 907.108 580.836 905.229 580.836Z" fill="#2448B1"/>
<path d="M790.649 593.664H777.442C775.562 593.664 774.039 595.187 774.039 597.065C774.039 598.943 775.562 600.466 777.442 600.466H790.649C792.528 600.466 794.051 598.943 794.051 597.065C794.051 595.187 792.528 593.664 790.649 593.664Z" fill="#2448B1"/>
<path d="M829.296 593.664H808.051C806.172 593.664 804.648 595.187 804.648 597.065C804.648 598.943 806.172 600.466 808.051 600.466H829.296C831.175 600.466 832.698 598.943 832.698 597.065C832.698 595.187 831.175 593.664 829.296 593.664Z" fill="#2448B1"/>
<path d="M911.432 532.227H826.66C824.781 532.227 823.258 533.749 823.258 535.628C823.258 537.506 824.781 539.029 826.66 539.029H911.432C913.312 539.029 914.835 537.506 914.835 535.628C914.835 533.749 913.312 532.227 911.432 532.227Z" fill="#2448B1"/>
<g opacity="0.8">
<path opacity="0.8" d="M1002.88 636.601V562.511C1002.88 560.87 1001.54 559.539 999.901 559.539H999.898C998.256 559.539 996.925 560.87 996.925 562.511V636.601C996.925 638.243 998.256 639.573 999.898 639.573H999.901C1001.54 639.573 1002.88 638.243 1002.88 636.601Z" fill="#F7F8FA"/>
<path opacity="0.8" d="M1002.88 659.389V654.48C1002.88 652.839 1001.54 651.508 999.901 651.508H999.898C998.256 651.508 996.925 652.839 996.925 654.48V659.389C996.925 661.03 998.256 662.361 999.898 662.361H999.901C1001.54 662.361 1002.88 661.03 1002.88 659.389Z" fill="#F7F8FA"/>
<path opacity="0.8" d="M1012.23 661.726V587.636C1012.23 585.995 1010.9 584.664 1009.25 584.664H1009.25C1007.61 584.664 1006.28 585.995 1006.28 587.636V661.726C1006.28 663.368 1007.61 664.698 1009.25 664.698H1009.25C1010.9 664.698 1012.23 663.368 1012.23 661.726Z" fill="#F7F8FA"/>
<path opacity="0.8" d="M993.523 676.617V602.527C993.523 600.885 992.192 599.555 990.55 599.555H990.547C988.905 599.555 987.573 600.885 987.573 602.527V676.617C987.573 678.258 988.905 679.589 990.547 679.589H990.55C992.192 679.589 993.523 678.258 993.523 676.617Z" fill="#F7F8FA"/>
<path opacity="0.8" d="M1036.04 682.042V607.953C1036.04 606.311 1034.71 604.98 1033.07 604.98H1033.06C1031.42 604.98 1030.09 606.311 1030.09 607.953V682.042C1030.09 683.684 1031.42 685.015 1033.06 685.015H1033.07C1034.71 685.015 1036.04 683.684 1036.04 682.042Z" fill="#F7F8FA"/>
</g>
<g opacity="0.48">
<path opacity="0.48" d="M326.632 622.601C279.916 620.004 233.208 616.864 186.419 618.527C154.841 619.649 123.235 623.07 92.5212 630.661C76.9577 634.484 61.7013 639.462 46.8789 645.554C34.2201 650.78 20.6694 656.387 10.4162 665.71C5.79515 669.917 2.23919 674.897 0.0493868 680.756C-0.280078 681.639 1.13435 682.02 1.4695 681.145C7.07608 666.13 22.2287 658.278 35.9384 651.921C50.5011 645.201 65.5646 639.623 80.9928 635.237C111.985 626.368 144.1 622.085 176.245 620.421C226.386 617.823 276.505 621.273 326.589 624.049C326.646 623.569 326.661 623.084 326.632 622.601V622.601Z" fill="#F7F8FA"/>
<path opacity="0.48" d="M918.347 436.853C895.594 453.477 872.389 469.545 848.077 483.848C825.245 497.279 801.574 509.219 777.924 521.145C749.675 535.397 721.205 549.188 692.234 561.81C692.48 562.317 692.655 562.856 692.754 563.411C714.854 553.815 736.658 543.51 758.176 532.722C783.59 519.998 809.112 507.388 833.964 493.588C856.663 480.983 878.487 466.971 899.712 452.027C906.216 447.45 912.675 442.813 919.088 438.116C919.841 437.568 919.111 436.296 918.347 436.853Z" fill="#F7F8FA"/>
<path opacity="0.48" d="M1086.7 286.372C1082.82 289.758 1078.96 293.165 1075.11 296.592C1071.34 299.961 1067.58 303.35 1063.83 306.759C1061.75 308.651 1059.68 310.544 1057.61 312.436C1056.92 313.075 1057.95 314.108 1058.65 313.473C1062.33 310.087 1066.04 306.717 1069.75 303.363C1073.54 299.945 1077.35 296.545 1081.17 293.163C1083.35 291.233 1085.54 289.31 1087.73 287.394C1087.87 287.257 1087.94 287.071 1087.94 286.878C1087.94 286.684 1087.87 286.499 1087.73 286.361C1087.59 286.227 1087.41 286.152 1087.21 286.152C1087.02 286.152 1086.84 286.227 1086.7 286.361V286.372Z" fill="#F7F8FA"/>
<path opacity="0.48" d="M292.556 2.20338C361.289 31.3135 435.873 44.7386 502.914 78.1411C526.624 89.9538 549.564 103.535 571.079 118.993C592.398 134.306 613.847 151.941 628.284 174.153C639.929 192.038 645.325 213.824 632.715 232.734C624.276 245.386 612.055 257.838 599.328 266.255C593.15 270.343 584.184 275.223 576.575 272.191C563.496 266.979 569.812 247.95 577.038 240.728C586.598 231.175 603.009 228.918 615.798 228.132C634.166 226.996 652.517 229.88 670.58 232.873C747.55 245.625 818.973 278.485 892.861 302.233C965.264 325.512 1040.49 343.005 1117.02 340.101C1173.1 337.972 1228.92 325.827 1280.58 303.8C1319.34 287.274 1357.68 265.057 1386.96 234.32C1401.23 219.331 1422.16 193.582 1412.75 171.135C1408.77 161.67 1399.63 156.049 1390.23 152.966C1374.04 147.632 1356.06 148.018 1339.3 149.471C1325.19 150.649 1311.19 152.988 1297.47 156.464C1296.56 156.696 1296.94 158.11 1297.86 157.883C1321.55 151.799 1347.42 148.293 1371.92 150.786C1384.3 152.046 1398.68 155.178 1407.23 165.034C1424.57 185.023 1402.94 214.525 1389.3 229.67C1360.45 261.665 1321.34 284.563 1282.15 301.546C1228.47 324.825 1170.07 337.267 1111.61 338.812C1032.45 340.901 954.914 321.313 880.31 296.597C842.601 284.106 805.53 269.863 768.008 256.853C731.086 244.038 693.796 234.451 655.073 228.989C638.057 226.59 620.576 225.094 603.537 228.106C593.494 229.88 582.207 232.841 575.075 240.674C568.364 248.055 563.825 262.125 571.531 270.482C582.73 282.607 602.773 266.372 611.172 258.812C628.15 243.524 645.254 224.745 640.946 200.288C637.057 178.3 620.641 159.691 604.977 144.824C585.002 125.846 562.047 110.011 538.451 95.924C512.477 80.4278 485.16 67.2998 456.831 56.6989C420.9 43.2312 383.883 32.9969 347.46 20.9856C329.169 14.9557 311.035 8.45181 293.295 0.940073C292.442 0.576694 291.69 1.83717 292.556 2.20338V2.20338Z" fill="#EBEEF2"/>
<path opacity="0.48" d="M292.556 2.20338C361.289 31.3135 435.873 44.7386 502.914 78.1411C526.624 89.9538 549.564 103.535 571.079 118.993C592.398 134.306 613.847 151.941 628.284 174.153C639.929 192.038 645.325 213.824 632.715 232.734C624.276 245.386 612.055 257.838 599.328 266.255C593.15 270.343 584.184 275.223 576.575 272.191C563.496 266.979 569.812 247.95 577.038 240.728C586.598 231.175 603.009 228.918 615.798 228.132C634.166 226.996 652.517 229.88 670.58 232.873C747.55 245.625 818.973 278.485 892.861 302.233C965.264 325.512 1040.49 343.005 1117.02 340.101C1173.1 337.972 1228.92 325.827 1280.58 303.8C1319.34 287.274 1357.68 265.057 1386.96 234.32C1401.23 219.331 1422.16 193.582 1412.75 171.135C1408.77 161.67 1399.63 156.049 1390.23 152.966C1374.04 147.632 1356.06 148.018 1339.3 149.471C1325.19 150.649 1311.19 152.988 1297.47 156.464C1296.56 156.696 1296.94 158.11 1297.86 157.883C1321.55 151.799 1347.42 148.293 1371.92 150.786C1384.3 152.046 1398.68 155.178 1407.23 165.034C1424.57 185.023 1402.94 214.525 1389.3 229.67C1360.45 261.665 1321.34 284.563 1282.15 301.546C1228.47 324.825 1170.07 337.267 1111.61 338.812C1032.45 340.901 954.914 321.313 880.31 296.597C842.601 284.106 805.53 269.863 768.008 256.853C731.086 244.038 693.796 234.451 655.073 228.989C638.057 226.59 620.576 225.094 603.537 228.106C593.494 229.88 582.207 232.841 575.075 240.674C568.364 248.055 563.825 262.125 571.531 270.482C582.73 282.607 602.773 266.372 611.172 258.812C628.15 243.524 645.254 224.745 640.946 200.288C637.057 178.3 620.641 159.691 604.977 144.824C585.002 125.846 562.047 110.011 538.451 95.924C512.477 80.4278 485.16 67.2998 456.831 56.6989C420.9 43.2312 383.883 32.9969 347.46 20.9856C329.169 14.9557 311.035 8.45181 293.295 0.940073C292.442 0.576694 291.69 1.83717 292.556 2.20338V2.20338Z" fill="#EBEEF2"/>
</g>
</svg>
