<svg width="48" height="48" viewBox="0 0 48 48" fill="none" xmlns="http://www.w3.org/2000/svg">
<path d="M24 4C18.76 4 14.5 8.26 14.5 13.5C14.5 18.64 18.52 22.8 23.76 22.98C23.92 22.96 24.08 22.96 24.2 22.98C24.24 22.98 24.26 22.98 24.3 22.98C24.32 22.98 24.32 22.98 24.34 22.98C29.46 22.8 33.48 18.64 33.5 13.5C33.5 8.26 29.24 4 24 4Z" fill="#F2A84C"/>
<path d="M34.1609 28.3017C28.5809 24.5817 19.4809 24.5817 13.8609 28.3017C11.3209 30.0017 9.9209 32.3017 9.9209 34.7617C9.9209 37.2217 11.3209 39.5017 13.8409 41.1817C16.6409 43.0617 20.3209 44.0017 24.0009 44.0017C27.6809 44.0017 31.3609 43.0617 34.1609 41.1817C36.6809 39.4817 38.0809 37.2017 38.0809 34.7217C38.0609 32.2617 36.6809 29.9817 34.1609 28.3017Z" fill="#F8CF9C"/>
</svg>
