<svg width="1920" height="846" viewBox="0 0 1920 846" fill="none" xmlns="http://www.w3.org/2000/svg">
<mask id="mask0_2378_63703" style="mask-type:alpha" maskUnits="userSpaceOnUse" x="-540" y="0" width="3000" height="846">
<path d="M-540 845.053L2460 657.5V0L-540 187.553V845.053Z" fill="#2448B1"/>
</mask>
<g mask="url(#mask0_2378_63703)">
<g opacity="0.1" filter="url(#filter0_f_2378_63703)">
<ellipse cx="278.5" cy="211" rx="285.5" ry="297" fill="#57B6F0"/>
</g>
<g opacity="0.2" filter="url(#filter1_f_2378_63703)">
<ellipse cx="1428.5" cy="650" rx="408.5" ry="425" fill="#57B6F0"/>
</g>
<path d="M1158.73 585.66H1138.1V745.025H1158.73V585.66Z" fill="#0D318C"/>
<path d="M989.143 585.66H869.038C839.798 585.66 816.094 609.354 816.094 638.583V650.345H950.953C960.017 650.345 968.71 653.944 975.119 660.35C981.529 666.756 985.129 675.445 985.129 684.505V745.025H1158.72V585.66H989.143Z" fill="#4A86F7"/>
<path d="M1562.92 576.895H1671.84C1691.76 576.895 1710.85 584.801 1724.93 598.873C1739.01 612.946 1746.92 632.033 1746.92 651.935V732.038H1562.92V576.895Z" fill="#F2A84C"/>
<path d="M1562.92 576.895H1575.67C1586.37 576.895 1596.63 581.142 1604.19 588.702C1611.76 596.262 1616.01 606.515 1616.01 617.207V732.046H1562.92V576.895Z" fill="#E0704A"/>
<path d="M1080.05 476.164C1078.47 476.162 1076.96 475.537 1075.85 474.424C1074.74 473.312 1074.11 471.804 1074.11 470.231V373.049C1074.11 371.476 1074.74 369.967 1075.85 368.854C1076.96 367.741 1078.47 367.115 1080.05 367.113C1081.62 367.116 1083.13 367.742 1084.24 368.855C1085.35 369.967 1085.98 371.476 1085.98 373.049V470.231C1085.98 471.804 1085.35 473.312 1084.24 474.424C1083.13 475.537 1081.62 476.162 1080.05 476.164ZM1080.05 368.249C1078.77 368.251 1077.55 368.758 1076.65 369.658C1075.75 370.557 1075.25 371.777 1075.25 373.049V470.231C1075.25 470.861 1075.37 471.485 1075.61 472.067C1075.85 472.649 1076.21 473.178 1076.65 473.623C1077.1 474.069 1077.63 474.422 1078.21 474.663C1078.79 474.904 1079.42 475.028 1080.05 475.028C1080.68 475.028 1081.3 474.904 1081.88 474.663C1082.46 474.422 1082.99 474.069 1083.44 473.623C1083.89 473.178 1084.24 472.649 1084.48 472.067C1084.72 471.485 1084.85 470.861 1084.85 470.231V373.049C1084.84 371.777 1084.34 370.557 1083.44 369.658C1082.54 368.758 1081.32 368.251 1080.05 368.249Z" fill="#57B6F0"/>
<path d="M1080.05 341.621C1078.47 341.62 1076.96 340.994 1075.85 339.882C1074.74 338.769 1074.11 337.261 1074.11 335.688V238.504C1074.11 236.93 1074.74 235.422 1075.85 234.31C1076.96 233.197 1078.47 232.572 1080.05 232.57C1081.62 232.573 1083.13 233.198 1084.24 234.311C1085.35 235.423 1085.98 236.931 1085.98 238.504V335.688C1085.98 337.261 1085.35 338.769 1084.24 339.882C1083.13 340.994 1081.62 341.62 1080.05 341.621ZM1080.05 233.706C1078.77 233.707 1077.55 234.213 1076.65 235.113C1075.75 236.012 1075.25 237.232 1075.25 238.504V335.688C1075.25 336.96 1075.75 338.18 1076.65 339.08C1077.55 339.98 1078.77 340.485 1080.05 340.485C1081.32 340.485 1082.54 339.98 1083.44 339.08C1084.34 338.18 1084.85 336.96 1084.85 335.688V238.504C1084.84 237.232 1084.34 236.012 1083.44 235.113C1082.54 234.213 1081.32 233.707 1080.05 233.706Z" fill="#57B6F0"/>
<path d="M1085.42 355.385C1085.42 352.422 1083.01 350.02 1080.05 350.02C1077.08 350.02 1074.68 352.422 1074.68 355.385C1074.68 358.348 1077.08 360.751 1080.05 360.751C1083.01 360.751 1085.42 358.348 1085.42 355.385Z" fill="#F7F8FA"/>
<path d="M1427.51 158.08C1425.73 158.08 1423.98 157.551 1422.5 156.56C1421.02 155.569 1419.86 154.161 1419.18 152.513C1418.5 150.865 1418.32 149.052 1418.67 147.303C1419.01 145.554 1419.87 143.948 1421.14 142.687C1422.4 141.426 1424 140.567 1425.75 140.22C1427.5 139.872 1429.32 140.051 1430.97 140.734C1432.61 141.417 1434.02 142.573 1435.01 144.056C1436.01 145.539 1436.53 147.283 1436.53 149.066C1436.53 151.456 1435.58 153.748 1433.89 155.438C1432.2 157.128 1429.9 158.078 1427.51 158.08ZM1427.51 141.185C1425.95 141.185 1424.43 141.647 1423.13 142.513C1421.84 143.379 1420.83 144.61 1420.23 146.05C1419.63 147.49 1419.48 149.075 1419.78 150.604C1420.08 152.132 1420.83 153.536 1421.94 154.639C1423.04 155.741 1424.45 156.491 1425.97 156.795C1427.5 157.1 1429.09 156.943 1430.53 156.347C1431.97 155.75 1433.2 154.74 1434.07 153.444C1434.93 152.148 1435.4 150.625 1435.4 149.066C1435.39 146.977 1434.56 144.973 1433.09 143.496C1431.61 142.019 1429.6 141.188 1427.51 141.185Z" fill="#F7F8FA"/>
<path d="M1427.51 133.337C1425.73 133.337 1423.98 132.809 1422.5 131.818C1421.02 130.827 1419.86 129.419 1419.18 127.771C1418.5 126.124 1418.32 124.311 1418.67 122.562C1419.01 120.813 1419.87 119.206 1421.13 117.946C1422.4 116.685 1424 115.826 1425.75 115.478C1427.5 115.13 1429.32 115.309 1430.96 115.991C1432.61 116.673 1434.02 117.829 1435.01 119.312C1436 120.795 1436.53 122.538 1436.53 124.321C1436.53 126.712 1435.58 129.004 1433.89 130.694C1432.2 132.384 1429.9 133.335 1427.51 133.337ZM1427.51 116.443C1425.95 116.443 1424.43 116.905 1423.13 117.771C1421.84 118.638 1420.82 119.868 1420.23 121.309C1419.63 122.749 1419.48 124.334 1419.78 125.862C1420.08 127.391 1420.84 128.795 1421.94 129.897C1423.04 130.999 1424.45 131.75 1425.98 132.054C1427.51 132.357 1429.09 132.201 1430.53 131.604C1431.97 131.007 1433.2 129.997 1434.07 128.7C1434.94 127.404 1435.4 125.88 1435.4 124.321C1435.39 122.232 1434.56 120.229 1433.09 118.752C1431.61 117.275 1429.6 116.445 1427.51 116.443Z" fill="#F7F8FA"/>
<path d="M1033.4 485.754H1119.33C1124.31 485.754 1129.09 487.732 1132.61 491.253C1136.14 494.775 1138.12 499.551 1138.12 504.53V585.66H1014.6V504.522C1014.6 502.056 1015.09 499.614 1016.03 497.336C1016.98 495.059 1018.37 492.989 1020.11 491.246C1021.86 489.504 1023.93 488.122 1026.21 487.179C1028.49 486.237 1030.93 485.752 1033.4 485.754Z" fill="#FADD6F"/>
<path d="M1111.75 485.754H1119.54C1124.47 485.754 1129.19 487.708 1132.67 491.188C1136.15 494.667 1138.11 499.386 1138.11 504.306V585.66H1101.52V495.974C1101.52 493.263 1102.6 490.664 1104.52 488.747C1106.44 486.831 1109.04 485.754 1111.75 485.754Z" fill="#F2A84C"/>
<path d="M1218.46 238.586L1218.3 238.663V238.586H1218.46Z" fill="#E17A9E"/>
<path d="M1222.95 238.586L1218.3 240.718V238.663L1218.46 238.586H1222.95Z" fill="#E17A9D"/>
<path d="M1227.43 238.586L1218.3 242.773V240.718L1222.95 238.586H1227.43Z" fill="#E1799C"/>
<path d="M1231.91 238.586L1218.3 244.829V242.773L1227.43 238.586H1231.91Z" fill="#E0799B"/>
<path d="M1236.4 238.586L1218.3 246.884V244.829L1231.91 238.586H1236.4Z" fill="#E0789A"/>
<path d="M1240.88 238.586L1218.3 248.937V246.884L1236.4 238.586H1240.88Z" fill="#E07899"/>
<path d="M1245.37 238.586L1218.3 250.992V248.937L1240.88 238.586H1245.37Z" fill="#E07798"/>
<path d="M1249.85 238.586L1218.3 253.047V250.992L1245.37 238.586H1249.85Z" fill="#E07697"/>
<path d="M1254.33 238.586L1218.3 255.103V253.047L1249.85 238.586H1254.33Z" fill="#E07696"/>
<path d="M1258.82 238.586L1218.3 257.158V255.103L1254.33 238.586H1258.82Z" fill="#E07595"/>
<path d="M1263.3 238.586L1218.3 259.213V257.158L1258.82 238.586H1263.3Z" fill="#E07594"/>
<path d="M1267.78 238.586L1218.3 261.269V259.213L1263.3 238.586H1267.78Z" fill="#E07493"/>
<path d="M1272.27 238.586L1218.3 263.324V261.269L1267.78 238.586H1272.27Z" fill="#E07492"/>
<path d="M1276.75 238.586L1218.3 265.379V263.324L1272.27 238.586H1276.75Z" fill="#E07391"/>
<path d="M1281.24 238.586L1218.3 267.435V265.379L1276.75 238.586H1281.24Z" fill="#E07390"/>
<path d="M1285.72 238.586L1218.3 269.49V267.435L1281.24 238.586H1285.72Z" fill="#DF728F"/>
<path d="M1290.21 238.586L1218.3 271.543V269.49L1285.72 238.586H1290.21Z" fill="#DF728E"/>
<path d="M1293.49 239.137L1218.3 273.598V271.543L1290.21 238.586H1293.49V239.137Z" fill="#DF718D"/>
<path d="M1293.49 241.192L1218.3 275.653V273.598L1293.49 239.137V241.192Z" fill="#DF708C"/>
<path d="M1293.49 243.247L1218.3 277.708V275.653L1293.49 241.191V243.247Z" fill="#DF708B"/>
<path d="M1293.49 245.301L1218.3 279.763V277.708L1293.49 243.246V245.301Z" fill="#DF6F8A"/>
<path d="M1293.49 247.36L1218.3 281.821V279.766L1293.49 245.305V247.36Z" fill="#DF6F89"/>
<path d="M1293.49 249.412L1218.3 283.876V281.821L1293.49 247.359V249.412Z" fill="#DF6E88"/>
<path d="M1293.49 251.466L1218.3 285.93V283.874L1293.49 249.41V251.466Z" fill="#DF6E87"/>
<path d="M1293.49 253.52L1218.3 287.984V285.929L1293.49 251.465V253.52Z" fill="#DF6D86"/>
<path d="M1293.49 255.575L1218.3 290.039V287.984L1293.49 253.52V255.575Z" fill="#DF6D85"/>
<path d="M1293.49 257.633L1218.3 292.095V290.042L1293.49 255.578V257.633Z" fill="#DF6C84"/>
<path d="M1293.49 259.688L1218.3 294.15V292.094L1293.49 257.633V259.688Z" fill="#DE6C83"/>
<path d="M1293.49 261.743L1218.3 296.204V294.149L1293.49 259.688V261.743Z" fill="#DE6B82"/>
<path d="M1293.49 263.798L1218.3 298.259V296.204L1293.49 261.742V263.798Z" fill="#DE6A81"/>
<path d="M1293.49 265.852L1218.3 300.314V298.258L1293.49 263.797V265.852Z" fill="#DE6A80"/>
<path d="M1293.49 267.911L1218.3 302.372V300.317L1293.49 265.855V267.911Z" fill="#DE697F"/>
<path d="M1293.49 269.963L1218.3 304.427V302.372L1293.49 267.91V269.963Z" fill="#DE697E"/>
<path d="M1293.49 272.016L1218.3 306.481V304.425L1293.49 269.961V272.016Z" fill="#DE687D"/>
<path d="M1293.49 274.071L1218.3 308.535V306.48L1293.49 272.016V274.071Z" fill="#DE687C"/>
<path d="M1293.49 276.126L1218.3 310.587V308.535L1293.49 274.07V276.126Z" fill="#DE677B"/>
<path d="M1293.49 278.18L1218.3 312.642V310.586L1293.49 276.125V278.18Z" fill="#DE677A"/>
<path d="M1293.49 280.239L1218.3 314.7V312.645L1293.49 278.184V280.239Z" fill="#DE6679"/>
<path d="M1293.49 282.294L1218.3 316.755V314.7L1293.49 280.238V282.294Z" fill="#DE6678"/>
<path d="M1293.49 284.348L1218.3 318.81V316.754L1293.49 282.293V284.348Z" fill="#DD6576"/>
<path d="M1293.49 286.403L1218.3 320.864V318.809L1293.49 284.348V286.403Z" fill="#DD6475"/>
<path d="M1293.49 288.462L1218.3 322.923V320.868L1293.49 286.406V288.462Z" fill="#DD6474"/>
<path d="M1293.49 290.513L1218.3 324.978V322.922L1293.49 288.461V290.513Z" fill="#DD6373"/>
<path d="M1293.49 292.567L1218.3 327.031V324.976L1293.49 290.512V292.567Z" fill="#DD6372"/>
<path d="M1293.49 294.622L1218.3 329.086V327.031L1293.49 292.566V294.622Z" fill="#DD6271"/>
<path d="M1293.49 296.68L1218.3 331.142V329.089L1293.49 294.625V296.68Z" fill="#DD6270"/>
<path d="M1293.49 298.735L1218.3 333.196V331.141L1293.49 296.68V298.735Z" fill="#DD616F"/>
<path d="M1293.49 300.79L1218.3 335.251V333.196L1293.49 298.734V300.79Z" fill="#DD616E"/>
<path d="M1293.49 302.844L1218.3 337.306V335.25L1293.49 300.789V302.844Z" fill="#DD606D"/>
<path d="M1293.49 304.899L1218.3 339.361V337.305L1293.49 302.844V304.899Z" fill="#DD5F6C"/>
<path d="M1293.49 306.954L1218.3 341.415V339.36L1293.49 304.898V306.954Z" fill="#DD5F6B"/>
<path d="M1293.49 309.008L1218.3 343.47V341.415L1293.49 306.953V309.008Z" fill="#DC5E6A"/>
<path d="M1293.49 311.067L1218.3 345.529V343.473L1293.49 309.012V311.067Z" fill="#DC5E69"/>
<path d="M1293.49 313.119L1218.3 347.583V345.528L1293.49 311.066V313.119Z" fill="#DC5D68"/>
<path d="M1293.49 315.173L1218.3 349.637V347.581L1293.49 313.117V315.173Z" fill="#DC5D67"/>
<path d="M1293.49 317.227L1218.3 351.691V349.636L1293.49 315.172V317.227Z" fill="#DC5C66"/>
<path d="M1293.49 319.286L1218.3 353.747V351.695L1293.49 317.23V319.286Z" fill="#DC5C65"/>
<path d="M1293.49 321.341L1218.3 355.802V353.747L1293.49 319.285V321.341Z" fill="#DC5B64"/>
<path d="M1293.49 323.395L1218.3 357.857V355.801L1293.49 321.34V323.395Z" fill="#DC5B63"/>
<path d="M1293.49 325.45L1218.3 359.911V357.856L1293.49 323.395V325.45Z" fill="#DC5A62"/>
<path d="M1293.49 327.505L1218.3 361.966V359.911L1293.49 325.449V327.505Z" fill="#DC5961"/>
<path d="M1293.49 329.563L1218.3 364.025V361.969L1293.49 327.508V329.563Z" fill="#DC5960"/>
<path d="M1293.49 331.618L1218.3 366.079V364.024L1293.49 329.562V331.618Z" fill="#DC585F"/>
<path d="M1293.49 333.67L1218.3 368.134V366.079L1293.49 331.617V333.67Z" fill="#DB585E"/>
<path d="M1293.49 335.723L1218.3 370.188V368.132L1293.49 333.668V335.723Z" fill="#DB575D"/>
<path d="M1293.49 337.778L1218.3 372.242V370.187L1293.49 335.723V337.778Z" fill="#DB575C"/>
<path d="M1293.49 339.837L1218.3 374.298V372.246L1293.49 337.781V339.837Z" fill="#DB565B"/>
<path d="M1293.49 341.891L1218.3 376.353V374.297L1293.49 339.836V341.891Z" fill="#DB565A"/>
<path d="M1293.49 343.946L1218.3 378.407V376.352L1293.49 341.891V343.946Z" fill="#DB5559"/>
<path d="M1293.49 346.001L1218.3 380.462V378.407L1293.49 343.945V346.001Z" fill="#DB5558"/>
<path d="M1293.49 348.055L1218.3 382.517V380.461L1293.49 346V348.055Z" fill="#DB5457"/>
<path d="M1293.49 350.11L1218.3 384.572V382.516L1293.49 348.055V350.11Z" fill="#DB5356"/>
<path d="M1293.49 352.169L1218.3 386.63V384.575L1293.49 350.113V352.169Z" fill="#DB5355"/>
<path d="M1293.49 354.223L1218.3 388.685V386.629L1293.49 352.168V354.223Z" fill="#DB5254"/>
<path d="M1293.49 356.275L1218.3 390.739V388.684L1293.49 354.223V356.275Z" fill="#DB5253"/>
<path d="M1293.49 358.333L1218.3 392.797V390.742L1293.49 356.277V358.333Z" fill="#DA5152"/>
<path d="M1293.49 360.387L1218.3 394.849V392.796L1293.49 358.332V360.387Z" fill="#DA5151"/>
<path d="M1293.49 362.442L1218.3 396.903V394.848L1293.49 360.387V362.442Z" fill="#DA5050"/>
<path d="M1293.49 364.497L1218.3 398.958V396.903L1293.49 362.441V364.497Z" fill="#DA504F"/>
<path d="M1293.49 366.551L1218.3 401.013V398.958L1293.49 364.496V366.551Z" fill="#DA4F4E"/>
<path d="M1293.49 368.61L1218.3 403.071V401.016L1293.49 366.555V368.61Z" fill="#DA4F4D"/>
<path d="M1293.49 370.665L1218.3 405.126V403.071L1293.49 368.609V370.665Z" fill="#DA4E4C"/>
<path d="M1293.49 372.719L1218.3 407.181V405.125L1293.49 370.664V372.719Z" fill="#DA4D4B"/>
<path d="M1293.49 374.774L1218.3 409.236V407.18L1293.49 372.719V374.774Z" fill="#DA4D4A"/>
<path d="M1293.49 376.826L1218.3 411.29V409.235L1293.49 374.773V376.826Z" fill="#DA4C49"/>
<path d="M1293.49 378.883L1218.3 413.348V411.292L1293.49 376.828V378.883Z" fill="#DA4C48"/>
<path d="M1293.49 380.938L1218.3 415.402V413.347L1293.49 378.883V380.938Z" fill="#DA4B47"/>
<path d="M1293.49 382.993L1218.3 417.454V415.402L1293.49 380.938V382.993Z" fill="#D94B46"/>
<path d="M1293.49 385.048L1218.3 419.509V417.454L1293.49 382.992V385.048Z" fill="#D94A45"/>
<path d="M1293.49 387.102L1218.3 421.564V419.508L1293.49 385.047V387.102Z" fill="#D94A44"/>
<path d="M1293.49 389.157L1218.3 423.618V421.563L1293.49 387.102V389.157Z" fill="#D94943"/>
<path d="M1293.49 391.212L1218.3 425.673V423.618L1293.49 389.156V391.212Z" fill="#D94942"/>
<path d="M1293.49 393.27L1218.3 427.732V425.676L1293.49 391.215V393.27Z" fill="#D94841"/>
<path d="M1218.3 427.731L1293.49 393.27V463.612H1218.3V427.731Z" fill="#D94841"/>
<path d="M1274.67 238.586L1271.28 240.142V238.586H1274.67Z" fill="#D94B46"/>
<path d="M1278.11 238.586L1271.28 241.714V240.142L1274.67 238.586H1278.11Z" fill="#D94B47"/>
<path d="M1281.55 238.586L1271.28 243.29V241.714L1278.11 238.586H1281.55Z" fill="#DA4B47"/>
<path d="M1284.98 238.586L1271.28 244.866V243.29L1281.55 238.586H1284.98Z" fill="#DA4C48"/>
<path d="M1288.42 238.586L1271.28 246.441V244.866L1284.98 238.586H1288.42Z" fill="#DA4C48"/>
<path d="M1291.85 238.586L1271.28 248.014V246.441L1288.42 238.586H1291.85Z" fill="#DA4C49"/>
<path d="M1293.49 239.412L1271.28 249.59V248.014L1291.85 238.586H1293.49V239.412Z" fill="#DA4D4A"/>
<path d="M1293.49 240.99L1271.28 251.167V249.592L1293.49 239.414V240.99Z" fill="#DA4D4A"/>
<path d="M1293.49 242.561L1271.28 252.741V251.166L1293.49 240.988V242.561Z" fill="#DA4D4B"/>
<path d="M1293.49 244.138L1271.28 254.316V252.743L1293.49 242.562V244.138Z" fill="#DA4E4B"/>
<path d="M1293.49 245.712L1271.28 255.89V254.314L1293.49 244.137V245.712Z" fill="#DA4E4C"/>
<path d="M1293.49 247.287L1271.28 257.464V255.888L1293.49 245.711V247.287Z" fill="#DA4E4D"/>
<path d="M1293.49 248.858L1271.28 259.038V257.463L1293.49 247.285V248.858Z" fill="#DA4F4D"/>
<path d="M1293.49 250.435L1271.28 260.612V259.04L1293.49 248.859V250.435Z" fill="#DA4F4E"/>
<path d="M1293.49 252.013L1271.28 262.191V260.615L1293.49 250.438V252.013Z" fill="#DA4F4F"/>
<path d="M1293.49 253.584L1271.28 263.765V262.189L1293.49 252.012V253.584Z" fill="#DA504F"/>
<path d="M1293.49 255.158L1271.28 265.338V263.762L1293.49 253.582V255.158Z" fill="#DA5050"/>
<path d="M1293.49 256.736L1271.28 266.913V265.34L1293.49 255.16V256.736Z" fill="#DA5151"/>
<path d="M1293.49 258.31L1271.28 268.487V266.912L1293.49 256.734V258.31Z" fill="#DA5152"/>
<path d="M1293.49 259.885L1271.28 270.066V268.49L1293.49 258.312V259.885Z" fill="#DA5152"/>
<path d="M1293.49 261.458L1271.28 271.639V270.063L1293.49 259.883V261.458Z" fill="#DB5253"/>
<path d="M1293.49 263.033L1271.28 273.21V271.637L1293.49 261.457V263.033Z" fill="#DB5254"/>
<path d="M1293.49 264.611L1271.28 274.788V273.213L1293.49 263.035V264.611Z" fill="#DB5355"/>
<path d="M1293.49 266.185L1271.28 276.362V274.787L1293.49 264.609V266.185Z" fill="#DB5356"/>
<path d="M1293.49 267.76L1271.28 277.941V276.365L1293.49 266.188V267.76Z" fill="#DB5457"/>
<path d="M1293.49 269.333L1271.28 279.511V277.938L1293.49 267.758V269.333Z" fill="#DB5458"/>
<path d="M1293.49 270.912L1271.28 281.089V279.513L1293.49 269.336V270.912Z" fill="#DB5559"/>
<path d="M1293.49 272.483L1271.28 282.663V281.088L1293.49 270.91V272.483Z" fill="#DB5559"/>
<path d="M1293.49 274.056L1271.28 284.234V282.661L1293.49 272.48V274.056Z" fill="#DB565A"/>
<path d="M1293.49 275.634L1271.28 285.812V284.236L1293.49 274.059V275.634Z" fill="#DB565B"/>
<path d="M1293.49 277.208L1271.28 287.386V285.81L1293.49 275.633V277.208Z" fill="#DB575C"/>
<path d="M1293.49 278.78L1271.28 288.96V287.385L1293.49 277.207V278.78Z" fill="#DB575D"/>
<path d="M1293.49 280.357L1271.28 290.537V288.962L1293.49 278.781V280.357Z" fill="#DB585F"/>
<path d="M1293.49 281.935L1271.28 292.112V290.54L1293.49 280.359V281.935Z" fill="#DC5960"/>
<path d="M1293.49 283.509L1271.28 293.687V292.111L1293.49 281.934V283.509Z" fill="#DC5961"/>
<path d="M1293.49 285.081L1271.28 295.261V293.685L1293.49 283.508V285.081Z" fill="#DC5A62"/>
<path d="M1293.49 286.658L1271.28 296.835V295.262L1293.49 285.082V286.658Z" fill="#DC5A63"/>
<path d="M1293.49 288.232L1271.28 298.409V296.834L1293.49 286.656V288.232Z" fill="#DC5B64"/>
<path d="M1293.49 289.806L1271.28 299.983V298.408L1293.49 288.23V289.806Z" fill="#DC5C65"/>
<path d="M1293.49 291.381L1271.28 301.562V299.986L1293.49 289.809V291.381Z" fill="#DC5C66"/>
<path d="M1293.49 292.958L1271.28 303.136V301.563L1293.49 291.383V292.958Z" fill="#DC5D68"/>
<path d="M1293.49 294.533L1271.28 304.71V303.135L1293.49 292.957V294.533Z" fill="#DC5E69"/>
<path d="M1293.49 296.107L1271.28 306.284V304.709L1293.49 294.531V296.107Z" fill="#DC5E6A"/>
<path d="M1293.49 297.682L1271.28 307.862V306.287L1293.49 296.109V297.682Z" fill="#DC5F6B"/>
<path d="M1293.49 299.255L1271.28 309.433V307.86L1293.49 297.68V299.255Z" fill="#DD606D"/>
<path d="M1293.49 300.833L1271.28 311.011V309.435L1293.49 299.258V300.833Z" fill="#DD606E"/>
<path d="M1293.49 302.405L1271.28 312.585V311.009L1293.49 300.832V302.405Z" fill="#DD616F"/>
<path d="M1293.49 303.982L1271.28 314.162V312.587L1293.49 302.406V303.982Z" fill="#DD6271"/>
<path d="M1293.49 305.556L1271.28 315.734V314.161L1293.49 303.98V305.556Z" fill="#DD6272"/>
<path d="M1293.49 307.13L1271.28 317.308V315.732L1293.49 305.555V307.13Z" fill="#DD6373"/>
<path d="M1293.49 308.708L1271.28 318.886V317.31L1293.49 307.133V308.708Z" fill="#DD6475"/>
<path d="M1293.49 310.28L1271.28 320.46V318.884L1293.49 308.707V310.28Z" fill="#DD6576"/>
<path d="M1293.49 311.857L1271.28 322.034V320.462L1293.49 310.281V311.857Z" fill="#DE6678"/>
<path d="M1293.49 313.431L1271.28 323.609V322.033L1293.49 311.855V313.431Z" fill="#DE6679"/>
<path d="M1293.49 315.002L1271.28 325.183V323.607L1293.49 313.43V315.002Z" fill="#DE677B"/>
<path d="M1293.49 316.579L1271.28 326.76V325.184L1293.49 315.004V316.579Z" fill="#DE687C"/>
<path d="M1293.49 318.154L1271.28 328.331V326.758L1293.49 316.578V318.154Z" fill="#DE697E"/>
<path d="M1293.49 319.728L1271.28 329.905V328.33L1293.49 318.152V319.728Z" fill="#DE6A7F"/>
<path d="M1293.49 321.303L1271.28 331.483V329.908L1293.49 319.73V321.303Z" fill="#DE6A81"/>
<path d="M1293.49 322.88L1271.28 333.058V331.485L1293.49 321.305V322.88Z" fill="#DE6B82"/>
<path d="M1293.49 324.454L1271.28 334.632V333.056L1293.49 322.879V324.454Z" fill="#DF6C84"/>
<path d="M1293.49 326.029L1271.28 336.206V334.631L1293.49 324.453V326.029Z" fill="#DF6D85"/>
<path d="M1293.49 327.604L1271.28 337.784V336.209L1293.49 326.031V327.604Z" fill="#DF6E87"/>
<path d="M1293.49 329.177L1271.28 339.357V337.782L1293.49 327.602V329.177Z" fill="#DF6F89"/>
<path d="M1293.49 330.755L1271.28 340.933V339.36L1293.49 329.18V330.755Z" fill="#DF708A"/>
<path d="M1293.49 332.33L1271.28 342.507V340.931L1293.49 330.754V332.33Z" fill="#DF718C"/>
<path d="M1293.49 333.901L1271.28 344.081V342.506L1293.49 332.328V333.901Z" fill="#DF728E"/>
<path d="M1293.49 335.478L1271.28 345.655V344.083L1293.49 333.902V335.478Z" fill="#DF7390"/>
<path d="M1293.49 337.052L1271.28 347.23V345.654L1293.49 335.477V337.052Z" fill="#E07391"/>
<path d="M1293.49 338.63L1271.28 348.808V347.232L1293.49 337.055V338.63Z" fill="#E07493"/>
<path d="M1293.49 340.202L1271.28 350.382V348.806L1293.49 338.629V340.202Z" fill="#E07595"/>
<path d="M1293.49 341.779L1271.28 351.956V350.383L1293.49 340.203V341.779Z" fill="#E07697"/>
<path d="M1293.49 343.353L1271.28 353.53V351.955L1293.49 341.777V343.353Z" fill="#E07799"/>
<path d="M1293.49 344.927L1271.28 355.105V353.529L1293.49 343.352V344.927Z" fill="#E0789A"/>
<path d="M1293.49 346.502L1271.28 356.683V355.107L1293.49 344.93V346.502Z" fill="#E1799C"/>
<path d="M1293.49 348.076L1271.28 358.253V356.68L1293.49 346.5V348.076Z" fill="#E17A9E"/>
<path d="M1293.49 349.654L1271.28 359.831V358.256L1293.49 348.078V349.654Z" fill="#E17BA0"/>
<path d="M1293.49 351.225L1271.28 361.405V359.83L1293.49 349.652V351.225Z" fill="#E17CA2"/>
<path d="M1293.49 352.802L1271.28 362.982V361.407L1293.49 351.227V352.802Z" fill="#E17EA4"/>
<path d="M1293.49 354.376L1271.28 364.554V362.981L1293.49 352.801V354.376Z" fill="#E17FA6"/>
<path d="M1293.49 355.951L1271.28 366.128V364.552L1293.49 354.375V355.951Z" fill="#E180A8"/>
<path d="M1293.49 357.529L1271.28 367.706V366.131L1293.49 355.953V357.529Z" fill="#E281AA"/>
<path d="M1293.49 359.1L1271.28 369.28V367.705L1293.49 357.527V359.1Z" fill="#E282AC"/>
<path d="M1293.49 360.677L1271.28 370.855V369.282L1293.49 359.102V360.677Z" fill="#E283AE"/>
<path d="M1271.28 370.853L1293.49 360.676V414.581H1271.28V370.853Z" fill="#E283AE"/>
<path d="M1489.16 197.488H1364.17C1357.89 197.488 1352.8 202.573 1352.8 208.845C1352.8 215.118 1357.89 220.202 1364.17 220.202H1489.16C1495.43 220.202 1500.52 215.118 1500.52 208.845C1500.52 202.573 1495.43 197.488 1489.16 197.488Z" fill="#4A86F7"/>
<path d="M1232.91 315.527H1232.59C1230.65 315.527 1229.08 317.097 1229.08 319.033V424.462C1229.08 426.398 1230.65 427.968 1232.59 427.968H1232.91C1234.84 427.968 1236.41 426.398 1236.41 424.462V319.033C1236.41 317.097 1234.84 315.527 1232.91 315.527Z" fill="#FADD6F"/>
<path d="M1245.3 315.441H1244.99C1243.06 315.441 1241.49 317.006 1241.49 318.936V424.387C1241.49 426.317 1243.06 427.882 1244.99 427.882H1245.3C1247.23 427.882 1248.8 426.317 1248.8 424.387V318.936C1248.8 317.006 1247.23 315.441 1245.3 315.441Z" fill="#FADD6F"/>
<path d="M1257.7 315.613H1257.39C1255.46 315.613 1253.89 317.178 1253.89 319.108V424.559C1253.89 426.489 1255.46 428.054 1257.39 428.054H1257.7C1259.63 428.054 1261.2 426.489 1261.2 424.559V319.108C1261.2 317.178 1259.63 315.613 1257.7 315.613Z" fill="#FADD6F"/>
<path d="M1469.23 170.469H1385.81C1380.98 170.469 1377.06 174.385 1377.06 179.215C1377.06 184.046 1380.98 187.962 1385.81 187.962H1469.23C1474.06 187.962 1477.98 184.046 1477.98 179.215C1477.98 174.385 1474.06 170.469 1469.23 170.469Z" fill="#FADD6F"/>
<path d="M1293.5 802.309H1158.73V533.712C1158.73 516.022 1162.22 498.506 1168.99 482.164C1175.76 465.821 1185.69 450.972 1198.2 438.464C1210.72 425.957 1225.58 416.035 1241.93 409.267C1258.28 402.499 1275.8 399.016 1293.5 399.017V802.309Z" fill="#83BF6E"/>
<path d="M1362.63 238.589H1508.5C1511.51 238.589 1514.5 239.182 1517.29 240.336C1520.07 241.489 1522.6 243.18 1524.74 245.311C1526.87 247.443 1528.56 249.973 1529.71 252.758C1530.87 255.542 1531.46 258.527 1531.46 261.541V773.367C1531.46 777.294 1529.9 781.06 1527.12 783.837C1524.34 786.614 1520.58 788.174 1516.65 788.174H1362.63C1360.68 788.175 1358.76 787.792 1356.96 787.048C1355.16 786.304 1353.53 785.213 1352.15 783.838C1350.78 782.463 1349.69 780.831 1348.94 779.034C1348.2 777.237 1347.81 775.312 1347.81 773.367V253.394C1347.81 249.466 1349.37 245.7 1352.15 242.923C1354.93 240.146 1358.7 238.586 1362.63 238.586L1362.63 238.589Z" fill="#4A86F7"/>
<path d="M1340.8 238.586H1509.63V773.364C1509.63 777.291 1508.07 781.057 1505.29 783.835C1502.51 786.612 1498.74 788.172 1494.82 788.172H1340.8C1336.87 788.172 1333.1 786.612 1330.32 783.835C1327.55 781.057 1325.98 777.291 1325.98 773.364V253.391C1325.99 249.464 1327.55 245.698 1330.32 242.922C1333.1 240.146 1336.87 238.586 1340.8 238.586Z" fill="#57B6F0"/>
<path d="M1505.31 541.59H1623.33C1628.1 541.59 1632.68 543.485 1636.05 546.857C1639.43 550.23 1641.32 554.805 1641.32 559.574C1641.32 564.344 1639.43 568.918 1636.05 572.291C1632.68 575.664 1628.1 577.559 1623.33 577.559H1505.31V541.59Z" fill="#57B6F0"/>
<path d="M790.758 698.141H915.463C921.817 698.141 926.969 692.992 926.969 686.64V672.304C926.969 665.952 921.817 660.803 915.463 660.803H790.758C784.403 660.803 779.252 665.952 779.252 672.304V686.64C779.252 692.992 784.403 698.141 790.758 698.141Z" fill="#F2A84C"/>
<g opacity="0.55">
<path opacity="0.55" d="M925.023 674.02H911.444V666.772H925.023C925.848 666.772 926.639 667.099 927.222 667.682C927.805 668.265 928.133 669.056 928.133 669.88V670.925C928.129 671.747 927.8 672.534 927.217 673.114C926.634 673.694 925.845 674.02 925.023 674.02Z" fill="#F7F8FA"/>
</g>
<g opacity="0.55">
<path opacity="0.55" d="M890.975 674.02H907.664V666.772H890.975V674.02Z" fill="#F7F8FA"/>
</g>
<g opacity="0.55">
<path opacity="0.55" d="M870.506 674.02H887.195V666.772H870.506V674.02Z" fill="#F7F8FA"/>
</g>
<g opacity="0.55">
<path opacity="0.55" d="M850.037 674.02H866.727V666.772H850.037V674.02Z" fill="#F7F8FA"/>
</g>
<g opacity="0.55">
<path opacity="0.55" d="M829.569 674.02H846.258V666.772H829.569V674.02Z" fill="#F7F8FA"/>
</g>
<g opacity="0.55">
<path opacity="0.55" d="M809.108 674.02H825.797V666.772H809.108V674.02Z" fill="#F7F8FA"/>
</g>
<g opacity="0.55">
<path opacity="0.55" d="M805.008 674.023H791.943C791.467 674.023 790.996 673.93 790.556 673.748C790.116 673.566 789.717 673.299 789.38 672.962C789.044 672.626 788.777 672.227 788.595 671.787C788.412 671.348 788.319 670.877 788.319 670.401C788.319 669.44 788.701 668.519 789.38 667.84C790.06 667.16 790.982 666.779 791.943 666.779H805.008V674.023Z" fill="#F7F8FA"/>
</g>
<path d="M629.765 698.141H754.471C760.825 698.141 765.977 692.992 765.977 686.64V672.304C765.977 665.952 760.825 660.803 754.471 660.803H629.765C623.411 660.803 618.26 665.952 618.26 672.304V686.64C618.26 692.992 623.411 698.141 629.765 698.141Z" fill="#F2A84C"/>
<g opacity="0.55">
<path opacity="0.55" d="M764.03 674.02H750.451V666.772H764.03C764.855 666.772 765.646 667.099 766.229 667.682C766.812 668.265 767.14 669.056 767.14 669.88V670.925C767.136 671.747 766.807 672.534 766.224 673.114C765.641 673.694 764.852 674.02 764.03 674.02Z" fill="#F7F8FA"/>
</g>
<g opacity="0.55">
<path opacity="0.55" d="M729.983 674.02H746.672V666.772H729.983V674.02Z" fill="#F7F8FA"/>
</g>
<g opacity="0.55">
<path opacity="0.55" d="M709.514 674.02H726.203V666.772H709.514V674.02Z" fill="#F7F8FA"/>
</g>
<g opacity="0.55">
<path opacity="0.55" d="M689.045 674.02H705.734V666.772H689.045V674.02Z" fill="#F7F8FA"/>
</g>
<g opacity="0.55">
<path opacity="0.55" d="M668.584 674.02H685.273V666.772H668.584V674.02Z" fill="#F7F8FA"/>
</g>
<g opacity="0.55">
<path opacity="0.55" d="M648.108 674.02H664.797V666.772H648.108V674.02Z" fill="#F7F8FA"/>
</g>
<g opacity="0.55">
<path opacity="0.55" d="M644.014 674.02H630.949C630.473 674.02 630.002 673.926 629.562 673.744C629.123 673.562 628.723 673.295 628.387 672.959C628.05 672.622 627.783 672.223 627.601 671.783C627.419 671.344 627.325 670.873 627.325 670.397C627.325 669.92 627.419 669.447 627.602 669.006C627.785 668.565 628.053 668.165 628.392 667.828C628.73 667.491 629.132 667.224 629.573 667.043C630.015 666.862 630.489 666.77 630.966 666.772H644.031V674.02H644.014Z" fill="#F7F8FA"/>
</g>
<g opacity="0.57">
<path opacity="0.57" d="M1293.32 469.25H1213.19C1209.18 469.25 1205.93 472.499 1205.93 476.508C1205.93 480.516 1209.18 483.765 1213.19 483.765H1293.32C1297.33 483.765 1300.59 480.516 1300.59 476.508C1300.59 472.499 1297.33 469.25 1293.32 469.25Z" fill="#F7F8FA"/>
</g>
<g opacity="0.57">
<path opacity="0.57" d="M1293.32 494.352H1213.19C1209.18 494.352 1205.93 497.601 1205.93 501.609C1205.93 505.617 1209.18 508.867 1213.19 508.867H1293.32C1297.33 508.867 1300.59 505.617 1300.59 501.609C1300.59 497.601 1297.33 494.352 1293.32 494.352Z" fill="#F7F8FA"/>
</g>
<g opacity="0.57">
<path opacity="0.57" d="M1293.32 519.445H1213.19C1209.18 519.445 1205.93 522.695 1205.93 526.703C1205.93 530.711 1209.18 533.961 1213.19 533.961H1293.32C1297.33 533.961 1300.59 530.711 1300.59 526.703C1300.59 522.695 1297.33 519.445 1293.32 519.445Z" fill="#F7F8FA"/>
</g>
<g opacity="0.57">
<path opacity="0.57" d="M1293.32 544.539H1213.19C1209.18 544.539 1205.93 547.788 1205.93 551.797C1205.93 555.805 1209.18 559.055 1213.19 559.055H1293.32C1297.33 559.055 1300.59 555.805 1300.59 551.797C1300.59 547.788 1297.33 544.539 1293.32 544.539Z" fill="#F7F8FA"/>
</g>
<g opacity="0.57">
<path opacity="0.57" d="M1293.32 569.637H1213.19C1209.18 569.637 1205.93 572.886 1205.93 576.894C1205.93 580.903 1209.18 584.152 1213.19 584.152H1293.32C1297.33 584.152 1300.59 580.903 1300.59 576.894C1300.59 572.886 1297.33 569.637 1293.32 569.637Z" fill="#F7F8FA"/>
</g>
<g opacity="0.57">
<path opacity="0.57" d="M1293.32 594.734H1213.19C1209.18 594.734 1205.93 597.984 1205.93 601.992C1205.93 606 1209.18 609.25 1213.19 609.25H1293.32C1297.33 609.25 1300.59 606 1300.59 601.992C1300.59 597.984 1297.33 594.734 1293.32 594.734Z" fill="#F7F8FA"/>
</g>
<g opacity="0.57">
<path opacity="0.57" d="M1085.42 497.297H1022.13V507.003H1085.42V497.297Z" fill="#F7F8FA"/>
</g>
<g opacity="0.57">
<path opacity="0.57" d="M1085.42 514.078H1022.13V523.784H1085.42V514.078Z" fill="#F7F8FA"/>
</g>
<g opacity="0.57">
<path opacity="0.57" d="M1085.42 530.855H1022.13V540.562H1085.42V530.855Z" fill="#F7F8FA"/>
</g>
<g opacity="0.57">
<path opacity="0.57" d="M1085.42 547.637H1022.13V557.343H1085.42V547.637Z" fill="#F7F8FA"/>
</g>
<g opacity="0.57">
<path opacity="0.57" d="M1085.42 564.414H1022.13V574.12H1085.42V564.414Z" fill="#F7F8FA"/>
</g>
<g opacity="0.64">
<g opacity="0.57">
<path opacity="0.57" d="M1568.25 605.199V609.137H1607.28C1607.79 609.117 1608.27 608.902 1608.62 608.534C1608.98 608.167 1609.17 607.678 1609.17 607.168C1609.17 606.658 1608.98 606.169 1608.62 605.802C1608.27 605.434 1607.79 605.219 1607.28 605.199H1568.25Z" fill="#F7F8FA"/>
</g>
<g opacity="0.57">
<path opacity="0.57" d="M1568.25 612.008V615.945H1607.28C1607.79 615.926 1608.27 615.71 1608.62 615.343C1608.98 614.976 1609.17 614.486 1609.17 613.977C1609.17 613.467 1608.98 612.977 1608.62 612.61C1608.27 612.243 1607.79 612.027 1607.28 612.008H1568.25Z" fill="#F7F8FA"/>
</g>
<g opacity="0.57">
<path opacity="0.57" d="M1568.25 618.815V622.742H1607.28C1607.67 622.741 1608.05 622.625 1608.37 622.408C1608.69 622.192 1608.95 621.884 1609.09 621.525C1609.24 621.165 1609.28 620.77 1609.21 620.388C1609.13 620.007 1608.94 619.656 1608.67 619.38C1608.49 619.198 1608.27 619.055 1608.03 618.957C1607.79 618.86 1607.54 618.811 1607.28 618.813L1568.25 618.815Z" fill="#F7F8FA"/>
</g>
<g opacity="0.57">
<path opacity="0.57" d="M1568.25 625.623V629.555H1607.28C1607.8 629.554 1608.3 629.346 1608.67 628.977C1609.04 628.607 1609.25 628.107 1609.25 627.585C1609.25 627.063 1609.04 626.562 1608.67 626.193C1608.3 625.824 1607.8 625.617 1607.28 625.617L1568.25 625.623Z" fill="#F7F8FA"/>
</g>
<g opacity="0.57">
<path opacity="0.57" d="M1568.25 632.43V636.367H1607.28C1607.67 636.366 1608.05 636.25 1608.37 636.034C1608.69 635.817 1608.95 635.51 1609.09 635.15C1609.24 634.791 1609.28 634.396 1609.21 634.014C1609.13 633.632 1608.94 633.282 1608.67 633.006C1608.49 632.824 1608.27 632.68 1608.03 632.583C1607.79 632.485 1607.54 632.436 1607.28 632.438L1568.25 632.43Z" fill="#F7F8FA"/>
</g>
<g opacity="0.57">
<path opacity="0.57" d="M1568.25 638.887V642.821H1607.28C1607.8 642.821 1608.3 642.614 1608.67 642.245C1609.04 641.876 1609.25 641.376 1609.25 640.854C1609.25 640.332 1609.04 639.832 1608.67 639.463C1608.3 639.094 1607.8 638.887 1607.28 638.887H1568.25Z" fill="#F7F8FA"/>
</g>
<g opacity="0.57">
<path opacity="0.57" d="M1568.25 645.695V649.63H1607.28C1607.8 649.63 1608.3 649.423 1608.67 649.054C1609.04 648.685 1609.25 648.184 1609.25 647.663C1609.25 647.141 1609.04 646.64 1608.67 646.271C1608.3 645.903 1607.8 645.695 1607.28 645.695H1568.25Z" fill="#F7F8FA"/>
</g>
<g opacity="0.57">
<path opacity="0.57" d="M1568.25 652.5V656.435H1607.28C1607.8 656.435 1608.3 656.227 1608.67 655.859C1609.04 655.49 1609.25 654.989 1609.25 654.467C1609.25 653.946 1609.04 653.445 1608.67 653.076C1608.3 652.707 1607.8 652.5 1607.28 652.5H1568.25Z" fill="#F7F8FA"/>
</g>
<g opacity="0.57">
<path opacity="0.57" d="M1568.25 659.305V663.242H1607.28C1607.79 663.223 1608.27 663.007 1608.62 662.64C1608.98 662.273 1609.17 661.783 1609.17 661.273C1609.17 660.764 1608.98 660.274 1608.62 659.907C1608.27 659.54 1607.79 659.324 1607.28 659.305H1568.25Z" fill="#F7F8FA"/>
</g>
<g opacity="0.57">
<path opacity="0.57" d="M1568.25 666.109V670.05H1607.28C1607.8 670.05 1608.3 669.842 1608.67 669.473C1609.04 669.103 1609.25 668.602 1609.25 668.08C1609.25 667.557 1609.04 667.056 1608.67 666.686C1608.3 666.317 1607.8 666.109 1607.28 666.109H1568.25Z" fill="#F7F8FA"/>
</g>
<g opacity="0.57">
<path opacity="0.57" d="M1568.25 672.57V676.508H1607.28C1607.8 676.507 1608.3 676.299 1608.67 675.93C1609.04 675.56 1609.25 675.06 1609.25 674.538C1609.25 674.016 1609.04 673.515 1608.67 673.147C1608.3 672.778 1607.8 672.57 1607.28 672.57H1568.25Z" fill="#F7F8FA"/>
</g>
<g opacity="0.57">
<path opacity="0.57" d="M1568.25 679.375V683.313H1607.28C1607.67 683.312 1608.05 683.196 1608.37 682.979C1608.69 682.763 1608.95 682.455 1609.09 682.096C1609.24 681.736 1609.28 681.341 1609.21 680.959C1609.13 680.578 1608.94 680.227 1608.67 679.951C1608.49 679.769 1608.27 679.626 1608.03 679.528C1607.79 679.431 1607.54 679.381 1607.28 679.384L1568.25 679.375Z" fill="#F7F8FA"/>
</g>
<g opacity="0.57">
<path opacity="0.57" d="M1568.25 686.184V690.121H1607.28C1607.8 690.12 1608.3 689.912 1608.67 689.543C1609.04 689.174 1609.25 688.673 1609.25 688.151C1609.25 687.629 1609.04 687.129 1608.67 686.76C1608.3 686.391 1607.8 686.184 1607.28 686.184H1568.25Z" fill="#F7F8FA"/>
</g>
<g opacity="0.57">
<path opacity="0.57" d="M1568.25 692.988V696.929H1607.28C1607.8 696.929 1608.3 696.721 1608.67 696.352C1609.04 695.982 1609.25 695.481 1609.25 694.958C1609.25 694.436 1609.04 693.935 1608.67 693.565C1608.3 693.196 1607.8 692.988 1607.28 692.988H1568.25Z" fill="#F7F8FA"/>
</g>
<g opacity="0.57">
<path opacity="0.57" d="M1568.25 699.797V703.734H1607.28C1607.79 703.715 1608.27 703.499 1608.62 703.132C1608.98 702.765 1609.17 702.275 1609.17 701.766C1609.17 701.256 1608.98 700.766 1608.62 700.399C1608.27 700.032 1607.79 699.816 1607.28 699.797H1568.25Z" fill="#F7F8FA"/>
</g>
</g>
<path d="M1325.98 616.281L1293.48 616.483V615.555H1325.98V616.281Z" fill="#6BB474"/>
<path d="M1325.98 618.771L1293.48 618.972V616.483L1325.98 616.281V618.771Z" fill="#6AB374"/>
<path d="M1325.98 621.263L1293.48 621.465V618.975L1325.98 618.773V621.263Z" fill="#69B274"/>
<path d="M1325.98 623.751L1293.48 623.953V621.463L1325.98 621.262V623.751Z" fill="#68B173"/>
<path d="M1325.98 626.24L1293.48 626.441V623.952L1325.98 623.75V626.24Z" fill="#67B073"/>
<path d="M1325.98 628.732L1293.48 628.934V626.444L1325.98 626.242V628.732Z" fill="#66AF72"/>
<path d="M1325.98 631.22L1293.48 631.422V628.932L1325.98 628.73V631.22Z" fill="#65AE72"/>
<path d="M1325.98 633.709L1293.48 633.91V631.42L1325.98 631.219V633.709Z" fill="#64AD71"/>
<path d="M1325.98 636.201L1293.48 636.402V633.913L1325.98 633.711V636.201Z" fill="#63AC71"/>
<path d="M1325.98 638.689L1293.48 638.89V636.401L1325.98 636.199V638.689Z" fill="#62AB70"/>
<path d="M1325.98 641.174L1293.48 641.379V638.889L1325.98 638.688V641.174Z" fill="#61AA70"/>
<path d="M1325.98 643.665L1293.48 643.87V641.38L1325.98 641.176V643.665Z" fill="#60A96F"/>
<path d="M1325.98 646.154L1293.48 646.355V643.868L1325.98 643.664V646.154Z" fill="#5FA86F"/>
<path d="M1325.98 648.646L1293.48 648.847V646.358L1325.98 646.156V648.646Z" fill="#5EA76F"/>
<path d="M1325.98 651.134L1293.48 651.336V648.846L1325.98 648.645V651.134Z" fill="#5DA66E"/>
<path d="M1325.98 653.623L1293.48 653.824V651.334L1325.98 651.133V653.623Z" fill="#5CA56E"/>
<path d="M1325.98 656.115L1293.48 656.316V653.827L1325.98 653.625V656.115Z" fill="#5BA46D"/>
<path d="M1325.98 658.603L1293.48 658.804V656.315L1325.98 656.113V658.603Z" fill="#5BA26D"/>
<path d="M1325.98 661.095L1293.48 661.297V658.807L1325.98 658.605V661.095Z" fill="#5AA16C"/>
<path d="M1325.98 663.583L1293.48 663.785V661.295L1325.98 661.094V663.583Z" fill="#59A06C"/>
<path d="M1325.98 666.076L1293.48 666.277V663.787L1325.98 663.586V666.076Z" fill="#589F6B"/>
<path d="M1325.98 668.564L1293.48 668.766V666.276L1325.98 666.074V668.564Z" fill="#579E6B"/>
<path d="M1325.98 671.052L1293.48 671.254V668.764L1325.98 668.562V671.052Z" fill="#569D6B"/>
<path d="M1325.98 673.541L1293.48 673.742V671.252L1325.98 671.051V673.541Z" fill="#559C6A"/>
<path d="M1325.98 676.033L1293.48 676.234V673.745L1325.98 673.543V676.033Z" fill="#549B6A"/>
<path d="M1325.98 678.521L1293.48 678.723V676.233L1325.98 676.031V678.521Z" fill="#539A69"/>
<path d="M1325.98 681.013L1293.48 681.215V678.725L1325.98 678.523V681.013Z" fill="#529969"/>
<path d="M1325.98 683.501L1293.48 683.703V681.213L1325.98 681.012V683.501Z" fill="#519868"/>
<path d="M1325.98 685.99L1293.48 686.191V683.702L1325.98 683.5V685.99Z" fill="#509768"/>
<path d="M1325.98 688.482L1293.48 688.683V686.194L1325.98 685.992V688.482Z" fill="#4F9667"/>
<path d="M1325.98 690.97L1293.48 691.172V688.682L1325.98 688.48V690.97Z" fill="#4E9567"/>
<path d="M1325.98 693.459L1293.48 693.66V691.17L1325.98 690.969V693.459Z" fill="#4D9466"/>
<path d="M1325.98 695.951L1293.48 696.152V693.662L1325.98 693.461V695.951Z" fill="#4C9366"/>
<path d="M1325.98 698.439L1293.48 698.641V696.151L1325.98 695.949V698.439Z" fill="#4B9266"/>
<path d="M1325.98 700.931L1293.48 701.133V698.643L1325.98 698.441V700.931Z" fill="#4A9165"/>
<path d="M1325.98 703.419L1293.48 703.621V701.131L1325.98 700.93V703.419Z" fill="#499065"/>
<path d="M1325.98 705.908L1293.48 706.109V703.62L1325.98 703.418V705.908Z" fill="#488F64"/>
<path d="M1325.98 708.4L1293.48 708.602V706.112L1325.98 705.91V708.4Z" fill="#478E64"/>
<path d="M1325.98 710.888L1293.48 711.09V708.6L1325.98 708.398V710.888Z" fill="#468D63"/>
<path d="M1325.98 713.38L1293.48 713.582V711.092L1325.98 710.891V713.38Z" fill="#458C63"/>
<path d="M1325.98 715.869L1293.48 716.07V713.58L1325.98 713.379V715.869Z" fill="#448B62"/>
<path d="M1325.98 718.357L1293.48 718.558V716.069L1325.98 715.867V718.357Z" fill="#438A62"/>
<path d="M1293.48 718.557L1325.98 718.355V732.036H1293.48V718.557Z" fill="#438A62"/>
<path d="M569.341 685.172H565.492V778.904H569.341V685.172Z" fill="#E283AE"/>
<path d="M573.192 685.172H569.344V778.904H573.192V685.172Z" fill="#E282AD"/>
<path d="M577.044 685.172H573.195V778.904H577.044V685.172Z" fill="#E282AC"/>
<path d="M580.888 685.172H577.039V778.904H580.888V685.172Z" fill="#E281AB"/>
<path d="M584.739 685.172H580.891V778.904H584.739V685.172Z" fill="#E281AA"/>
<path d="M588.591 685.172H584.742V778.904H588.591V685.172Z" fill="#E280A9"/>
<path d="M592.442 685.172H588.594V778.904H592.442V685.172Z" fill="#E280A8"/>
<path d="M596.286 685.172H592.438V778.904H596.286V685.172Z" fill="#E17FA7"/>
<path d="M600.138 685.172H596.289V778.904H600.138V685.172Z" fill="#E17FA6"/>
<path d="M603.989 685.172H600.141V778.904H603.989V685.172Z" fill="#E17EA5"/>
<path d="M607.841 685.172H603.992V778.904H607.841V685.172Z" fill="#E17EA4"/>
<path d="M611.684 685.172H607.836V778.904H611.684V685.172Z" fill="#E17DA3"/>
<path d="M615.536 685.172H611.688V778.904H615.536V685.172Z" fill="#E17CA2"/>
<path d="M619.388 685.172H615.539V778.904H619.388V685.172Z" fill="#E17CA1"/>
<path d="M623.231 685.172H619.383V778.904H623.231V685.172Z" fill="#E17BA0"/>
<path d="M627.091 685.172H623.242V778.904H627.091V685.172Z" fill="#E17B9F"/>
<path d="M630.934 685.172H627.086V778.904H630.934V685.172Z" fill="#E17A9E"/>
<path d="M634.786 685.172H630.938V778.904H634.786V685.172Z" fill="#E17A9D"/>
<path d="M638.638 685.172H634.789V778.904H638.638V685.172Z" fill="#E1799C"/>
<path d="M642.489 685.172H638.641V778.904H642.489V685.172Z" fill="#E0799B"/>
<path d="M646.341 685.172H642.492V778.904H646.341V685.172Z" fill="#E0789A"/>
<path d="M650.192 685.172H646.344V778.904H650.192V685.172Z" fill="#E07899"/>
<path d="M654.036 685.172H650.188V778.904H654.036V685.172Z" fill="#E07798"/>
<path d="M657.888 685.172H654.039V778.904H657.888V685.172Z" fill="#E07697"/>
<path d="M661.739 685.172H657.891V778.904H661.739V685.172Z" fill="#E07696"/>
<path d="M665.591 685.172H661.742V778.904H665.591V685.172Z" fill="#E07595"/>
<path d="M669.434 685.172H665.586V778.904H669.434V685.172Z" fill="#E07594"/>
<path d="M673.286 685.172H669.438V778.904H673.286V685.172Z" fill="#E07493"/>
<path d="M677.13 685.172H673.281V778.904H677.13V685.172Z" fill="#E07492"/>
<path d="M680.989 685.172H677.141V778.904H680.989V685.172Z" fill="#E07391"/>
<path d="M684.833 685.172H680.984V778.904H684.833V685.172Z" fill="#E07390"/>
<path d="M688.684 685.172H684.836V778.904H688.684V685.172Z" fill="#DF728F"/>
<path d="M692.536 685.172H688.688V778.904H692.536V685.172Z" fill="#DF728E"/>
<path d="M696.38 685.172H692.531V778.904H696.38V685.172Z" fill="#DF718D"/>
<path d="M700.239 685.172H696.391V778.904H700.239V685.172Z" fill="#DF708C"/>
<path d="M704.083 685.172H700.234V778.904H704.083V685.172Z" fill="#DF708B"/>
<path d="M707.934 685.172H704.086V778.904H707.934V685.172Z" fill="#DF6F8A"/>
<path d="M711.786 685.172H707.938V778.904H711.786V685.172Z" fill="#DF6F89"/>
<path d="M715.63 685.172H711.781V778.904H715.63V685.172Z" fill="#DF6E88"/>
<path d="M719.481 685.172H715.633V778.904H719.481V685.172Z" fill="#DF6E87"/>
<path d="M723.333 685.172H719.484V778.904H723.333V685.172Z" fill="#DF6D86"/>
<path d="M727.184 685.172H723.336V778.904H727.184V685.172Z" fill="#DF6D85"/>
<path d="M731.028 685.172H727.18V778.904H731.028V685.172Z" fill="#DF6C84"/>
<path d="M734.88 685.172H731.031V778.904H734.88V685.172Z" fill="#DE6C83"/>
<path d="M738.731 685.172H734.883V778.904H738.731V685.172Z" fill="#DE6B82"/>
<path d="M742.583 685.172H738.734V778.904H742.583V685.172Z" fill="#DE6A81"/>
<path d="M746.427 685.172H742.578V778.904H746.427V685.172Z" fill="#DE6A80"/>
<path d="M750.278 685.172H746.43V778.904H750.278V685.172Z" fill="#DE697F"/>
<path d="M754.13 685.172H750.281V778.904H754.13V685.172Z" fill="#DE697E"/>
<path d="M757.981 685.172H754.133V778.904H757.981V685.172Z" fill="#DE687D"/>
<path d="M761.833 685.172H757.984V778.904H761.833V685.172Z" fill="#DE687C"/>
<path d="M765.677 685.172H761.828V778.904H765.677V685.172Z" fill="#DE677B"/>
<path d="M769.528 685.172H765.68V778.904H769.528V685.172Z" fill="#DE677A"/>
<path d="M773.38 685.172H769.531V778.904H773.38V685.172Z" fill="#DE6679"/>
<path d="M777.231 685.172H773.383V778.904H777.231V685.172Z" fill="#DE6678"/>
<path d="M781.075 685.172H777.227V778.904H781.075V685.172Z" fill="#DD6576"/>
<path d="M784.927 685.172H781.078V778.904H784.927V685.172Z" fill="#DD6475"/>
<path d="M788.778 685.172H784.93V778.904H788.778V685.172Z" fill="#DD6474"/>
<path d="M792.63 685.172H788.781V778.904H792.63V685.172Z" fill="#DD6373"/>
<path d="M796.481 685.172H792.633V778.904H796.481V685.172Z" fill="#DD6372"/>
<path d="M800.325 685.172H796.477V778.904H800.325V685.172Z" fill="#DD6271"/>
<path d="M804.177 685.172H800.328V778.904H804.177V685.172Z" fill="#DD6270"/>
<path d="M808.028 685.172H804.18V778.904H808.028V685.172Z" fill="#DD616F"/>
<path d="M811.88 685.172H808.031V778.904H811.88V685.172Z" fill="#DD616E"/>
<path d="M815.731 685.172H811.883V778.904H815.731V685.172Z" fill="#DD606D"/>
<path d="M819.575 685.172H815.727V778.904H819.575V685.172Z" fill="#DD5F6C"/>
<path d="M823.427 685.172H819.578V778.904H823.427V685.172Z" fill="#DD5F6B"/>
<path d="M827.278 685.172H823.43V778.904H827.278V685.172Z" fill="#DC5E6A"/>
<path d="M831.13 685.172H827.281V778.904H831.13V685.172Z" fill="#DC5E69"/>
<path d="M834.981 685.172H831.133V778.904H834.981V685.172Z" fill="#DC5D68"/>
<path d="M838.825 685.172H834.977V778.904H838.825V685.172Z" fill="#DC5D67"/>
<path d="M842.677 685.172H838.828V778.904H842.677V685.172Z" fill="#DC5C66"/>
<path d="M846.528 685.172H842.68V778.904H846.528V685.172Z" fill="#DC5C65"/>
<path d="M850.38 685.172H846.531V778.904H850.38V685.172Z" fill="#DC5B64"/>
<path d="M854.224 685.172H850.375V778.904H854.224V685.172Z" fill="#DC5B63"/>
<path d="M858.075 685.172H854.227V778.904H858.075V685.172Z" fill="#DC5A62"/>
<path d="M861.927 685.172H858.078V778.904H861.927V685.172Z" fill="#DC5961"/>
<path d="M865.778 685.172H861.93V778.904H865.778V685.172Z" fill="#DC5960"/>
<path d="M869.622 685.172H865.773V778.904H869.622V685.172Z" fill="#DC585F"/>
<path d="M873.473 685.172H869.625V778.904H873.473V685.172Z" fill="#DB585E"/>
<path d="M877.325 685.172H873.477V778.904H877.325V685.172Z" fill="#DB575D"/>
<path d="M881.169 685.172H877.32V778.904H881.169V685.172Z" fill="#DB575C"/>
<path d="M885.028 685.172H881.18V778.904H885.028V685.172Z" fill="#DB565B"/>
<path d="M888.872 685.172H885.023V778.904H888.872V685.172Z" fill="#DB565A"/>
<path d="M892.724 685.172H888.875V778.904H892.724V685.172Z" fill="#DB5559"/>
<path d="M896.575 685.172H892.727V778.904H896.575V685.172Z" fill="#DB5558"/>
<path d="M900.427 685.172H896.578V778.904H900.427V685.172Z" fill="#DB5457"/>
<path d="M904.278 685.172H900.43V778.904H904.278V685.172Z" fill="#DB5356"/>
<path d="M908.122 685.172H904.273V778.904H908.122V685.172Z" fill="#DB5355"/>
<path d="M911.973 685.172H908.125V778.904H911.973V685.172Z" fill="#DB5254"/>
<path d="M915.817 685.172H911.969V778.904H915.817V685.172Z" fill="#DB5253"/>
<path d="M919.677 685.172H915.828V778.904H919.677V685.172Z" fill="#DA5152"/>
<path d="M923.52 685.172H919.672V778.904H923.52V685.172Z" fill="#DA5151"/>
<path d="M927.372 685.172H923.523V778.904H927.372V685.172Z" fill="#DA5050"/>
<path d="M931.224 685.172H927.375V778.904H931.224V685.172Z" fill="#DA504F"/>
<path d="M935.067 685.172H931.219V778.904H935.067V685.172Z" fill="#DA4F4E"/>
<path d="M938.927 685.172H935.078V778.904H938.927V685.172Z" fill="#DA4F4D"/>
<path d="M942.77 685.172H938.922V778.904H942.77V685.172Z" fill="#DA4E4C"/>
<path d="M946.622 685.172H942.773V778.904H946.622V685.172Z" fill="#DA4D4B"/>
<path d="M950.473 685.172H946.625V778.904H950.473V685.172Z" fill="#DA4D4A"/>
<path d="M954.317 685.172H950.469V778.904H954.317V685.172Z" fill="#DA4C49"/>
<path d="M958.177 685.172H954.328V778.904H958.177V685.172Z" fill="#DA4C48"/>
<path d="M962.02 685.172H958.172V778.904H962.02V685.172Z" fill="#DA4B47"/>
<path d="M965.864 685.172H962.016V778.904H965.864V685.172Z" fill="#D94B46"/>
<path d="M969.716 685.172H965.867V778.904H969.716V685.172Z" fill="#D94A45"/>
<path d="M973.567 685.172H969.719V778.904H973.567V685.172Z" fill="#D94A44"/>
<path d="M977.419 685.172H973.57V778.904H977.419V685.172Z" fill="#D94943"/>
<path d="M981.27 685.172H977.422V778.904H981.27V685.172Z" fill="#D94942"/>
<path d="M985.122 685.172H981.273V778.904H985.122V685.172Z" fill="#D94841"/>
<g opacity="0.51">
<path opacity="0.51" d="M1345.17 249.812H1343.74C1340.18 249.812 1337.3 252.696 1337.3 256.254V317.94C1337.3 321.498 1340.18 324.382 1343.74 324.382H1345.17C1348.73 324.382 1351.61 321.498 1351.61 317.94V256.254C1351.61 252.696 1348.73 249.812 1345.17 249.812Z" fill="#F7F8FA"/>
<path opacity="0.51" d="M1345.17 337.062H1343.74C1340.18 337.062 1337.3 339.946 1337.3 343.504V405.19C1337.3 408.748 1340.18 411.632 1343.74 411.632H1345.17C1348.73 411.632 1351.61 408.748 1351.61 405.19V343.504C1351.61 339.946 1348.73 337.062 1345.17 337.062Z" fill="#F7F8FA"/>
<path opacity="0.51" d="M1345.17 424.312H1343.74C1340.18 424.312 1337.3 427.196 1337.3 430.754V492.44C1337.3 495.998 1340.18 498.882 1343.74 498.882H1345.17C1348.73 498.882 1351.61 495.998 1351.61 492.44V430.754C1351.61 427.196 1348.73 424.312 1345.17 424.312Z" fill="#F7F8FA"/>
<path opacity="0.51" d="M1345.17 511.562H1343.74C1340.18 511.562 1337.3 514.446 1337.3 518.004V579.69C1337.3 583.248 1340.18 586.132 1343.74 586.132H1345.17C1348.73 586.132 1351.61 583.248 1351.61 579.69V518.004C1351.61 514.446 1348.73 511.562 1345.17 511.562Z" fill="#F7F8FA"/>
<path opacity="0.51" d="M1368.03 249.812H1366.6C1363.04 249.812 1360.16 252.696 1360.16 256.254V317.94C1360.16 321.498 1363.04 324.382 1366.6 324.382H1368.03C1371.59 324.382 1374.47 321.498 1374.47 317.94V256.254C1374.47 252.696 1371.59 249.812 1368.03 249.812Z" fill="#F7F8FA"/>
<path opacity="0.51" d="M1368.03 337.062H1366.6C1363.04 337.062 1360.16 339.946 1360.16 343.504V405.19C1360.16 408.748 1363.04 411.632 1366.6 411.632H1368.03C1371.59 411.632 1374.47 408.748 1374.47 405.19V343.504C1374.47 339.946 1371.59 337.062 1368.03 337.062Z" fill="#F7F8FA"/>
<path opacity="0.51" d="M1368.03 424.312H1366.6C1363.04 424.312 1360.16 427.196 1360.16 430.754V492.44C1360.16 495.998 1363.04 498.882 1366.6 498.882H1368.03C1371.59 498.882 1374.47 495.998 1374.47 492.44V430.754C1374.47 427.196 1371.59 424.312 1368.03 424.312Z" fill="#F7F8FA"/>
<path opacity="0.51" d="M1368.03 511.562H1366.6C1363.04 511.562 1360.16 514.446 1360.16 518.004V579.69C1360.16 583.248 1363.04 586.132 1366.6 586.132H1368.03C1371.59 586.132 1374.47 583.248 1374.47 579.69V518.004C1374.47 514.446 1371.59 511.562 1368.03 511.562Z" fill="#F7F8FA"/>
<path opacity="0.51" d="M1390.8 249.812H1389.37C1385.82 249.812 1382.93 252.696 1382.93 256.254V317.94C1382.93 321.498 1385.82 324.382 1389.37 324.382H1390.8C1394.36 324.382 1397.25 321.498 1397.25 317.94V256.254C1397.25 252.696 1394.36 249.812 1390.8 249.812Z" fill="#F7F8FA"/>
<path opacity="0.51" d="M1390.8 337.062H1389.37C1385.82 337.062 1382.93 339.946 1382.93 343.504V405.19C1382.93 408.748 1385.82 411.632 1389.37 411.632H1390.8C1394.36 411.632 1397.25 408.748 1397.25 405.19V343.504C1397.25 339.946 1394.36 337.062 1390.8 337.062Z" fill="#F7F8FA"/>
<path opacity="0.51" d="M1390.8 424.312H1389.37C1385.82 424.312 1382.93 427.196 1382.93 430.754V492.44C1382.93 495.998 1385.82 498.882 1389.37 498.882H1390.8C1394.36 498.882 1397.25 495.998 1397.25 492.44V430.754C1397.25 427.196 1394.36 424.312 1390.8 424.312Z" fill="#F7F8FA"/>
<path opacity="0.51" d="M1390.8 511.562H1389.37C1385.82 511.562 1382.93 514.446 1382.93 518.004V579.69C1382.93 583.248 1385.82 586.132 1389.37 586.132H1390.8C1394.36 586.132 1397.25 583.248 1397.25 579.69V518.004C1397.25 514.446 1394.36 511.562 1390.8 511.562Z" fill="#F7F8FA"/>
<path opacity="0.51" d="M1415.32 249.812H1413.89C1410.33 249.812 1407.45 252.696 1407.45 256.254V317.94C1407.45 321.498 1410.33 324.382 1413.89 324.382H1415.32C1418.88 324.382 1421.76 321.498 1421.76 317.94V256.254C1421.76 252.696 1418.88 249.812 1415.32 249.812Z" fill="#F7F8FA"/>
<path opacity="0.51" d="M1415.32 337.062H1413.89C1410.33 337.062 1407.45 339.946 1407.45 343.504V405.19C1407.45 408.748 1410.33 411.632 1413.89 411.632H1415.32C1418.88 411.632 1421.76 408.748 1421.76 405.19V343.504C1421.76 339.946 1418.88 337.062 1415.32 337.062Z" fill="#F7F8FA"/>
<path opacity="0.51" d="M1415.32 424.312H1413.89C1410.33 424.312 1407.45 427.196 1407.45 430.754V492.44C1407.45 495.998 1410.33 498.882 1413.89 498.882H1415.32C1418.88 498.882 1421.76 495.998 1421.76 492.44V430.754C1421.76 427.196 1418.88 424.312 1415.32 424.312Z" fill="#F7F8FA"/>
<path opacity="0.51" d="M1415.32 511.562H1413.89C1410.33 511.562 1407.45 514.446 1407.45 518.004V579.69C1407.45 583.248 1410.33 586.132 1413.89 586.132H1415.32C1418.88 586.132 1421.76 583.248 1421.76 579.69V518.004C1421.76 514.446 1418.88 511.562 1415.32 511.562Z" fill="#F7F8FA"/>
<path opacity="0.51" d="M1438.98 249.812H1437.55C1433.99 249.812 1431.11 252.696 1431.11 256.254V317.94C1431.11 321.498 1433.99 324.382 1437.55 324.382H1438.98C1442.54 324.382 1445.43 321.498 1445.43 317.94V256.254C1445.43 252.696 1442.54 249.812 1438.98 249.812Z" fill="#F7F8FA"/>
<path opacity="0.51" d="M1438.98 337.062H1437.55C1433.99 337.062 1431.11 339.946 1431.11 343.504V405.19C1431.11 408.748 1433.99 411.632 1437.55 411.632H1438.98C1442.54 411.632 1445.43 408.748 1445.43 405.19V343.504C1445.43 339.946 1442.54 337.062 1438.98 337.062Z" fill="#F7F8FA"/>
<path opacity="0.51" d="M1438.98 424.312H1437.55C1433.99 424.312 1431.11 427.196 1431.11 430.754V492.44C1431.11 495.998 1433.99 498.882 1437.55 498.882H1438.98C1442.54 498.882 1445.43 495.998 1445.43 492.44V430.754C1445.43 427.196 1442.54 424.312 1438.98 424.312Z" fill="#F7F8FA"/>
<path opacity="0.51" d="M1438.98 511.562H1437.55C1433.99 511.562 1431.11 514.446 1431.11 518.004V579.69C1431.11 583.248 1433.99 586.132 1437.55 586.132H1438.98C1442.54 586.132 1445.43 583.248 1445.43 579.69V518.004C1445.43 514.446 1442.54 511.562 1438.98 511.562Z" fill="#F7F8FA"/>
<path opacity="0.51" d="M1462.14 249.812H1460.71C1457.15 249.812 1454.27 252.696 1454.27 256.254V317.94C1454.27 321.498 1457.15 324.382 1460.71 324.382H1462.14C1465.7 324.382 1468.58 321.498 1468.58 317.94V256.254C1468.58 252.696 1465.7 249.812 1462.14 249.812Z" fill="#F7F8FA"/>
<path opacity="0.51" d="M1462.14 337.062H1460.71C1457.15 337.062 1454.27 339.946 1454.27 343.504V405.19C1454.27 408.748 1457.15 411.632 1460.71 411.632H1462.14C1465.7 411.632 1468.58 408.748 1468.58 405.19V343.504C1468.58 339.946 1465.7 337.062 1462.14 337.062Z" fill="#F7F8FA"/>
<path opacity="0.51" d="M1462.14 424.312H1460.71C1457.15 424.312 1454.27 427.196 1454.27 430.754V492.44C1454.27 495.998 1457.15 498.882 1460.71 498.882H1462.14C1465.7 498.882 1468.58 495.998 1468.58 492.44V430.754C1468.58 427.196 1465.7 424.312 1462.14 424.312Z" fill="#F7F8FA"/>
<path opacity="0.51" d="M1462.14 511.562H1460.71C1457.15 511.562 1454.27 514.446 1454.27 518.004V579.69C1454.27 583.248 1457.15 586.132 1460.71 586.132H1462.14C1465.7 586.132 1468.58 583.248 1468.58 579.69V518.004C1468.58 514.446 1465.7 511.562 1462.14 511.562Z" fill="#F7F8FA"/>
</g>
<g opacity="0.15">
<path opacity="0.15" d="M1345.17 455.543H1343.74C1340.18 455.543 1337.3 458.427 1337.3 461.984V523.671C1337.3 527.228 1340.18 530.112 1343.74 530.112H1345.17C1348.73 530.112 1351.61 527.228 1351.61 523.671V461.984C1351.61 458.427 1348.73 455.543 1345.17 455.543Z" fill="#F7F8FA"/>
<path opacity="0.15" d="M1345.17 542.789H1343.74C1340.18 542.789 1337.3 545.673 1337.3 549.231V610.917C1337.3 614.475 1340.18 617.358 1343.74 617.358H1345.17C1348.73 617.358 1351.61 614.475 1351.61 610.917V549.231C1351.61 545.673 1348.73 542.789 1345.17 542.789Z" fill="#F7F8FA"/>
<path opacity="0.15" d="M1345.17 630.043H1343.74C1340.18 630.043 1337.3 632.927 1337.3 636.484V698.171C1337.3 701.728 1340.18 704.612 1343.74 704.612H1345.17C1348.73 704.612 1351.61 701.728 1351.61 698.171V636.484C1351.61 632.927 1348.73 630.043 1345.17 630.043Z" fill="#F7F8FA"/>
<path opacity="0.15" d="M1345.17 717.293H1343.74C1340.18 717.293 1337.3 720.177 1337.3 723.734V785.421C1337.3 788.978 1340.18 791.862 1343.74 791.862H1345.17C1348.73 791.862 1351.61 788.978 1351.61 785.421V723.734C1351.61 720.177 1348.73 717.293 1345.17 717.293Z" fill="#F7F8FA"/>
<path opacity="0.15" d="M1368.03 455.543H1366.6C1363.04 455.543 1360.16 458.427 1360.16 461.984V523.671C1360.16 527.228 1363.04 530.112 1366.6 530.112H1368.03C1371.59 530.112 1374.47 527.228 1374.47 523.671V461.984C1374.47 458.427 1371.59 455.543 1368.03 455.543Z" fill="#F7F8FA"/>
<path opacity="0.15" d="M1368.03 542.789H1366.6C1363.04 542.789 1360.16 545.673 1360.16 549.231V610.917C1360.16 614.475 1363.04 617.358 1366.6 617.358H1368.03C1371.59 617.358 1374.47 614.475 1374.47 610.917V549.231C1374.47 545.673 1371.59 542.789 1368.03 542.789Z" fill="#F7F8FA"/>
<path opacity="0.15" d="M1368.03 630.043H1366.6C1363.04 630.043 1360.16 632.927 1360.16 636.484V698.171C1360.16 701.728 1363.04 704.612 1366.6 704.612H1368.03C1371.59 704.612 1374.47 701.728 1374.47 698.171V636.484C1374.47 632.927 1371.59 630.043 1368.03 630.043Z" fill="#F7F8FA"/>
<path opacity="0.15" d="M1368.03 717.293H1366.6C1363.04 717.293 1360.16 720.177 1360.16 723.734V785.421C1360.16 788.978 1363.04 791.862 1366.6 791.862H1368.03C1371.59 791.862 1374.47 788.978 1374.47 785.421V723.734C1374.47 720.177 1371.59 717.293 1368.03 717.293Z" fill="#F7F8FA"/>
<path opacity="0.15" d="M1390.8 455.543H1389.37C1385.82 455.543 1382.93 458.427 1382.93 461.984V523.671C1382.93 527.228 1385.82 530.112 1389.37 530.112H1390.8C1394.36 530.112 1397.25 527.228 1397.25 523.671V461.984C1397.25 458.427 1394.36 455.543 1390.8 455.543Z" fill="#F7F8FA"/>
<path opacity="0.15" d="M1390.8 542.789H1389.37C1385.82 542.789 1382.93 545.673 1382.93 549.231V610.917C1382.93 614.475 1385.82 617.358 1389.37 617.358H1390.8C1394.36 617.358 1397.25 614.475 1397.25 610.917V549.231C1397.25 545.673 1394.36 542.789 1390.8 542.789Z" fill="#F7F8FA"/>
<path opacity="0.15" d="M1390.8 630.043H1389.37C1385.82 630.043 1382.93 632.927 1382.93 636.484V698.171C1382.93 701.728 1385.82 704.612 1389.37 704.612H1390.8C1394.36 704.612 1397.25 701.728 1397.25 698.171V636.484C1397.25 632.927 1394.36 630.043 1390.8 630.043Z" fill="#F7F8FA"/>
<path opacity="0.15" d="M1390.8 717.293H1389.37C1385.82 717.293 1382.93 720.177 1382.93 723.734V785.421C1382.93 788.978 1385.82 791.862 1389.37 791.862H1390.8C1394.36 791.862 1397.25 788.978 1397.25 785.421V723.734C1397.25 720.177 1394.36 717.293 1390.8 717.293Z" fill="#F7F8FA"/>
<path opacity="0.15" d="M1415.32 455.543H1413.89C1410.33 455.543 1407.45 458.427 1407.45 461.984V523.671C1407.45 527.228 1410.33 530.112 1413.89 530.112H1415.32C1418.88 530.112 1421.76 527.228 1421.76 523.671V461.984C1421.76 458.427 1418.88 455.543 1415.32 455.543Z" fill="#F7F8FA"/>
<path opacity="0.15" d="M1415.32 542.789H1413.89C1410.33 542.789 1407.45 545.673 1407.45 549.231V610.917C1407.45 614.475 1410.33 617.358 1413.89 617.358H1415.32C1418.88 617.358 1421.76 614.475 1421.76 610.917V549.231C1421.76 545.673 1418.88 542.789 1415.32 542.789Z" fill="#F7F8FA"/>
<path opacity="0.15" d="M1415.32 630.043H1413.89C1410.33 630.043 1407.45 632.927 1407.45 636.484V698.171C1407.45 701.728 1410.33 704.612 1413.89 704.612H1415.32C1418.88 704.612 1421.76 701.728 1421.76 698.171V636.484C1421.76 632.927 1418.88 630.043 1415.32 630.043Z" fill="#F7F8FA"/>
<path opacity="0.15" d="M1415.32 717.293H1413.89C1410.33 717.293 1407.45 720.177 1407.45 723.734V785.421C1407.45 788.978 1410.33 791.862 1413.89 791.862H1415.32C1418.88 791.862 1421.76 788.978 1421.76 785.421V723.734C1421.76 720.177 1418.88 717.293 1415.32 717.293Z" fill="#F7F8FA"/>
<path opacity="0.15" d="M1438.98 455.543H1437.55C1433.99 455.543 1431.11 458.427 1431.11 461.984V523.671C1431.11 527.228 1433.99 530.112 1437.55 530.112H1438.98C1442.54 530.112 1445.43 527.228 1445.43 523.671V461.984C1445.43 458.427 1442.54 455.543 1438.98 455.543Z" fill="#F7F8FA"/>
<path opacity="0.15" d="M1438.98 542.789H1437.55C1433.99 542.789 1431.11 545.673 1431.11 549.231V610.917C1431.11 614.475 1433.99 617.358 1437.55 617.358H1438.98C1442.54 617.358 1445.43 614.475 1445.43 610.917V549.231C1445.43 545.673 1442.54 542.789 1438.98 542.789Z" fill="#F7F8FA"/>
<path opacity="0.15" d="M1438.98 630.043H1437.55C1433.99 630.043 1431.11 632.927 1431.11 636.484V698.171C1431.11 701.728 1433.99 704.612 1437.55 704.612H1438.98C1442.54 704.612 1445.43 701.728 1445.43 698.171V636.484C1445.43 632.927 1442.54 630.043 1438.98 630.043Z" fill="#F7F8FA"/>
<path opacity="0.15" d="M1438.98 717.293H1437.55C1433.99 717.293 1431.11 720.177 1431.11 723.734V785.421C1431.11 788.978 1433.99 791.862 1437.55 791.862H1438.98C1442.54 791.862 1445.43 788.978 1445.43 785.421V723.734C1445.43 720.177 1442.54 717.293 1438.98 717.293Z" fill="#F7F8FA"/>
<path opacity="0.15" d="M1462.14 455.543H1460.71C1457.15 455.543 1454.27 458.427 1454.27 461.984V523.671C1454.27 527.228 1457.15 530.112 1460.71 530.112H1462.14C1465.7 530.112 1468.58 527.228 1468.58 523.671V461.984C1468.58 458.427 1465.7 455.543 1462.14 455.543Z" fill="#F7F8FA"/>
<path opacity="0.15" d="M1462.14 542.789H1460.71C1457.15 542.789 1454.27 545.673 1454.27 549.231V610.917C1454.27 614.475 1457.15 617.358 1460.71 617.358H1462.14C1465.7 617.358 1468.58 614.475 1468.58 610.917V549.231C1468.58 545.673 1465.7 542.789 1462.14 542.789Z" fill="#F7F8FA"/>
<path opacity="0.15" d="M1462.14 630.043H1460.71C1457.15 630.043 1454.27 632.927 1454.27 636.484V698.171C1454.27 701.728 1457.15 704.612 1460.71 704.612H1462.14C1465.7 704.612 1468.58 701.728 1468.58 698.171V636.484C1468.58 632.927 1465.7 630.043 1462.14 630.043Z" fill="#F7F8FA"/>
<path opacity="0.15" d="M1462.14 717.293H1460.71C1457.15 717.293 1454.27 720.177 1454.27 723.734V785.421C1454.27 788.978 1457.15 791.862 1460.71 791.862H1462.14C1465.7 791.862 1468.58 788.978 1468.58 785.421V723.734C1468.58 720.177 1465.7 717.293 1462.14 717.293Z" fill="#F7F8FA"/>
</g>
<path d="M861.523 604.656H941.884V623.702H847.603C846.925 623.702 846.275 623.433 845.796 622.954C845.316 622.475 845.047 621.825 845.047 621.147C845.047 616.78 846.782 612.592 849.872 609.504C852.961 606.417 857.151 604.682 861.52 604.682L861.523 604.656Z" fill="#F7F8FA"/>
<path d="M948.05 623.703H1044.9V604.657H948.05V623.703Z" fill="#F7F8FA"/>
<path d="M1051.57 623.188H1148.42V604.141H1051.57V623.188Z" fill="#F7F8FA"/>
<path d="M1659.87 633.504H1649.46C1647.57 633.504 1646.05 635.029 1646.05 636.911V651.06C1646.05 652.941 1647.57 654.466 1649.46 654.466H1659.87C1661.75 654.466 1663.28 652.941 1663.28 651.06V636.911C1663.28 635.029 1661.75 633.504 1659.87 633.504Z" fill="#F7F8FA"/>
<path d="M1659.87 661.938H1649.46C1647.57 661.938 1646.05 663.463 1646.05 665.344V679.493C1646.05 681.375 1647.57 682.9 1649.46 682.9H1659.87C1661.75 682.9 1663.28 681.375 1663.28 679.493V665.344C1663.28 663.463 1661.75 661.938 1659.87 661.938Z" fill="#F7F8FA"/>
<path d="M1659.87 690.363H1649.46C1647.57 690.363 1646.05 691.888 1646.05 693.77V707.919C1646.05 709.8 1647.57 711.326 1649.46 711.326H1659.87C1661.75 711.326 1663.28 709.8 1663.28 707.919V693.77C1663.28 691.888 1661.75 690.363 1659.87 690.363Z" fill="#F7F8FA"/>
<path d="M1683.85 633.504H1673.44C1671.56 633.504 1670.03 635.029 1670.03 636.911V651.06C1670.03 652.941 1671.56 654.466 1673.44 654.466H1683.85C1685.73 654.466 1687.26 652.941 1687.26 651.06V636.911C1687.26 635.029 1685.73 633.504 1683.85 633.504Z" fill="#F7F8FA"/>
<path d="M1683.85 661.938H1673.44C1671.56 661.938 1670.03 663.463 1670.03 665.344V679.493C1670.03 681.375 1671.56 682.9 1673.44 682.9H1683.85C1685.73 682.9 1687.26 681.375 1687.26 679.493V665.344C1687.26 663.463 1685.73 661.938 1683.85 661.938Z" fill="#F7F8FA"/>
<path d="M1683.85 690.363H1673.44C1671.56 690.363 1670.03 691.888 1670.03 693.77V707.919C1670.03 709.8 1671.56 711.326 1673.44 711.326H1683.85C1685.73 711.326 1687.26 709.8 1687.26 707.919V693.77C1687.26 691.888 1685.73 690.363 1683.85 690.363Z" fill="#F7F8FA"/>
<path d="M1708.52 633.504H1698.1C1696.22 633.504 1694.7 635.029 1694.7 636.911V651.06C1694.7 652.941 1696.22 654.466 1698.1 654.466H1708.52C1710.4 654.466 1711.92 652.941 1711.92 651.06V636.911C1711.92 635.029 1710.4 633.504 1708.52 633.504Z" fill="#F7F8FA"/>
<path d="M1708.52 661.938H1698.1C1696.22 661.938 1694.7 663.463 1694.7 665.344V679.493C1694.7 681.375 1696.22 682.9 1698.1 682.9H1708.52C1710.4 682.9 1711.92 681.375 1711.92 679.493V665.344C1711.92 663.463 1710.4 661.938 1708.52 661.938Z" fill="#F7F8FA"/>
<path d="M1708.52 690.363H1698.1C1696.22 690.363 1694.7 691.888 1694.7 693.77V707.919C1694.7 709.8 1696.22 711.326 1698.1 711.326H1708.52C1710.4 711.326 1711.92 709.8 1711.92 707.919V693.77C1711.92 691.888 1710.4 690.363 1708.52 690.363Z" fill="#F7F8FA"/>
<path d="M1733.17 633.504H1722.76C1720.88 633.504 1719.35 635.029 1719.35 636.911V651.06C1719.35 652.941 1720.88 654.466 1722.76 654.466H1733.17C1735.05 654.466 1736.58 652.941 1736.58 651.06V636.911C1736.58 635.029 1735.05 633.504 1733.17 633.504Z" fill="#F7F8FA"/>
<path d="M1733.17 661.938H1722.76C1720.88 661.938 1719.35 663.463 1719.35 665.344V679.493C1719.35 681.375 1720.88 682.9 1722.76 682.9H1733.17C1735.05 682.9 1736.58 681.375 1736.58 679.493V665.344C1736.58 663.463 1735.05 661.938 1733.17 661.938Z" fill="#F7F8FA"/>
<path d="M1733.17 690.363H1722.76C1720.88 690.363 1719.35 691.888 1719.35 693.77V707.919C1719.35 709.8 1720.88 711.326 1722.76 711.326H1733.17C1735.05 711.326 1736.58 709.8 1736.58 707.919V693.77C1736.58 691.888 1735.05 690.363 1733.17 690.363Z" fill="#F7F8FA"/>
<g opacity="0.26">
<path opacity="0.26" d="M924.883 699.371H920.634C919.071 699.371 917.805 700.637 917.805 702.199V721.654C917.805 723.215 919.071 724.481 920.634 724.481H924.883C926.445 724.481 927.711 723.215 927.711 721.654V702.199C927.711 700.637 926.445 699.371 924.883 699.371Z" fill="#F7F8FA"/>
<path opacity="0.26" d="M924.883 733.426H920.634C919.071 733.426 917.805 734.692 917.805 736.253V755.708C917.805 757.27 919.071 758.536 920.634 758.536H924.883C926.445 758.536 927.711 757.27 927.711 755.708V736.253C927.711 734.692 926.445 733.426 924.883 733.426Z" fill="#F7F8FA"/>
<path opacity="0.26" d="M924.883 767.48H920.634C919.071 767.48 917.805 768.746 917.805 770.308V789.763C917.805 791.325 919.071 792.591 920.634 792.591H924.883C926.445 792.591 927.711 791.325 927.711 789.763V770.308C927.711 768.746 926.445 767.48 924.883 767.48Z" fill="#F7F8FA"/>
<path opacity="0.26" d="M938.672 699.371H934.423C932.86 699.371 931.594 700.637 931.594 702.199V721.654C931.594 723.215 932.86 724.481 934.423 724.481H938.672C940.234 724.481 941.5 723.215 941.5 721.654V702.199C941.5 700.637 940.234 699.371 938.672 699.371Z" fill="#F7F8FA"/>
<path opacity="0.26" d="M938.672 733.426H934.423C932.86 733.426 931.594 734.692 931.594 736.253V755.708C931.594 757.27 932.86 758.536 934.423 758.536H938.672C940.234 758.536 941.5 757.27 941.5 755.708V736.253C941.5 734.692 940.234 733.426 938.672 733.426Z" fill="#F7F8FA"/>
<path opacity="0.26" d="M938.672 767.48H934.423C932.86 767.48 931.594 768.746 931.594 770.308V789.763C931.594 791.325 932.86 792.591 934.423 792.591H938.672C940.234 792.591 941.5 791.325 941.5 789.763V770.308C941.5 768.746 940.234 767.48 938.672 767.48Z" fill="#F7F8FA"/>
<path opacity="0.26" d="M952.851 699.371H948.602C947.04 699.371 945.773 700.637 945.773 702.199V721.654C945.773 723.215 947.04 724.481 948.602 724.481H952.851C954.414 724.481 955.68 723.215 955.68 721.654V702.199C955.68 700.637 954.414 699.371 952.851 699.371Z" fill="#F7F8FA"/>
<path opacity="0.26" d="M952.851 733.426H948.602C947.04 733.426 945.773 734.692 945.773 736.253V755.708C945.773 757.27 947.04 758.536 948.602 758.536H952.851C954.414 758.536 955.68 757.27 955.68 755.708V736.253C955.68 734.692 954.414 733.426 952.851 733.426Z" fill="#F7F8FA"/>
<path opacity="0.26" d="M952.851 767.48H948.602C947.04 767.48 945.773 768.746 945.773 770.308V789.763C945.773 791.325 947.04 792.591 948.602 792.591H952.851C954.414 792.591 955.68 791.325 955.68 789.763V770.308C955.68 768.746 954.414 767.48 952.851 767.48Z" fill="#F7F8FA"/>
<path opacity="0.26" d="M967.031 699.371H962.782C961.22 699.371 959.953 700.637 959.953 702.199V721.654C959.953 723.215 961.22 724.481 962.782 724.481H967.031C968.593 724.481 969.86 723.215 969.86 721.654V702.199C969.86 700.637 968.593 699.371 967.031 699.371Z" fill="#F7F8FA"/>
<path opacity="0.26" d="M967.031 733.426H962.782C961.22 733.426 959.953 734.692 959.953 736.253V755.708C959.953 757.27 961.22 758.536 962.782 758.536H967.031C968.593 758.536 969.86 757.27 969.86 755.708V736.253C969.86 734.692 968.593 733.426 967.031 733.426Z" fill="#F7F8FA"/>
<path opacity="0.26" d="M967.031 767.48H962.782C961.22 767.48 959.953 768.746 959.953 770.308V789.763C959.953 791.325 961.22 792.591 962.782 792.591H967.031C968.593 792.591 969.86 791.325 969.86 789.763V770.308C969.86 768.746 968.593 767.48 967.031 767.48Z" fill="#F7F8FA"/>
</g>
<g opacity="0.26">
<path opacity="0.26" d="M846.336 699.371H842.087C840.524 699.371 839.258 700.637 839.258 702.199V721.654C839.258 723.215 840.524 724.481 842.087 724.481H846.336C847.898 724.481 849.164 723.215 849.164 721.654V702.199C849.164 700.637 847.898 699.371 846.336 699.371Z" fill="#F7F8FA"/>
<path opacity="0.26" d="M846.336 733.426H842.087C840.524 733.426 839.258 734.692 839.258 736.253V755.708C839.258 757.27 840.524 758.536 842.087 758.536H846.336C847.898 758.536 849.164 757.27 849.164 755.708V736.253C849.164 734.692 847.898 733.426 846.336 733.426Z" fill="#F7F8FA"/>
<path opacity="0.26" d="M846.336 767.48H842.087C840.524 767.48 839.258 768.746 839.258 770.308V789.763C839.258 791.325 840.524 792.591 842.087 792.591H846.336C847.898 792.591 849.164 791.325 849.164 789.763V770.308C849.164 768.746 847.898 767.48 846.336 767.48Z" fill="#F7F8FA"/>
<path opacity="0.26" d="M860.125 699.371H855.876C854.313 699.371 853.047 700.637 853.047 702.199V721.654C853.047 723.215 854.313 724.481 855.876 724.481H860.125C861.687 724.481 862.954 723.215 862.954 721.654V702.199C862.954 700.637 861.687 699.371 860.125 699.371Z" fill="#F7F8FA"/>
<path opacity="0.26" d="M860.125 733.426H855.876C854.313 733.426 853.047 734.692 853.047 736.253V755.708C853.047 757.27 854.313 758.536 855.876 758.536H860.125C861.687 758.536 862.954 757.27 862.954 755.708V736.253C862.954 734.692 861.687 733.426 860.125 733.426Z" fill="#F7F8FA"/>
<path opacity="0.26" d="M860.125 767.48H855.876C854.313 767.48 853.047 768.746 853.047 770.308V789.763C853.047 791.325 854.313 792.591 855.876 792.591H860.125C861.687 792.591 862.954 791.325 862.954 789.763V770.308C862.954 768.746 861.687 767.48 860.125 767.48Z" fill="#F7F8FA"/>
<path opacity="0.26" d="M874.304 699.371H870.055C868.493 699.371 867.227 700.637 867.227 702.199V721.654C867.227 723.215 868.493 724.481 870.055 724.481H874.304C875.867 724.481 877.133 723.215 877.133 721.654V702.199C877.133 700.637 875.867 699.371 874.304 699.371Z" fill="#F7F8FA"/>
<path opacity="0.26" d="M874.304 733.426H870.055C868.493 733.426 867.227 734.692 867.227 736.253V755.708C867.227 757.27 868.493 758.536 870.055 758.536H874.304C875.867 758.536 877.133 757.27 877.133 755.708V736.253C877.133 734.692 875.867 733.426 874.304 733.426Z" fill="#F7F8FA"/>
<path opacity="0.26" d="M874.304 767.48H870.055C868.493 767.48 867.227 768.746 867.227 770.308V789.763C867.227 791.325 868.493 792.591 870.055 792.591H874.304C875.867 792.591 877.133 791.325 877.133 789.763V770.308C877.133 768.746 875.867 767.48 874.304 767.48Z" fill="#F7F8FA"/>
<path opacity="0.26" d="M888.484 699.371H884.235C882.673 699.371 881.406 700.637 881.406 702.199V721.654C881.406 723.215 882.673 724.481 884.235 724.481H888.484C890.046 724.481 891.313 723.215 891.313 721.654V702.199C891.313 700.637 890.046 699.371 888.484 699.371Z" fill="#F7F8FA"/>
<path opacity="0.26" d="M888.484 733.426H884.235C882.673 733.426 881.406 734.692 881.406 736.253V755.708C881.406 757.27 882.673 758.536 884.235 758.536H888.484C890.046 758.536 891.313 757.27 891.313 755.708V736.253C891.313 734.692 890.046 733.426 888.484 733.426Z" fill="#F7F8FA"/>
<path opacity="0.26" d="M888.484 767.48H884.235C882.673 767.48 881.406 768.746 881.406 770.308V789.763C881.406 791.325 882.673 792.591 884.235 792.591H888.484C890.046 792.591 891.313 791.325 891.313 789.763V770.308C891.313 768.746 890.046 767.48 888.484 767.48Z" fill="#F7F8FA"/>
</g>
<g opacity="0.26">
<path opacity="0.26" d="M765.875 699.371H761.626C760.063 699.371 758.797 700.637 758.797 702.199V721.654C758.797 723.215 760.063 724.481 761.626 724.481H765.875C767.437 724.481 768.704 723.215 768.704 721.654V702.199C768.704 700.637 767.437 699.371 765.875 699.371Z" fill="#F7F8FA"/>
<path opacity="0.26" d="M765.875 733.426H761.626C760.063 733.426 758.797 734.692 758.797 736.253V755.708C758.797 757.27 760.063 758.536 761.626 758.536H765.875C767.437 758.536 768.704 757.27 768.704 755.708V736.253C768.704 734.692 767.437 733.426 765.875 733.426Z" fill="#F7F8FA"/>
<path opacity="0.26" d="M765.875 767.48H761.626C760.063 767.48 758.797 768.746 758.797 770.308V789.763C758.797 791.325 760.063 792.591 761.626 792.591H765.875C767.437 792.591 768.704 791.325 768.704 789.763V770.308C768.704 768.746 767.437 767.48 765.875 767.48Z" fill="#F7F8FA"/>
<path opacity="0.26" d="M779.664 699.371H775.415C773.852 699.371 772.586 700.637 772.586 702.199V721.654C772.586 723.215 773.852 724.481 775.415 724.481H779.664C781.226 724.481 782.493 723.215 782.493 721.654V702.199C782.493 700.637 781.226 699.371 779.664 699.371Z" fill="#F7F8FA"/>
<path opacity="0.26" d="M779.664 733.426H775.415C773.852 733.426 772.586 734.692 772.586 736.253V755.708C772.586 757.27 773.852 758.536 775.415 758.536H779.664C781.226 758.536 782.493 757.27 782.493 755.708V736.253C782.493 734.692 781.226 733.426 779.664 733.426Z" fill="#F7F8FA"/>
<path opacity="0.26" d="M779.664 767.48H775.415C773.852 767.48 772.586 768.746 772.586 770.308V789.763C772.586 791.325 773.852 792.591 775.415 792.591H779.664C781.226 792.591 782.493 791.325 782.493 789.763V770.308C782.493 768.746 781.226 767.48 779.664 767.48Z" fill="#F7F8FA"/>
<path opacity="0.26" d="M793.843 699.371H789.594C788.032 699.371 786.766 700.637 786.766 702.199V721.654C786.766 723.215 788.032 724.481 789.594 724.481H793.843C795.406 724.481 796.672 723.215 796.672 721.654V702.199C796.672 700.637 795.406 699.371 793.843 699.371Z" fill="#F7F8FA"/>
<path opacity="0.26" d="M793.843 733.426H789.594C788.032 733.426 786.766 734.692 786.766 736.253V755.708C786.766 757.27 788.032 758.536 789.594 758.536H793.843C795.406 758.536 796.672 757.27 796.672 755.708V736.253C796.672 734.692 795.406 733.426 793.843 733.426Z" fill="#F7F8FA"/>
<path opacity="0.26" d="M793.843 767.48H789.594C788.032 767.48 786.766 768.746 786.766 770.308V789.763C786.766 791.325 788.032 792.591 789.594 792.591H793.843C795.406 792.591 796.672 791.325 796.672 789.763V770.308C796.672 768.746 795.406 767.48 793.843 767.48Z" fill="#F7F8FA"/>
<path opacity="0.26" d="M808.023 699.371H803.774C802.212 699.371 800.945 700.637 800.945 702.199V721.654C800.945 723.215 802.212 724.481 803.774 724.481H808.023C809.585 724.481 810.852 723.215 810.852 721.654V702.199C810.852 700.637 809.585 699.371 808.023 699.371Z" fill="#F7F8FA"/>
<path opacity="0.26" d="M808.023 733.426H803.774C802.212 733.426 800.945 734.692 800.945 736.253V755.708C800.945 757.27 802.212 758.536 803.774 758.536H808.023C809.585 758.536 810.852 757.27 810.852 755.708V736.253C810.852 734.692 809.585 733.426 808.023 733.426Z" fill="#F7F8FA"/>
<path opacity="0.26" d="M808.023 767.48H803.774C802.212 767.48 800.945 768.746 800.945 770.308V789.763C800.945 791.325 802.212 792.591 803.774 792.591H808.023C809.585 792.591 810.852 791.325 810.852 789.763V770.308C810.852 768.746 809.585 767.48 808.023 767.48Z" fill="#F7F8FA"/>
</g>
<path d="M1096.44 685.148H1011.67C1009.79 685.148 1008.27 686.671 1008.27 688.549C1008.27 690.428 1009.79 691.95 1011.67 691.95H1096.44C1098.32 691.95 1099.84 690.428 1099.84 688.549C1099.84 686.671 1098.32 685.148 1096.44 685.148Z" fill="#2448B1"/>
<path d="M1122.52 685.148H1116.9C1115.02 685.148 1113.5 686.671 1113.5 688.549C1113.5 690.428 1115.02 691.95 1116.9 691.95H1122.52C1124.4 691.95 1125.92 690.428 1125.92 688.549C1125.92 686.671 1124.4 685.148 1122.52 685.148Z" fill="#2448B1"/>
<path d="M1030.06 662.926H1024.44C1022.56 662.926 1021.04 664.448 1021.04 666.327C1021.04 668.205 1022.56 669.728 1024.44 669.728H1030.06C1031.94 669.728 1033.46 668.205 1033.46 666.327C1033.46 664.448 1031.94 662.926 1030.06 662.926Z" fill="#2448B1"/>
<path d="M1125.19 674.453H1040.42C1038.54 674.453 1037.02 675.976 1037.02 677.854C1037.02 679.732 1038.54 681.255 1040.42 681.255H1125.19C1127.07 681.255 1128.59 679.732 1128.59 677.854C1128.59 675.976 1127.07 674.453 1125.19 674.453Z" fill="#2448B1"/>
<path d="M1142.23 695.836H1057.46C1055.58 695.836 1054.05 697.359 1054.05 699.237C1054.05 701.115 1055.58 702.638 1057.46 702.638H1142.23C1144.11 702.638 1145.63 701.115 1145.63 699.237C1145.63 697.359 1144.11 695.836 1142.23 695.836Z" fill="#2448B1"/>
<path d="M1027.65 708.664H1014.44C1012.56 708.664 1011.04 710.187 1011.04 712.065C1011.04 713.943 1012.56 715.466 1014.44 715.466H1027.65C1029.53 715.466 1031.05 713.943 1031.05 712.065C1031.05 710.187 1029.53 708.664 1027.65 708.664Z" fill="#2448B1"/>
<path d="M1066.3 708.664H1045.05C1043.17 708.664 1041.65 710.187 1041.65 712.065C1041.65 713.943 1043.17 715.466 1045.05 715.466H1066.3C1068.17 715.466 1069.7 713.943 1069.7 712.065C1069.7 710.187 1068.17 708.664 1066.3 708.664Z" fill="#2448B1"/>
<path d="M1148.43 647.227H1063.66C1061.78 647.227 1060.26 648.749 1060.26 650.628C1060.26 652.506 1061.78 654.029 1063.66 654.029H1148.43C1150.31 654.029 1151.83 652.506 1151.83 650.628C1151.83 648.749 1150.31 647.227 1148.43 647.227Z" fill="#2448B1"/>
<g opacity="0.8">
<path opacity="0.8" d="M1239.88 751.601V677.511C1239.88 675.87 1238.54 674.539 1236.9 674.539H1236.9C1235.26 674.539 1233.92 675.87 1233.92 677.511V751.601C1233.92 753.243 1235.26 754.573 1236.9 754.573H1236.9C1238.54 754.573 1239.88 753.243 1239.88 751.601Z" fill="#F7F8FA"/>
<path opacity="0.8" d="M1239.88 774.389V769.48C1239.88 767.839 1238.54 766.508 1236.9 766.508H1236.9C1235.26 766.508 1233.92 767.839 1233.92 769.48V774.389C1233.92 776.03 1235.26 777.361 1236.9 777.361H1236.9C1238.54 777.361 1239.88 776.03 1239.88 774.389Z" fill="#F7F8FA"/>
<path opacity="0.8" d="M1249.23 776.726V702.636C1249.23 700.995 1247.9 699.664 1246.25 699.664H1246.25C1244.61 699.664 1243.28 700.995 1243.28 702.636V776.726C1243.28 778.368 1244.61 779.698 1246.25 779.698H1246.25C1247.9 779.698 1249.23 778.368 1249.23 776.726Z" fill="#F7F8FA"/>
<path opacity="0.8" d="M1230.52 791.617V717.527C1230.52 715.885 1229.19 714.555 1227.55 714.555H1227.55C1225.9 714.555 1224.57 715.885 1224.57 717.527V791.617C1224.57 793.258 1225.9 794.589 1227.55 794.589H1227.55C1229.19 794.589 1230.52 793.258 1230.52 791.617Z" fill="#F7F8FA"/>
<path opacity="0.8" d="M1273.04 797.042V722.953C1273.04 721.311 1271.71 719.98 1270.07 719.98H1270.06C1268.42 719.98 1267.09 721.311 1267.09 722.953V797.042C1267.09 798.684 1268.42 800.015 1270.06 800.015H1270.07C1271.71 800.015 1273.04 798.684 1273.04 797.042Z" fill="#F7F8FA"/>
</g>
<g opacity="0.48">
<path opacity="0.48" d="M563.632 737.601C516.916 735.004 470.208 731.864 423.419 733.527C391.841 734.649 360.235 738.07 329.521 745.661C313.958 749.484 298.701 754.462 283.879 760.554C271.22 765.78 257.669 771.387 247.416 780.71C242.795 784.917 239.239 789.897 237.049 795.756C236.72 796.639 238.134 797.02 238.469 796.145C244.076 781.13 259.229 773.278 272.938 766.921C287.501 760.201 302.565 754.623 317.993 750.237C348.985 741.368 381.1 737.085 413.245 735.421C463.386 732.823 513.505 736.273 563.589 739.049C563.646 738.569 563.661 738.084 563.632 737.601Z" fill="#F7F8FA"/>
<path opacity="0.48" d="M1155.35 551.853C1132.59 568.477 1109.39 584.545 1085.08 598.848C1062.24 612.279 1038.57 624.219 1014.92 636.145C986.675 650.397 958.205 664.188 929.234 676.81C929.48 677.317 929.655 677.856 929.754 678.411C951.854 668.815 973.658 658.51 995.176 647.722C1020.59 634.998 1046.11 622.388 1070.96 608.588C1093.66 595.983 1115.49 581.971 1136.71 567.027C1143.22 562.45 1149.68 557.813 1156.09 553.116C1156.84 552.568 1156.11 551.296 1155.35 551.853Z" fill="#F7F8FA"/>
<path opacity="0.48" d="M1323.7 401.372C1319.82 404.758 1315.96 408.165 1312.11 411.592C1308.34 414.961 1304.58 418.35 1300.83 421.759C1298.75 423.651 1296.68 425.544 1294.61 427.436C1293.92 428.075 1294.95 429.108 1295.65 428.473C1299.33 425.087 1303.04 421.717 1306.75 418.363C1310.54 414.945 1314.35 411.545 1318.17 408.163C1320.35 406.233 1322.54 404.31 1324.73 402.394C1324.87 402.257 1324.94 402.071 1324.94 401.878C1324.94 401.684 1324.87 401.499 1324.73 401.361C1324.59 401.227 1324.41 401.152 1324.21 401.152C1324.02 401.152 1323.84 401.227 1323.7 401.361V401.372Z" fill="#F7F8FA"/>
<path opacity="0.48" d="M529.556 117.203C598.289 146.313 672.873 159.739 739.914 193.141C763.624 204.954 786.564 218.535 808.079 233.993C829.398 249.306 850.847 266.941 865.284 289.153C876.929 307.038 882.325 328.824 869.715 347.734C861.276 360.386 849.055 372.838 836.328 381.255C830.15 385.343 821.184 390.223 813.575 387.191C800.496 381.979 806.812 362.95 814.038 355.728C823.598 346.175 840.009 343.918 852.798 343.132C871.166 341.996 889.517 344.88 907.58 347.873C984.55 360.625 1055.97 393.485 1129.86 417.233C1202.26 440.512 1277.49 458.005 1354.02 455.101C1410.1 452.972 1465.92 440.827 1517.58 418.8C1556.34 402.274 1594.68 380.057 1623.96 349.32C1638.23 334.331 1659.16 308.582 1649.75 286.135C1645.77 276.67 1636.63 271.049 1627.23 267.966C1611.04 262.632 1593.06 263.018 1576.3 264.471C1562.19 265.649 1548.19 267.988 1534.47 271.464C1533.56 271.696 1533.94 273.11 1534.86 272.883C1558.55 266.799 1584.42 263.293 1608.92 265.786C1621.3 267.046 1635.68 270.178 1644.23 280.034C1661.57 300.023 1639.94 329.525 1626.3 344.67C1597.45 376.665 1558.34 399.563 1519.15 416.546C1465.47 439.825 1407.07 452.267 1348.61 453.812C1269.45 455.901 1191.91 436.313 1117.31 411.597C1079.6 399.106 1042.53 384.863 1005.01 371.853C968.086 359.038 930.796 349.451 892.073 343.989C875.057 341.59 857.576 340.094 840.537 343.106C830.494 344.88 819.207 347.841 812.075 355.674C805.364 363.055 800.825 377.125 808.531 385.482C819.73 397.607 839.773 381.372 848.172 373.812C865.15 358.524 882.254 339.745 877.946 315.288C874.057 293.3 857.641 274.691 841.977 259.824C822.002 240.846 799.047 225.011 775.451 210.924C749.477 195.428 722.16 182.3 693.831 171.699C657.9 158.231 620.883 147.997 584.46 135.986C566.169 129.956 548.035 123.452 530.295 115.94C529.442 115.577 528.69 116.837 529.556 117.203Z" fill="#EBEEF2"/>
<path opacity="0.48" d="M529.556 117.203C598.289 146.313 672.873 159.739 739.914 193.141C763.624 204.954 786.564 218.535 808.079 233.993C829.398 249.306 850.847 266.941 865.284 289.153C876.929 307.038 882.325 328.824 869.715 347.734C861.276 360.386 849.055 372.838 836.328 381.255C830.15 385.343 821.184 390.223 813.575 387.191C800.496 381.979 806.812 362.95 814.038 355.728C823.598 346.175 840.009 343.918 852.798 343.132C871.166 341.996 889.517 344.88 907.58 347.873C984.55 360.625 1055.97 393.485 1129.86 417.233C1202.26 440.512 1277.49 458.005 1354.02 455.101C1410.1 452.972 1465.92 440.827 1517.58 418.8C1556.34 402.274 1594.68 380.057 1623.96 349.32C1638.23 334.331 1659.16 308.582 1649.75 286.135C1645.77 276.67 1636.63 271.049 1627.23 267.966C1611.04 262.632 1593.06 263.018 1576.3 264.471C1562.19 265.649 1548.19 267.988 1534.47 271.464C1533.56 271.696 1533.94 273.11 1534.86 272.883C1558.55 266.799 1584.42 263.293 1608.92 265.786C1621.3 267.046 1635.68 270.178 1644.23 280.034C1661.57 300.023 1639.94 329.525 1626.3 344.67C1597.45 376.665 1558.34 399.563 1519.15 416.546C1465.47 439.825 1407.07 452.267 1348.61 453.812C1269.45 455.901 1191.91 436.313 1117.31 411.597C1079.6 399.106 1042.53 384.863 1005.01 371.853C968.086 359.038 930.796 349.451 892.073 343.989C875.057 341.59 857.576 340.094 840.537 343.106C830.494 344.88 819.207 347.841 812.075 355.674C805.364 363.055 800.825 377.125 808.531 385.482C819.73 397.607 839.773 381.372 848.172 373.812C865.15 358.524 882.254 339.745 877.946 315.288C874.057 293.3 857.641 274.691 841.977 259.824C822.002 240.846 799.047 225.011 775.451 210.924C749.477 195.428 722.16 182.3 693.831 171.699C657.9 158.231 620.883 147.997 584.46 135.986C566.169 129.956 548.035 123.452 530.295 115.94C529.442 115.577 528.69 116.837 529.556 117.203Z" fill="#EBEEF2"/>
</g>
</g>
<defs>
<filter id="filter0_f_2378_63703" x="-263" y="-342" width="1083" height="1106" filterUnits="userSpaceOnUse" color-interpolation-filters="sRGB">
<feFlood flood-opacity="0" result="BackgroundImageFix"/>
<feBlend mode="normal" in="SourceGraphic" in2="BackgroundImageFix" result="shape"/>
<feGaussianBlur stdDeviation="128" result="effect1_foregroundBlur_2378_63703"/>
</filter>
<filter id="filter1_f_2378_63703" x="764" y="-31" width="1329" height="1362" filterUnits="userSpaceOnUse" color-interpolation-filters="sRGB">
<feFlood flood-opacity="0" result="BackgroundImageFix"/>
<feBlend mode="normal" in="SourceGraphic" in2="BackgroundImageFix" result="shape"/>
<feGaussianBlur stdDeviation="128" result="effect1_foregroundBlur_2378_63703"/>
</filter>
</defs>
</svg>
