<svg width="375" height="246" viewBox="0 0 375 246" fill="none" xmlns="http://www.w3.org/2000/svg">
<path d="M146.725 182.711H138.719V244.493H146.725V182.711Z" fill="#0D318C"/>
<path d="M80.9103 182.711H34.2978C22.9497 182.711 13.75 191.896 13.75 203.228V207.788H66.0889C69.6067 207.788 72.9804 209.183 75.4679 211.666C77.9553 214.15 79.3528 217.519 79.3528 221.031V244.493H146.725V182.711H80.9103Z" fill="#4A86F7"/>
<path d="M303.594 179.312H345.867C353.594 179.312 361.005 182.378 366.469 187.833C371.934 193.289 375.003 200.689 375.003 208.404V239.458H303.594V179.312Z" fill="#F2A84C"/>
<path d="M303.594 179.312H308.543C312.694 179.312 316.676 180.959 319.611 183.89C322.546 186.821 324.196 190.796 324.196 194.941V239.461H303.594V179.312Z" fill="#E0704A"/>
<path d="M116.179 140.261C115.568 140.26 114.982 140.018 114.55 139.586C114.118 139.155 113.876 138.571 113.875 137.961V100.286C113.875 99.6756 114.118 99.0906 114.55 98.6591C114.982 98.2276 115.568 97.985 116.179 97.9844C116.79 97.9852 117.375 98.228 117.807 98.6594C118.239 99.0909 118.482 99.6757 118.483 100.286V137.961C118.482 138.571 118.239 139.155 117.807 139.586C117.375 140.018 116.79 140.26 116.179 140.261ZM116.179 98.4246C115.685 98.4255 115.211 98.6219 114.862 98.9707C114.513 99.3196 114.317 99.7925 114.316 100.286V137.961C114.316 138.205 114.364 138.447 114.458 138.672C114.551 138.898 114.689 139.103 114.862 139.276C115.035 139.449 115.24 139.586 115.466 139.679C115.692 139.773 115.934 139.821 116.179 139.821C116.423 139.821 116.666 139.773 116.892 139.679C117.118 139.586 117.323 139.449 117.496 139.276C117.669 139.103 117.806 138.898 117.9 138.672C117.994 138.447 118.042 138.205 118.042 137.961V100.286C118.041 99.7925 117.845 99.3196 117.496 98.9707C117.146 98.6219 116.673 98.4255 116.179 98.4246Z" fill="#57B6F0"/>
<path d="M116.179 88.1046C115.568 88.104 114.982 87.8615 114.55 87.4303C114.118 86.999 113.876 86.4143 113.875 85.8044V48.1283C113.876 47.5185 114.118 46.9337 114.55 46.5025C114.982 46.0712 115.568 45.8287 116.179 45.8281C116.79 45.829 117.375 46.0716 117.807 46.5028C118.239 46.934 118.482 47.5186 118.483 48.1283V85.8044C118.482 86.4143 118.239 86.999 117.807 87.4303C117.375 87.8615 116.79 88.104 116.179 88.1046ZM116.179 46.2684C115.685 46.2689 115.211 46.4651 114.862 46.8138C114.513 47.1625 114.317 47.6352 114.316 48.1283V85.8044C114.316 86.2977 114.512 86.7708 114.862 87.1196C115.211 87.4684 115.685 87.6644 116.179 87.6644C116.673 87.6644 117.147 87.4684 117.496 87.1196C117.845 86.7708 118.042 86.2977 118.042 85.8044V48.1283C118.041 47.6352 117.845 47.1625 117.495 46.8138C117.146 46.4651 116.673 46.2689 116.179 46.2684Z" fill="#57B6F0"/>
<path d="M118.268 93.4395C118.268 92.2907 117.335 91.3594 116.185 91.3594C115.034 91.3594 114.102 92.2907 114.102 93.4395C114.102 94.5883 115.034 95.5196 116.185 95.5196C117.335 95.5196 118.268 94.5883 118.268 93.4395Z" fill="#F7F8FA"/>
<path d="M251.04 16.944C250.347 16.944 249.671 16.739 249.095 16.3548C248.519 15.9707 248.07 15.4247 247.805 14.7859C247.541 14.1472 247.471 13.4443 247.606 12.7662C247.742 12.0882 248.075 11.4653 248.565 10.9765C249.055 10.4877 249.678 10.1549 250.358 10.0202C251.037 9.88541 251.741 9.95479 252.38 10.2195C253.02 10.4842 253.567 10.9324 253.951 11.5074C254.336 12.0824 254.541 12.7583 254.541 13.4497C254.54 14.3763 254.171 15.2648 253.514 15.9199C252.858 16.5751 251.968 16.9434 251.04 16.944ZM251.04 10.3945C250.435 10.3945 249.843 10.5736 249.34 10.9094C248.837 11.2451 248.445 11.7222 248.213 12.2805C247.981 12.8388 247.921 13.4531 248.039 14.0457C248.157 14.6384 248.448 15.1827 248.876 15.61C249.304 16.0373 249.849 16.3283 250.443 16.4462C251.037 16.564 251.652 16.5035 252.211 16.2723C252.77 16.0411 253.248 15.6495 253.584 15.147C253.92 14.6446 254.1 14.0539 254.1 13.4497C254.099 12.6396 253.776 11.863 253.203 11.2903C252.629 10.7175 251.851 10.3953 251.04 10.3945Z" fill="#F7F8FA"/>
<path d="M251.04 7.35415C250.348 7.35415 249.671 7.14915 249.095 6.76507C248.519 6.38098 248.071 5.83507 247.806 5.19636C247.541 4.55766 247.471 3.85484 247.606 3.17679C247.741 2.49874 248.075 1.87592 248.564 1.38707C249.054 0.898227 249.678 0.565319 250.357 0.430447C251.036 0.295574 251.74 0.364796 252.38 0.629357C253.019 0.893918 253.566 1.34194 253.951 1.91676C254.335 2.49158 254.541 3.16739 254.541 3.85872C254.54 4.7855 254.171 5.67407 253.514 6.3294C252.858 6.98473 251.968 7.35328 251.04 7.35415ZM251.04 0.804615C250.435 0.804615 249.843 0.983827 249.34 1.31959C248.837 1.65534 248.444 2.13257 248.213 2.6909C247.981 3.24923 247.921 3.86358 248.039 4.45626C248.157 5.04895 248.449 5.59333 248.877 6.02056C249.305 6.4478 249.85 6.73869 250.444 6.85645C251.037 6.97421 251.653 6.91355 252.212 6.68214C252.771 6.45073 253.249 6.05897 253.585 5.5564C253.921 5.05383 254.1 4.46303 254.1 3.85872C254.099 3.0488 253.776 2.27232 253.203 1.69972C252.629 1.12712 251.851 0.805198 251.04 0.804615Z" fill="#F7F8FA"/>
<path d="M98.084 143.977H131.435C133.368 143.977 135.223 144.743 136.59 146.109C137.957 147.474 138.725 149.325 138.725 151.256V182.708H90.7891V151.252C90.7895 150.296 90.9785 149.35 91.3454 148.467C91.7122 147.584 92.2497 146.782 92.9271 146.106C93.6046 145.43 94.4086 144.894 95.2935 144.529C96.1783 144.164 97.1265 143.976 98.084 143.977Z" fill="#FADD6F"/>
<path d="M128.492 143.977H131.518C133.428 143.977 135.26 144.734 136.611 146.083C137.962 147.432 138.721 149.261 138.721 151.169V182.708H124.523V147.939C124.523 146.888 124.941 145.88 125.686 145.137C126.43 144.394 127.439 143.977 128.492 143.977Z" fill="#F2A84C"/>
<path d="M169.901 48.1562L169.836 48.1865V48.1562H169.901Z" fill="#E17A9E"/>
<path d="M171.64 48.1562L169.836 48.9825V48.186L169.9 48.1562H171.64Z" fill="#E17A9D"/>
<path d="M173.381 48.1562L169.836 49.779V48.9825L171.64 48.1562H173.381Z" fill="#E1799C"/>
<path d="M175.12 48.1562L169.836 50.5755V49.779L173.381 48.1562H175.12Z" fill="#E0799B"/>
<path d="M176.861 48.1562L169.836 51.3732V50.5764L175.12 48.1562H176.861Z" fill="#E0789A"/>
<path d="M178.601 48.1562L169.836 52.169V51.3732L176.861 48.1562H178.601Z" fill="#E07899"/>
<path d="M180.342 48.1562L169.836 52.9658V52.169L178.601 48.1562H180.342Z" fill="#E07798"/>
<path d="M182.081 48.1562L169.836 53.7626V52.9658L180.342 48.1562H182.081Z" fill="#E07697"/>
<path d="M183.822 48.1562L169.836 54.5594V53.7626L182.081 48.1562H183.822Z" fill="#E07696"/>
<path d="M185.562 48.1562L169.836 55.3562V54.5594L183.822 48.1562H185.562Z" fill="#E07595"/>
<path d="M187.303 48.1562L169.836 56.153V55.3562L185.562 48.1562H187.303Z" fill="#E07594"/>
<path d="M189.042 48.1562L169.836 56.9499V56.153L187.303 48.1562H189.042Z" fill="#E07493"/>
<path d="M190.783 48.1562L169.836 57.7467V56.9499L189.042 48.1562H190.783Z" fill="#E07492"/>
<path d="M192.523 48.1562L169.836 58.5435V57.7467L190.783 48.1562H192.523Z" fill="#E07391"/>
<path d="M194.263 48.1562L169.836 59.3403V58.5435L192.523 48.1562H194.263Z" fill="#E07390"/>
<path d="M196.003 48.1562L169.836 60.1371V59.3403L194.263 48.1562H196.003Z" fill="#DF728F"/>
<path d="M197.744 48.1562L169.836 60.9329V60.1371L196.003 48.1562H197.744Z" fill="#DF728E"/>
<path d="M199.018 48.3698L169.836 61.7297V60.9329L197.744 48.1562H199.018V48.3698Z" fill="#DF718D"/>
<path d="M199.018 49.1679L169.836 62.5278V61.731L199.018 48.3711V49.1679Z" fill="#DF708C"/>
<path d="M199.018 49.9609L169.836 63.3208V62.524L199.018 49.1641V49.9609Z" fill="#DF708B"/>
<path d="M199.018 50.7578L169.836 64.1177V63.3209L199.018 49.9609V50.7578Z" fill="#DF6F8A"/>
<path d="M199.018 51.5546L169.836 64.9145V64.1177L199.018 50.7578V51.5546Z" fill="#DF6F89"/>
<path d="M199.018 52.3543L169.836 65.7153V64.9185L199.018 51.5586V52.3543Z" fill="#DF6E88"/>
<path d="M199.018 53.1484L169.836 66.5094V65.7126L199.018 52.3516V53.1484Z" fill="#DF6E87"/>
<path d="M199.018 53.9453L169.836 67.3063V66.5095L199.018 53.1484V53.9453Z" fill="#DF6D86"/>
<path d="M199.018 54.7421L169.836 68.1031V67.3063L199.018 53.9453V54.7421Z" fill="#DF6D85"/>
<path d="M199.018 55.539L169.836 68.8989V68.1032L199.018 54.7422V55.539Z" fill="#DF6C84"/>
<path d="M199.018 56.3359L169.836 69.6958V68.899L199.018 55.5391V56.3359Z" fill="#DE6C83"/>
<path d="M199.018 57.1328L169.836 70.4927V69.6959L199.018 56.3359V57.1328Z" fill="#DE6B82"/>
<path d="M199.018 57.9296L169.836 71.2895V70.4927L199.018 57.1328V57.9296Z" fill="#DE6A81"/>
<path d="M199.018 58.7265L169.836 72.0864V71.2896L199.018 57.9297V58.7265Z" fill="#DE6A80"/>
<path d="M199.018 59.5234L169.836 72.8833V72.0865L199.018 58.7266V59.5234Z" fill="#DE697F"/>
<path d="M199.018 60.3192L169.836 73.6802V72.8833L199.018 59.5234V60.3192Z" fill="#DE697E"/>
<path d="M199.018 61.1171L169.836 74.4781V73.6813L199.018 60.3203V61.1171Z" fill="#DE687D"/>
<path d="M199.018 61.914L169.836 75.275V74.4782L199.018 61.1172V61.914Z" fill="#DE687C"/>
<path d="M199.018 62.7109L169.836 76.0708V75.2751L199.018 61.9141V62.7109Z" fill="#DE677B"/>
<path d="M199.018 63.5078L169.836 76.8677V76.0709L199.018 62.7109V63.5078Z" fill="#DE677A"/>
<path d="M199.018 64.3046L169.836 77.6645V76.8677L199.018 63.5078V64.3046Z" fill="#DE6679"/>
<path d="M199.018 65.1015L169.836 78.4614V77.6646L199.018 64.3047V65.1015Z" fill="#DE6678"/>
<path d="M199.018 65.8984L169.836 79.2583V78.4615L199.018 65.1016V65.8984Z" fill="#DD6576"/>
<path d="M199.018 66.6953L169.836 80.0552V79.2583L199.018 65.8984V66.6953Z" fill="#DD6475"/>
<path d="M199.018 67.4921L169.836 80.852V80.0552L199.018 66.6953V67.4921Z" fill="#DD6474"/>
<path d="M199.018 68.2879L169.836 81.6489V80.8521L199.018 67.4922V68.2879Z" fill="#DD6373"/>
<path d="M199.018 69.0859L169.836 82.4469V81.6501L199.018 68.2891V69.0859Z" fill="#DD6372"/>
<path d="M199.018 69.8828L169.836 83.2438V82.4469L199.018 69.0859V69.8828Z" fill="#DD6271"/>
<path d="M199.018 70.6796L169.836 84.0395V83.2438L199.018 69.8828V70.6796Z" fill="#DD6270"/>
<path d="M199.018 71.4765L169.836 84.8364V84.0396L199.018 70.6797V71.4765Z" fill="#DD616F"/>
<path d="M199.018 72.2734L169.836 85.6333V84.8365L199.018 71.4766V72.2734Z" fill="#DD616E"/>
<path d="M199.018 73.0703L169.836 86.4302V85.6333L199.018 72.2734V73.0703Z" fill="#DD606D"/>
<path d="M199.018 73.8671L169.836 87.227V86.4302L199.018 73.0703V73.8671Z" fill="#DD5F6C"/>
<path d="M199.018 74.6601L169.836 88.02V87.2232L199.018 73.8633V74.6601Z" fill="#DD5F6B"/>
<path d="M199.018 75.4609L169.836 88.8208V88.024L199.018 74.6641V75.4609Z" fill="#DC5E6A"/>
<path d="M199.018 76.2578L169.836 89.6177V88.8208L199.018 75.4609V76.2578Z" fill="#DC5E69"/>
<path d="M199.018 77.0535L169.836 90.4145V89.6177L199.018 76.2578V77.0535Z" fill="#DC5D68"/>
<path d="M199.018 77.8476L169.836 91.2086V90.4118L199.018 77.0508V77.8476Z" fill="#DC5D67"/>
<path d="M199.018 78.6445L169.836 92.0055V91.2087L199.018 77.8477V78.6445Z" fill="#DC5C66"/>
<path d="M199.018 79.4413L169.836 92.8013V92.0055L199.018 78.6445V79.4413Z" fill="#DC5C65"/>
<path d="M199.018 80.2382L169.836 93.5981V92.8013L199.018 79.4414V80.2382Z" fill="#DC5B64"/>
<path d="M199.018 81.039L169.836 94.3989V93.6021L199.018 80.2422V81.039Z" fill="#DC5B63"/>
<path d="M199.018 81.832L169.836 95.1919V94.3951L199.018 81.0352V81.832Z" fill="#DC5A62"/>
<path d="M199.018 82.6288L169.836 95.9888V95.1919L199.018 81.832V82.6288Z" fill="#DC5961"/>
<path d="M199.018 83.4257L169.836 96.7856V95.9888L199.018 82.6289V83.4257Z" fill="#DC5960"/>
<path d="M199.018 84.2226L169.836 97.5825V96.7857L199.018 83.4258V84.2226Z" fill="#DC585F"/>
<path d="M199.018 85.0184L169.836 98.3794V97.5826L199.018 84.2227V85.0184Z" fill="#DB585E"/>
<path d="M199.018 85.8124L169.836 99.1735V98.3766L199.018 85.0156V85.8124Z" fill="#DB575D"/>
<path d="M199.018 86.6093L169.836 99.9703V99.1735L199.018 85.8125V86.6093Z" fill="#DB575C"/>
<path d="M199.018 87.4101L169.836 100.77V99.9743L199.018 86.6133V87.4101Z" fill="#DB565B"/>
<path d="M199.018 88.2031L169.836 101.563V100.766L199.018 87.4062V88.2031Z" fill="#DB565A"/>
<path d="M199.018 88.9999L169.836 102.36V101.563L199.018 88.2031V88.9999Z" fill="#DB5559"/>
<path d="M199.018 89.8007L169.836 103.161V102.364L199.018 89.0039V89.8007Z" fill="#DB5558"/>
<path d="M199.018 90.5937L169.836 103.954V103.157L199.018 89.7969V90.5937Z" fill="#DB5457"/>
<path d="M199.018 91.3906L169.836 104.751V103.954L199.018 90.5938V91.3906Z" fill="#DB5356"/>
<path d="M199.018 92.1874L169.836 105.547V104.751L199.018 91.3906V92.1874Z" fill="#DB5355"/>
<path d="M199.018 92.9843L169.836 106.344V105.547L199.018 92.1875V92.9843Z" fill="#DB5254"/>
<path d="M199.018 93.7801L169.836 107.141V106.344L199.018 92.9844V93.7801Z" fill="#DB5253"/>
<path d="M199.018 94.5781L169.836 107.939V107.142L199.018 93.7812V94.5781Z" fill="#DA5152"/>
<path d="M199.018 95.3749L169.836 108.735V107.939L199.018 94.5781V95.3749Z" fill="#DA5151"/>
<path d="M199.018 96.1718L169.836 109.532V108.735L199.018 95.375V96.1718Z" fill="#DA5050"/>
<path d="M199.018 96.9687L169.836 110.329V109.532L199.018 96.1719V96.9687Z" fill="#DA504F"/>
<path d="M199.018 97.7656L169.836 111.125V110.329L199.018 96.9688V97.7656Z" fill="#DA4F4E"/>
<path d="M199.018 98.5624L169.836 111.922V111.126L199.018 97.7656V98.5624Z" fill="#DA4F4D"/>
<path d="M199.018 99.3593L169.836 112.719V111.922L199.018 98.5625V99.3593Z" fill="#DA4E4C"/>
<path d="M199.018 100.156L169.836 113.516V112.719L199.018 99.3594V100.156Z" fill="#DA4D4B"/>
<path d="M199.018 100.953L169.836 114.313V113.516L199.018 100.156V100.953Z" fill="#DA4D4A"/>
<path d="M199.018 101.749L169.836 115.11V114.313L199.018 100.953V101.749Z" fill="#DA4C49"/>
<path d="M199.018 102.547L169.836 115.908V115.111L199.018 101.75V102.547Z" fill="#DA4C48"/>
<path d="M199.018 103.344L169.836 116.705V115.908L199.018 102.547V103.344Z" fill="#DA4B47"/>
<path d="M199.018 104.141L169.836 117.5V116.705L199.018 103.344V104.141Z" fill="#D94B46"/>
<path d="M199.018 104.937L169.836 118.297V117.501L199.018 104.141V104.937Z" fill="#D94A45"/>
<path d="M199.018 105.734L169.836 119.094V118.297L199.018 104.938V105.734Z" fill="#D94A44"/>
<path d="M199.018 106.531L169.836 119.891V119.094L199.018 105.734V106.531Z" fill="#D94943"/>
<path d="M199.018 107.328L169.836 120.688V119.891L199.018 106.531V107.328Z" fill="#D94942"/>
<path d="M199.018 108.125L169.836 121.485V120.688L199.018 107.328V108.125Z" fill="#D94841"/>
<path d="M169.836 121.485L199.018 108.125V135.395H169.836V121.485Z" fill="#D94841"/>
<path d="M191.722 48.1562L190.406 48.76V48.1562H191.722Z" fill="#D94B46"/>
<path d="M193.056 48.1562L190.406 49.3686V48.7591L191.722 48.1562H193.056Z" fill="#D94B47"/>
<path d="M194.39 48.1562L190.406 49.9792V49.3686L193.056 48.1562H194.39Z" fill="#DA4B47"/>
<path d="M195.723 48.1562L190.406 50.5898V49.9792L194.39 48.1562H195.723Z" fill="#DA4C48"/>
<path d="M197.056 48.1562L190.406 51.2015V50.5907L195.723 48.1562H197.056Z" fill="#DA4C48"/>
<path d="M198.39 48.1562L190.406 51.8113V51.2015L197.056 48.1562H198.39Z" fill="#DA4C49"/>
<path d="M199.025 48.4765L190.406 52.4221V51.8113L198.39 48.1562H199.025V48.4765Z" fill="#DA4D4A"/>
<path d="M199.025 49.0874L190.406 53.033V52.4221L199.025 48.4766V49.0874Z" fill="#DA4D4A"/>
<path d="M199.025 49.6996L190.406 53.6462V53.0354L199.025 49.0898V49.6996Z" fill="#DA4D4B"/>
<path d="M199.025 50.3061L190.406 54.2517V53.642L199.025 49.6953V50.3061Z" fill="#DA4E4B"/>
<path d="M199.025 50.9194L190.406 54.865V54.2542L199.025 50.3086V50.9194Z" fill="#DA4E4C"/>
<path d="M199.025 51.5327L190.406 55.4783V54.8674L199.025 50.9219V51.5327Z" fill="#DA4E4D"/>
<path d="M199.025 52.141L190.406 56.0876V55.4768L199.025 51.5312V52.141Z" fill="#DA4F4D"/>
<path d="M199.025 52.7514L190.406 56.697V56.0873L199.025 52.1406V52.7514Z" fill="#DA4F4E"/>
<path d="M199.025 53.3608L190.406 57.3064V56.6956L199.025 52.75V53.3608Z" fill="#DA4F4F"/>
<path d="M199.025 53.9691L190.406 57.9158V57.305L199.025 53.3594V53.9691Z" fill="#DA504F"/>
<path d="M199.025 54.5796L190.406 58.5263V57.9154L199.025 53.9688V54.5796Z" fill="#DA5050"/>
<path d="M199.025 55.1929L190.406 59.1384V58.5287L199.025 54.582V55.1929Z" fill="#DA5151"/>
<path d="M199.025 55.8061L190.406 59.7517V59.1409L199.025 55.1953V55.8061Z" fill="#DA5152"/>
<path d="M199.025 56.4144L190.406 60.3611V59.7503L199.025 55.8047V56.4144Z" fill="#DA5152"/>
<path d="M199.025 57.0249L190.406 60.9715V60.3607L199.025 56.4141V57.0249Z" fill="#DB5253"/>
<path d="M199.025 57.6343L190.406 61.5798V60.9701L199.025 57.0234V57.6343Z" fill="#DB5254"/>
<path d="M199.025 58.2475L190.406 62.1931V61.5823L199.025 57.6367V58.2475Z" fill="#DB5355"/>
<path d="M199.025 58.8569L190.406 62.8025V62.1917L199.025 58.2461V58.8569Z" fill="#DB5356"/>
<path d="M199.025 59.4691L190.406 63.4158V62.8049L199.025 58.8594V59.4691Z" fill="#DB5457"/>
<path d="M199.025 60.0796L190.406 64.0251V63.4154L199.025 59.4688V60.0796Z" fill="#DB5458"/>
<path d="M199.025 60.6889L190.406 64.6345V64.0237L199.025 60.0781V60.6889Z" fill="#DB5559"/>
<path d="M199.025 61.2972L190.406 65.2439V64.6331L199.025 60.6875V61.2972Z" fill="#DB5559"/>
<path d="M199.025 61.9077L190.406 65.8533V65.2435L199.025 61.2969V61.9077Z" fill="#DB565A"/>
<path d="M199.025 62.5171L190.406 66.4626V65.8518L199.025 61.9062V62.5171Z" fill="#DB565B"/>
<path d="M199.025 63.1304L190.406 67.0759V66.4651L199.025 62.5195V63.1304Z" fill="#DB575C"/>
<path d="M199.025 63.7386L190.406 67.6853V67.0745L199.025 63.1289V63.7386Z" fill="#DB575D"/>
<path d="M199.025 64.353L190.406 68.2997V67.6889L199.025 63.7422V64.353Z" fill="#DB585F"/>
<path d="M199.025 64.9624L190.406 68.9079V68.2982L199.025 64.3516V64.9624Z" fill="#DC5960"/>
<path d="M199.025 65.5718L190.406 69.5174V68.9065L199.025 64.9609V65.5718Z" fill="#DC5961"/>
<path d="M199.025 66.18L190.406 70.1267V69.5159L199.025 65.5703V66.18Z" fill="#DC5A62"/>
<path d="M199.025 66.7944L190.406 70.74V70.1303L199.025 66.1836V66.7944Z" fill="#DC5A63"/>
<path d="M199.025 67.4038L190.406 71.3494V70.7385L199.025 66.793V67.4038Z" fill="#DC5B64"/>
<path d="M199.025 68.0132L190.406 71.9587V71.3479L199.025 67.4023V68.0132Z" fill="#DC5C65"/>
<path d="M199.025 68.6253L190.406 72.572V71.9612L199.025 68.0156V68.6253Z" fill="#DC5C66"/>
<path d="M199.025 69.2358L190.406 73.1814V72.5717L199.025 68.625V69.2358Z" fill="#DC5D68"/>
<path d="M199.025 69.8452L190.406 73.7908V73.18L199.025 69.2344V69.8452Z" fill="#DC5E69"/>
<path d="M199.025 70.4546L190.406 74.4001V73.7893L199.025 69.8438V70.4546Z" fill="#DC5E6A"/>
<path d="M199.025 71.0667L190.406 75.0134V74.4026L199.025 70.457V71.0667Z" fill="#DC5F6B"/>
<path d="M199.025 71.6772L190.406 75.6228V75.0131L199.025 71.0664V71.6772Z" fill="#DD606D"/>
<path d="M199.025 72.2905L190.406 76.2361V75.6253L199.025 71.6797V72.2905Z" fill="#DD606E"/>
<path d="M199.025 72.8988L190.406 76.8455V76.2346L199.025 72.2891V72.8988Z" fill="#DD616F"/>
<path d="M199.025 73.5093L190.406 77.4559V76.8451L199.025 72.8984V73.5093Z" fill="#DD6271"/>
<path d="M199.025 74.1186L190.406 78.0642V77.4545L199.025 73.5078V74.1186Z" fill="#DD6272"/>
<path d="M199.025 74.728L190.406 78.6735V78.0627L199.025 74.1172V74.728Z" fill="#DD6373"/>
<path d="M199.025 75.3413L190.406 79.2869V78.676L199.025 74.7305V75.3413Z" fill="#DD6475"/>
<path d="M199.025 75.9535L190.406 79.9001V79.2893L199.025 75.3438V75.9535Z" fill="#DD6576"/>
<path d="M199.025 76.564L190.406 80.5095V79.8998L199.025 75.9531V76.564Z" fill="#DE6678"/>
<path d="M199.025 77.1733L190.406 81.1189V80.5081L199.025 76.5625V77.1733Z" fill="#DE6679"/>
<path d="M199.025 77.7816L190.406 81.7283V81.1175L199.025 77.1719V77.7816Z" fill="#DE677B"/>
<path d="M199.025 78.3921L190.406 82.3388V81.7279L199.025 77.7812V78.3921Z" fill="#DE687C"/>
<path d="M199.025 79.0054L190.406 82.9509V82.3412L199.025 78.3945V79.0054Z" fill="#DE697E"/>
<path d="M199.025 79.6147L190.406 83.5603V82.9495L199.025 79.0039V79.6147Z" fill="#DE6A7F"/>
<path d="M199.025 80.2269L190.406 84.1736V83.5627L199.025 79.6172V80.2269Z" fill="#DE6A81"/>
<path d="M199.025 80.8374L190.406 84.7829V84.1732L199.025 80.2266V80.8374Z" fill="#DE6B82"/>
<path d="M199.025 81.4468L190.406 85.3923V84.7815L199.025 80.8359V81.4468Z" fill="#DF6C84"/>
<path d="M199.025 82.0561L190.406 86.0017V85.3909L199.025 81.4453V82.0561Z" fill="#DF6D85"/>
<path d="M199.025 82.6644L190.406 86.6111V86.0003L199.025 82.0547V82.6644Z" fill="#DF6E87"/>
<path d="M199.025 83.2749L190.406 87.2216V86.6107L199.025 82.6641V83.2749Z" fill="#DF6F89"/>
<path d="M199.025 83.8882L190.406 87.8337V87.224L199.025 83.2773V83.8882Z" fill="#DF708A"/>
<path d="M199.025 84.5014L190.406 88.447V87.8362L199.025 83.8906V84.5014Z" fill="#DF718C"/>
<path d="M199.025 85.1097L190.406 89.0564V88.4456L199.025 84.5V85.1097Z" fill="#DF728E"/>
<path d="M199.025 85.7202L190.406 89.6657V89.056L199.025 85.1094V85.7202Z" fill="#DF7390"/>
<path d="M199.025 86.3296L190.406 90.2751V89.6643L199.025 85.7188V86.3296Z" fill="#E07391"/>
<path d="M199.025 86.9389L190.406 90.8845V90.2737L199.025 86.3281V86.9389Z" fill="#E07493"/>
<path d="M199.025 87.5511L190.406 91.4978V90.887L199.025 86.9414V87.5511Z" fill="#E07595"/>
<path d="M199.025 88.1616L190.406 92.1072V91.4975L199.025 87.5508V88.1616Z" fill="#E07697"/>
<path d="M199.025 88.771L190.406 92.7166V92.1057L199.025 88.1602V88.771Z" fill="#E07799"/>
<path d="M199.025 89.3843L190.406 93.3298V92.719L199.025 88.7734V89.3843Z" fill="#E0789A"/>
<path d="M199.025 89.9925L190.406 93.9392V93.3284L199.025 89.3828V89.9925Z" fill="#E1799C"/>
<path d="M199.025 90.603L190.406 94.5486V93.9389L199.025 89.9922V90.603Z" fill="#E17A9E"/>
<path d="M199.025 91.2124L190.406 95.1579V94.5471L199.025 90.6016V91.2124Z" fill="#E17BA0"/>
<path d="M199.025 91.8246L190.406 95.7713V95.1604L199.025 91.2148V91.8246Z" fill="#E17CA2"/>
<path d="M199.025 92.4311L190.406 96.3778V95.767L199.025 91.8203V92.4311Z" fill="#E17EA4"/>
<path d="M199.025 93.0483L190.406 96.9939V96.3842L199.025 92.4375V93.0483Z" fill="#E17FA6"/>
<path d="M199.025 93.6577L190.406 97.6033V96.9924L199.025 93.0469V93.6577Z" fill="#E180A8"/>
<path d="M199.025 94.2671L190.406 98.2126V97.6018L199.025 93.6562V94.2671Z" fill="#E281AA"/>
<path d="M199.025 94.8753L190.406 98.822V98.2112L199.025 94.2656V94.8753Z" fill="#E282AC"/>
<path d="M199.025 95.4858L190.406 99.4314V98.8217L199.025 94.875V95.4858Z" fill="#E283AE"/>
<path d="M190.406 99.4378L199.025 95.4922V116.39H190.406V99.4378Z" fill="#E283AE"/>
<path d="M274.966 32.2227H226.457C224.021 32.2227 222.047 34.1939 222.047 36.6255C222.047 39.0571 224.021 41.0284 226.457 41.0284H274.966C277.401 41.0284 279.376 39.0571 279.376 36.6255C279.376 34.1939 277.401 32.2227 274.966 32.2227Z" fill="#4A86F7"/>
<path d="M175.517 77.9844H175.393C174.641 77.9844 174.031 78.5929 174.031 79.3436V120.216C174.031 120.966 174.641 121.575 175.393 121.575H175.517C176.269 121.575 176.878 120.966 176.878 120.216V79.3436C176.878 78.5929 176.269 77.9844 175.517 77.9844Z" fill="#FADD6F"/>
<path d="M180.331 77.9531H180.208C179.459 77.9531 178.852 78.5597 178.852 79.3079V120.189C178.852 120.937 179.459 121.544 180.208 121.544H180.331C181.08 121.544 181.688 120.937 181.688 120.189V79.3079C181.688 78.5597 181.08 77.9531 180.331 77.9531Z" fill="#FADD6F"/>
<path d="M185.128 78.0156H185.005C184.256 78.0156 183.648 78.6222 183.648 79.3704V120.251C183.648 121 184.256 121.606 185.005 121.606H185.128C185.877 121.606 186.485 121 186.485 120.251V79.3704C186.485 78.6222 185.877 78.0156 185.128 78.0156Z" fill="#FADD6F"/>
<path d="M267.224 21.75H234.849C232.974 21.75 231.453 23.2681 231.453 25.1409C231.453 27.0136 232.974 28.5318 234.849 28.5318H267.224C269.099 28.5318 270.62 27.0136 270.62 25.1409C270.62 23.2681 269.099 21.75 267.224 21.75Z" fill="#FADD6F"/>
<path d="M199.023 266.699H146.72V162.57C146.72 155.713 148.073 148.922 150.701 142.586C153.33 136.251 157.182 130.494 162.039 125.645C166.896 120.796 172.662 116.95 179.008 114.326C185.354 111.702 192.155 110.352 199.023 110.352L199.023 266.699Z" fill="#83BF6E"/>
<path d="M225.86 48.1574H282.471C283.642 48.1574 284.801 48.3875 285.882 48.8347C286.963 49.2819 287.946 49.9373 288.773 50.7636C289.601 51.5898 290.257 52.5708 290.705 53.6503C291.153 54.7299 291.383 55.887 291.383 57.0555V255.479C291.383 257.001 290.778 258.461 289.699 259.538C288.621 260.614 287.159 261.219 285.634 261.219H225.86C225.105 261.219 224.357 261.071 223.659 260.783C222.962 260.494 222.328 260.071 221.794 259.538C221.26 259.005 220.836 258.372 220.547 257.676C220.258 256.979 220.109 256.233 220.109 255.479V53.8969C220.109 52.3744 220.715 50.9142 221.793 49.8376C222.872 48.7611 224.334 48.1563 225.859 48.1562L225.86 48.1574Z" fill="#4A86F7"/>
<path d="M217.382 48.1562H282.906V255.478C282.906 257 282.3 258.46 281.222 259.537C280.144 260.613 278.681 261.218 277.156 261.218H217.382C215.857 261.218 214.395 260.613 213.317 259.537C212.239 258.46 211.633 257 211.633 255.478V53.8958C211.633 52.3734 212.239 50.9136 213.317 49.8372C214.395 48.7609 215.858 48.1562 217.382 48.1562Z" fill="#57B6F0"/>
<path d="M281.227 165.625H327.03C328.882 165.625 330.658 166.36 331.968 167.667C333.277 168.975 334.013 170.748 334.013 172.597C334.013 174.446 333.277 176.22 331.968 177.527C330.658 178.835 328.882 179.569 327.03 179.569H281.227V165.625Z" fill="#57B6F0"/>
<path d="M3.91761 226.316H52.3159C54.782 226.316 56.7812 224.32 56.7812 221.858V216.3C56.7812 213.838 54.782 211.842 52.3159 211.842H3.91761C1.45145 211.842 -0.54776 213.838 -0.54776 216.3V221.858C-0.54776 224.32 1.45145 226.316 3.91761 226.316Z" fill="#F2A84C"/>
<g opacity="0.55">
<path opacity="0.55" d="M56.0127 216.965H50.7427V214.155H56.0127C56.3328 214.155 56.6398 214.282 56.8662 214.508C57.0926 214.734 57.2197 215.041 57.2197 215.36V215.765C57.2183 216.084 57.0905 216.389 56.8643 216.614C56.6381 216.839 56.3319 216.965 56.0127 216.965Z" fill="#F7F8FA"/>
</g>
<g opacity="0.55">
<path opacity="0.55" d="M42.8052 216.965H49.2822V214.155H42.8052V216.965Z" fill="#F7F8FA"/>
</g>
<g opacity="0.55">
<path opacity="0.55" d="M34.8599 216.965H41.3369V214.155H34.8599V216.965Z" fill="#F7F8FA"/>
</g>
<g opacity="0.55">
<path opacity="0.55" d="M26.9145 216.965H33.3916V214.155H26.9145V216.965Z" fill="#F7F8FA"/>
</g>
<g opacity="0.55">
<path opacity="0.55" d="M18.9692 216.965H25.4463V214.155H18.9692V216.965Z" fill="#F7F8FA"/>
</g>
<g opacity="0.55">
<path opacity="0.55" d="M11.0317 216.965H17.5088V214.155H11.0317V216.965Z" fill="#F7F8FA"/>
</g>
<g opacity="0.55">
<path opacity="0.55" d="M9.43848 216.961H4.36795C4.18324 216.961 4.00034 216.925 3.82969 216.854C3.65905 216.783 3.50399 216.68 3.37339 216.55C3.24278 216.419 3.13917 216.264 3.06849 216.094C2.99781 215.924 2.96142 215.741 2.96142 215.557C2.96142 215.184 3.10961 214.827 3.37339 214.564C3.63716 214.3 3.99491 214.152 4.36795 214.152H9.43848V216.961Z" fill="#F7F8FA"/>
</g>
<g opacity="0.57">
<path opacity="0.57" d="M198.964 137.578H167.865C166.309 137.578 165.047 138.838 165.047 140.392C165.047 141.946 166.309 143.205 167.865 143.205H198.964C200.521 143.205 201.783 141.946 201.783 140.392C201.783 138.838 200.521 137.578 198.964 137.578Z" fill="#F7F8FA"/>
</g>
<g opacity="0.57">
<path opacity="0.57" d="M198.964 147.312H167.865C166.309 147.312 165.047 148.572 165.047 150.126C165.047 151.68 166.309 152.94 167.865 152.94H198.964C200.521 152.94 201.783 151.68 201.783 150.126C201.783 148.572 200.521 147.312 198.964 147.312Z" fill="#F7F8FA"/>
</g>
<g opacity="0.57">
<path opacity="0.57" d="M198.964 157.039H167.865C166.309 157.039 165.047 158.299 165.047 159.853C165.047 161.407 166.309 162.666 167.865 162.666H198.964C200.521 162.666 201.783 161.407 201.783 159.853C201.783 158.299 200.521 157.039 198.964 157.039Z" fill="#F7F8FA"/>
</g>
<g opacity="0.57">
<path opacity="0.57" d="M198.964 166.766H167.865C166.309 166.766 165.047 168.025 165.047 169.579C165.047 171.133 166.309 172.393 167.865 172.393H198.964C200.521 172.393 201.783 171.133 201.783 169.579C201.783 168.025 200.521 166.766 198.964 166.766Z" fill="#F7F8FA"/>
</g>
<g opacity="0.57">
<path opacity="0.57" d="M198.964 176.496H167.865C166.309 176.496 165.047 177.756 165.047 179.31C165.047 180.864 166.309 182.123 167.865 182.123H198.964C200.521 182.123 201.783 180.864 201.783 179.31C201.783 177.756 200.521 176.496 198.964 176.496Z" fill="#F7F8FA"/>
</g>
<g opacity="0.57">
<path opacity="0.57" d="M198.964 186.227H167.865C166.309 186.227 165.047 187.486 165.047 189.04C165.047 190.594 166.309 191.854 167.865 191.854H198.964C200.521 191.854 201.783 190.594 201.783 189.04C201.783 187.486 200.521 186.227 198.964 186.227Z" fill="#F7F8FA"/>
</g>
<g opacity="0.57">
<path opacity="0.57" d="M118.272 148.449H93.7109V152.212H118.272V148.449Z" fill="#F7F8FA"/>
</g>
<g opacity="0.57">
<path opacity="0.57" d="M118.272 154.957H93.7109V158.72H118.272V154.957Z" fill="#F7F8FA"/>
</g>
<g opacity="0.57">
<path opacity="0.57" d="M118.272 161.461H93.7109V165.224H118.272V161.461Z" fill="#F7F8FA"/>
</g>
<g opacity="0.57">
<path opacity="0.57" d="M118.272 167.969H93.7109V171.732H118.272V167.969Z" fill="#F7F8FA"/>
</g>
<g opacity="0.57">
<path opacity="0.57" d="M118.272 174.477H93.7109V178.239H118.272V174.477Z" fill="#F7F8FA"/>
</g>
<g opacity="0.64">
<g opacity="0.57">
<path opacity="0.57" d="M305.656 190.285V191.811H320.803C321 191.804 321.188 191.72 321.325 191.578C321.462 191.435 321.539 191.246 321.539 191.048C321.539 190.851 321.462 190.661 321.325 190.519C321.188 190.376 321 190.293 320.803 190.285H305.656Z" fill="#F7F8FA"/>
</g>
<g opacity="0.57">
<path opacity="0.57" d="M305.656 192.926V194.452H320.803C321 194.444 321.188 194.361 321.325 194.218C321.462 194.076 321.539 193.886 321.539 193.689C321.539 193.491 321.462 193.301 321.325 193.159C321.188 193.017 321 192.933 320.803 192.926H305.656Z" fill="#F7F8FA"/>
</g>
<g opacity="0.57">
<path opacity="0.57" d="M305.656 195.564V197.085H320.803C320.954 197.085 321.102 197.04 321.227 196.956C321.353 196.872 321.45 196.753 321.508 196.614C321.566 196.474 321.581 196.321 321.552 196.173C321.522 196.025 321.45 195.889 321.343 195.783C321.272 195.712 321.188 195.656 321.095 195.619C321.002 195.581 320.903 195.562 320.803 195.563L305.656 195.564Z" fill="#F7F8FA"/>
</g>
<g opacity="0.57">
<path opacity="0.57" d="M305.656 198.201V199.725H320.803C321.006 199.725 321.2 199.644 321.343 199.501C321.486 199.358 321.567 199.164 321.567 198.962C321.567 198.759 321.486 198.566 321.343 198.423C321.2 198.28 321.005 198.199 320.803 198.199L305.656 198.201Z" fill="#F7F8FA"/>
</g>
<g opacity="0.57">
<path opacity="0.57" d="M305.656 200.84V202.366H320.803C320.954 202.365 321.102 202.321 321.227 202.237C321.353 202.153 321.45 202.034 321.508 201.894C321.566 201.755 321.581 201.602 321.552 201.454C321.522 201.306 321.45 201.17 321.343 201.063C321.272 200.993 321.188 200.937 321.095 200.899C321.002 200.861 320.903 200.842 320.803 200.843L305.656 200.84Z" fill="#F7F8FA"/>
</g>
<g opacity="0.57">
<path opacity="0.57" d="M305.656 203.344V204.869H320.803C321.005 204.869 321.2 204.788 321.343 204.645C321.486 204.502 321.567 204.308 321.567 204.106C321.567 203.904 321.486 203.71 321.343 203.567C321.2 203.424 321.005 203.344 320.803 203.344H305.656Z" fill="#F7F8FA"/>
</g>
<g opacity="0.57">
<path opacity="0.57" d="M305.656 205.984V207.509H320.803C321.005 207.509 321.2 207.429 321.343 207.286C321.486 207.143 321.567 206.949 321.567 206.747C321.567 206.545 321.486 206.351 321.343 206.208C321.2 206.065 321.005 205.984 320.803 205.984H305.656Z" fill="#F7F8FA"/>
</g>
<g opacity="0.57">
<path opacity="0.57" d="M305.656 208.625V210.15H320.803C321.005 210.15 321.2 210.07 321.343 209.927C321.486 209.784 321.567 209.59 321.567 209.387C321.567 209.185 321.486 208.991 321.343 208.848C321.2 208.705 321.005 208.625 320.803 208.625H305.656Z" fill="#F7F8FA"/>
</g>
<g opacity="0.57">
<path opacity="0.57" d="M305.656 211.262V212.788H320.803C321 212.78 321.188 212.696 321.325 212.554C321.462 212.412 321.539 212.222 321.539 212.025C321.539 211.827 321.462 211.637 321.325 211.495C321.188 211.353 321 211.269 320.803 211.262H305.656Z" fill="#F7F8FA"/>
</g>
<g opacity="0.57">
<path opacity="0.57" d="M305.656 213.898V215.425H320.803C321.006 215.425 321.2 215.345 321.344 215.202C321.487 215.059 321.568 214.864 321.568 214.662C321.568 214.459 321.487 214.265 321.344 214.122C321.2 213.979 321.006 213.898 320.803 213.898H305.656Z" fill="#F7F8FA"/>
</g>
<g opacity="0.57">
<path opacity="0.57" d="M305.656 216.398V217.924H320.803C321.006 217.924 321.2 217.843 321.343 217.7C321.486 217.557 321.567 217.363 321.567 217.161C321.567 216.959 321.486 216.765 321.343 216.622C321.2 216.479 321.005 216.398 320.803 216.398H305.656Z" fill="#F7F8FA"/>
</g>
<g opacity="0.57">
<path opacity="0.57" d="M305.656 219.043V220.569H320.803C320.954 220.569 321.102 220.524 321.227 220.44C321.353 220.356 321.45 220.237 321.508 220.097C321.566 219.958 321.581 219.805 321.552 219.657C321.522 219.509 321.45 219.373 321.343 219.266C321.272 219.196 321.188 219.14 321.095 219.102C321.002 219.065 320.903 219.045 320.803 219.046L305.656 219.043Z" fill="#F7F8FA"/>
</g>
<g opacity="0.57">
<path opacity="0.57" d="M305.656 221.68V223.206H320.803C321.006 223.205 321.2 223.125 321.343 222.982C321.486 222.838 321.567 222.644 321.567 222.442C321.567 222.24 321.486 222.046 321.343 221.903C321.2 221.76 321.005 221.68 320.803 221.68H305.656Z" fill="#F7F8FA"/>
</g>
<g opacity="0.57">
<path opacity="0.57" d="M305.656 224.32V225.847H320.803C321.006 225.847 321.2 225.767 321.344 225.624C321.487 225.48 321.568 225.286 321.568 225.084C321.568 224.881 321.487 224.687 321.344 224.544C321.2 224.401 321.006 224.32 320.803 224.32H305.656Z" fill="#F7F8FA"/>
</g>
<g opacity="0.57">
<path opacity="0.57" d="M305.656 226.957V228.483H320.803C321 228.475 321.188 228.392 321.325 228.25C321.462 228.107 321.539 227.917 321.539 227.72C321.539 227.523 321.462 227.333 321.325 227.19C321.188 227.048 321 226.965 320.803 226.957H305.656Z" fill="#F7F8FA"/>
</g>
</g>
<path d="M211.635 194.579L199.023 194.657V194.297H211.635V194.579Z" fill="#6BB474"/>
<path d="M211.635 195.543L199.023 195.621V194.656L211.635 194.578V195.543Z" fill="#6AB374"/>
<path d="M211.635 196.508L199.023 196.586V195.621L211.635 195.543V196.508Z" fill="#69B274"/>
<path d="M211.635 197.473L199.023 197.551V196.586L211.635 196.508V197.473Z" fill="#68B173"/>
<path d="M211.635 198.437L199.023 198.516V197.551L211.635 197.473V198.437Z" fill="#67B073"/>
<path d="M211.635 199.402L199.023 199.48V198.516L211.635 198.438V199.402Z" fill="#66AF72"/>
<path d="M211.635 200.371L199.023 200.449V199.484L211.635 199.406V200.371Z" fill="#65AE72"/>
<path d="M211.635 201.332L199.023 201.41V200.445L211.635 200.367V201.332Z" fill="#64AD71"/>
<path d="M211.635 202.301L199.023 202.379V201.414L211.635 201.336V202.301Z" fill="#63AC71"/>
<path d="M211.635 203.266L199.023 203.344V202.379L211.635 202.301V203.266Z" fill="#62AB70"/>
<path d="M211.635 204.229L199.023 204.309V203.344L211.635 203.266V204.229Z" fill="#61AA70"/>
<path d="M211.635 205.195L199.023 205.275V204.31L211.635 204.23V205.195Z" fill="#60A96F"/>
<path d="M211.635 206.16L199.023 206.238V205.275L211.635 205.195V206.16Z" fill="#5FA86F"/>
<path d="M211.635 207.125L199.023 207.203V206.238L211.635 206.16V207.125Z" fill="#5EA76F"/>
<path d="M211.635 208.09L199.023 208.168V207.203L211.635 207.125V208.09Z" fill="#5DA66E"/>
<path d="M211.635 209.055L199.023 209.133V208.168L211.635 208.09V209.055Z" fill="#5CA56E"/>
<path d="M211.635 210.02L199.023 210.098V209.133L211.635 209.055V210.02Z" fill="#5BA46D"/>
<path d="M211.635 210.988L199.023 211.066V210.102L211.635 210.023V210.988Z" fill="#5BA26D"/>
<path d="M211.635 211.949L199.023 212.027V211.062L211.635 210.984V211.949Z" fill="#5AA16C"/>
<path d="M211.635 212.918L199.023 212.996V212.031L211.635 211.953V212.918Z" fill="#59A06C"/>
<path d="M211.635 213.879L199.023 213.957V212.992L211.635 212.914V213.879Z" fill="#589F6B"/>
<path d="M211.635 214.848L199.023 214.926V213.961L211.635 213.883V214.848Z" fill="#579E6B"/>
<path d="M211.635 215.812L199.023 215.891V214.926L211.635 214.848V215.812Z" fill="#569D6B"/>
<path d="M211.635 216.777L199.023 216.855V215.891L211.635 215.812V216.777Z" fill="#559C6A"/>
<path d="M211.635 217.738L199.023 217.816V216.852L211.635 216.773V217.738Z" fill="#549B6A"/>
<path d="M211.635 218.707L199.023 218.785V217.82L211.635 217.742V218.707Z" fill="#539A69"/>
<path d="M211.635 219.672L199.023 219.75V218.785L211.635 218.707V219.672Z" fill="#529969"/>
<path d="M211.635 220.637L199.023 220.715V219.75L211.635 219.672V220.637Z" fill="#519868"/>
<path d="M211.635 221.605L199.023 221.684V220.719L211.635 220.641V221.605Z" fill="#509768"/>
<path d="M211.635 222.566L199.023 222.645V221.68L211.635 221.602V222.566Z" fill="#4F9667"/>
<path d="M211.635 223.535L199.023 223.613V222.648L211.635 222.57V223.535Z" fill="#4E9567"/>
<path d="M211.635 224.496L199.023 224.574V223.609L211.635 223.531V224.496Z" fill="#4D9466"/>
<path d="M211.635 225.465L199.023 225.543V224.578L211.635 224.5V225.465Z" fill="#4C9366"/>
<path d="M211.635 226.43L199.023 226.508V225.543L211.635 225.465V226.43Z" fill="#4B9266"/>
<path d="M211.635 227.395L199.023 227.473V226.508L211.635 226.43V227.395Z" fill="#4A9165"/>
<path d="M211.635 228.359L199.023 228.437V227.473L211.635 227.395V228.359Z" fill="#499065"/>
<path d="M211.635 229.324L199.023 229.402V228.437L211.635 228.359V229.324Z" fill="#488F64"/>
<path d="M211.635 230.293L199.023 230.371V229.406L211.635 229.328V230.293Z" fill="#478E64"/>
<path d="M211.635 231.254L199.023 231.332V230.367L211.635 230.289V231.254Z" fill="#468D63"/>
<path d="M211.635 232.223L199.023 232.301V231.336L211.635 231.258V232.223Z" fill="#458C63"/>
<path d="M211.635 233.184L199.023 233.262V232.297L211.635 232.219V233.184Z" fill="#448B62"/>
<path d="M211.635 234.152L199.023 234.23V233.266L211.635 233.188V234.152Z" fill="#438A62"/>
<path d="M199.023 234.227L211.635 234.148V239.452H199.023V234.227Z" fill="#438A62"/>
<path d="M0.149817 221.289H-1.34375V257.627H0.149817V221.289Z" fill="#DD6576"/>
<path d="M1.64203 221.289H0.148438V257.627H1.64203V221.289Z" fill="#DD6475"/>
<path d="M3.14213 221.289H1.64844V257.627H3.14213V221.289Z" fill="#DD6474"/>
<path d="M4.63424 221.289H3.14062V257.627H4.63424V221.289Z" fill="#DD6373"/>
<path d="M6.12638 221.289H4.63281V257.627H6.12638V221.289Z" fill="#DD6372"/>
<path d="M7.61859 221.289H6.125V257.627H7.61859V221.289Z" fill="#DD6271"/>
<path d="M9.11859 221.289H7.625V257.627H9.11859V221.289Z" fill="#DD6270"/>
<path d="M10.6108 221.289H9.11719V257.627H10.6108V221.289Z" fill="#DD616F"/>
<path d="M12.103 221.289H10.6094V257.627H12.103V221.289Z" fill="#DD616E"/>
<path d="M13.6029 221.289H12.1094V257.627H13.6029V221.289Z" fill="#DD606D"/>
<path d="M15.0873 221.289H13.5938V257.627H15.0873V221.289Z" fill="#DD5F6C"/>
<path d="M16.5874 221.289H15.0938V257.627H16.5874V221.289Z" fill="#DD5F6B"/>
<path d="M18.0874 221.289H16.5938V257.627H18.0874V221.289Z" fill="#DC5E6A"/>
<path d="M19.5717 221.289H18.0781V257.627H19.5717V221.289Z" fill="#DC5E69"/>
<path d="M21.0717 221.289H19.5781V257.627H21.0717V221.289Z" fill="#DC5D68"/>
<path d="M22.5717 221.289H21.0781V257.627H22.5717V221.289Z" fill="#DC5D67"/>
<path d="M24.0639 221.289H22.5703V257.627H24.0639V221.289Z" fill="#DC5C66"/>
<path d="M25.5561 221.289H24.0625V257.627H25.5561V221.289Z" fill="#DC5C65"/>
<path d="M27.0483 221.289H25.5547V257.627H27.0483V221.289Z" fill="#DC5B64"/>
<path d="M28.5405 221.289H27.0469V257.627H28.5405V221.289Z" fill="#DC5B63"/>
<path d="M30.0405 221.289H28.5469V257.627H30.0405V221.289Z" fill="#DC5A62"/>
<path d="M31.5327 221.289H30.0391V257.627H31.5327V221.289Z" fill="#DC5961"/>
<path d="M33.0248 221.289H31.5312V257.627H33.0248V221.289Z" fill="#DC5960"/>
<path d="M34.517 221.289H33.0234V257.627H34.517V221.289Z" fill="#DC585F"/>
<path d="M36.017 221.289H34.5234V257.627H36.017V221.289Z" fill="#DB585E"/>
<path d="M37.5092 221.289H36.0156V257.627H37.5092V221.289Z" fill="#DB575D"/>
<path d="M39.0014 221.289H37.5078V257.627H39.0014V221.289Z" fill="#DB575C"/>
<path d="M40.4936 221.289H39V257.627H40.4936V221.289Z" fill="#DB565B"/>
<path d="M41.9858 221.289H40.4922V257.627H41.9858V221.289Z" fill="#DB565A"/>
<path d="M43.4858 221.289H41.9922V257.627H43.4858V221.289Z" fill="#DB5559"/>
<path d="M44.978 221.289H43.4844V257.627H44.978V221.289Z" fill="#DB5558"/>
<path d="M46.4702 221.289H44.9766V257.627H46.4702V221.289Z" fill="#DB5457"/>
<path d="M47.9623 221.289H46.4688V257.627H47.9623V221.289Z" fill="#DB5356"/>
<path d="M49.4623 221.289H47.9688V257.627H49.4623V221.289Z" fill="#DB5355"/>
<path d="M50.9545 221.289H49.4609V257.627H50.9545V221.289Z" fill="#DB5254"/>
<path d="M52.4467 221.289H50.9531V257.627H52.4467V221.289Z" fill="#DB5253"/>
<path d="M53.9389 221.289H52.4453V257.627H53.9389V221.289Z" fill="#DA5152"/>
<path d="M55.4311 221.289H53.9375V257.627H55.4311V221.289Z" fill="#DA5151"/>
<path d="M56.9311 221.289H55.4375V257.627H56.9311V221.289Z" fill="#DA5050"/>
<path d="M58.4233 221.289H56.9297V257.627H58.4233V221.289Z" fill="#DA504F"/>
<path d="M59.9155 221.289H58.4219V257.627H59.9155V221.289Z" fill="#DA4F4E"/>
<path d="M61.4076 221.289H59.9141V257.627H61.4076V221.289Z" fill="#DA4F4D"/>
<path d="M62.9077 221.289H61.4141V257.627H62.9077V221.289Z" fill="#DA4E4C"/>
<path d="M64.3998 221.289H62.9062V257.627H64.3998V221.289Z" fill="#DA4D4B"/>
<path d="M65.892 221.289H64.3984V257.627H65.892V221.289Z" fill="#DA4D4A"/>
<path d="M67.3921 221.289H65.8984V257.627H67.3921V221.289Z" fill="#DA4C49"/>
<path d="M68.8842 221.289H67.3906V257.627H68.8842V221.289Z" fill="#DA4C48"/>
<path d="M70.3764 221.289H68.8828V257.627H70.3764V221.289Z" fill="#DA4B47"/>
<path d="M71.8686 221.289H70.375V257.627H71.8686V221.289Z" fill="#D94B46"/>
<path d="M73.3608 221.289H71.8672V257.627H73.3608V221.289Z" fill="#D94A45"/>
<path d="M74.8529 221.289H73.3594V257.627H74.8529V221.289Z" fill="#D94A44"/>
<path d="M76.3608 221.289H74.8672V257.627H76.3608V221.289Z" fill="#D94943"/>
<path d="M77.853 221.289H76.3594V257.627H77.853V221.289Z" fill="#D94942"/>
<path d="M79.3452 221.289H77.8516V257.627H79.3452V221.289Z" fill="#D94841"/>
<g opacity="0.51">
<path opacity="0.51" d="M219.079 52.5078H218.525C217.143 52.5078 216.023 53.6259 216.023 55.005V78.9195C216.023 80.2986 217.143 81.4167 218.525 81.4167H219.079C220.46 81.4167 221.58 80.2986 221.58 78.9195V55.005C221.58 53.6259 220.46 52.5078 219.079 52.5078Z" fill="#F7F8FA"/>
<path opacity="0.51" d="M219.079 86.3359H218.525C217.143 86.3359 216.023 87.454 216.023 88.8331V112.748C216.023 114.127 217.143 115.245 218.525 115.245H219.079C220.46 115.245 221.58 114.127 221.58 112.748V88.8331C221.58 87.454 220.46 86.3359 219.079 86.3359Z" fill="#F7F8FA"/>
<path opacity="0.51" d="M219.079 120.156H218.525C217.143 120.156 216.023 121.274 216.023 122.653V146.568C216.023 147.947 217.143 149.065 218.525 149.065H219.079C220.46 149.065 221.58 147.947 221.58 146.568V122.653C221.58 121.274 220.46 120.156 219.079 120.156Z" fill="#F7F8FA"/>
<path opacity="0.51" d="M219.079 153.984H218.525C217.143 153.984 216.023 155.102 216.023 156.482V180.396C216.023 181.775 217.143 182.893 218.525 182.893H219.079C220.46 182.893 221.58 181.775 221.58 180.396V156.482C221.58 155.102 220.46 153.984 219.079 153.984Z" fill="#F7F8FA"/>
<path opacity="0.51" d="M227.946 52.5078H227.392C226.01 52.5078 224.891 53.6259 224.891 55.005V78.9195C224.891 80.2986 226.01 81.4167 227.392 81.4167H227.946C229.327 81.4167 230.447 80.2986 230.447 78.9195V55.005C230.447 53.6259 229.327 52.5078 227.946 52.5078Z" fill="#F7F8FA"/>
<path opacity="0.51" d="M227.946 86.3359H227.392C226.01 86.3359 224.891 87.454 224.891 88.8331V112.748C224.891 114.127 226.01 115.245 227.392 115.245H227.946C229.327 115.245 230.447 114.127 230.447 112.748V88.8331C230.447 87.454 229.327 86.3359 227.946 86.3359Z" fill="#F7F8FA"/>
<path opacity="0.51" d="M227.946 120.156H227.392C226.01 120.156 224.891 121.274 224.891 122.653V146.568C224.891 147.947 226.01 149.065 227.392 149.065H227.946C229.327 149.065 230.447 147.947 230.447 146.568V122.653C230.447 121.274 229.327 120.156 227.946 120.156Z" fill="#F7F8FA"/>
<path opacity="0.51" d="M227.946 153.984H227.392C226.01 153.984 224.891 155.102 224.891 156.482V180.396C224.891 181.775 226.01 182.893 227.392 182.893H227.946C229.327 182.893 230.447 181.775 230.447 180.396V156.482C230.447 155.102 229.327 153.984 227.946 153.984Z" fill="#F7F8FA"/>
<path opacity="0.51" d="M236.79 52.5078H236.235C234.854 52.5078 233.734 53.6259 233.734 55.005V78.9195C233.734 80.2986 234.854 81.4167 236.235 81.4167H236.79C238.171 81.4167 239.291 80.2986 239.291 78.9195V55.005C239.291 53.6259 238.171 52.5078 236.79 52.5078Z" fill="#F7F8FA"/>
<path opacity="0.51" d="M236.79 86.3359H236.235C234.854 86.3359 233.734 87.454 233.734 88.8331V112.748C233.734 114.127 234.854 115.245 236.235 115.245H236.79C238.171 115.245 239.291 114.127 239.291 112.748V88.8331C239.291 87.454 238.171 86.3359 236.79 86.3359Z" fill="#F7F8FA"/>
<path opacity="0.51" d="M236.79 120.156H236.235C234.854 120.156 233.734 121.274 233.734 122.653V146.568C233.734 147.947 234.854 149.065 236.235 149.065H236.79C238.171 149.065 239.291 147.947 239.291 146.568V122.653C239.291 121.274 238.171 120.156 236.79 120.156Z" fill="#F7F8FA"/>
<path opacity="0.51" d="M236.79 153.984H236.235C234.854 153.984 233.734 155.102 233.734 156.482V180.396C233.734 181.775 234.854 182.893 236.235 182.893H236.79C238.171 182.893 239.291 181.775 239.291 180.396V156.482C239.291 155.102 238.171 153.984 236.79 153.984Z" fill="#F7F8FA"/>
<path opacity="0.51" d="M246.306 52.5078H245.751C244.37 52.5078 243.25 53.6259 243.25 55.005V78.9195C243.25 80.2986 244.37 81.4167 245.751 81.4167H246.306C247.687 81.4167 248.807 80.2986 248.807 78.9195V55.005C248.807 53.6259 247.687 52.5078 246.306 52.5078Z" fill="#F7F8FA"/>
<path opacity="0.51" d="M246.306 86.3359H245.751C244.37 86.3359 243.25 87.454 243.25 88.8331V112.748C243.25 114.127 244.37 115.245 245.751 115.245H246.306C247.687 115.245 248.807 114.127 248.807 112.748V88.8331C248.807 87.454 247.687 86.3359 246.306 86.3359Z" fill="#F7F8FA"/>
<path opacity="0.51" d="M246.306 120.156H245.751C244.37 120.156 243.25 121.274 243.25 122.653V146.568C243.25 147.947 244.37 149.065 245.751 149.065H246.306C247.687 149.065 248.807 147.947 248.807 146.568V122.653C248.807 121.274 247.687 120.156 246.306 120.156Z" fill="#F7F8FA"/>
<path opacity="0.51" d="M246.306 153.984H245.751C244.37 153.984 243.25 155.102 243.25 156.482V180.396C243.25 181.775 244.37 182.893 245.751 182.893H246.306C247.687 182.893 248.807 181.775 248.807 180.396V156.482C248.807 155.102 247.687 153.984 246.306 153.984Z" fill="#F7F8FA"/>
<path opacity="0.51" d="M255.485 52.5078H254.931C253.549 52.5078 252.43 53.6259 252.43 55.005V78.9195C252.43 80.2986 253.549 81.4167 254.931 81.4167H255.485C256.867 81.4167 257.986 80.2986 257.986 78.9195V55.005C257.986 53.6259 256.867 52.5078 255.485 52.5078Z" fill="#F7F8FA"/>
<path opacity="0.51" d="M255.485 86.3359H254.931C253.549 86.3359 252.43 87.454 252.43 88.8331V112.748C252.43 114.127 253.549 115.245 254.931 115.245H255.485C256.867 115.245 257.986 114.127 257.986 112.748V88.8331C257.986 87.454 256.867 86.3359 255.485 86.3359Z" fill="#F7F8FA"/>
<path opacity="0.51" d="M255.485 120.156H254.931C253.549 120.156 252.43 121.274 252.43 122.653V146.568C252.43 147.947 253.549 149.065 254.931 149.065H255.485C256.867 149.065 257.986 147.947 257.986 146.568V122.653C257.986 121.274 256.867 120.156 255.485 120.156Z" fill="#F7F8FA"/>
<path opacity="0.51" d="M255.485 153.984H254.931C253.549 153.984 252.43 155.102 252.43 156.482V180.396C252.43 181.775 253.549 182.893 254.931 182.893H255.485C256.867 182.893 257.986 181.775 257.986 180.396V156.482C257.986 155.102 256.867 153.984 255.485 153.984Z" fill="#F7F8FA"/>
<path opacity="0.51" d="M264.477 52.5078H263.923C262.542 52.5078 261.422 53.6259 261.422 55.005V78.9195C261.422 80.2986 262.542 81.4167 263.923 81.4167H264.477C265.859 81.4167 266.979 80.2986 266.979 78.9195V55.005C266.979 53.6259 265.859 52.5078 264.477 52.5078Z" fill="#F7F8FA"/>
<path opacity="0.51" d="M264.477 86.3359H263.923C262.542 86.3359 261.422 87.454 261.422 88.8331V112.748C261.422 114.127 262.542 115.245 263.923 115.245H264.477C265.859 115.245 266.979 114.127 266.979 112.748V88.8331C266.979 87.454 265.859 86.3359 264.477 86.3359Z" fill="#F7F8FA"/>
<path opacity="0.51" d="M264.477 120.156H263.923C262.542 120.156 261.422 121.274 261.422 122.653V146.568C261.422 147.947 262.542 149.065 263.923 149.065H264.477C265.859 149.065 266.979 147.947 266.979 146.568V122.653C266.979 121.274 265.859 120.156 264.477 120.156Z" fill="#F7F8FA"/>
<path opacity="0.51" d="M264.477 153.984H263.923C262.542 153.984 261.422 155.102 261.422 156.482V180.396C261.422 181.775 262.542 182.893 263.923 182.893H264.477C265.859 182.893 266.979 181.775 266.979 180.396V156.482C266.979 155.102 265.859 153.984 264.477 153.984Z" fill="#F7F8FA"/>
</g>
<g opacity="0.15">
<path opacity="0.15" d="M219.079 132.266H218.525C217.143 132.266 216.023 133.384 216.023 134.763V158.677C216.023 160.056 217.143 161.174 218.525 161.174H219.079C220.46 161.174 221.58 160.056 221.58 158.677V134.763C221.58 133.384 220.46 132.266 219.079 132.266Z" fill="#F7F8FA"/>
<path opacity="0.15" d="M219.079 166.09H218.525C217.143 166.09 216.023 167.208 216.023 168.587V192.501C216.023 193.881 217.143 194.999 218.525 194.999H219.079C220.46 194.999 221.58 193.881 221.58 192.501V168.587C221.58 167.208 220.46 166.09 219.079 166.09Z" fill="#F7F8FA"/>
<path opacity="0.15" d="M219.079 199.914H218.525C217.143 199.914 216.023 201.032 216.023 202.411V226.326C216.023 227.705 217.143 228.823 218.525 228.823H219.079C220.46 228.823 221.58 227.705 221.58 226.326V202.411C221.58 201.032 220.46 199.914 219.079 199.914Z" fill="#F7F8FA"/>
<path opacity="0.15" d="M219.079 233.742H218.525C217.143 233.742 216.023 234.86 216.023 236.239V260.154C216.023 261.533 217.143 262.651 218.525 262.651H219.079C220.46 262.651 221.58 261.533 221.58 260.154V236.239C221.58 234.86 220.46 233.742 219.079 233.742Z" fill="#F7F8FA"/>
<path opacity="0.15" d="M227.946 132.266H227.392C226.01 132.266 224.891 133.384 224.891 134.763V158.677C224.891 160.056 226.01 161.174 227.392 161.174H227.946C229.327 161.174 230.447 160.056 230.447 158.677V134.763C230.447 133.384 229.327 132.266 227.946 132.266Z" fill="#F7F8FA"/>
<path opacity="0.15" d="M227.946 166.09H227.392C226.01 166.09 224.891 167.208 224.891 168.587V192.501C224.891 193.881 226.01 194.999 227.392 194.999H227.946C229.327 194.999 230.447 193.881 230.447 192.501V168.587C230.447 167.208 229.327 166.09 227.946 166.09Z" fill="#F7F8FA"/>
<path opacity="0.15" d="M227.946 199.914H227.392C226.01 199.914 224.891 201.032 224.891 202.411V226.326C224.891 227.705 226.01 228.823 227.392 228.823H227.946C229.327 228.823 230.447 227.705 230.447 226.326V202.411C230.447 201.032 229.327 199.914 227.946 199.914Z" fill="#F7F8FA"/>
<path opacity="0.15" d="M227.946 233.742H227.392C226.01 233.742 224.891 234.86 224.891 236.239V260.154C224.891 261.533 226.01 262.651 227.392 262.651H227.946C229.327 262.651 230.447 261.533 230.447 260.154V236.239C230.447 234.86 229.327 233.742 227.946 233.742Z" fill="#F7F8FA"/>
<path opacity="0.15" d="M236.79 132.266H236.235C234.854 132.266 233.734 133.384 233.734 134.763V158.677C233.734 160.056 234.854 161.174 236.235 161.174H236.79C238.171 161.174 239.291 160.056 239.291 158.677V134.763C239.291 133.384 238.171 132.266 236.79 132.266Z" fill="#F7F8FA"/>
<path opacity="0.15" d="M236.79 166.09H236.235C234.854 166.09 233.734 167.208 233.734 168.587V192.501C233.734 193.881 234.854 194.999 236.235 194.999H236.79C238.171 194.999 239.291 193.881 239.291 192.501V168.587C239.291 167.208 238.171 166.09 236.79 166.09Z" fill="#F7F8FA"/>
<path opacity="0.15" d="M236.79 199.914H236.235C234.854 199.914 233.734 201.032 233.734 202.411V226.326C233.734 227.705 234.854 228.823 236.235 228.823H236.79C238.171 228.823 239.291 227.705 239.291 226.326V202.411C239.291 201.032 238.171 199.914 236.79 199.914Z" fill="#F7F8FA"/>
<path opacity="0.15" d="M236.79 233.742H236.235C234.854 233.742 233.734 234.86 233.734 236.239V260.154C233.734 261.533 234.854 262.651 236.235 262.651H236.79C238.171 262.651 239.291 261.533 239.291 260.154V236.239C239.291 234.86 238.171 233.742 236.79 233.742Z" fill="#F7F8FA"/>
<path opacity="0.15" d="M246.306 132.266H245.751C244.37 132.266 243.25 133.384 243.25 134.763V158.677C243.25 160.056 244.37 161.174 245.751 161.174H246.306C247.687 161.174 248.807 160.056 248.807 158.677V134.763C248.807 133.384 247.687 132.266 246.306 132.266Z" fill="#F7F8FA"/>
<path opacity="0.15" d="M246.306 166.09H245.751C244.37 166.09 243.25 167.208 243.25 168.587V192.501C243.25 193.881 244.37 194.999 245.751 194.999H246.306C247.687 194.999 248.807 193.881 248.807 192.501V168.587C248.807 167.208 247.687 166.09 246.306 166.09Z" fill="#F7F8FA"/>
<path opacity="0.15" d="M246.306 199.914H245.751C244.37 199.914 243.25 201.032 243.25 202.411V226.326C243.25 227.705 244.37 228.823 245.751 228.823H246.306C247.687 228.823 248.807 227.705 248.807 226.326V202.411C248.807 201.032 247.687 199.914 246.306 199.914Z" fill="#F7F8FA"/>
<path opacity="0.15" d="M246.306 233.742H245.751C244.37 233.742 243.25 234.86 243.25 236.239V260.154C243.25 261.533 244.37 262.651 245.751 262.651H246.306C247.687 262.651 248.807 261.533 248.807 260.154V236.239C248.807 234.86 247.687 233.742 246.306 233.742Z" fill="#F7F8FA"/>
<path opacity="0.15" d="M255.485 132.266H254.931C253.549 132.266 252.43 133.384 252.43 134.763V158.677C252.43 160.056 253.549 161.174 254.931 161.174H255.485C256.867 161.174 257.986 160.056 257.986 158.677V134.763C257.986 133.384 256.867 132.266 255.485 132.266Z" fill="#F7F8FA"/>
<path opacity="0.15" d="M255.485 166.09H254.931C253.549 166.09 252.43 167.208 252.43 168.587V192.501C252.43 193.881 253.549 194.999 254.931 194.999H255.485C256.867 194.999 257.986 193.881 257.986 192.501V168.587C257.986 167.208 256.867 166.09 255.485 166.09Z" fill="#F7F8FA"/>
<path opacity="0.15" d="M255.485 199.914H254.931C253.549 199.914 252.43 201.032 252.43 202.411V226.326C252.43 227.705 253.549 228.823 254.931 228.823H255.485C256.867 228.823 257.986 227.705 257.986 226.326V202.411C257.986 201.032 256.867 199.914 255.485 199.914Z" fill="#F7F8FA"/>
<path opacity="0.15" d="M255.485 233.742H254.931C253.549 233.742 252.43 234.86 252.43 236.239V260.154C252.43 261.533 253.549 262.651 254.931 262.651H255.485C256.867 262.651 257.986 261.533 257.986 260.154V236.239C257.986 234.86 256.867 233.742 255.485 233.742Z" fill="#F7F8FA"/>
<path opacity="0.15" d="M264.477 132.266H263.923C262.542 132.266 261.422 133.384 261.422 134.763V158.677C261.422 160.056 262.542 161.174 263.923 161.174H264.477C265.859 161.174 266.979 160.056 266.979 158.677V134.763C266.979 133.384 265.859 132.266 264.477 132.266Z" fill="#F7F8FA"/>
<path opacity="0.15" d="M264.477 166.09H263.923C262.542 166.09 261.422 167.208 261.422 168.587V192.501C261.422 193.881 262.542 194.999 263.923 194.999H264.477C265.859 194.999 266.979 193.881 266.979 192.501V168.587C266.979 167.208 265.859 166.09 264.477 166.09Z" fill="#F7F8FA"/>
<path opacity="0.15" d="M264.477 199.914H263.923C262.542 199.914 261.422 201.032 261.422 202.411V226.326C261.422 227.705 262.542 228.823 263.923 228.823H264.477C265.859 228.823 266.979 227.705 266.979 226.326V202.411C266.979 201.032 265.859 199.914 264.477 199.914Z" fill="#F7F8FA"/>
<path opacity="0.15" d="M264.477 233.742H263.923C262.542 233.742 261.422 234.86 261.422 236.239V260.154C261.422 261.533 262.542 262.651 263.923 262.651H264.477C265.859 262.651 266.979 261.533 266.979 260.154V236.239C266.979 234.86 265.859 233.742 264.477 233.742Z" fill="#F7F8FA"/>
</g>
<path d="M31.3787 190.074H62.5669V197.458H25.9764C25.7133 197.458 25.461 197.354 25.2749 197.168C25.0889 196.982 24.9844 196.73 24.9844 196.467C24.9844 194.774 25.6579 193.151 26.8569 191.954C28.0559 190.757 29.682 190.084 31.3777 190.084L31.3787 190.074Z" fill="#F7F8FA"/>
<path d="M64.9599 197.457H102.547V190.073H64.9599V197.457Z" fill="#F7F8FA"/>
<path d="M105.132 197.258H142.719V189.874H105.132V197.258Z" fill="#F7F8FA"/>
<path d="M341.215 201.258H337.174C336.444 201.258 335.852 201.849 335.852 202.579V208.064C335.852 208.793 336.444 209.384 337.174 209.384H341.215C341.946 209.384 342.538 208.793 342.538 208.064V202.579C342.538 201.849 341.946 201.258 341.215 201.258Z" fill="#F7F8FA"/>
<path d="M341.215 212.281H337.174C336.444 212.281 335.852 212.873 335.852 213.602V219.087C335.852 219.817 336.444 220.408 337.174 220.408H341.215C341.946 220.408 342.538 219.817 342.538 219.087V213.602C342.538 212.873 341.946 212.281 341.215 212.281Z" fill="#F7F8FA"/>
<path d="M341.215 223.301H337.174C336.444 223.301 335.852 223.892 335.852 224.621V230.107C335.852 230.836 336.444 231.427 337.174 231.427H341.215C341.946 231.427 342.538 230.836 342.538 230.107V224.621C342.538 223.892 341.946 223.301 341.215 223.301Z" fill="#F7F8FA"/>
<path d="M350.528 201.258H346.487C345.756 201.258 345.164 201.849 345.164 202.579V208.064C345.164 208.793 345.756 209.384 346.487 209.384H350.528C351.258 209.384 351.851 208.793 351.851 208.064V202.579C351.851 201.849 351.258 201.258 350.528 201.258Z" fill="#F7F8FA"/>
<path d="M350.528 212.281H346.487C345.756 212.281 345.164 212.873 345.164 213.602V219.087C345.164 219.817 345.756 220.408 346.487 220.408H350.528C351.258 220.408 351.851 219.817 351.851 219.087V213.602C351.851 212.873 351.258 212.281 350.528 212.281Z" fill="#F7F8FA"/>
<path d="M350.528 223.301H346.487C345.756 223.301 345.164 223.892 345.164 224.621V230.107C345.164 230.836 345.756 231.427 346.487 231.427H350.528C351.258 231.427 351.851 230.836 351.851 230.107V224.621C351.851 223.892 351.258 223.301 350.528 223.301Z" fill="#F7F8FA"/>
<path d="M360.09 201.258H356.049C355.319 201.258 354.727 201.849 354.727 202.579V208.064C354.727 208.793 355.319 209.384 356.049 209.384H360.09C360.821 209.384 361.413 208.793 361.413 208.064V202.579C361.413 201.849 360.821 201.258 360.09 201.258Z" fill="#F7F8FA"/>
<path d="M360.09 212.281H356.049C355.319 212.281 354.727 212.873 354.727 213.602V219.087C354.727 219.817 355.319 220.408 356.049 220.408H360.09C360.821 220.408 361.413 219.817 361.413 219.087V213.602C361.413 212.873 360.821 212.281 360.09 212.281Z" fill="#F7F8FA"/>
<path d="M360.09 223.301H356.049C355.319 223.301 354.727 223.892 354.727 224.621V230.107C354.727 230.836 355.319 231.427 356.049 231.427H360.09C360.821 231.427 361.413 230.836 361.413 230.107V224.621C361.413 223.892 360.821 223.301 360.09 223.301Z" fill="#F7F8FA"/>
<path d="M369.668 201.258H365.627C364.897 201.258 364.305 201.849 364.305 202.579V208.064C364.305 208.793 364.897 209.384 365.627 209.384H369.668C370.399 209.384 370.991 208.793 370.991 208.064V202.579C370.991 201.849 370.399 201.258 369.668 201.258Z" fill="#F7F8FA"/>
<path d="M369.668 212.281H365.627C364.897 212.281 364.305 212.873 364.305 213.602V219.087C364.305 219.817 364.897 220.408 365.627 220.408H369.668C370.399 220.408 370.991 219.817 370.991 219.087V213.602C370.991 212.873 370.399 212.281 369.668 212.281Z" fill="#F7F8FA"/>
<path d="M369.668 223.301H365.627C364.897 223.301 364.305 223.892 364.305 224.621V230.107C364.305 230.836 364.897 231.427 365.627 231.427H369.668C370.399 231.427 370.991 230.836 370.991 230.107V224.621C370.991 223.892 370.399 223.301 369.668 223.301Z" fill="#F7F8FA"/>
<g opacity="0.26">
<path opacity="0.26" d="M55.9657 226.789H54.3166C53.7103 226.789 53.2188 227.28 53.2188 227.885V235.427C53.2188 236.033 53.7103 236.524 54.3166 236.524H55.9657C56.572 236.524 57.0635 236.033 57.0635 235.427V227.885C57.0635 227.28 56.572 226.789 55.9657 226.789Z" fill="#F7F8FA"/>
<path opacity="0.26" d="M55.9657 239.992H54.3166C53.7103 239.992 53.2188 240.483 53.2188 241.088V248.631C53.2188 249.236 53.7103 249.727 54.3166 249.727H55.9657C56.572 249.727 57.0635 249.236 57.0635 248.631V241.088C57.0635 240.483 56.572 239.992 55.9657 239.992Z" fill="#F7F8FA"/>
<path opacity="0.26" d="M61.3172 226.789H59.6682C59.0618 226.789 58.5703 227.28 58.5703 227.885V235.427C58.5703 236.033 59.0618 236.524 59.6682 236.524H61.3172C61.9236 236.524 62.4151 236.033 62.4151 235.427V227.885C62.4151 227.28 61.9236 226.789 61.3172 226.789Z" fill="#F7F8FA"/>
<path opacity="0.26" d="M61.3172 239.992H59.6682C59.0618 239.992 58.5703 240.483 58.5703 241.088V248.631C58.5703 249.236 59.0618 249.727 59.6682 249.727H61.3172C61.9236 249.727 62.4151 249.236 62.4151 248.631V241.088C62.4151 240.483 61.9236 239.992 61.3172 239.992Z" fill="#F7F8FA"/>
<path opacity="0.26" d="M66.8172 226.789H65.1682C64.5618 226.789 64.0703 227.28 64.0703 227.885V235.427C64.0703 236.033 64.5618 236.524 65.1682 236.524H66.8172C67.4235 236.524 67.9151 236.033 67.9151 235.427V227.885C67.9151 227.28 67.4235 226.789 66.8172 226.789Z" fill="#F7F8FA"/>
<path opacity="0.26" d="M66.8172 239.992H65.1682C64.5618 239.992 64.0703 240.483 64.0703 241.088V248.631C64.0703 249.236 64.5618 249.727 65.1682 249.727H66.8172C67.4235 249.727 67.9151 249.236 67.9151 248.631V241.088C67.9151 240.483 67.4235 239.992 66.8172 239.992Z" fill="#F7F8FA"/>
<path opacity="0.26" d="M72.3172 226.789H70.6682C70.0619 226.789 69.5703 227.28 69.5703 227.885V235.427C69.5703 236.033 70.0619 236.524 70.6682 236.524H72.3172C72.9236 236.524 73.4151 236.033 73.4151 235.427V227.885C73.4151 227.28 72.9236 226.789 72.3172 226.789Z" fill="#F7F8FA"/>
<path opacity="0.26" d="M72.3172 239.992H70.6682C70.0619 239.992 69.5703 240.483 69.5703 241.088V248.631C69.5703 249.236 70.0619 249.727 70.6682 249.727H72.3172C72.9236 249.727 73.4151 249.236 73.4151 248.631V241.088C73.4151 240.483 72.9236 239.992 72.3172 239.992Z" fill="#F7F8FA"/>
</g>
<g opacity="0.26">
<path opacity="0.26" d="M25.4813 226.789H23.8322C23.2259 226.789 22.7344 227.28 22.7344 227.885V235.427C22.7344 236.033 23.2259 236.524 23.8322 236.524H25.4813C26.0876 236.524 26.5792 236.033 26.5792 235.427V227.885C26.5792 227.28 26.0876 226.789 25.4813 226.789Z" fill="#F7F8FA"/>
<path opacity="0.26" d="M25.4813 239.992H23.8322C23.2259 239.992 22.7344 240.483 22.7344 241.088V248.631C22.7344 249.236 23.2259 249.727 23.8322 249.727H25.4813C26.0876 249.727 26.5792 249.236 26.5792 248.631V241.088C26.5792 240.483 26.0876 239.992 25.4813 239.992Z" fill="#F7F8FA"/>
<path opacity="0.26" d="M30.8328 226.789H29.1838C28.5775 226.789 28.0859 227.28 28.0859 227.885V235.427C28.0859 236.033 28.5775 236.524 29.1838 236.524H30.8328C31.4392 236.524 31.9307 236.033 31.9307 235.427V227.885C31.9307 227.28 31.4392 226.789 30.8328 226.789Z" fill="#F7F8FA"/>
<path opacity="0.26" d="M30.8328 239.992H29.1838C28.5775 239.992 28.0859 240.483 28.0859 241.088V248.631C28.0859 249.236 28.5775 249.727 29.1838 249.727H30.8328C31.4392 249.727 31.9307 249.236 31.9307 248.631V241.088C31.9307 240.483 31.4392 239.992 30.8328 239.992Z" fill="#F7F8FA"/>
<path opacity="0.26" d="M36.3329 226.789H34.6838C34.0775 226.789 33.5859 227.28 33.5859 227.885V235.427C33.5859 236.033 34.0775 236.524 34.6838 236.524H36.3329C36.9392 236.524 37.4307 236.033 37.4307 235.427V227.885C37.4307 227.28 36.9392 226.789 36.3329 226.789Z" fill="#F7F8FA"/>
<path opacity="0.26" d="M36.3329 239.992H34.6838C34.0775 239.992 33.5859 240.483 33.5859 241.088V248.631C33.5859 249.236 34.0775 249.727 34.6838 249.727H36.3329C36.9392 249.727 37.4307 249.236 37.4307 248.631V241.088C37.4307 240.483 36.9392 239.992 36.3329 239.992Z" fill="#F7F8FA"/>
<path opacity="0.26" d="M41.8406 226.789H40.1916C39.5853 226.789 39.0938 227.28 39.0938 227.885V235.427C39.0938 236.033 39.5853 236.524 40.1916 236.524H41.8406C42.447 236.524 42.9385 236.033 42.9385 235.427V227.885C42.9385 227.28 42.447 226.789 41.8406 226.789Z" fill="#F7F8FA"/>
<path opacity="0.26" d="M41.8406 239.992H40.1916C39.5853 239.992 39.0938 240.483 39.0938 241.088V248.631C39.0938 249.236 39.5853 249.727 40.1916 249.727H41.8406C42.447 249.727 42.9385 249.236 42.9385 248.631V241.088C42.9385 240.483 42.447 239.992 41.8406 239.992Z" fill="#F7F8FA"/>
</g>
<g opacity="0.26">
<path opacity="0.26" d="M-0.3859 226.789H-2.03494C-2.64128 226.789 -3.13281 227.28 -3.13281 227.885V235.427C-3.13281 236.033 -2.64128 236.524 -2.03494 236.524H-0.3859C0.220443 236.524 0.711976 236.033 0.711976 235.427V227.885C0.711976 227.28 0.220443 226.789 -0.3859 226.789Z" fill="#F7F8FA"/>
<path opacity="0.26" d="M-0.3859 239.992H-2.03494C-2.64128 239.992 -3.13281 240.483 -3.13281 241.088V248.631C-3.13281 249.236 -2.64128 249.727 -2.03494 249.727H-0.3859C0.220443 249.727 0.711976 249.236 0.711976 248.631V241.088C0.711976 240.483 0.220443 239.992 -0.3859 239.992Z" fill="#F7F8FA"/>
<path opacity="0.26" d="M5.1219 226.789H3.47288C2.86653 226.789 2.375 227.28 2.375 227.885V235.427C2.375 236.033 2.86653 236.524 3.47288 236.524H5.1219C5.72824 236.524 6.21979 236.033 6.21979 235.427V227.885C6.21979 227.28 5.72824 226.789 5.1219 226.789Z" fill="#F7F8FA"/>
<path opacity="0.26" d="M5.1219 239.992H3.47288C2.86653 239.992 2.375 240.483 2.375 241.088V248.631C2.375 249.236 2.86653 249.727 3.47288 249.727H5.1219C5.72824 249.727 6.21979 249.236 6.21979 248.631V241.088C6.21979 240.483 5.72824 239.992 5.1219 239.992Z" fill="#F7F8FA"/>
<path opacity="0.26" d="M10.6219 226.789H8.97289C8.36655 226.789 7.875 227.28 7.875 227.885V235.427C7.875 236.033 8.36655 236.524 8.97289 236.524H10.6219C11.2283 236.524 11.7198 236.033 11.7198 235.427V227.885C11.7198 227.28 11.2283 226.789 10.6219 226.789Z" fill="#F7F8FA"/>
<path opacity="0.26" d="M10.6219 239.992H8.97289C8.36655 239.992 7.875 240.483 7.875 241.088V248.631C7.875 249.236 8.36655 249.727 8.97289 249.727H10.6219C11.2283 249.727 11.7198 249.236 11.7198 248.631V241.088C11.7198 240.483 11.2283 239.992 10.6219 239.992Z" fill="#F7F8FA"/>
</g>
<path d="M122.549 221.281H89.6487C88.9194 221.281 88.3281 221.871 88.3281 222.599C88.3281 223.327 88.9194 223.917 89.6487 223.917H122.549C123.278 223.917 123.869 223.327 123.869 222.599C123.869 221.871 123.278 221.281 122.549 221.281Z" fill="#2448B1"/>
<path d="M132.672 221.281H130.492C129.763 221.281 129.172 221.871 129.172 222.599C129.172 223.327 129.763 223.917 130.492 223.917H132.672C133.401 223.917 133.992 223.327 133.992 222.599C133.992 221.871 133.401 221.281 132.672 221.281Z" fill="#2448B1"/>
<path d="M96.7889 212.664H94.6096C93.8803 212.664 93.2891 213.254 93.2891 213.982C93.2891 214.71 93.8803 215.3 94.6096 215.3H96.7889C97.5182 215.3 98.1095 214.71 98.1095 213.982C98.1095 213.254 97.5182 212.664 96.7889 212.664Z" fill="#2448B1"/>
<path d="M133.705 217.133H100.805C100.076 217.133 99.4844 217.723 99.4844 218.451C99.4844 219.179 100.076 219.769 100.805 219.769H133.705C134.434 219.769 135.025 219.179 135.025 218.451C135.025 217.723 134.434 217.133 133.705 217.133Z" fill="#2448B1"/>
<path d="M140.314 225.422H107.414C106.685 225.422 106.094 226.012 106.094 226.74C106.094 227.468 106.685 228.058 107.414 228.058H140.314C141.044 228.058 141.635 227.468 141.635 226.74C141.635 226.012 141.044 225.422 140.314 225.422Z" fill="#2448B1"/>
<path d="M95.8524 230.395H90.7268C89.9975 230.395 89.4062 230.985 89.4062 231.713C89.4062 232.44 89.9975 233.031 90.7268 233.031H95.8524C96.5818 233.031 97.173 232.44 97.173 231.713C97.173 230.985 96.5818 230.395 95.8524 230.395Z" fill="#2448B1"/>
<path d="M110.847 230.395H102.602C101.872 230.395 101.281 230.985 101.281 231.713C101.281 232.44 101.872 233.031 102.602 233.031H110.847C111.576 233.031 112.167 232.44 112.167 231.713C112.167 230.985 111.576 230.395 110.847 230.395Z" fill="#2448B1"/>
<path d="M142.728 206.578H109.828C109.099 206.578 108.508 207.168 108.508 207.896C108.508 208.624 109.099 209.214 109.828 209.214H142.728C143.458 209.214 144.049 208.624 144.049 207.896C144.049 207.168 143.458 206.578 142.728 206.578Z" fill="#2448B1"/>
<g opacity="0.8">
<path opacity="0.8" d="M178.211 247.039V218.316C178.211 217.68 177.694 217.164 177.057 217.164H177.056C176.418 217.164 175.902 217.68 175.902 218.316V247.039C175.902 247.676 176.418 248.192 177.056 248.192H177.057C177.694 248.192 178.211 247.676 178.211 247.039Z" fill="#F7F8FA"/>
<path opacity="0.8" d="M181.844 256.781V228.059C181.844 227.422 181.327 226.906 180.69 226.906H180.689C180.051 226.906 179.535 227.422 179.535 228.059V256.781C179.535 257.418 180.051 257.934 180.689 257.934H180.69C181.327 257.934 181.844 257.418 181.844 256.781Z" fill="#F7F8FA"/>
<path opacity="0.8" d="M174.594 262.551V233.828C174.594 233.192 174.077 232.676 173.44 232.676H173.439C172.801 232.676 172.285 233.192 172.285 233.828V262.551C172.285 263.187 172.801 263.703 173.439 263.703H173.44C174.077 263.703 174.594 263.187 174.594 262.551Z" fill="#F7F8FA"/>
<path opacity="0.8" d="M191.086 264.656V235.934C191.086 235.297 190.569 234.781 189.932 234.781H189.931C189.293 234.781 188.777 235.297 188.777 235.934V264.656C188.777 265.293 189.293 265.809 189.931 265.809H189.932C190.569 265.809 191.086 265.293 191.086 264.656Z" fill="#F7F8FA"/>
</g>
<g opacity="0.48">
<path opacity="0.48" d="M145.411 169.604C136.58 176.049 127.575 182.278 118.139 187.823C109.278 193.03 100.091 197.659 90.9123 202.283C79.949 207.807 68.8996 213.154 57.6562 218.047C57.7517 218.244 57.8196 218.453 57.858 218.668C66.4349 214.948 74.8972 210.953 83.2481 206.771C93.1114 201.838 103.017 196.949 112.662 191.599C121.471 186.713 129.941 181.28 138.179 175.487C140.703 173.713 143.209 171.915 145.698 170.094C145.99 169.882 145.707 169.389 145.411 169.604Z" fill="#F7F8FA"/>
<path opacity="0.48" d="M210.744 111.265C209.238 112.578 207.74 113.898 206.249 115.227C204.783 116.533 203.323 117.847 201.871 119.168C201.062 119.902 200.258 120.636 199.457 121.369C199.187 121.617 199.589 122.018 199.858 121.771C201.289 120.458 202.725 119.152 204.168 117.852C205.638 116.527 207.115 115.209 208.599 113.898C209.446 113.149 210.294 112.404 211.145 111.661C211.198 111.608 211.228 111.536 211.228 111.461C211.228 111.386 211.198 111.314 211.145 111.261C211.092 111.209 211.02 111.18 210.945 111.18C210.87 111.18 210.798 111.209 210.744 111.261V111.265Z" fill="#F7F8FA"/>
<path opacity="0.48" d="M-97.4603 1.10092C-70.7849 12.3862 -41.8387 17.5909 -15.8203 30.5403C-6.61839 35.1198 2.28481 40.3849 10.6346 46.3776C18.9084 52.3141 27.2329 59.1509 32.8358 67.7618C37.3552 74.6954 39.4496 83.1413 34.5554 90.4722C31.2805 95.3775 26.5374 100.205 21.598 103.468C19.2005 105.053 15.7206 106.945 12.7676 105.769C7.69153 103.748 10.143 96.3713 12.9472 93.5714C16.6576 89.868 23.0266 88.993 27.9902 88.6882C35.1187 88.2479 42.2406 89.3661 49.2511 90.5261C79.1232 95.4699 106.842 108.209 135.519 117.415C163.618 126.44 192.814 133.222 222.514 132.096C244.279 131.271 265.945 126.562 285.993 118.023C301.034 111.616 315.915 103.003 327.277 91.0874C332.818 85.2764 340.94 75.2941 337.286 66.5919C335.743 62.9226 332.195 60.7434 328.546 59.5482C322.263 57.4802 315.286 57.6299 308.781 58.1934C303.304 58.6501 297.874 59.5567 292.546 60.9041C292.192 60.9943 292.342 61.5424 292.697 61.4544C301.893 59.0958 311.933 57.7366 321.442 58.7029C326.248 59.1916 331.825 60.4055 335.144 64.2267C341.876 71.9759 333.481 83.4131 328.185 89.2847C316.991 101.688 301.813 110.565 286.602 117.149C265.768 126.174 243.102 130.998 220.415 131.596C189.693 132.406 159.601 124.812 130.648 115.231C116.012 110.388 101.625 104.867 87.063 99.8227C72.7332 94.8547 58.2613 91.138 43.2326 89.0205C36.6288 88.0906 29.8442 87.5105 23.2316 88.6783C19.3339 89.3661 14.9534 90.514 12.1856 93.5505C9.58086 96.412 7.8194 101.866 10.8099 105.107C15.1562 109.807 22.9351 103.513 26.1946 100.582C32.784 94.6555 39.422 87.3752 37.7498 77.8937C36.2408 69.3697 29.8696 62.1555 23.7905 56.3917C16.0381 49.0344 7.12936 42.8953 -2.02846 37.4343C-12.1089 31.4267 -22.7105 26.3373 -33.7049 22.2276C-47.65 17.0065 -62.0161 13.0389 -76.1519 8.38234C-83.2507 6.04471 -90.2888 3.52329 -97.1737 0.611165C-97.5044 0.470291 -97.7965 0.958947 -97.4603 1.10092Z" fill="#EBEEF2"/>
<path opacity="0.48" d="M-97.4603 1.10092C-70.7849 12.3862 -41.8387 17.5909 -15.8203 30.5403C-6.61839 35.1198 2.28481 40.3849 10.6346 46.3776C18.9084 52.3141 27.2329 59.1509 32.8358 67.7618C37.3552 74.6954 39.4496 83.1413 34.5554 90.4722C31.2805 95.3775 26.5374 100.205 21.598 103.468C19.2005 105.053 15.7206 106.945 12.7676 105.769C7.69153 103.748 10.143 96.3713 12.9472 93.5714C16.6576 89.868 23.0266 88.993 27.9902 88.6882C35.1187 88.2479 42.2406 89.3661 49.2511 90.5261C79.1232 95.4699 106.842 108.209 135.519 117.415C163.618 126.44 192.814 133.222 222.514 132.096C244.279 131.271 265.945 126.562 285.993 118.023C301.034 111.616 315.915 103.003 327.277 91.0874C332.818 85.2764 340.94 75.2941 337.286 66.5919C335.743 62.9226 332.195 60.7434 328.546 59.5482C322.263 57.4802 315.286 57.6299 308.781 58.1934C303.304 58.6501 297.874 59.5567 292.546 60.9041C292.192 60.9943 292.342 61.5424 292.697 61.4544C301.893 59.0958 311.933 57.7366 321.442 58.7029C326.248 59.1916 331.825 60.4055 335.144 64.2267C341.876 71.9759 333.481 83.4131 328.185 89.2847C316.991 101.688 301.813 110.565 286.602 117.149C265.768 126.174 243.102 130.998 220.415 131.596C189.693 132.406 159.601 124.812 130.648 115.231C116.012 110.388 101.625 104.867 87.063 99.8227C72.7332 94.8547 58.2613 91.138 43.2326 89.0205C36.6288 88.0906 29.8442 87.5105 23.2316 88.6783C19.3339 89.3661 14.9534 90.514 12.1856 93.5505C9.58086 96.412 7.8194 101.866 10.8099 105.107C15.1562 109.807 22.9351 103.513 26.1946 100.582C32.784 94.6555 39.422 87.3752 37.7498 77.8937C36.2408 69.3697 29.8696 62.1555 23.7905 56.3917C16.0381 49.0344 7.12936 42.8953 -2.02846 37.4343C-12.1089 31.4267 -22.7105 26.3373 -33.7049 22.2276C-47.65 17.0065 -62.0161 13.0389 -76.1519 8.38234C-83.2507 6.04471 -90.2888 3.52329 -97.1737 0.611165C-97.5044 0.470291 -97.7965 0.958947 -97.4603 1.10092Z" fill="#EBEEF2"/>
</g>
</svg>
