<svg width="20" height="20" viewBox="0 0 20 20" fill="none" xmlns="http://www.w3.org/2000/svg">
<path d="M10 17.5C14.125 17.5 17.5 14.125 17.5 10C17.5 5.875 14.125 2.5 10 2.5C5.875 2.5 2.5 5.875 2.5 10C2.5 14.125 5.875 17.5 10 17.5Z" stroke="#A5ADC5" stroke-width="1.5" stroke-linecap="round" stroke-linejoin="round"/>
<path d="M10 14.1654C9.56432 14.1654 9.22199 13.8312 9.22199 13.4283C9.22199 13.0254 9.56432 12.6913 10 12.6913C10.4357 12.6913 10.778 13.0254 10.778 13.4283C10.778 13.8312 10.4357 14.1654 10 14.1654ZM11.3071 10.0871C10.9025 10.3426 10.778 10.5097 10.778 10.7849V10.9912C10.778 11.3941 10.4253 11.7283 10 11.7283C9.57469 11.7283 9.22199 11.3941 9.22199 10.9912V10.7849C9.22199 9.64492 10.1037 9.08478 10.4357 8.86859C10.8195 8.62291 10.944 8.45585 10.944 8.20035C10.944 7.709 10.5187 7.30609 10 7.30609C9.48133 7.30609 9.05602 7.709 9.05602 8.20035C9.05602 8.60326 8.70332 8.93738 8.27801 8.93738C7.8527 8.93738 7.5 8.60326 7.5 8.20035C7.5 6.89335 8.62033 5.83203 10 5.83203C11.3797 5.83203 12.5 6.89335 12.5 8.20035C12.5 9.32063 11.6286 9.88077 11.3071 10.0871Z" fill="#A5ADC5"/>
</svg>
