<svg width="987" height="656" viewBox="0 0 987 656" fill="none" xmlns="http://www.w3.org/2000/svg">
<path d="M687.216 496.344H671.836V615.162H687.216V496.344Z" fill="#0D318C"/>
<path d="M560.771 496.344H471.224C449.424 496.344 431.75 514.009 431.75 535.802V544.571H532.298C539.056 544.571 545.537 547.254 550.316 552.031C555.095 556.807 557.779 563.285 557.779 570.04V615.162H687.207V496.344H560.771Z" fill="#4A86F7"/>
<path d="M628.543 414.712C627.37 414.711 626.244 414.244 625.415 413.415C624.585 412.586 624.118 411.461 624.117 410.288V337.832C624.118 336.659 624.584 335.534 625.414 334.704C626.244 333.874 627.369 333.407 628.543 333.406C629.717 333.408 630.842 333.875 631.671 334.705C632.501 335.534 632.968 336.659 632.969 337.832V410.288C632.968 411.461 632.501 412.586 631.671 413.415C630.842 414.244 629.717 414.711 628.543 414.712ZM628.543 334.253C627.594 334.255 626.684 334.632 626.014 335.303C625.343 335.974 624.965 336.884 624.964 337.832V410.288C624.964 410.758 625.057 411.223 625.237 411.657C625.417 412.091 625.68 412.485 626.012 412.818C626.345 413.15 626.739 413.413 627.174 413.593C627.608 413.773 628.073 413.865 628.543 413.865C629.013 413.865 629.478 413.773 629.913 413.593C630.347 413.413 630.741 413.15 631.074 412.818C631.406 412.485 631.67 412.091 631.849 411.657C632.029 411.223 632.122 410.758 632.122 410.288V337.832C632.121 336.884 631.743 335.974 631.073 335.303C630.402 334.632 629.492 334.255 628.543 334.253Z" fill="#57B6F0"/>
<path d="M628.543 314.396C627.37 314.394 626.244 313.928 625.415 313.099C624.585 312.269 624.118 311.145 624.117 309.972V237.514C624.118 236.341 624.585 235.216 625.415 234.387C626.244 233.557 627.37 233.091 628.543 233.09C629.716 233.092 630.841 233.558 631.671 234.387C632.5 235.217 632.967 236.341 632.969 237.514V309.972C632.968 311.145 632.501 312.269 631.671 313.099C630.842 313.928 629.717 314.394 628.543 314.396ZM628.543 233.936C627.594 233.938 626.685 234.315 626.014 234.985C625.343 235.656 624.965 236.565 624.964 237.514V309.972C624.964 310.921 625.341 311.83 626.012 312.501C626.684 313.172 627.594 313.549 628.543 313.549C629.492 313.549 630.402 313.172 631.074 312.501C631.745 311.83 632.122 310.921 632.122 309.972V237.514C632.121 236.565 631.743 235.656 631.072 234.985C630.401 234.315 629.492 233.938 628.543 233.936Z" fill="#57B6F0"/>
<path d="M632.567 324.657C632.567 322.447 630.775 320.656 628.565 320.656C626.354 320.656 624.562 322.447 624.562 324.657C624.562 326.866 626.354 328.657 628.565 328.657C630.775 328.657 632.567 326.866 632.567 324.657Z" fill="#F7F8FA"/>
<path d="M887.624 177.554C886.294 177.554 884.993 177.16 883.887 176.421C882.781 175.682 881.919 174.632 881.41 173.404C880.901 172.175 880.768 170.824 881.028 169.52C881.287 168.215 881.928 167.018 882.869 166.078C883.81 165.138 885.008 164.497 886.313 164.238C887.618 163.979 888.97 164.113 890.199 164.622C891.428 165.131 892.478 165.993 893.217 167.099C893.956 168.204 894.35 169.504 894.349 170.834C894.348 172.616 893.639 174.325 892.378 175.585C891.117 176.845 889.407 177.553 887.624 177.554ZM887.624 164.958C886.461 164.958 885.325 165.303 884.358 165.948C883.391 166.594 882.638 167.512 882.193 168.585C881.748 169.659 881.632 170.84 881.858 171.98C882.085 173.12 882.645 174.167 883.467 174.989C884.289 175.81 885.337 176.37 886.477 176.597C887.617 176.823 888.799 176.707 889.873 176.262C890.948 175.818 891.866 175.065 892.512 174.098C893.158 173.132 893.502 171.996 893.502 170.834C893.501 169.276 892.881 167.783 891.779 166.681C890.677 165.579 889.182 164.96 887.624 164.958Z" fill="#F7F8FA"/>
<path d="M887.624 159.101C886.294 159.101 884.993 158.707 883.887 157.968C882.781 157.229 881.919 156.18 881.41 154.951C880.901 153.723 880.768 152.371 881.028 151.067C881.287 149.763 881.928 148.565 882.868 147.625C883.809 146.685 885.007 146.045 886.312 145.785C887.616 145.526 888.969 145.659 890.198 146.168C891.427 146.677 892.477 147.538 893.216 148.644C893.955 149.749 894.349 151.049 894.349 152.379C894.348 154.161 893.639 155.87 892.378 157.13C891.117 158.391 889.407 159.099 887.624 159.101ZM887.624 146.505C886.461 146.505 885.325 146.85 884.358 147.495C883.391 148.141 882.638 149.059 882.193 150.133C881.748 151.206 881.632 152.388 881.859 153.528C882.086 154.668 882.646 155.715 883.468 156.536C884.29 157.358 885.338 157.917 886.478 158.144C887.619 158.37 888.801 158.254 889.875 157.809C890.949 157.364 891.867 156.61 892.513 155.644C893.158 154.677 893.503 153.541 893.502 152.379C893.501 150.821 892.881 149.328 891.779 148.226C890.677 147.125 889.182 146.506 887.624 146.505Z" fill="#F7F8FA"/>
<path d="M593.772 421.859H657.842C661.557 421.859 665.119 423.334 667.746 425.96C670.372 428.585 671.848 432.146 671.848 435.859V496.347H579.758V435.852C579.759 434.014 580.122 432.193 580.827 430.495C581.531 428.797 582.564 427.254 583.865 425.954C585.167 424.655 586.711 423.625 588.411 422.922C590.111 422.219 591.933 421.858 593.772 421.859Z" fill="#FADD6F"/>
<path d="M652.194 421.859H658.007C661.677 421.859 665.197 423.317 667.792 425.911C670.387 428.505 671.845 432.023 671.845 435.691V496.347H644.57V429.479C644.57 427.458 645.373 425.52 646.803 424.091C648.233 422.662 650.172 421.859 652.194 421.859Z" fill="#F2A84C"/>
<path d="M731.746 237.574L731.625 237.631V237.574H731.746Z" fill="#E17A9E"/>
<path d="M735.092 237.574L731.625 239.164V237.631L731.748 237.574H735.092Z" fill="#E17A9D"/>
<path d="M738.435 237.574L731.625 240.696V239.164L735.092 237.574H738.435Z" fill="#E1799C"/>
<path d="M741.777 237.574L731.625 242.229V240.696L738.435 237.574H741.777Z" fill="#E0799B"/>
<path d="M745.121 237.574L731.625 243.761V242.229L741.777 237.574H745.121Z" fill="#E0789A"/>
<path d="M748.464 237.574L731.625 245.291V243.761L745.121 237.574H748.464Z" fill="#E07899"/>
<path d="M751.808 237.574L731.625 246.824V245.291L748.464 237.574H751.808Z" fill="#E07798"/>
<path d="M755.15 237.574L731.625 248.356V246.824L751.808 237.574H755.15Z" fill="#E07697"/>
<path d="M758.493 237.574L731.625 249.889V248.356L755.149 237.574H758.493Z" fill="#E07696"/>
<path d="M761.837 237.574L731.625 251.421V249.889L758.493 237.574H761.837Z" fill="#E07595"/>
<path d="M765.181 237.574L731.625 252.954V251.421L761.837 237.574H765.181Z" fill="#E07594"/>
<path d="M768.522 237.574L731.625 254.486V252.954L765.181 237.574H768.522Z" fill="#E07493"/>
<path d="M771.866 237.574L731.625 256.018V254.486L768.522 237.574H771.866Z" fill="#E07492"/>
<path d="M775.21 237.574L731.625 257.551V256.018L771.866 237.574H775.21Z" fill="#E07391"/>
<path d="M778.551 237.574L731.625 259.083V257.551L775.209 237.574H778.551Z" fill="#E07390"/>
<path d="M781.895 237.574L731.625 260.616V259.083L778.551 237.574H781.895Z" fill="#DF728F"/>
<path d="M785.238 237.574L731.625 262.146V260.616L781.895 237.574H785.238Z" fill="#DF728E"/>
<path d="M787.686 237.985L731.625 263.679V262.146L785.238 237.574H787.686V237.985Z" fill="#DF718D"/>
<path d="M787.686 239.517L731.625 265.21V263.678L787.686 237.984V239.517Z" fill="#DF708C"/>
<path d="M787.686 241.052L731.625 266.746V265.213L787.686 239.52V241.052Z" fill="#DF708B"/>
<path d="M787.686 242.579L731.625 268.273V266.741L787.686 241.047V242.579Z" fill="#DF6F8A"/>
<path d="M787.686 244.114L731.625 269.808V268.276L787.686 242.582V244.114Z" fill="#DF6F89"/>
<path d="M787.686 245.648L731.625 271.343V269.811L787.686 244.117V245.648Z" fill="#DF6E88"/>
<path d="M787.686 247.173L731.625 272.869V271.336L787.686 245.641V247.173Z" fill="#DF6E87"/>
<path d="M787.686 248.712L731.625 274.408V272.875L787.686 247.18V248.712Z" fill="#DF6D86"/>
<path d="M787.686 250.243L731.625 275.939V274.407L787.686 248.711V250.243Z" fill="#DF6D85"/>
<path d="M787.686 251.775L731.625 277.468V275.938L787.686 250.242V251.775Z" fill="#DF6C84"/>
<path d="M787.686 253.306L731.625 279V277.467L787.686 251.773V253.306Z" fill="#DE6C83"/>
<path d="M787.686 254.837L731.625 280.531V278.998L787.686 253.305V254.837Z" fill="#DE6B82"/>
<path d="M787.686 256.372L731.625 282.066V280.534L787.686 254.84V256.372Z" fill="#DE6A81"/>
<path d="M787.686 257.907L731.625 283.601V282.069L787.686 256.375V257.907Z" fill="#DE6A80"/>
<path d="M787.686 259.439L731.625 285.132V283.6L787.686 257.906V259.439Z" fill="#DE697F"/>
<path d="M787.686 260.968L731.625 286.664V285.131L787.686 259.438V260.968Z" fill="#DE697E"/>
<path d="M787.686 262.497L731.625 288.193V286.661L787.686 260.965V262.497Z" fill="#DE687D"/>
<path d="M787.686 264.032L731.625 289.728V288.196L787.686 262.5V264.032Z" fill="#DE687C"/>
<path d="M787.686 265.564L731.625 291.257V289.727L787.686 264.031V265.564Z" fill="#DE677B"/>
<path d="M787.686 267.095L731.625 292.789V291.256L787.686 265.562V267.095Z" fill="#DE677A"/>
<path d="M787.686 268.626L731.625 294.32V292.787L787.686 267.094V268.626Z" fill="#DE6679"/>
<path d="M787.686 270.161L731.625 295.855V294.323L787.686 268.629V270.161Z" fill="#DE6678"/>
<path d="M787.686 271.693L731.625 297.386V295.854L787.686 270.16V271.693Z" fill="#DD6576"/>
<path d="M787.686 273.228L731.625 298.921V297.389L787.686 271.695V273.228Z" fill="#DD6475"/>
<path d="M787.686 274.759L731.625 300.453V298.92L787.686 273.227V274.759Z" fill="#DD6474"/>
<path d="M787.686 276.288L731.625 301.984V300.451L787.686 274.758V276.288Z" fill="#DD6373"/>
<path d="M787.686 277.822L731.625 303.517V301.985L787.686 276.289V277.822Z" fill="#DD6372"/>
<path d="M787.686 279.353L731.625 305.049V303.516L787.686 277.82V279.353Z" fill="#DD6271"/>
<path d="M787.686 280.888L731.625 306.582V305.051L787.686 279.355V280.888Z" fill="#DD6270"/>
<path d="M787.686 282.419L731.625 308.113V306.58L787.686 280.887V282.419Z" fill="#DD616F"/>
<path d="M787.686 283.95L731.625 309.644V308.112L787.686 282.418V283.95Z" fill="#DD616E"/>
<path d="M787.686 285.482L731.625 311.175V309.643L787.686 283.949V285.482Z" fill="#DD606D"/>
<path d="M787.686 287.017L731.625 312.71V311.178L787.686 285.484V287.017Z" fill="#DD5F6C"/>
<path d="M787.686 288.548L731.625 314.242V312.709L787.686 287.016V288.548Z" fill="#DD5F6B"/>
<path d="M787.686 290.079L731.625 315.773V314.241L787.686 288.547V290.079Z" fill="#DC5E6A"/>
<path d="M787.686 291.614L731.625 317.308V315.776L787.686 290.082V291.614Z" fill="#DC5E69"/>
<path d="M787.686 293.144L731.625 318.839V317.307L787.686 291.613V293.144Z" fill="#DC5D68"/>
<path d="M787.686 294.677L731.625 320.373V318.84L787.686 293.145V294.677Z" fill="#DC5D67"/>
<path d="M787.686 296.208L731.625 321.904V320.372L787.686 294.676V296.208Z" fill="#DC5C66"/>
<path d="M787.686 297.743L731.625 323.437V321.907L787.686 296.211V297.743Z" fill="#DC5C65"/>
<path d="M787.686 299.275L731.625 324.968V323.436L787.686 297.742V299.275Z" fill="#DC5B64"/>
<path d="M787.686 300.806L731.625 326.5V324.967L787.686 299.273V300.806Z" fill="#DC5B63"/>
<path d="M787.686 302.337L731.625 328.031V326.498L787.686 300.805V302.337Z" fill="#DC5A62"/>
<path d="M787.686 303.872L731.625 329.566V328.034L787.686 302.34V303.872Z" fill="#DC5961"/>
<path d="M787.686 305.404L731.625 331.097V329.565L787.686 303.871V305.404Z" fill="#DC5960"/>
<path d="M787.686 306.935L731.625 332.628V331.096L787.686 305.402V306.935Z" fill="#DC585F"/>
<path d="M787.686 308.468L731.625 334.164V332.631L787.686 306.938V308.468Z" fill="#DB585E"/>
<path d="M787.686 309.997L731.625 335.693V334.161L787.686 308.465V309.997Z" fill="#DB575D"/>
<path d="M787.686 311.532L731.625 337.228V335.696L787.686 310V311.532Z" fill="#DB575C"/>
<path d="M787.686 313.064L731.625 338.757V337.227L787.686 311.531V313.064Z" fill="#DB565B"/>
<path d="M787.686 314.595L731.625 340.289V338.756L787.686 313.062V314.595Z" fill="#DB565A"/>
<path d="M787.686 316.126L731.625 341.82V340.287L787.686 314.594V316.126Z" fill="#DB5559"/>
<path d="M787.686 317.661L731.625 343.355V341.823L787.686 316.129V317.661Z" fill="#DB5558"/>
<path d="M787.686 319.193L731.625 344.886V343.354L787.686 317.66V319.193Z" fill="#DB5457"/>
<path d="M787.686 320.728L731.625 346.421V344.889L787.686 319.195V320.728Z" fill="#DB5356"/>
<path d="M787.686 322.259L731.625 347.953V346.42L787.686 320.727V322.259Z" fill="#DB5355"/>
<path d="M787.686 323.79L731.625 349.484V347.951L787.686 322.258V323.79Z" fill="#DB5254"/>
<path d="M787.686 325.319L731.625 351.015V349.483L787.686 323.789V325.319Z" fill="#DB5253"/>
<path d="M787.686 326.853L731.625 352.549V351.016L787.686 325.32V326.853Z" fill="#DA5152"/>
<path d="M787.686 328.384L731.625 354.078V352.547L787.686 326.852V328.384Z" fill="#DA5151"/>
<path d="M787.686 329.915L731.625 355.609V354.076L787.686 328.383V329.915Z" fill="#DA5050"/>
<path d="M787.686 331.45L731.625 357.144V355.612L787.686 329.918V331.45Z" fill="#DA504F"/>
<path d="M787.686 332.982L731.625 358.675V357.143L787.686 331.449V332.982Z" fill="#DA4F4E"/>
<path d="M787.686 334.517L731.625 360.21V358.678L787.686 332.984V334.517Z" fill="#DA4F4D"/>
<path d="M787.686 336.048L731.625 361.742V360.209L787.686 334.516V336.048Z" fill="#DA4E4C"/>
<path d="M787.686 337.579L731.625 363.273V361.741L787.686 336.047V337.579Z" fill="#DA4D4B"/>
<path d="M787.686 339.114L731.625 364.808V363.276L787.686 337.582V339.114Z" fill="#DA4D4A"/>
<path d="M787.686 340.648L731.625 366.343V364.811L787.686 339.117V340.648Z" fill="#DA4C49"/>
<path d="M787.686 342.177L731.625 367.873V366.34L787.686 340.645V342.177Z" fill="#DA4C48"/>
<path d="M787.686 343.712L731.625 369.408V367.876L787.686 342.18V343.712Z" fill="#DA4B47"/>
<path d="M787.686 345.239L731.625 370.933V369.403L787.686 343.707V345.239Z" fill="#D94B46"/>
<path d="M787.686 346.775L731.625 372.468V370.936L787.686 345.242V346.775Z" fill="#D94A45"/>
<path d="M787.686 348.306L731.625 374V372.467L787.686 346.773V348.306Z" fill="#D94A44"/>
<path d="M787.686 349.837L731.625 375.531V373.998L787.686 348.305V349.837Z" fill="#D94943"/>
<path d="M787.686 351.368L731.625 377.062V375.53L787.686 349.836V351.368Z" fill="#D94942"/>
<path d="M787.686 352.904L731.625 378.597V377.065L787.686 351.371V352.904Z" fill="#D94841"/>
<path d="M731.625 378.592L787.686 352.898V405.344H731.625V378.592Z" fill="#D94841"/>
<path d="M773.653 237.574L771.125 238.734V237.574H773.653Z" fill="#D94B46"/>
<path d="M776.216 237.574L771.125 239.907V238.734L773.653 237.574H776.216Z" fill="#D94B47"/>
<path d="M778.778 237.574L771.125 241.081V239.907L776.216 237.574H778.778Z" fill="#DA4B47"/>
<path d="M781.338 237.574L771.125 242.256V241.081L778.778 237.574H781.338Z" fill="#DA4C48"/>
<path d="M783.9 237.574L771.125 243.431V242.256L781.338 237.574H783.9Z" fill="#DA4C48"/>
<path d="M786.463 237.574L771.125 244.604V243.431L783.9 237.574H786.463Z" fill="#DA4C49"/>
<path d="M787.682 238.19L771.125 245.778V244.604L786.463 237.574H787.682V238.19Z" fill="#DA4D4A"/>
<path d="M787.682 239.362L771.125 246.95V245.776L787.682 238.188V239.362Z" fill="#DA4D4A"/>
<path d="M787.682 240.54L771.125 248.13V246.955L787.682 239.367V240.54Z" fill="#DA4D4B"/>
<path d="M787.682 241.714L771.125 249.302V248.129L787.682 240.539V241.714Z" fill="#DA4E4B"/>
<path d="M787.682 242.89L771.125 250.478V249.303L787.682 241.715V242.89Z" fill="#DA4E4C"/>
<path d="M787.682 244.061L771.125 251.65V250.475L787.682 242.887V244.061Z" fill="#DA4E4D"/>
<path d="M787.682 245.235L771.125 252.825V251.651L787.682 244.062V245.235Z" fill="#DA4F4D"/>
<path d="M787.682 246.409L771.125 253.997V252.825L787.682 245.234V246.409Z" fill="#DA4F4E"/>
<path d="M787.682 247.585L771.125 255.173V253.998L787.682 246.41V247.585Z" fill="#DA4F4F"/>
<path d="M787.682 248.755L771.125 256.345V255.17L787.682 247.582V248.755Z" fill="#DA504F"/>
<path d="M787.682 249.933L771.125 257.523V256.348L787.682 248.758V249.933Z" fill="#DA5050"/>
<path d="M787.682 251.104L771.125 258.693V257.52L787.682 249.93V251.104Z" fill="#DA5151"/>
<path d="M787.682 252.28L771.125 259.868V258.694L787.682 251.105V252.28Z" fill="#DA5152"/>
<path d="M787.682 253.454L771.125 261.044V259.869L787.682 252.281V253.454Z" fill="#DA5152"/>
<path d="M787.682 254.628L771.125 262.218V261.043L787.682 253.453V254.628Z" fill="#DB5253"/>
<path d="M787.682 255.8L771.125 263.388V262.215L787.682 254.625V255.8Z" fill="#DB5254"/>
<path d="M787.682 256.976L771.125 264.564V263.389L787.682 255.801V256.976Z" fill="#DB5355"/>
<path d="M787.682 258.151L771.125 265.739V264.565L787.682 256.977V258.151Z" fill="#DB5356"/>
<path d="M787.682 259.325L771.125 266.915V265.74L787.682 258.152V259.325Z" fill="#DB5457"/>
<path d="M787.682 260.499L771.125 268.087V266.914L787.682 259.324V260.499Z" fill="#DB5458"/>
<path d="M787.682 261.675L771.125 269.263V268.088L787.682 260.5V261.675Z" fill="#DB5559"/>
<path d="M787.682 262.844L771.125 270.435V269.26L787.682 261.672V262.844Z" fill="#DB5559"/>
<path d="M787.682 264.018L771.125 271.607V270.434L787.682 262.844V264.018Z" fill="#DB565A"/>
<path d="M787.682 265.198L771.125 272.786V271.612L787.682 264.023V265.198Z" fill="#DB565B"/>
<path d="M787.682 266.37L771.125 273.958V272.783L787.682 265.195V266.37Z" fill="#DB575C"/>
<path d="M787.682 267.544L771.125 275.134V273.959L787.682 266.371V267.544Z" fill="#DB575D"/>
<path d="M787.682 268.718L771.125 276.308V275.133L787.682 267.543V268.718Z" fill="#DB585F"/>
<path d="M787.682 269.893L771.125 277.482V276.309L787.682 268.719V269.893Z" fill="#DC5960"/>
<path d="M787.682 271.069L771.125 278.657V277.483L787.682 269.895V271.069Z" fill="#DC5961"/>
<path d="M787.682 272.239L771.125 279.829V278.655L787.682 271.066V272.239Z" fill="#DC5A62"/>
<path d="M787.682 273.417L771.125 281.005V279.832L787.682 272.242V273.417Z" fill="#DC5A63"/>
<path d="M787.682 274.589L771.125 282.177V281.002L787.682 273.414V274.589Z" fill="#DC5B64"/>
<path d="M787.682 275.761L771.125 283.349V282.174L787.682 274.586V275.761Z" fill="#DC5C65"/>
<path d="M787.682 276.938L771.125 284.528V283.354L787.682 275.766V276.938Z" fill="#DC5C66"/>
<path d="M787.682 278.112L771.125 285.7V284.528L787.682 276.938V278.112Z" fill="#DC5D68"/>
<path d="M787.682 279.284L771.125 286.872V285.697L787.682 278.109V279.284Z" fill="#DC5E69"/>
<path d="M787.682 280.46L771.125 288.048V286.873L787.682 279.285V280.46Z" fill="#DC5E6A"/>
<path d="M787.682 281.634L771.125 289.224V288.049L787.682 280.461V281.634Z" fill="#DC5F6B"/>
<path d="M787.682 282.808L771.125 290.396V289.223L787.682 281.633V282.808Z" fill="#DD606D"/>
<path d="M787.682 283.983L771.125 291.571V290.397L787.682 282.809V283.983Z" fill="#DD606E"/>
<path d="M787.682 285.157L771.125 292.747V291.572L787.682 283.984V285.157Z" fill="#DD616F"/>
<path d="M787.682 286.331L771.125 293.921V292.746L787.682 285.156V286.331Z" fill="#DD6271"/>
<path d="M787.682 287.503L771.125 295.091V293.918L787.682 286.328V287.503Z" fill="#DD6272"/>
<path d="M787.682 288.683L771.125 296.271V295.096L787.682 287.508V288.683Z" fill="#DD6373"/>
<path d="M787.682 289.854L771.125 297.443V296.268L787.682 288.68V289.854Z" fill="#DD6475"/>
<path d="M787.682 291.024L771.125 298.614V297.44L787.682 289.852V291.024Z" fill="#DD6576"/>
<path d="M787.682 292.202L771.125 299.79V298.618L787.682 291.027V292.202Z" fill="#DE6678"/>
<path d="M787.682 293.378L771.125 300.966V299.791L787.682 292.203V293.378Z" fill="#DE6679"/>
<path d="M787.682 294.548L771.125 302.138V300.963L787.682 293.375V294.548Z" fill="#DE677B"/>
<path d="M787.682 295.722L771.125 303.312V302.137L787.682 294.547V295.722Z" fill="#DE687C"/>
<path d="M787.682 296.901L771.125 304.489V303.317L787.682 295.727V296.901Z" fill="#DE697E"/>
<path d="M787.682 298.073L771.125 305.661V304.487L787.682 296.898V298.073Z" fill="#DE6A7F"/>
<path d="M787.682 299.243L771.125 306.833V305.658L787.682 298.07V299.243Z" fill="#DE6A81"/>
<path d="M787.682 300.421L771.125 308.009V306.836L787.682 299.246V300.421Z" fill="#DE6B82"/>
<path d="M787.682 301.597L771.125 309.185V308.01L787.682 300.422V301.597Z" fill="#DF6C84"/>
<path d="M787.682 302.772L771.125 310.361V309.186L787.682 301.598V302.772Z" fill="#DF6D85"/>
<path d="M787.682 303.946L771.125 311.536V310.362L787.682 302.773V303.946Z" fill="#DF6E87"/>
<path d="M787.682 305.12L771.125 312.71V311.536L787.682 303.945V305.12Z" fill="#DF6F89"/>
<path d="M787.682 306.292L771.125 313.88V312.707L787.682 305.117V306.292Z" fill="#DF708A"/>
<path d="M787.682 307.468L771.125 315.056V313.881L787.682 306.293V307.468Z" fill="#DF718C"/>
<path d="M787.682 308.641L771.125 316.232V315.057L787.682 307.469V308.641Z" fill="#DF728E"/>
<path d="M787.682 309.815L771.125 317.403V316.231L787.682 308.641V309.815Z" fill="#DF7390"/>
<path d="M787.682 310.987L771.125 318.575V317.401L787.682 309.812V310.987Z" fill="#E07391"/>
<path d="M787.682 312.167L771.125 319.755V318.58L787.682 310.992V312.167Z" fill="#E07493"/>
<path d="M787.682 313.337L771.125 320.927V319.752L787.682 312.164V313.337Z" fill="#E07595"/>
<path d="M787.682 314.511L771.125 322.099V320.926L787.682 313.336V314.511Z" fill="#E07697"/>
<path d="M787.682 315.683L771.125 323.271V322.096L787.682 314.508V315.683Z" fill="#E07799"/>
<path d="M787.682 316.862L771.125 324.45V323.276L787.682 315.688V316.862Z" fill="#E0789A"/>
<path d="M787.682 318.032L771.125 325.622V324.447L787.682 316.859V318.032Z" fill="#E1799C"/>
<path d="M787.682 319.206L771.125 326.794V325.621L787.682 318.031V319.206Z" fill="#E17A9E"/>
<path d="M787.682 320.386L771.125 327.974V326.799L787.682 319.211V320.386Z" fill="#E17BA0"/>
<path d="M787.682 321.555L771.125 329.146V327.971L787.682 320.383V321.555Z" fill="#E17CA2"/>
<path d="M787.682 322.729L771.125 330.32V329.145L787.682 321.555V322.729Z" fill="#E17EA4"/>
<path d="M787.682 323.901L771.125 331.489V330.317L787.682 322.727V323.901Z" fill="#E17FA6"/>
<path d="M787.682 325.081L771.125 332.669V331.494L787.682 323.906V325.081Z" fill="#E180A8"/>
<path d="M787.682 326.253L771.125 333.841V332.666L787.682 325.078V326.253Z" fill="#E281AA"/>
<path d="M787.682 327.43L771.125 335.021V333.846L787.682 326.258V327.43Z" fill="#E282AC"/>
<path d="M787.682 328.604L771.125 336.192V335.02L787.682 327.43V328.604Z" fill="#E283AE"/>
<path d="M771.125 336.19L787.682 328.602V368.792H771.125V336.19Z" fill="#E283AE"/>
<path d="M933.568 206.93H840.379C835.7 206.93 831.906 210.721 831.906 215.397C831.906 220.074 835.7 223.865 840.379 223.865H933.568C938.247 223.865 942.041 220.074 942.041 215.397C942.041 210.721 938.247 206.93 933.568 206.93Z" fill="#4A86F7"/>
<path d="M742.519 294.941H742.279C740.835 294.941 739.664 296.112 739.664 297.555V376.16C739.664 377.604 740.835 378.774 742.279 378.774H742.519C743.963 378.774 745.134 377.604 745.134 376.16V297.555C745.134 296.112 743.963 294.941 742.519 294.941Z" fill="#FADD6F"/>
<path d="M751.764 294.875H751.529C750.089 294.875 748.922 296.042 748.922 297.481V376.102C748.922 377.541 750.089 378.708 751.529 378.708H751.764C753.203 378.708 754.37 377.541 754.37 376.102V297.481C754.37 296.042 753.203 294.875 751.764 294.875Z" fill="#FADD6F"/>
<path d="M761.006 295.004H760.771C759.331 295.004 758.164 296.17 758.164 297.609V376.231C758.164 377.67 759.331 378.837 760.771 378.837H761.006C762.446 378.837 763.613 377.67 763.613 376.231V297.609C763.613 296.17 762.446 295.004 761.006 295.004Z" fill="#FADD6F"/>
<path d="M918.718 186.789H856.524C852.921 186.789 850 189.709 850 193.31C850 196.912 852.921 199.832 856.524 199.832H918.718C922.322 199.832 925.243 196.912 925.243 193.31C925.243 189.709 922.322 186.789 918.718 186.789Z" fill="#FADD6F"/>
<path d="M787.703 657.871H687.223V457.611C687.223 444.422 689.822 431.363 694.871 419.178C699.921 406.993 707.323 395.922 716.653 386.597C725.984 377.271 737.061 369.874 749.252 364.828C761.442 359.782 774.508 357.185 787.703 357.186V657.871Z" fill="#83BF6E"/>
<path d="M839.235 237.572H947.991C950.239 237.572 952.466 238.015 954.543 238.875C956.62 239.735 958.507 240.996 960.097 242.585C961.687 244.174 962.948 246.06 963.808 248.136C964.669 250.213 965.112 252.438 965.112 254.685V636.291C965.112 639.219 963.948 642.027 961.877 644.098C959.805 646.168 956.996 647.331 954.066 647.331H839.235C837.784 647.331 836.348 647.046 835.007 646.491C833.667 645.937 832.449 645.124 831.423 644.098C830.397 643.073 829.584 641.856 829.028 640.516C828.473 639.177 828.187 637.741 828.188 636.291V248.611C828.188 245.683 829.351 242.874 831.423 240.804C833.494 238.733 836.303 237.57 839.233 237.57L839.235 237.572Z" fill="#4A86F7"/>
<path d="M822.96 237.574H948.836V636.293C948.836 639.221 947.672 642.029 945.601 644.099C943.53 646.17 940.72 647.333 937.791 647.333H822.96C820.03 647.333 817.221 646.17 815.149 644.099C813.078 642.029 811.914 639.221 811.914 636.293V248.612C811.915 245.685 813.079 242.877 815.15 240.807C817.221 238.737 820.03 237.574 822.96 237.574Z" fill="#57B6F0"/>
<path d="M945.625 463.484H1033.62C1037.18 463.484 1040.59 464.897 1043.1 467.412C1045.62 469.926 1047.03 473.337 1047.03 476.893C1047.03 480.449 1045.62 483.86 1043.1 486.375C1040.59 488.889 1037.18 490.302 1033.62 490.302H945.625V463.484Z" fill="#57B6F0"/>
<path d="M412.866 580.211H505.843C510.581 580.211 514.422 576.372 514.422 571.637V560.948C514.422 556.212 510.581 552.373 505.843 552.373H412.866C408.128 552.373 404.287 556.212 404.287 560.948V571.637C404.287 576.372 408.128 580.211 412.866 580.211Z" fill="#F2A84C"/>
<g opacity="0.55">
<path opacity="0.55" d="M512.962 562.223H502.838V556.819H512.962C513.577 556.819 514.167 557.063 514.602 557.498C515.037 557.932 515.281 558.522 515.281 559.137V559.916C515.278 560.528 515.033 561.115 514.598 561.548C514.164 561.98 513.576 562.223 512.962 562.223Z" fill="#F7F8FA"/>
</g>
<g opacity="0.55">
<path opacity="0.55" d="M487.588 562.223H500.031V556.819H487.588V562.223Z" fill="#F7F8FA"/>
</g>
<g opacity="0.55">
<path opacity="0.55" d="M472.315 562.223H484.758V556.819H472.315V562.223Z" fill="#F7F8FA"/>
</g>
<g opacity="0.55">
<path opacity="0.55" d="M457.057 562.223H469.5V556.819H457.057V562.223Z" fill="#F7F8FA"/>
</g>
<g opacity="0.55">
<path opacity="0.55" d="M441.807 562.223H454.25V556.819H441.807V562.223Z" fill="#F7F8FA"/>
</g>
<g opacity="0.55">
<path opacity="0.55" d="M426.534 562.223H438.977V556.819H426.534V562.223Z" fill="#F7F8FA"/>
</g>
<g opacity="0.55">
<path opacity="0.55" d="M423.492 562.223H413.751C413.396 562.223 413.045 562.153 412.717 562.017C412.389 561.881 412.091 561.682 411.841 561.432C411.59 561.181 411.391 560.883 411.255 560.555C411.119 560.228 411.049 559.877 411.049 559.522C411.049 558.806 411.334 558.119 411.841 557.612C412.347 557.106 413.035 556.821 413.751 556.821H423.492V562.223Z" fill="#F7F8FA"/>
</g>
<path d="M292.827 580.211H385.804C390.542 580.211 394.383 576.372 394.383 571.637V560.948C394.383 556.212 390.542 552.373 385.804 552.373H292.827C288.089 552.373 284.248 556.212 284.248 560.948V571.637C284.248 576.372 288.089 580.211 292.827 580.211Z" fill="#F2A84C"/>
<g opacity="0.55">
<path opacity="0.55" d="M392.947 562.223H382.823V556.819H392.947C393.562 556.819 394.152 557.063 394.586 557.498C395.021 557.932 395.266 558.522 395.266 559.137V559.916C395.263 560.528 395.017 561.115 394.583 561.548C394.148 561.98 393.56 562.223 392.947 562.223Z" fill="#F7F8FA"/>
</g>
<g opacity="0.55">
<path opacity="0.55" d="M367.549 562.223H379.992V556.819H367.549V562.223Z" fill="#F7F8FA"/>
</g>
<g opacity="0.55">
<path opacity="0.55" d="M352.284 562.223H364.727V556.819H352.284V562.223Z" fill="#F7F8FA"/>
</g>
<g opacity="0.55">
<path opacity="0.55" d="M337.026 562.223H349.469V556.819H337.026V562.223Z" fill="#F7F8FA"/>
</g>
<g opacity="0.55">
<path opacity="0.55" d="M321.768 562.223H334.211V556.819H321.768V562.223Z" fill="#F7F8FA"/>
</g>
<g opacity="0.55">
<path opacity="0.55" d="M306.502 562.223H318.945V556.819H306.502V562.223Z" fill="#F7F8FA"/>
</g>
<g opacity="0.55">
<path opacity="0.55" d="M303.448 562.223H293.707C293.352 562.223 293.001 562.153 292.673 562.017C292.345 561.881 292.047 561.682 291.797 561.432C291.546 561.181 291.347 560.883 291.211 560.555C291.075 560.228 291.005 559.877 291.005 559.522C291.005 559.166 291.075 558.814 291.211 558.485C291.348 558.156 291.548 557.857 291.8 557.606C292.053 557.355 292.352 557.156 292.682 557.021C293.011 556.886 293.364 556.817 293.72 556.819H303.461V562.223H303.448Z" fill="#F7F8FA"/>
</g>
<g opacity="0.57">
<path opacity="0.57" d="M787.565 409.555H727.821C724.831 409.555 722.406 411.977 722.406 414.966C722.406 417.954 724.831 420.377 727.821 420.377H787.565C790.555 420.377 792.98 417.954 792.98 414.966C792.98 411.977 790.555 409.555 787.565 409.555Z" fill="#F7F8FA"/>
</g>
<g opacity="0.57">
<path opacity="0.57" d="M787.565 428.266H727.821C724.831 428.266 722.406 430.688 722.406 433.677C722.406 436.665 724.831 439.088 727.821 439.088H787.565C790.555 439.088 792.98 436.665 792.98 433.677C792.98 430.688 790.555 428.266 787.565 428.266Z" fill="#F7F8FA"/>
</g>
<g opacity="0.57">
<path opacity="0.57" d="M787.565 446.977H727.821C724.831 446.977 722.406 449.399 722.406 452.388C722.406 455.376 724.831 457.799 727.821 457.799H787.565C790.555 457.799 792.98 455.376 792.98 452.388C792.98 449.399 790.555 446.977 787.565 446.977Z" fill="#F7F8FA"/>
</g>
<g opacity="0.57">
<path opacity="0.57" d="M787.565 465.688H727.821C724.831 465.688 722.406 468.11 722.406 471.099C722.406 474.087 724.831 476.51 727.821 476.51H787.565C790.555 476.51 792.98 474.087 792.98 471.099C792.98 468.11 790.555 465.688 787.565 465.688Z" fill="#F7F8FA"/>
</g>
<g opacity="0.57">
<path opacity="0.57" d="M787.565 484.398H727.821C724.831 484.398 722.406 486.821 722.406 489.81C722.406 492.798 724.831 495.221 727.821 495.221H787.565C790.555 495.221 792.98 492.798 792.98 489.81C792.98 486.821 790.555 484.398 787.565 484.398Z" fill="#F7F8FA"/>
</g>
<g opacity="0.57">
<path opacity="0.57" d="M787.565 503.109H727.821C724.831 503.109 722.406 505.532 722.406 508.521C722.406 511.509 724.831 513.932 727.821 513.932H787.565C790.555 513.932 792.98 511.509 792.98 508.521C792.98 505.532 790.555 503.109 787.565 503.109Z" fill="#F7F8FA"/>
</g>
<g opacity="0.57">
<path opacity="0.57" d="M632.552 430.461H585.367V437.698H632.552V430.461Z" fill="#F7F8FA"/>
</g>
<g opacity="0.57">
<path opacity="0.57" d="M632.552 442.977H585.367V450.213H632.552V442.977Z" fill="#F7F8FA"/>
</g>
<g opacity="0.57">
<path opacity="0.57" d="M632.552 455.484H585.367V462.721H632.552V455.484Z" fill="#F7F8FA"/>
</g>
<g opacity="0.57">
<path opacity="0.57" d="M632.552 467.992H585.367V475.229H632.552V467.992Z" fill="#F7F8FA"/>
</g>
<g opacity="0.57">
<path opacity="0.57" d="M632.552 480.504H585.367V487.741H632.552V480.504Z" fill="#F7F8FA"/>
</g>
<path d="M811.899 519.175L787.672 519.325V518.633H811.899V519.175Z" fill="#6BB474"/>
<path d="M811.899 521.032L787.672 521.182V519.326L811.899 519.176V521.032Z" fill="#6AB374"/>
<path d="M811.899 522.888L787.672 523.038V521.182L811.899 521.031V522.888Z" fill="#69B274"/>
<path d="M811.899 524.747L787.672 524.897V523.041L811.899 522.891V524.747Z" fill="#68B173"/>
<path d="M811.899 526.598L787.672 526.749V524.892L811.899 524.742V526.598Z" fill="#67B073"/>
<path d="M811.899 528.458L787.672 528.608V526.752L811.899 526.602V528.458Z" fill="#66AF72"/>
<path d="M811.899 530.309L787.672 530.46V528.603L811.899 528.453V530.309Z" fill="#65AE72"/>
<path d="M811.899 532.169L787.672 532.319V530.463L811.899 530.312V532.169Z" fill="#64AD71"/>
<path d="M811.899 534.024L787.672 534.175V532.318L811.899 532.168V534.024Z" fill="#63AC71"/>
<path d="M811.899 535.88L787.672 536.03V534.174L811.899 534.023V535.88Z" fill="#62AB70"/>
<path d="M811.899 537.737L787.672 537.889V536.033L811.899 535.883V537.737Z" fill="#61AA70"/>
<path d="M811.899 539.591L787.672 539.743V537.887L811.899 537.734V539.591Z" fill="#60A96F"/>
<path d="M811.899 541.446L787.672 541.596V539.742L811.899 539.59V541.446Z" fill="#5FA86F"/>
<path d="M811.899 543.302L787.672 543.452V541.596L811.899 541.445V543.302Z" fill="#5EA76F"/>
<path d="M811.899 545.161L787.672 545.311V543.455L811.899 543.305V545.161Z" fill="#5DA66E"/>
<path d="M811.899 547.013L787.672 547.163V545.307L811.899 545.156V547.013Z" fill="#5CA56E"/>
<path d="M811.899 548.872L787.672 549.022V547.166L811.899 547.016V548.872Z" fill="#5BA46D"/>
<path d="M811.899 550.731L787.672 550.881V549.025L811.899 548.875V550.731Z" fill="#5BA26D"/>
<path d="M811.899 552.587L787.672 552.737V550.881L811.899 550.73V552.587Z" fill="#5AA16C"/>
<path d="M811.899 554.442L787.672 554.592V552.736L811.899 552.586V554.442Z" fill="#59A06C"/>
<path d="M811.899 556.302L787.672 556.452V554.596L811.899 554.445V556.302Z" fill="#589F6B"/>
<path d="M811.899 558.153L787.672 558.304V556.447L811.899 556.297V558.153Z" fill="#579E6B"/>
<path d="M811.899 560.012L787.672 560.163V558.307L811.899 558.156V560.012Z" fill="#569D6B"/>
<path d="M811.899 561.864L787.672 562.014V560.158L811.899 560.008V561.864Z" fill="#559C6A"/>
<path d="M811.899 563.723L787.672 563.874V562.017L811.899 561.867V563.723Z" fill="#549B6A"/>
<path d="M811.899 565.583L787.672 565.733V563.877L811.899 563.727V565.583Z" fill="#539A69"/>
<path d="M811.899 567.434L787.672 567.585V565.728L811.899 565.578V567.434Z" fill="#529969"/>
<path d="M811.899 569.294L787.672 569.444V567.588L811.899 567.438V569.294Z" fill="#519868"/>
<path d="M811.899 571.149L787.672 571.3V569.443L811.899 569.293V571.149Z" fill="#509768"/>
<path d="M811.899 573.005L787.672 573.155V571.299L811.899 571.148V573.005Z" fill="#4F9667"/>
<path d="M811.899 574.864L787.672 575.014V573.158L811.899 573.008V574.864Z" fill="#4E9567"/>
<path d="M811.899 576.716L787.672 576.866V575.01L811.899 574.859V576.716Z" fill="#4D9466"/>
<path d="M811.899 578.575L787.672 578.725V576.869L811.899 576.719V578.575Z" fill="#4C9366"/>
<path d="M811.899 580.427L787.672 580.577V578.721L811.899 578.57V580.427Z" fill="#4B9266"/>
<path d="M811.899 582.286L787.672 582.436V580.58L811.899 580.43V582.286Z" fill="#4A9165"/>
<path d="M811.899 584.141L787.672 584.292V582.435L811.899 582.285V584.141Z" fill="#499065"/>
<path d="M811.899 585.997L787.672 586.147V584.291L811.899 584.141V585.997Z" fill="#488F64"/>
<path d="M811.899 587.852L787.672 588.003V586.146L811.899 585.996V587.852Z" fill="#478E64"/>
<path d="M811.899 589.712L787.672 589.862V588.006L811.899 587.855V589.712Z" fill="#468D63"/>
<path d="M811.899 591.567L787.672 591.718V589.861L811.899 589.711V591.567Z" fill="#458C63"/>
<path d="M811.899 593.427L787.672 593.577V591.721L811.899 591.57V593.427Z" fill="#448B62"/>
<path d="M811.899 595.278L787.672 595.428V593.572L811.899 593.422V595.278Z" fill="#438A62"/>
<path d="M787.672 595.432L811.899 595.281V605.481H787.672V595.432Z" fill="#438A62"/>
<path d="M247.783 570.539H244.914V640.424H247.783V570.539Z" fill="#E283AE"/>
<path d="M250.658 570.539H247.789V640.424H250.658V570.539Z" fill="#E282AD"/>
<path d="M253.526 570.539H250.656V640.424H253.526V570.539Z" fill="#E282AC"/>
<path d="M256.385 570.539H253.516V640.424H256.385V570.539Z" fill="#E281AB"/>
<path d="M259.268 570.539H256.398V640.424H259.268V570.539Z" fill="#E281AA"/>
<path d="M262.143 570.539H259.273V640.424H262.143V570.539Z" fill="#E280A9"/>
<path d="M265.01 570.539H262.141V640.424H265.01V570.539Z" fill="#E280A8"/>
<path d="M267.877 570.539H265.008V640.424H267.877V570.539Z" fill="#E17FA7"/>
<path d="M270.752 570.539H267.883V640.424H270.752V570.539Z" fill="#E17FA6"/>
<path d="M273.612 570.539H270.742V640.424H273.612V570.539Z" fill="#E17EA5"/>
<path d="M276.479 570.539H273.609V640.424H276.479V570.539Z" fill="#E17EA4"/>
<path d="M279.346 570.539H276.477V640.424H279.346V570.539Z" fill="#E17DA3"/>
<path d="M282.229 570.539H279.359V640.424H282.229V570.539Z" fill="#E17CA2"/>
<path d="M285.096 570.539H282.227V640.424H285.096V570.539Z" fill="#E17CA1"/>
<path d="M287.963 570.539H285.094V640.424H287.963V570.539Z" fill="#E17BA0"/>
<path d="M290.838 570.539H287.969V640.424H290.838V570.539Z" fill="#E17B9F"/>
<path d="M293.705 570.539H290.836V640.424H293.705V570.539Z" fill="#E17A9E"/>
<path d="M296.572 570.539H293.703V640.424H296.572V570.539Z" fill="#E17A9D"/>
<path d="M299.447 570.539H296.578V640.424H299.447V570.539Z" fill="#E1799C"/>
<path d="M302.315 570.539H299.445V640.424H302.315V570.539Z" fill="#E0799B"/>
<path d="M305.198 570.539H302.328V640.424H305.198V570.539Z" fill="#E0789A"/>
<path d="M308.065 570.539H305.195V640.424H308.065V570.539Z" fill="#E07899"/>
<path d="M310.932 570.539H308.062V640.424H310.932V570.539Z" fill="#E07798"/>
<path d="M313.807 570.539H310.938V640.424H313.807V570.539Z" fill="#E07697"/>
<path d="M316.674 570.539H313.805V640.424H316.674V570.539Z" fill="#E07696"/>
<path d="M319.541 570.539H316.672V640.424H319.541V570.539Z" fill="#E07595"/>
<path d="M322.416 570.539H319.547V640.424H322.416V570.539Z" fill="#E07594"/>
<path d="M325.283 570.539H322.414V640.424H325.283V570.539Z" fill="#E07493"/>
<path d="M328.151 570.539H325.281V640.424H328.151V570.539Z" fill="#E07492"/>
<path d="M331.033 570.539H328.164V640.424H331.033V570.539Z" fill="#E07391"/>
<path d="M333.893 570.539H331.023V640.424H333.893V570.539Z" fill="#E07390"/>
<path d="M336.768 570.539H333.898V640.424H336.768V570.539Z" fill="#DF728F"/>
<path d="M339.627 570.539H336.758V640.424H339.627V570.539Z" fill="#DF728E"/>
<path d="M342.494 570.539H339.625V640.424H342.494V570.539Z" fill="#DF718D"/>
<path d="M345.377 570.539H342.508V640.424H345.377V570.539Z" fill="#DF708C"/>
<path d="M348.252 570.539H345.383V640.424H348.252V570.539Z" fill="#DF708B"/>
<path d="M351.119 570.539H348.25V640.424H351.119V570.539Z" fill="#DF6F8A"/>
<path d="M353.987 570.539H351.117V640.424H353.987V570.539Z" fill="#DF6F89"/>
<path d="M356.854 570.539H353.984V640.424H356.854V570.539Z" fill="#DF6E88"/>
<path d="M359.721 570.539H356.852V640.424H359.721V570.539Z" fill="#DF6E87"/>
<path d="M362.596 570.539H359.727V640.424H362.596V570.539Z" fill="#DF6D86"/>
<path d="M365.471 570.539H362.602V640.424H365.471V570.539Z" fill="#DF6D85"/>
<path d="M368.338 570.539H365.469V640.424H368.338V570.539Z" fill="#DF6C84"/>
<path d="M371.205 570.539H368.336V640.424H371.205V570.539Z" fill="#DE6C83"/>
<path d="M374.08 570.539H371.211V640.424H374.08V570.539Z" fill="#DE6B82"/>
<path d="M376.955 570.539H374.086V640.424H376.955V570.539Z" fill="#DE6A81"/>
<path d="M379.822 570.539H376.953V640.424H379.822V570.539Z" fill="#DE6A80"/>
<path d="M382.69 570.539H379.82V640.424H382.69V570.539Z" fill="#DE697F"/>
<path d="M385.549 570.539H382.68V640.424H385.549V570.539Z" fill="#DE697E"/>
<path d="M388.424 570.539H385.555V640.424H388.424V570.539Z" fill="#DE687D"/>
<path d="M391.291 570.539H388.422V640.424H391.291V570.539Z" fill="#DE687C"/>
<path d="M394.166 570.539H391.297V640.424H394.166V570.539Z" fill="#DE677B"/>
<path d="M397.041 570.539H394.172V640.424H397.041V570.539Z" fill="#DE677A"/>
<path d="M399.908 570.539H397.039V640.424H399.908V570.539Z" fill="#DE6679"/>
<path d="M402.776 570.539H399.906V640.424H402.776V570.539Z" fill="#DE6678"/>
<path d="M405.643 570.539H402.773V640.424H405.643V570.539Z" fill="#DD6576"/>
<path d="M408.518 570.539H405.648V640.424H408.518V570.539Z" fill="#DD6475"/>
<path d="M411.393 570.539H408.523V640.424H411.393V570.539Z" fill="#DD6474"/>
<path d="M414.26 570.539H411.391V640.424H414.26V570.539Z" fill="#DD6373"/>
<path d="M417.135 570.539H414.266V640.424H417.135V570.539Z" fill="#DD6372"/>
<path d="M420.01 570.539H417.141V640.424H420.01V570.539Z" fill="#DD6271"/>
<path d="M422.869 570.539H420V640.424H422.869V570.539Z" fill="#DD6270"/>
<path d="M425.744 570.539H422.875V640.424H425.744V570.539Z" fill="#DD616F"/>
<path d="M428.619 570.539H425.75V640.424H428.619V570.539Z" fill="#DD616E"/>
<path d="M431.486 570.539H428.617V640.424H431.486V570.539Z" fill="#DD606D"/>
<path d="M434.354 570.539H431.484V640.424H434.354V570.539Z" fill="#DD5F6C"/>
<path d="M437.221 570.539H434.352V640.424H437.221V570.539Z" fill="#DD5F6B"/>
<path d="M440.104 570.539H437.234V640.424H440.104V570.539Z" fill="#DC5E6A"/>
<path d="M442.971 570.539H440.102V640.424H442.971V570.539Z" fill="#DC5E69"/>
<path d="M445.83 570.539H442.961V640.424H445.83V570.539Z" fill="#DC5D68"/>
<path d="M448.705 570.539H445.836V640.424H448.705V570.539Z" fill="#DC5D67"/>
<path d="M451.573 570.539H448.703V640.424H451.573V570.539Z" fill="#DC5C66"/>
<path d="M454.44 570.539H451.57V640.424H454.44V570.539Z" fill="#DC5C65"/>
<path d="M457.315 570.539H454.445V640.424H457.315V570.539Z" fill="#DC5B64"/>
<path d="M460.182 570.539H457.312V640.424H460.182V570.539Z" fill="#DC5B63"/>
<path d="M463.065 570.539H460.195V640.424H463.065V570.539Z" fill="#DC5A62"/>
<path d="M465.924 570.539H463.055V640.424H465.924V570.539Z" fill="#DC5961"/>
<path d="M468.799 570.539H465.93V640.424H468.799V570.539Z" fill="#DC5960"/>
<path d="M471.666 570.539H468.797V640.424H471.666V570.539Z" fill="#DC585F"/>
<path d="M474.541 570.539H471.672V640.424H474.541V570.539Z" fill="#DB585E"/>
<path d="M477.408 570.539H474.539V640.424H477.408V570.539Z" fill="#DB575D"/>
<path d="M480.276 570.539H477.406V640.424H480.276V570.539Z" fill="#DB575C"/>
<path d="M483.158 570.539H480.289V640.424H483.158V570.539Z" fill="#DB565B"/>
<path d="M486.026 570.539H483.156V640.424H486.026V570.539Z" fill="#DB565A"/>
<path d="M488.893 570.539H486.023V640.424H488.893V570.539Z" fill="#DB5559"/>
<path d="M491.768 570.539H488.898V640.424H491.768V570.539Z" fill="#DB5558"/>
<path d="M494.643 570.539H491.773V640.424H494.643V570.539Z" fill="#DB5457"/>
<path d="M497.502 570.539H494.633V640.424H497.502V570.539Z" fill="#DB5356"/>
<path d="M500.362 570.539H497.492V640.424H500.362V570.539Z" fill="#DB5355"/>
<path d="M503.237 570.539H500.367V640.424H503.237V570.539Z" fill="#DB5254"/>
<path d="M506.112 570.539H503.242V640.424H506.112V570.539Z" fill="#DB5253"/>
<path d="M508.987 570.539H506.117V640.424H508.987V570.539Z" fill="#DA5152"/>
<path d="M511.854 570.539H508.984V640.424H511.854V570.539Z" fill="#DA5151"/>
<path d="M514.721 570.539H511.852V640.424H514.721V570.539Z" fill="#DA5050"/>
<path d="M517.596 570.539H514.727V640.424H517.596V570.539Z" fill="#DA504F"/>
<path d="M520.455 570.539H517.586V640.424H520.455V570.539Z" fill="#DA4F4E"/>
<path d="M523.338 570.539H520.469V640.424H523.338V570.539Z" fill="#DA4F4D"/>
<path d="M526.205 570.539H523.336V640.424H526.205V570.539Z" fill="#DA4E4C"/>
<path d="M529.072 570.539H526.203V640.424H529.072V570.539Z" fill="#DA4D4B"/>
<path d="M531.947 570.539H529.078V640.424H531.947V570.539Z" fill="#DA4D4A"/>
<path d="M534.815 570.539H531.945V640.424H534.815V570.539Z" fill="#DA4C49"/>
<path d="M537.697 570.539H534.828V640.424H537.697V570.539Z" fill="#DA4C48"/>
<path d="M540.557 570.539H537.688V640.424H540.557V570.539Z" fill="#DA4B47"/>
<path d="M543.424 570.539H540.555V640.424H543.424V570.539Z" fill="#D94B46"/>
<path d="M546.299 570.539H543.43V640.424H546.299V570.539Z" fill="#D94A45"/>
<path d="M549.158 570.539H546.289V640.424H549.158V570.539Z" fill="#D94A44"/>
<path d="M552.033 570.539H549.164V640.424H552.033V570.539Z" fill="#D94943"/>
<path d="M554.908 570.539H552.039V640.424H554.908V570.539Z" fill="#D94942"/>
<path d="M557.783 570.539H554.914V640.424H557.783V570.539Z" fill="#D94841"/>
<g opacity="0.51">
<path opacity="0.51" d="M826.222 245.945H825.156C822.503 245.945 820.352 248.096 820.352 250.748V296.74C820.352 299.392 822.503 301.543 825.156 301.543H826.222C828.875 301.543 831.026 299.392 831.026 296.74V250.748C831.026 248.096 828.875 245.945 826.222 245.945Z" fill="#F7F8FA"/>
<path opacity="0.51" d="M826.222 311H825.156C822.503 311 820.352 313.15 820.352 315.803V361.795C820.352 364.447 822.503 366.597 825.156 366.597H826.222C828.875 366.597 831.026 364.447 831.026 361.795V315.803C831.026 313.15 828.875 311 826.222 311Z" fill="#F7F8FA"/>
<path opacity="0.51" d="M826.222 376.051H825.156C822.503 376.051 820.352 378.201 820.352 380.853V426.845C820.352 429.498 822.503 431.648 825.156 431.648H826.222C828.875 431.648 831.026 429.498 831.026 426.845V380.853C831.026 378.201 828.875 376.051 826.222 376.051Z" fill="#F7F8FA"/>
<path opacity="0.51" d="M826.222 441.102H825.156C822.503 441.102 820.352 443.252 820.352 445.904V491.896C820.352 494.549 822.503 496.699 825.156 496.699H826.222C828.875 496.699 831.026 494.549 831.026 491.896V445.904C831.026 443.252 828.875 441.102 826.222 441.102Z" fill="#F7F8FA"/>
<path opacity="0.51" d="M843.261 245.945H842.195C839.542 245.945 837.391 248.096 837.391 250.748V296.74C837.391 299.392 839.542 301.543 842.195 301.543H843.261C845.914 301.543 848.065 299.392 848.065 296.74V250.748C848.065 248.096 845.914 245.945 843.261 245.945Z" fill="#F7F8FA"/>
<path opacity="0.51" d="M843.261 311H842.195C839.542 311 837.391 313.15 837.391 315.803V361.795C837.391 364.447 839.542 366.597 842.195 366.597H843.261C845.914 366.597 848.065 364.447 848.065 361.795V315.803C848.065 313.15 845.914 311 843.261 311Z" fill="#F7F8FA"/>
<path opacity="0.51" d="M843.261 376.051H842.195C839.542 376.051 837.391 378.201 837.391 380.853V426.845C837.391 429.498 839.542 431.648 842.195 431.648H843.261C845.914 431.648 848.065 429.498 848.065 426.845V380.853C848.065 378.201 845.914 376.051 843.261 376.051Z" fill="#F7F8FA"/>
<path opacity="0.51" d="M843.261 441.102H842.195C839.542 441.102 837.391 443.252 837.391 445.904V491.896C837.391 494.549 839.542 496.699 842.195 496.699H843.261C845.914 496.699 848.065 494.549 848.065 491.896V445.904C848.065 443.252 845.914 441.102 843.261 441.102Z" fill="#F7F8FA"/>
<path opacity="0.51" d="M860.237 245.945H859.172C856.518 245.945 854.367 248.096 854.367 250.748V296.74C854.367 299.392 856.518 301.543 859.172 301.543H860.237C862.891 301.543 865.042 299.392 865.042 296.74V250.748C865.042 248.096 862.891 245.945 860.237 245.945Z" fill="#F7F8FA"/>
<path opacity="0.51" d="M860.237 311H859.172C856.518 311 854.367 313.15 854.367 315.803V361.795C854.367 364.447 856.518 366.597 859.172 366.597H860.237C862.891 366.597 865.042 364.447 865.042 361.795V315.803C865.042 313.15 862.891 311 860.237 311Z" fill="#F7F8FA"/>
<path opacity="0.51" d="M860.237 376.051H859.172C856.518 376.051 854.367 378.201 854.367 380.853V426.845C854.367 429.498 856.518 431.648 859.172 431.648H860.237C862.891 431.648 865.042 429.498 865.042 426.845V380.853C865.042 378.201 862.891 376.051 860.237 376.051Z" fill="#F7F8FA"/>
<path opacity="0.51" d="M860.237 441.102H859.172C856.518 441.102 854.367 443.252 854.367 445.904V491.896C854.367 494.549 856.518 496.699 859.172 496.699H860.237C862.891 496.699 865.042 494.549 865.042 491.896V445.904C865.042 443.252 862.891 441.102 860.237 441.102Z" fill="#F7F8FA"/>
<path opacity="0.51" d="M878.518 245.945H877.453C874.8 245.945 872.648 248.096 872.648 250.748V296.74C872.648 299.392 874.8 301.543 877.453 301.543H878.518C881.172 301.543 883.323 299.392 883.323 296.74V250.748C883.323 248.096 881.172 245.945 878.518 245.945Z" fill="#F7F8FA"/>
<path opacity="0.51" d="M878.518 311H877.453C874.8 311 872.648 313.15 872.648 315.803V361.795C872.648 364.447 874.8 366.597 877.453 366.597H878.518C881.172 366.597 883.323 364.447 883.323 361.795V315.803C883.323 313.15 881.172 311 878.518 311Z" fill="#F7F8FA"/>
<path opacity="0.51" d="M878.518 376.051H877.453C874.8 376.051 872.648 378.201 872.648 380.853V426.845C872.648 429.498 874.8 431.648 877.453 431.648H878.518C881.172 431.648 883.323 429.498 883.323 426.845V380.853C883.323 378.201 881.172 376.051 878.518 376.051Z" fill="#F7F8FA"/>
<path opacity="0.51" d="M878.518 441.102H877.453C874.8 441.102 872.648 443.252 872.648 445.904V491.896C872.648 494.549 874.8 496.699 877.453 496.699H878.518C881.172 496.699 883.323 494.549 883.323 491.896V445.904C883.323 443.252 881.172 441.102 878.518 441.102Z" fill="#F7F8FA"/>
<path opacity="0.51" d="M896.167 245.945H895.102C892.448 245.945 890.297 248.096 890.297 250.748V296.74C890.297 299.392 892.448 301.543 895.102 301.543H896.167C898.821 301.543 900.972 299.392 900.972 296.74V250.748C900.972 248.096 898.821 245.945 896.167 245.945Z" fill="#F7F8FA"/>
<path opacity="0.51" d="M896.167 311H895.102C892.448 311 890.297 313.15 890.297 315.803V361.795C890.297 364.447 892.448 366.597 895.102 366.597H896.167C898.821 366.597 900.972 364.447 900.972 361.795V315.803C900.972 313.15 898.821 311 896.167 311Z" fill="#F7F8FA"/>
<path opacity="0.51" d="M896.167 376.051H895.102C892.448 376.051 890.297 378.201 890.297 380.853V426.845C890.297 429.498 892.448 431.648 895.102 431.648H896.167C898.821 431.648 900.972 429.498 900.972 426.845V380.853C900.972 378.201 898.821 376.051 896.167 376.051Z" fill="#F7F8FA"/>
<path opacity="0.51" d="M896.167 441.102H895.102C892.448 441.102 890.297 443.252 890.297 445.904V491.896C890.297 494.549 892.448 496.699 895.102 496.699H896.167C898.821 496.699 900.972 494.549 900.972 491.896V445.904C900.972 443.252 898.821 441.102 896.167 441.102Z" fill="#F7F8FA"/>
<path opacity="0.51" d="M913.433 245.945H912.367C909.714 245.945 907.562 248.096 907.562 250.748V296.74C907.562 299.392 909.714 301.543 912.367 301.543H913.433C916.086 301.543 918.237 299.392 918.237 296.74V250.748C918.237 248.096 916.086 245.945 913.433 245.945Z" fill="#F7F8FA"/>
<path opacity="0.51" d="M913.433 311H912.367C909.714 311 907.562 313.15 907.562 315.803V361.795C907.562 364.447 909.714 366.597 912.367 366.597H913.433C916.086 366.597 918.237 364.447 918.237 361.795V315.803C918.237 313.15 916.086 311 913.433 311Z" fill="#F7F8FA"/>
<path opacity="0.51" d="M913.433 376.051H912.367C909.714 376.051 907.562 378.201 907.562 380.853V426.845C907.562 429.498 909.714 431.648 912.367 431.648H913.433C916.086 431.648 918.237 429.498 918.237 426.845V380.853C918.237 378.201 916.086 376.051 913.433 376.051Z" fill="#F7F8FA"/>
<path opacity="0.51" d="M913.433 441.102H912.367C909.714 441.102 907.562 443.252 907.562 445.904V491.896C907.562 494.549 909.714 496.699 912.367 496.699H913.433C916.086 496.699 918.237 494.549 918.237 491.896V445.904C918.237 443.252 916.086 441.102 913.433 441.102Z" fill="#F7F8FA"/>
</g>
<g opacity="0.15">
<path opacity="0.15" d="M826.222 399.336H825.156C822.503 399.336 820.352 401.486 820.352 404.139V450.131C820.352 452.783 822.503 454.933 825.156 454.933H826.222C828.875 454.933 831.026 452.783 831.026 450.131V404.139C831.026 401.486 828.875 399.336 826.222 399.336Z" fill="#F7F8FA"/>
<path opacity="0.15" d="M826.222 464.387H825.156C822.503 464.387 820.352 466.537 820.352 469.189V515.181C820.352 517.834 822.503 519.984 825.156 519.984H826.222C828.875 519.984 831.026 517.834 831.026 515.181V469.189C831.026 466.537 828.875 464.387 826.222 464.387Z" fill="#F7F8FA"/>
<path opacity="0.15" d="M826.222 529.438H825.156C822.503 529.438 820.352 531.588 820.352 534.24V580.232C820.352 582.885 822.503 585.035 825.156 585.035H826.222C828.875 585.035 831.026 582.885 831.026 580.232V534.24C831.026 531.588 828.875 529.438 826.222 529.438Z" fill="#F7F8FA"/>
<path opacity="0.15" d="M826.222 594.492H825.156C822.503 594.492 820.352 596.642 820.352 599.295V645.287C820.352 647.939 822.503 650.089 825.156 650.089H826.222C828.875 650.089 831.026 647.939 831.026 645.287V599.295C831.026 596.642 828.875 594.492 826.222 594.492Z" fill="#F7F8FA"/>
<path opacity="0.15" d="M843.261 399.336H842.195C839.542 399.336 837.391 401.486 837.391 404.139V450.131C837.391 452.783 839.542 454.933 842.195 454.933H843.261C845.914 454.933 848.065 452.783 848.065 450.131V404.139C848.065 401.486 845.914 399.336 843.261 399.336Z" fill="#F7F8FA"/>
<path opacity="0.15" d="M843.261 464.387H842.195C839.542 464.387 837.391 466.537 837.391 469.189V515.181C837.391 517.834 839.542 519.984 842.195 519.984H843.261C845.914 519.984 848.065 517.834 848.065 515.181V469.189C848.065 466.537 845.914 464.387 843.261 464.387Z" fill="#F7F8FA"/>
<path opacity="0.15" d="M843.261 529.438H842.195C839.542 529.438 837.391 531.588 837.391 534.24V580.232C837.391 582.885 839.542 585.035 842.195 585.035H843.261C845.914 585.035 848.065 582.885 848.065 580.232V534.24C848.065 531.588 845.914 529.438 843.261 529.438Z" fill="#F7F8FA"/>
<path opacity="0.15" d="M843.261 594.492H842.195C839.542 594.492 837.391 596.642 837.391 599.295V645.287C837.391 647.939 839.542 650.089 842.195 650.089H843.261C845.914 650.089 848.065 647.939 848.065 645.287V599.295C848.065 596.642 845.914 594.492 843.261 594.492Z" fill="#F7F8FA"/>
<path opacity="0.15" d="M860.237 399.336H859.172C856.518 399.336 854.367 401.486 854.367 404.139V450.131C854.367 452.783 856.518 454.933 859.172 454.933H860.237C862.891 454.933 865.042 452.783 865.042 450.131V404.139C865.042 401.486 862.891 399.336 860.237 399.336Z" fill="#F7F8FA"/>
<path opacity="0.15" d="M860.237 464.387H859.172C856.518 464.387 854.367 466.537 854.367 469.189V515.181C854.367 517.834 856.518 519.984 859.172 519.984H860.237C862.891 519.984 865.042 517.834 865.042 515.181V469.189C865.042 466.537 862.891 464.387 860.237 464.387Z" fill="#F7F8FA"/>
<path opacity="0.15" d="M860.237 529.438H859.172C856.518 529.438 854.367 531.588 854.367 534.24V580.232C854.367 582.885 856.518 585.035 859.172 585.035H860.237C862.891 585.035 865.042 582.885 865.042 580.232V534.24C865.042 531.588 862.891 529.438 860.237 529.438Z" fill="#F7F8FA"/>
<path opacity="0.15" d="M860.237 594.492H859.172C856.518 594.492 854.367 596.642 854.367 599.295V645.287C854.367 647.939 856.518 650.089 859.172 650.089H860.237C862.891 650.089 865.042 647.939 865.042 645.287V599.295C865.042 596.642 862.891 594.492 860.237 594.492Z" fill="#F7F8FA"/>
<path opacity="0.15" d="M878.518 399.336H877.453C874.8 399.336 872.648 401.486 872.648 404.139V450.131C872.648 452.783 874.8 454.933 877.453 454.933H878.518C881.172 454.933 883.323 452.783 883.323 450.131V404.139C883.323 401.486 881.172 399.336 878.518 399.336Z" fill="#F7F8FA"/>
<path opacity="0.15" d="M878.518 464.387H877.453C874.8 464.387 872.648 466.537 872.648 469.189V515.181C872.648 517.834 874.8 519.984 877.453 519.984H878.518C881.172 519.984 883.323 517.834 883.323 515.181V469.189C883.323 466.537 881.172 464.387 878.518 464.387Z" fill="#F7F8FA"/>
<path opacity="0.15" d="M878.518 529.438H877.453C874.8 529.438 872.648 531.588 872.648 534.24V580.232C872.648 582.885 874.8 585.035 877.453 585.035H878.518C881.172 585.035 883.323 582.885 883.323 580.232V534.24C883.323 531.588 881.172 529.438 878.518 529.438Z" fill="#F7F8FA"/>
<path opacity="0.15" d="M878.518 594.492H877.453C874.8 594.492 872.648 596.642 872.648 599.295V645.287C872.648 647.939 874.8 650.089 877.453 650.089H878.518C881.172 650.089 883.323 647.939 883.323 645.287V599.295C883.323 596.642 881.172 594.492 878.518 594.492Z" fill="#F7F8FA"/>
<path opacity="0.15" d="M896.167 399.336H895.102C892.448 399.336 890.297 401.486 890.297 404.139V450.131C890.297 452.783 892.448 454.933 895.102 454.933H896.167C898.821 454.933 900.972 452.783 900.972 450.131V404.139C900.972 401.486 898.821 399.336 896.167 399.336Z" fill="#F7F8FA"/>
<path opacity="0.15" d="M896.167 464.387H895.102C892.448 464.387 890.297 466.537 890.297 469.189V515.181C890.297 517.834 892.448 519.984 895.102 519.984H896.167C898.821 519.984 900.972 517.834 900.972 515.181V469.189C900.972 466.537 898.821 464.387 896.167 464.387Z" fill="#F7F8FA"/>
<path opacity="0.15" d="M896.167 529.438H895.102C892.448 529.438 890.297 531.588 890.297 534.24V580.232C890.297 582.885 892.448 585.035 895.102 585.035H896.167C898.821 585.035 900.972 582.885 900.972 580.232V534.24C900.972 531.588 898.821 529.438 896.167 529.438Z" fill="#F7F8FA"/>
<path opacity="0.15" d="M896.167 594.492H895.102C892.448 594.492 890.297 596.642 890.297 599.295V645.287C890.297 647.939 892.448 650.089 895.102 650.089H896.167C898.821 650.089 900.972 647.939 900.972 645.287V599.295C900.972 596.642 898.821 594.492 896.167 594.492Z" fill="#F7F8FA"/>
<path opacity="0.15" d="M913.433 399.336H912.367C909.714 399.336 907.562 401.486 907.562 404.139V450.131C907.562 452.783 909.714 454.933 912.367 454.933H913.433C916.086 454.933 918.237 452.783 918.237 450.131V404.139C918.237 401.486 916.086 399.336 913.433 399.336Z" fill="#F7F8FA"/>
<path opacity="0.15" d="M913.433 464.387H912.367C909.714 464.387 907.562 466.537 907.562 469.189V515.181C907.562 517.834 909.714 519.984 912.367 519.984H913.433C916.086 519.984 918.237 517.834 918.237 515.181V469.189C918.237 466.537 916.086 464.387 913.433 464.387Z" fill="#F7F8FA"/>
<path opacity="0.15" d="M913.433 529.438H912.367C909.714 529.438 907.562 531.588 907.562 534.24V580.232C907.562 582.885 909.714 585.035 912.367 585.035H913.433C916.086 585.035 918.237 582.885 918.237 580.232V534.24C918.237 531.588 916.086 529.438 913.433 529.438Z" fill="#F7F8FA"/>
<path opacity="0.15" d="M913.433 594.492H912.367C909.714 594.492 907.562 596.642 907.562 599.295V645.287C907.562 647.939 909.714 650.089 912.367 650.089H913.433C916.086 650.089 918.237 647.939 918.237 645.287V599.295C918.237 596.642 916.086 594.492 913.433 594.492Z" fill="#F7F8FA"/>
</g>
<path d="M465.628 510.508H525.543V524.708H455.25C454.744 524.708 454.259 524.508 453.902 524.15C453.545 523.793 453.344 523.308 453.344 522.803C453.344 519.547 454.638 516.425 456.941 514.123C459.244 511.82 462.368 510.527 465.626 510.527L465.628 510.508Z" fill="#F7F8FA"/>
<path d="M530.136 524.711H602.344V510.51H530.136V524.711Z" fill="#F7F8FA"/>
<path d="M607.323 524.32H679.531V510.12H607.323V524.32Z" fill="#F7F8FA"/>
<g opacity="0.26">
<path opacity="0.26" d="M512.863 581.125H509.695C508.53 581.125 507.586 582.069 507.586 583.233V597.738C507.586 598.903 508.53 599.847 509.695 599.847H512.863C514.028 599.847 514.972 598.903 514.972 597.738V583.233C514.972 582.069 514.028 581.125 512.863 581.125Z" fill="#F7F8FA"/>
<path opacity="0.26" d="M512.863 606.516H509.695C508.53 606.516 507.586 607.459 507.586 608.624V623.129C507.586 624.293 508.53 625.237 509.695 625.237H512.863C514.028 625.237 514.972 624.293 514.972 623.129V608.624C514.972 607.459 514.028 606.516 512.863 606.516Z" fill="#F7F8FA"/>
<path opacity="0.26" d="M512.863 631.906H509.695C508.53 631.906 507.586 632.85 507.586 634.014V648.52C507.586 649.684 508.53 650.628 509.695 650.628H512.863C514.028 650.628 514.972 649.684 514.972 648.52V634.014C514.972 632.85 514.028 631.906 512.863 631.906Z" fill="#F7F8FA"/>
<path opacity="0.26" d="M523.136 581.125H519.969C518.804 581.125 517.859 582.069 517.859 583.233V597.738C517.859 598.903 518.804 599.847 519.969 599.847H523.136C524.301 599.847 525.246 598.903 525.246 597.738V583.233C525.246 582.069 524.301 581.125 523.136 581.125Z" fill="#F7F8FA"/>
<path opacity="0.26" d="M523.136 606.516H519.969C518.804 606.516 517.859 607.459 517.859 608.624V623.129C517.859 624.293 518.804 625.237 519.969 625.237H523.136C524.301 625.237 525.246 624.293 525.246 623.129V608.624C525.246 607.459 524.301 606.516 523.136 606.516Z" fill="#F7F8FA"/>
<path opacity="0.26" d="M523.136 631.906H519.969C518.804 631.906 517.859 632.85 517.859 634.014V648.52C517.859 649.684 518.804 650.628 519.969 650.628H523.136C524.301 650.628 525.246 649.684 525.246 648.52V634.014C525.246 632.85 524.301 631.906 523.136 631.906Z" fill="#F7F8FA"/>
<path opacity="0.26" d="M533.715 581.125H530.547C529.382 581.125 528.438 582.069 528.438 583.233V597.738C528.438 598.903 529.382 599.847 530.547 599.847H533.715C534.879 599.847 535.824 598.903 535.824 597.738V583.233C535.824 582.069 534.879 581.125 533.715 581.125Z" fill="#F7F8FA"/>
<path opacity="0.26" d="M533.715 606.516H530.547C529.382 606.516 528.438 607.459 528.438 608.624V623.129C528.438 624.293 529.382 625.237 530.547 625.237H533.715C534.879 625.237 535.824 624.293 535.824 623.129V608.624C535.824 607.459 534.879 606.516 533.715 606.516Z" fill="#F7F8FA"/>
<path opacity="0.26" d="M533.715 631.906H530.547C529.382 631.906 528.438 632.85 528.438 634.014V648.52C528.438 649.684 529.382 650.628 530.547 650.628H533.715C534.879 650.628 535.824 649.684 535.824 648.52V634.014C535.824 632.85 534.879 631.906 533.715 631.906Z" fill="#F7F8FA"/>
<path opacity="0.26" d="M544.293 581.125H541.125C539.96 581.125 539.016 582.069 539.016 583.233V597.738C539.016 598.903 539.96 599.847 541.125 599.847H544.293C545.458 599.847 546.402 598.903 546.402 597.738V583.233C546.402 582.069 545.458 581.125 544.293 581.125Z" fill="#F7F8FA"/>
<path opacity="0.26" d="M544.293 606.516H541.125C539.96 606.516 539.016 607.459 539.016 608.624V623.129C539.016 624.293 539.96 625.237 541.125 625.237H544.293C545.458 625.237 546.402 624.293 546.402 623.129V608.624C546.402 607.459 545.458 606.516 544.293 606.516Z" fill="#F7F8FA"/>
<path opacity="0.26" d="M544.293 631.906H541.125C539.96 631.906 539.016 632.85 539.016 634.014V648.52C539.016 649.684 539.96 650.628 541.125 650.628H544.293C545.458 650.628 546.402 649.684 546.402 648.52V634.014C546.402 632.85 545.458 631.906 544.293 631.906Z" fill="#F7F8FA"/>
</g>
<g opacity="0.26">
<path opacity="0.26" d="M454.293 581.125H451.125C449.96 581.125 449.016 582.069 449.016 583.233V597.738C449.016 598.903 449.96 599.847 451.125 599.847H454.293C455.457 599.847 456.402 598.903 456.402 597.738V583.233C456.402 582.069 455.457 581.125 454.293 581.125Z" fill="#F7F8FA"/>
<path opacity="0.26" d="M454.293 606.516H451.125C449.96 606.516 449.016 607.459 449.016 608.624V623.129C449.016 624.293 449.96 625.237 451.125 625.237H454.293C455.457 625.237 456.402 624.293 456.402 623.129V608.624C456.402 607.459 455.457 606.516 454.293 606.516Z" fill="#F7F8FA"/>
<path opacity="0.26" d="M454.293 631.906H451.125C449.96 631.906 449.016 632.85 449.016 634.014V648.52C449.016 649.684 449.96 650.628 451.125 650.628H454.293C455.457 650.628 456.402 649.684 456.402 648.52V634.014C456.402 632.85 455.457 631.906 454.293 631.906Z" fill="#F7F8FA"/>
<path opacity="0.26" d="M464.566 581.125H461.398C460.233 581.125 459.289 582.069 459.289 583.233V597.738C459.289 598.903 460.233 599.847 461.398 599.847H464.566C465.731 599.847 466.675 598.903 466.675 597.738V583.233C466.675 582.069 465.731 581.125 464.566 581.125Z" fill="#F7F8FA"/>
<path opacity="0.26" d="M464.566 606.516H461.398C460.233 606.516 459.289 607.459 459.289 608.624V623.129C459.289 624.293 460.233 625.237 461.398 625.237H464.566C465.731 625.237 466.675 624.293 466.675 623.129V608.624C466.675 607.459 465.731 606.516 464.566 606.516Z" fill="#F7F8FA"/>
<path opacity="0.26" d="M464.566 631.906H461.398C460.233 631.906 459.289 632.85 459.289 634.014V648.52C459.289 649.684 460.233 650.628 461.398 650.628H464.566C465.731 650.628 466.675 649.684 466.675 648.52V634.014C466.675 632.85 465.731 631.906 464.566 631.906Z" fill="#F7F8FA"/>
<path opacity="0.26" d="M475.144 581.125H471.976C470.811 581.125 469.867 582.069 469.867 583.233V597.738C469.867 598.903 470.811 599.847 471.976 599.847H475.144C476.309 599.847 477.253 598.903 477.253 597.738V583.233C477.253 582.069 476.309 581.125 475.144 581.125Z" fill="#F7F8FA"/>
<path opacity="0.26" d="M475.144 606.516H471.976C470.811 606.516 469.867 607.459 469.867 608.624V623.129C469.867 624.293 470.811 625.237 471.976 625.237H475.144C476.309 625.237 477.253 624.293 477.253 623.129V608.624C477.253 607.459 476.309 606.516 475.144 606.516Z" fill="#F7F8FA"/>
<path opacity="0.26" d="M475.144 631.906H471.976C470.811 631.906 469.867 632.85 469.867 634.014V648.52C469.867 649.684 470.811 650.628 471.976 650.628H475.144C476.309 650.628 477.253 649.684 477.253 648.52V634.014C477.253 632.85 476.309 631.906 475.144 631.906Z" fill="#F7F8FA"/>
<path opacity="0.26" d="M485.722 581.125H482.554C481.39 581.125 480.445 582.069 480.445 583.233V597.738C480.445 598.903 481.39 599.847 482.554 599.847H485.722C486.887 599.847 487.831 598.903 487.831 597.738V583.233C487.831 582.069 486.887 581.125 485.722 581.125Z" fill="#F7F8FA"/>
<path opacity="0.26" d="M485.722 606.516H482.554C481.39 606.516 480.445 607.459 480.445 608.624V623.129C480.445 624.293 481.39 625.237 482.554 625.237H485.722C486.887 625.237 487.831 624.293 487.831 623.129V608.624C487.831 607.459 486.887 606.516 485.722 606.516Z" fill="#F7F8FA"/>
<path opacity="0.26" d="M485.722 631.906H482.554C481.39 631.906 480.445 632.85 480.445 634.014V648.52C480.445 649.684 481.39 650.628 482.554 650.628H485.722C486.887 650.628 487.831 649.684 487.831 648.52V634.014C487.831 632.85 486.887 631.906 485.722 631.906Z" fill="#F7F8FA"/>
</g>
<g opacity="0.26">
<path opacity="0.26" d="M394.3 581.125H391.133C389.968 581.125 389.023 582.069 389.023 583.233V597.738C389.023 598.903 389.968 599.847 391.133 599.847H394.3C395.465 599.847 396.41 598.903 396.41 597.738V583.233C396.41 582.069 395.465 581.125 394.3 581.125Z" fill="#F7F8FA"/>
<path opacity="0.26" d="M394.3 606.516H391.133C389.968 606.516 389.023 607.459 389.023 608.624V623.129C389.023 624.293 389.968 625.237 391.133 625.237H394.3C395.465 625.237 396.41 624.293 396.41 623.129V608.624C396.41 607.459 395.465 606.516 394.3 606.516Z" fill="#F7F8FA"/>
<path opacity="0.26" d="M394.3 631.906H391.133C389.968 631.906 389.023 632.85 389.023 634.014V648.52C389.023 649.684 389.968 650.628 391.133 650.628H394.3C395.465 650.628 396.41 649.684 396.41 648.52V634.014C396.41 632.85 395.465 631.906 394.3 631.906Z" fill="#F7F8FA"/>
<path opacity="0.26" d="M404.574 581.125H401.406C400.241 581.125 399.297 582.069 399.297 583.233V597.738C399.297 598.903 400.241 599.847 401.406 599.847H404.574C405.739 599.847 406.683 598.903 406.683 597.738V583.233C406.683 582.069 405.739 581.125 404.574 581.125Z" fill="#F7F8FA"/>
<path opacity="0.26" d="M404.574 606.516H401.406C400.241 606.516 399.297 607.459 399.297 608.624V623.129C399.297 624.293 400.241 625.237 401.406 625.237H404.574C405.739 625.237 406.683 624.293 406.683 623.129V608.624C406.683 607.459 405.739 606.516 404.574 606.516Z" fill="#F7F8FA"/>
<path opacity="0.26" d="M404.574 631.906H401.406C400.241 631.906 399.297 632.85 399.297 634.014V648.52C399.297 649.684 400.241 650.628 401.406 650.628H404.574C405.739 650.628 406.683 649.684 406.683 648.52V634.014C406.683 632.85 405.739 631.906 404.574 631.906Z" fill="#F7F8FA"/>
<path opacity="0.26" d="M415.152 581.125H411.984C410.819 581.125 409.875 582.069 409.875 583.233V597.738C409.875 598.903 410.819 599.847 411.984 599.847H415.152C416.317 599.847 417.261 598.903 417.261 597.738V583.233C417.261 582.069 416.317 581.125 415.152 581.125Z" fill="#F7F8FA"/>
<path opacity="0.26" d="M415.152 606.516H411.984C410.819 606.516 409.875 607.459 409.875 608.624V623.129C409.875 624.293 410.819 625.237 411.984 625.237H415.152C416.317 625.237 417.261 624.293 417.261 623.129V608.624C417.261 607.459 416.317 606.516 415.152 606.516Z" fill="#F7F8FA"/>
<path opacity="0.26" d="M415.152 631.906H411.984C410.819 631.906 409.875 632.85 409.875 634.014V648.52C409.875 649.684 410.819 650.628 411.984 650.628H415.152C416.317 650.628 417.261 649.684 417.261 648.52V634.014C417.261 632.85 416.317 631.906 415.152 631.906Z" fill="#F7F8FA"/>
<path opacity="0.26" d="M425.73 581.125H422.562C421.397 581.125 420.453 582.069 420.453 583.233V597.738C420.453 598.903 421.397 599.847 422.562 599.847H425.73C426.895 599.847 427.839 598.903 427.839 597.738V583.233C427.839 582.069 426.895 581.125 425.73 581.125Z" fill="#F7F8FA"/>
<path opacity="0.26" d="M425.73 606.516H422.562C421.397 606.516 420.453 607.459 420.453 608.624V623.129C420.453 624.293 421.397 625.237 422.562 625.237H425.73C426.895 625.237 427.839 624.293 427.839 623.129V608.624C427.839 607.459 426.895 606.516 425.73 606.516Z" fill="#F7F8FA"/>
<path opacity="0.26" d="M425.73 631.906H422.562C421.397 631.906 420.453 632.85 420.453 634.014V648.52C420.453 649.684 421.397 650.628 422.562 650.628H425.73C426.895 650.628 427.839 649.684 427.839 648.52V634.014C427.839 632.85 426.895 631.906 425.73 631.906Z" fill="#F7F8FA"/>
</g>
<path d="M640.764 570.52H577.56C576.159 570.52 575.023 571.655 575.023 573.055C575.023 574.456 576.159 575.591 577.56 575.591H640.764C642.165 575.591 643.301 574.456 643.301 573.055C643.301 571.655 642.165 570.52 640.764 570.52Z" fill="#2448B1"/>
<path d="M660.223 570.52H656.037C654.636 570.52 653.5 571.655 653.5 573.055C653.5 574.456 654.636 575.591 656.037 575.591H660.223C661.624 575.591 662.76 574.456 662.76 573.055C662.76 571.655 661.624 570.52 660.223 570.52Z" fill="#2448B1"/>
<path d="M591.278 553.953H587.092C585.691 553.953 584.555 555.088 584.555 556.489C584.555 557.889 585.691 559.025 587.092 559.025H591.278C592.679 559.025 593.815 557.889 593.815 556.489C593.815 555.088 592.679 553.953 591.278 553.953Z" fill="#2448B1"/>
<path d="M662.202 562.547H598.998C597.597 562.547 596.461 563.682 596.461 565.083C596.461 566.483 597.597 567.618 598.998 567.618H662.202C663.603 567.618 664.739 566.483 664.739 565.083C664.739 563.682 663.603 562.547 662.202 562.547Z" fill="#2448B1"/>
<path d="M674.921 578.492H611.717C610.315 578.492 609.18 579.627 609.18 581.028C609.18 582.428 610.315 583.564 611.717 583.564H674.921C676.322 583.564 677.457 582.428 677.457 581.028C677.457 579.627 676.322 578.492 674.921 578.492Z" fill="#2448B1"/>
<path d="M589.485 588.055H579.638C578.237 588.055 577.102 589.19 577.102 590.59C577.102 591.991 578.237 593.126 579.638 593.126H589.485C590.886 593.126 592.022 591.991 592.022 590.59C592.022 589.19 590.886 588.055 589.485 588.055Z" fill="#2448B1"/>
<path d="M618.298 588.055H602.459C601.058 588.055 599.922 589.19 599.922 590.59C599.922 591.991 601.058 593.126 602.459 593.126H618.298C619.699 593.126 620.835 591.991 620.835 590.59C620.835 589.19 619.699 588.055 618.298 588.055Z" fill="#2448B1"/>
<path d="M679.538 542.25H616.334C614.933 542.25 613.797 543.385 613.797 544.786C613.797 546.186 614.933 547.321 616.334 547.321H679.538C680.939 547.321 682.075 546.186 682.075 544.786C682.075 543.385 680.939 542.25 679.538 542.25Z" fill="#2448B1"/>
<g opacity="0.8">
<path opacity="0.8" d="M747.727 620.069V564.829C747.727 563.605 746.734 562.613 745.509 562.613H745.507C744.283 562.613 743.29 563.605 743.29 564.829V620.069C743.29 621.293 744.283 622.285 745.507 622.285H745.509C746.734 622.285 747.727 621.293 747.727 620.069Z" fill="#F7F8FA"/>
<path opacity="0.8" d="M747.727 637.055V633.396C747.727 632.172 746.734 631.18 745.509 631.18H745.507C744.283 631.18 743.29 632.172 743.29 633.396V637.055C743.29 638.279 744.283 639.272 745.507 639.272H745.509C746.734 639.272 747.727 638.279 747.727 637.055Z" fill="#F7F8FA"/>
<path opacity="0.8" d="M754.695 638.799V583.56C754.695 582.336 753.703 581.344 752.478 581.344H752.476C751.252 581.344 750.259 582.336 750.259 583.56V638.799C750.259 640.023 751.252 641.015 752.476 641.015H752.478C753.703 641.015 754.695 640.023 754.695 638.799Z" fill="#F7F8FA"/>
<path opacity="0.8" d="M740.75 649.901V594.661C740.75 593.437 739.757 592.445 738.533 592.445H738.531C737.306 592.445 736.314 593.437 736.314 594.661V649.901C736.314 651.125 737.306 652.117 738.531 652.117H738.533C739.757 652.117 740.75 651.125 740.75 649.901Z" fill="#F7F8FA"/>
<path opacity="0.8" d="M772.453 653.948V598.708C772.453 597.484 771.46 596.492 770.236 596.492H770.234C769.009 596.492 768.017 597.484 768.017 598.708V653.948C768.017 655.172 769.009 656.164 770.234 656.164H770.236C771.46 656.164 772.453 655.172 772.453 653.948Z" fill="#F7F8FA"/>
</g>
<g opacity="0.48">
<path opacity="0.48" d="M243.529 609.634C208.699 607.697 173.875 605.356 138.99 606.597C115.446 607.433 91.8815 609.983 68.9817 615.643C57.3779 618.493 46.0031 622.205 34.9519 626.747C25.5137 630.644 15.4106 634.824 7.76607 641.775C4.32073 644.912 1.66949 648.624 0.0368217 652.993C-0.20882 653.651 0.845746 653.935 1.09562 653.283C5.27577 642.088 16.5732 636.234 26.7949 631.494C37.6525 626.484 48.8835 622.325 60.3864 619.055C83.4937 612.443 107.437 609.249 131.404 608.008C168.789 606.072 206.156 608.643 243.498 610.713C243.54 610.355 243.551 609.994 243.529 609.634Z" fill="#F7F8FA"/>
<path opacity="0.48" d="M684.702 471.142C667.738 483.537 650.437 495.517 632.31 506.18C615.287 516.194 597.639 525.097 580.005 533.989C558.944 544.614 537.717 554.896 516.117 564.307C516.301 564.685 516.431 565.087 516.505 565.501C532.982 558.347 549.239 550.663 565.282 542.62C584.23 533.133 603.259 523.731 621.788 513.442C638.712 504.045 654.983 493.597 670.808 482.455C675.657 479.043 680.473 475.586 685.254 472.084C685.816 471.675 685.271 470.727 684.702 471.142Z" fill="#F7F8FA"/>
<path opacity="0.48" d="M810.216 358.945C807.323 361.47 804.444 364.01 801.58 366.565C798.763 369.077 795.96 371.603 793.169 374.145C791.616 375.556 790.07 376.967 788.531 378.378C788.012 378.854 788.785 379.625 789.302 379.151C792.051 376.626 794.811 374.114 797.582 371.613C800.405 369.065 803.243 366.53 806.095 364.008C807.721 362.569 809.352 361.135 810.986 359.707C811.088 359.605 811.145 359.466 811.145 359.322C811.145 359.178 811.088 359.039 810.986 358.937C810.883 358.837 810.745 358.781 810.601 358.781C810.457 358.781 810.319 358.837 810.216 358.937V358.945Z" fill="#F7F8FA"/>
<path opacity="0.48" d="M249.333 -7.8537C308.828 17.2662 373.387 28.8512 431.417 57.6752C451.94 67.8687 471.798 79.5884 490.42 92.9274C508.874 106.141 527.44 121.359 539.937 140.526C550.016 155.96 554.687 174.759 543.772 191.077C536.468 201.996 525.889 212.741 514.872 220.004C509.525 223.532 501.764 227.743 495.178 225.127C483.856 220.629 489.324 204.208 495.578 197.976C503.854 189.732 518.059 187.785 529.129 187.106C545.028 186.126 560.912 188.615 576.548 191.197C643.173 202.202 704.996 230.558 768.953 251.05C831.625 271.138 896.742 286.234 962.984 283.728C1011.53 281.89 1059.85 271.41 1104.56 252.402C1138.11 238.142 1171.3 218.97 1196.64 192.447C1209 179.512 1227.11 157.293 1218.96 137.922C1215.52 129.755 1207.61 124.904 1199.47 122.244C1185.46 117.641 1169.9 117.974 1155.39 119.228C1143.17 120.245 1131.06 122.263 1119.18 125.262C1118.39 125.463 1118.72 126.683 1119.51 126.487C1140.02 121.237 1162.42 118.211 1183.62 120.362C1194.34 121.45 1206.78 124.152 1214.19 132.658C1229.2 149.907 1210.48 175.365 1198.67 188.434C1173.7 216.043 1139.85 235.803 1105.92 250.457C1059.45 270.545 1008.9 281.283 958.3 282.615C889.78 284.418 822.666 267.515 758.089 246.187C725.448 235.408 693.36 223.118 660.881 211.891C628.921 200.832 596.644 192.559 563.125 187.846C548.396 185.776 533.264 184.485 518.516 187.084C509.823 188.615 500.053 191.17 493.88 197.929C488.07 204.299 484.142 216.44 490.811 223.652C500.505 234.115 517.855 220.105 525.124 213.581C539.821 200.389 554.626 184.184 550.896 163.079C547.531 144.105 533.321 128.047 519.762 115.218C502.472 98.8411 482.603 85.1763 462.178 73.0205C439.695 59.6484 416.05 48.3199 391.528 39.1721C360.426 27.5504 328.385 18.719 296.857 8.35398C281.025 3.15067 265.327 -2.46176 249.972 -8.94385C249.234 -9.25742 248.583 -8.16972 249.333 -7.8537Z" fill="#EBEEF2"/>
</g>
</svg>
