<svg width="48" height="48" viewBox="0 0 48 48" fill="none" xmlns="http://www.w3.org/2000/svg">
<path d="M35.0601 15.54C34.9201 15.52 34.7801 15.52 34.6401 15.54C31.5401 15.44 29.0801 12.9 29.0801 9.78C29.0801 6.6 31.6601 4 34.8601 4C38.0401 4 40.6401 6.58 40.6401 9.78C40.6201 12.9 38.1601 15.44 35.0601 15.54Z" fill="#E79CAD"/>
<path d="M41.5802 29.4008C39.3402 30.9008 36.2002 31.4608 33.3002 31.0808C34.0602 29.4408 34.4602 27.6208 34.4802 25.7008C34.4802 23.7008 34.0402 21.8008 33.2002 20.1408C36.1602 19.7408 39.3002 20.3008 41.5602 21.8008C44.7202 23.8808 44.7202 27.3008 41.5802 29.4008Z" fill="#E79CAD"/>
<path d="M12.8798 15.54C13.0198 15.52 13.1598 15.52 13.2998 15.54C16.3998 15.44 18.8598 12.9 18.8598 9.78C18.8598 6.58 16.2798 4 13.0798 4C9.89982 4 7.31982 6.58 7.31982 9.78C7.31982 12.9 9.77982 15.44 12.8798 15.54Z" fill="#E79CAD"/>
<path d="M13.1002 25.7012C13.1002 27.6412 13.5202 29.4812 14.2802 31.1412C11.4602 31.4412 8.52023 30.8412 6.36023 29.4212C3.20023 27.3212 3.20023 23.9012 6.36023 21.8012C8.50023 20.3612 11.5202 19.7812 14.3602 20.1012C13.5402 21.7812 13.1002 23.6812 13.1002 25.7012Z" fill="#E79CAD"/>
<path d="M24.2401 31.74C24.0801 31.72 23.9001 31.72 23.7201 31.74C20.0401 31.62 17.1001 28.6 17.1001 24.88C17.1201 21.08 20.1801 18 24.0001 18C27.8001 18 30.8801 21.08 30.8801 24.88C30.8601 28.6 27.9401 31.62 24.2401 31.74Z" fill="#D34B6A"/>
<path d="M17.7401 35.8813C14.7201 37.9013 14.7201 41.2213 17.7401 43.2213C21.1801 45.5213 26.8201 45.5213 30.2601 43.2213C33.2801 41.2013 33.2801 37.8813 30.2601 35.8813C26.8401 33.5812 21.2001 33.5812 17.7401 35.8813Z" fill="#D34B6A"/>
</svg>
