<svg width="726" height="204" viewBox="0 0 726 204" fill="none" xmlns="http://www.w3.org/2000/svg">
<path opacity="0.05" d="M-74.7165 11.4646C-2.25653 19.7578 157.436 -14.3733 243.155 69.8449C310.751 136.257 383.204 141.84 427.919 121.696C520.827 79.84 618.068 165.468 725.671 171.923" stroke="white" stroke-width="2"/>
<path opacity="0.1" d="M-106.39 89.8435C-33.9297 98.1367 98.2466 -1.62639 194.111 70.833C257.613 118.831 306.111 140.836 360.613 122.833C457.373 90.8726 618.068 185.468 725.672 191.923" stroke="white" stroke-width="3"/>
<circle r="7" transform="matrix(-1 0 0 1 632.611 105.836)" fill="#2F51B5"/>
<circle r="7" transform="matrix(-1 0 0 1 103.611 44.8359)" fill="#3657B5"/>
<circle r="7" transform="matrix(-1 0 0 1 171.611 56.8359)" fill="#3657B5"/>
</svg>
