<svg width="1035" height="359" viewBox="0 0 1035 359" fill="none" xmlns="http://www.w3.org/2000/svg">
<path opacity="0.1" d="M14.9451 314.068C13.9491 313.592 12.7559 314.013 12.2792 315.009L8.36313 323.187C7.89351 324.167 8.29343 325.343 9.26349 325.835L16.4776 329.488C17.477 329.994 17.8659 331.222 17.3401 332.211L13.806 338.858C13.0848 340.215 14.099 341.844 15.6346 341.796L49.0791 340.748C50.6201 340.7 51.5293 338.999 50.7138 337.691L33.6723 310.349C32.8367 309.008 30.8497 309.12 30.1697 310.546L26.839 317.531C26.3634 318.529 25.1688 318.952 24.1716 318.475L14.9451 314.068Z" fill="white"/>
<circle opacity="0.1" r="5" transform="matrix(-0.860564 -0.509342 -0.509342 0.860564 940.85 83.8499)" fill="white"/>
<rect opacity="0.1" width="20" height="20" rx="4" transform="matrix(0.288048 0.957616 0.957616 -0.288048 1009.79 5.76172)" fill="white"/>
<circle opacity="0.2" cx="14.87" cy="24.8719" r="6" transform="rotate(80.9178 14.87 24.8719)" fill="white"/>
</svg>
