<svg width="291" height="431" viewBox="0 0 291 431" fill="none" xmlns="http://www.w3.org/2000/svg">
<path d="M124.339 276.535L122.86 276.287L124.339 276.535ZM186.599 372.796L187.945 373.459L187.945 373.459L186.599 372.796ZM1.71266 409.37C0.917617 409.602 0.461831 410.436 0.694633 411.231L4.48837 424.187C4.72117 424.982 5.5544 425.438 6.34945 425.205C7.14449 424.972 7.60028 424.139 7.36747 423.344L3.99527 411.827L15.5117 408.455C16.3067 408.222 16.7625 407.389 16.5297 406.594C16.2969 405.799 15.4637 405.343 14.6686 405.576L1.71266 409.37ZM287.867 0.40835C286.106 164.453 242.262 248.734 200.602 284.183C179.749 301.927 159.565 307.357 145.452 304.731C138.41 303.421 132.909 300.119 129.471 295.379C126.039 290.647 124.556 284.334 125.819 276.782L122.86 276.287C121.485 284.51 123.07 291.664 127.042 297.14C131.008 302.608 137.244 306.255 144.903 307.68C160.193 310.526 181.264 304.577 202.546 286.468C245.155 250.211 289.101 164.888 290.867 0.440556L287.867 0.40835ZM125.819 276.782C126.868 270.509 129.21 266.09 132.304 263.215C135.389 260.348 139.342 258.904 143.835 258.788C152.892 258.555 164.064 263.745 173.82 273.405C193.24 292.634 206.468 329.045 185.253 372.134L187.945 373.459C209.76 329.151 196.218 291.36 175.93 271.273C165.832 261.275 153.916 255.528 143.758 255.789C138.644 255.921 133.958 257.583 130.261 261.018C126.573 264.446 123.99 269.526 122.86 276.287L125.819 276.782ZM185.253 372.134C172.182 398.683 143.144 417.064 108.946 424.272C74.7753 431.475 35.6993 427.46 2.85404 409.493L1.41433 412.125C34.9521 430.471 74.7691 434.542 109.565 427.208C144.334 419.878 174.338 401.096 187.945 373.459L185.253 372.134Z" fill="#EBEEF2"/>
</svg>
