<svg width="1088" height="112" viewBox="0 0 1088 112" fill="none" xmlns="http://www.w3.org/2000/svg">
<g clip-path="url(#clip0_3776_45624)">
<rect x="-12.5498" y="20.25" width="89.1" height="63.5" rx="1.75" fill="white" stroke="#F5F5F5" stroke-width="0.5"/>
<mask id="mask0_3776_45624" style="mask-type:alpha" maskUnits="userSpaceOnUse" x="-13" y="20" width="90" height="64">
<rect x="-12.5498" y="20.25" width="89.1" height="63.5" rx="1.75" fill="white" stroke="white" stroke-width="0.5"/>
</mask>
<g mask="url(#mask0_3776_45624)">
<path fill-rule="evenodd" clip-rule="evenodd" d="M4.26686 20H-12.7998V37.0667H4.26686V20ZM29.8661 20H12.8002V37.0667H29.8661V45.5993H76.7995V37.066H29.8669V28.5333H76.7995V20H29.8669H29.8661ZM12.8002 62.6667H29.8661V62.6674H76.7995V54.1341H29.8669V45.6H12.8002V62.6667ZM76.8002 71.2H-12.7998V79.7333H76.8002V71.2ZM4.26686 45.6H-12.7998V62.6667H4.26686V45.6Z" fill="#1C6DC1"/>
</g>
</g>
<g clip-path="url(#clip1_3776_45624)">
<rect x="115.2" y="20" width="89.6" height="64" rx="2" fill="white"/>
<mask id="mask1_3776_45624" style="mask-type:alpha" maskUnits="userSpaceOnUse" x="115" y="20" width="90" height="64">
<rect x="115.2" y="20" width="89.6" height="64" rx="2" fill="white"/>
</mask>
<g mask="url(#mask1_3776_45624)">
<path fill-rule="evenodd" clip-rule="evenodd" d="M204.8 20H115.2V24.2667H204.8V20ZM204.8 28.534H115.2V32.8007H204.8V28.534ZM115.2 37.066H204.8V41.3326H115.2V37.066ZM204.8 45.6H115.2V49.8667H204.8V45.6ZM115.2 54.1341H204.8V58.4007H115.2V54.1341ZM204.8 62.666H115.2V66.9326H204.8V62.666ZM115.2 71.2H204.8V75.4667H115.2V71.2ZM204.8 79.734H115.2V84.0007H204.8V79.734Z" fill="#D02F44"/>
<rect x="115.2" y="20" width="38.4" height="29.8667" fill="#46467F"/>
<g filter="url(#filter0_d_3776_45624)">
<path fill-rule="evenodd" clip-rule="evenodd" d="M123.732 26.399C123.732 27.5772 122.777 28.5323 121.599 28.5323C120.421 28.5323 119.466 27.5772 119.466 26.399C119.466 25.2208 120.421 24.2656 121.599 24.2656C122.777 24.2656 123.732 25.2208 123.732 26.399ZM132.267 26.399C132.267 27.5772 131.311 28.5323 130.133 28.5323C128.955 28.5323 128 27.5772 128 26.399C128 25.2208 128.955 24.2656 130.133 24.2656C131.311 24.2656 132.267 25.2208 132.267 26.399ZM138.665 28.5323C139.843 28.5323 140.798 27.5772 140.798 26.399C140.798 25.2208 139.843 24.2656 138.665 24.2656C137.487 24.2656 136.532 25.2208 136.532 26.399C136.532 27.5772 137.487 28.5323 138.665 28.5323ZM149.332 26.399C149.332 27.5772 148.377 28.5323 147.199 28.5323C146.021 28.5323 145.066 27.5772 145.066 26.399C145.066 25.2208 146.021 24.2656 147.199 24.2656C148.377 24.2656 149.332 25.2208 149.332 26.399ZM125.865 32.7982C127.043 32.7982 127.998 31.8431 127.998 30.6649C127.998 29.4867 127.043 28.5316 125.865 28.5316C124.687 28.5316 123.732 29.4867 123.732 30.6649C123.732 31.8431 124.687 32.7982 125.865 32.7982ZM136.532 30.6649C136.532 31.8431 135.577 32.7982 134.399 32.7982C133.221 32.7982 132.266 31.8431 132.266 30.6649C132.266 29.4867 133.221 28.5316 134.399 28.5316C135.577 28.5316 136.532 29.4867 136.532 30.6649ZM142.933 32.7982C144.111 32.7982 145.067 31.8431 145.067 30.6649C145.067 29.4867 144.111 28.5316 142.933 28.5316C141.755 28.5316 140.8 29.4867 140.8 30.6649C140.8 31.8431 141.755 32.7982 142.933 32.7982ZM149.332 34.933C149.332 36.1112 148.377 37.0663 147.199 37.0663C146.021 37.0663 145.066 36.1112 145.066 34.933C145.066 33.7548 146.021 32.7997 147.199 32.7997C148.377 32.7997 149.332 33.7548 149.332 34.933ZM138.665 37.0663C139.843 37.0663 140.798 36.1112 140.798 34.933C140.798 33.7548 139.843 32.7997 138.665 32.7997C137.487 32.7997 136.532 33.7548 136.532 34.933C136.532 36.1112 137.487 37.0663 138.665 37.0663ZM132.267 34.933C132.267 36.1112 131.311 37.0663 130.133 37.0663C128.955 37.0663 128 36.1112 128 34.933C128 33.7548 128.955 32.7997 130.133 32.7997C131.311 32.7997 132.267 33.7548 132.267 34.933ZM121.599 37.0663C122.777 37.0663 123.732 36.1112 123.732 34.933C123.732 33.7548 122.777 32.7997 121.599 32.7997C120.421 32.7997 119.466 33.7548 119.466 34.933C119.466 36.1112 120.421 37.0663 121.599 37.0663ZM127.998 39.199C127.998 40.3772 127.043 41.3323 125.865 41.3323C124.687 41.3323 123.732 40.3772 123.732 39.199C123.732 38.0208 124.687 37.0656 125.865 37.0656C127.043 37.0656 127.998 38.0208 127.998 39.199ZM134.399 41.3323C135.577 41.3323 136.532 40.3772 136.532 39.199C136.532 38.0208 135.577 37.0656 134.399 37.0656C133.221 37.0656 132.266 38.0208 132.266 39.199C132.266 40.3772 133.221 41.3323 134.399 41.3323ZM145.067 39.199C145.067 40.3772 144.111 41.3323 142.933 41.3323C141.755 41.3323 140.8 40.3772 140.8 39.199C140.8 38.0208 141.755 37.0656 142.933 37.0656C144.111 37.0656 145.067 38.0208 145.067 39.199ZM147.199 45.5982C148.377 45.5982 149.332 44.6431 149.332 43.4649C149.332 42.2867 148.377 41.3316 147.199 41.3316C146.021 41.3316 145.066 42.2867 145.066 43.4649C145.066 44.6431 146.021 45.5982 147.199 45.5982ZM140.798 43.4649C140.798 44.6431 139.843 45.5982 138.665 45.5982C137.487 45.5982 136.532 44.6431 136.532 43.4649C136.532 42.2867 137.487 41.3316 138.665 41.3316C139.843 41.3316 140.798 42.2867 140.798 43.4649ZM130.133 45.5982C131.311 45.5982 132.267 44.6431 132.267 43.4649C132.267 42.2867 131.311 41.3316 130.133 41.3316C128.955 41.3316 128 42.2867 128 43.4649C128 44.6431 128.955 45.5982 130.133 45.5982ZM123.732 43.4649C123.732 44.6431 122.777 45.5982 121.599 45.5982C120.421 45.5982 119.466 44.6431 119.466 43.4649C119.466 42.2867 120.421 41.3316 121.599 41.3316C122.777 41.3316 123.732 42.2867 123.732 43.4649Z" fill="url(#paint0_linear_3776_45624)"/>
</g>
</g>
</g>
<g clip-path="url(#clip2_3776_45624)">
<rect x="243.45" y="20.25" width="89.1" height="63.5" rx="1.75" fill="white" stroke="#F5F5F5" stroke-width="0.5"/>
<mask id="mask2_3776_45624" style="mask-type:alpha" maskUnits="userSpaceOnUse" x="243" y="20" width="90" height="64">
<rect x="243.45" y="20.25" width="89.1" height="63.5" rx="1.75" fill="white" stroke="white" stroke-width="0.5"/>
</mask>
<g mask="url(#mask2_3776_45624)">
<rect x="302.935" y="20" width="29.8667" height="64" fill="#F44653"/>
<path fill-rule="evenodd" clip-rule="evenodd" d="M243.2 84H273.067V20H243.2V84Z" fill="#1035BB"/>
</g>
</g>
<g clip-path="url(#clip3_3776_45624)">
<rect x="371.2" y="20" width="89.6" height="64" rx="2" fill="white"/>
<mask id="mask3_3776_45624" style="mask-type:alpha" maskUnits="userSpaceOnUse" x="371" y="20" width="90" height="64">
<rect x="371.2" y="20" width="89.6" height="64" rx="2" fill="white"/>
</mask>
<g mask="url(#mask3_3776_45624)">
<path fill-rule="evenodd" clip-rule="evenodd" d="M371.2 41.3333H460.8V20H371.2V41.3333Z" fill="#262626"/>
<g filter="url(#filter1_d_3776_45624)">
<path fill-rule="evenodd" clip-rule="evenodd" d="M371.2 62.6693H460.8V41.3359H371.2V62.6693Z" fill="#F01515"/>
</g>
<g filter="url(#filter2_d_3776_45624)">
<path fill-rule="evenodd" clip-rule="evenodd" d="M371.2 83.9974H460.8V62.6641H371.2V83.9974Z" fill="#FFD521"/>
</g>
</g>
</g>
<g clip-path="url(#clip4_3776_45624)">
<rect x="508.8" y="20" width="89.6" height="64" rx="2" fill="white"/>
<mask id="mask4_3776_45624" style="mask-type:alpha" maskUnits="userSpaceOnUse" x="508" y="20" width="91" height="64">
<rect x="508.8" y="20" width="89.6" height="64" rx="2" fill="white"/>
</mask>
<g mask="url(#mask4_3776_45624)">
<rect x="508.8" y="20" width="89.6" height="64" fill="#0A17A7"/>
<path fill-rule="evenodd" clip-rule="evenodd" d="M523.733 32.8L508.8 20H510.933L525.866 30.6667H530.133L547.2 20V21.5844C547.2 21.9289 547.033 22.2522 546.753 22.4524L532.266 32.8V37.0667L545.752 48.6254C546.249 49.0517 545.948 49.8667 545.293 49.8667V49.8667C545.146 49.8667 545.002 49.8207 544.882 49.7352L530.133 39.2H525.866L508.8 49.8667V47.7333L523.733 37.0667V32.8Z" fill="#FF2E3B"/>
<path fill-rule="evenodd" clip-rule="evenodd" d="M508.801 19.9975H510.934L525.868 30.6642H530.134L547.201 19.9975V21.5819C547.201 21.9264 547.035 22.2497 546.754 22.4499L532.268 32.7975V37.0642L545.753 48.6229C546.25 49.0492 545.949 49.8642 545.294 49.8642C545.147 49.8642 545.003 49.8182 544.884 49.7327L530.134 39.1975H525.868L508.801 49.8642V47.7308L523.734 37.0642V32.7975L508.801 19.9975ZM521.601 33.7787L503.034 17.8642H511.618L526.551 28.5308H529.523L549.334 16.1484V21.5819C549.334 22.6153 548.835 23.5852 547.994 24.1859L534.401 33.8954V36.083L547.141 47.0032C549.143 48.7184 547.93 51.9975 545.294 51.9975C544.702 51.9975 544.125 51.8126 543.644 51.4687L529.451 41.3308H526.48L506.668 53.7132V46.633L521.601 35.9663V33.7787Z" fill="white"/>
<path fill-rule="evenodd" clip-rule="evenodd" d="M508.8 30.6667V39.2H523.733V51.3333C523.733 51.7015 524.032 52 524.4 52H531.6C531.968 52 532.266 51.7015 532.266 51.3333V39.2H548.666C549.035 39.2 549.333 38.9015 549.333 38.5333V31.3333C549.333 30.9651 549.035 30.6667 548.666 30.6667H532.266V20H523.733V30.6667H508.8Z" fill="url(#paint1_linear_3776_45624)"/>
<path fill-rule="evenodd" clip-rule="evenodd" d="M508.8 32.8H525.866V30.6667V20H530.133V30.6667V32.8H547.2V37.0667H530.133V39.2V49.8667H525.866V39.2V37.0667H508.8V32.8Z" fill="url(#paint2_linear_3776_45624)"/>
<path fill-rule="evenodd" clip-rule="evenodd" d="M527.999 72.2641L524.237 74.2418L524.955 70.0529L521.912 67.0864L526.118 66.4752L527.999 62.6641L529.88 66.4752L534.086 67.0864L531.042 70.0529L531.761 74.2418L527.999 72.2641Z" fill="white"/>
<path fill-rule="evenodd" clip-rule="evenodd" d="M572.801 75.4667L569.784 76.3504L570.668 73.3334L569.784 70.3164L572.801 71.2001L575.818 70.3164L574.935 73.3334L575.818 76.3504L572.801 75.4667Z" fill="white"/>
<path fill-rule="evenodd" clip-rule="evenodd" d="M572.801 34.9355L569.784 35.8191L570.668 32.8021L569.784 29.7852L572.801 30.6688L575.818 29.7852L574.935 32.8021L575.818 35.8191L572.801 34.9355Z" fill="white"/>
<path fill-rule="evenodd" clip-rule="evenodd" d="M560.001 52.0019L556.984 52.8855L557.868 49.8686L556.984 46.8516L560.001 47.7352L563.018 46.8516L562.135 49.8686L563.018 52.8855L560.001 52.0019Z" fill="white"/>
</g>
</g>
<g clip-path="url(#clip5_3776_45624)">
<rect x="627.2" y="20" width="89.6" height="64" rx="2" fill="white"/>
<mask id="mask5_3776_45624" style="mask-type:alpha" maskUnits="userSpaceOnUse" x="627" y="20" width="90" height="64">
<rect x="627.2" y="20" width="89.6" height="64" rx="2" fill="white"/>
</mask>
<g mask="url(#mask5_3776_45624)">
<path fill-rule="evenodd" clip-rule="evenodd" d="M627.2 54.1333H716.8V20H627.2V54.1333Z" fill="#156DD1"/>
<path fill-rule="evenodd" clip-rule="evenodd" d="M627.2 83.9995H716.8V54.1328H627.2V83.9995Z" fill="#FFD948"/>
</g>
</g>
<g clip-path="url(#clip6_3776_45624)">
<rect x="755.2" y="20" width="89.6" height="64" rx="2" fill="white"/>
<mask id="mask6_3776_45624" style="mask-type:alpha" maskUnits="userSpaceOnUse" x="755" y="20" width="90" height="64">
<rect x="755.2" y="20" width="89.6" height="64" rx="2" fill="white"/>
</mask>
<g mask="url(#mask6_3776_45624)">
<rect x="755.2" y="20" width="89.6" height="64" fill="#0A17A7"/>
<path fill-rule="evenodd" clip-rule="evenodd" d="M776.557 62.6664L746.325 83.058L751.097 90.1324L789.334 64.3414V88.2664H810.667V64.3409L848.905 90.1326L853.677 83.0581L823.445 62.6664H844.8V41.333H823.445L853.677 20.9416L848.905 13.8672L810.667 39.6588V15.733H789.334V39.6583L751.097 13.8673L746.325 20.9418L776.557 41.333H755.2V62.6664H776.557Z" fill="white"/>
<path fill-rule="evenodd" clip-rule="evenodd" d="M856.359 13.0157C856.683 13.5079 856.546 14.1693 856.054 14.4931L815.525 41.1561C815.033 41.4799 814.372 41.3434 814.048 40.8512C813.724 40.3591 813.86 39.6976 814.353 39.3738L854.882 12.7108C855.374 12.387 856.035 12.5235 856.359 13.0157Z" fill="#DB1F35"/>
<path fill-rule="evenodd" clip-rule="evenodd" d="M856.458 88.9161C856.788 88.4276 856.659 87.7647 856.17 87.4354L819.838 62.9464C819.349 62.6171 818.686 62.7462 818.357 63.2347C818.028 63.7232 818.157 64.3861 818.645 64.7154L854.978 89.2044C855.466 89.5337 856.129 89.4046 856.458 88.9161Z" fill="#DB1F35"/>
<path fill-rule="evenodd" clip-rule="evenodd" d="M742.036 14.0566C742.365 13.5681 743.028 13.4389 743.516 13.7682L781.414 39.3088C781.903 39.638 782.032 40.3009 781.702 40.7895C781.373 41.278 780.71 41.4071 780.222 41.0779L742.324 15.5373C741.836 15.208 741.707 14.5451 742.036 14.0566Z" fill="#DB1F35"/>
<path fill-rule="evenodd" clip-rule="evenodd" d="M742.031 91.9837C742.357 92.4746 743.019 92.6087 743.51 92.2831L785.518 64.4253C786.009 64.0997 786.143 63.4378 785.817 62.9468C785.492 62.4559 784.83 62.3218 784.339 62.6474L742.331 90.5052C741.84 90.8308 741.706 91.4927 742.031 91.9837Z" fill="#DB1F35"/>
<path fill-rule="evenodd" clip-rule="evenodd" d="M755.2 58.4H793.6V84H806.4V58.4H844.8V45.6H806.4V20H793.6V45.6H755.2V58.4Z" fill="#E6273E"/>
</g>
</g>
<g clip-path="url(#clip7_3776_45624)">
<rect x="883.45" y="20.25" width="89.1" height="63.5" rx="1.75" fill="white" stroke="#F5F5F5" stroke-width="0.5"/>
<mask id="mask7_3776_45624" style="mask-type:alpha" maskUnits="userSpaceOnUse" x="883" y="20" width="90" height="64">
<rect x="883.45" y="20.25" width="89.1" height="63.5" rx="1.75" fill="white" stroke="white" stroke-width="0.5"/>
</mask>
<g mask="url(#mask7_3776_45624)">
</g>
</g>
<g clip-path="url(#clip8_3776_45624)">
<rect x="1011.2" y="20" width="89.6" height="64" rx="2" fill="#06A86E"/>
<mask id="mask8_3776_45624" style="mask-type:alpha" maskUnits="userSpaceOnUse" x="1011" y="20" width="90" height="64">
<rect x="1011.2" y="20" width="89.6" height="64" rx="2" fill="white"/>
</mask>
<g mask="url(#mask8_3776_45624)">
<path fill-rule="evenodd" clip-rule="evenodd" d="M1011.2 28.5352L1041.07 52.0018L1011.2 75.4685V28.5352Z" fill="#FFBF2E"/>
<path fill-rule="evenodd" clip-rule="evenodd" d="M1006.93 29.6016L1035.73 52.0016L1006.93 74.4016V29.6016Z" fill="#262626"/>
<path fill-rule="evenodd" clip-rule="evenodd" d="M1049.6 45.6L1019.73 20H1100.8V45.6H1049.6Z" fill="white"/>
<path fill-rule="evenodd" clip-rule="evenodd" d="M1050.67 41.3333L1025.07 20H1100.8V41.3333H1050.67Z" fill="#F44E46"/>
<path fill-rule="evenodd" clip-rule="evenodd" d="M1019.73 83.9984H1100.8V58.3984H1049.6L1019.73 83.9984Z" fill="white"/>
<path fill-rule="evenodd" clip-rule="evenodd" d="M1025.07 83.9974H1100.8V62.6641H1050.67L1025.07 83.9974Z" fill="#072CB4"/>
</g>
</g>
<rect width="256" height="112" transform="matrix(-1 0 0 1 1088 0)" fill="url(#paint3_linear_3776_45624)"/>
<rect width="256" height="112" fill="url(#paint4_linear_3776_45624)"/>
<defs>
<filter id="filter0_d_3776_45624" x="119.466" y="24.2656" width="29.8662" height="22.332" filterUnits="userSpaceOnUse" color-interpolation-filters="sRGB">
<feFlood flood-opacity="0" result="BackgroundImageFix"/>
<feColorMatrix in="SourceAlpha" type="matrix" values="0 0 0 0 0 0 0 0 0 0 0 0 0 0 0 0 0 0 127 0" result="hardAlpha"/>
<feOffset dy="1"/>
<feColorMatrix type="matrix" values="0 0 0 0 0 0 0 0 0 0 0 0 0 0 0 0 0 0 0.06 0"/>
<feBlend mode="normal" in2="BackgroundImageFix" result="effect1_dropShadow_3776_45624"/>
<feBlend mode="normal" in="SourceGraphic" in2="effect1_dropShadow_3776_45624" result="shape"/>
</filter>
<filter id="filter1_d_3776_45624" x="371.2" y="41.3359" width="89.5996" height="21.332" filterUnits="userSpaceOnUse" color-interpolation-filters="sRGB">
<feFlood flood-opacity="0" result="BackgroundImageFix"/>
<feColorMatrix in="SourceAlpha" type="matrix" values="0 0 0 0 0 0 0 0 0 0 0 0 0 0 0 0 0 0 127 0" result="hardAlpha"/>
<feOffset/>
<feColorMatrix type="matrix" values="0 0 0 0 0 0 0 0 0 0 0 0 0 0 0 0 0 0 0.06 0"/>
<feBlend mode="normal" in2="BackgroundImageFix" result="effect1_dropShadow_3776_45624"/>
<feBlend mode="normal" in="SourceGraphic" in2="effect1_dropShadow_3776_45624" result="shape"/>
</filter>
<filter id="filter2_d_3776_45624" x="371.2" y="62.6641" width="89.5996" height="21.332" filterUnits="userSpaceOnUse" color-interpolation-filters="sRGB">
<feFlood flood-opacity="0" result="BackgroundImageFix"/>
<feColorMatrix in="SourceAlpha" type="matrix" values="0 0 0 0 0 0 0 0 0 0 0 0 0 0 0 0 0 0 127 0" result="hardAlpha"/>
<feOffset/>
<feColorMatrix type="matrix" values="0 0 0 0 0 0 0 0 0 0 0 0 0 0 0 0 0 0 0.06 0"/>
<feBlend mode="normal" in2="BackgroundImageFix" result="effect1_dropShadow_3776_45624"/>
<feBlend mode="normal" in="SourceGraphic" in2="effect1_dropShadow_3776_45624" result="shape"/>
</filter>
<linearGradient id="paint0_linear_3776_45624" x1="119.466" y1="24.2656" x2="119.466" y2="45.5982" gradientUnits="userSpaceOnUse">
<stop stop-color="white"/>
<stop offset="1" stop-color="#F0F0F0"/>
</linearGradient>
<linearGradient id="paint1_linear_3776_45624" x1="508.8" y1="20" x2="508.8" y2="52" gradientUnits="userSpaceOnUse">
<stop stop-color="white"/>
<stop offset="1" stop-color="#F0F0F0"/>
</linearGradient>
<linearGradient id="paint2_linear_3776_45624" x1="508.8" y1="20" x2="508.8" y2="49.8667" gradientUnits="userSpaceOnUse">
<stop stop-color="#FF2E3B"/>
<stop offset="1" stop-color="#FC0D1B"/>
</linearGradient>
<linearGradient id="paint3_linear_3776_45624" x1="0" y1="56" x2="256" y2="56" gradientUnits="userSpaceOnUse">
<stop stop-color="#2448B1"/>
<stop offset="1" stop-color="#2448B1" stop-opacity="0"/>
</linearGradient>
<linearGradient id="paint4_linear_3776_45624" x1="0" y1="56" x2="256" y2="56" gradientUnits="userSpaceOnUse">
<stop stop-color="#2448B1"/>
<stop offset="1" stop-color="#2448B1" stop-opacity="0"/>
</linearGradient>
<clipPath id="clip0_3776_45624">
<path d="M0 52C0 34.3269 14.3269 20 32 20V20C49.6731 20 64 34.3269 64 52V52C64 69.6731 49.6731 84 32 84V84C14.3269 84 0 69.6731 0 52V52Z" fill="white"/>
</clipPath>
<clipPath id="clip1_3776_45624">
<path d="M128 52C128 34.3269 142.327 20 160 20V20C177.673 20 192 34.3269 192 52V52C192 69.6731 177.673 84 160 84V84C142.327 84 128 69.6731 128 52V52Z" fill="white"/>
</clipPath>
<clipPath id="clip2_3776_45624">
<path d="M256 52C256 34.3269 270.327 20 288 20V20C305.673 20 320 34.3269 320 52V52C320 69.6731 305.673 84 288 84V84C270.327 84 256 69.6731 256 52V52Z" fill="white"/>
</clipPath>
<clipPath id="clip3_3776_45624">
<path d="M384 52C384 34.3269 398.327 20 416 20V20C433.673 20 448 34.3269 448 52V52C448 69.6731 433.673 84 416 84V84C398.327 84 384 69.6731 384 52V52Z" fill="white"/>
</clipPath>
<clipPath id="clip4_3776_45624">
<path d="M512 52C512 34.3269 526.327 20 544 20V20C561.673 20 576 34.3269 576 52V52C576 69.6731 561.673 84 544 84V84C526.327 84 512 69.6731 512 52V52Z" fill="white"/>
</clipPath>
<clipPath id="clip5_3776_45624">
<path d="M640 52C640 34.3269 654.327 20 672 20V20C689.673 20 704 34.3269 704 52V52C704 69.6731 689.673 84 672 84V84C654.327 84 640 69.6731 640 52V52Z" fill="white"/>
</clipPath>
<clipPath id="clip6_3776_45624">
<path d="M768 52C768 34.3269 782.327 20 800 20V20C817.673 20 832 34.3269 832 52V52C832 69.6731 817.673 84 800 84V84C782.327 84 768 69.6731 768 52V52Z" fill="white"/>
</clipPath>
<clipPath id="clip7_3776_45624">
<path d="M896 52C896 34.3269 910.327 20 928 20V20C945.673 20 960 34.3269 960 52V52C960 69.6731 945.673 84 928 84V84C910.327 84 896 69.6731 896 52V52Z" fill="white"/>
</clipPath>
<clipPath id="clip8_3776_45624">
<path d="M1024 52C1024 34.3269 1038.33 20 1056 20V20C1073.67 20 1088 34.3269 1088 52V52C1088 69.6731 1073.67 84 1056 84V84C1038.33 84 1024 69.6731 1024 52V52Z" fill="white"/>
</clipPath>
</defs>
</svg>
