<svg width="1024" height="512" viewBox="0 0 1024 512" fill="none" xmlns="http://www.w3.org/2000/svg">
<g clip-path="url(#clip0_3114_241816)">
<path opacity="0.08" d="M951.439 535.756V392.924H787.121V343.034C787.121 341.406 786.472 339.845 785.318 338.694C784.163 337.542 782.598 336.896 780.965 336.896H737.201V286.109C737.2 284.205 736.441 282.379 735.091 281.033C733.741 279.687 731.91 278.931 730.001 278.931H707.894V336.896H677.672C676.039 336.896 674.473 337.542 673.319 338.694C672.164 339.845 671.516 341.406 671.516 343.034V392.924H638.722V299.751C638.722 298.712 638.45 297.692 637.932 296.79C637.414 295.889 636.668 295.139 635.769 294.614V240.051H614.88V293.79H605.647V277.592C605.646 275.386 604.767 273.271 603.203 271.712C601.64 270.152 599.518 269.275 597.307 269.275C595.095 269.275 592.973 270.151 591.409 271.711C589.844 273.271 588.965 275.386 588.965 277.592V293.79H586.789C585.205 293.79 583.687 294.417 582.567 295.534C581.447 296.651 580.818 298.165 580.818 299.745V307.882H552.818C550.415 307.882 548.11 308.834 546.411 310.528C544.712 312.223 543.758 314.521 543.758 316.917V329.871H524.453V303.523H503.564V356.38H477.564C475.517 356.38 473.491 356.782 471.6 357.563C469.709 358.344 467.991 359.489 466.544 360.933C465.096 362.376 463.948 364.09 463.165 365.976C462.382 367.862 461.979 369.883 461.98 371.924V392.924H455.124V282.592H425.46V374.725H405.015V371.04C405.015 368.834 404.136 366.718 402.572 365.159C401.008 363.599 398.887 362.723 396.675 362.723C395.473 362.722 394.285 362.981 393.193 363.483V319.107C393.192 311.423 390.131 304.053 384.683 298.62C379.234 293.186 371.845 290.134 364.139 290.133V343.139H337.897C330.937 343.139 324.262 345.896 319.341 350.804C314.419 355.712 311.655 362.368 311.655 369.309V382.985H263.672V371.844H236.003C233.957 371.844 231.93 372.246 230.039 373.027C228.148 373.809 226.43 374.954 224.983 376.397C223.535 377.84 222.388 379.554 221.604 381.44C220.821 383.326 220.418 385.347 220.419 387.388V366.556C220.418 364.016 219.406 361.579 217.604 359.783C215.803 357.986 213.36 356.977 210.812 356.976C208.264 356.977 205.821 357.986 204.02 359.783C202.218 361.579 201.206 364.016 201.205 366.556V392.915H170.139V356.899C170.139 354.68 169.701 352.483 168.85 350.433C167.999 348.383 166.751 346.521 165.178 344.952C163.605 343.383 161.737 342.138 159.682 341.289C157.626 340.44 155.423 340.003 153.199 340.003H150.456V307.751C150.456 305.211 149.445 302.774 147.643 300.978C145.842 299.181 143.399 298.172 140.852 298.171C139.59 298.171 138.341 298.419 137.176 298.9C136.01 299.382 134.951 300.087 134.059 300.977C133.167 301.867 132.459 302.923 131.976 304.085C131.494 305.247 131.245 306.493 131.245 307.751V340.001C120.931 340.001 111.04 344.087 103.746 351.36C96.4533 358.633 92.3561 368.497 92.3561 378.783V443.822H85.285V395.732C85.2864 395.194 85.1464 394.666 84.8789 394.199C84.6114 393.732 84.2258 393.344 83.7605 393.072V364.928H72.9827V392.665H68.2183V384.308C68.2183 383.169 67.7648 382.077 66.9575 381.272C66.1503 380.467 65.0554 380.015 63.9138 380.015C62.7722 380.015 61.6773 380.467 60.8701 381.272C60.0628 382.077 59.6093 383.169 59.6093 384.308V392.665H58.476C57.6605 392.666 56.8786 392.989 56.3018 393.564C55.7249 394.139 55.4 394.919 55.3982 395.732V399.942H40.9537C39.716 399.942 38.529 400.433 37.6539 401.306C36.7787 402.178 36.287 403.362 36.287 404.596V443.822H26.3248V397.684H15.547V424.963H2.12913C1.07282 424.963 0.0268555 425.17 -0.94902 425.573C-1.9249 425.977 -2.81157 426.567 -3.55839 427.312C-4.30521 428.057 -4.89754 428.942 -5.30157 429.915C-5.7056 430.888 -5.91341 431.932 -5.91312 432.985V443.822H-9.45092V400.488H-24.7643V443.822H-35.3155V432.52C-35.3155 431.381 -35.769 430.289 -36.5762 429.484C-37.3835 428.679 -38.4783 428.227 -39.6199 428.227C-40.2405 428.227 -40.8538 428.361 -41.4177 428.619V418.89L-48.9844 418.073V535.749L951.439 535.756Z" fill="#F7F8FA"/>
</g>
<path d="M756.313 371.77H740.016V497.73H756.313V371.77Z" fill="#0D318C"/>
<path d="M622.323 371.766H527.437C504.337 371.766 485.609 390.493 485.609 413.595V422.892H592.152C599.313 422.892 606.181 425.736 611.245 430.8C616.308 435.863 619.153 442.731 619.153 449.892V497.726H756.298V371.766H622.323Z" fill="#4A86F7"/>
<path d="M888.443 370.574H862.641V487.463H888.443V370.574Z" fill="url(#paint0_linear_3114_241816)"/>
<path d="M864.076 97.4375V279.752H804.672V156.843C804.672 149.042 806.208 141.318 809.194 134.111C812.179 126.903 816.555 120.355 822.071 114.839C827.587 109.323 834.136 104.947 841.343 101.962C848.55 98.9763 856.275 97.4397 864.076 97.4397V97.4375Z" fill="url(#paint1_linear_3114_241816)"/>
<path d="M864.071 97.4375V279.752H843.203V118.296C843.206 112.763 845.405 107.458 849.318 103.546C853.232 99.6348 858.538 97.4375 864.071 97.4375Z" fill="url(#paint2_linear_3114_241816)"/>
<path d="M694.143 285.22C692.899 285.219 691.707 284.725 690.828 283.845C689.949 282.966 689.454 281.774 689.453 280.531V203.719C689.454 202.475 689.948 201.283 690.827 200.403C691.707 199.523 692.899 199.029 694.143 199.027C695.386 199.029 696.579 199.524 697.458 200.404C698.337 201.283 698.831 202.476 698.832 203.719V280.531C698.831 281.774 698.337 282.966 697.458 283.845C696.578 284.725 695.386 285.219 694.143 285.22ZM694.143 199.925C693.137 199.927 692.173 200.327 691.463 201.038C690.752 201.75 690.352 202.714 690.351 203.719V280.531C690.351 281.029 690.449 281.522 690.639 281.982C690.83 282.442 691.109 282.86 691.461 283.212C691.813 283.564 692.232 283.843 692.692 284.034C693.152 284.225 693.645 284.323 694.143 284.323C694.641 284.323 695.134 284.225 695.594 284.034C696.054 283.843 696.472 283.564 696.824 283.212C697.176 282.86 697.456 282.442 697.646 281.982C697.837 281.522 697.935 281.029 697.935 280.531V203.719C697.934 202.714 697.534 201.75 696.823 201.038C696.112 200.327 695.148 199.927 694.143 199.925Z" fill="#57B6F0"/>
<path d="M694.143 178.88C692.899 178.879 691.707 178.385 690.828 177.505C689.949 176.626 689.454 175.434 689.453 174.191V97.3771C689.454 96.1337 689.949 94.9416 690.828 94.0624C691.707 93.1832 692.899 92.6887 694.143 92.6875C695.386 92.6893 696.578 93.1839 697.457 94.063C698.336 94.9421 698.831 96.1339 698.832 97.3771V174.191C698.831 175.434 698.337 176.626 697.458 177.505C696.578 178.385 695.386 178.879 694.143 178.88ZM694.143 93.585C693.137 93.5862 692.174 93.9861 691.463 94.697C690.752 95.4079 690.352 96.3718 690.351 97.3771V174.191C690.351 175.196 690.75 176.161 691.461 176.872C692.173 177.583 693.137 177.983 694.143 177.983C695.149 177.983 696.113 177.583 696.824 176.872C697.535 176.161 697.935 175.196 697.935 174.191V97.3771C697.934 96.3718 697.534 95.4079 696.823 94.697C696.112 93.9861 695.148 93.5862 694.143 93.585Z" fill="#57B6F0"/>
<path d="M698.388 189.756C698.388 187.414 696.489 185.516 694.147 185.516C691.805 185.516 689.906 187.414 689.906 189.756C689.906 192.099 691.805 193.997 694.147 193.997C696.489 193.997 698.388 192.099 698.388 189.756Z" fill="#F7F8FA"/>
<path d="M968.658 33.8076C967.248 33.8076 965.87 33.3896 964.698 32.6064C963.526 31.8232 962.613 30.7101 962.074 29.4078C961.534 28.1055 961.393 26.6725 961.668 25.29C961.944 23.9076 962.622 22.6378 963.619 21.6412C964.616 20.6446 965.886 19.9661 967.269 19.6913C968.651 19.4166 970.084 19.5581 971.387 20.0978C972.689 20.6375 973.802 21.5513 974.584 22.7235C975.367 23.8958 975.785 25.2738 975.784 26.6834C975.783 28.5727 975.031 30.3841 973.695 31.7198C972.359 33.0555 970.547 33.8064 968.658 33.8076ZM968.658 20.4545C967.426 20.4545 966.221 20.8198 965.197 21.5042C964.173 22.1887 963.374 23.1615 962.903 24.2997C962.432 25.4379 962.308 26.6903 962.548 27.8986C962.789 29.1069 963.382 30.2168 964.253 31.0879C965.124 31.959 966.234 32.5523 967.443 32.7926C968.651 33.033 969.903 32.9096 971.041 32.4381C972.18 31.9667 973.153 31.1683 973.837 30.144C974.521 29.1196 974.887 27.9154 974.887 26.6834C974.885 25.0319 974.228 23.4486 973.06 22.2809C971.893 21.1131 970.309 20.4563 968.658 20.4545Z" fill="#F7F8FA"/>
<path d="M968.658 14.2529C967.248 14.2529 965.87 13.8349 964.699 13.0519C963.527 12.2688 962.613 11.1558 962.074 9.85363C961.534 8.55144 961.393 7.11855 961.668 5.73615C961.943 4.35376 962.622 3.08395 963.619 2.08729C964.615 1.09064 965.885 0.411912 967.267 0.136936C968.65 -0.13804 970.083 0.00308793 971.385 0.542472C972.687 1.08186 973.8 1.99527 974.583 3.16721C975.366 4.33915 975.784 5.71698 975.784 7.12646C975.783 9.01596 975.031 10.8276 973.695 12.1637C972.359 13.4997 970.547 14.2511 968.658 14.2529ZM968.658 0.899787C967.426 0.899787 966.221 1.26516 965.197 1.9497C964.173 2.63424 963.374 3.6072 962.903 4.74551C962.431 5.88383 962.308 7.13637 962.549 8.34473C962.789 9.55308 963.383 10.663 964.254 11.534C965.125 12.405 966.236 12.9981 967.444 13.2382C968.652 13.4783 969.905 13.3546 971.043 12.8828C972.181 12.411 973.154 11.6123 973.838 10.5877C974.522 9.56303 974.887 8.35851 974.887 7.12646C974.885 5.4752 974.228 3.89212 973.06 2.72471C971.892 1.55731 970.309 0.900975 968.658 0.899787Z" fill="#F7F8FA"/>
<path d="M657.287 292.801H725.178C729.114 292.801 732.889 294.364 735.672 297.148C738.455 299.931 740.019 303.706 740.019 307.642V371.766H642.438V307.635C642.438 305.686 642.823 303.756 643.57 301.956C644.317 300.155 645.411 298.519 646.79 297.142C648.169 295.764 649.806 294.672 651.607 293.927C653.408 293.182 655.338 292.8 657.287 292.801Z" fill="#FADD6F"/>
<path d="M719.187 292.801H725.347C729.236 292.801 732.965 294.346 735.715 297.096C738.465 299.846 740.01 303.575 740.01 307.464V371.766H711.109V300.879C711.109 298.736 711.96 296.682 713.475 295.167C714.99 293.652 717.045 292.801 719.187 292.801Z" fill="#F2A84C"/>
<path d="M1017.36 64.9609H918.611C913.652 64.9609 909.633 68.9799 909.633 73.9374C909.633 78.895 913.652 82.9139 918.611 82.9139H1017.36C1022.31 82.9139 1026.33 78.895 1026.33 73.9374C1026.33 68.9799 1022.31 64.9609 1017.36 64.9609Z" fill="#4A86F7"/>
<path d="M814.908 158.254H814.654C813.124 158.254 811.883 159.495 811.883 161.025V244.355C811.883 245.885 813.124 247.126 814.654 247.126H814.908C816.438 247.126 817.679 245.885 817.679 244.355V161.025C817.679 159.495 816.438 158.254 814.908 158.254Z" fill="#FADD6F"/>
<path d="M824.707 158.188H824.457C822.932 158.188 821.695 159.424 821.695 160.95V244.297C821.695 245.823 822.932 247.06 824.457 247.06H824.707C826.232 247.06 827.469 245.823 827.469 244.297V160.95C827.469 159.424 826.232 158.188 824.707 158.188Z" fill="#FADD6F"/>
<path d="M834.496 158.32H834.247C832.721 158.32 831.484 159.557 831.484 161.082V244.43C831.484 245.956 832.721 247.192 834.247 247.192H834.496C836.021 247.192 837.258 245.956 837.258 244.43V161.082C837.258 159.557 836.021 158.32 834.496 158.32Z" fill="#FADD6F"/>
<path d="M1001.61 43.6016H935.71C931.892 43.6016 928.797 46.6967 928.797 50.5149C928.797 54.333 931.892 57.4281 935.71 57.4281H1001.61C1005.43 57.4281 1008.53 54.333 1008.53 50.5149C1008.53 46.6967 1005.43 43.6016 1001.61 43.6016Z" fill="#FADD6F"/>
<path d="M862.781 543H756.31V330.703C756.31 316.722 759.064 302.877 764.415 289.96C769.765 277.043 777.608 265.306 787.495 255.42C797.382 245.534 809.119 237.693 822.037 232.343C834.955 226.993 848.8 224.24 862.781 224.242V543Z" fill="#83BF6E"/>
<path d="M917.394 97.4397H1032.63C1035.02 97.4397 1037.38 97.909 1039.58 98.8207C1041.78 99.7324 1043.78 101.069 1045.46 102.753C1047.15 104.438 1048.48 106.438 1049.39 108.639C1050.31 110.84 1050.78 113.199 1050.78 115.581V520.124C1050.78 523.228 1049.54 526.205 1047.35 528.4C1045.15 530.595 1042.18 531.828 1039.07 531.828H917.394C915.857 531.828 914.334 531.526 912.914 530.938C911.494 530.35 910.203 529.488 909.116 528.401C908.029 527.314 907.167 526.024 906.579 524.603C905.99 523.183 905.687 521.661 905.688 520.124V109.141C905.688 106.037 906.921 103.06 909.116 100.865C911.31 98.6706 914.287 97.4375 917.391 97.4375L917.394 97.4397Z" fill="#4A86F7"/>
<path d="M900.142 97.4397H1033.52V520.124C1033.52 523.228 1032.29 526.205 1030.1 528.4C1027.9 530.595 1024.92 531.828 1021.82 531.828H900.142C897.037 531.828 894.06 530.595 891.866 528.4C889.671 526.205 888.438 523.228 888.438 520.124V109.141C888.437 106.037 889.671 103.06 891.866 100.865C894.06 98.6706 897.037 97.4375 900.142 97.4375V97.4397Z" fill="#57B6F0"/>
<path d="M465.6 460.672H564.121C569.141 460.672 573.211 456.602 573.211 451.582V440.251C573.211 435.231 569.141 431.161 564.121 431.161H465.6C460.579 431.161 456.51 435.231 456.51 440.251V451.582C456.51 456.602 460.579 460.672 465.6 460.672Z" fill="#F2A84C"/>
<g opacity="0.55">
<path opacity="0.55" d="M571.676 441.602H560.948V435.873H571.676C572.327 435.873 572.952 436.132 573.413 436.593C573.874 437.053 574.133 437.678 574.133 438.33V439.156C574.13 439.805 573.87 440.428 573.409 440.886C572.949 441.344 572.325 441.602 571.676 441.602Z" fill="#F7F8FA"/>
</g>
<g opacity="0.55">
<path opacity="0.55" d="M544.776 441.602H557.961V435.873H544.776V441.602Z" fill="#F7F8FA"/>
</g>
<g opacity="0.55">
<path opacity="0.55" d="M528.604 441.602H541.789V435.873H528.604V441.602Z" fill="#F7F8FA"/>
</g>
<g opacity="0.55">
<path opacity="0.55" d="M512.44 441.602H525.625V435.873H512.44V441.602Z" fill="#F7F8FA"/>
</g>
<g opacity="0.55">
<path opacity="0.55" d="M496.268 441.602H509.453V435.873H496.268V441.602Z" fill="#F7F8FA"/>
</g>
<g opacity="0.55">
<path opacity="0.55" d="M480.096 441.602H493.281V435.873H480.096V441.602Z" fill="#F7F8FA"/>
</g>
<g opacity="0.55">
<path opacity="0.55" d="M476.859 441.605H466.538C466.162 441.605 465.789 441.531 465.442 441.388C465.095 441.244 464.779 441.033 464.513 440.767C464.247 440.501 464.036 440.185 463.892 439.838C463.749 439.491 463.674 439.118 463.674 438.742C463.674 437.983 463.976 437.255 464.513 436.718C465.05 436.181 465.778 435.879 466.538 435.879H476.859V441.605Z" fill="#F7F8FA"/>
</g>
<path d="M338.404 460.672H436.926C441.946 460.672 446.016 456.602 446.016 451.582V440.251C446.016 435.231 441.946 431.161 436.926 431.161H338.404C333.384 431.161 329.315 435.231 329.315 440.251V451.582C329.315 456.602 333.384 460.672 338.404 460.672Z" fill="#F2A84C"/>
<g opacity="0.55">
<path opacity="0.55" d="M444.488 441.602H433.76V435.873H444.488C445.14 435.873 445.765 436.132 446.226 436.593C446.686 437.053 446.945 437.678 446.945 438.33V439.156C446.942 439.805 446.682 440.428 446.222 440.886C445.761 441.344 445.138 441.602 444.488 441.602Z" fill="#F7F8FA"/>
</g>
<g opacity="0.55">
<path opacity="0.55" d="M417.588 441.602H430.773V435.873H417.588V441.602Z" fill="#F7F8FA"/>
</g>
<g opacity="0.55">
<path opacity="0.55" d="M401.417 441.602H414.602V435.873H401.417V441.602Z" fill="#F7F8FA"/>
</g>
<g opacity="0.55">
<path opacity="0.55" d="M385.253 441.602H398.438V435.873H385.253V441.602Z" fill="#F7F8FA"/>
</g>
<g opacity="0.55">
<path opacity="0.55" d="M369.081 441.602H382.266V435.873H369.081V441.602Z" fill="#F7F8FA"/>
</g>
<g opacity="0.55">
<path opacity="0.55" d="M352.909 441.602H366.094V435.873H352.909V441.602Z" fill="#F7F8FA"/>
</g>
<g opacity="0.55">
<path opacity="0.55" d="M349.666 441.602H339.344C338.968 441.602 338.596 441.528 338.249 441.384C337.901 441.24 337.586 441.029 337.32 440.763C337.054 440.497 336.843 440.181 336.699 439.834C336.555 439.487 336.481 439.114 336.481 438.738C336.481 438.361 336.555 437.987 336.7 437.639C336.844 437.29 337.056 436.974 337.324 436.708C337.591 436.441 337.908 436.231 338.258 436.087C338.607 435.944 338.981 435.871 339.358 435.873H349.68V441.602H349.666Z" fill="#F7F8FA"/>
</g>
<g opacity="0.57">
<path opacity="0.57" d="M862.637 279.758H799.331C796.163 279.758 793.594 282.326 793.594 285.494C793.594 288.662 796.163 291.231 799.331 291.231H862.637C865.806 291.231 868.375 288.662 868.375 285.494C868.375 282.326 865.806 279.758 862.637 279.758Z" fill="#F7F8FA"/>
</g>
<g opacity="0.57">
<path opacity="0.57" d="M862.637 299.594H799.331C796.163 299.594 793.594 302.162 793.594 305.33C793.594 308.498 796.163 311.066 799.331 311.066H862.637C865.806 311.066 868.375 308.498 868.375 305.33C868.375 302.162 865.806 299.594 862.637 299.594Z" fill="#F7F8FA"/>
</g>
<g opacity="0.57">
<path opacity="0.57" d="M862.637 319.43H799.331C796.163 319.43 793.594 321.998 793.594 325.166C793.594 328.334 796.163 330.902 799.331 330.902H862.637C865.806 330.902 868.375 328.334 868.375 325.166C868.375 321.998 865.806 319.43 862.637 319.43Z" fill="#F7F8FA"/>
</g>
<g opacity="0.57">
<path opacity="0.57" d="M862.637 339.266H799.331C796.163 339.266 793.594 341.834 793.594 345.002C793.594 348.17 796.163 350.738 799.331 350.738H862.637C865.806 350.738 868.375 348.17 868.375 345.002C868.375 341.834 865.806 339.266 862.637 339.266Z" fill="#F7F8FA"/>
</g>
<g opacity="0.57">
<path opacity="0.57" d="M862.637 359.102H799.331C796.163 359.102 793.594 361.67 793.594 364.838C793.594 368.006 796.163 370.574 799.331 370.574H862.637C865.806 370.574 868.375 368.006 868.375 364.838C868.375 361.67 865.806 359.102 862.637 359.102Z" fill="#F7F8FA"/>
</g>
<g opacity="0.57">
<path opacity="0.57" d="M862.637 378.938H799.331C796.163 378.938 793.594 381.506 793.594 384.674C793.594 387.842 796.163 390.41 799.331 390.41H862.637C865.806 390.41 868.375 387.842 868.375 384.674C868.375 381.506 865.806 378.938 862.637 378.938Z" fill="#F7F8FA"/>
</g>
<g opacity="0.57">
<path opacity="0.57" d="M698.388 301.922H648.391V309.594H698.388V301.922Z" fill="#F7F8FA"/>
</g>
<g opacity="0.57">
<path opacity="0.57" d="M698.388 315.188H648.391V322.859H698.388V315.188Z" fill="#F7F8FA"/>
</g>
<g opacity="0.57">
<path opacity="0.57" d="M698.388 328.445H648.391V336.117H698.388V328.445Z" fill="#F7F8FA"/>
</g>
<g opacity="0.57">
<path opacity="0.57" d="M698.388 341.707H648.391V349.379H698.388V341.707Z" fill="#F7F8FA"/>
</g>
<g opacity="0.57">
<path opacity="0.57" d="M698.388 354.969H648.391V362.64H698.388V354.969Z" fill="#F7F8FA"/>
</g>
<path d="M302.44 456H619.153V531.003H287.633V470.807C287.633 466.88 289.194 463.114 291.97 460.338C294.747 457.561 298.513 456.001 302.44 456Z" fill="url(#paint3_linear_3114_241816)"/>
<g opacity="0.51">
<path opacity="0.51" d="M903.603 106.312H902.474C899.662 106.312 897.383 108.592 897.383 111.404V160.16C897.383 162.972 899.662 165.252 902.474 165.252H903.603C906.415 165.252 908.694 162.972 908.694 160.16V111.404C908.694 108.592 906.415 106.312 903.603 106.312Z" fill="#F7F8FA"/>
<path opacity="0.51" d="M903.603 175.273H902.474C899.662 175.273 897.383 177.553 897.383 180.365V229.121C897.383 231.933 899.662 234.213 902.474 234.213H903.603C906.415 234.213 908.694 231.933 908.694 229.121V180.365C908.694 177.553 906.415 175.273 903.603 175.273Z" fill="#F7F8FA"/>
<path opacity="0.51" d="M903.603 244.234H902.474C899.662 244.234 897.383 246.514 897.383 249.326V298.082C897.383 300.894 899.662 303.173 902.474 303.173H903.603C906.415 303.173 908.694 300.894 908.694 298.082V249.326C908.694 246.514 906.415 244.234 903.603 244.234Z" fill="#F7F8FA"/>
<path opacity="0.51" d="M903.603 313.195H902.474C899.662 313.195 897.383 315.475 897.383 318.287V367.043C897.383 369.855 899.662 372.134 902.474 372.134H903.603C906.415 372.134 908.694 369.855 908.694 367.043V318.287C908.694 315.475 906.415 313.195 903.603 313.195Z" fill="#F7F8FA"/>
<path opacity="0.51" d="M921.658 106.312H920.529C917.717 106.312 915.438 108.592 915.438 111.404V160.16C915.438 162.972 917.717 165.252 920.529 165.252H921.658C924.469 165.252 926.749 162.972 926.749 160.16V111.404C926.749 108.592 924.469 106.312 921.658 106.312Z" fill="#F7F8FA"/>
<path opacity="0.51" d="M921.658 175.273H920.529C917.717 175.273 915.438 177.553 915.438 180.365V229.121C915.438 231.933 917.717 234.213 920.529 234.213H921.658C924.469 234.213 926.749 231.933 926.749 229.121V180.365C926.749 177.553 924.469 175.273 921.658 175.273Z" fill="#F7F8FA"/>
<path opacity="0.51" d="M921.658 244.234H920.529C917.717 244.234 915.438 246.514 915.438 249.326V298.082C915.438 300.894 917.717 303.173 920.529 303.173H921.658C924.469 303.173 926.749 300.894 926.749 298.082V249.326C926.749 246.514 924.469 244.234 921.658 244.234Z" fill="#F7F8FA"/>
<path opacity="0.51" d="M921.658 313.195H920.529C917.717 313.195 915.438 315.475 915.438 318.287V367.043C915.438 369.855 917.717 372.134 920.529 372.134H921.658C924.469 372.134 926.749 369.855 926.749 367.043V318.287C926.749 315.475 924.469 313.195 921.658 313.195Z" fill="#F7F8FA"/>
<path opacity="0.51" d="M939.65 106.312H938.521C935.709 106.312 933.43 108.592 933.43 111.404V160.16C933.43 162.972 935.709 165.252 938.521 165.252H939.65C942.461 165.252 944.741 162.972 944.741 160.16V111.404C944.741 108.592 942.461 106.312 939.65 106.312Z" fill="#F7F8FA"/>
<path opacity="0.51" d="M939.65 175.273H938.521C935.709 175.273 933.43 177.553 933.43 180.365V229.121C933.43 231.933 935.709 234.213 938.521 234.213H939.65C942.461 234.213 944.741 231.933 944.741 229.121V180.365C944.741 177.553 942.461 175.273 939.65 175.273Z" fill="#F7F8FA"/>
<path opacity="0.51" d="M939.65 244.234H938.521C935.709 244.234 933.43 246.514 933.43 249.326V298.082C933.43 300.894 935.709 303.173 938.521 303.173H939.65C942.461 303.173 944.741 300.894 944.741 298.082V249.326C944.741 246.514 942.461 244.234 939.65 244.234Z" fill="#F7F8FA"/>
<path opacity="0.51" d="M939.65 313.195H938.521C935.709 313.195 933.43 315.475 933.43 318.287V367.043C933.43 369.855 935.709 372.134 938.521 372.134H939.65C942.462 372.134 944.741 369.855 944.741 367.043V318.287C944.741 315.475 942.462 313.195 939.65 313.195Z" fill="#F7F8FA"/>
<path opacity="0.51" d="M959.025 106.312H957.896C955.084 106.312 952.805 108.592 952.805 111.404V160.16C952.805 162.972 955.084 165.252 957.896 165.252H959.025C961.837 165.252 964.116 162.972 964.116 160.16V111.404C964.116 108.592 961.837 106.312 959.025 106.312Z" fill="#F7F8FA"/>
<path opacity="0.51" d="M959.025 175.273H957.896C955.084 175.273 952.805 177.553 952.805 180.365V229.121C952.805 231.933 955.084 234.213 957.896 234.213H959.025C961.837 234.213 964.116 231.933 964.116 229.121V180.365C964.116 177.553 961.837 175.273 959.025 175.273Z" fill="#F7F8FA"/>
<path opacity="0.51" d="M959.025 244.234H957.896C955.084 244.234 952.805 246.514 952.805 249.326V298.082C952.805 300.894 955.084 303.173 957.896 303.173H959.025C961.837 303.173 964.116 300.894 964.116 298.082V249.326C964.116 246.514 961.837 244.234 959.025 244.234Z" fill="#F7F8FA"/>
<path opacity="0.51" d="M959.025 313.195H957.896C955.084 313.195 952.805 315.475 952.805 318.287V367.043C952.805 369.855 955.084 372.134 957.896 372.134H959.025C961.837 372.134 964.116 369.855 964.116 367.043V318.287C964.116 315.475 961.837 313.195 959.025 313.195Z" fill="#F7F8FA"/>
<path opacity="0.51" d="M977.72 106.312H976.591C973.779 106.312 971.5 108.592 971.5 111.404V160.16C971.5 162.972 973.779 165.252 976.591 165.252H977.72C980.532 165.252 982.811 162.972 982.811 160.16V111.404C982.811 108.592 980.532 106.312 977.72 106.312Z" fill="#F7F8FA"/>
<path opacity="0.51" d="M977.72 175.273H976.591C973.779 175.273 971.5 177.553 971.5 180.365V229.121C971.5 231.933 973.779 234.213 976.591 234.213H977.72C980.532 234.213 982.811 231.933 982.811 229.121V180.365C982.811 177.553 980.532 175.273 977.72 175.273Z" fill="#F7F8FA"/>
<path opacity="0.51" d="M977.72 244.234H976.591C973.779 244.234 971.5 246.514 971.5 249.326V298.082C971.5 300.894 973.779 303.173 976.591 303.173H977.72C980.532 303.173 982.811 300.894 982.811 298.082V249.326C982.811 246.514 980.532 244.234 977.72 244.234Z" fill="#F7F8FA"/>
<path opacity="0.51" d="M977.72 313.195H976.591C973.779 313.195 971.5 315.475 971.5 318.287V367.043C971.5 369.855 973.779 372.134 976.591 372.134H977.72C980.532 372.134 982.811 369.855 982.811 367.043V318.287C982.811 315.475 980.532 313.195 977.72 313.195Z" fill="#F7F8FA"/>
<path opacity="0.51" d="M996.017 106.312H994.888C992.076 106.312 989.797 108.592 989.797 111.404V160.16C989.797 162.972 992.076 165.252 994.888 165.252H996.017C998.829 165.252 1001.11 162.972 1001.11 160.16V111.404C1001.11 108.592 998.829 106.312 996.017 106.312Z" fill="#F7F8FA"/>
<path opacity="0.51" d="M996.017 175.273H994.888C992.076 175.273 989.797 177.553 989.797 180.365V229.121C989.797 231.933 992.076 234.213 994.888 234.213H996.017C998.829 234.213 1001.11 231.933 1001.11 229.121V180.365C1001.11 177.553 998.829 175.273 996.017 175.273Z" fill="#F7F8FA"/>
<path opacity="0.51" d="M996.017 244.234H994.888C992.076 244.234 989.797 246.514 989.797 249.326V298.082C989.797 300.894 992.076 303.173 994.888 303.173H996.017C998.829 303.173 1001.11 300.894 1001.11 298.082V249.326C1001.11 246.514 998.829 244.234 996.017 244.234Z" fill="#F7F8FA"/>
<path opacity="0.51" d="M996.017 313.195H994.888C992.076 313.195 989.797 315.475 989.797 318.287V367.043C989.797 369.855 992.076 372.134 994.888 372.134H996.017C998.829 372.134 1001.11 369.855 1001.11 367.043V318.287C1001.11 315.475 998.829 313.195 996.017 313.195Z" fill="#F7F8FA"/>
</g>
<g opacity="0.15">
<path opacity="0.15" d="M903.603 268.922H902.474C899.662 268.922 897.383 271.201 897.383 274.013V322.77C897.383 325.582 899.662 327.861 902.474 327.861H903.603C906.415 327.861 908.694 325.582 908.694 322.77V274.013C908.694 271.201 906.415 268.922 903.603 268.922Z" fill="#F7F8FA"/>
<path opacity="0.15" d="M903.603 337.883H902.474C899.662 337.883 897.383 340.162 897.383 342.974V391.731C897.383 394.542 899.662 396.822 902.474 396.822H903.603C906.415 396.822 908.694 394.542 908.694 391.731V342.974C908.694 340.162 906.415 337.883 903.603 337.883Z" fill="#F7F8FA"/>
<path opacity="0.15" d="M903.603 406.844H902.474C899.662 406.844 897.383 409.123 897.383 411.935V460.692C897.383 463.503 899.662 465.783 902.474 465.783H903.603C906.415 465.783 908.694 463.503 908.694 460.692V411.935C908.694 409.123 906.415 406.844 903.603 406.844Z" fill="#F7F8FA"/>
<path opacity="0.15" d="M903.603 475.805H902.474C899.662 475.805 897.383 478.084 897.383 480.896V529.652C897.383 532.464 899.662 534.744 902.474 534.744H903.603C906.415 534.744 908.694 532.464 908.694 529.652V480.896C908.694 478.084 906.415 475.805 903.603 475.805Z" fill="#F7F8FA"/>
<path opacity="0.15" d="M921.658 268.922H920.529C917.717 268.922 915.438 271.201 915.438 274.013V322.77C915.438 325.582 917.717 327.861 920.529 327.861H921.658C924.469 327.861 926.749 325.582 926.749 322.77V274.013C926.749 271.201 924.469 268.922 921.658 268.922Z" fill="#F7F8FA"/>
<path opacity="0.15" d="M921.658 337.883H920.529C917.717 337.883 915.438 340.162 915.438 342.974V391.731C915.438 394.542 917.717 396.822 920.529 396.822H921.658C924.469 396.822 926.749 394.542 926.749 391.731V342.974C926.749 340.162 924.469 337.883 921.658 337.883Z" fill="#F7F8FA"/>
<path opacity="0.15" d="M921.658 406.844H920.529C917.717 406.844 915.438 409.123 915.438 411.935V460.691C915.438 463.503 917.717 465.783 920.529 465.783H921.658C924.469 465.783 926.749 463.503 926.749 460.691V411.935C926.749 409.123 924.469 406.844 921.658 406.844Z" fill="#F7F8FA"/>
<path opacity="0.15" d="M921.658 475.805H920.529C917.717 475.805 915.438 478.084 915.438 480.896V529.652C915.438 532.464 917.717 534.744 920.529 534.744H921.658C924.469 534.744 926.749 532.464 926.749 529.652V480.896C926.749 478.084 924.469 475.805 921.658 475.805Z" fill="#F7F8FA"/>
<path opacity="0.15" d="M939.65 268.922H938.521C935.709 268.922 933.43 271.201 933.43 274.013V322.77C933.43 325.582 935.709 327.861 938.521 327.861H939.65C942.461 327.861 944.741 325.582 944.741 322.77V274.013C944.741 271.201 942.461 268.922 939.65 268.922Z" fill="#F7F8FA"/>
<path opacity="0.15" d="M939.65 337.883H938.521C935.709 337.883 933.43 340.162 933.43 342.974V391.731C933.43 394.542 935.709 396.822 938.521 396.822H939.65C942.462 396.822 944.741 394.542 944.741 391.731V342.974C944.741 340.162 942.462 337.883 939.65 337.883Z" fill="#F7F8FA"/>
<path opacity="0.15" d="M939.65 406.844H938.521C935.709 406.844 933.43 409.123 933.43 411.935V460.692C933.43 463.503 935.709 465.783 938.521 465.783H939.65C942.461 465.783 944.741 463.503 944.741 460.692V411.935C944.741 409.123 942.461 406.844 939.65 406.844Z" fill="#F7F8FA"/>
<path opacity="0.15" d="M939.65 475.805H938.521C935.709 475.805 933.43 478.084 933.43 480.896V529.652C933.43 532.464 935.709 534.744 938.521 534.744H939.65C942.461 534.744 944.741 532.464 944.741 529.652V480.896C944.741 478.084 942.461 475.805 939.65 475.805Z" fill="#F7F8FA"/>
<path opacity="0.15" d="M959.025 268.922H957.896C955.084 268.922 952.805 271.201 952.805 274.013V322.77C952.805 325.582 955.084 327.861 957.896 327.861H959.025C961.837 327.861 964.116 325.582 964.116 322.77V274.013C964.116 271.201 961.837 268.922 959.025 268.922Z" fill="#F7F8FA"/>
<path opacity="0.15" d="M959.025 337.883H957.896C955.084 337.883 952.805 340.162 952.805 342.974V391.731C952.805 394.542 955.084 396.822 957.896 396.822H959.025C961.837 396.822 964.116 394.542 964.116 391.731V342.974C964.116 340.162 961.837 337.883 959.025 337.883Z" fill="#F7F8FA"/>
<path opacity="0.15" d="M959.025 406.844H957.896C955.084 406.844 952.805 409.123 952.805 411.935V460.691C952.805 463.503 955.084 465.783 957.896 465.783H959.025C961.837 465.783 964.116 463.503 964.116 460.691V411.935C964.116 409.123 961.837 406.844 959.025 406.844Z" fill="#F7F8FA"/>
<path opacity="0.15" d="M959.025 475.805H957.896C955.084 475.805 952.805 478.084 952.805 480.896V529.652C952.805 532.464 955.084 534.744 957.896 534.744H959.025C961.837 534.744 964.116 532.464 964.116 529.652V480.896C964.116 478.084 961.837 475.805 959.025 475.805Z" fill="#F7F8FA"/>
<path opacity="0.15" d="M977.72 268.922H976.591C973.779 268.922 971.5 271.201 971.5 274.013V322.77C971.5 325.582 973.779 327.861 976.591 327.861H977.72C980.532 327.861 982.811 325.582 982.811 322.77V274.013C982.811 271.201 980.532 268.922 977.72 268.922Z" fill="#F7F8FA"/>
<path opacity="0.15" d="M977.72 337.883H976.591C973.779 337.883 971.5 340.162 971.5 342.974V391.731C971.5 394.542 973.779 396.822 976.591 396.822H977.72C980.532 396.822 982.811 394.542 982.811 391.731V342.974C982.811 340.162 980.532 337.883 977.72 337.883Z" fill="#F7F8FA"/>
<path opacity="0.15" d="M977.72 406.844H976.591C973.779 406.844 971.5 409.123 971.5 411.935V460.691C971.5 463.503 973.779 465.783 976.591 465.783H977.72C980.532 465.783 982.811 463.503 982.811 460.691V411.935C982.811 409.123 980.532 406.844 977.72 406.844Z" fill="#F7F8FA"/>
<path opacity="0.15" d="M977.72 475.805H976.591C973.779 475.805 971.5 478.084 971.5 480.896V529.652C971.5 532.464 973.779 534.744 976.591 534.744H977.72C980.532 534.744 982.811 532.464 982.811 529.652V480.896C982.811 478.084 980.532 475.805 977.72 475.805Z" fill="#F7F8FA"/>
<path opacity="0.15" d="M996.017 268.922H994.888C992.076 268.922 989.797 271.201 989.797 274.013V322.77C989.797 325.582 992.076 327.861 994.888 327.861H996.017C998.829 327.861 1001.11 325.582 1001.11 322.77V274.013C1001.11 271.201 998.829 268.922 996.017 268.922Z" fill="#F7F8FA"/>
<path opacity="0.15" d="M996.017 337.883H994.888C992.076 337.883 989.797 340.162 989.797 342.974V391.731C989.797 394.542 992.076 396.822 994.888 396.822H996.017C998.829 396.822 1001.11 394.542 1001.11 391.731V342.974C1001.11 340.162 998.829 337.883 996.017 337.883Z" fill="#F7F8FA"/>
<path opacity="0.15" d="M996.017 406.844H994.888C992.076 406.844 989.797 409.123 989.797 411.935V460.691C989.797 463.503 992.076 465.783 994.888 465.783H996.017C998.829 465.783 1001.11 463.503 1001.11 460.691V411.935C1001.11 409.123 998.829 406.844 996.017 406.844Z" fill="#F7F8FA"/>
<path opacity="0.15" d="M996.017 475.805H994.888C992.076 475.805 989.797 478.084 989.797 480.896V529.652C989.797 532.464 992.076 534.744 994.888 534.744H996.017C998.829 534.744 1001.11 532.464 1001.11 529.652V480.896C1001.11 478.084 998.829 475.805 996.017 475.805Z" fill="#F7F8FA"/>
</g>
<path d="M521.509 386.781H584.997V401.835H510.512C509.976 401.835 509.462 401.622 509.084 401.244C508.705 400.865 508.492 400.351 508.492 399.816C508.492 396.364 509.863 393.054 512.304 390.613C514.745 388.173 518.055 386.801 521.507 386.801L521.509 386.781Z" fill="#F7F8FA"/>
<path d="M589.861 401.832H666.375V386.778H589.861V401.832Z" fill="#F7F8FA"/>
<path d="M671.651 401.43H748.164V386.376H671.651V401.43Z" fill="#F7F8FA"/>
<g opacity="0.26">
<path opacity="0.26" d="M571.56 461.641H568.204C566.969 461.641 565.969 462.641 565.969 463.875V479.253C565.969 480.487 566.969 481.487 568.204 481.487H571.56C572.795 481.487 573.795 480.487 573.795 479.253V463.875C573.795 462.641 572.795 461.641 571.56 461.641Z" fill="#F7F8FA"/>
<path opacity="0.26" d="M571.56 488.559H568.204C566.969 488.559 565.969 489.559 565.969 490.793V506.171C565.969 507.405 566.969 508.405 568.204 508.405H571.56C572.795 508.405 573.795 507.405 573.795 506.171V490.793C573.795 489.559 572.795 488.559 571.56 488.559Z" fill="#F7F8FA"/>
<path opacity="0.26" d="M582.451 461.641H579.094C577.86 461.641 576.859 462.641 576.859 463.875V479.253C576.859 480.487 577.86 481.487 579.094 481.487H582.451C583.685 481.487 584.686 480.487 584.686 479.253V463.875C584.686 462.641 583.685 461.641 582.451 461.641Z" fill="#F7F8FA"/>
<path opacity="0.26" d="M582.451 488.559H579.094C577.86 488.559 576.859 489.559 576.859 490.793V506.171C576.859 507.405 577.86 508.405 579.094 508.405H582.451C583.685 508.405 584.686 507.405 584.686 506.171V490.793C584.686 489.559 583.685 488.559 582.451 488.559Z" fill="#F7F8FA"/>
<path opacity="0.26" d="M593.654 461.641H590.297C589.063 461.641 588.062 462.641 588.062 463.875V479.253C588.062 480.487 589.063 481.487 590.297 481.487H593.654C594.888 481.487 595.889 480.487 595.889 479.253V463.875C595.889 462.641 594.888 461.641 593.654 461.641Z" fill="#F7F8FA"/>
<path opacity="0.26" d="M593.654 488.559H590.297C589.063 488.559 588.062 489.559 588.062 490.793V506.171C588.062 507.405 589.063 508.405 590.297 508.405H593.654C594.888 508.405 595.889 507.405 595.889 506.171V490.793C595.889 489.559 594.888 488.559 593.654 488.559Z" fill="#F7F8FA"/>
<path opacity="0.26" d="M604.857 461.641H601.501C600.266 461.641 599.266 462.641 599.266 463.875V479.253C599.266 480.487 600.266 481.487 601.501 481.487H604.857C606.092 481.487 607.092 480.487 607.092 479.253V463.875C607.092 462.641 606.092 461.641 604.857 461.641Z" fill="#F7F8FA"/>
<path opacity="0.26" d="M604.857 488.559H601.501C600.266 488.559 599.266 489.559 599.266 490.793V506.171C599.266 507.405 600.266 508.405 601.501 508.405H604.857C606.092 508.405 607.092 507.405 607.092 506.171V490.793C607.092 489.559 606.092 488.559 604.857 488.559Z" fill="#F7F8FA"/>
</g>
<g opacity="0.26">
<path opacity="0.26" d="M509.506 461.641H506.149C504.915 461.641 503.914 462.641 503.914 463.875V479.253C503.914 480.487 504.915 481.487 506.149 481.487H509.506C510.74 481.487 511.741 480.487 511.741 479.253V463.875C511.741 462.641 510.74 461.641 509.506 461.641Z" fill="#F7F8FA"/>
<path opacity="0.26" d="M509.506 488.559H506.149C504.915 488.559 503.914 489.559 503.914 490.793V506.171C503.914 507.405 504.915 508.405 506.149 508.405H509.506C510.74 508.405 511.741 507.405 511.741 506.171V490.793C511.741 489.559 510.74 488.559 509.506 488.559Z" fill="#F7F8FA"/>
<path opacity="0.26" d="M520.396 461.641H517.04C515.805 461.641 514.805 462.641 514.805 463.875V479.253C514.805 480.487 515.805 481.487 517.04 481.487H520.396C521.631 481.487 522.631 480.487 522.631 479.253V463.875C522.631 462.641 521.631 461.641 520.396 461.641Z" fill="#F7F8FA"/>
<path opacity="0.26" d="M520.396 488.559H517.04C515.805 488.559 514.805 489.559 514.805 490.793V506.171C514.805 507.405 515.805 508.405 517.04 508.405H520.396C521.631 508.405 522.631 507.405 522.631 506.171V490.793C522.631 489.559 521.631 488.559 520.396 488.559Z" fill="#F7F8FA"/>
<path opacity="0.26" d="M531.6 461.641H528.243C527.008 461.641 526.008 462.641 526.008 463.875V479.253C526.008 480.487 527.008 481.487 528.243 481.487H531.6C532.834 481.487 533.834 480.487 533.834 479.253V463.875C533.834 462.641 532.834 461.641 531.6 461.641Z" fill="#F7F8FA"/>
<path opacity="0.26" d="M531.6 488.559H528.243C527.008 488.559 526.008 489.559 526.008 490.793V506.171C526.008 507.405 527.008 508.405 528.243 508.405H531.6C532.834 508.405 533.834 507.405 533.834 506.171V490.793C533.834 489.559 532.834 488.559 531.6 488.559Z" fill="#F7F8FA"/>
<path opacity="0.26" d="M542.803 461.641H539.446C538.212 461.641 537.211 462.641 537.211 463.875V479.253C537.211 480.487 538.212 481.487 539.446 481.487H542.803C544.037 481.487 545.037 480.487 545.037 479.253V463.875C545.037 462.641 544.037 461.641 542.803 461.641Z" fill="#F7F8FA"/>
<path opacity="0.26" d="M542.803 488.559H539.446C538.212 488.559 537.211 489.559 537.211 490.793V506.171C537.211 507.405 538.212 508.405 539.446 508.405H542.803C544.037 508.405 545.037 507.405 545.037 506.171V490.793C545.037 489.559 544.037 488.559 542.803 488.559Z" fill="#F7F8FA"/>
</g>
<g opacity="0.26">
<path opacity="0.26" d="M445.943 461.641H442.586C441.352 461.641 440.352 462.641 440.352 463.875V479.253C440.352 480.487 441.352 481.487 442.586 481.487H445.943C447.178 481.487 448.178 480.487 448.178 479.253V463.875C448.178 462.641 447.178 461.641 445.943 461.641Z" fill="#F7F8FA"/>
<path opacity="0.26" d="M445.943 488.559H442.586C441.352 488.559 440.352 489.559 440.352 490.793V506.171C440.352 507.405 441.352 508.405 442.586 508.405H445.943C447.178 508.405 448.178 507.405 448.178 506.171V490.793C448.178 489.559 447.178 488.559 445.943 488.559Z" fill="#F7F8FA"/>
<path opacity="0.26" d="M456.842 461.641H453.485C452.251 461.641 451.25 462.641 451.25 463.875V479.253C451.25 480.487 452.251 481.487 453.485 481.487H456.842C458.076 481.487 459.077 480.487 459.077 479.253V463.875C459.077 462.641 458.076 461.641 456.842 461.641Z" fill="#F7F8FA"/>
<path opacity="0.26" d="M456.842 488.559H453.485C452.251 488.559 451.25 489.559 451.25 490.793V506.171C451.25 507.405 452.251 508.405 453.485 508.405H456.842C458.076 508.405 459.077 507.405 459.077 506.171V490.793C459.077 489.559 458.076 488.559 456.842 488.559Z" fill="#F7F8FA"/>
<path opacity="0.26" d="M468.037 461.641H464.68C463.446 461.641 462.445 462.641 462.445 463.875V479.253C462.445 480.487 463.446 481.487 464.68 481.487H468.037C469.271 481.487 470.272 480.487 470.272 479.253V463.875C470.272 462.641 469.271 461.641 468.037 461.641Z" fill="#F7F8FA"/>
<path opacity="0.26" d="M468.037 488.559H464.68C463.446 488.559 462.445 489.559 462.445 490.793V506.171C462.445 507.405 463.446 508.405 464.68 508.405H468.037C469.271 508.405 470.272 507.405 470.272 506.171V490.793C470.272 489.559 469.271 488.559 468.037 488.559Z" fill="#F7F8FA"/>
<path opacity="0.26" d="M479.24 461.641H475.883C474.649 461.641 473.648 462.641 473.648 463.875V479.253C473.648 480.487 474.649 481.487 475.883 481.487H479.24C480.474 481.487 481.475 480.487 481.475 479.253V463.875C481.475 462.641 480.474 461.641 479.24 461.641Z" fill="#F7F8FA"/>
<path opacity="0.26" d="M479.24 488.559H475.883C474.649 488.559 473.648 489.559 473.648 490.793V506.171C473.648 507.405 474.649 508.405 475.883 508.405H479.24C480.474 508.405 481.475 507.405 481.475 506.171V490.793C481.475 489.559 480.474 488.559 479.24 488.559Z" fill="#F7F8FA"/>
</g>
<path d="M707.098 450.398H640.126C638.641 450.398 637.438 451.602 637.438 453.087C637.438 454.571 638.641 455.775 640.126 455.775H707.098C708.583 455.775 709.786 454.571 709.786 453.087C709.786 451.602 708.583 450.398 707.098 450.398Z" fill="#2448B1"/>
<path d="M727.695 450.398H723.258C721.774 450.398 720.57 451.602 720.57 453.087C720.57 454.571 721.774 455.775 723.258 455.775H727.695C729.179 455.775 730.383 454.571 730.383 453.087C730.383 451.602 729.179 450.398 727.695 450.398Z" fill="#2448B1"/>
<path d="M654.655 432.836H650.219C648.735 432.836 647.531 434.039 647.531 435.524C647.531 437.009 648.735 438.212 650.219 438.212H654.655C656.14 438.212 657.344 437.009 657.344 435.524C657.344 434.039 656.14 432.836 654.655 432.836Z" fill="#2448B1"/>
<path d="M729.809 441.949H662.837C661.352 441.949 660.148 443.153 660.148 444.637C660.148 446.122 661.352 447.326 662.837 447.326H729.809C731.294 447.326 732.497 446.122 732.497 444.637C732.497 443.153 731.294 441.949 729.809 441.949Z" fill="#2448B1"/>
<path d="M743.27 458.852H676.298C674.813 458.852 673.609 460.055 673.609 461.54C673.609 463.024 674.813 464.228 676.298 464.228H743.27C744.755 464.228 745.958 463.024 745.958 461.54C745.958 460.055 744.755 458.852 743.27 458.852Z" fill="#2448B1"/>
<path d="M652.747 468.984H642.313C640.829 468.984 639.625 470.188 639.625 471.672C639.625 473.157 640.829 474.361 642.313 474.361H652.747C654.232 474.361 655.435 473.157 655.435 471.672C655.435 470.188 654.232 468.984 652.747 468.984Z" fill="#2448B1"/>
<path d="M683.285 468.984H666.501C665.016 468.984 663.812 470.188 663.812 471.672C663.812 473.157 665.016 474.361 666.501 474.361H683.285C684.769 474.361 685.973 473.157 685.973 471.672C685.973 470.188 684.769 468.984 683.285 468.984Z" fill="#2448B1"/>
<path d="M748.176 420.43H681.204C679.719 420.43 678.516 421.633 678.516 423.118C678.516 424.602 679.719 425.806 681.204 425.806H748.176C749.661 425.806 750.864 424.602 750.864 423.118C750.864 421.633 749.661 420.43 748.176 420.43Z" fill="#2448B1"/>
<g opacity="0.8">
<path opacity="0.8" d="M820.414 502.925V444.365C820.414 443.067 819.362 442.016 818.065 442.016H818.062C816.765 442.016 815.713 443.067 815.713 444.365V502.925C815.713 504.222 816.765 505.274 818.062 505.274H818.065C819.362 505.274 820.414 504.222 820.414 502.925Z" fill="#F7F8FA"/>
<path opacity="0.8" d="M827.797 522.784V464.224C827.797 462.927 826.745 461.875 825.448 461.875H825.445C824.148 461.875 823.096 462.927 823.096 464.224V522.784C823.096 524.082 824.148 525.133 825.445 525.133H825.448C826.745 525.133 827.797 524.082 827.797 522.784Z" fill="#F7F8FA"/>
<path opacity="0.8" d="M813.023 534.554V475.994C813.023 474.696 811.972 473.645 810.674 473.645H810.672C809.374 473.645 808.323 474.696 808.323 475.994V534.554C808.323 535.851 809.374 536.903 810.672 536.903H810.674C811.972 536.903 813.023 535.851 813.023 534.554Z" fill="#F7F8FA"/>
<path opacity="0.8" d="M846.617 538.843V480.283C846.617 478.985 845.565 477.934 844.268 477.934H844.266C842.968 477.934 841.916 478.985 841.916 480.283V538.843C841.916 540.14 842.968 541.192 844.266 541.192H844.268C845.565 541.192 846.617 540.14 846.617 538.843Z" fill="#F7F8FA"/>
</g>
<g opacity="0.48">
<path opacity="0.48" d="M286.159 491.861C249.252 489.808 212.352 487.326 175.386 488.641C150.439 489.527 125.469 492.231 101.204 498.231C88.9085 501.253 76.8554 505.187 65.1452 510.002C55.1443 514.133 44.4388 518.565 36.3385 525.934C32.6877 529.259 29.8784 533.195 28.1484 537.826C27.8881 538.524 29.0055 538.824 29.2703 538.133C33.6997 526.266 45.6707 520.059 56.5019 515.035C68.0069 509.723 79.9076 505.314 92.0963 501.848C116.581 494.838 141.953 491.452 167.349 490.138C206.962 488.084 246.557 490.811 286.125 493.005C286.171 492.625 286.182 492.243 286.159 491.861Z" fill="#F7F8FA"/>
<path opacity="0.48" d="M753.636 345.046C735.661 358.186 717.328 370.887 698.121 382.191C680.082 392.807 661.382 402.244 642.697 411.671C620.38 422.935 597.887 433.835 575 443.812C575.194 444.213 575.332 444.638 575.411 445.077C592.87 437.493 610.096 429.348 627.096 420.821C647.174 410.764 667.337 400.797 686.971 389.89C704.904 379.927 722.146 368.851 738.914 357.04C744.053 353.423 749.155 349.758 754.222 346.045C754.816 345.612 754.24 344.607 753.636 345.046Z" fill="#F7F8FA"/>
<path opacity="0.48" d="M886.636 226.108C883.571 228.784 880.521 231.476 877.485 234.185C874.501 236.848 871.53 239.526 868.573 242.221C866.927 243.716 865.289 245.212 863.659 246.708C863.109 247.213 863.928 248.03 864.475 247.527C867.388 244.851 870.312 242.188 873.249 239.537C876.241 236.835 879.248 234.148 882.269 231.475C883.993 229.949 885.72 228.429 887.453 226.915C887.56 226.807 887.62 226.66 887.62 226.507C887.62 226.354 887.56 226.207 887.453 226.099C887.343 225.993 887.197 225.934 887.044 225.934C886.892 225.934 886.745 225.993 886.636 226.099V226.108Z" fill="#F7F8FA"/>
</g>
<defs>
<linearGradient id="paint0_linear_3114_241816" x1="888.412" y1="347.335" x2="888.412" y2="472.725" gradientUnits="userSpaceOnUse">
<stop stop-color="#438A62"/>
<stop offset="1" stop-color="#73BC78"/>
</linearGradient>
<linearGradient id="paint1_linear_3114_241816" x1="840.47" y1="97.2253" x2="901.006" y2="126.367" gradientUnits="userSpaceOnUse">
<stop stop-color="#E283AE"/>
<stop offset="1" stop-color="#D94841"/>
</linearGradient>
<linearGradient id="paint2_linear_3114_241816" x1="860.917" y1="40.23" x2="860.917" y2="302.744" gradientUnits="userSpaceOnUse">
<stop stop-color="#D94841"/>
<stop offset="1" stop-color="#E283AE"/>
</linearGradient>
<linearGradient id="paint3_linear_3114_241816" x1="234.296" y1="474.737" x2="400.195" y2="683.437" gradientUnits="userSpaceOnUse">
<stop stop-color="#E283AE"/>
<stop offset="1" stop-color="#D94841"/>
</linearGradient>
<clipPath id="clip0_3114_241816">
<rect width="1000.44" height="295.705" fill="white" transform="translate(-49 240.051)"/>
</clipPath>
</defs>
</svg>
