<svg width="72" height="72" viewBox="0 0 72 72" fill="none" xmlns="http://www.w3.org/2000/svg">
<rect width="72" height="72" rx="12" fill="#EEF8FE"/>
<path d="M31 23.0833V25.5833H35.5833V46C35.5833 48.5333 37.6333 50.5833 40.1667 50.5833H42.6667V48.0833H40.1667C39.0167 48.0833 38.0833 47.15 38.0833 46V38.0833H42.6667V35.5833H38.0833V25.5833H42.6667V23.0833H31Z" fill="#ABDAF7"/>
<path d="M44.6667 40.1667H50.6667C51.7667 40.1667 52.6667 39.2667 52.6667 38.1667V35.5C52.6667 34.4 51.7667 33.5 50.6667 33.5H44.6667C43.5667 33.5 42.6667 34.4 42.6667 35.5V35.5833V38.0833V38.1667C42.6667 39.2667 43.5667 40.1667 44.6667 40.1667Z" fill="#ABDAF7"/>
<path d="M44.6667 27.6667H50.6667C51.7667 27.6667 52.6667 26.7667 52.6667 25.6667V23C52.6667 21.9 51.7667 21 50.6667 21H44.6667C43.5667 21 42.6667 21.9 42.6667 23V23.0833V25.5833V25.6667C42.6667 26.7667 43.5667 27.6667 44.6667 27.6667Z" fill="#ABDAF7"/>
<path d="M44.6667 52.6667H50.6667C51.7667 52.6667 52.6667 51.7667 52.6667 50.6667V48C52.6667 46.9 51.7667 46 50.6667 46H44.6667C43.5667 46 42.6667 46.9 42.6667 48V48.0833V50.5833V50.6667C42.6667 51.7667 43.5667 52.6667 44.6667 52.6667Z" fill="#ABDAF7"/>
<path d="M22.6663 29.332H27.6663C29.4997 29.332 30.9997 27.832 30.9997 25.9987V25.582V23.082V22.6654C30.9997 20.832 29.4997 19.332 27.6663 19.332H22.6663C20.833 19.332 19.333 20.832 19.333 22.6654V25.9987C19.333 27.832 20.833 29.332 22.6663 29.332Z" fill="#57B6F0"/>
</svg>
