<svg width="72" height="72" viewBox="0 0 72 72" fill="none" xmlns="http://www.w3.org/2000/svg">
<rect width="72" height="72" rx="12" fill="#FCF1ED"/>
<path d="M43.9164 21.932V19.332C43.9164 18.6487 43.3497 18.082 42.6664 18.082C41.9831 18.082 41.4164 18.6487 41.4164 19.332V21.832H30.5831V19.332C30.5831 18.6487 30.0164 18.082 29.3331 18.082C28.6497 18.082 28.0831 18.6487 28.0831 19.332V21.932C23.5831 22.3487 21.3997 25.032 21.0664 29.0154C21.0331 29.4987 21.4331 29.8987 21.8997 29.8987H50.0997C50.5831 29.8987 50.9831 29.482 50.9331 29.0154C50.5997 25.032 48.4164 22.3487 43.9164 21.932Z" fill="#EFB7A4"/>
<path d="M49.3333 32.3984H22.6667C21.75 32.3984 21 33.1484 21 34.0651V44.3318C21 49.3318 23.5 52.6651 29.3333 52.6651H42.6667C48.5 52.6651 51 49.3318 51 44.3318V34.0651C51 33.1484 50.25 32.3984 49.3333 32.3984ZM31.35 46.3484C31.2667 46.4151 31.1833 46.4984 31.1 46.5484C31 46.6151 30.9 46.6651 30.8 46.6984C30.7 46.7484 30.6 46.7818 30.5 46.7984C30.3833 46.8151 30.2833 46.8318 30.1667 46.8318C29.95 46.8318 29.7333 46.7818 29.5333 46.6984C29.3167 46.6151 29.15 46.4984 28.9833 46.3484C28.6833 46.0318 28.5 45.5984 28.5 45.1651C28.5 44.7318 28.6833 44.2984 28.9833 43.9818C29.15 43.8318 29.3167 43.7151 29.5333 43.6318C29.8333 43.4984 30.1667 43.4651 30.5 43.5318C30.6 43.5484 30.7 43.5818 30.8 43.6318C30.9 43.6651 31 43.7151 31.1 43.7818C31.1833 43.8484 31.2667 43.9151 31.35 43.9818C31.65 44.2984 31.8333 44.7318 31.8333 45.1651C31.8333 45.5984 31.65 46.0318 31.35 46.3484ZM31.35 40.5151C31.0333 40.8151 30.6 40.9984 30.1667 40.9984C29.7333 40.9984 29.3 40.8151 28.9833 40.5151C28.6833 40.1984 28.5 39.7651 28.5 39.3318C28.5 38.8984 28.6833 38.4651 28.9833 38.1484C29.45 37.6818 30.1833 37.5318 30.8 37.7984C31.0167 37.8818 31.2 37.9984 31.35 38.1484C31.65 38.4651 31.8333 38.8984 31.8333 39.3318C31.8333 39.7651 31.65 40.1984 31.35 40.5151ZM37.1833 46.3484C36.8667 46.6484 36.4333 46.8318 36 46.8318C35.5667 46.8318 35.1333 46.6484 34.8167 46.3484C34.5167 46.0318 34.3333 45.5984 34.3333 45.1651C34.3333 44.7318 34.5167 44.2984 34.8167 43.9818C35.4333 43.3651 36.5667 43.3651 37.1833 43.9818C37.4833 44.2984 37.6667 44.7318 37.6667 45.1651C37.6667 45.5984 37.4833 46.0318 37.1833 46.3484ZM37.1833 40.5151C37.1 40.5818 37.0167 40.6484 36.9333 40.7151C36.8333 40.7818 36.7333 40.8318 36.6333 40.8651C36.5333 40.9151 36.4333 40.9484 36.3333 40.9651C36.2167 40.9818 36.1167 40.9984 36 40.9984C35.5667 40.9984 35.1333 40.8151 34.8167 40.5151C34.5167 40.1984 34.3333 39.7651 34.3333 39.3318C34.3333 38.8984 34.5167 38.4651 34.8167 38.1484C34.9667 37.9984 35.15 37.8818 35.3667 37.7984C35.9833 37.5318 36.7167 37.6818 37.1833 38.1484C37.4833 38.4651 37.6667 38.8984 37.6667 39.3318C37.6667 39.7651 37.4833 40.1984 37.1833 40.5151ZM43.0167 46.3484C42.7 46.6484 42.2667 46.8318 41.8333 46.8318C41.4 46.8318 40.9667 46.6484 40.65 46.3484C40.35 46.0318 40.1667 45.5984 40.1667 45.1651C40.1667 44.7318 40.35 44.2984 40.65 43.9818C41.2667 43.3651 42.4 43.3651 43.0167 43.9818C43.3167 44.2984 43.5 44.7318 43.5 45.1651C43.5 45.5984 43.3167 46.0318 43.0167 46.3484ZM43.0167 40.5151C42.9333 40.5818 42.85 40.6484 42.7667 40.7151C42.6667 40.7818 42.5667 40.8318 42.4667 40.8651C42.3667 40.9151 42.2667 40.9484 42.1667 40.9651C42.05 40.9818 41.9333 40.9984 41.8333 40.9984C41.4 40.9984 40.9667 40.8151 40.65 40.5151C40.35 40.1984 40.1667 39.7651 40.1667 39.3318C40.1667 38.8984 40.35 38.4651 40.65 38.1484C40.8167 37.9984 40.9833 37.8818 41.2 37.7984C41.5 37.6651 41.8333 37.6318 42.1667 37.6984C42.2667 37.7151 42.3667 37.7484 42.4667 37.7984C42.5667 37.8318 42.6667 37.8818 42.7667 37.9484C42.85 38.0151 42.9333 38.0818 43.0167 38.1484C43.3167 38.4651 43.5 38.8984 43.5 39.3318C43.5 39.7651 43.3167 40.1984 43.0167 40.5151Z" fill="#E0704A"/>
</svg>
