<svg width="72" height="72" viewBox="0 0 72 72" fill="none" xmlns="http://www.w3.org/2000/svg">
<rect width="72" height="72" rx="12" fill="#EDF3FE"/>
<path d="M40.9988 29.332C40.6132 29.3322 40.2396 29.4661 39.9417 29.7109C39.6437 29.9557 39.4399 30.2962 39.3649 30.6744C39.2898 31.0526 39.3483 31.4451 39.5302 31.7851C39.7121 32.125 40.0063 32.3914 40.3626 32.5388C40.7189 32.6862 41.1153 32.7055 41.4842 32.5934C41.8531 32.4813 42.1718 32.2447 42.3858 31.9241C42.5999 31.6034 42.6962 31.2184 42.6582 30.8347C42.6203 30.451 42.4505 30.0923 42.1777 29.8197C42.0231 29.6647 41.8393 29.5419 41.6369 29.4582C41.4346 29.3745 41.2177 29.3316 40.9988 29.332V29.332Z" fill="#4A86F7"/>
<path d="M52.4758 20.6756C52.4754 20.6734 52.4754 20.6711 52.4758 20.6689C52.4129 20.3931 52.2741 20.1404 52.0752 19.9392C51.8763 19.7381 51.6251 19.5965 51.35 19.5305C49.1327 18.9896 45.6444 19.5662 41.779 21.1139C37.883 22.6764 34.2326 24.9829 31.7652 27.4547C30.9744 28.2413 30.2397 29.0824 29.5665 29.9718C27.905 29.8974 26.4414 30.134 25.2085 30.672C20.9122 32.5626 19.6852 37.4012 19.3586 39.3878C19.3113 39.67 19.3298 39.9594 19.4126 40.2334C19.4955 40.5073 19.6404 40.7585 19.8362 40.9672C20.0319 41.176 20.2732 41.3368 20.5413 41.4371C20.8094 41.5374 21.0969 41.5745 21.3817 41.5455H21.3914L26.1772 41.0232C26.1832 41.0842 26.1899 41.14 26.1951 41.1914C26.2566 41.7745 26.5166 42.3188 26.9317 42.733L29.2674 45.0701C29.681 45.4857 30.2252 45.7461 30.8084 45.8074L30.9683 45.8246L30.4475 50.6043C30.4475 50.6043 30.4475 50.6103 30.4475 50.614C30.4209 50.8714 30.4483 51.1316 30.5279 51.3778C30.6076 51.6241 30.7377 51.851 30.9101 52.044C31.0824 52.2371 31.2931 52.3921 31.5288 52.4991C31.7645 52.6061 32.0199 52.6627 32.2786 52.6654C32.3821 52.6654 32.4854 52.657 32.5874 52.6401C34.5853 52.3186 39.4218 51.1066 41.3072 46.7874C41.8407 45.5627 42.0766 44.1051 42.0104 42.4466C42.9038 41.7749 43.748 41.0401 44.5365 40.2479C47.024 37.7732 49.338 34.1526 50.8842 30.3133C52.4237 26.4919 53.0033 22.9777 52.4758 20.6756ZM44.5097 33.6876C43.8983 34.2996 43.1192 34.7165 42.2708 34.8856C41.4224 35.0547 40.5429 34.9684 39.7436 34.6375C38.9443 34.3067 38.2611 33.7462 37.7804 33.027C37.2997 32.3078 37.0431 31.4622 37.0431 30.5972C37.0431 29.7321 37.2997 28.8865 37.7804 28.1673C38.2611 27.4481 38.9443 26.8876 39.7436 26.5568C40.5429 26.226 41.4224 26.1396 42.2708 26.3087C43.1192 26.4778 43.8983 26.8948 44.5097 27.5068C44.9195 27.9104 45.2449 28.3915 45.4671 28.922C45.6892 29.4526 45.8036 30.022 45.8036 30.5972C45.8036 31.1723 45.6892 31.7418 45.4671 32.2723C45.2449 32.8029 44.9195 33.284 44.5097 33.6876V33.6876Z" fill="#A3C2FB"/>
<path d="M28.4186 45.9526C28.1667 45.9213 27.912 45.9831 27.7024 46.1264C27.2863 46.4109 26.8683 46.6921 26.4464 46.9661C25.5927 47.5207 24.5718 46.5469 25.079 45.6642L25.8701 44.2972C25.9832 44.1318 26.0462 43.9373 26.0515 43.737C26.0568 43.5367 26.0042 43.3392 25.9 43.168C25.7958 42.9969 25.6445 42.8594 25.4641 42.7721C25.2837 42.6848 25.0819 42.6513 24.883 42.6757C24.005 42.7868 23.1888 43.1866 22.563 43.8123C22.3247 44.0512 21.6 44.7763 21.21 47.5396C21.099 48.3333 21.029 49.1322 21.0003 49.9331C20.9968 50.0721 21.0211 50.2104 21.0718 50.3399C21.1226 50.4693 21.1988 50.5873 21.2959 50.6869C21.393 50.7864 21.509 50.8655 21.6372 50.9195C21.7654 50.9736 21.9031 51.0013 22.0421 51.0013H22.0682C22.8699 50.9729 23.6697 50.9034 24.4643 50.793C27.2297 50.4024 27.955 49.6773 28.1933 49.439C28.8221 48.8132 29.2211 47.9934 29.3256 47.1126C29.3591 46.8385 29.2824 46.5624 29.1123 46.3449C28.9422 46.1274 28.6927 45.9863 28.4186 45.9526Z" fill="#4A86F7"/>
</svg>
