<svg width="48" height="48" viewBox="0 0 48 48" fill="none" xmlns="http://www.w3.org/2000/svg">
<path fill-rule="evenodd" clip-rule="evenodd" d="M27.5001 39C27.5001 38.1716 28.1717 37.5 29.0001 37.5H37.0001C37.8285 37.5 38.5001 38.1716 38.5001 39C38.5001 39.8284 37.8285 40.5 37.0001 40.5H29.0001C28.1717 40.5 27.5001 39.8284 27.5001 39Z" fill="white"/>
<path fill-rule="evenodd" clip-rule="evenodd" d="M33.0001 33.5C33.8285 33.5 34.5001 34.1716 34.5001 35V43C34.5001 43.8284 33.8285 44.5 33.0001 44.5C32.1717 44.5 31.5001 43.8284 31.5001 43V35C31.5001 34.1716 32.1717 33.5 33.0001 33.5Z" fill="white"/>
<path fill-rule="evenodd" clip-rule="evenodd" d="M23.9801 5.5C19.9073 5.5 16.6035 8.80827 16.6201 12.8739L16.6201 12.88C16.6201 16.846 19.7182 20.064 23.6298 20.2377C23.867 20.2212 24.1176 20.2204 24.3539 20.2375C28.2467 20.0617 31.3601 16.8423 31.3601 12.88C31.3601 8.80843 28.0517 5.5 23.9801 5.5ZM13.6201 12.8831C13.5983 7.15008 18.2539 2.5 23.9801 2.5C29.7085 2.5 34.3601 7.15157 34.3601 12.88C34.3601 18.4891 29.9186 23.0519 24.3707 23.2391C24.304 23.2414 24.2372 23.2392 24.1708 23.2326C24.0744 23.2229 23.9303 23.2216 23.7959 23.2338C23.734 23.2395 23.6718 23.2412 23.6097 23.2392C18.0403 23.0519 13.6217 18.4884 13.6201 12.8831Z" fill="white"/>
<path fill-rule="evenodd" clip-rule="evenodd" d="M23.9701 27.86C20.5682 27.86 17.2458 28.7264 14.7942 30.3667L14.7909 30.3689C12.6841 31.7705 11.8301 33.4711 11.8301 34.9825C11.8301 36.4946 12.6849 38.2009 14.7934 39.6127C17.2565 41.2544 20.5699 42.12 23.9801 42.12C24.8085 42.12 25.4801 42.7916 25.4801 43.62C25.4801 44.4484 24.8085 45.12 23.9801 45.12C20.1108 45.12 16.1848 44.1459 13.128 42.1081L13.1257 42.1065C10.395 40.2785 8.83008 37.7251 8.83008 34.9825C8.83008 32.2395 10.3954 29.6905 13.1276 27.8722C16.1758 25.8333 20.1126 24.86 23.9701 24.86C27.8282 24.86 31.7658 25.8336 34.8142 27.8733C35.5027 28.334 35.6874 29.2656 35.2268 29.9541C34.7661 30.6427 33.8345 30.8274 33.1459 30.3667C30.6944 28.7264 27.3719 27.86 23.9701 27.86Z" fill="white"/>
</svg>
