<svg width="48" height="48" viewBox="0 0 48 48" fill="none" xmlns="http://www.w3.org/2000/svg">
<path fill-rule="evenodd" clip-rule="evenodd" d="M18.574 20.6142C19.1345 20.8464 19.5 21.3934 19.5 22V34C19.5 34.8285 18.8284 35.5 18 35.5C17.1716 35.5 16.5 34.8285 16.5 34V25.6214L15.0607 27.0607C14.4749 27.6465 13.5251 27.6465 12.9393 27.0607C12.3536 26.4749 12.3536 25.5252 12.9393 24.9394L16.9393 20.9394C17.3683 20.5104 18.0135 20.3821 18.574 20.6142Z" fill="white"/>
<path fill-rule="evenodd" clip-rule="evenodd" d="M16.9393 20.9394C17.5251 20.3536 18.4749 20.3536 19.0607 20.9394L23.0607 24.9394C23.6464 25.5252 23.6464 26.4749 23.0607 27.0607C22.4749 27.6465 21.5251 27.6465 20.9393 27.0607L16.9393 23.0607C16.3536 22.4749 16.3536 21.5252 16.9393 20.9394Z" fill="white"/>
<path fill-rule="evenodd" clip-rule="evenodd" d="M8.31066 8.3107C6.4796 10.1418 5.5 13.148 5.5 18V30C5.5 34.8521 6.4796 37.8583 8.31066 39.6894C10.1417 41.5204 13.1479 42.5 18 42.5H30C34.8521 42.5 37.8583 41.5204 39.6893 39.6894C41.5204 37.8583 42.5 34.8521 42.5 30V20C42.5 19.1716 43.1716 18.5 44 18.5C44.8284 18.5 45.5 19.1716 45.5 20V30C45.5 35.148 44.4796 39.1418 41.8107 41.8107C39.1417 44.4796 35.1479 45.5 30 45.5H18C12.8521 45.5 8.85828 44.4796 6.18934 41.8107C3.5204 39.1418 2.5 35.148 2.5 30V18C2.5 12.8521 3.5204 8.85832 6.18934 6.18938C8.85828 3.52045 12.8521 2.50004 18 2.50004H28C28.8284 2.50004 29.5 3.17162 29.5 4.00004C29.5 4.82847 28.8284 5.50004 28 5.50004H18C13.1479 5.50004 10.1417 6.47964 8.31066 8.3107Z" fill="white"/>
<path fill-rule="evenodd" clip-rule="evenodd" d="M27.426 2.61422C27.9865 2.38205 28.6317 2.51039 29.0607 2.93938L45.0607 18.9394C45.4897 19.3684 45.618 20.0136 45.3858 20.5741C45.1536 21.1346 44.6067 21.5 44 21.5H36C32.9169 21.5 30.3842 21.0055 28.6893 19.3107C26.9945 17.6159 26.5 15.0831 26.5 12V4.00004C26.5 3.39335 26.8655 2.8464 27.426 2.61422ZM29.5 7.62136V12C29.5 14.9169 30.0055 16.3842 30.8107 17.1894C31.6158 17.9945 33.0831 18.5 36 18.5H40.3787L29.5 7.62136Z" fill="white"/>
</svg>
