<svg width="44" height="44" viewBox="0 0 44 44" fill="none" xmlns="http://www.w3.org/2000/svg">
<path fill-rule="evenodd" clip-rule="evenodd" d="M21.24 15.76C21.24 14.9316 21.9116 14.26 22.74 14.26H33.24C34.0684 14.26 34.74 14.9316 34.74 15.76C34.74 16.5884 34.0684 17.26 33.24 17.26H22.74C21.9116 17.26 21.24 16.5884 21.24 15.76Z" fill="white"/>
<path fill-rule="evenodd" clip-rule="evenodd" d="M17.8207 11.6993C18.4064 12.2851 18.4064 13.2349 17.8207 13.8207L13.3207 18.3207C12.7349 18.9064 11.7851 18.9064 11.1993 18.3207L9.69934 16.8207C9.11355 16.2349 9.11355 15.2851 9.69934 14.6993C10.2851 14.1136 11.2349 14.1136 11.8207 14.6993L12.26 15.1387L15.6993 11.6993C16.2851 11.1136 17.2349 11.1136 17.8207 11.6993Z" fill="white"/>
<path fill-rule="evenodd" clip-rule="evenodd" d="M21.24 29.76C21.24 28.9316 21.9116 28.26 22.74 28.26H33.24C34.0684 28.26 34.74 28.9316 34.74 29.76C34.74 30.5884 34.0684 31.26 33.24 31.26H22.74C21.9116 31.26 21.24 30.5884 21.24 29.76Z" fill="white"/>
<path fill-rule="evenodd" clip-rule="evenodd" d="M17.8207 25.6993C18.4064 26.2851 18.4064 27.2349 17.8207 27.8207L13.3207 32.3207C12.7349 32.9064 11.7851 32.9064 11.1993 32.3207L9.69934 30.8207C9.11355 30.2349 9.11355 29.2851 9.69934 28.6993C10.2851 28.1136 11.2349 28.1136 11.8207 28.6993L12.26 29.1387L15.6993 25.6993C16.2851 25.1136 17.2349 25.1136 17.8207 25.6993Z" fill="white"/>
<path fill-rule="evenodd" clip-rule="evenodd" d="M4.18934 4.18934C6.85828 1.5204 10.8521 0.5 16 0.5H28C33.1479 0.5 37.1417 1.5204 39.8107 4.18934C42.4796 6.85828 43.5 10.8521 43.5 16V28C43.5 33.1479 42.4796 37.1417 39.8107 39.8107C37.1417 42.4796 33.1479 43.5 28 43.5H16C10.8521 43.5 6.85828 42.4796 4.18934 39.8107C1.5204 37.1417 0.5 33.1479 0.5 28V16C0.5 10.8521 1.5204 6.85828 4.18934 4.18934ZM6.31066 6.31066C4.4796 8.14172 3.5 11.1479 3.5 16V28C3.5 32.8521 4.4796 35.8583 6.31066 37.6893C8.14172 39.5204 11.1479 40.5 16 40.5H28C32.8521 40.5 35.8583 39.5204 37.6893 37.6893C39.5204 35.8583 40.5 32.8521 40.5 28V16C40.5 11.1479 39.5204 8.14172 37.6893 6.31066C35.8583 4.4796 32.8521 3.5 28 3.5H16C11.1479 3.5 8.14172 4.4796 6.31066 6.31066Z" fill="white"/>
</svg>
