<svg width="72" height="72" viewBox="0 0 72 72" fill="none" xmlns="http://www.w3.org/2000/svg">
<rect width="72" height="72" rx="12" fill="#FEF6ED"/>
<path d="M45.2167 28.9487C45.1001 28.932 44.9834 28.932 44.8667 28.9487C42.2834 28.8654 40.2334 26.7487 40.2334 24.1487C40.2334 21.4987 42.3834 19.332 45.0501 19.332C47.7001 19.332 49.8667 21.482 49.8667 24.1487C49.8501 26.7487 47.8001 28.8654 45.2167 28.9487Z" fill="#F8CF9C"/>
<path d="M50.6503 40.5007C48.7837 41.7507 46.167 42.2173 43.7503 41.9007C44.3837 40.534 44.717 39.0173 44.7337 37.4173C44.7337 35.7507 44.367 34.1673 43.667 32.784C46.1337 32.4507 48.7503 32.9173 50.6337 34.1673C53.267 35.9007 53.267 38.7507 50.6503 40.5007Z" fill="#F8CF9C"/>
<path d="M26.7329 28.9487C26.8496 28.932 26.9663 28.932 27.0829 28.9487C29.6663 28.8654 31.7163 26.7487 31.7163 24.1487C31.7163 21.482 29.5663 19.332 26.8996 19.332C24.2496 19.332 22.0996 21.482 22.0996 24.1487C22.0996 26.7487 24.1496 28.8654 26.7329 28.9487Z" fill="#F8CF9C"/>
<path d="M26.9169 37.4177C26.9169 39.0343 27.2669 40.5677 27.9002 41.951C25.5502 42.201 23.1002 41.701 21.3002 40.5177C18.6669 38.7677 18.6669 35.9177 21.3002 34.1677C23.0835 32.9677 25.6002 32.4843 27.9669 32.751C27.2835 34.151 26.9169 35.7343 26.9169 37.4177Z" fill="#F8CF9C"/>
<path d="M36.2 42.45C36.0667 42.4333 35.9167 42.4333 35.7667 42.45C32.7 42.35 30.25 39.8333 30.25 36.7333C30.2667 33.5667 32.8167 31 36 31C39.1667 31 41.7333 33.5667 41.7333 36.7333C41.7167 39.8333 39.2833 42.35 36.2 42.45Z" fill="#F2A84C"/>
<path d="M30.783 45.8984C28.2663 47.5818 28.2663 50.3484 30.783 52.0151C33.6497 53.9318 38.3497 53.9318 41.2163 52.0151C43.733 50.3318 43.733 47.5651 41.2163 45.8984C38.3663 43.9818 33.6663 43.9818 30.783 45.8984Z" fill="#F2A84C"/>
</svg>
