<svg width="48" height="48" viewBox="0 0 48 48" fill="none" xmlns="http://www.w3.org/2000/svg">
<path fill-rule="evenodd" clip-rule="evenodd" d="M10.2092 19.5749C11.6893 18.9935 13.3059 18.6801 15 18.6801C21.8113 18.6801 27.5 23.8577 27.5 30.46C27.5 32.2486 27.0705 33.9449 26.3065 35.4599C26.3177 35.4599 26.3288 35.46 26.34 35.46C26.6097 35.46 26.8744 35.5327 27.1063 35.6705L35.4971 40.6569C35.8267 40.8565 36.2831 40.6019 36.2309 40.1608C36.2309 40.1603 36.231 40.1612 36.2309 40.1608L35.4513 33.8438C35.3834 33.2932 35.6248 32.7501 36.079 32.4317C39.999 29.6841 42.5 25.3434 42.5 20.48C42.5 12.304 35.3705 5.5 26.34 5.5C17.6449 5.5 10.7123 11.8079 10.2092 19.5749ZM7.17999 20.48C7.17999 10.456 15.8505 2.5 26.34 2.5C36.8295 2.5 45.5 10.456 45.5 20.48C45.5 26.0971 42.7614 31.0721 38.5361 34.3464L39.2092 39.8006C39.5557 42.6761 36.4582 44.7397 33.9493 43.2268C33.9472 43.2255 33.9451 43.2243 33.9429 43.223L25.9214 38.4561C25.0803 38.4404 24.2521 38.3774 23.4373 38.2663C22.8942 38.1922 22.4347 37.8278 22.2389 37.3158C22.0432 36.8038 22.1423 36.2257 22.4974 35.8082C23.7621 34.3214 24.5 32.4608 24.5 30.46C24.5 25.7022 20.3487 21.6801 15 21.6801C12.9686 21.6801 11.1135 22.2567 9.57898 23.2567C9.14467 23.5397 8.595 23.5785 8.12531 23.3591C7.65561 23.1397 7.33246 22.6934 7.27069 22.1787C7.20134 21.6008 7.17999 21.0375 7.17999 20.48Z" fill="white"/>
<path fill-rule="evenodd" clip-rule="evenodd" d="M15 21.6801C12.9686 21.6801 11.1135 22.2567 9.57898 23.2567L9.56763 23.2641C7.07937 24.8538 5.5 27.4972 5.5 30.46C5.5 33.2867 6.94362 35.8234 9.25524 37.4277C9.71454 37.7465 9.95844 38.2943 9.88806 38.8489L9.45403 42.269L14.2341 39.4303C14.4659 39.2926 14.7304 39.22 15 39.22C18.0836 39.22 20.795 37.8714 22.483 35.8255L22.4974 35.8082C23.7621 34.3214 24.5 32.4608 24.5 30.46C24.5 25.7022 20.3487 21.6801 15 21.6801ZM7.94671 20.7396C9.97105 19.4219 12.3938 18.6801 15 18.6801C21.8113 18.6801 27.5 23.8577 27.5 30.46C27.5 33.2151 26.4809 35.7514 24.7899 37.7433C22.5989 40.3938 19.2059 42.095 15.423 42.2134L10.5537 45.105C8.56928 46.3113 6.14971 44.6395 6.41027 42.4247L6.41187 42.4111L6.80238 39.3344C4.17634 37.2006 2.5 34.0276 2.5 30.46C2.5 26.3851 4.67814 22.8304 7.94671 20.7396Z" fill="white"/>
</svg>
