<svg width="1766" height="810" viewBox="0 0 1766 810" fill="none" xmlns="http://www.w3.org/2000/svg">
<g clip-path="url(#clip0_2405_87224)">
<path opacity="0.08" d="M1337.97 799V585.988H1092.92V511.585C1092.92 509.157 1091.95 506.828 1090.23 505.111C1088.51 503.394 1086.17 502.43 1083.74 502.43H1018.47V426.688C1018.47 423.849 1017.34 421.126 1015.32 419.119C1013.31 417.111 1010.58 415.983 1007.73 415.983H974.761V502.43H929.69C927.255 502.43 924.92 503.394 923.198 505.111C921.477 506.828 920.51 509.157 920.51 511.585V585.988H871.604V447.034C871.604 445.485 871.197 443.963 870.424 442.619C869.652 441.275 868.54 440.156 867.199 439.373V358H836.047V438.144H822.277V413.987C822.276 410.698 820.965 407.543 818.633 405.217C816.3 402.891 813.137 401.584 809.839 401.583C806.54 401.583 803.376 402.89 801.043 405.216C798.71 407.542 797.398 410.697 797.398 413.987V438.144H794.153C791.791 438.144 789.526 439.079 787.856 440.745C786.186 442.41 785.248 444.669 785.248 447.024V459.16H743.491C739.907 459.16 736.47 460.58 733.936 463.107C731.403 465.634 729.979 469.061 729.979 472.635V491.953H701.189V452.659H670.037V531.488H631.262C628.21 531.488 625.187 532.087 622.367 533.252C619.547 534.417 616.985 536.125 614.826 538.278C612.668 540.43 610.956 542.986 609.789 545.798C608.621 548.611 608.02 551.625 608.02 554.669V585.988H597.796V421.443H553.556V558.847H523.067V553.35C523.067 550.061 521.756 546.906 519.424 544.58C517.091 542.253 513.928 540.947 510.629 540.947C508.836 540.946 507.064 541.333 505.436 542.08V475.9C505.435 464.441 500.87 453.45 492.744 445.347C484.619 437.244 473.598 432.691 462.107 432.69V511.74H422.971C412.591 511.74 402.637 515.852 395.298 523.171C387.958 530.491 383.835 540.418 383.835 550.769V571.165H312.277V554.55H271.013C267.961 554.55 264.938 555.15 262.118 556.315C259.298 557.48 256.736 559.187 254.577 561.34C252.419 563.493 250.707 566.048 249.539 568.861C248.372 571.673 247.771 574.688 247.771 577.732V546.664C247.77 542.875 246.261 539.242 243.574 536.562C240.887 533.883 237.244 532.378 233.444 532.377C229.645 532.378 226.001 533.883 223.315 536.562C220.628 539.242 219.118 542.875 219.118 546.664V585.974H172.786V532.261C172.787 528.952 172.134 525.676 170.864 522.619C169.595 519.561 167.734 516.784 165.388 514.444C163.042 512.104 160.257 510.248 157.192 508.982C154.126 507.715 150.841 507.063 147.523 507.063H143.434V458.965C143.434 455.177 141.925 451.543 139.238 448.864C136.552 446.184 132.909 444.679 129.11 444.678C127.229 444.678 125.366 445.047 123.627 445.765C121.889 446.483 120.31 447.536 118.979 448.862C117.649 450.189 116.594 451.764 115.874 453.498C115.154 455.231 114.783 457.089 114.783 458.965V507.06C99.4015 507.06 84.6498 513.154 73.7733 524.001C62.8968 534.847 56.7865 549.559 56.7865 564.898V661.894H46.241V590.175C46.2432 589.373 46.0344 588.585 45.6354 587.889C45.2365 587.193 44.6614 586.614 43.9676 586.209V544.235H27.8942V585.601H20.7888V573.138C20.7888 571.44 20.1124 569.811 18.9086 568.611C17.7047 567.41 16.0719 566.736 14.3694 566.736C12.6668 566.736 11.034 567.41 9.83015 568.611C8.62628 569.811 7.94995 571.44 7.94995 573.138V585.601H6.25977C5.04353 585.603 3.87756 586.085 3.01724 586.942C2.15692 587.8 1.67238 588.962 1.66975 590.175V596.455H-19.8719C-21.7177 596.455 -23.4879 597.186 -24.7931 598.487C-26.0982 599.789 -26.8315 601.554 -26.8315 603.395V661.894H-41.6886V593.087H-57.762V633.768H-77.7725C-79.3478 633.768 -80.9077 634.078 -82.363 634.679C-83.8184 635.28 -85.1407 636.162 -86.2545 637.273C-87.3683 638.384 -88.2516 639.703 -88.8542 641.154C-89.4567 642.606 -89.7666 644.162 -89.7662 645.733V661.894H-95.0422V597.268H-117.88V661.894H-133.615V645.039C-133.615 643.341 -134.291 641.712 -135.495 640.512C-136.699 639.311 -138.332 638.637 -140.034 638.637C-140.96 638.637 -141.875 638.836 -142.716 639.222V624.713L-154 623.493V798.99L1337.97 799Z" fill="#F7F8FA"/>
</g>
<path d="M1200.99 554.438H1176.69V742.289H1200.99V554.438Z" fill="#0D318C"/>
<path d="M1001.18 554.43H859.67C825.219 554.43 797.29 582.358 797.29 616.813V630.676H956.182C966.861 630.676 977.103 634.919 984.655 642.47C992.206 650.022 996.449 660.264 996.449 670.943V742.281H1200.98V554.43H1001.18Z" fill="#4A86F7"/>
<path d="M1677.21 544.102H1805.55C1829.01 544.102 1851.5 553.421 1868.09 570.009C1884.68 586.598 1894 609.096 1894 632.556V726.977H1677.21V544.102Z" fill="#F2A84C"/>
<path d="M1398.05 552.656H1359.57V726.978H1398.05V552.656Z" fill="url(#paint0_linear_2405_87224)"/>
<path d="M1361.7 145.316V417.212H1273.11V233.911C1273.11 222.277 1275.4 210.757 1279.86 200.009C1284.31 189.26 1290.83 179.494 1299.06 171.268C1307.29 163.041 1317.05 156.516 1327.8 152.063C1338.55 147.611 1350.07 145.32 1361.7 145.32V145.316Z" fill="url(#paint1_linear_2405_87224)"/>
<path d="M1361.7 145.316V417.212H1330.58V176.424C1330.59 168.173 1333.87 160.26 1339.7 154.427C1345.54 148.593 1353.45 145.316 1361.7 145.316Z" fill="url(#paint2_linear_2405_87224)"/>
<path d="M1677.21 544.102H1692.24C1704.84 544.102 1716.93 549.108 1725.84 558.019C1734.75 566.931 1739.76 579.017 1739.76 591.62V726.987H1677.21V544.102Z" fill="#E0704A"/>
<path d="M1108.28 425.364C1106.43 425.362 1104.65 424.625 1103.34 423.314C1102.03 422.002 1101.29 420.224 1101.29 418.37V303.818C1101.29 301.963 1102.03 300.184 1103.34 298.872C1104.65 297.56 1106.43 296.822 1108.28 296.82C1110.14 296.823 1111.92 297.561 1113.23 298.873C1114.54 300.185 1115.28 301.963 1115.28 303.818V418.37C1115.28 420.224 1114.54 422.002 1113.23 423.314C1111.92 424.625 1110.14 425.362 1108.28 425.364ZM1108.28 298.159C1106.78 298.162 1105.35 298.759 1104.29 299.819C1103.23 300.88 1102.63 302.318 1102.63 303.818V418.37C1102.63 419.113 1102.77 419.848 1103.06 420.534C1103.34 421.22 1103.76 421.844 1104.28 422.369C1104.81 422.894 1105.43 423.311 1106.12 423.595C1106.81 423.879 1107.54 424.025 1108.28 424.025C1109.03 424.025 1109.76 423.879 1110.45 423.595C1111.13 423.311 1111.76 422.894 1112.28 422.369C1112.81 421.844 1113.22 421.22 1113.51 420.534C1113.79 419.848 1113.94 419.113 1113.94 418.37V303.818C1113.94 302.318 1113.34 300.88 1112.28 299.819C1111.22 298.759 1109.78 298.162 1108.28 298.159Z" fill="#57B6F0"/>
<path d="M1108.28 266.77C1106.43 266.769 1104.65 266.031 1103.34 264.72C1102.03 263.409 1101.29 261.631 1101.29 259.776V145.22C1101.29 143.366 1102.03 141.588 1103.34 140.277C1104.65 138.966 1106.43 138.228 1108.28 138.227C1110.14 138.229 1111.92 138.967 1113.23 140.278C1114.54 141.589 1115.28 143.366 1115.28 145.22V259.776C1115.28 261.631 1114.54 263.409 1113.23 264.72C1111.92 266.031 1110.14 266.769 1108.28 266.77ZM1108.28 139.565C1106.78 139.567 1105.35 140.163 1104.29 141.223C1103.23 142.284 1102.63 143.721 1102.63 145.22V259.776C1102.63 261.276 1103.22 262.715 1104.28 263.775C1105.35 264.836 1106.78 265.432 1108.28 265.432C1109.78 265.432 1111.22 264.836 1112.28 263.775C1113.34 262.715 1113.94 261.276 1113.94 259.776V145.22C1113.94 143.721 1113.34 142.284 1112.28 141.223C1111.22 140.163 1109.78 139.567 1108.28 139.565Z" fill="#57B6F0"/>
<path d="M1114.62 282.996C1114.62 279.503 1111.78 276.672 1108.29 276.672C1104.8 276.672 1101.97 279.503 1101.97 282.996C1101.97 286.489 1104.8 289.321 1108.29 289.321C1111.78 289.321 1114.62 286.489 1114.62 282.996Z" fill="#F7F8FA"/>
<path d="M1517.68 50.4202C1515.58 50.4202 1513.52 49.7967 1511.77 48.6288C1510.03 47.4608 1508.66 45.8007 1507.86 43.8585C1507.05 41.9163 1506.84 39.7792 1507.25 37.7175C1507.66 35.6557 1508.68 33.762 1510.16 32.2758C1511.65 30.7895 1513.54 29.7776 1515.61 29.3679C1517.67 28.9582 1519.81 29.1691 1521.75 29.974C1523.69 30.779 1525.35 32.1417 1526.52 33.8899C1527.68 35.6381 1528.31 37.6933 1528.31 39.7955C1528.3 42.6131 1527.18 45.3145 1525.19 47.3065C1523.2 49.2985 1520.5 50.4184 1517.68 50.4202ZM1517.68 30.506C1515.84 30.506 1514.04 31.0508 1512.52 32.0715C1510.99 33.0923 1509.8 34.5431 1509.1 36.2405C1508.39 37.938 1508.21 39.8058 1508.57 41.6077C1508.93 43.4097 1509.81 45.065 1511.11 46.3641C1512.41 47.6633 1514.06 48.548 1515.87 48.9065C1517.67 49.2649 1519.54 49.0809 1521.23 48.3778C1522.93 47.6747 1524.38 46.4841 1525.4 44.9564C1526.42 43.4288 1526.97 41.6327 1526.97 39.7955C1526.96 37.3325 1525.99 34.9713 1524.24 33.2297C1522.5 31.4882 1520.14 30.5086 1517.68 30.506Z" fill="#F7F8FA"/>
<path d="M1517.68 21.2561C1515.58 21.2561 1513.52 20.6328 1511.77 19.4649C1510.03 18.2971 1508.66 16.6372 1507.86 14.6952C1507.05 12.7532 1506.84 10.6163 1507.25 8.55462C1507.66 6.49298 1508.68 4.59924 1510.16 3.11289C1511.65 1.62653 1513.54 0.614305 1515.6 0.204219C1517.67 -0.205866 1519.8 0.00460518 1521.75 0.809016C1523.69 1.61343 1525.35 2.97565 1526.51 4.72342C1527.68 6.4712 1528.31 8.52602 1528.31 10.628C1528.3 13.446 1527.18 16.1477 1525.19 18.1403C1523.2 20.1328 1520.5 21.2534 1517.68 21.2561ZM1517.68 1.3419C1515.84 1.3419 1514.04 1.8868 1512.52 2.90769C1510.99 3.92858 1509.8 5.3796 1509.1 7.07723C1508.39 8.77485 1508.21 10.6428 1508.57 12.4449C1508.93 14.247 1509.81 15.9022 1511.11 17.2012C1512.41 18.5003 1514.07 19.3847 1515.87 19.7428C1517.67 20.1009 1519.54 19.9164 1521.24 19.2128C1522.93 18.5092 1524.38 17.318 1525.4 15.7899C1526.42 14.2618 1526.97 12.4655 1526.97 10.628C1526.96 8.16544 1525.99 5.80451 1524.24 4.0635C1522.5 2.32249 1520.14 1.34367 1517.68 1.3419Z" fill="#F7F8FA"/>
<path d="M1053.32 436.672H1154.57C1160.44 436.672 1166.07 439.004 1170.22 443.154C1174.37 447.305 1176.7 452.935 1176.7 458.805V554.437H1031.17V458.795C1031.18 455.888 1031.75 453.01 1032.86 450.325C1033.98 447.64 1035.61 445.2 1037.66 443.146C1039.72 441.092 1042.16 439.463 1044.85 438.352C1047.53 437.241 1050.41 436.67 1053.32 436.672Z" fill="#FADD6F"/>
<path d="M1145.64 436.672H1154.82C1160.62 436.672 1166.18 438.976 1170.29 443.077C1174.39 447.178 1176.69 452.74 1176.69 458.54V554.437H1133.59V448.719C1133.59 445.524 1134.86 442.46 1137.12 440.2C1139.38 437.941 1142.44 436.672 1145.64 436.672Z" fill="#F2A84C"/>
<path d="M1590.3 96.875H1443.04C1435.65 96.875 1429.65 102.869 1429.65 110.262C1429.65 117.656 1435.65 123.649 1443.04 123.649H1590.3C1597.7 123.649 1603.69 117.656 1603.69 110.262C1603.69 102.869 1597.7 96.875 1590.3 96.875Z" fill="#4A86F7"/>
<path d="M1288.38 236.016H1288C1285.72 236.016 1283.87 237.866 1283.87 240.148V364.422C1283.87 366.705 1285.72 368.555 1288 368.555H1288.38C1290.66 368.555 1292.51 366.705 1292.51 364.422V240.148C1292.51 237.866 1290.66 236.016 1288.38 236.016Z" fill="#FADD6F"/>
<path d="M1302.99 235.91H1302.62C1300.35 235.91 1298.5 237.754 1298.5 240.03V364.33C1298.5 366.605 1300.35 368.449 1302.62 368.449H1302.99C1305.27 368.449 1307.11 366.605 1307.11 364.33V240.03C1307.11 237.754 1305.27 235.91 1302.99 235.91Z" fill="#FADD6F"/>
<path d="M1317.6 236.117H1317.22C1314.95 236.117 1313.11 237.961 1313.11 240.237V364.537C1313.11 366.812 1314.95 368.656 1317.22 368.656H1317.6C1319.87 368.656 1321.72 366.812 1321.72 364.537V240.237C1321.72 237.961 1319.87 236.117 1317.6 236.117Z" fill="#FADD6F"/>
<path d="M1566.82 65.0312H1468.54C1462.84 65.0312 1458.23 69.6473 1458.23 75.3414C1458.23 81.0355 1462.84 85.6515 1468.54 85.6515H1566.82C1572.51 85.6515 1577.13 81.0355 1577.13 75.3414C1577.13 69.6473 1572.51 65.0312 1566.82 65.0312Z" fill="#FADD6F"/>
<path d="M1359.78 809.805H1200.99V493.196C1200.99 472.344 1205.1 451.697 1213.08 432.433C1221.06 413.169 1232.76 395.666 1247.5 380.922C1262.25 366.179 1279.75 354.484 1299.01 346.506C1318.28 338.528 1338.93 334.422 1359.78 334.424V809.805Z" fill="#83BF6E"/>
<path d="M1441.22 145.32H1613.08C1616.64 145.32 1620.15 146.02 1623.44 147.379C1626.72 148.739 1629.7 150.732 1632.21 153.244C1634.73 155.756 1636.72 158.739 1638.08 162.021C1639.44 165.304 1640.14 168.822 1640.14 172.375V775.69C1640.14 780.32 1638.3 784.759 1635.03 788.033C1631.75 791.306 1627.31 793.145 1622.68 793.145H1441.22C1438.93 793.145 1436.66 792.694 1434.54 791.817C1432.42 790.94 1430.5 789.655 1428.88 788.034C1427.26 786.413 1425.97 784.489 1425.09 782.371C1424.21 780.253 1423.76 777.983 1423.76 775.69V162.771C1423.76 158.142 1425.6 153.702 1428.88 150.429C1432.15 147.155 1436.59 145.316 1441.22 145.316L1441.22 145.32Z" fill="#4A86F7"/>
<path d="M1415.5 145.32H1614.42V775.69C1614.42 780.32 1612.58 784.759 1609.31 788.033C1606.03 791.306 1601.59 793.145 1596.96 793.145H1415.5C1410.87 793.145 1406.43 791.306 1403.16 788.033C1399.88 784.759 1398.05 780.32 1398.05 775.69V162.771C1398.05 158.142 1399.88 153.702 1403.16 150.429C1406.43 147.155 1410.87 145.316 1415.5 145.316V145.32Z" fill="#57B6F0"/>
<path d="M1609.33 502.48H1748.39C1754.01 502.48 1759.4 504.714 1763.38 508.69C1767.35 512.665 1769.59 518.057 1769.59 523.68C1769.59 529.302 1767.35 534.694 1763.38 538.67C1759.4 542.645 1754.01 544.879 1748.39 544.879H1609.33V502.48Z" fill="#57B6F0"/>
<path d="M767.441 687.02H914.37C921.857 687.02 927.926 680.95 927.926 673.463V656.564C927.926 649.077 921.857 643.008 914.37 643.008H767.441C759.954 643.008 753.885 649.077 753.885 656.564V673.463C753.885 680.95 759.954 687.02 767.441 687.02Z" fill="#F2A84C"/>
<g opacity="0.55">
<path opacity="0.55" d="M925.64 658.582H909.641V650.039H925.64C926.612 650.039 927.544 650.425 928.231 651.112C928.919 651.799 929.305 652.731 929.305 653.703V654.935C929.3 655.903 928.912 656.831 928.226 657.515C927.539 658.198 926.609 658.582 925.64 658.582Z" fill="#F7F8FA"/>
</g>
<g opacity="0.55">
<path opacity="0.55" d="M885.524 658.582H905.188V650.039H885.524V658.582Z" fill="#F7F8FA"/>
</g>
<g opacity="0.55">
<path opacity="0.55" d="M861.407 658.582H881.07V650.039H861.407V658.582Z" fill="#F7F8FA"/>
</g>
<g opacity="0.55">
<path opacity="0.55" d="M837.294 658.582H856.957V650.039H837.294V658.582Z" fill="#F7F8FA"/>
</g>
<g opacity="0.55">
<path opacity="0.55" d="M813.176 658.582H832.839V650.039H813.176V658.582Z" fill="#F7F8FA"/>
</g>
<g opacity="0.55">
<path opacity="0.55" d="M789.061 658.582H808.725V650.039H789.061V658.582Z" fill="#F7F8FA"/>
</g>
<g opacity="0.55">
<path opacity="0.55" d="M784.236 658.586H768.843C768.282 658.586 767.727 658.476 767.209 658.261C766.691 658.046 766.22 657.732 765.824 657.335C765.427 656.939 765.113 656.468 764.898 655.95C764.684 655.432 764.573 654.877 764.573 654.316C764.573 653.184 765.023 652.098 765.824 651.297C766.625 650.496 767.711 650.046 768.843 650.046H784.236V658.586Z" fill="#F7F8FA"/>
</g>
<path d="M577.759 687.02H724.688C732.175 687.02 738.244 680.95 738.244 673.463V656.564C738.244 649.077 732.175 643.008 724.688 643.008H577.759C570.273 643.008 564.203 649.077 564.203 656.564V673.463C564.203 680.95 570.273 687.02 577.759 687.02Z" fill="#F2A84C"/>
<g opacity="0.55">
<path opacity="0.55" d="M735.959 658.582H719.96V650.039H735.959C736.931 650.039 737.863 650.425 738.55 651.112C739.237 651.799 739.623 652.731 739.623 653.703V654.935C739.619 655.903 739.231 656.831 738.544 657.515C737.857 658.198 736.928 658.582 735.959 658.582Z" fill="#F7F8FA"/>
</g>
<g opacity="0.55">
<path opacity="0.55" d="M695.843 658.582H715.506V650.039H695.843V658.582Z" fill="#F7F8FA"/>
</g>
<g opacity="0.55">
<path opacity="0.55" d="M671.728 658.582H691.392V650.039H671.728V658.582Z" fill="#F7F8FA"/>
</g>
<g opacity="0.55">
<path opacity="0.55" d="M647.611 658.582H667.274V650.039H647.611V658.582Z" fill="#F7F8FA"/>
</g>
<g opacity="0.55">
<path opacity="0.55" d="M623.497 658.582H643.16V650.039H623.497V658.582Z" fill="#F7F8FA"/>
</g>
<g opacity="0.55">
<path opacity="0.55" d="M599.38 658.582H619.043V650.039H599.38V658.582Z" fill="#F7F8FA"/>
</g>
<g opacity="0.55">
<path opacity="0.55" d="M594.555 658.582H579.162C578.601 658.582 578.046 658.472 577.528 658.257C577.01 658.042 576.539 657.728 576.143 657.331C575.746 656.935 575.432 656.464 575.217 655.946C575.002 655.428 574.892 654.873 574.892 654.312C574.891 653.749 575.002 653.192 575.218 652.672C575.434 652.153 575.75 651.681 576.148 651.284C576.547 650.886 577.02 650.572 577.541 650.358C578.062 650.145 578.619 650.036 579.182 650.039H594.575V658.582H594.555Z" fill="#F7F8FA"/>
</g>
<g opacity="0.57">
<path opacity="0.57" d="M1359.57 417.211H1265.16C1260.43 417.211 1256.6 421.041 1256.6 425.766C1256.6 430.491 1260.43 434.321 1265.16 434.321H1359.57C1364.29 434.321 1368.12 430.491 1368.12 425.766C1368.12 421.041 1364.29 417.211 1359.57 417.211Z" fill="#F7F8FA"/>
</g>
<g opacity="0.57">
<path opacity="0.57" d="M1359.57 446.797H1265.16C1260.43 446.797 1256.6 450.627 1256.6 455.352C1256.6 460.077 1260.43 463.907 1265.16 463.907H1359.57C1364.29 463.907 1368.12 460.077 1368.12 455.352C1368.12 450.627 1364.29 446.797 1359.57 446.797Z" fill="#F7F8FA"/>
</g>
<g opacity="0.57">
<path opacity="0.57" d="M1359.57 476.379H1265.15C1260.43 476.379 1256.6 480.209 1256.6 484.934C1256.6 489.659 1260.43 493.489 1265.15 493.489H1359.57C1364.29 493.489 1368.12 489.659 1368.12 484.934C1368.12 480.209 1364.29 476.379 1359.57 476.379Z" fill="#F7F8FA"/>
</g>
<g opacity="0.57">
<path opacity="0.57" d="M1359.57 505.965H1265.16C1260.43 505.965 1256.6 509.795 1256.6 514.52C1256.6 519.245 1260.43 523.075 1265.16 523.075H1359.57C1364.29 523.075 1368.12 519.245 1368.12 514.52C1368.12 509.795 1364.29 505.965 1359.57 505.965Z" fill="#F7F8FA"/>
</g>
<g opacity="0.57">
<path opacity="0.57" d="M1359.57 535.547H1265.15C1260.43 535.547 1256.6 539.377 1256.6 544.102C1256.6 548.827 1260.43 552.657 1265.15 552.657H1359.57C1364.29 552.657 1368.12 548.827 1368.12 544.102C1368.12 539.377 1364.29 535.547 1359.57 535.547Z" fill="#F7F8FA"/>
</g>
<g opacity="0.57">
<path opacity="0.57" d="M1359.57 565.129H1265.15C1260.43 565.129 1256.6 568.959 1256.6 573.684C1256.6 578.409 1260.43 582.239 1265.15 582.239H1359.57C1364.29 582.239 1368.12 578.409 1368.12 573.684C1368.12 568.959 1364.29 565.129 1359.57 565.129Z" fill="#F7F8FA"/>
</g>
<g opacity="0.57">
<path opacity="0.57" d="M1114.62 450.273H1040.05V461.715H1114.62V450.273Z" fill="#F7F8FA"/>
</g>
<g opacity="0.57">
<path opacity="0.57" d="M1114.62 470.055H1040.05V481.496H1114.62V470.055Z" fill="#F7F8FA"/>
</g>
<g opacity="0.57">
<path opacity="0.57" d="M1114.62 489.828H1040.05V501.269H1114.62V489.828Z" fill="#F7F8FA"/>
</g>
<g opacity="0.57">
<path opacity="0.57" d="M1114.62 509.605H1040.05V521.047H1114.62V509.605Z" fill="#F7F8FA"/>
</g>
<g opacity="0.57">
<path opacity="0.57" d="M1114.62 529.387H1040.05V540.828H1114.62V529.387Z" fill="#F7F8FA"/>
</g>
<g opacity="0.64">
<g opacity="0.57">
<path opacity="0.57" d="M1683.49 577.469V582.11H1729.48C1730.08 582.087 1730.64 581.833 1731.06 581.4C1731.48 580.967 1731.71 580.39 1731.71 579.789C1731.71 579.189 1731.48 578.611 1731.06 578.179C1730.64 577.746 1730.08 577.492 1729.48 577.469H1683.49Z" fill="#F7F8FA"/>
</g>
<g opacity="0.57">
<path opacity="0.57" d="M1683.49 585.492V590.134H1729.48C1730.08 590.111 1730.64 589.856 1731.06 589.424C1731.48 588.991 1731.71 588.414 1731.71 587.813C1731.71 587.212 1731.48 586.635 1731.06 586.202C1730.64 585.769 1730.08 585.515 1729.48 585.492H1683.49Z" fill="#F7F8FA"/>
</g>
<g opacity="0.57">
<path opacity="0.57" d="M1683.49 593.519V598.147H1729.48C1729.93 598.146 1730.38 598.009 1730.76 597.754C1731.14 597.499 1731.44 597.137 1731.62 596.713C1731.79 596.289 1731.84 595.823 1731.75 595.373C1731.66 594.923 1731.44 594.51 1731.12 594.185C1730.9 593.971 1730.64 593.801 1730.36 593.686C1730.08 593.571 1729.78 593.513 1729.48 593.516L1683.49 593.519Z" fill="#F7F8FA"/>
</g>
<g opacity="0.57">
<path opacity="0.57" d="M1683.49 601.538V606.173H1729.48C1730.09 606.172 1730.68 605.927 1731.12 605.491C1731.55 605.056 1731.79 604.466 1731.79 603.85C1731.79 603.235 1731.55 602.645 1731.12 602.21C1730.68 601.776 1730.09 601.531 1729.48 601.531L1683.49 601.538Z" fill="#F7F8FA"/>
</g>
<g opacity="0.57">
<path opacity="0.57" d="M1683.49 609.57V614.212H1729.48C1729.93 614.211 1730.38 614.074 1730.76 613.819C1731.14 613.564 1731.44 613.201 1731.62 612.777C1731.79 612.354 1731.84 611.888 1731.75 611.438C1731.66 610.988 1731.44 610.574 1731.12 610.25C1730.9 610.035 1730.64 609.866 1730.36 609.751C1730.08 609.636 1729.78 609.578 1729.48 609.58L1683.49 609.57Z" fill="#F7F8FA"/>
</g>
<g opacity="0.57">
<path opacity="0.57" d="M1683.49 617.172V621.81H1729.48C1730.09 621.81 1730.68 621.566 1731.12 621.131C1731.55 620.696 1731.79 620.106 1731.79 619.491C1731.79 618.876 1731.55 618.286 1731.12 617.851C1730.68 617.416 1730.09 617.172 1729.48 617.172H1683.49Z" fill="#F7F8FA"/>
</g>
<g opacity="0.57">
<path opacity="0.57" d="M1683.49 625.203V629.841H1729.48C1730.09 629.841 1730.68 629.597 1731.12 629.162C1731.55 628.727 1731.79 628.137 1731.79 627.522C1731.79 626.907 1731.55 626.317 1731.12 625.882C1730.68 625.447 1730.09 625.203 1729.48 625.203H1683.49Z" fill="#F7F8FA"/>
</g>
<g opacity="0.57">
<path opacity="0.57" d="M1683.49 633.227V637.865H1729.48C1730.09 637.865 1730.68 637.62 1731.12 637.185C1731.55 636.75 1731.79 636.161 1731.79 635.546C1731.79 634.931 1731.55 634.341 1731.12 633.906C1730.68 633.471 1730.09 633.227 1729.48 633.227H1683.49Z" fill="#F7F8FA"/>
</g>
<g opacity="0.57">
<path opacity="0.57" d="M1683.49 641.242V645.884H1729.48C1730.08 645.861 1730.64 645.606 1731.06 645.174C1731.48 644.741 1731.71 644.164 1731.71 643.563C1731.71 642.962 1731.48 642.385 1731.06 641.952C1730.64 641.519 1730.08 641.265 1729.48 641.242H1683.49Z" fill="#F7F8FA"/>
</g>
<g opacity="0.57">
<path opacity="0.57" d="M1683.49 649.266V653.91H1729.48C1730.09 653.91 1730.68 653.666 1731.12 653.23C1731.55 652.795 1731.8 652.204 1731.8 651.588C1731.8 650.972 1731.55 650.381 1731.12 649.946C1730.68 649.51 1730.09 649.266 1729.48 649.266H1683.49Z" fill="#F7F8FA"/>
</g>
<g opacity="0.57">
<path opacity="0.57" d="M1683.49 656.879V661.52H1729.48C1730.09 661.519 1730.68 661.274 1731.12 660.839C1731.55 660.403 1731.79 659.813 1731.79 659.198C1731.79 658.583 1731.55 657.993 1731.12 657.558C1730.68 657.123 1730.09 656.879 1729.48 656.879H1683.49Z" fill="#F7F8FA"/>
</g>
<g opacity="0.57">
<path opacity="0.57" d="M1683.49 664.906V669.548H1729.48C1729.93 669.547 1730.38 669.41 1730.76 669.155C1731.14 668.899 1731.44 668.537 1731.62 668.113C1731.79 667.69 1731.84 667.223 1731.75 666.774C1731.66 666.324 1731.44 665.91 1731.12 665.586C1730.9 665.371 1730.64 665.202 1730.36 665.087C1730.08 664.972 1729.78 664.914 1729.48 664.916L1683.49 664.906Z" fill="#F7F8FA"/>
</g>
<g opacity="0.57">
<path opacity="0.57" d="M1683.49 672.93V677.571H1729.48C1730.09 677.57 1730.68 677.325 1731.12 676.89C1731.55 676.454 1731.79 675.864 1731.79 675.249C1731.79 674.634 1731.55 674.044 1731.12 673.609C1730.68 673.174 1730.09 672.93 1729.48 672.93H1683.49Z" fill="#F7F8FA"/>
</g>
<g opacity="0.57">
<path opacity="0.57" d="M1683.49 680.945V685.59H1729.48C1730.09 685.59 1730.68 685.345 1731.12 684.91C1731.55 684.474 1731.8 683.884 1731.8 683.268C1731.8 682.652 1731.55 682.061 1731.12 681.626C1730.68 681.19 1730.09 680.945 1729.48 680.945H1683.49Z" fill="#F7F8FA"/>
</g>
<g opacity="0.57">
<path opacity="0.57" d="M1683.49 688.973V693.614H1729.48C1730.08 693.591 1730.64 693.337 1731.06 692.904C1731.48 692.471 1731.71 691.894 1731.71 691.293C1731.71 690.693 1731.48 690.115 1731.06 689.683C1730.64 689.25 1730.08 688.995 1729.48 688.973H1683.49Z" fill="#F7F8FA"/>
</g>
</g>
<path d="M524.124 680.055H996.449V791.91H502.041V702.137C502.042 696.281 504.369 690.665 508.51 686.524C512.651 682.382 518.267 680.056 524.124 680.055Z" fill="url(#paint3_linear_2405_87224)"/>
<g opacity="0.51">
<path opacity="0.51" d="M1420.66 158.547H1418.98C1414.79 158.547 1411.39 161.946 1411.39 166.14V238.853C1411.39 243.046 1414.79 246.446 1418.98 246.446H1420.66C1424.86 246.446 1428.25 243.046 1428.25 238.853V166.14C1428.25 161.946 1424.86 158.547 1420.66 158.547Z" fill="#F7F8FA"/>
<path opacity="0.51" d="M1420.66 261.391H1418.98C1414.78 261.391 1411.38 264.79 1411.38 268.984V341.697C1411.38 345.89 1414.78 349.289 1418.98 349.289H1420.66C1424.85 349.289 1428.25 345.89 1428.25 341.697V268.984C1428.25 264.79 1424.85 261.391 1420.66 261.391Z" fill="#F7F8FA"/>
<path opacity="0.51" d="M1420.66 364.238H1418.98C1414.78 364.238 1411.38 367.638 1411.38 371.831V444.544C1411.38 448.738 1414.78 452.137 1418.98 452.137H1420.66C1424.85 452.137 1428.25 448.738 1428.25 444.544V371.831C1428.25 367.638 1424.85 364.238 1420.66 364.238Z" fill="#F7F8FA"/>
<path opacity="0.51" d="M1420.66 467.086H1418.98C1414.78 467.086 1411.38 470.485 1411.38 474.679V547.392C1411.38 551.585 1414.78 554.985 1418.98 554.985H1420.66C1424.85 554.985 1428.25 551.585 1428.25 547.392V474.679C1428.25 470.485 1424.85 467.086 1420.66 467.086Z" fill="#F7F8FA"/>
<path opacity="0.51" d="M1447.59 158.547H1445.91C1441.71 158.547 1438.31 161.946 1438.31 166.14V238.853C1438.31 243.046 1441.71 246.446 1445.91 246.446H1447.59C1451.78 246.446 1455.18 243.046 1455.18 238.853V166.14C1455.18 161.946 1451.78 158.547 1447.59 158.547Z" fill="#F7F8FA"/>
<path opacity="0.51" d="M1447.59 261.391H1445.91C1441.71 261.391 1438.31 264.79 1438.31 268.984V341.697C1438.31 345.89 1441.71 349.289 1445.91 349.289H1447.59C1451.78 349.289 1455.18 345.89 1455.18 341.697V268.984C1455.18 264.79 1451.78 261.391 1447.59 261.391Z" fill="#F7F8FA"/>
<path opacity="0.51" d="M1447.59 364.238H1445.91C1441.71 364.238 1438.31 367.638 1438.31 371.831V444.544C1438.31 448.738 1441.71 452.137 1445.91 452.137H1447.59C1451.78 452.137 1455.18 448.738 1455.18 444.544V371.831C1455.18 367.638 1451.78 364.238 1447.59 364.238Z" fill="#F7F8FA"/>
<path opacity="0.51" d="M1447.59 467.086H1445.91C1441.71 467.086 1438.31 470.485 1438.31 474.679V547.392C1438.31 551.585 1441.71 554.985 1445.91 554.985H1447.59C1451.78 554.985 1455.18 551.585 1455.18 547.392V474.679C1455.18 470.485 1451.78 467.086 1447.59 467.086Z" fill="#F7F8FA"/>
<path opacity="0.51" d="M1474.42 158.547H1472.74C1468.55 158.547 1465.15 161.946 1465.15 166.14V238.853C1465.15 243.046 1468.55 246.446 1472.74 246.446H1474.42C1478.62 246.446 1482.02 243.046 1482.02 238.853V166.14C1482.02 161.946 1478.62 158.547 1474.42 158.547Z" fill="#F7F8FA"/>
<path opacity="0.51" d="M1474.42 261.391H1472.74C1468.55 261.391 1465.15 264.79 1465.15 268.984V341.697C1465.15 345.89 1468.55 349.289 1472.74 349.289H1474.42C1478.62 349.289 1482.02 345.89 1482.02 341.697V268.984C1482.02 264.79 1478.62 261.391 1474.42 261.391Z" fill="#F7F8FA"/>
<path opacity="0.51" d="M1474.42 364.238H1472.74C1468.55 364.238 1465.15 367.638 1465.15 371.831V444.544C1465.15 448.738 1468.55 452.137 1472.74 452.137H1474.42C1478.62 452.137 1482.02 448.738 1482.02 444.544V371.831C1482.02 367.638 1478.62 364.238 1474.42 364.238Z" fill="#F7F8FA"/>
<path opacity="0.51" d="M1474.42 467.086H1472.74C1468.55 467.086 1465.15 470.485 1465.15 474.679V547.392C1465.15 551.585 1468.55 554.985 1472.74 554.985H1474.42C1478.62 554.985 1482.02 551.585 1482.02 547.392V474.679C1482.02 470.485 1478.62 467.086 1474.42 467.086Z" fill="#F7F8FA"/>
<path opacity="0.51" d="M1503.31 158.547H1501.63C1497.44 158.547 1494.04 161.946 1494.04 166.14V238.853C1494.04 243.046 1497.44 246.446 1501.63 246.446H1503.31C1507.51 246.446 1510.91 243.046 1510.91 238.853V166.14C1510.91 161.946 1507.51 158.547 1503.31 158.547Z" fill="#F7F8FA"/>
<path opacity="0.51" d="M1503.31 261.391H1501.63C1497.44 261.391 1494.04 264.79 1494.04 268.984V341.697C1494.04 345.89 1497.44 349.289 1501.63 349.289H1503.31C1507.51 349.289 1510.91 345.89 1510.91 341.697V268.984C1510.91 264.79 1507.51 261.391 1503.31 261.391Z" fill="#F7F8FA"/>
<path opacity="0.51" d="M1503.31 364.238H1501.63C1497.44 364.238 1494.04 367.638 1494.04 371.831V444.544C1494.04 448.738 1497.44 452.137 1501.63 452.137H1503.31C1507.51 452.137 1510.91 448.738 1510.91 444.544V371.831C1510.91 367.638 1507.51 364.238 1503.31 364.238Z" fill="#F7F8FA"/>
<path opacity="0.51" d="M1503.31 467.086H1501.63C1497.44 467.086 1494.04 470.485 1494.04 474.679V547.392C1494.04 551.585 1497.44 554.985 1501.63 554.985H1503.31C1507.51 554.985 1510.91 551.585 1510.91 547.392V474.679C1510.91 470.485 1507.51 467.086 1503.31 467.086Z" fill="#F7F8FA"/>
<path opacity="0.51" d="M1531.19 158.547H1529.51C1525.32 158.547 1521.92 161.946 1521.92 166.14V238.853C1521.92 243.046 1525.32 246.446 1529.51 246.446H1531.19C1535.39 246.446 1538.79 243.046 1538.79 238.853V166.14C1538.79 161.946 1535.39 158.547 1531.19 158.547Z" fill="#F7F8FA"/>
<path opacity="0.51" d="M1531.19 261.391H1529.51C1525.32 261.391 1521.92 264.79 1521.92 268.984V341.697C1521.92 345.89 1525.32 349.289 1529.51 349.289H1531.19C1535.39 349.289 1538.79 345.89 1538.79 341.697V268.984C1538.79 264.79 1535.39 261.391 1531.19 261.391Z" fill="#F7F8FA"/>
<path opacity="0.51" d="M1531.19 364.238H1529.51C1525.32 364.238 1521.92 367.638 1521.92 371.831V444.544C1521.92 448.738 1525.32 452.137 1529.51 452.137H1531.19C1535.39 452.137 1538.79 448.738 1538.79 444.544V371.831C1538.79 367.638 1535.39 364.238 1531.19 364.238Z" fill="#F7F8FA"/>
<path opacity="0.51" d="M1531.19 467.086H1529.51C1525.32 467.086 1521.92 470.485 1521.92 474.679V547.392C1521.92 551.585 1525.32 554.985 1529.51 554.985H1531.19C1535.39 554.985 1538.79 551.585 1538.79 547.392V474.679C1538.79 470.485 1535.39 467.086 1531.19 467.086Z" fill="#F7F8FA"/>
<path opacity="0.51" d="M1558.48 158.547H1556.8C1552.6 158.547 1549.2 161.946 1549.2 166.14V238.853C1549.2 243.046 1552.6 246.446 1556.8 246.446H1558.48C1562.67 246.446 1566.07 243.046 1566.07 238.853V166.14C1566.07 161.946 1562.67 158.547 1558.48 158.547Z" fill="#F7F8FA"/>
<path opacity="0.51" d="M1558.48 261.391H1556.8C1552.6 261.391 1549.2 264.79 1549.2 268.984V341.697C1549.2 345.89 1552.6 349.289 1556.8 349.289H1558.48C1562.67 349.289 1566.07 345.89 1566.07 341.697V268.984C1566.07 264.79 1562.67 261.391 1558.48 261.391Z" fill="#F7F8FA"/>
<path opacity="0.51" d="M1558.48 364.238H1556.8C1552.6 364.238 1549.2 367.638 1549.2 371.831V444.544C1549.2 448.738 1552.6 452.137 1556.8 452.137H1558.48C1562.67 452.137 1566.07 448.738 1566.07 444.544V371.831C1566.07 367.638 1562.67 364.238 1558.48 364.238Z" fill="#F7F8FA"/>
<path opacity="0.51" d="M1558.48 467.086H1556.8C1552.6 467.086 1549.2 470.485 1549.2 474.679V547.392C1549.2 551.585 1552.6 554.985 1556.8 554.985H1558.48C1562.67 554.985 1566.07 551.585 1566.07 547.392V474.679C1566.07 470.485 1562.67 467.086 1558.48 467.086Z" fill="#F7F8FA"/>
</g>
<g opacity="0.15">
<path opacity="0.15" d="M1420.66 401.059H1418.98C1414.79 401.059 1411.39 404.458 1411.39 408.652V481.365C1411.39 485.558 1414.79 488.957 1418.98 488.957H1420.66C1424.86 488.957 1428.25 485.558 1428.25 481.365V408.652C1428.25 404.458 1424.86 401.059 1420.66 401.059Z" fill="#F7F8FA"/>
<path opacity="0.15" d="M1420.66 503.906H1418.98C1414.78 503.906 1411.38 507.306 1411.38 511.499V584.212C1411.38 588.406 1414.78 591.805 1418.98 591.805H1420.66C1424.85 591.805 1428.25 588.406 1428.25 584.212V511.499C1428.25 507.306 1424.85 503.906 1420.66 503.906Z" fill="#F7F8FA"/>
<path opacity="0.15" d="M1420.66 606.75H1418.98C1414.78 606.75 1411.38 610.149 1411.38 614.343V687.056C1411.38 691.249 1414.78 694.649 1418.98 694.649H1420.66C1424.85 694.649 1428.25 691.249 1428.25 687.056V614.343C1428.25 610.149 1424.85 606.75 1420.66 606.75Z" fill="#F7F8FA"/>
<path opacity="0.15" d="M1420.66 709.594H1418.98C1414.78 709.594 1411.38 712.993 1411.38 717.187V789.9C1411.38 794.093 1414.78 797.493 1418.98 797.493H1420.66C1424.85 797.493 1428.25 794.093 1428.25 789.9V717.187C1428.25 712.993 1424.85 709.594 1420.66 709.594Z" fill="#F7F8FA"/>
<path opacity="0.15" d="M1447.59 401.059H1445.91C1441.71 401.059 1438.31 404.458 1438.31 408.652V481.365C1438.31 485.558 1441.71 488.957 1445.91 488.957H1447.59C1451.78 488.957 1455.18 485.558 1455.18 481.365V408.652C1455.18 404.458 1451.78 401.059 1447.59 401.059Z" fill="#F7F8FA"/>
<path opacity="0.15" d="M1447.59 503.906H1445.91C1441.71 503.906 1438.31 507.306 1438.31 511.499V584.212C1438.31 588.406 1441.71 591.805 1445.91 591.805H1447.59C1451.78 591.805 1455.18 588.406 1455.18 584.212V511.499C1455.18 507.306 1451.78 503.906 1447.59 503.906Z" fill="#F7F8FA"/>
<path opacity="0.15" d="M1447.59 606.75H1445.91C1441.71 606.75 1438.31 610.149 1438.31 614.343V687.056C1438.31 691.249 1441.71 694.649 1445.91 694.649H1447.59C1451.78 694.649 1455.18 691.249 1455.18 687.056V614.343C1455.18 610.149 1451.78 606.75 1447.59 606.75Z" fill="#F7F8FA"/>
<path opacity="0.15" d="M1447.59 709.594H1445.91C1441.71 709.594 1438.31 712.993 1438.31 717.187V789.9C1438.31 794.093 1441.71 797.493 1445.91 797.493H1447.59C1451.78 797.493 1455.18 794.093 1455.18 789.9V717.187C1455.18 712.993 1451.78 709.594 1447.59 709.594Z" fill="#F7F8FA"/>
<path opacity="0.15" d="M1474.42 401.059H1472.74C1468.55 401.059 1465.15 404.458 1465.15 408.652V481.365C1465.15 485.558 1468.55 488.957 1472.74 488.957H1474.42C1478.62 488.957 1482.02 485.558 1482.02 481.365V408.652C1482.02 404.458 1478.62 401.059 1474.42 401.059Z" fill="#F7F8FA"/>
<path opacity="0.15" d="M1474.42 503.906H1472.74C1468.55 503.906 1465.15 507.306 1465.15 511.499V584.212C1465.15 588.406 1468.55 591.805 1472.74 591.805H1474.42C1478.62 591.805 1482.02 588.406 1482.02 584.212V511.499C1482.02 507.306 1478.62 503.906 1474.42 503.906Z" fill="#F7F8FA"/>
<path opacity="0.15" d="M1474.42 606.75H1472.74C1468.55 606.75 1465.15 610.149 1465.15 614.343V687.056C1465.15 691.249 1468.55 694.649 1472.74 694.649H1474.42C1478.62 694.649 1482.02 691.249 1482.02 687.056V614.343C1482.02 610.149 1478.62 606.75 1474.42 606.75Z" fill="#F7F8FA"/>
<path opacity="0.15" d="M1474.42 709.594H1472.74C1468.55 709.594 1465.15 712.993 1465.15 717.187V789.9C1465.15 794.093 1468.55 797.493 1472.74 797.493H1474.42C1478.62 797.493 1482.02 794.093 1482.02 789.9V717.187C1482.02 712.993 1478.62 709.594 1474.42 709.594Z" fill="#F7F8FA"/>
<path opacity="0.15" d="M1503.31 401.059H1501.63C1497.44 401.059 1494.04 404.458 1494.04 408.652V481.365C1494.04 485.558 1497.44 488.957 1501.63 488.957H1503.31C1507.51 488.957 1510.91 485.558 1510.91 481.365V408.652C1510.91 404.458 1507.51 401.059 1503.31 401.059Z" fill="#F7F8FA"/>
<path opacity="0.15" d="M1503.31 503.906H1501.63C1497.44 503.906 1494.04 507.306 1494.04 511.499V584.212C1494.04 588.406 1497.44 591.805 1501.63 591.805H1503.31C1507.51 591.805 1510.91 588.406 1510.91 584.212V511.499C1510.91 507.306 1507.51 503.906 1503.31 503.906Z" fill="#F7F8FA"/>
<path opacity="0.15" d="M1503.31 606.75H1501.63C1497.44 606.75 1494.04 610.149 1494.04 614.343V687.056C1494.04 691.249 1497.44 694.649 1501.63 694.649H1503.31C1507.51 694.649 1510.91 691.249 1510.91 687.056V614.343C1510.91 610.149 1507.51 606.75 1503.31 606.75Z" fill="#F7F8FA"/>
<path opacity="0.15" d="M1503.31 709.594H1501.63C1497.44 709.594 1494.04 712.993 1494.04 717.187V789.9C1494.04 794.093 1497.44 797.493 1501.63 797.493H1503.31C1507.51 797.493 1510.91 794.093 1510.91 789.9V717.187C1510.91 712.993 1507.51 709.594 1503.31 709.594Z" fill="#F7F8FA"/>
<path opacity="0.15" d="M1531.19 401.059H1529.51C1525.32 401.059 1521.92 404.458 1521.92 408.652V481.365C1521.92 485.558 1525.32 488.957 1529.51 488.957H1531.19C1535.39 488.957 1538.79 485.558 1538.79 481.365V408.652C1538.79 404.458 1535.39 401.059 1531.19 401.059Z" fill="#F7F8FA"/>
<path opacity="0.15" d="M1531.19 503.906H1529.51C1525.32 503.906 1521.92 507.306 1521.92 511.499V584.212C1521.92 588.406 1525.32 591.805 1529.51 591.805H1531.19C1535.39 591.805 1538.79 588.406 1538.79 584.212V511.499C1538.79 507.306 1535.39 503.906 1531.19 503.906Z" fill="#F7F8FA"/>
<path opacity="0.15" d="M1531.19 606.75H1529.51C1525.32 606.75 1521.92 610.149 1521.92 614.343V687.056C1521.92 691.249 1525.32 694.649 1529.51 694.649H1531.19C1535.39 694.649 1538.79 691.249 1538.79 687.056V614.343C1538.79 610.149 1535.39 606.75 1531.19 606.75Z" fill="#F7F8FA"/>
<path opacity="0.15" d="M1531.19 709.594H1529.51C1525.32 709.594 1521.92 712.993 1521.92 717.187V789.9C1521.92 794.093 1525.32 797.493 1529.51 797.493H1531.19C1535.39 797.493 1538.79 794.093 1538.79 789.9V717.187C1538.79 712.993 1535.39 709.594 1531.19 709.594Z" fill="#F7F8FA"/>
<path opacity="0.15" d="M1558.48 401.059H1556.8C1552.6 401.059 1549.2 404.458 1549.2 408.652V481.365C1549.2 485.558 1552.6 488.957 1556.8 488.957H1558.48C1562.67 488.957 1566.07 485.558 1566.07 481.365V408.652C1566.07 404.458 1562.67 401.059 1558.48 401.059Z" fill="#F7F8FA"/>
<path opacity="0.15" d="M1558.48 503.906H1556.8C1552.6 503.906 1549.2 507.306 1549.2 511.499V584.212C1549.2 588.406 1552.6 591.805 1556.8 591.805H1558.48C1562.67 591.805 1566.07 588.406 1566.07 584.212V511.499C1566.07 507.306 1562.67 503.906 1558.48 503.906Z" fill="#F7F8FA"/>
<path opacity="0.15" d="M1558.48 606.75H1556.8C1552.6 606.75 1549.2 610.149 1549.2 614.343V687.056C1549.2 691.249 1552.6 694.649 1556.8 694.649H1558.48C1562.67 694.649 1566.07 691.249 1566.07 687.056V614.343C1566.07 610.149 1562.67 606.75 1558.48 606.75Z" fill="#F7F8FA"/>
<path opacity="0.15" d="M1558.48 709.594H1556.8C1552.6 709.594 1549.2 712.993 1549.2 717.187V789.9C1549.2 794.093 1552.6 797.493 1556.8 797.493H1558.48C1562.67 797.493 1566.07 794.093 1566.07 789.9V717.187C1566.07 712.993 1562.67 709.594 1558.48 709.594Z" fill="#F7F8FA"/>
</g>
<path d="M850.825 576.824H945.507V599.275H834.425C833.626 599.275 832.86 598.958 832.295 598.393C831.73 597.828 831.413 597.062 831.413 596.263C831.413 591.116 833.458 586.179 837.098 582.539C840.738 578.899 845.674 576.854 850.822 576.854L850.825 576.824Z" fill="#F7F8FA"/>
<path d="M952.763 599.273H1066.87V576.823H952.763V599.273Z" fill="#F7F8FA"/>
<path d="M1074.73 598.672H1188.84V576.221H1074.73V598.672Z" fill="#F7F8FA"/>
<g opacity="0.26">
<path opacity="0.26" d="M925.471 688.469H920.465C918.624 688.469 917.132 689.961 917.132 691.802V714.734C917.132 716.575 918.624 718.067 920.465 718.067H925.471C927.312 718.067 928.804 716.575 928.804 714.734V691.802C928.804 689.961 927.312 688.469 925.471 688.469Z" fill="#F7F8FA"/>
<path opacity="0.26" d="M925.469 728.613H920.463C918.622 728.613 917.13 730.105 917.13 731.946V754.879C917.13 756.72 918.622 758.212 920.463 758.212H925.469C927.31 758.212 928.802 756.72 928.802 754.879V731.946C928.802 730.105 927.31 728.613 925.469 728.613Z" fill="#F7F8FA"/>
<path opacity="0.26" d="M925.469 768.758H920.463C918.622 768.758 917.13 770.25 917.13 772.091V795.023C917.13 796.864 918.622 798.356 920.463 798.356H925.469C927.31 798.356 928.802 796.864 928.802 795.023V772.091C928.802 770.25 927.31 768.758 925.469 768.758Z" fill="#F7F8FA"/>
<path opacity="0.26" d="M941.716 688.469H936.71C934.869 688.469 933.377 689.961 933.377 691.802V714.734C933.377 716.575 934.869 718.067 936.71 718.067H941.716C943.557 718.067 945.049 716.575 945.049 714.734V691.802C945.049 689.961 943.557 688.469 941.716 688.469Z" fill="#F7F8FA"/>
<path opacity="0.26" d="M941.716 728.613H936.71C934.869 728.613 933.377 730.105 933.377 731.946V754.879C933.377 756.72 934.869 758.212 936.71 758.212H941.716C943.557 758.212 945.049 756.72 945.049 754.879V731.946C945.049 730.105 943.557 728.613 941.716 728.613Z" fill="#F7F8FA"/>
<path opacity="0.26" d="M941.716 768.758H936.71C934.869 768.758 933.377 770.25 933.377 772.091V795.023C933.377 796.864 934.869 798.356 936.71 798.356H941.716C943.557 798.356 945.049 796.864 945.049 795.023V772.091C945.049 770.25 943.557 768.758 941.716 768.758Z" fill="#F7F8FA"/>
<path opacity="0.26" d="M958.42 688.469H953.414C951.573 688.469 950.081 689.961 950.081 691.802V714.734C950.081 716.575 951.573 718.067 953.414 718.067H958.42C960.261 718.067 961.753 716.575 961.753 714.734V691.802C961.753 689.961 960.261 688.469 958.42 688.469Z" fill="#F7F8FA"/>
<path opacity="0.26" d="M958.42 728.613H953.414C951.573 728.613 950.081 730.105 950.081 731.946V754.879C950.081 756.72 951.573 758.212 953.414 758.212H958.42C960.261 758.212 961.753 756.72 961.753 754.879V731.946C961.753 730.105 960.261 728.613 958.42 728.613Z" fill="#F7F8FA"/>
<path opacity="0.26" d="M958.42 768.758H953.414C951.573 768.758 950.081 770.25 950.081 772.091V795.023C950.081 796.864 951.573 798.356 953.414 798.356H958.42C960.261 798.356 961.753 796.864 961.753 795.023V772.091C961.753 770.25 960.261 768.758 958.42 768.758Z" fill="#F7F8FA"/>
<path opacity="0.26" d="M975.125 688.469H970.119C968.278 688.469 966.786 689.961 966.786 691.802V714.734C966.786 716.575 968.278 718.067 970.119 718.067H975.125C976.966 718.067 978.458 716.575 978.458 714.734V691.802C978.458 689.961 976.966 688.469 975.125 688.469Z" fill="#F7F8FA"/>
<path opacity="0.26" d="M975.125 728.613H970.119C968.278 728.613 966.786 730.105 966.786 731.946V754.879C966.786 756.72 968.278 758.212 970.119 758.212H975.125C976.966 758.212 978.458 756.72 978.458 754.879V731.946C978.458 730.105 976.966 728.613 975.125 728.613Z" fill="#F7F8FA"/>
<path opacity="0.26" d="M975.125 768.758H970.119C968.278 768.758 966.786 770.25 966.786 772.091V795.023C966.786 796.864 968.278 798.356 970.119 798.356H975.125C976.966 798.356 978.458 796.864 978.458 795.023V772.091C978.458 770.25 976.966 768.758 975.125 768.758Z" fill="#F7F8FA"/>
</g>
<g opacity="0.26">
<path opacity="0.26" d="M832.922 688.469H827.916C826.075 688.469 824.583 689.961 824.583 691.802V714.734C824.583 716.575 826.075 718.067 827.916 718.067H832.922C834.763 718.067 836.255 716.575 836.255 714.734V691.802C836.255 689.961 834.763 688.469 832.922 688.469Z" fill="#F7F8FA"/>
<path opacity="0.26" d="M832.923 728.613H827.917C826.076 728.613 824.584 730.105 824.584 731.946V754.879C824.584 756.72 826.076 758.212 827.917 758.212H832.923C834.764 758.212 836.256 756.72 836.256 754.879V731.946C836.256 730.105 834.764 728.613 832.923 728.613Z" fill="#F7F8FA"/>
<path opacity="0.26" d="M832.923 768.758H827.917C826.076 768.758 824.584 770.25 824.584 772.091V795.023C824.584 796.864 826.076 798.356 827.917 798.356H832.923C834.764 798.356 836.256 796.864 836.256 795.023V772.091C836.256 770.25 834.764 768.758 832.923 768.758Z" fill="#F7F8FA"/>
<path opacity="0.26" d="M849.169 688.469H844.163C842.322 688.469 840.83 689.961 840.83 691.802V714.734C840.83 716.575 842.322 718.067 844.163 718.067H849.169C851.01 718.067 852.502 716.575 852.502 714.734V691.802C852.502 689.961 851.01 688.469 849.169 688.469Z" fill="#F7F8FA"/>
<path opacity="0.26" d="M849.169 728.613H844.163C842.322 728.613 840.83 730.105 840.83 731.946V754.879C840.83 756.72 842.322 758.212 844.163 758.212H849.169C851.01 758.212 852.502 756.72 852.502 754.879V731.946C852.502 730.105 851.01 728.613 849.169 728.613Z" fill="#F7F8FA"/>
<path opacity="0.26" d="M849.169 768.758H844.163C842.322 768.758 840.83 770.25 840.83 772.091V795.023C840.83 796.864 842.322 798.356 844.163 798.356H849.169C851.01 798.356 852.502 796.864 852.502 795.023V772.091C852.502 770.25 851.01 768.758 849.169 768.758Z" fill="#F7F8FA"/>
<path opacity="0.26" d="M865.874 688.469H860.868C859.027 688.469 857.535 689.961 857.535 691.802V714.734C857.535 716.575 859.027 718.067 860.868 718.067H865.874C867.715 718.067 869.207 716.575 869.207 714.734V691.802C869.207 689.961 867.715 688.469 865.874 688.469Z" fill="#F7F8FA"/>
<path opacity="0.26" d="M865.874 728.613H860.868C859.027 728.613 857.535 730.105 857.535 731.946V754.879C857.535 756.72 859.027 758.212 860.868 758.212H865.874C867.715 758.212 869.207 756.72 869.207 754.879V731.946C869.207 730.105 867.715 728.613 865.874 728.613Z" fill="#F7F8FA"/>
<path opacity="0.26" d="M865.874 768.758H860.868C859.027 768.758 857.535 770.25 857.535 772.091V795.023C857.535 796.864 859.027 798.356 860.868 798.356H865.874C867.715 798.356 869.207 796.864 869.207 795.023V772.091C869.207 770.25 867.715 768.758 865.874 768.758Z" fill="#F7F8FA"/>
<path opacity="0.26" d="M882.579 688.469H877.573C875.732 688.469 874.24 689.961 874.24 691.802V714.734C874.24 716.575 875.732 718.067 877.573 718.067H882.579C884.42 718.067 885.912 716.575 885.912 714.734V691.802C885.912 689.961 884.42 688.469 882.579 688.469Z" fill="#F7F8FA"/>
<path opacity="0.26" d="M882.579 728.613H877.573C875.732 728.613 874.24 730.105 874.24 731.946V754.879C874.24 756.72 875.732 758.212 877.573 758.212H882.579C884.42 758.212 885.912 756.72 885.912 754.879V731.946C885.912 730.105 884.42 728.613 882.579 728.613Z" fill="#F7F8FA"/>
<path opacity="0.26" d="M882.579 768.758H877.573C875.732 768.758 874.24 770.25 874.24 772.091V795.023C874.24 796.864 875.732 798.356 877.573 798.356H882.579C884.42 798.356 885.912 796.864 885.912 795.023V772.091C885.912 770.25 884.42 768.758 882.579 768.758Z" fill="#F7F8FA"/>
</g>
<g opacity="0.26">
<path opacity="0.26" d="M738.131 688.469H733.125C731.284 688.469 729.792 689.961 729.792 691.802V714.734C729.792 716.575 731.284 718.067 733.125 718.067H738.131C739.972 718.067 741.464 716.575 741.464 714.734V691.802C741.464 689.961 739.972 688.469 738.131 688.469Z" fill="#F7F8FA"/>
<path opacity="0.26" d="M738.13 728.613H733.124C731.283 728.613 729.791 730.105 729.791 731.946V754.879C729.791 756.72 731.283 758.212 733.124 758.212H738.13C739.971 758.212 741.463 756.72 741.463 754.879V731.946C741.463 730.105 739.971 728.613 738.13 728.613Z" fill="#F7F8FA"/>
<path opacity="0.26" d="M738.13 768.758H733.124C731.283 768.758 729.791 770.25 729.791 772.091V795.023C729.791 796.864 731.283 798.356 733.124 798.356H738.13C739.971 798.356 741.463 796.864 741.463 795.023V772.091C741.463 770.25 739.971 768.758 738.13 768.758Z" fill="#F7F8FA"/>
<path opacity="0.26" d="M754.377 688.469H749.371C747.53 688.469 746.038 689.961 746.038 691.802V714.734C746.038 716.575 747.53 718.067 749.371 718.067H754.377C756.218 718.067 757.71 716.575 757.71 714.734V691.802C757.71 689.961 756.218 688.469 754.377 688.469Z" fill="#F7F8FA"/>
<path opacity="0.26" d="M754.377 728.613H749.371C747.53 728.613 746.038 730.105 746.038 731.946V754.879C746.038 756.72 747.53 758.212 749.371 758.212H754.377C756.218 758.212 757.71 756.72 757.71 754.879V731.946C757.71 730.105 756.218 728.613 754.377 728.613Z" fill="#F7F8FA"/>
<path opacity="0.26" d="M754.377 768.758H749.371C747.53 768.758 746.038 770.25 746.038 772.091V795.023C746.038 796.864 747.53 798.356 749.371 798.356H754.377C756.218 798.356 757.71 796.864 757.71 795.023V772.091C757.71 770.25 756.218 768.758 754.377 768.758Z" fill="#F7F8FA"/>
<path opacity="0.26" d="M771.081 688.469H766.075C764.234 688.469 762.742 689.961 762.742 691.802V714.734C762.742 716.575 764.234 718.067 766.075 718.067H771.081C772.922 718.067 774.414 716.575 774.414 714.734V691.802C774.414 689.961 772.922 688.469 771.081 688.469Z" fill="#F7F8FA"/>
<path opacity="0.26" d="M771.081 728.613H766.075C764.234 728.613 762.742 730.105 762.742 731.946V754.879C762.742 756.72 764.234 758.212 766.075 758.212H771.081C772.922 758.212 774.414 756.72 774.414 754.879V731.946C774.414 730.105 772.922 728.613 771.081 728.613Z" fill="#F7F8FA"/>
<path opacity="0.26" d="M771.081 768.758H766.075C764.234 768.758 762.742 770.25 762.742 772.091V795.023C762.742 796.864 764.234 798.356 766.075 798.356H771.081C772.922 798.356 774.414 796.864 774.414 795.023V772.091C774.414 770.25 772.922 768.758 771.081 768.758Z" fill="#F7F8FA"/>
<path opacity="0.26" d="M787.787 688.469H782.781C780.94 688.469 779.448 689.961 779.448 691.802V714.734C779.448 716.575 780.94 718.067 782.781 718.067H787.787C789.628 718.067 791.12 716.575 791.12 714.734V691.802C791.12 689.961 789.628 688.469 787.787 688.469Z" fill="#F7F8FA"/>
<path opacity="0.26" d="M787.787 728.613H782.781C780.94 728.613 779.448 730.105 779.448 731.946V754.879C779.448 756.72 780.94 758.212 782.781 758.212H787.787C789.628 758.212 791.12 756.72 791.12 754.879V731.946C791.12 730.105 789.628 728.613 787.787 728.613Z" fill="#F7F8FA"/>
<path opacity="0.26" d="M787.787 768.758H782.781C780.94 768.758 779.448 770.25 779.448 772.091V795.023C779.448 796.864 780.94 798.356 782.781 798.356H787.787C789.628 798.356 791.12 796.864 791.12 795.023V772.091C791.12 770.25 789.628 768.758 787.787 768.758Z" fill="#F7F8FA"/>
</g>
<path d="M1127.6 671.703H1027.72C1025.51 671.703 1023.71 673.498 1023.71 675.712C1023.71 677.926 1025.51 679.721 1027.72 679.721H1127.6C1129.81 679.721 1131.61 677.926 1131.61 675.712C1131.61 673.498 1129.81 671.703 1127.6 671.703Z" fill="#2448B1"/>
<path d="M1158.32 671.703H1151.71C1149.49 671.703 1147.7 673.498 1147.7 675.712C1147.7 677.926 1149.49 679.721 1151.71 679.721H1158.32C1160.54 679.721 1162.33 677.926 1162.33 675.712C1162.33 673.498 1160.54 671.703 1158.32 671.703Z" fill="#2448B1"/>
<path d="M1049.39 645.508H1042.78C1040.56 645.508 1038.77 647.303 1038.77 649.517C1038.77 651.731 1040.56 653.526 1042.78 653.526H1049.39C1051.61 653.526 1053.4 651.731 1053.4 649.517C1053.4 647.303 1051.61 645.508 1049.39 645.508Z" fill="#2448B1"/>
<path d="M1161.47 659.102H1061.59C1059.38 659.102 1057.58 660.896 1057.58 663.11C1057.58 665.325 1059.38 667.119 1061.59 667.119H1161.47C1163.69 667.119 1165.48 665.325 1165.48 663.11C1165.48 660.896 1163.69 659.102 1161.47 659.102Z" fill="#2448B1"/>
<path d="M1181.55 684.305H1081.67C1079.45 684.305 1077.66 686.1 1077.66 688.314C1077.66 690.528 1079.45 692.323 1081.67 692.323H1181.55C1183.76 692.323 1185.55 690.528 1185.55 688.314C1185.55 686.1 1183.76 684.305 1181.55 684.305Z" fill="#2448B1"/>
<path d="M1046.55 699.422H1030.99C1028.78 699.422 1026.98 701.217 1026.98 703.431C1026.98 705.645 1028.78 707.44 1030.99 707.44H1046.55C1048.77 707.44 1050.56 705.645 1050.56 703.431C1050.56 701.217 1048.77 699.422 1046.55 699.422Z" fill="#2448B1"/>
<path d="M1092.08 699.422H1067.05C1064.84 699.422 1063.04 701.217 1063.04 703.431C1063.04 705.645 1064.84 707.44 1067.05 707.44H1092.08C1094.3 707.44 1096.09 705.645 1096.09 703.431C1096.09 701.217 1094.3 699.422 1092.08 699.422Z" fill="#2448B1"/>
<path d="M1188.87 627.008H1088.99C1086.77 627.008 1084.98 628.803 1084.98 631.017C1084.98 633.231 1086.77 635.026 1088.99 635.026H1188.87C1191.08 635.026 1192.87 633.231 1192.87 631.017C1192.87 628.803 1191.08 627.008 1188.87 627.008Z" fill="#2448B1"/>
<g opacity="0.8">
<path opacity="0.8" d="M1296.59 750.036V662.703C1296.59 660.768 1295.02 659.199 1293.08 659.199H1293.08C1291.14 659.199 1289.58 660.768 1289.58 662.703V750.036C1289.58 751.971 1291.14 753.54 1293.08 753.54H1293.08C1295.02 753.54 1296.59 751.971 1296.59 750.036Z" fill="#F7F8FA"/>
<path opacity="0.8" d="M1296.59 776.891V771.105C1296.59 769.17 1295.02 767.602 1293.08 767.602H1293.08C1291.14 767.602 1289.58 769.17 1289.58 771.105V776.891C1289.58 778.826 1291.14 780.395 1293.08 780.395H1293.08C1295.02 780.395 1296.59 778.826 1296.59 776.891Z" fill="#F7F8FA"/>
<path opacity="0.8" d="M1307.61 779.649V692.316C1307.61 690.381 1306.04 688.812 1304.1 688.812H1304.1C1302.16 688.812 1300.6 690.381 1300.6 692.316V779.649C1300.6 781.584 1302.16 783.153 1304.1 783.153H1304.1C1306.04 783.153 1307.61 781.584 1307.61 779.649Z" fill="#F7F8FA"/>
<path opacity="0.8" d="M1285.57 797.204V709.871C1285.57 707.936 1284 706.367 1282.06 706.367H1282.06C1280.13 706.367 1278.56 707.936 1278.56 709.871V797.204C1278.56 799.139 1280.13 800.708 1282.06 800.708H1282.06C1284 800.708 1285.57 799.139 1285.57 797.204Z" fill="#F7F8FA"/>
<path opacity="0.8" d="M1335.67 803.603V716.269C1335.67 714.334 1334.1 712.766 1332.16 712.766H1332.16C1330.22 712.766 1328.66 714.334 1328.66 716.269V803.603C1328.66 805.538 1330.22 807.106 1332.16 807.106H1332.16C1334.1 807.106 1335.67 805.538 1335.67 803.603Z" fill="#F7F8FA"/>
</g>
<g opacity="0.48">
<path opacity="0.48" d="M499.839 733.538C444.798 730.476 389.768 726.775 334.64 728.735C297.435 730.057 260.197 734.09 224.009 743.038C205.672 747.544 187.697 753.412 170.233 760.593C155.318 766.753 139.353 773.363 127.272 784.352C121.828 789.311 117.638 795.181 115.058 802.088C114.67 803.128 116.336 803.577 116.731 802.546C123.337 784.847 141.19 775.591 157.343 768.099C174.501 760.177 192.249 753.602 210.426 748.432C246.942 737.978 284.779 732.928 322.653 730.967C381.73 727.906 440.779 731.971 499.789 735.244C499.857 734.678 499.874 734.107 499.839 733.538Z" fill="#F7F8FA"/>
<path opacity="0.48" d="M1197 514.584C1170.19 534.181 1142.85 553.121 1114.21 569.98C1087.31 585.812 1059.42 599.886 1031.55 613.944C998.27 630.743 964.726 647 930.593 661.878C930.882 662.476 931.089 663.111 931.205 663.765C957.243 652.454 982.933 640.307 1008.29 627.591C1038.23 612.593 1068.3 597.728 1097.58 581.461C1124.32 566.604 1150.04 550.086 1175.04 532.471C1182.71 527.076 1190.32 521.611 1197.87 516.073C1198.76 515.428 1197.9 513.928 1197 514.584Z" fill="#F7F8FA"/>
<path opacity="0.48" d="M1395.36 337.205C1390.78 341.196 1386.24 345.211 1381.71 349.252C1377.26 353.223 1372.83 357.217 1368.42 361.235C1365.96 363.466 1363.52 365.697 1361.09 367.928C1360.27 368.681 1361.49 369.899 1362.31 369.149C1366.65 365.158 1371.01 361.186 1375.39 357.233C1379.85 353.204 1384.34 349.196 1388.84 345.209C1391.41 342.934 1393.99 340.667 1396.57 338.409C1396.73 338.247 1396.82 338.028 1396.82 337.8C1396.82 337.572 1396.73 337.354 1396.57 337.191C1396.41 337.034 1396.19 336.945 1395.96 336.945C1395.74 336.945 1395.52 337.034 1395.36 337.191V337.205Z" fill="#F7F8FA"/>
</g>
<defs>
<linearGradient id="paint0_linear_2405_87224" x1="1398" y1="517.999" x2="1398" y2="704.999" gradientUnits="userSpaceOnUse">
<stop stop-color="#438A62"/>
<stop offset="1" stop-color="#73BC78"/>
</linearGradient>
<linearGradient id="paint1_linear_2405_87224" x1="1326.5" y1="145" x2="1416.78" y2="188.46" gradientUnits="userSpaceOnUse">
<stop stop-color="#E283AE"/>
<stop offset="1" stop-color="#D94841"/>
</linearGradient>
<linearGradient id="paint2_linear_2405_87224" x1="1357" y1="60" x2="1357" y2="451.5" gradientUnits="userSpaceOnUse">
<stop stop-color="#D94841"/>
<stop offset="1" stop-color="#E283AE"/>
</linearGradient>
<linearGradient id="paint3_linear_2405_87224" x1="422.498" y1="707.998" x2="669.912" y2="1019.24" gradientUnits="userSpaceOnUse">
<stop stop-color="#E283AE"/>
<stop offset="1" stop-color="#D94841"/>
</linearGradient>
<clipPath id="clip0_2405_87224">
<rect width="1492" height="441" fill="white" transform="translate(0 358)"/>
</clipPath>
</defs>
</svg>
