<svg width="60" height="523" viewBox="0 0 60 523" fill="none" xmlns="http://www.w3.org/2000/svg">
<path d="M44.0234 472.006L32.0234 471.989C25.396 471.98 20.0309 466.6 20.04 459.973L20.2525 305.973" stroke="#EBEEF2" stroke-width="3"/>
<path d="M44.6632 352.888L32.6636 352.991C26.0364 353.048 20.6181 347.721 20.5614 341.094L19.2781 191.1" stroke="#EBEEF2" stroke-width="3"/>
<path d="M44.0707 233.066H31.5703C24.9429 233.066 19.5703 227.694 19.5703 221.066V208.066" stroke="#EBEEF2" stroke-width="3"/>
<path d="M20.431 299.927L20.1217 264.51L17.9793 19.0192C17.9215 12.3921 23.2469 6.97282 29.8741 6.91499L35.3516 6.86719" stroke="#EBEEF2" stroke-width="3"/>
<circle r="6" transform="matrix(0.999984 0.0056173 0.0056173 -0.999984 39.6742 470.713)" fill="#DCDEE4"/>
<circle r="6" transform="matrix(0.999984 0.0056173 0.0056173 -0.999984 39.518 352.713)" fill="#DCDEE4"/>
<circle r="6" transform="matrix(0.999984 0.0056173 0.0056173 -0.999984 40.0336 232.713)" fill="#DCDEE4"/>
<circle r="6" transform="matrix(0.999984 0.0056173 0.0056173 -0.999984 40.0336 6.71349)" fill="#DCDEE4"/>
</svg>
