<svg width="167" height="211" viewBox="0 0 167 211" fill="none" xmlns="http://www.w3.org/2000/svg">
<path d="M22.4116 209.504C22.1332 210.284 21.2749 210.691 20.4947 210.412L7.78005 205.875C6.99981 205.596 6.59302 204.738 6.87145 203.958C7.14989 203.178 8.00811 202.771 8.78834 203.049L20.0903 207.083L24.1234 195.781C24.4019 195 25.2601 194.594 26.0403 194.872C26.8206 195.15 27.2274 196.009 26.9489 196.789L22.4116 209.504ZM70 5.99951L70.3731 7.45236L70 5.99951ZM166.491 26.782C167.014 27.4242 166.918 28.3691 166.276 28.8924C165.633 29.4156 164.689 29.3192 164.165 28.6769L166.491 26.782ZM19.6434 209.642C-1.01402 166.06 -3.37412 118.692 6.79585 80.2971C16.948 41.9699 39.7111 12.2301 69.6269 4.54666L70.3731 7.45236C41.9464 14.7533 19.7088 43.2636 9.69584 81.0653C-0.299229 118.8 2.01133 165.439 22.3543 208.357L19.6434 209.642ZM69.6269 4.54666C102.082 -3.78897 126.273 1.69219 142.378 9.32658C150.419 13.1379 156.425 17.4764 160.43 20.8716C162.433 22.5695 163.936 24.0327 164.945 25.0783C165.449 25.6011 165.829 26.0197 166.087 26.3112C166.216 26.4569 166.314 26.571 166.381 26.6504C166.415 26.6901 166.441 26.7211 166.459 26.7432C166.468 26.7542 166.475 26.763 166.481 26.7695C166.483 26.7727 166.486 26.7754 166.487 26.7775C166.488 26.7785 166.489 26.7797 166.49 26.7802C166.49 26.7812 166.491 26.782 165.328 27.7295C164.165 28.6769 164.166 28.6775 164.166 28.6779C164.166 28.6778 164.166 28.6781 164.166 28.678C164.166 28.6777 164.165 28.6769 164.164 28.6755C164.162 28.6728 164.158 28.6677 164.152 28.6605C164.14 28.6459 164.12 28.6224 164.093 28.5903C164.038 28.5261 163.954 28.4275 163.839 28.2974C163.609 28.0372 163.258 27.6508 162.785 27.1608C161.84 26.1808 160.409 24.7872 158.49 23.1599C154.651 19.9047 148.861 15.7194 141.093 12.0374C125.583 4.68521 102.109 -0.698614 70.3731 7.45236L69.6269 4.54666Z" fill="#BBDCAF"/>
</svg>
