<svg width="48" height="48" viewBox="0 0 48 48" fill="none" xmlns="http://www.w3.org/2000/svg">
<rect width="48" height="48" rx="8" fill="#83BF6E"/>
<path fill-rule="evenodd" clip-rule="evenodd" d="M23.9377 16.4651C19.0084 16.4651 15.0074 20.4661 15.0074 25.3953C15.0074 30.3246 19.0084 34.3256 23.9377 34.3256C28.8669 34.3256 32.8679 30.3246 32.8679 25.3953C32.8679 20.4661 28.8669 16.4651 23.9377 16.4651ZM13.333 25.3953C13.333 19.5413 18.0837 14.7907 23.9377 14.7907C29.7917 14.7907 34.5423 19.5413 34.5423 25.3953C34.5423 31.2494 29.7917 36 23.9377 36C18.0837 36 13.333 31.2494 13.333 25.3953Z" fill="white"/>
<path fill-rule="evenodd" clip-rule="evenodd" d="M23.9377 18.6977C24.4 18.6977 24.7749 19.0725 24.7749 19.5349V25.1163C24.7749 25.5787 24.4 25.9535 23.9377 25.9535C23.4753 25.9535 23.1004 25.5787 23.1004 25.1163V19.5349C23.1004 19.0725 23.4753 18.6977 23.9377 18.6977Z" fill="white"/>
<path fill-rule="evenodd" clip-rule="evenodd" d="M19.7516 12.8372C19.7516 12.3748 20.1264 12 20.5888 12H27.2865C27.7489 12 28.1237 12.3748 28.1237 12.8372C28.1237 13.2996 27.7489 13.6744 27.2865 13.6744H20.5888C20.1264 13.6744 19.7516 13.2996 19.7516 12.8372Z" fill="white"/>
</svg>
