<svg width="318" height="208" viewBox="0 0 318 208" fill="none" xmlns="http://www.w3.org/2000/svg">
<g filter="url(#filter0_d_2654_119506)">
<rect x="59" y="44" width="198" height="88" rx="8" fill="white"/>
<rect x="75.5" y="60.5" width="71" height="55" rx="7.5" fill="#FBEDF0" stroke="#E79CAD"/>
<rect x="169.5" y="60.5" width="71" height="55" rx="7.5" fill="#FBEDF0" stroke="#E79CAD"/>
<path d="M103.213 87.024C103.213 84.256 103.677 82.096 104.605 80.544C105.549 78.976 107.165 78.192 109.453 78.192C111.741 78.192 113.349 78.976 114.277 80.544C115.221 82.096 115.693 84.256 115.693 87.024C115.693 89.824 115.221 92.016 114.277 93.6C113.349 95.168 111.741 95.952 109.453 95.952C107.165 95.952 105.549 95.168 104.605 93.6C103.677 92.016 103.213 89.824 103.213 87.024ZM113.005 87.024C113.005 85.728 112.917 84.632 112.741 83.736C112.581 82.84 112.245 82.112 111.733 81.552C111.221 80.976 110.461 80.688 109.453 80.688C108.445 80.688 107.685 80.976 107.173 81.552C106.661 82.112 106.317 82.84 106.141 83.736C105.981 84.632 105.901 85.728 105.901 87.024C105.901 88.368 105.981 89.496 106.141 90.408C106.301 91.32 106.637 92.056 107.149 92.616C107.677 93.176 108.445 93.456 109.453 93.456C110.461 93.456 111.221 93.176 111.733 92.616C112.261 92.056 112.605 91.32 112.765 90.408C112.925 89.496 113.005 88.368 113.005 87.024ZM120.1 92.28C121.636 90.952 122.844 89.864 123.724 89.016C124.62 88.152 125.364 87.256 125.956 86.328C126.548 85.4 126.844 84.472 126.844 83.544C126.844 82.584 126.612 81.832 126.148 81.288C125.7 80.744 124.988 80.472 124.012 80.472C123.068 80.472 122.332 80.776 121.804 81.384C121.292 81.976 121.02 82.776 120.988 83.784H118.348C118.396 81.96 118.94 80.568 119.98 79.608C121.036 78.632 122.372 78.144 123.988 78.144C125.732 78.144 127.092 78.624 128.068 79.584C129.06 80.544 129.556 81.824 129.556 83.424C129.556 84.576 129.26 85.688 128.668 86.76C128.092 87.816 127.396 88.768 126.58 89.616C125.78 90.448 124.756 91.416 123.508 92.52L122.428 93.48H130.036V95.76H118.372V93.768L120.1 92.28Z" fill="#D34B6A"/>
<path d="M158.021 96.168C157.525 96.168 157.109 96 156.773 95.664C156.437 95.328 156.269 94.912 156.269 94.416C156.269 93.92 156.437 93.504 156.773 93.168C157.109 92.832 157.525 92.664 158.021 92.664C158.501 92.664 158.909 92.832 159.245 93.168C159.581 93.504 159.749 93.92 159.749 94.416C159.749 94.912 159.581 95.328 159.245 95.664C158.909 96 158.501 96.168 158.021 96.168ZM158.021 86.088C157.525 86.088 157.109 85.92 156.773 85.584C156.437 85.248 156.269 84.832 156.269 84.336C156.269 83.84 156.437 83.424 156.773 83.088C157.109 82.752 157.525 82.584 158.021 82.584C158.501 82.584 158.909 82.752 159.245 83.088C159.581 83.424 159.749 83.84 159.749 84.336C159.749 84.832 159.581 85.248 159.245 85.584C158.909 85.92 158.501 86.088 158.021 86.088Z" fill="#969DB3"/>
<path d="M202.385 81V78.504H207.377V96H204.617V81H202.385ZM214.087 86.856C212.423 86.024 211.591 84.712 211.591 82.92C211.591 82.056 211.807 81.264 212.239 80.544C212.671 79.824 213.319 79.256 214.183 78.84C215.047 78.408 216.103 78.192 217.351 78.192C218.583 78.192 219.631 78.408 220.495 78.84C221.375 79.256 222.031 79.824 222.463 80.544C222.895 81.264 223.111 82.056 223.111 82.92C223.111 83.816 222.879 84.608 222.415 85.296C221.967 85.968 221.367 86.488 220.615 86.856C221.527 87.192 222.247 87.744 222.775 88.512C223.303 89.264 223.567 90.152 223.567 91.176C223.567 92.216 223.303 93.136 222.775 93.936C222.247 94.736 221.511 95.352 220.567 95.784C219.623 96.216 218.551 96.432 217.351 96.432C216.151 96.432 215.079 96.216 214.135 95.784C213.207 95.352 212.479 94.736 211.951 93.936C211.423 93.136 211.159 92.216 211.159 91.176C211.159 90.136 211.423 89.24 211.951 88.488C212.479 87.736 213.191 87.192 214.087 86.856ZM220.495 83.256C220.495 82.36 220.215 81.672 219.655 81.192C219.095 80.712 218.327 80.472 217.351 80.472C216.391 80.472 215.631 80.712 215.071 81.192C214.511 81.672 214.231 82.368 214.231 83.28C214.231 84.08 214.519 84.736 215.095 85.248C215.687 85.744 216.439 85.992 217.351 85.992C218.263 85.992 219.015 85.736 219.607 85.224C220.199 84.712 220.495 84.056 220.495 83.256ZM217.351 88.056C216.295 88.056 215.431 88.32 214.759 88.848C214.103 89.36 213.775 90.104 213.775 91.08C213.775 91.992 214.095 92.736 214.735 93.312C215.375 93.872 216.247 94.152 217.351 94.152C218.439 94.152 219.295 93.864 219.919 93.288C220.559 92.712 220.879 91.976 220.879 91.08C220.879 90.12 220.551 89.376 219.895 88.848C219.255 88.32 218.407 88.056 217.351 88.056Z" fill="#D34B6A"/>
</g>
<defs>
<filter id="filter0_d_2654_119506" x="0" y="0" width="318" height="208" filterUnits="userSpaceOnUse" color-interpolation-filters="sRGB">
<feFlood flood-opacity="0" result="BackgroundImageFix"/>
<feColorMatrix in="SourceAlpha" type="matrix" values="0 0 0 0 0 0 0 0 0 0 0 0 0 0 0 0 0 0 127 0" result="hardAlpha"/>
<feOffset dx="1" dy="16"/>
<feGaussianBlur stdDeviation="30"/>
<feComposite in2="hardAlpha" operator="out"/>
<feColorMatrix type="matrix" values="0 0 0 0 0.575 0 0 0 0 0.606167 0 0 0 0 0.716667 0 0 0 0.12 0"/>
<feBlend mode="normal" in2="BackgroundImageFix" result="effect1_dropShadow_2654_119506"/>
<feBlend mode="normal" in="SourceGraphic" in2="effect1_dropShadow_2654_119506" result="shape"/>
</filter>
</defs>
</svg>
