<svg width="1920" height="503" viewBox="0 0 1920 503" fill="none" xmlns="http://www.w3.org/2000/svg">
<path d="M1966 34.7049C1981.6 200.869 1954.5 423.54 1814 229.123C1673.5 34.7049 1766.97 291.496 1673.5 347.073C1556.67 416.543 1554.2 14.2134 1401.87 2.21849C1249.54 -9.77644 1367.37 476.018 1254.97 499.008C1142.57 521.999 1068.13 137.661 944.887 131.164C821.643 124.667 880.8 453.528 712.696 422.541C544.592 391.554 663.083 49.2374 461.773 34.7049C265 20.5 243.5 620.601 131 363C18.5 105.399 -19.5 438 -19.5 438" stroke="#EDF3FE" stroke-width="4"/>
<path d="M239.098 369.553C239.283 366.305 236.801 363.521 233.553 363.336C230.306 363.15 227.522 365.632 227.336 368.88C227.151 372.129 229.633 374.912 232.881 375.098C236.128 375.284 238.912 372.801 239.098 369.553Z" fill="#F2A84C"/>
<path d="M246.098 352.553C246.283 349.305 243.801 346.522 240.553 346.336C237.306 346.15 234.522 348.633 234.336 351.881C234.151 355.129 236.633 357.912 239.881 358.098C243.128 358.284 245.912 355.801 246.098 352.553Z" fill="#F2A84C"/>
<path d="M266.098 303.553C266.283 300.305 263.801 297.522 260.553 297.336C257.306 297.15 254.522 299.633 254.336 302.881C254.151 306.129 256.633 308.912 259.881 309.098C263.128 309.284 265.912 306.801 266.098 303.553Z" fill="#F2A84C"/>
</svg>
