<svg width="1600" height="1270" viewBox="0 0 1600 1270" fill="none" xmlns="http://www.w3.org/2000/svg">
<path d="M1612 1C1551.5 306 1554.07 417.461 1452 449C1274 504 1348.5 718.835 1186.5 710.835C1024.5 702.835 584.493 650.059 512 711C318.5 873.665 116.934 632.5 210 632.5C289.5 632.5 105.5 839 -127 775.335" stroke="#EBEEF2" stroke-width="3"/>
<path d="M1647.5 303.35C1540.5 300.016 1468.19 387.816 1436.5 489.841C1391 636.336 1241 644.339 1079 636.339C917 628.339 635.868 629.884 629 724.339C615.5 910 656.5 982.161 422 855.5C375.341 830.298 23.5 839.839 -19.5 1269.84" stroke="#EBEEF2" stroke-width="3"/>
</svg>
