<svg width="375" height="915" viewBox="0 0 375 915" fill="none" xmlns="http://www.w3.org/2000/svg">
<path d="M381.5 914.5C384.827 791.257 39.7963 798.8 55.6631 630.696C71.5299 462.592 258 463.228 258 333C258 193.728 -3.99971 162 -3.99991 78" stroke="#EDF3FE" stroke-width="4"/>
<path d="M27.0811 6.5565C27.2667 3.3068 24.7878 0.52174 21.5444 0.335889C18.3011 0.150039 15.5214 2.63378 15.3359 5.88348C15.1504 9.13318 17.6293 11.9182 20.8726 12.1041C24.116 12.2899 26.8956 9.8062 27.0811 6.5565Z" fill="#F2A84C"/>
<path d="M317.66 833.012C317.845 829.762 315.366 826.977 312.123 826.791C308.88 826.605 306.1 829.089 305.915 832.339C305.729 835.588 308.208 838.373 311.451 838.559C314.695 838.745 317.474 836.261 317.66 833.012Z" fill="#F2A84C"/>
<path d="M340.629 845.019C340.814 841.77 338.335 838.984 335.092 838.799C331.848 838.613 329.069 841.097 328.883 844.346C328.698 847.596 331.177 850.381 334.42 850.567C337.663 850.753 340.443 848.269 340.629 845.019Z" fill="#F2A84C"/>
</svg>
