<svg width="578" height="358" viewBox="0 0 578 358" fill="none" xmlns="http://www.w3.org/2000/svg">
<path d="M309.775 200.014C307.465 200.014 306.022 197.514 307.176 195.514L316.838 178.78C317.992 176.78 320.879 176.78 322.034 178.78L331.695 195.514C332.85 197.514 331.406 200.014 329.097 200.014L309.775 200.014Z" fill="#FCF1ED"/>
<path d="M141 1C263.333 24 477.598 -2.88127 500.5 154.5C520 288.5 602.5 379.5 659.5 352" stroke="#EBEEF2" stroke-width="2"/>
<path d="M0 37.9957C169.5 37.9953 488 -14.5027 537.5 144.5C580.526 282.707 700.5 320.5 757.5 293" stroke="#EBEEF2" stroke-width="3"/>
<path d="M514.823 201.175C515.012 197.867 512.484 195.032 509.175 194.843C505.867 194.653 503.032 197.182 502.843 200.49C502.653 203.799 505.182 206.634 508.49 206.823C511.799 207.012 514.634 204.484 514.823 201.175Z" fill="#EBEEF2"/>
<path d="M521.823 218.175C522.012 214.867 519.484 212.032 516.175 211.843C512.867 211.653 510.032 214.182 509.843 217.49C509.653 220.799 512.182 223.634 515.49 223.823C518.799 224.012 521.634 221.484 521.823 218.175Z" fill="#EBEEF2"/>
<path d="M525.877 105.287C526.098 101.428 523.148 98.1199 519.288 97.8991C515.428 97.6784 512.12 100.628 511.9 104.488C511.679 108.348 514.629 111.656 518.489 111.876C522.348 112.097 525.656 109.147 525.877 105.287Z" fill="#EBEEF2"/>
</svg>
