<svg width="1920" height="1428" viewBox="0 0 1920 1428" fill="none" xmlns="http://www.w3.org/2000/svg">
<path d="M1953 1C1892.5 306 1714.07 476.461 1612 508C1434 563 1508.5 777.835 1346.5 769.835C1184.5 761.835 744.493 709.059 672 770C478.5 932.665 276.934 691.5 370 691.5C449.5 691.5 265.5 898 33 834.335" stroke="#EBEEF2" stroke-width="3"/>
<path d="M2035 357.999C1700.5 260.999 1628.19 446.816 1596.5 548.84C1551 695.336 1401 703.339 1239 695.339C1077 687.339 795.868 688.883 789 783.339C775.5 969 816.5 1041.16 582 914.499C535.341 889.297 113 1050.18 140.5 1328.84C168 1607.5 -188.333 1208.5 -252.5 1087" stroke="#EBEEF2" stroke-width="3"/>
</svg>
