<svg width="823" height="202" viewBox="0 0 823 202" fill="none" xmlns="http://www.w3.org/2000/svg">
<path d="M22.4294 192.95C94.8594 184.4 254.673 217.963 340.091 133.44C407.451 66.7879 479.883 60.9475 524.67 80.9329C617.726 122.458 714.662 36.4845 822.242 29.6472" stroke="#EBEEF2" stroke-width="2"/>
<path d="M-9.52108 114.689C62.9089 106.138 195.439 205.431 291.046 132.631C354.376 84.4079 402.796 62.2304 457.362 80.0391C554.234 111.656 714.592 16.4897 822.172 9.65239" stroke="#DCDEE4" stroke-width="3"/>
<circle cx="200.639" cy="158.943" r="6.5" transform="rotate(179.796 200.639 158.943)" fill="#DCDEE4" stroke="#DCDEE4"/>
<circle cx="268.596" cy="146.701" r="6.5" transform="rotate(179.796 268.596 146.701)" fill="#DCDEE4" stroke="#DCDEE4"/>
<circle cx="627.381" cy="86.4273" r="6.5" transform="rotate(179.796 627.381 86.4273)" fill="#EBEEF2" stroke="#EBEEF2"/>
</svg>
