<svg width="2560" height="959" viewBox="0 0 2560 959" fill="none" xmlns="http://www.w3.org/2000/svg">
<path d="M2596 336.001C2375.5 407.412 2059.56 -46.7624 1916.5 413.842C1871 560.337 1721 568.34 1559 560.34C1429.5 547.28 1163.4 510.427 1135 467.5C1062 539.167 956.706 485.036 844 523C701.5 571 593.867 576.61 510.5 674.5C355.5 856.5 13.5 718.5 -23 607" stroke="#EBEEF2" stroke-width="3"/>
<path d="M2777 72.9999C2303.9 -189.835 2233 358.5 1932 372.999C1745.91 381.963 1828.5 642.834 1666.5 634.834C1524.83 535.055 1203.4 342.998 1051 372.999C860.5 410.5 501.615 491.5 512.5 696.5C523.385 901.5 390.5 899.5 259.5 848.5C128.5 797.5 -50 875 -56 958.5" stroke="#EBEEF2" stroke-width="3"/>
<path d="M2012.38 248.787C2012.6 244.928 2009.65 241.62 2005.79 241.399C2001.93 241.178 1998.62 244.128 1998.4 247.988C1998.18 251.848 2001.13 255.156 2004.99 255.376C2008.85 255.597 2012.16 252.647 2012.38 248.787Z" fill="#EBEEF2"/>
<path d="M1985.38 281.787C1985.6 277.928 1982.65 274.62 1978.79 274.399C1974.93 274.178 1971.62 277.128 1971.4 280.988C1971.18 284.848 1974.13 288.156 1977.99 288.376C1981.85 288.597 1985.16 285.647 1985.38 281.787Z" fill="#EBEEF2"/>
<path d="M497.377 823.787C497.598 819.928 494.648 816.62 490.788 816.399C486.928 816.178 483.62 819.128 483.4 822.988C483.179 826.848 486.129 830.156 489.989 830.376C493.848 830.597 497.156 827.647 497.377 823.787Z" fill="#EBEEF2"/>
</svg>
