<svg width="72" height="72" viewBox="0 0 72 72" fill="none" xmlns="http://www.w3.org/2000/svg">
<rect width="72" height="72" rx="12" fill="#FCF1ED"/>
<path d="M38.0833 35.9997C39.2339 35.9997 40.1667 35.0669 40.1667 33.9163C40.1667 32.7657 39.2339 31.833 38.0833 31.833C36.9327 31.833 36 32.7657 36 33.9163C36 35.0669 36.9327 35.9997 38.0833 35.9997Z" fill="#FAA284"/>
<path d="M42.982 19.333H29.0154C22.9487 19.333 19.332 22.9497 19.332 29.0163V42.9663C19.332 49.0497 22.9487 52.6663 29.0154 52.6663H42.9654C49.032 52.6663 52.6487 49.0497 52.6487 42.983V29.0163C52.6654 22.9497 49.0487 19.333 42.982 19.333ZM42.482 38.4497C40.7654 40.1497 38.3154 40.683 36.1487 39.9997L34.382 41.7497C34.232 41.8997 33.9654 41.8997 33.7987 41.7497L32.182 40.133C31.9487 39.8997 31.5487 39.8997 31.2987 40.133C31.0487 40.3663 31.0654 40.7663 31.2987 41.0163L32.9154 42.633C33.082 42.7997 33.082 43.0663 32.9154 43.2163L32.232 43.8997C31.9487 44.1997 31.3987 44.383 30.9987 44.333L29.182 44.083C28.582 43.9997 28.032 43.433 27.932 42.833L27.682 41.0163C27.6154 40.6163 27.8154 40.0663 28.082 39.783L31.9987 35.8663C31.332 33.6997 31.8487 31.2497 33.5654 29.533C36.0154 27.083 40.0154 27.083 42.482 29.533C44.9487 31.983 44.9487 35.983 42.482 38.4497Z" fill="#E0704A"/>
</svg>
