<svg width="72" height="72" viewBox="0 0 72 72" fill="none" xmlns="http://www.w3.org/2000/svg">
<rect width="72" height="72" rx="12" fill="#F3F9F1"/>
<path d="M42.2987 19.333H29.6987C23.3987 19.333 21.832 21.0163 21.832 27.733V46.4997C21.832 50.933 24.2654 51.983 27.2154 48.8163L27.232 48.7997C28.5987 47.3497 30.682 47.4663 31.8654 49.0497L33.5487 51.2997C34.8987 53.083 37.082 53.083 38.432 51.2997L40.1154 49.0497C41.3154 47.4497 43.3987 47.333 44.7654 48.7997C47.732 51.9663 50.1487 50.9163 50.1487 46.483V27.733C50.1654 21.0163 48.5987 19.333 42.2987 19.333ZM40.9987 35.583H30.9987C30.3154 35.583 29.7487 35.0163 29.7487 34.333C29.7487 33.6497 30.3154 33.083 30.9987 33.083H40.9987C41.682 33.083 42.2487 33.6497 42.2487 34.333C42.2487 35.0163 41.682 35.583 40.9987 35.583ZM42.6654 28.9163H29.332C28.6487 28.9163 28.082 28.3497 28.082 27.6663C28.082 26.983 28.6487 26.4163 29.332 26.4163H42.6654C43.3487 26.4163 43.9154 26.983 43.9154 27.6663C43.9154 28.3497 43.3487 28.9163 42.6654 28.9163Z" fill="#83BF6E"/>
</svg>
