<svg width="72" height="72" viewBox="0 0 72 72" fill="none" xmlns="http://www.w3.org/2000/svg">
<rect width="72" height="72" rx="12" fill="#EDF3FE"/>
<path d="M45.9987 21H25.9987C22.3154 21 19.332 23.9667 19.332 27.6167V44.3833C19.332 48.0333 22.3154 51 25.9987 51H45.9987C49.682 51 52.6654 48.0333 52.6654 44.3833V27.6167C52.6654 23.9667 49.682 21 45.9987 21ZM30.1654 27.95C32.282 27.95 34.0154 29.6833 34.0154 31.8C34.0154 33.9167 32.282 35.65 30.1654 35.65C28.0487 35.65 26.3154 33.9167 26.3154 31.8C26.3154 29.6833 28.0487 27.95 30.1654 27.95ZM36.6154 43.7667C36.4654 43.9333 36.232 44.0333 35.9987 44.0333H24.332C24.0987 44.0333 23.8654 43.9333 23.7154 43.7667C23.5654 43.6 23.482 43.3667 23.4987 43.1333C23.782 40.3333 26.0154 38.1167 28.8154 37.85C29.6987 37.7667 30.6154 37.7667 31.4987 37.85C34.2987 38.1167 36.5487 40.3333 36.8154 43.1333C36.8487 43.3667 36.7654 43.6 36.6154 43.7667ZM47.6654 43.9167H44.332C43.6487 43.9167 43.082 43.35 43.082 42.6667C43.082 41.9833 43.6487 41.4167 44.332 41.4167H47.6654C48.3487 41.4167 48.9154 41.9833 48.9154 42.6667C48.9154 43.35 48.3487 43.9167 47.6654 43.9167ZM47.6654 37.25H40.9987C40.3154 37.25 39.7487 36.6833 39.7487 36C39.7487 35.3167 40.3154 34.75 40.9987 34.75H47.6654C48.3487 34.75 48.9154 35.3167 48.9154 36C48.9154 36.6833 48.3487 37.25 47.6654 37.25ZM47.6654 30.5833H39.332C38.6487 30.5833 38.082 30.0167 38.082 29.3333C38.082 28.65 38.6487 28.0833 39.332 28.0833H47.6654C48.3487 28.0833 48.9154 28.65 48.9154 29.3333C48.9154 30.0167 48.3487 30.5833 47.6654 30.5833Z" fill="#4A86F7"/>
</svg>
