<svg width="72" height="72" viewBox="0 0 72 72" fill="none" xmlns="http://www.w3.org/2000/svg">
<rect width="72" height="72" rx="12" fill="#F3F9F1"/>
<path d="M36.0008 23.75C28.0341 23.75 21.5508 30.2333 21.5508 38.2C21.5508 46.1667 28.0341 52.6667 36.0008 52.6667C43.9674 52.6667 50.4508 46.1833 50.4508 38.2167C50.4508 30.25 43.9674 23.75 36.0008 23.75ZM37.2508 37.6667C37.2508 38.35 36.6841 38.9167 36.0008 38.9167C35.3174 38.9167 34.7508 38.35 34.7508 37.6667V29.3333C34.7508 28.65 35.3174 28.0833 36.0008 28.0833C36.6841 28.0833 37.2508 28.65 37.2508 29.3333V37.6667Z" fill="#83BF6E"/>
<path d="M40.8177 21.7497H31.1844C30.5177 21.7497 29.9844 21.2163 29.9844 20.5497C29.9844 19.883 30.5177 19.333 31.1844 19.333H40.8177C41.4844 19.333 42.0177 19.8663 42.0177 20.533C42.0177 21.1997 41.4844 21.7497 40.8177 21.7497Z" fill="#83BF6E"/>
</svg>
