<svg width="72" height="72" viewBox="0 0 72 72" fill="none" xmlns="http://www.w3.org/2000/svg">
<rect width="72" height="72" rx="12" fill="#EDF3FE"/>
<path fill-rule="evenodd" clip-rule="evenodd" d="M26.0013 43.283V22.0163V20.583C26.0013 19.8997 25.2457 19.333 24.3346 19.333C23.4235 19.333 22.668 19.8997 22.668 20.583V51.4163C22.668 52.0997 23.4235 52.6663 24.3346 52.6663C25.2457 52.6663 26.0013 52.0997 26.0013 51.4163V43.283Z" fill="#2961CC"/>
<path d="M43.7112 34.4225L45.6936 36.3347C47.351 37.9491 47.9684 39.5008 47.4322 40.7391C46.896 41.9773 45.3199 42.667 42.98 42.667H26V22.667H42.98C45.3524 22.667 46.961 23.341 47.4809 24.5635C48.0172 25.8018 47.3835 27.3692 45.6936 28.9993L43.7437 30.8802C43.2075 31.3974 42.915 32.1027 42.9475 32.8081C42.9638 33.4507 43.24 34.0306 43.7112 34.4225Z" fill="#6E9EF9"/>
</svg>
