<svg width="72" height="72" viewBox="0 0 72 72" fill="none" xmlns="http://www.w3.org/2000/svg">
<rect width="72" height="72" rx="12" fill="#EEF8FE"/>
<path d="M46.7827 44.0497L47.4327 49.3163C47.5993 50.6997 46.116 51.6663 44.9327 50.9497L39.166 47.5163C38.766 47.283 38.666 46.783 38.8827 46.383C39.716 44.8497 40.166 43.1163 40.166 41.383C40.166 35.283 34.9327 30.3163 28.4993 30.3163C27.1827 30.3163 25.8993 30.5163 24.6993 30.9163C24.0827 31.1163 23.4827 30.5497 23.6327 29.9163C25.1493 23.8497 30.9827 19.333 37.9493 19.333C46.0827 19.333 52.666 25.483 52.666 33.0663C52.666 37.5663 50.3493 41.5497 46.7827 44.0497Z" fill="#84CAF4"/>
<path d="M37.6654 41.3831C37.6654 43.3664 36.932 45.1997 35.6987 46.6497C34.0487 48.6497 31.432 49.9331 28.4987 49.9331L24.1487 52.5164C23.4154 52.9664 22.482 52.3497 22.582 51.4997L22.9987 48.2164C20.7654 46.6664 19.332 44.1831 19.332 41.3831C19.332 38.4497 20.8987 35.8664 23.2987 34.3331C24.782 33.3664 26.5654 32.8164 28.4987 32.8164C33.5654 32.8164 37.6654 36.6497 37.6654 41.3831Z" fill="#ABDAF7"/>
</svg>
