<svg width="72" height="72" viewBox="0 0 72 72" fill="none" xmlns="http://www.w3.org/2000/svg">
<rect width="72" height="72" rx="12" fill="#EEF8FE"/>
<path d="M42.982 19.332H29.0154C22.9487 19.332 19.332 22.9487 19.332 29.0154V42.9654C19.332 49.0487 22.9487 52.6654 29.0154 52.6654H42.9654C49.032 52.6654 52.6487 49.0487 52.6487 42.982V29.0154C52.6654 22.9487 49.0487 19.332 42.982 19.332ZM43.9654 32.1654L34.5154 41.6154C34.282 41.8487 33.9654 41.982 33.632 41.982C33.2987 41.982 32.982 41.8487 32.7487 41.6154L28.032 36.8987C27.5487 36.4154 27.5487 35.6154 28.032 35.132C28.5154 34.6487 29.3154 34.6487 29.7987 35.132L33.632 38.9654L42.1987 30.3987C42.682 29.9154 43.482 29.9154 43.9654 30.3987C44.4487 30.882 44.4487 31.6654 43.9654 32.1654Z" fill="#57B6F0"/>
</svg>
