<svg width="72" height="72" viewBox="0 0 72 72" fill="none" xmlns="http://www.w3.org/2000/svg">
<rect width="72" height="72" rx="12" fill="#F3F9F1"/>
<path d="M42.982 19.333H29.0154C22.9487 19.333 19.332 22.9497 19.332 29.0163V42.9663C19.332 49.0497 22.9487 52.6663 29.0154 52.6663H42.9654C49.032 52.6663 52.6487 49.0497 52.6487 42.983V29.0163C52.6654 22.9497 49.0487 19.333 42.982 19.333ZM35.9987 46.4163C33.0154 46.4163 30.682 44.933 29.0987 43.4663V44.6497C29.0987 45.333 28.532 45.8997 27.8487 45.8997C27.1654 45.8997 26.5987 45.333 26.5987 44.6497V40.0663C26.5987 39.383 27.1654 38.8163 27.8487 38.8163H31.982C32.6654 38.8163 33.232 39.383 33.232 40.0663C33.232 40.7497 32.6654 41.3163 31.982 41.3163H30.482C31.7154 42.5497 33.632 43.9163 35.9987 43.9163C40.3654 43.9163 43.9154 40.3663 43.9154 35.9997C43.9154 35.3163 44.482 34.7497 45.1654 34.7497C45.8487 34.7497 46.4154 35.3163 46.4154 35.9997C46.4154 41.7497 41.7487 46.4163 35.9987 46.4163ZM46.4154 31.8997C46.4154 31.9497 46.4154 31.9997 46.4154 32.033C46.3987 32.2163 46.3487 32.383 46.2654 32.533C46.182 32.683 46.0654 32.8163 45.9154 32.933C45.7987 33.0163 45.6654 33.083 45.5154 33.133C45.3987 33.1663 45.282 33.183 45.1654 33.183H41.1154C40.432 33.183 39.8654 32.6163 39.8654 31.933C39.8654 31.2497 40.432 30.683 41.1154 30.683H42.4987C41.1654 29.4497 39.0154 28.083 36.032 28.083C31.6654 28.083 28.1154 31.633 28.1154 35.9997C28.1154 36.683 27.5487 37.2497 26.8654 37.2497C26.182 37.2497 25.582 36.683 25.582 35.9997C25.582 30.2497 30.2487 25.583 35.9987 25.583C39.582 25.583 42.2154 27.133 43.9154 28.6163V27.3497C43.9154 26.6663 44.482 26.0997 45.1654 26.0997C45.8487 26.0997 46.4154 26.6663 46.4154 27.3497V31.8997Z" fill="#83BF6E"/>
</svg>
