<svg width="72" height="72" viewBox="0 0 72 72" fill="none" xmlns="http://www.w3.org/2000/svg">
<rect width="72" height="72" rx="12" fill="#FCF1ED"/>
<path d="M52.2346 34.4497C52.1513 33.5997 51.4346 32.9663 50.5846 32.9663H38.0013C37.0846 32.9663 36.3346 33.7163 36.3346 34.633V37.483C36.3346 38.3997 37.0846 39.1497 38.0013 39.1497H45.518C45.3346 40.683 44.3346 42.9997 42.118 44.5497C40.7013 45.533 38.818 46.2164 36.3346 46.2164C36.218 46.2164 36.118 46.2163 36.0013 46.1997C31.7513 46.0663 28.1513 43.2164 26.8513 39.2997C26.5013 38.2497 26.3013 37.1497 26.3013 35.9997C26.3013 34.8497 26.5013 33.733 26.8346 32.6997C26.9346 32.3997 27.0513 32.0997 27.1846 31.7997C28.718 28.3497 32.068 25.9163 36.0013 25.7997C36.1013 25.783 36.218 25.783 36.3346 25.783C38.718 25.783 40.5013 26.5663 41.7513 27.433C42.4013 27.883 43.268 27.783 43.8346 27.233L46.1513 24.9663C46.8846 24.2497 46.818 23.033 45.9846 22.433C43.3346 20.483 40.1013 19.333 36.3346 19.333C36.218 19.333 36.118 19.333 36.0013 19.3497C29.618 19.4664 24.1346 23.1664 21.4513 28.5164C20.318 30.783 19.668 33.3163 19.668 35.9997C19.668 38.683 20.318 41.2163 21.4513 43.483H21.468C24.1513 48.833 29.6346 52.533 36.0013 52.6497C36.118 52.6663 36.218 52.6663 36.3346 52.6663C40.8346 52.6663 44.618 51.183 47.368 48.633C50.518 45.7163 52.3346 41.4497 52.3346 36.3663C52.3346 35.6497 52.3013 35.033 52.2346 34.4497Z" fill="#E0704A"/>
</svg>
