<svg width="72" height="72" viewBox="0 0 72 72" fill="none" xmlns="http://www.w3.org/2000/svg">
<rect width="72" height="72" rx="12" fill="#F3F9F1"/>
<path d="M35.9987 19.333C31.632 19.333 28.082 22.883 28.082 27.2497C28.082 31.533 31.432 34.9997 35.7987 35.1497C35.932 35.133 36.0654 35.133 36.1654 35.1497C36.1987 35.1497 36.2154 35.1497 36.2487 35.1497C36.2654 35.1497 36.2654 35.1497 36.282 35.1497C40.5487 34.9997 43.8987 31.533 43.9154 27.2497C43.9154 22.883 40.3654 19.333 35.9987 19.333Z" fill="#83BF6E"/>
<path d="M44.4656 39.6004C39.8156 36.5004 32.2323 36.5004 27.549 39.6004C25.4323 41.0004 24.2656 42.9171 24.2656 44.9671C24.2656 47.0171 25.4323 48.9171 27.5323 50.3171C29.8656 51.8837 32.9323 52.6671 35.999 52.6671C39.0656 52.6671 42.1323 51.8837 44.4656 50.3171C46.5656 48.9004 47.7323 47.0004 47.7323 44.9337C47.7156 42.9004 46.5656 40.9837 44.4656 39.6004ZM39.8823 43.6004L35.6823 47.8004C35.4823 48.0004 35.2156 48.1004 34.949 48.1004C34.6823 48.1004 34.4156 47.9837 34.2156 47.8004L32.1156 45.7004C31.7156 45.3004 31.7156 44.6337 32.1156 44.2337C32.5156 43.8337 33.1823 43.8337 33.5823 44.2337L34.949 45.6004L38.4156 42.1337C38.8156 41.7337 39.4823 41.7337 39.8823 42.1337C40.299 42.5337 40.299 43.2004 39.8823 43.6004Z" fill="#83BF6E"/>
</svg>
