<svg width="72" height="72" viewBox="0 0 72 72" fill="none" xmlns="http://www.w3.org/2000/svg">
<rect width="72" height="72" rx="12" fill="#EDF3FE"/>
<path d="M43.3987 21.167C40.382 21.167 37.682 22.6337 35.9987 24.8837C34.3154 22.6337 31.6154 21.167 28.5987 21.167C23.482 21.167 19.332 25.3337 19.332 30.4837C19.332 32.467 19.6487 34.3003 20.1987 36.0003C22.832 44.3337 30.9487 49.317 34.9654 50.6837C35.532 50.8837 36.4654 50.8837 37.032 50.6837C41.0487 49.317 49.1654 44.3337 51.7987 36.0003C52.3487 34.3003 52.6654 32.467 52.6654 30.4837C52.6654 25.3337 48.5154 21.167 43.3987 21.167Z" fill="#57B6F0"/>
</svg>
