<svg width="72" height="72" viewBox="0 0 72 72" fill="none" xmlns="http://www.w3.org/2000/svg">
<rect width="72" height="72" rx="12" fill="#F3F9F1"/>
<path d="M42.982 19.333H29.0154C22.9487 19.333 19.332 22.9497 19.332 29.0163V42.9663C19.332 49.0497 22.9487 52.6663 29.0154 52.6663H42.9654C49.032 52.6663 52.6487 49.0497 52.6487 42.983V29.0163C52.6654 22.9497 49.0487 19.333 42.982 19.333ZM30.1654 26.633C31.882 26.633 33.2987 28.033 33.2987 29.7663C33.2987 31.4997 31.8987 32.8997 30.1654 32.8997C28.432 32.8997 27.032 31.4663 27.032 29.7497C27.032 28.033 28.4487 26.633 30.1654 26.633ZM35.9987 47.7997C31.5154 47.7997 27.8654 44.1497 27.8654 39.6663C27.8654 38.4997 28.8154 37.533 29.982 37.533H41.982C43.1487 37.533 44.0987 38.483 44.0987 39.6663C44.132 44.1497 40.482 47.7997 35.9987 47.7997ZM41.832 32.8663C40.1154 32.8663 38.6987 31.4663 38.6987 29.733C38.6987 27.9997 40.0987 26.5997 41.832 26.5997C43.5654 26.5997 44.9654 27.9997 44.9654 29.733C44.9654 31.4663 43.5487 32.8663 41.832 32.8663Z" fill="#83BF6E"/>
</svg>
