<svg width="72" height="72" viewBox="0 0 72 72" fill="none" xmlns="http://www.w3.org/2000/svg">
<rect width="72" height="72" rx="12" fill="#FEF6ED"/>
<path d="M50.9154 22.883C50.432 22.183 49.8154 21.5663 49.1154 21.083C47.532 19.933 45.4654 19.333 42.982 19.333H29.0154C28.682 19.333 28.3487 19.3497 28.032 19.383C22.5654 19.733 19.332 23.283 19.332 29.0163V42.983C19.332 45.4663 19.932 47.533 21.082 49.1163C21.5654 49.8163 22.182 50.433 22.882 50.9163C24.2487 51.9163 25.982 52.4997 28.032 52.633C28.3487 52.6497 28.682 52.6663 29.0154 52.6663H42.982C49.0487 52.6663 52.6654 49.0497 52.6654 42.983V29.0163C52.6654 26.533 52.0654 24.4663 50.9154 22.883ZM34.982 42.4663H30.1987C29.5154 42.4663 28.9487 41.8997 28.9487 41.2163C28.9487 40.533 29.5154 39.9663 30.1987 39.9663H31.8654V29.183H27.582C27.3987 29.183 27.2487 29.333 27.2487 29.5163V30.8163C27.2487 31.4997 26.682 32.0497 25.9987 32.0497C25.3154 32.0497 24.7487 31.4997 24.7487 30.7997V29.4997C24.7487 27.933 26.0154 26.6663 27.582 26.6663H38.6487C40.2154 26.6663 41.482 27.933 41.482 29.4997V30.7997C41.482 31.483 40.9154 32.0497 40.232 32.0497C39.5487 32.0497 38.982 31.483 38.982 30.7997V29.4997C38.982 29.3163 38.832 29.1663 38.6487 29.1663H34.3654V39.9663H34.982C35.6654 39.9663 36.232 40.533 36.232 41.2163C36.232 41.8997 35.6654 42.4663 34.982 42.4663ZM47.2487 36.383C47.2487 37.0663 46.682 37.633 45.9987 37.633C45.3154 37.633 44.7487 37.0663 44.7487 36.383V35.833H42.1654V42.833H42.7487C43.432 42.833 43.9987 43.3997 43.9987 44.083C43.9987 44.7663 43.432 45.333 42.7487 45.333H39.082C38.3987 45.333 37.832 44.7663 37.832 44.083C37.832 43.3997 38.3987 42.833 39.082 42.833H39.6654V35.833H38.8654C38.182 35.833 37.6154 35.2663 37.6154 34.583C37.6154 33.8997 38.182 33.333 38.8654 33.333H44.8654C46.182 33.333 47.2487 34.3997 47.2487 35.7163V36.383Z" fill="#F2A84C"/>
</svg>
