<svg width="72" height="72" viewBox="0 0 72 72" fill="none" xmlns="http://www.w3.org/2000/svg">
<rect width="72" height="72" rx="12" fill="#FBEDF0"/>
<path d="M28.7516 50.8501C28.7016 50.8501 28.6349 50.8834 28.5849 50.8834C25.3516 49.2834 22.7182 46.6334 21.1016 43.4001C21.1016 43.3501 21.1349 43.2834 21.1349 43.2334C23.1682 43.8334 25.2682 44.2834 27.3516 44.6334C27.7182 46.7334 28.1516 48.8167 28.7516 50.8501Z" fill="#D34B6A"/>
<path d="M50.8984 43.4167C49.2484 46.7334 46.4984 49.4167 43.1484 51.0334C43.7818 48.9167 44.3151 46.7834 44.6651 44.6334C46.7651 44.2834 48.8318 43.8334 50.8651 43.2334C50.8484 43.3001 50.8984 43.3667 50.8984 43.4167Z" fill="#D34B6A"/>
<path d="M51.0318 28.8501C48.9318 28.2168 46.8151 27.7001 44.6651 27.3335C44.3151 25.1835 43.7984 23.0501 43.1484 20.9668C46.5984 22.6168 49.3818 25.4001 51.0318 28.8501Z" fill="#D34B6A"/>
<path d="M28.7521 21.1477C28.1521 23.181 27.7187 25.2477 27.3687 27.3477C25.2187 27.681 23.0854 28.2143 20.9688 28.8477C22.5854 25.4977 25.2687 22.7477 28.5854 21.0977C28.6354 21.0977 28.7021 21.1477 28.7521 21.1477Z" fill="#D34B6A"/>
<path d="M41.8169 26.983C37.9503 26.5497 34.0503 26.5497 30.1836 26.983C30.6003 24.6997 31.1336 22.4163 31.8836 20.2163C31.9169 20.083 31.9003 19.983 31.9169 19.8497C33.2336 19.533 34.5836 19.333 36.0003 19.333C37.4003 19.333 38.7669 19.533 40.0669 19.8497C40.0836 19.983 40.0836 20.083 40.1169 20.2163C40.8669 22.433 41.4003 24.6997 41.8169 26.983Z" fill="#D34B6A"/>
<path d="M26.982 41.8199C24.682 41.4032 22.4154 40.8699 20.2154 40.1199C20.082 40.0865 19.982 40.1032 19.8487 40.0865C19.532 38.7699 19.332 37.4199 19.332 36.0032C19.332 34.6032 19.532 33.2365 19.8487 31.9365C19.982 31.9199 20.082 31.9199 20.2154 31.8865C22.432 31.1532 24.682 30.6032 26.982 30.1865C26.5654 34.0532 26.5654 37.9532 26.982 41.8199Z" fill="#D34B6A"/>
<path d="M52.6656 36.0032C52.6656 37.4199 52.4656 38.7699 52.149 40.0865C52.0156 40.1032 51.9156 40.0865 51.7823 40.1199C49.5656 40.8532 47.299 41.4032 45.0156 41.8199C45.449 37.9532 45.449 34.0532 45.0156 30.1865C47.299 30.6032 49.5823 31.1365 51.7823 31.8865C51.9156 31.9199 52.0156 31.9365 52.149 31.9365C52.4656 33.2532 52.6656 34.6032 52.6656 36.0032Z" fill="#D34B6A"/>
<path d="M41.8169 45.0166C41.4003 47.3166 40.8669 49.5833 40.1169 51.7833C40.0836 51.9166 40.0836 52.0166 40.0669 52.1499C38.7669 52.4666 37.4003 52.6666 36.0003 52.6666C34.5836 52.6666 33.2336 52.4666 31.9169 52.1499C31.9003 52.0166 31.9169 51.9166 31.8836 51.7833C31.1503 49.5666 30.6003 47.3166 30.1836 45.0166C32.1169 45.2333 34.0503 45.3833 36.0003 45.3833C37.9503 45.3833 39.9003 45.2333 41.8169 45.0166Z" fill="#D34B6A"/>
<path d="M42.2709 42.2719C38.1024 42.7978 33.895 42.7978 29.7265 42.2719C29.2005 38.1034 29.2005 33.8959 29.7265 29.7275C33.895 29.2015 38.1024 29.2015 42.2709 29.7275C42.7968 33.8959 42.7968 38.1034 42.2709 42.2719Z" fill="#D34B6A"/>
</svg>
