<svg width="72" height="72" viewBox="0 0 72 72" fill="none" xmlns="http://www.w3.org/2000/svg">
<rect width="72" height="72" rx="12" fill="#EDF3FE"/>
<path d="M45.2177 28.9497C45.101 28.933 44.9844 28.933 44.8677 28.9497C42.2844 28.8663 40.2344 26.7497 40.2344 24.1497C40.2344 21.4997 42.3844 19.333 45.051 19.333C47.701 19.333 49.8677 21.483 49.8677 24.1497C49.851 26.7497 47.801 28.8663 45.2177 28.9497Z" fill="#6E9EF9"/>
<path d="M50.6513 40.4997C48.7846 41.7497 46.168 42.2164 43.7513 41.8997C44.3846 40.533 44.718 39.0164 44.7346 37.4164C44.7346 35.7497 44.368 34.1664 43.668 32.783C46.1346 32.4497 48.7513 32.9164 50.6346 34.1664C53.268 35.8997 53.268 38.7497 50.6513 40.4997Z" fill="#6E9EF9"/>
<path d="M26.7349 28.9497C26.8516 28.933 26.9682 28.933 27.0849 28.9497C29.6682 28.8663 31.7182 26.7497 31.7182 24.1497C31.7182 21.483 29.5682 19.333 26.9016 19.333C24.2516 19.333 22.1016 21.483 22.1016 24.1497C22.1016 26.7497 24.1516 28.8663 26.7349 28.9497Z" fill="#6E9EF9"/>
<path d="M26.9159 37.4167C26.9159 39.0333 27.2659 40.5667 27.8992 41.95C25.5492 42.2 23.0992 41.7 21.2992 40.5167C18.6659 38.7667 18.6659 35.9167 21.2992 34.1667C23.0826 32.9667 25.5992 32.4833 27.9659 32.75C27.2826 34.15 26.9159 35.7333 26.9159 37.4167Z" fill="#6E9EF9"/>
<path d="M36.2 42.45C36.0667 42.4333 35.9167 42.4333 35.7667 42.45C32.7 42.35 30.25 39.8333 30.25 36.7333C30.2667 33.5667 32.8167 31 36 31C39.1667 31 41.7333 33.5667 41.7333 36.7333C41.7167 39.8333 39.2833 42.35 36.2 42.45Z" fill="#4A86F7"/>
<path d="M30.782 45.9004C28.2654 47.5837 28.2654 50.3504 30.782 52.0171C33.6487 53.9337 38.3487 53.9337 41.2154 52.0171C43.732 50.3337 43.732 47.5671 41.2154 45.9004C38.3654 43.9837 33.6654 43.9837 30.782 45.9004Z" fill="#4A86F7"/>
</svg>
