<svg width="72" height="72" viewBox="0 0 72 72" fill="none" xmlns="http://www.w3.org/2000/svg">
<rect width="72" height="72" rx="12" fill="#EEF8FE"/>
<path d="M42.982 19.333H29.0154C22.9487 19.333 19.332 22.9497 19.332 29.0163V42.9663C19.332 49.0497 22.9487 52.6663 29.0154 52.6663H42.9654C49.032 52.6663 52.6487 49.0497 52.6487 42.983V29.0163C52.6654 22.9497 49.0487 19.333 42.982 19.333ZM28.782 25.1663C28.782 24.483 29.3487 23.9163 30.032 23.9163C30.7154 23.9163 31.282 24.483 31.282 25.1663V31.6663C31.282 32.3497 30.7154 32.9163 30.032 32.9163C29.3487 32.9163 28.782 32.3497 28.782 31.6663V25.1663ZM31.6384 43.4805C31.4303 43.5597 31.282 43.7529 31.282 43.9755V46.833C31.282 47.5163 30.7154 48.083 30.032 48.083C29.3487 48.083 28.782 47.5163 28.782 46.833V43.9755C28.782 43.7529 28.6337 43.5597 28.4257 43.4805C26.7115 42.8277 25.4987 41.1848 25.4987 39.2497C25.4987 36.7497 27.532 34.6997 30.032 34.6997C32.532 34.6997 34.582 36.733 34.582 39.2497C34.582 41.1849 33.3545 42.8278 31.6384 43.4805ZM43.2154 46.833C43.2154 47.5163 42.6487 48.083 41.9654 48.083C41.282 48.083 40.7154 47.5163 40.7154 46.833V40.333C40.7154 39.6497 41.282 39.083 41.9654 39.083C42.6487 39.083 43.2154 39.6497 43.2154 40.333V46.833ZM41.9654 37.283C39.4654 37.283 37.4154 35.2497 37.4154 32.733C37.4154 30.7978 38.6429 29.1549 40.359 28.5021C40.5671 28.423 40.7154 28.2298 40.7154 28.0072V25.1663C40.7154 24.483 41.282 23.9163 41.9654 23.9163C42.6487 23.9163 43.2154 24.483 43.2154 25.1663V28.0239C43.2154 28.2465 43.3637 28.4396 43.5717 28.5189C45.2859 29.1717 46.4987 30.8146 46.4987 32.7497C46.4987 35.2497 44.4654 37.283 41.9654 37.283Z" fill="#57B6F0"/>
</svg>
