<svg width="72" height="72" viewBox="0 0 72 72" fill="none" xmlns="http://www.w3.org/2000/svg">
<rect width="72" height="72" rx="12" fill="#EDF3FE"/>
<path d="M42.982 19.333H29.0154C22.9487 19.333 19.332 22.9497 19.332 29.0163V42.9663C19.332 49.0497 22.9487 52.6663 29.0154 52.6663H42.9654C49.032 52.6663 52.6487 49.0497 52.6487 42.983V29.0163C52.6654 22.9497 49.0487 19.333 42.982 19.333ZM43.282 40.383L39.582 44.083C38.682 44.983 37.5154 45.4163 36.3487 45.4163C35.182 45.4163 33.9987 44.9663 33.1154 44.083C31.332 42.2997 31.332 39.383 33.1154 37.5997L35.4654 35.2497C35.9487 34.7663 36.7487 34.7663 37.232 35.2497C37.7154 35.733 37.7154 36.533 37.232 37.0163L34.882 39.3663C34.0654 40.183 34.0654 41.4997 34.882 42.3163C35.6987 43.133 37.0154 43.133 37.832 42.3163L41.532 38.6163C42.5487 37.5997 43.1154 36.233 43.1154 34.783C43.1154 33.333 42.5487 31.983 41.532 30.9497C39.482 28.8997 35.9154 28.8997 33.8654 30.9497L29.8154 34.9997C28.082 36.733 28.082 39.5663 29.8154 41.3163C30.2987 41.7997 30.2987 42.5997 29.8154 43.083C29.332 43.5663 28.532 43.5663 28.0487 43.083C25.332 40.3663 25.332 35.9497 28.0487 33.233L32.082 29.1997C33.582 27.6997 35.5654 26.883 37.682 26.883C39.7987 26.883 41.782 27.6997 43.282 29.1997C44.782 30.6997 45.5987 32.683 45.5987 34.7997C45.5987 36.9163 44.782 38.8997 43.282 40.383Z" fill="#4A86F7"/>
</svg>
