<svg width="72" height="72" viewBox="0 0 72 72" fill="none" xmlns="http://www.w3.org/2000/svg">
<rect width="72" height="72" rx="12" fill="#FEF6ED"/>
<path d="M48.2326 40.1497L46.5659 37.383C46.2159 36.7663 45.8993 35.5997 45.8993 34.9163V30.6997C45.8993 26.783 43.5993 23.3997 40.2826 21.8163C39.4159 20.283 37.8159 19.333 35.9826 19.333C34.1659 19.333 32.5326 20.3163 31.6659 21.8663C28.4159 23.483 26.1659 26.833 26.1659 30.6997V34.9163C26.1659 35.5997 25.8493 36.7663 25.4993 37.3663L23.8159 40.1497C23.1493 41.2663 22.9993 42.4997 23.4159 43.633C23.8159 44.7497 24.7659 45.6163 25.9993 46.033C29.2326 47.133 32.6326 47.6663 36.0326 47.6663C39.4326 47.6663 42.8326 47.133 46.0659 46.0497C47.2326 45.6663 48.1326 44.783 48.5659 43.633C48.9993 42.483 48.8826 41.2163 48.2326 40.1497Z" fill="#E0704A"/>
<path d="M40.7174 49.3497C40.0174 51.283 38.1674 52.6663 36.0008 52.6663C34.6841 52.6663 33.3841 52.133 32.4674 51.183C31.9341 50.683 31.5341 50.0163 31.3008 49.333C31.5174 49.3663 31.7341 49.383 31.9674 49.4163C32.3508 49.4663 32.7508 49.5163 33.1508 49.5497C34.1008 49.633 35.0674 49.683 36.0341 49.683C36.9841 49.683 37.9341 49.633 38.8674 49.5497C39.2174 49.5163 39.5674 49.4997 39.9008 49.4497C40.1674 49.4163 40.4341 49.383 40.7174 49.3497Z" fill="#F2A84C"/>
</svg>
