<svg width="72" height="72" viewBox="0 0 72 72" fill="none" xmlns="http://www.w3.org/2000/svg">
<rect width="72" height="72" rx="12" fill="#FBEDF0"/>
<path d="M50.9193 22.8835C50.4359 22.1835 49.8193 21.5668 49.1193 21.0835C47.5359 19.9335 45.4693 19.3335 42.9859 19.3335H29.0193C28.6859 19.3335 28.3526 19.3502 28.0359 19.3835C22.5693 19.7335 19.3359 23.2835 19.3359 29.0168V42.9835C19.3359 45.4668 19.9359 47.5335 21.0859 49.1168C21.5693 49.8168 22.1859 50.4335 22.8859 50.9168C24.2526 51.9168 25.9859 52.5002 28.0359 52.6335C28.3526 52.6502 28.6859 52.6668 29.0193 52.6668H42.9859C49.0526 52.6668 52.6693 49.0502 52.6693 42.9835V29.0168C52.6693 26.5335 52.0693 24.4668 50.9193 22.8835ZM30.1026 33.8002L29.2859 32.9502C28.8526 32.5168 28.5026 31.7335 28.5026 31.2002V29.2002C28.5026 28.1502 29.2859 27.3668 30.2526 27.3668H33.8193C34.5026 27.3668 34.9193 28.1168 34.5526 28.7002L31.4693 33.6668C31.1693 34.1502 30.4859 34.2168 30.1026 33.8002ZM43.5026 31.0335C43.5026 31.7335 43.0693 32.6002 42.6359 33.0335L38.8859 36.3502C38.3693 36.7835 38.0193 37.6502 38.0193 38.3502V42.1002C38.0193 42.6168 37.6693 43.3168 37.2359 43.5835L36.0026 44.3668C34.8693 45.0668 33.3026 44.2835 33.3026 42.8835V38.2668C33.3026 37.6502 32.9526 36.8668 32.6026 36.4335L32.2026 36.0002C31.9359 35.7168 31.8859 35.2835 32.0859 34.9335L36.5526 27.7668C36.7193 27.5168 36.9859 27.3502 37.2859 27.3502H41.7526C42.7193 27.3502 43.5026 28.1335 43.5026 29.1002V31.0335V31.0335Z" fill="#D34B6A"/>
</svg>
