<svg width="72" height="72" viewBox="0 0 72 72" fill="none" xmlns="http://www.w3.org/2000/svg">
<rect width="72" height="72" rx="12" fill="#EDF3FE"/>
<path d="M52.6167 19.8832C51.4167 18.5165 49.6333 17.6665 47.6667 17.6665C45.8 17.6665 44.1 18.4332 42.8833 19.6832C42.1833 20.3998 41.65 21.2665 41.3333 22.2332C41.1167 22.8998 41 23.5998 41 24.3332C41 25.5832 41.35 26.7665 41.9667 27.7665C42.3 28.3332 42.7333 28.8498 43.2333 29.2832C44.4 30.3498 45.95 30.9998 47.6667 30.9998C48.4 30.9998 49.1 30.8832 49.75 30.6498C51.2833 30.1665 52.5667 29.1165 53.3667 27.7665C53.7167 27.1998 53.9833 26.5498 54.1333 25.8832C54.2667 25.3832 54.3333 24.8665 54.3333 24.3332C54.3333 22.6332 53.6833 21.0665 52.6167 19.8832ZM50.15 25.5498H48.9167V26.8498C48.9167 27.5332 48.35 28.0998 47.6667 28.0998C46.9833 28.0998 46.4167 27.5332 46.4167 26.8498V25.5498H45.1833C44.5 25.5498 43.9333 24.9832 43.9333 24.2998C43.9333 23.6165 44.5 23.0498 45.1833 23.0498H46.4167V21.8665C46.4167 21.1832 46.9833 20.6165 47.6667 20.6165C48.35 20.6165 48.9167 21.1832 48.9167 21.8665V23.0498H50.15C50.8333 23.0498 51.4 23.6165 51.4 24.2998C51.4 24.9832 50.85 25.5498 50.15 25.5498Z" fill="#4A86F7"/>
<path d="M52.6693 36.0002C52.6693 33.8168 52.2526 31.7168 51.4693 29.8002C50.9526 30.1668 50.3693 30.4502 49.7526 30.6502C49.5693 30.7168 49.3859 30.7668 49.1859 30.8168C49.8193 32.4168 50.1693 34.1668 50.1693 36.0002C50.1693 39.8668 48.6026 43.3835 46.0693 45.9502C45.5859 45.3335 44.9693 44.7668 44.2359 44.2835C39.7193 41.2502 32.3193 41.2502 27.7693 44.2835C27.0359 44.7668 26.4359 45.3335 25.9359 45.9502C23.4026 43.3835 21.8359 39.8668 21.8359 36.0002C21.8359 28.1835 28.1859 21.8335 36.0026 21.8335C37.8193 21.8335 39.5693 22.1835 41.1693 22.8168C41.2193 22.6168 41.2693 22.4335 41.3359 22.2335C41.5359 21.6168 41.8193 21.0502 42.2026 20.5335C40.2859 19.7502 38.1859 19.3335 36.0026 19.3335C26.8193 19.3335 19.3359 26.8168 19.3359 36.0002C19.3359 40.8335 21.4193 45.1835 24.7193 48.2335C24.7193 48.2502 24.7193 48.2502 24.7026 48.2668C24.8693 48.4335 25.0693 48.5668 25.2359 48.7168C25.3359 48.8002 25.4193 48.8835 25.5193 48.9502C25.8193 49.2002 26.1526 49.4335 26.4693 49.6668C26.5859 49.7502 26.6859 49.8168 26.8026 49.9002C27.1193 50.1168 27.4526 50.3168 27.8026 50.5002C27.9193 50.5668 28.0526 50.6502 28.1693 50.7168C28.5026 50.9002 28.8526 51.0668 29.2193 51.2168C29.3526 51.2835 29.4859 51.3502 29.6193 51.4002C29.9859 51.5502 30.3526 51.6835 30.7193 51.8002C30.8526 51.8502 30.9859 51.9002 31.1193 51.9335C31.5193 52.0502 31.9193 52.1502 32.3193 52.2502C32.4359 52.2835 32.5526 52.3168 32.6859 52.3335C33.1526 52.4335 33.6193 52.5002 34.1026 52.5502C34.1693 52.5502 34.2359 52.5668 34.3026 52.5835C34.8693 52.6335 35.4359 52.6668 36.0026 52.6668C36.5693 52.6668 37.1359 52.6335 37.6859 52.5835C37.7526 52.5835 37.8193 52.5668 37.8859 52.5502C38.3693 52.5002 38.8359 52.4335 39.3026 52.3335C39.4193 52.3168 39.5359 52.2668 39.6693 52.2502C40.0693 52.1502 40.4859 52.0668 40.8693 51.9335C41.0026 51.8835 41.1359 51.8335 41.2693 51.8002C41.6359 51.6668 42.0193 51.5502 42.3693 51.4002C42.5026 51.3502 42.6359 51.2835 42.7693 51.2168C43.1193 51.0668 43.4693 50.9002 43.8193 50.7168C43.9526 50.6502 44.0693 50.5668 44.1859 50.5002C44.5193 50.3002 44.8526 50.1168 45.1859 49.9002C45.3026 49.8335 45.4026 49.7502 45.5193 49.6668C45.8526 49.4335 46.1693 49.2002 46.4693 48.9502C46.5693 48.8668 46.6526 48.7835 46.7526 48.7168C46.9359 48.5668 47.1193 48.4168 47.2859 48.2668C47.2859 48.2502 47.2859 48.2502 47.2693 48.2335C50.5859 45.1835 52.6693 40.8335 52.6693 36.0002Z" fill="#4A86F7"/>
<path d="M36 27.5498C32.55 27.5498 29.75 30.3498 29.75 33.7998C29.75 37.1831 32.4 39.9331 35.9167 40.0331C35.9667 40.0331 36.0333 40.0331 36.0667 40.0331C36.1 40.0331 36.15 40.0331 36.1833 40.0331C36.2 40.0331 36.2167 40.0331 36.2167 40.0331C39.5833 39.9165 42.2333 37.1831 42.25 33.7998C42.25 30.3498 39.45 27.5498 36 27.5498Z" fill="#4A86F7"/>
</svg>
