<svg width="72" height="72" viewBox="0 0 72 72" fill="none" xmlns="http://www.w3.org/2000/svg">
<rect width="72" height="72" rx="12" fill="#FBEDF0"/>
<path d="M52.2359 37.5164C51.8026 36.0831 51.0859 34.8331 50.1359 33.8164C48.9193 32.4331 47.3026 31.4831 45.4859 31.0664C44.5693 26.8998 42.0026 23.8998 38.3526 22.7831C34.3859 21.5498 29.7859 22.7498 26.9026 25.7664C24.3693 28.4164 23.5359 32.0664 24.5193 35.9498C21.1859 36.7664 19.5359 39.5498 19.3526 42.1998C19.3359 42.3831 19.3359 42.5498 19.3359 42.7164C19.3359 45.8498 21.3859 49.3664 25.9526 49.6998H43.2526C45.6193 49.6998 47.8859 48.8164 49.6193 47.2331C52.3359 44.8498 53.3359 41.1331 52.2359 37.5164Z" fill="#D34B6A"/>
</svg>
