<svg width="72" height="72" viewBox="0 0 72 72" fill="none" xmlns="http://www.w3.org/2000/svg">
<rect width="72" height="72" rx="12" fill="#FEF6ED"/>
<path d="M38.0833 36.0002C39.2339 36.0002 40.1667 35.0674 40.1667 33.9168C40.1667 32.7662 39.2339 31.8335 38.0833 31.8335C36.9327 31.8335 36 32.7662 36 33.9168C36 35.0674 36.9327 36.0002 38.0833 36.0002Z" fill="#83BF6E"/>
<path d="M42.9859 19.3335H29.0193C22.9526 19.3335 19.3359 22.9502 19.3359 29.0168V42.9668C19.3359 49.0502 22.9526 52.6668 29.0193 52.6668H42.9693C49.0359 52.6668 52.6526 49.0502 52.6526 42.9835V29.0168C52.6693 22.9502 49.0526 19.3335 42.9859 19.3335ZM42.4859 38.4502C40.7693 40.1502 38.3193 40.6835 36.1526 40.0002L34.3859 41.7502C34.2359 41.9002 33.9693 41.9002 33.8026 41.7502L32.1859 40.1335C31.9526 39.9002 31.5526 39.9002 31.3026 40.1335C31.0526 40.3668 31.0693 40.7668 31.3026 41.0168L32.9193 42.6335C33.0859 42.8002 33.0859 43.0668 32.9193 43.2168L32.2359 43.9002C31.9526 44.2002 31.4026 44.3835 31.0026 44.3335L29.1859 44.0835C28.5859 44.0002 28.0359 43.4335 27.9359 42.8335L27.6859 41.0168C27.6193 40.6168 27.8193 40.0668 28.0859 39.7835L32.0026 35.8668C31.3359 33.7002 31.8526 31.2502 33.5693 29.5335C36.0193 27.0835 40.0193 27.0835 42.4859 29.5335C44.9526 31.9835 44.9526 35.9835 42.4859 38.4502Z" fill="#F2A84C"/>
</svg>
