<svg width="72" height="72" viewBox="0 0 72 72" fill="none" xmlns="http://www.w3.org/2000/svg">
<rect width="72" height="72" rx="12" fill="#F3F9F1"/>
<path d="M44.3307 24.2668V36.1335C44.3307 39.4502 41.9807 40.7335 39.0974 39.0002L36.8974 37.6668C36.3974 37.3668 35.5974 37.3668 35.0974 37.6668L32.8974 39.0002C30.0141 40.7335 27.6641 39.4502 27.6641 36.1335V24.3168C27.6807 21.0002 29.3474 19.3335 32.6641 19.3335H39.3307C42.6307 19.3335 44.2974 20.9835 44.3307 24.2668Z" fill="#83BF6E"/>
<path d="M52.6693 35.8334V40.8834C52.6693 49.3001 49.3359 52.6668 41.0026 52.6668H31.0026C22.6693 52.6668 19.3359 49.3001 19.3359 40.8834V35.8334C19.3359 31.3501 20.2859 28.3001 22.4193 26.4334C23.5026 25.5168 25.1693 26.3168 25.1693 27.7334V36.1334C25.1693 38.6168 26.1859 40.6168 27.9526 41.6168C29.7359 42.6334 32.0026 42.4501 34.2026 41.1334L36.0026 40.0501L37.8193 41.1334C39.0526 41.8834 40.3359 42.2668 41.5359 42.2668C42.4359 42.2668 43.2859 42.0501 44.0526 41.6168C45.8193 40.6168 46.8359 38.6168 46.8359 36.1334V27.7168C46.8359 26.3001 48.5193 25.5001 49.5859 26.4334C51.7193 28.3001 52.6693 31.3501 52.6693 35.8334Z" fill="#BBDCAF"/>
</svg>
