<svg width="72" height="72" viewBox="0 0 72 72" fill="none" xmlns="http://www.w3.org/2000/svg">
<rect width="72" height="72" rx="12" fill="#EEF8FE"/>
<path d="M45.087 44.8334C42.287 44.8334 39.7036 43.5167 38.0203 41.2C37.6203 40.65 37.737 39.8667 38.287 39.45C38.837 39.0334 39.6203 39.1667 40.037 39.7167C41.2536 41.3667 43.087 42.3167 45.087 42.3167C48.5703 42.3167 51.4203 39.4834 51.4203 35.9834C51.4203 32.4834 48.587 29.65 45.087 29.65C42.7203 29.65 40.487 30.9167 39.2703 32.9334L34.8536 40.2834C33.187 43.0667 30.137 44.7834 26.9036 44.7834C22.037 44.7834 18.0703 40.8167 18.0703 35.95C18.0703 31.0834 22.037 27.1167 26.9036 27.1167C29.7036 27.1167 32.287 28.4334 33.9703 30.75C34.3703 31.3 34.2536 32.0834 33.7036 32.5C33.137 32.9167 32.3703 32.7834 31.9536 32.2334C30.7536 30.6167 28.9203 29.6667 26.9203 29.6667C23.437 29.6667 20.587 32.5 20.587 36C20.587 39.5 23.4203 42.3334 26.9203 42.3334C29.287 42.3334 31.5203 41.0667 32.737 39.05L37.1536 31.7C38.8203 28.9167 41.8703 27.2 45.1036 27.2C49.9703 27.2 53.937 31.1667 53.937 36.0334C53.937 40.9 49.9536 44.8334 45.087 44.8334Z" fill="#57B6F0"/>
<path d="M26.8333 39.3332C28.6743 39.3332 30.1667 37.8408 30.1667 35.9998C30.1667 34.1589 28.6743 32.6665 26.8333 32.6665C24.9924 32.6665 23.5 34.1589 23.5 35.9998C23.5 37.8408 24.9924 39.3332 26.8333 39.3332Z" fill="#84CAF4"/>
<path d="M45.1693 39.3332C47.0102 39.3332 48.5026 37.8408 48.5026 35.9998C48.5026 34.1589 47.0102 32.6665 45.1693 32.6665C43.3283 32.6665 41.8359 34.1589 41.8359 35.9998C41.8359 37.8408 43.3283 39.3332 45.1693 39.3332Z" fill="#84CAF4"/>
</svg>
