<svg width="72" height="72" viewBox="0 0 72 72" fill="none" xmlns="http://www.w3.org/2000/svg">
<rect width="72" height="72" rx="12" fill="#FCF1ED"/>
<path d="M42.285 21H29.715C24.255 21 21 24.255 21 29.715V42.27C21 47.745 24.255 51 29.715 51H42.27C47.73 51 50.985 47.745 50.985 42.285V29.715C51 24.255 47.745 21 42.285 21ZM34.425 44.265C33.99 44.7 33.165 45.12 32.565 45.21L28.875 45.735C28.74 45.75 28.605 45.765 28.47 45.765C27.855 45.765 27.285 45.555 26.88 45.15C26.385 44.655 26.175 43.935 26.295 43.14L26.82 39.45C26.91 38.835 27.315 38.025 27.765 37.59L34.455 30.9C34.575 31.215 34.695 31.53 34.86 31.89C35.01 32.205 35.175 32.535 35.355 32.835C35.505 33.09 35.67 33.33 35.805 33.51C35.97 33.765 36.165 34.005 36.285 34.14C36.36 34.245 36.42 34.32 36.45 34.35C36.825 34.8 37.26 35.22 37.635 35.535C37.74 35.64 37.8 35.7 37.83 35.715C38.055 35.895 38.28 36.075 38.475 36.21C38.715 36.39 38.955 36.555 39.21 36.69C39.51 36.87 39.84 37.035 40.17 37.2C40.515 37.35 40.83 37.485 41.145 37.59L34.425 44.265ZM44.055 34.635L42.675 36.03C42.585 36.12 42.465 36.165 42.345 36.165C42.3 36.165 42.24 36.165 42.21 36.15C39.165 35.28 36.735 32.85 35.865 29.805C35.82 29.64 35.865 29.46 35.985 29.355L37.38 27.96C39.66 25.68 41.835 25.725 44.07 27.96C45.21 29.1 45.765 30.195 45.765 31.335C45.75 32.415 45.195 33.495 44.055 34.635Z" fill="#E0704A"/>
</svg>
