<svg width="72" height="72" viewBox="0 0 72 72" fill="none" xmlns="http://www.w3.org/2000/svg">
<rect width="72" height="72" rx="12" fill="#EDF3FE"/>
<path d="M35.997 26L26.7303 32.6667L21.3137 29C20.347 28.35 20.3303 26.95 21.2803 26.2667L27.6636 21.6667C28.2303 21.2667 28.997 21.25 29.5637 21.6333L35.997 26Z" fill="#4A86F7"/>
<path d="M50.6833 29.0001L45.2667 32.6668L36 26.0001L42.4333 21.6502C43.0166 21.2668 43.7667 21.2668 44.3333 21.6835L50.7166 26.2835C51.6666 26.9502 51.65 28.3501 50.6833 29.0001Z" fill="#4A86F7"/>
<path d="M36.0012 39.3332L28.6012 44.3332L24.3345 41.2665L21.2678 39.0665C20.3345 38.3832 20.3512 36.9832 21.3012 36.3332L26.7178 32.6665L36.0012 39.3332Z" fill="#4A86F7"/>
<path d="M50.6844 36.3332C51.6511 36.9832 51.6677 38.3832 50.7177 39.0665L47.651 41.2665L43.3844 44.3332L35.9844 39.3332L45.251 32.6665L50.6844 36.3332Z" fill="#4A86F7"/>
<path d="M47.1359 44.9C47.3526 44.7333 47.6693 44.9 47.6693 45.1666V46.3833C47.6693 47.0333 47.286 47.6166 46.7026 47.9L36.7026 52.5166C36.2526 52.7166 35.7526 52.7166 35.3026 52.5166L25.3026 47.9C24.7192 47.6166 24.3359 47.0333 24.3359 46.3833V45.1666C24.3359 44.9 24.6359 44.7333 24.8693 44.9L28.0859 47.2166C28.3693 47.4166 28.7526 47.4333 29.0359 47.2333L35.5359 42.8333C35.8193 42.65 36.1859 42.65 36.4693 42.8333L42.9693 47.2333C43.2526 47.4333 43.6359 47.4166 43.9193 47.2166L47.1359 44.9Z" fill="#4A86F7"/>
</svg>
