<svg width="72" height="72" viewBox="0 0 72 72" fill="none" xmlns="http://www.w3.org/2000/svg">
<rect width="72" height="72" rx="12" fill="#F3F9F1"/>
<path d="M44.5016 19.3335H37.5016C32.1087 19.3335 29.7213 21.342 29.3905 26.239C29.353 26.7946 29.8066 27.2502 30.3635 27.2502H34.5016C41.5016 27.2502 44.7516 30.5002 44.7516 37.5002V41.6383C44.7516 42.1952 45.2071 42.6488 45.7627 42.6112C50.6597 42.2805 52.6682 39.893 52.6682 34.5002V27.5002C52.6682 21.6668 50.3349 19.3335 44.5016 19.3335Z" fill="#BBDCAF"/>
<path d="M34.5026 29.3335H27.5026C21.6693 29.3335 19.3359 31.6668 19.3359 37.5002V44.5002C19.3359 50.3335 21.6693 52.6668 27.5026 52.6668H34.5026C40.3359 52.6668 42.6693 50.3335 42.6693 44.5002V37.5002C42.6693 31.6668 40.3359 29.3335 34.5026 29.3335ZM36.4859 38.7502L30.3026 44.9335C30.0693 45.1668 29.7693 45.2835 29.4526 45.2835C29.1359 45.2835 28.8359 45.1668 28.6026 44.9335L25.5026 41.8335C25.0359 41.3668 25.0359 40.6168 25.5026 40.1502C25.9693 39.6835 26.7193 39.6835 27.1859 40.1502L29.4359 42.4002L34.7859 37.0502C35.2526 36.5835 36.0026 36.5835 36.4693 37.0502C36.9359 37.5168 36.9526 38.2835 36.4859 38.7502Z" fill="#83BF6E"/>
</svg>
