<svg width="72" height="72" viewBox="0 0 72 72" fill="none" xmlns="http://www.w3.org/2000/svg">
<rect width="72" height="72" rx="12" fill="#EDF3FE"/>
<path d="M45.2177 28.9507C45.101 28.934 44.9844 28.934 44.8677 28.9507C42.2844 28.8673 40.2344 26.7507 40.2344 24.1507C40.2344 21.5007 42.3844 19.334 45.051 19.334C47.701 19.334 49.8677 21.484 49.8677 24.1507C49.851 26.7507 47.801 28.8673 45.2177 28.9507Z" fill="#A3C2FB"/>
<path d="M50.6513 40.5007C48.7846 41.7507 46.168 42.2173 43.7513 41.9007C44.3846 40.534 44.718 39.0173 44.7346 37.4173C44.7346 35.7507 44.368 34.1673 43.668 32.784C46.1346 32.4507 48.7513 32.9173 50.6346 34.1673C53.268 35.9007 53.268 38.7507 50.6513 40.5007Z" fill="#A3C2FB"/>
<path d="M26.7349 28.9507C26.8516 28.934 26.9682 28.934 27.0849 28.9507C29.6682 28.8673 31.7182 26.7507 31.7182 24.1507C31.7182 21.484 29.5682 19.334 26.9016 19.334C24.2516 19.334 22.1016 21.484 22.1016 24.1507C22.1016 26.7507 24.1516 28.8673 26.7349 28.9507Z" fill="#A3C2FB"/>
<path d="M26.9159 37.4157C26.9159 39.0324 27.2659 40.5657 27.8992 41.949C25.5492 42.199 23.0992 41.699 21.2992 40.5157C18.6659 38.7657 18.6659 35.9157 21.2992 34.1657C23.0826 32.9657 25.5992 32.4824 27.9659 32.749C27.2826 34.149 26.9159 35.7324 26.9159 37.4157Z" fill="#A3C2FB"/>
<path d="M36.2 42.45C36.0667 42.4333 35.9167 42.4333 35.7667 42.45C32.7 42.35 30.25 39.8333 30.25 36.7333C30.2667 33.5667 32.8167 31 36 31C39.1667 31 41.7333 33.5667 41.7333 36.7333C41.7167 39.8333 39.2833 42.35 36.2 42.45Z" fill="#6E9EF9"/>
<path d="M30.782 45.9004C28.2654 47.5837 28.2654 50.3504 30.782 52.0171C33.6487 53.9337 38.3487 53.9337 41.2154 52.0171C43.732 50.3337 43.732 47.5671 41.2154 45.9004C38.3654 43.9837 33.6654 43.9837 30.782 45.9004Z" fill="#6E9EF9"/>
</svg>
