<svg width="72" height="72" viewBox="0 0 72 72" fill="none" xmlns="http://www.w3.org/2000/svg">
<rect width="72" height="72" rx="12" fill="#FCF1ED"/>
<path d="M47.25 29.334V32.834C46.5167 32.734 45.6833 32.684 44.75 32.6673V29.334C44.75 24.084 43.2667 20.584 36 20.584C28.7333 20.584 27.25 24.084 27.25 29.334V32.6673C26.3167 32.684 25.4833 32.734 24.75 32.834V29.334C24.75 24.5007 25.9167 18.084 36 18.084C46.0833 18.084 47.25 24.5007 47.25 29.334Z" fill="#E0704A"/>
<path d="M47.2487 32.8327C46.5154 32.7327 45.682 32.6827 44.7487 32.666H27.2487C26.3154 32.6827 25.482 32.7327 24.7487 32.8327C20.4987 33.3493 19.332 35.4327 19.332 40.9993V44.3327C19.332 50.9994 20.9987 52.666 27.6654 52.666H44.332C50.9987 52.666 52.6654 50.9994 52.6654 44.3327V40.9993C52.6654 35.4327 51.4987 33.3493 47.2487 32.8327ZM30.5154 43.8493C30.1987 44.1493 29.7654 44.3327 29.332 44.3327C29.1154 44.3327 28.8987 44.2827 28.6987 44.1994C28.482 44.116 28.3154 43.9993 28.1487 43.8493C27.8487 43.5327 27.6654 43.0994 27.6654 42.666C27.6654 42.4494 27.7154 42.2327 27.7987 42.0327C27.882 41.8327 27.9987 41.6493 28.1487 41.4827C28.3154 41.3327 28.482 41.216 28.6987 41.1327C29.3154 40.866 30.0487 41.016 30.5154 41.4827C30.6654 41.6493 30.782 41.8327 30.8654 42.0327C30.9487 42.2327 30.9987 42.4494 30.9987 42.666C30.9987 43.0994 30.8154 43.5327 30.5154 43.8493ZM37.532 43.2993C37.4487 43.4993 37.332 43.6827 37.182 43.8493C36.8654 44.1493 36.432 44.3327 35.9987 44.3327C35.5487 44.3327 35.132 44.1493 34.8154 43.8493C34.6654 43.6827 34.5487 43.4993 34.4654 43.2993C34.382 43.0993 34.332 42.8827 34.332 42.666C34.332 42.216 34.5154 41.7993 34.8154 41.4827C35.432 40.866 36.5487 40.866 37.182 41.4827C37.482 41.7993 37.6654 42.216 37.6654 42.666C37.6654 42.8827 37.6154 43.0993 37.532 43.2993ZM43.8487 43.8493C43.532 44.1493 43.0987 44.3327 42.6654 44.3327C42.232 44.3327 41.7987 44.1493 41.482 43.8493C41.182 43.5327 40.9987 43.116 40.9987 42.666C40.9987 42.216 41.182 41.7993 41.482 41.4827C42.1154 40.866 43.232 40.866 43.8487 41.4827C43.9154 41.566 43.982 41.6493 44.0487 41.7493C44.1154 41.8327 44.1654 41.9327 44.1987 42.0327C44.2487 42.1327 44.282 42.2327 44.2987 42.3327C44.3154 42.4494 44.332 42.566 44.332 42.666C44.332 43.0994 44.1487 43.5327 43.8487 43.8493Z" fill="#EFB7A4"/>
</svg>
