<svg width="72" height="72" viewBox="0 0 72 72" fill="none" xmlns="http://www.w3.org/2000/svg">
<rect width="72" height="72" rx="12" fill="#FCF1ED"/>
<path d="M45.0831 44.8339C42.2831 44.8339 39.6997 43.5172 38.0164 41.2005C37.6164 40.6505 37.7331 39.8672 38.2831 39.4505C38.8331 39.0339 39.6164 39.1672 40.0331 39.7172C41.2497 41.3672 43.0831 42.3172 45.0831 42.3172C48.5664 42.3172 51.4164 39.4839 51.4164 35.9839C51.4164 32.4839 48.5831 29.6505 45.0831 29.6505C42.7164 29.6505 40.4831 30.9172 39.2664 32.9339L34.8497 40.2839C33.1831 43.0672 30.1331 44.7839 26.8997 44.7839C22.0331 44.7839 18.0664 40.8172 18.0664 35.9505C18.0664 31.0839 22.0331 27.1172 26.8997 27.1172C29.6997 27.1172 32.2831 28.4339 33.9664 30.7505C34.3664 31.3005 34.2497 32.0839 33.6997 32.5005C33.1331 32.9172 32.3664 32.7839 31.9497 32.2339C30.7497 30.6172 28.9164 29.6672 26.9164 29.6672C23.4331 29.6672 20.5831 32.5005 20.5831 36.0005C20.5831 39.5005 23.4164 42.3339 26.9164 42.3339C29.2831 42.3339 31.5164 41.0672 32.7331 39.0505L37.1497 31.7005C38.8164 28.9172 41.8664 27.2005 45.0997 27.2005C49.9664 27.2005 53.9331 31.1672 53.9331 36.0339C53.9331 40.9005 49.9497 44.8339 45.0831 44.8339Z" fill="#E0704A"/>
<path d="M26.8333 39.3327C28.6743 39.3327 30.1667 37.8403 30.1667 35.9993C30.1667 34.1584 28.6743 32.666 26.8333 32.666C24.9924 32.666 23.5 34.1584 23.5 35.9993C23.5 37.8403 24.9924 39.3327 26.8333 39.3327Z" fill="#FAA284"/>
<path d="M45.1654 39.3327C47.0063 39.3327 48.4987 37.8403 48.4987 35.9993C48.4987 34.1584 47.0063 32.666 45.1654 32.666C43.3244 32.666 41.832 34.1584 41.832 35.9993C41.832 37.8403 43.3244 39.3327 45.1654 39.3327Z" fill="#FAA284"/>
</svg>
