<svg width="72" height="72" viewBox="0 0 72 72" fill="none" xmlns="http://www.w3.org/2000/svg">
<rect width="72" height="72" rx="12" fill="#FEF6ED"/>
<path d="M38.0833 36.0007C39.2339 36.0007 40.1667 35.0679 40.1667 33.9173C40.1667 32.7667 39.2339 31.834 38.0833 31.834C36.9327 31.834 36 32.7667 36 33.9173C36 35.0679 36.9327 36.0007 38.0833 36.0007Z" fill="#F2A84C"/>
<path d="M42.982 19.334H29.0154C22.9487 19.334 19.332 22.9507 19.332 29.0173V42.9673C19.332 49.0507 22.9487 52.6673 29.0154 52.6673H42.9654C49.032 52.6673 52.6487 49.0507 52.6487 42.984V29.0173C52.6654 22.9507 49.0487 19.334 42.982 19.334ZM42.482 38.4507C40.7654 40.1507 38.3154 40.684 36.1487 40.0007L34.382 41.7507C34.232 41.9007 33.9654 41.9007 33.7987 41.7507L32.182 40.134C31.9487 39.9007 31.5487 39.9007 31.2987 40.134C31.0487 40.3673 31.0654 40.7673 31.2987 41.0173L32.9154 42.634C33.082 42.8007 33.082 43.0673 32.9154 43.2173L32.232 43.9007C31.9487 44.2007 31.3987 44.384 30.9987 44.334L29.182 44.084C28.582 44.0007 28.032 43.434 27.932 42.834L27.682 41.0173C27.6154 40.6173 27.8154 40.0673 28.082 39.784L31.9987 35.8673C31.332 33.7007 31.8487 31.2507 33.5654 29.534C36.0154 27.084 40.0154 27.084 42.482 29.534C44.9487 31.984 44.9487 35.984 42.482 38.4507Z" fill="#F2A84C"/>
</svg>
