<svg width="72" height="72" viewBox="0 0 72 72" fill="none" xmlns="http://www.w3.org/2000/svg">
<rect width="72" height="72" rx="12" fill="#FBEDF0"/>
<path d="M52.232 37.5174C51.7987 36.0841 51.082 34.8341 50.132 33.8174C48.9154 32.4341 47.2987 31.4841 45.482 31.0674C44.5654 26.9007 41.9987 23.9007 38.3487 22.7841C34.382 21.5507 29.782 22.7507 26.8987 25.7674C24.3654 28.4174 23.532 32.0674 24.5154 35.9507C21.182 36.7674 19.532 39.5507 19.3487 42.2007C19.332 42.3841 19.332 42.5507 19.332 42.7174C19.332 45.8507 21.382 49.3674 25.9487 49.7007H43.2487C45.6154 49.7007 47.882 48.8174 49.6154 47.2341C52.332 44.8507 53.332 41.1341 52.232 37.5174Z" fill="#D34B6A"/>
</svg>
