<svg width="72" height="72" viewBox="0 0 72 72" fill="none" xmlns="http://www.w3.org/2000/svg">
<rect width="72" height="72" rx="12" fill="#EEF8FE"/>
<path d="M42.9859 19.332H29.0193C22.9526 19.332 19.3359 22.9487 19.3359 29.0154V42.9654C19.3359 49.0487 22.9526 52.6654 29.0193 52.6654H42.9693C49.0359 52.6654 52.6526 49.0487 52.6526 42.982V29.0154C52.6693 22.9487 49.0526 19.332 42.9859 19.332ZM43.9693 32.1654L34.5193 41.6154C34.2859 41.8487 33.9693 41.982 33.6359 41.982C33.3026 41.982 32.9859 41.8487 32.7526 41.6154L28.0359 36.8987C27.5526 36.4154 27.5526 35.6154 28.0359 35.132C28.5193 34.6487 29.3193 34.6487 29.8026 35.132L33.6359 38.9654L42.2026 30.3987C42.6859 29.9154 43.4859 29.9154 43.9693 30.3987C44.4526 30.882 44.4526 31.6654 43.9693 32.1654Z" fill="#4A86F7"/>
</svg>
