<svg width="72" height="72" viewBox="0 0 72 72" fill="none" xmlns="http://www.w3.org/2000/svg">
<rect width="72" height="72" rx="12" fill="#FCF1ED"/>
<g clip-path="url(#clip0_4119_36012)">
<path d="M52.2564 33.0928H42.4777L49.3491 26.2214C48.8205 25.4287 48.2918 24.9001 47.7632 24.1069C47.0026 23.5571 46.2948 22.9378 45.6491 22.2569L38.7788 29.1287V19.6147C37.9158 19.3962 37.0252 19.3072 36.1361 19.3506C35.2463 19.2932 34.3532 19.3825 33.4923 19.6147V29.3933L26.3569 22.2579C25.5365 22.7282 24.8177 23.3568 24.2423 24.1074C23.7137 24.9001 22.921 25.4287 22.3923 26.222L29.2632 33.0928H19.7496L19.4856 35.7355C19.4283 36.6249 19.5175 37.5177 19.7496 38.3782H29.5288L22.3934 45.5136C23.4375 47.0859 24.7852 48.4336 26.3574 49.4777L33.2288 42.6063V52.3855C34.0917 52.6039 34.9824 52.6929 35.8715 52.6496C36.7609 52.7068 37.6537 52.6176 38.5142 52.3855V42.6074L45.385 49.4793C46.2054 49.0088 46.924 48.3799 47.4991 47.6293C48.18 46.9835 48.7994 46.2758 49.3491 45.5152L42.4777 38.6428H52.2564C52.475 37.7799 52.5642 36.8892 52.521 36.0001C52.5769 35.0233 52.488 34.0435 52.2569 33.0928H52.2564ZM40.0991 35.7355C40.0728 36.8989 39.8951 38.0539 39.5705 39.1714C38.4784 39.5997 37.3048 39.7802 36.1345 39.7001C34.9711 39.6738 33.8161 39.4961 32.6986 39.1714C32.2704 38.0793 32.0898 36.9058 32.1699 35.7355C32.1962 34.5721 32.3739 33.4171 32.6986 32.2996C33.7907 31.8713 34.9642 31.6908 36.1345 31.7709C37.2979 31.7972 38.453 31.9749 39.5705 32.2996C39.8753 33.4214 40.0526 34.574 40.0991 35.7355V35.7355Z" fill="#E0704A"/>
</g>
<defs>
<clipPath id="clip0_4119_36012">
<rect width="33.3333" height="33.3333" fill="white" transform="translate(19.3359 19.3334)"/>
</clipPath>
</defs>
</svg>
