<svg width="72" height="72" viewBox="0 0 72 72" fill="none" xmlns="http://www.w3.org/2000/svg">
<rect width="72" height="72" rx="12" fill="#FEF6ED"/>
<path d="M40.2323 19.1333C38.1823 19.1333 36.5156 20.7999 36.5156 22.8499V30.5833C36.5156 32.6333 38.1823 34.3 40.2323 34.3C42.2823 34.3 43.949 32.6333 43.949 30.5833V22.8499C43.949 20.8166 42.2823 19.1333 40.2323 19.1333Z" fill="#F2A84C"/>
<path d="M49.6318 27.85C47.8484 27.85 46.3984 29.3 46.3984 31.0833V33.7C46.3984 34.05 46.6818 34.3333 47.0318 34.3333H49.6484C51.4318 34.3333 52.8818 32.8833 52.8818 31.1C52.8818 29.3167 51.4151 27.85 49.6318 27.85Z" fill="#F2A84C"/>
<path d="M30.1687 27.65H22.4354C20.3854 27.65 18.7188 29.3167 18.7188 31.3667C18.7188 33.4167 20.3854 35.0834 22.4354 35.0834H30.1687C32.2187 35.0834 33.8854 33.4167 33.8854 31.3667C33.8854 29.3167 32.2187 27.65 30.1687 27.65Z" fill="#F8CF9C"/>
<path d="M30.6474 18.7C28.864 18.7 27.4141 20.15 27.4141 21.9333C27.4141 23.7166 28.864 25.1666 30.6474 25.1666H33.2641C33.6141 25.1666 33.8974 24.8833 33.8974 24.5333V21.9166C33.8807 20.1666 32.4307 18.7 30.6474 18.7Z" fill="#F8CF9C"/>
<path d="M31.7167 37.7167C29.6667 37.7167 28 39.3834 28 41.4334V49.1667C28 51.2167 29.6667 52.8834 31.7167 52.8834C33.7667 52.8834 35.4333 51.2167 35.4333 49.1667V41.4334C35.4333 39.3834 33.7667 37.7167 31.7167 37.7167Z" fill="#F2A84C"/>
<path d="M24.9359 37.7167H22.3192C20.5359 37.7167 19.0859 39.1667 19.0859 40.95C19.0859 42.7333 20.5359 44.1833 22.3192 44.1833C24.1026 44.1833 25.5526 42.7333 25.5526 40.95V38.3333C25.5526 38 25.2693 37.7167 24.9359 37.7167Z" fill="#F2A84C"/>
<path d="M49.5203 36.95H41.787C39.737 36.95 38.0703 38.6166 38.0703 40.6666C38.0703 42.7166 39.737 44.3833 41.787 44.3833H49.5203C51.5703 44.3833 53.237 42.7166 53.237 40.6666C53.237 38.6166 51.5703 36.95 49.5203 36.95Z" fill="#F8CF9C"/>
<path d="M41.2969 46.7833H38.6802C38.3302 46.7833 38.0469 47.0667 38.0469 47.4167V50.0333C38.0469 51.8167 39.4969 53.2666 41.2802 53.2666C43.0635 53.2666 44.5135 51.8167 44.5135 50.0333C44.5302 48.2333 43.0802 46.7833 41.2969 46.7833Z" fill="#F8CF9C"/>
</svg>
