<svg width="72" height="72" viewBox="0 0 72 72" fill="none" xmlns="http://www.w3.org/2000/svg">
<rect width="72" height="72" rx="12" fill="#EEF8FE"/>
<path d="M44.3359 21.8333H27.6693C22.6693 21.8333 19.3359 24.3333 19.3359 30.1666V41.8333C19.3359 47.6666 22.6693 50.1666 27.6693 50.1666H44.3359C49.3359 50.1666 52.6693 47.6666 52.6693 41.8333V30.1666C52.6693 24.3333 49.3359 21.8333 44.3359 21.8333ZM45.1193 31.9833L39.9026 36.1499C38.8026 37.0333 37.4026 37.4666 36.0026 37.4666C34.6026 37.4666 33.1859 37.0333 32.1026 36.1499L26.8859 31.9833C26.3526 31.5499 26.2693 30.7499 26.6859 30.2166C27.1193 29.6833 27.9026 29.5833 28.4359 30.0166L33.6526 34.1833C34.9193 35.1999 37.0693 35.1999 38.3359 34.1833L43.5526 30.0166C44.0859 29.5833 44.8859 29.6666 45.3026 30.2166C45.7359 30.7499 45.6526 31.5499 45.1193 31.9833Z" fill="#84CAF4"/>
</svg>
