<svg width="72" height="72" viewBox="0 0 72 72" fill="none" xmlns="http://www.w3.org/2000/svg">
<rect width="72" height="72" rx="12" fill="#FBEDF0"/>
<path d="M49.3359 39.75C51.407 39.75 53.0859 38.0711 53.0859 36C53.0859 33.9289 51.407 32.25 49.3359 32.25C47.2649 32.25 45.5859 33.9289 45.5859 36C45.5859 38.0711 47.2649 39.75 49.3359 39.75Z" fill="#D34B6A"/>
<path d="M49.3359 26.4167C51.407 26.4167 53.0859 24.7378 53.0859 22.6667C53.0859 20.5957 51.407 18.9167 49.3359 18.9167C47.2649 18.9167 45.5859 20.5957 45.5859 22.6667C45.5859 24.7378 47.2649 26.4167 49.3359 26.4167Z" fill="#D34B6A"/>
<path d="M49.3359 53.0833C51.407 53.0833 53.0859 51.4043 53.0859 49.3333C53.0859 47.2622 51.407 45.5833 49.3359 45.5833C47.2649 45.5833 45.5859 47.2622 45.5859 49.3333C45.5859 51.4043 47.2649 53.0833 49.3359 53.0833Z" fill="#D34B6A"/>
<path d="M22.6641 39.75C24.7351 39.75 26.4141 38.0711 26.4141 36C26.4141 33.9289 24.7351 32.25 22.6641 32.25C20.593 32.25 18.9141 33.9289 18.9141 36C18.9141 38.0711 20.593 39.75 22.6641 39.75Z" fill="#D34B6A"/>
<path d="M47.6693 37.2501C48.3526 37.2501 48.9193 36.6834 48.9193 36.0001C48.9193 35.3167 48.3526 34.7501 47.6693 34.7501H35.5859V27.6667C35.5859 25.0334 36.7026 23.9167 39.3359 23.9167H47.6693C48.3526 23.9167 48.9193 23.3501 48.9193 22.6667C48.9193 21.9834 48.3526 21.4167 47.6693 21.4167H39.3359C35.3026 21.4167 33.0859 23.6334 33.0859 27.6667V34.7501H24.3359C23.6526 34.7501 23.0859 35.3167 23.0859 36.0001C23.0859 36.6834 23.6526 37.2501 24.3359 37.2501H33.0859V44.3334C33.0859 48.3667 35.3026 50.5834 39.3359 50.5834H47.6693C48.3526 50.5834 48.9193 50.0167 48.9193 49.3334C48.9193 48.6501 48.3526 48.0834 47.6693 48.0834H39.3359C36.7026 48.0834 35.5859 46.9667 35.5859 44.3334V37.2501H47.6693Z" fill="#D34B6A"/>
</svg>
