<svg width="72" height="72" viewBox="0 0 72 72" fill="none" xmlns="http://www.w3.org/2000/svg">
<rect width="72" height="72" rx="12" fill="#FBEDF0"/>
<path d="M52.2307 34.4502C52.1474 33.6002 51.4307 32.9668 50.5807 32.9668H37.9974C37.0807 32.9668 36.3307 33.7168 36.3307 34.6335V37.4835C36.3307 38.4002 37.0807 39.1502 37.9974 39.1502H45.5141C45.3307 40.6835 44.3307 43.0002 42.1141 44.5502C40.6974 45.5335 38.8141 46.2168 36.3307 46.2168C36.2141 46.2168 36.1141 46.2168 35.9974 46.2002C31.7474 46.0668 28.1474 43.2168 26.8474 39.3002C26.4974 38.2502 26.2974 37.1502 26.2974 36.0002C26.2974 34.8502 26.4974 33.7335 26.8307 32.7001C26.9307 32.4001 27.0474 32.1002 27.1807 31.8002C28.7141 28.3502 32.0641 25.9168 35.9974 25.8002C36.0974 25.7835 36.2141 25.7835 36.3307 25.7835C38.7141 25.7835 40.4974 26.5668 41.7474 27.4335C42.3974 27.8835 43.2641 27.7835 43.8307 27.2335L46.1474 24.9668C46.8807 24.2502 46.8141 23.0335 45.9807 22.4335C43.3307 20.4835 40.0974 19.3335 36.3307 19.3335C36.2141 19.3335 36.1141 19.3335 35.9974 19.3502C29.6141 19.4668 24.1307 23.1668 21.4474 28.5168C20.3141 30.7835 19.6641 33.3168 19.6641 36.0002C19.6641 38.6835 20.3141 41.2168 21.4474 43.4835H21.4641C24.1474 48.8335 29.6307 52.5335 35.9974 52.6501C36.1141 52.6668 36.2141 52.6668 36.3307 52.6668C40.8307 52.6668 44.6141 51.1835 47.3641 48.6335C50.5141 45.7168 52.3307 41.4502 52.3307 36.3668C52.3307 35.6502 52.2974 35.0335 52.2307 34.4502Z" fill="#D34B6A"/>
</svg>
