<svg width="72" height="72" viewBox="0 0 72 72" fill="none" xmlns="http://www.w3.org/2000/svg">
<rect width="72" height="72" rx="12" fill="#F3F9F1"/>
<path d="M52.2359 37.5167C51.8026 36.0833 51.0859 34.8333 50.1359 33.8167C48.9193 32.4333 47.3026 31.4833 45.4859 31.0667C44.5693 26.9 42.0026 23.9 38.3526 22.7833C34.3859 21.55 29.7859 22.75 26.9026 25.7667C24.3693 28.4167 23.5359 32.0667 24.5193 35.95C21.1859 36.7667 19.5359 39.55 19.3526 42.2C19.3359 42.3833 19.3359 42.55 19.3359 42.7167C19.3359 45.85 21.3859 49.3667 25.9526 49.7H43.2526C45.6193 49.7 47.8859 48.8167 49.6193 47.2333C52.3359 44.85 53.3359 41.1333 52.2359 37.5167Z" fill="#83BF6E"/>
</svg>
