<svg width="72" height="72" viewBox="0 0 72 72" fill="none" xmlns="http://www.w3.org/2000/svg">
<rect width="72" height="72" rx="12" fill="#FCF1ED"/>
<path d="M47.25 29.3333V32.8333C46.5167 32.7333 45.6833 32.6833 44.75 32.6666V29.3333C44.75 24.0833 43.2667 20.5833 36 20.5833C28.7333 20.5833 27.25 24.0833 27.25 29.3333V32.6666C26.3167 32.6833 25.4833 32.7333 24.75 32.8333V29.3333C24.75 24.4999 25.9167 18.0833 36 18.0833C46.0833 18.0833 47.25 24.4999 47.25 29.3333Z" fill="#E0704A"/>
<path d="M47.2526 32.8334C46.5193 32.7334 45.6859 32.6834 44.7526 32.6667H27.2526C26.3193 32.6834 25.4859 32.7334 24.7526 32.8334C20.5026 33.3501 19.3359 35.4334 19.3359 41.0001V44.3334C19.3359 51.0001 21.0026 52.6668 27.6693 52.6668H44.3359C51.0026 52.6668 52.6693 51.0001 52.6693 44.3334V41.0001C52.6693 35.4334 51.5026 33.3501 47.2526 32.8334ZM30.5193 43.8501C30.2026 44.1501 29.7693 44.3334 29.3359 44.3334C29.1193 44.3334 28.9026 44.2834 28.7026 44.2001C28.4859 44.1167 28.3193 44.0001 28.1526 43.8501C27.8526 43.5334 27.6693 43.1001 27.6693 42.6667C27.6693 42.4501 27.7193 42.2334 27.8026 42.0334C27.8859 41.8334 28.0026 41.6501 28.1526 41.4834C28.3193 41.3334 28.4859 41.2167 28.7026 41.1334C29.3193 40.8667 30.0526 41.0167 30.5193 41.4834C30.6693 41.6501 30.7859 41.8334 30.8693 42.0334C30.9526 42.2334 31.0026 42.4501 31.0026 42.6667C31.0026 43.1001 30.8193 43.5334 30.5193 43.8501ZM37.5359 43.3001C37.4526 43.5001 37.3359 43.6834 37.1859 43.8501C36.8693 44.1501 36.4359 44.3334 36.0026 44.3334C35.5526 44.3334 35.1359 44.1501 34.8193 43.8501C34.6693 43.6834 34.5526 43.5001 34.4693 43.3001C34.3859 43.1001 34.3359 42.8834 34.3359 42.6667C34.3359 42.2167 34.5193 41.8001 34.8193 41.4834C35.4359 40.8667 36.5526 40.8667 37.1859 41.4834C37.4859 41.8001 37.6693 42.2167 37.6693 42.6667C37.6693 42.8834 37.6193 43.1001 37.5359 43.3001ZM43.8526 43.8501C43.5359 44.1501 43.1026 44.3334 42.6693 44.3334C42.2359 44.3334 41.8026 44.1501 41.4859 43.8501C41.1859 43.5334 41.0026 43.1167 41.0026 42.6667C41.0026 42.2167 41.1859 41.8001 41.4859 41.4834C42.1193 40.8667 43.2359 40.8667 43.8526 41.4834C43.9193 41.5667 43.9859 41.6501 44.0526 41.7501C44.1193 41.8334 44.1693 41.9334 44.2026 42.0334C44.2526 42.1334 44.2859 42.2334 44.3026 42.3334C44.3193 42.4501 44.3359 42.5667 44.3359 42.6667C44.3359 43.1001 44.1526 43.5334 43.8526 43.8501Z" fill="#EFB7A4"/>
</svg>
