<svg width="72" height="72" viewBox="0 0 72 72" fill="none" xmlns="http://www.w3.org/2000/svg">
<rect width="72" height="72" rx="12" fill="#FEF6ED"/>
<path d="M36.0026 19.3333C26.8193 19.3333 19.3359 26.8166 19.3359 36C19.3359 45.1833 26.8193 52.6666 36.0026 52.6666C45.1859 52.6666 52.6693 45.1833 52.6693 36C52.6693 26.8166 45.1859 19.3333 36.0026 19.3333ZM43.2526 41.95C43.0193 42.35 42.6026 42.5666 42.1693 42.5666C41.9526 42.5666 41.7359 42.5166 41.5359 42.3833L36.3693 39.3C35.0859 38.5333 34.1359 36.85 34.1359 35.3666V28.5333C34.1359 27.85 34.7026 27.2833 35.3859 27.2833C36.0693 27.2833 36.6359 27.85 36.6359 28.5333V35.3666C36.6359 35.9666 37.1359 36.85 37.6526 37.15L42.8193 40.2333C43.4193 40.5833 43.6193 41.35 43.2526 41.95Z" fill="#F2A84C"/>
</svg>
