<svg width="72" height="72" viewBox="0 0 72 72" fill="none" xmlns="http://www.w3.org/2000/svg">
<rect width="72" height="72" rx="12" fill="#FCF1ED"/>
<path d="M27.1193 39.3333H22.6693C20.8359 39.3333 19.3359 40.8333 19.3359 42.6667V51C19.3359 51.9167 20.0859 52.6667 21.0026 52.6667H27.1193C28.0359 52.6667 28.7859 51.9167 28.7859 51V41C28.7859 40.0833 28.0359 39.3333 27.1193 39.3333Z" fill="#FAA284"/>
<path d="M38.213 32.6667H33.763C31.9297 32.6667 30.4297 34.1667 30.4297 36V51C30.4297 51.9167 31.1797 52.6667 32.0964 52.6667H39.8797C40.7964 52.6667 41.5464 51.9167 41.5464 51V36C41.5464 34.1667 40.063 32.6667 38.213 32.6667Z" fill="#E0704A"/>
<path d="M49.3354 44.3333H44.8854C43.9688 44.3333 43.2188 45.0833 43.2188 46V51C43.2188 51.9167 43.9688 52.6667 44.8854 52.6667H51.0021C51.9188 52.6667 52.6688 51.9167 52.6688 51V47.6667C52.6688 45.8333 51.1688 44.3333 49.3354 44.3333Z" fill="#FAA284"/>
<path d="M41.0158 24.0833C41.5324 23.5667 41.7324 22.95 41.5658 22.4167C41.3991 21.8833 40.8824 21.5 40.1491 21.3833L38.5491 21.1167C38.4824 21.1167 38.3324 21 38.2991 20.9333L37.4158 19.1667C36.7491 17.8167 35.2324 17.8167 34.5658 19.1667L33.6824 20.9333C33.6658 21 33.5158 21.1167 33.4491 21.1167L31.8491 21.3833C31.1158 21.5 30.6158 21.8833 30.4324 22.4167C30.2658 22.95 30.4658 23.5667 30.9824 24.0833L32.2158 25.3333C32.2824 25.3833 32.3324 25.5833 32.3158 25.65L31.9658 27.1833C31.6991 28.3333 32.1324 28.85 32.4158 29.05C32.6991 29.25 33.3158 29.5167 34.3324 28.9167L35.8324 28.0333C35.8991 27.9833 36.1158 27.9833 36.1824 28.0333L37.6658 28.9167C38.1324 29.2 38.5158 29.2833 38.8158 29.2833C39.1658 29.2833 39.4158 29.15 39.5658 29.05C39.8491 28.85 40.2824 28.3333 40.0158 27.1833L39.6658 25.65C39.6491 25.5667 39.6991 25.3833 39.7658 25.3333L41.0158 24.0833Z" fill="#E0704A"/>
</svg>
