<svg width="72" height="72" viewBox="0 0 72 72" fill="none" xmlns="http://www.w3.org/2000/svg">
<rect width="72" height="72" rx="12" fill="#FEF6ED"/>
<path d="M42.9859 19.3333H29.0193C22.9526 19.3333 19.3359 22.9499 19.3359 29.0166V42.9666C19.3359 49.0499 22.9526 52.6666 29.0193 52.6666H42.9693C49.0359 52.6666 52.6526 49.0499 52.6526 42.9833V29.0166C52.6693 22.9499 49.0526 19.3333 42.9859 19.3333ZM44.9193 31.0833L41.0193 43.6499C40.0859 46.6333 35.9026 46.6833 34.9193 43.7166L33.7526 40.2666C33.4359 39.3166 32.6859 38.5499 31.7359 38.2499L28.2693 37.0833C25.3359 36.0999 25.3693 31.8833 28.3526 30.9833L40.9193 27.0666C43.3859 26.3166 45.7026 28.6333 44.9193 31.0833Z" fill="#F2A84C"/>
</svg>
