<svg width="72" height="72" viewBox="0 0 72 72" fill="none" xmlns="http://www.w3.org/2000/svg">
<rect width="72" height="72" rx="12" fill="#FBEDF0"/>
<path d="M43.9144 21.933V19.333C43.9144 18.6497 43.3478 18.083 42.6644 18.083C41.9811 18.083 41.4144 18.6497 41.4144 19.333V21.833H30.5811V19.333C30.5811 18.6497 30.0144 18.083 29.3311 18.083C28.6478 18.083 28.0811 18.6497 28.0811 19.333V21.933C23.5811 22.3497 21.3978 25.033 21.0644 29.0163C21.0311 29.4997 21.4311 29.8997 21.8978 29.8997H50.0978C50.5811 29.8997 50.9811 29.483 50.9311 29.0163C50.5978 25.033 48.4144 22.3497 43.9144 21.933Z" fill="#E79CAD"/>
<path d="M49.3333 32.3997H22.6667C21.75 32.3997 21 33.1497 21 34.0663V44.333C21 49.333 23.5 52.6663 29.3333 52.6663H42.6667C48.5 52.6663 51 49.333 51 44.333V34.0663C51 33.1497 50.25 32.3997 49.3333 32.3997ZM31.35 46.3497C31.2667 46.4163 31.1833 46.4997 31.1 46.5497C31 46.6163 30.9 46.6663 30.8 46.6997C30.7 46.7497 30.6 46.783 30.5 46.7997C30.3833 46.8163 30.2833 46.833 30.1667 46.833C29.95 46.833 29.7333 46.783 29.5333 46.6997C29.3167 46.6163 29.15 46.4997 28.9833 46.3497C28.6833 46.033 28.5 45.5997 28.5 45.1663C28.5 44.733 28.6833 44.2997 28.9833 43.983C29.15 43.833 29.3167 43.7163 29.5333 43.633C29.8333 43.4997 30.1667 43.4663 30.5 43.533C30.6 43.5497 30.7 43.583 30.8 43.633C30.9 43.6663 31 43.7163 31.1 43.783C31.1833 43.8497 31.2667 43.9163 31.35 43.983C31.65 44.2997 31.8333 44.733 31.8333 45.1663C31.8333 45.5997 31.65 46.033 31.35 46.3497ZM31.35 40.5163C31.0333 40.8163 30.6 40.9997 30.1667 40.9997C29.7333 40.9997 29.3 40.8163 28.9833 40.5163C28.6833 40.1997 28.5 39.7663 28.5 39.333C28.5 38.8997 28.6833 38.4663 28.9833 38.1497C29.45 37.683 30.1833 37.533 30.8 37.7997C31.0167 37.883 31.2 37.9997 31.35 38.1497C31.65 38.4663 31.8333 38.8997 31.8333 39.333C31.8333 39.7663 31.65 40.1997 31.35 40.5163ZM37.1833 46.3497C36.8667 46.6497 36.4333 46.833 36 46.833C35.5667 46.833 35.1333 46.6497 34.8167 46.3497C34.5167 46.033 34.3333 45.5997 34.3333 45.1663C34.3333 44.733 34.5167 44.2997 34.8167 43.983C35.4333 43.3663 36.5667 43.3663 37.1833 43.983C37.4833 44.2997 37.6667 44.733 37.6667 45.1663C37.6667 45.5997 37.4833 46.033 37.1833 46.3497ZM37.1833 40.5163C37.1 40.583 37.0167 40.6497 36.9333 40.7163C36.8333 40.783 36.7333 40.833 36.6333 40.8663C36.5333 40.9163 36.4333 40.9497 36.3333 40.9663C36.2167 40.983 36.1167 40.9997 36 40.9997C35.5667 40.9997 35.1333 40.8163 34.8167 40.5163C34.5167 40.1997 34.3333 39.7663 34.3333 39.333C34.3333 38.8997 34.5167 38.4663 34.8167 38.1497C34.9667 37.9997 35.15 37.883 35.3667 37.7997C35.9833 37.533 36.7167 37.683 37.1833 38.1497C37.4833 38.4663 37.6667 38.8997 37.6667 39.333C37.6667 39.7663 37.4833 40.1997 37.1833 40.5163ZM43.0167 46.3497C42.7 46.6497 42.2667 46.833 41.8333 46.833C41.4 46.833 40.9667 46.6497 40.65 46.3497C40.35 46.033 40.1667 45.5997 40.1667 45.1663C40.1667 44.733 40.35 44.2997 40.65 43.983C41.2667 43.3663 42.4 43.3663 43.0167 43.983C43.3167 44.2997 43.5 44.733 43.5 45.1663C43.5 45.5997 43.3167 46.033 43.0167 46.3497ZM43.0167 40.5163C42.9333 40.583 42.85 40.6497 42.7667 40.7163C42.6667 40.783 42.5667 40.833 42.4667 40.8663C42.3667 40.9163 42.2667 40.9497 42.1667 40.9663C42.05 40.983 41.9333 40.9997 41.8333 40.9997C41.4 40.9997 40.9667 40.8163 40.65 40.5163C40.35 40.1997 40.1667 39.7663 40.1667 39.333C40.1667 38.8997 40.35 38.4663 40.65 38.1497C40.8167 37.9997 40.9833 37.883 41.2 37.7997C41.5 37.6663 41.8333 37.633 42.1667 37.6997C42.2667 37.7163 42.3667 37.7497 42.4667 37.7997C42.5667 37.833 42.6667 37.883 42.7667 37.9497C42.85 38.0163 42.9333 38.083 43.0167 38.1497C43.3167 38.4663 43.5 38.8997 43.5 39.333C43.5 39.7663 43.3167 40.1997 43.0167 40.5163Z" fill="#D34B6A"/>
</svg>
