<svg width="72" height="72" viewBox="0 0 72 72" fill="none" xmlns="http://www.w3.org/2000/svg">
<rect width="72" height="72" rx="12" fill="#FCF1ED"/>
<path d="M44.3307 53.9166H27.6641C26.9807 53.9166 26.4141 53.35 26.4141 52.6666C26.4141 51.9833 26.9807 51.4166 27.6641 51.4166H44.3307C45.0141 51.4166 45.5807 51.9833 45.5807 52.6666C45.5807 53.35 45.0141 53.9166 44.3307 53.9166Z" fill="#FAA284"/>
<path d="M46.0026 19.3334H26.0026C22.3193 19.3334 19.3359 22.3167 19.3359 26V41C19.3359 44.6834 22.3193 47.6667 26.0026 47.6667H46.0026C49.6859 47.6667 52.6693 44.6834 52.6693 41V26C52.6693 22.3167 49.6859 19.3334 46.0026 19.3334ZM32.6526 28.2C33.5859 28.2 34.3359 28.95 34.3359 29.8667C34.3359 30.7834 33.5859 31.5334 32.6693 31.5334C31.7526 31.5334 31.0026 30.7834 31.0026 29.8667C31.0026 28.95 31.7359 28.2 32.6526 28.2ZM27.4026 28.2C28.3359 28.2 29.0859 28.95 29.0859 29.8667C29.0859 30.7834 28.3359 31.5334 27.4193 31.5334C26.5026 31.5334 25.7526 30.7834 25.7526 29.8667C25.7526 28.95 26.4693 28.2 27.4026 28.2ZM44.7693 40.7667H27.2693C26.5693 40.7667 26.0026 40.2 26.0026 39.5167C26.0026 38.8334 26.5526 38.2667 27.2359 38.2667H44.7859C45.4693 38.2667 46.0359 38.8334 46.0359 39.5167C46.0359 40.2 45.4693 40.7667 44.7693 40.7667ZM44.7693 31.1167H38.6359C37.9526 31.1167 37.3859 30.55 37.3859 29.8667C37.3859 29.1834 37.9526 28.6167 38.6359 28.6167H44.7693C45.4526 28.6167 46.0193 29.1834 46.0193 29.8667C46.0193 30.55 45.4693 31.1167 44.7693 31.1167Z" fill="#E0704A"/>
</svg>
