<svg width="72" height="72" viewBox="0 0 72 72" fill="none" xmlns="http://www.w3.org/2000/svg">
<rect width="72" height="72" rx="12" fill="#F3F9F1"/>
<path d="M42.3026 19.3333H29.7026C23.4026 19.3333 21.8359 21.0166 21.8359 27.7333V46.5C21.8359 50.9333 24.2693 51.9833 27.2193 48.8166L27.2359 48.8C28.6026 47.35 30.6859 47.4666 31.8693 49.05L33.5526 51.3C34.9026 53.0833 37.0859 53.0833 38.4359 51.3L40.1193 49.05C41.3193 47.45 43.4026 47.3333 44.7693 48.8C47.7359 51.9666 50.1526 50.9166 50.1526 46.4833V27.7333C50.1693 21.0166 48.6026 19.3333 42.3026 19.3333ZM41.0026 35.5833H31.0026C30.3193 35.5833 29.7526 35.0166 29.7526 34.3333C29.7526 33.65 30.3193 33.0833 31.0026 33.0833H41.0026C41.6859 33.0833 42.2526 33.65 42.2526 34.3333C42.2526 35.0166 41.6859 35.5833 41.0026 35.5833ZM42.6693 28.9166H29.3359C28.6526 28.9166 28.0859 28.35 28.0859 27.6666C28.0859 26.9833 28.6526 26.4166 29.3359 26.4166H42.6693C43.3526 26.4166 43.9193 26.9833 43.9193 27.6666C43.9193 28.35 43.3526 28.9166 42.6693 28.9166Z" fill="#83BF6E"/>
</svg>
