<svg width="72" height="72" viewBox="0 0 72 72" fill="none" xmlns="http://www.w3.org/2000/svg">
<rect width="72" height="72" rx="12" fill="#FCF1ED"/>
<path d="M27.1193 39.3333H22.6693C20.8359 39.3333 19.3359 40.8333 19.3359 42.6666V50.9999C19.3359 51.9166 20.0859 52.6666 21.0026 52.6666H27.1193C28.0359 52.6666 28.7859 51.9166 28.7859 50.9999V40.9999C28.7859 40.0833 28.0359 39.3333 27.1193 39.3333Z" fill="#FAA284"/>
<path d="M38.213 32.6667H33.763C31.9297 32.6667 30.4297 34.1667 30.4297 36.0001V51.0001C30.4297 51.9168 31.1797 52.6668 32.0964 52.6668H39.8797C40.7964 52.6668 41.5464 51.9168 41.5464 51.0001V36.0001C41.5464 34.1667 40.063 32.6667 38.213 32.6667Z" fill="#E0704A"/>
<path d="M49.3354 44.3333H44.8854C43.9688 44.3333 43.2188 45.0833 43.2188 45.9999V50.9999C43.2188 51.9166 43.9688 52.6666 44.8854 52.6666H51.0021C51.9188 52.6666 52.6688 51.9166 52.6688 50.9999V47.6666C52.6688 45.8333 51.1688 44.3333 49.3354 44.3333Z" fill="#FAA284"/>
<path d="M41.0158 24.0832C41.5324 23.5666 41.7324 22.9499 41.5658 22.4166C41.3991 21.8832 40.8824 21.4999 40.1491 21.3832L38.5491 21.1166C38.4824 21.1166 38.3324 20.9999 38.2991 20.9332L37.4158 19.1666C36.7491 17.8166 35.2324 17.8166 34.5658 19.1666L33.6824 20.9332C33.6658 20.9999 33.5158 21.1166 33.4491 21.1166L31.8491 21.3832C31.1158 21.4999 30.6158 21.8832 30.4324 22.4166C30.2658 22.9499 30.4658 23.5666 30.9824 24.0832L32.2158 25.3332C32.2824 25.3832 32.3324 25.5832 32.3158 25.6499L31.9658 27.1832C31.6991 28.3332 32.1324 28.8499 32.4158 29.0499C32.6991 29.2499 33.3158 29.5166 34.3324 28.9166L35.8324 28.0332C35.8991 27.9832 36.1158 27.9832 36.1824 28.0332L37.6658 28.9166C38.1324 29.1999 38.5158 29.2832 38.8158 29.2832C39.1658 29.2832 39.4158 29.1499 39.5658 29.0499C39.8491 28.8499 40.2824 28.3332 40.0158 27.1832L39.6658 25.6499C39.6491 25.5666 39.6991 25.3832 39.7658 25.3332L41.0158 24.0832Z" fill="#E0704A"/>
</svg>
