<svg width="72" height="72" viewBox="0 0 72 72" fill="none" xmlns="http://www.w3.org/2000/svg">
<rect width="72" height="72" rx="12" fill="#FBEDF0"/>
<path d="M42.6693 29.3333H29.3359V42.6666H42.6693V29.3333Z" fill="#D34B6A"/>
<path d="M19.3359 47.6667C19.3359 50.4167 21.5859 52.6667 24.3359 52.6667C27.0859 52.6667 29.3359 50.4167 29.3359 47.6667V42.6667H24.3359C21.5859 42.6667 19.3359 44.9167 19.3359 47.6667Z" fill="#E79CAD"/>
<path d="M24.3359 19.3333C21.5859 19.3333 19.3359 21.5833 19.3359 24.3333C19.3359 27.0833 21.5859 29.3333 24.3359 29.3333H29.3359V24.3333C29.3359 21.5833 27.0859 19.3333 24.3359 19.3333Z" fill="#E79CAD"/>
<path d="M52.6641 24.3333C52.6641 21.5833 50.4141 19.3333 47.6641 19.3333C44.9141 19.3333 42.6641 21.5833 42.6641 24.3333V29.3333H47.6641C50.4141 29.3333 52.6641 27.0833 52.6641 24.3333Z" fill="#E79CAD"/>
<path d="M47.6641 42.6667H42.6641V47.6667C42.6641 50.4167 44.9141 52.6667 47.6641 52.6667C50.4141 52.6667 52.6641 50.4167 52.6641 47.6667C52.6641 44.9167 50.4141 42.6667 47.6641 42.6667Z" fill="#E79CAD"/>
</svg>
