<svg width="72" height="72" viewBox="0 0 72 72" fill="none" xmlns="http://www.w3.org/2000/svg">
<rect width="72" height="72" rx="12" fill="#FCF1ED"/>
<path d="M52.2307 34.45C52.1474 33.6 51.4307 32.9667 50.5807 32.9667H37.9974C37.0807 32.9667 36.3307 33.7167 36.3307 34.6333V37.4834C36.3307 38.4 37.0807 39.15 37.9974 39.15H45.5141C45.3307 40.6834 44.3307 43 42.1141 44.55C40.6974 45.5334 38.8141 46.2167 36.3307 46.2167C36.2141 46.2167 36.1141 46.2167 35.9974 46.2C31.7474 46.0667 28.1474 43.2167 26.8474 39.3C26.4974 38.25 26.2974 37.15 26.2974 36C26.2974 34.85 26.4974 33.7333 26.8307 32.7C26.9307 32.4 27.0474 32.1 27.1807 31.8C28.7141 28.35 32.0641 25.9167 35.9974 25.8C36.0974 25.7834 36.2141 25.7833 36.3307 25.7833C38.7141 25.7833 40.4974 26.5667 41.7474 27.4333C42.3974 27.8833 43.2641 27.7833 43.8307 27.2333L46.1474 24.9667C46.8807 24.25 46.8141 23.0333 45.9807 22.4333C43.3307 20.4833 40.0974 19.3333 36.3307 19.3333C36.2141 19.3333 36.1141 19.3334 35.9974 19.35C29.6141 19.4667 24.1307 23.1667 21.4474 28.5167C20.3141 30.7834 19.6641 33.3167 19.6641 36C19.6641 38.6833 20.3141 41.2167 21.4474 43.4833H21.4641C24.1474 48.8333 29.6307 52.5333 35.9974 52.65C36.1141 52.6667 36.2141 52.6667 36.3307 52.6667C40.8307 52.6667 44.6141 51.1833 47.3641 48.6333C50.5141 45.7167 52.3307 41.45 52.3307 36.3667C52.3307 35.65 52.2974 35.0334 52.2307 34.45Z" fill="#E0704A"/>
</svg>
