<svg width="72" height="72" viewBox="0 0 72 72" fill="none" xmlns="http://www.w3.org/2000/svg">
<rect width="72" height="72" rx="12" fill="#EDF3FE"/>
<path d="M49.1693 38.5H22.8359C20.3359 38.5 19.3359 39.5667 19.3359 42.2167V48.95C19.3359 51.6 20.3359 52.6667 22.8359 52.6667H49.1693C51.6693 52.6667 52.6693 51.6 52.6693 48.95V42.2167C52.6693 39.5667 51.6693 38.5 49.1693 38.5Z" fill="#4A86F7"/>
<path d="M37.5026 19.3333H22.8359C20.3359 19.3333 19.3359 20.4 19.3359 23.05V29.7833C19.3359 32.4333 20.3359 33.5 22.8359 33.5H37.5026C40.0026 33.5 41.0026 32.4333 41.0026 29.7833V23.05C41.0026 20.4 40.0026 19.3333 37.5026 19.3333Z" fill="#A3C2FB"/>
</svg>
