<svg width="72" height="72" viewBox="0 0 72 72" fill="none" xmlns="http://www.w3.org/2000/svg">
<rect width="72" height="72" rx="12" fill="#FEF6ED"/>
<path d="M36.0026 19.3334C26.8193 19.3334 19.3359 26.8167 19.3359 36C19.3359 45.1834 26.8193 52.6667 36.0026 52.6667C45.1859 52.6667 52.6693 45.1834 52.6693 36C52.6693 26.8167 45.1859 19.3334 36.0026 19.3334ZM43.2526 41.95C43.0193 42.35 42.6026 42.5667 42.1693 42.5667C41.9526 42.5667 41.7359 42.5167 41.5359 42.3834L36.3693 39.3C35.0859 38.5334 34.1359 36.85 34.1359 35.3667V28.5334C34.1359 27.85 34.7026 27.2834 35.3859 27.2834C36.0693 27.2834 36.6359 27.85 36.6359 28.5334V35.3667C36.6359 35.9667 37.1359 36.85 37.6526 37.15L42.8193 40.2334C43.4193 40.5834 43.6193 41.35 43.2526 41.95Z" fill="#E0704A"/>
</svg>
