<svg width="72" height="72" viewBox="0 0 72 72" fill="none" xmlns="http://www.w3.org/2000/svg">
<rect width="72" height="72" rx="12" fill="#FBEDF0"/>
<path d="M50.9833 32.1835C50.4167 31.9502 49.6667 31.8335 48.7333 31.8335H39.9333C37.0333 31.8335 36 32.8668 36 35.8002V48.7002C36 49.6668 36.1167 50.4168 36.3667 51.0002C36.8833 52.2002 37.9833 52.6668 39.9333 52.6668H48.7333C51.6333 52.6668 52.6667 51.6168 52.6667 48.7002V35.8002C52.6667 33.8168 52.2 32.7002 50.9833 32.1835ZM46 48.9168H42.6667C42.6333 48.9168 42.5833 48.9168 42.55 48.9002C42.3 48.8835 42.0833 48.8002 41.9 48.6335C41.6 48.4168 41.4167 48.0668 41.4167 47.6668C41.4167 46.9835 41.9833 46.4168 42.6667 46.4168H46C46.6833 46.4168 47.25 46.9835 47.25 47.6668C47.25 48.3502 46.6833 48.9168 46 48.9168Z" fill="#E79CAD"/>
<path d="M50.9849 26.3168V27.6668C50.9849 28.5835 50.2349 29.3335 49.3182 29.3335H39.9349C35.6682 29.3335 33.5016 31.5168 33.5016 35.8002V51.0002C33.5016 51.9168 32.7516 52.6668 31.8349 52.6668H28.5849C27.9182 52.6668 27.3849 52.1335 27.3849 51.4835C27.3849 50.8168 27.9182 50.3002 28.5849 50.3002H31.8349V43.9168H26.0016C22.3016 43.7335 19.3516 40.6835 19.3516 36.9335V26.3168C19.3516 22.4668 22.4849 19.3335 26.3516 19.3335H44.0016C47.8516 19.3335 50.9849 22.4668 50.9849 26.3168Z" fill="#D34B6A"/>
</svg>
