<svg width="72" height="72" viewBox="0 0 72 72" fill="none" xmlns="http://www.w3.org/2000/svg">
<rect width="72" height="72" rx="12" fill="#F3F9F1"/>
<path d="M43.0641 19.3335H28.9307C24.3307 19.3335 22.6641 21.0002 22.6641 25.6835V46.3168C22.6641 51.0002 24.3307 52.6668 28.9307 52.6668H43.0474C47.6641 52.6668 49.3307 51.0002 49.3307 46.3168V25.6835C49.3307 21.0002 47.6641 19.3335 43.0641 19.3335ZM35.9974 48.1668C34.3974 48.1668 33.0807 46.8502 33.0807 45.2502C33.0807 43.6502 34.3974 42.3335 35.9974 42.3335C37.5974 42.3335 38.9141 43.6502 38.9141 45.2502C38.9141 46.8502 37.5974 48.1668 35.9974 48.1668ZM39.3307 26.4168H32.6641C31.9807 26.4168 31.4141 25.8502 31.4141 25.1668C31.4141 24.4835 31.9807 23.9168 32.6641 23.9168H39.3307C40.0141 23.9168 40.5807 24.4835 40.5807 25.1668C40.5807 25.8502 40.0141 26.4168 39.3307 26.4168Z" fill="#83BF6E"/>
</svg>
