<svg width="72" height="72" viewBox="0 0 72 72" fill="none" xmlns="http://www.w3.org/2000/svg">
<rect width="72" height="72" rx="12" fill="#EEF8FE"/>
<path d="M46.7827 44.0502L47.4327 49.3168C47.5993 50.7002 46.116 51.6668 44.9327 50.9502L39.166 47.5168C38.766 47.2835 38.666 46.7835 38.8827 46.3835C39.716 44.8502 40.166 43.1168 40.166 41.3835C40.166 35.2835 34.9327 30.3168 28.4993 30.3168C27.1827 30.3168 25.8993 30.5168 24.6993 30.9168C24.0827 31.1168 23.4827 30.5502 23.6327 29.9168C25.1493 23.8502 30.9827 19.3335 37.9493 19.3335C46.0827 19.3335 52.666 25.4835 52.666 33.0668C52.666 37.5668 50.3493 41.5502 46.7827 44.0502Z" fill="#84CAF4"/>
<path d="M37.6693 41.3836C37.6693 43.3669 36.9359 45.2002 35.7026 46.6502C34.0526 48.6502 31.4359 49.9336 28.5026 49.9336L24.1526 52.5169C23.4193 52.9669 22.4859 52.3502 22.5859 51.5002L23.0026 48.2169C20.7693 46.6669 19.3359 44.1836 19.3359 41.3836C19.3359 38.4502 20.9026 35.8669 23.3026 34.3336C24.7859 33.3669 26.5693 32.8169 28.5026 32.8169C33.5693 32.8169 37.6693 36.6502 37.6693 41.3836Z" fill="#ABDAF7"/>
</svg>
