<svg width="72" height="72" viewBox="0 0 72 72" fill="none" xmlns="http://www.w3.org/2000/svg">
<rect width="72" height="72" rx="12" fill="#FCF1ED"/>
<path d="M45.087 44.8329C42.287 44.8329 39.7036 43.5162 38.0203 41.1995C37.6203 40.6495 37.737 39.8662 38.287 39.4495C38.837 39.0329 39.6203 39.1662 40.037 39.7162C41.2536 41.3662 43.087 42.3162 45.087 42.3162C48.5703 42.3162 51.4203 39.4829 51.4203 35.9829C51.4203 32.4829 48.587 29.6495 45.087 29.6495C42.7203 29.6495 40.487 30.9162 39.2703 32.9329L34.8536 40.2829C33.187 43.0662 30.137 44.7829 26.9036 44.7829C22.037 44.7829 18.0703 40.8162 18.0703 35.9495C18.0703 31.0829 22.037 27.1162 26.9036 27.1162C29.7036 27.1162 32.287 28.4329 33.9703 30.7495C34.3703 31.2995 34.2536 32.0829 33.7036 32.4995C33.137 32.9162 32.3703 32.7829 31.9536 32.2329C30.7536 30.6162 28.9203 29.6662 26.9203 29.6662C23.437 29.6662 20.587 32.4995 20.587 35.9995C20.587 39.4995 23.4203 42.3329 26.9203 42.3329C29.287 42.3329 31.5203 41.0662 32.737 39.0495L37.1536 31.6995C38.8203 28.9162 41.8703 27.1995 45.1036 27.1995C49.9703 27.1995 53.937 31.1662 53.937 36.0329C53.937 40.8995 49.9536 44.8329 45.087 44.8329Z" fill="#E0704A"/>
<path d="M26.8333 39.3337C28.6743 39.3337 30.1667 37.8413 30.1667 36.0003C30.1667 34.1594 28.6743 32.667 26.8333 32.667C24.9924 32.667 23.5 34.1594 23.5 36.0003C23.5 37.8413 24.9924 39.3337 26.8333 39.3337Z" fill="#FAA284"/>
<path d="M45.1693 39.3337C47.0102 39.3337 48.5026 37.8413 48.5026 36.0003C48.5026 34.1594 47.0102 32.667 45.1693 32.667C43.3283 32.667 41.8359 34.1594 41.8359 36.0003C41.8359 37.8413 43.3283 39.3337 45.1693 39.3337Z" fill="#FAA284"/>
</svg>
