<svg width="72" height="72" viewBox="0 0 72 72" fill="none" xmlns="http://www.w3.org/2000/svg">
<rect width="72" height="72" rx="12" fill="#FBEDF0"/>
<path d="M42.6693 29.3335H29.3359V42.6668H42.6693V29.3335Z" fill="#D34B6A"/>
<path d="M19.3359 47.6665C19.3359 50.4165 21.5859 52.6665 24.3359 52.6665C27.0859 52.6665 29.3359 50.4165 29.3359 47.6665V42.6665H24.3359C21.5859 42.6665 19.3359 44.9165 19.3359 47.6665Z" fill="#E79CAD"/>
<path d="M24.3359 19.3335C21.5859 19.3335 19.3359 21.5835 19.3359 24.3335C19.3359 27.0835 21.5859 29.3335 24.3359 29.3335H29.3359V24.3335C29.3359 21.5835 27.0859 19.3335 24.3359 19.3335Z" fill="#E79CAD"/>
<path d="M52.6641 24.3335C52.6641 21.5835 50.4141 19.3335 47.6641 19.3335C44.9141 19.3335 42.6641 21.5835 42.6641 24.3335V29.3335H47.6641C50.4141 29.3335 52.6641 27.0835 52.6641 24.3335Z" fill="#E79CAD"/>
<path d="M47.6641 42.6665H42.6641V47.6665C42.6641 50.4165 44.9141 52.6665 47.6641 52.6665C50.4141 52.6665 52.6641 50.4165 52.6641 47.6665C52.6641 44.9165 50.4141 42.6665 47.6641 42.6665Z" fill="#E79CAD"/>
</svg>
