<svg width="72" height="72" viewBox="0 0 72 72" fill="none" xmlns="http://www.w3.org/2000/svg">
<rect width="72" height="72" rx="12" fill="#EEF8FE"/>
<path d="M42.9859 19.333H29.0193C22.9526 19.333 19.3359 22.9497 19.3359 29.0163V42.9663C19.3359 49.0497 22.9526 52.6663 29.0193 52.6663H42.9693C49.0359 52.6663 52.6526 49.0497 52.6526 42.983V29.0163C52.6693 22.9497 49.0526 19.333 42.9859 19.333ZM44.7693 32.5997L40.9193 37.5663C40.4359 38.183 39.7526 38.583 38.9693 38.6663C38.1859 38.7663 37.4193 38.5497 36.8026 38.0663L33.7526 35.6663C33.6359 35.5663 33.5026 35.5663 33.4359 35.583C33.3693 35.583 33.2526 35.6163 33.1526 35.7497L29.1859 40.8997C28.9359 41.2163 28.5693 41.383 28.2026 41.383C27.9359 41.383 27.6693 41.2997 27.4359 41.1163C26.8859 40.6997 26.7859 39.9163 27.2026 39.3663L31.1693 34.2163C31.6526 33.5997 32.3359 33.1997 33.1193 33.0997C33.8859 32.9997 34.6693 33.2163 35.2859 33.6997L38.3359 36.0997C38.4526 36.1997 38.5693 36.1997 38.6526 36.183C38.7193 36.183 38.8359 36.1497 38.9359 36.0163L42.7859 31.0497C43.2026 30.4997 44.0026 30.3997 44.5359 30.833C45.0859 31.283 45.1859 32.0663 44.7693 32.5997Z" fill="#4A86F7"/>
</svg>
