<svg width="72" height="72" viewBox="0 0 72 72" fill="none" xmlns="http://www.w3.org/2000/svg">
<rect width="72" height="72" rx="12" fill="#FBEDF0"/>
<path d="M46.0026 21H26.0026C22.3193 21 19.3359 23.9667 19.3359 27.6167V44.3833C19.3359 48.0333 22.3193 51 26.0026 51H46.0026C49.6859 51 52.6693 48.0333 52.6693 44.3833V27.6167C52.6693 23.9667 49.6859 21 46.0026 21ZM30.1693 27.95C32.2859 27.95 34.0193 29.6833 34.0193 31.8C34.0193 33.9167 32.2859 35.65 30.1693 35.65C28.0526 35.65 26.3193 33.9167 26.3193 31.8C26.3193 29.6833 28.0526 27.95 30.1693 27.95ZM36.6193 43.7667C36.4693 43.9333 36.2359 44.0333 36.0026 44.0333H24.3359C24.1026 44.0333 23.8693 43.9333 23.7193 43.7667C23.5693 43.6 23.4859 43.3667 23.5026 43.1333C23.7859 40.3333 26.0193 38.1167 28.8193 37.85C29.7026 37.7667 30.6193 37.7667 31.5026 37.85C34.3026 38.1167 36.5526 40.3333 36.8193 43.1333C36.8526 43.3667 36.7693 43.6 36.6193 43.7667ZM47.6693 43.9167H44.3359C43.6526 43.9167 43.0859 43.35 43.0859 42.6667C43.0859 41.9833 43.6526 41.4167 44.3359 41.4167H47.6693C48.3526 41.4167 48.9193 41.9833 48.9193 42.6667C48.9193 43.35 48.3526 43.9167 47.6693 43.9167ZM47.6693 37.25H41.0026C40.3193 37.25 39.7526 36.6833 39.7526 36C39.7526 35.3167 40.3193 34.75 41.0026 34.75H47.6693C48.3526 34.75 48.9193 35.3167 48.9193 36C48.9193 36.6833 48.3526 37.25 47.6693 37.25ZM47.6693 30.5833H39.3359C38.6526 30.5833 38.0859 30.0167 38.0859 29.3333C38.0859 28.65 38.6526 28.0833 39.3359 28.0833H47.6693C48.3526 28.0833 48.9193 28.65 48.9193 29.3333C48.9193 30.0167 48.3526 30.5833 47.6693 30.5833Z" fill="#D34B6A"/>
</svg>
