<svg width="72" height="72" viewBox="0 0 72 72" fill="none" xmlns="http://www.w3.org/2000/svg">
<rect width="72" height="72" rx="12" fill="#FBEDF0"/>
<path d="M43.9144 21.933V19.333C43.9144 18.6497 43.3478 18.083 42.6644 18.083C41.9811 18.083 41.4144 18.6497 41.4144 19.333V21.833H30.5811V19.333C30.5811 18.6497 30.0144 18.083 29.3311 18.083C28.6478 18.083 28.0811 18.6497 28.0811 19.333V21.933C23.5811 22.3497 21.3978 25.033 21.0644 29.0163C21.0311 29.4997 21.4311 29.8997 21.8978 29.8997H50.0978C50.5811 29.8997 50.9811 29.483 50.9311 29.0163C50.5978 25.033 48.4144 22.3497 43.9144 21.933Z" fill="#E79CAD"/>
<path d="M49.3333 32.3994H22.6667C21.75 32.3994 21 33.1494 21 34.0661V44.3327C21 49.3327 23.5 52.6661 29.3333 52.6661H42.6667C48.5 52.6661 51 49.3327 51 44.3327V34.0661C51 33.1494 50.25 32.3994 49.3333 32.3994ZM31.35 46.3494C31.2667 46.4161 31.1833 46.4994 31.1 46.5494C31 46.6161 30.9 46.6661 30.8 46.6994C30.7 46.7494 30.6 46.7827 30.5 46.7994C30.3833 46.8161 30.2833 46.8327 30.1667 46.8327C29.95 46.8327 29.7333 46.7827 29.5333 46.6994C29.3167 46.6161 29.15 46.4994 28.9833 46.3494C28.6833 46.0327 28.5 45.5994 28.5 45.1661C28.5 44.7327 28.6833 44.2994 28.9833 43.9828C29.15 43.8328 29.3167 43.7161 29.5333 43.6327C29.8333 43.4994 30.1667 43.4661 30.5 43.5327C30.6 43.5494 30.7 43.5827 30.8 43.6327C30.9 43.6661 31 43.7161 31.1 43.7827C31.1833 43.8494 31.2667 43.9161 31.35 43.9828C31.65 44.2994 31.8333 44.7327 31.8333 45.1661C31.8333 45.5994 31.65 46.0327 31.35 46.3494ZM31.35 40.5161C31.0333 40.8161 30.6 40.9994 30.1667 40.9994C29.7333 40.9994 29.3 40.8161 28.9833 40.5161C28.6833 40.1994 28.5 39.7661 28.5 39.3327C28.5 38.8994 28.6833 38.4661 28.9833 38.1494C29.45 37.6827 30.1833 37.5327 30.8 37.7994C31.0167 37.8827 31.2 37.9994 31.35 38.1494C31.65 38.4661 31.8333 38.8994 31.8333 39.3327C31.8333 39.7661 31.65 40.1994 31.35 40.5161ZM37.1833 46.3494C36.8667 46.6494 36.4333 46.8327 36 46.8327C35.5667 46.8327 35.1333 46.6494 34.8167 46.3494C34.5167 46.0327 34.3333 45.5994 34.3333 45.1661C34.3333 44.7327 34.5167 44.2994 34.8167 43.9828C35.4333 43.3661 36.5667 43.3661 37.1833 43.9828C37.4833 44.2994 37.6667 44.7327 37.6667 45.1661C37.6667 45.5994 37.4833 46.0327 37.1833 46.3494ZM37.1833 40.5161C37.1 40.5827 37.0167 40.6494 36.9333 40.7161C36.8333 40.7827 36.7333 40.8327 36.6333 40.8661C36.5333 40.9161 36.4333 40.9494 36.3333 40.9661C36.2167 40.9827 36.1167 40.9994 36 40.9994C35.5667 40.9994 35.1333 40.8161 34.8167 40.5161C34.5167 40.1994 34.3333 39.7661 34.3333 39.3327C34.3333 38.8994 34.5167 38.4661 34.8167 38.1494C34.9667 37.9994 35.15 37.8827 35.3667 37.7994C35.9833 37.5327 36.7167 37.6827 37.1833 38.1494C37.4833 38.4661 37.6667 38.8994 37.6667 39.3327C37.6667 39.7661 37.4833 40.1994 37.1833 40.5161ZM43.0167 46.3494C42.7 46.6494 42.2667 46.8327 41.8333 46.8327C41.4 46.8327 40.9667 46.6494 40.65 46.3494C40.35 46.0327 40.1667 45.5994 40.1667 45.1661C40.1667 44.7327 40.35 44.2994 40.65 43.9828C41.2667 43.3661 42.4 43.3661 43.0167 43.9828C43.3167 44.2994 43.5 44.7327 43.5 45.1661C43.5 45.5994 43.3167 46.0327 43.0167 46.3494ZM43.0167 40.5161C42.9333 40.5827 42.85 40.6494 42.7667 40.7161C42.6667 40.7827 42.5667 40.8327 42.4667 40.8661C42.3667 40.9161 42.2667 40.9494 42.1667 40.9661C42.05 40.9827 41.9333 40.9994 41.8333 40.9994C41.4 40.9994 40.9667 40.8161 40.65 40.5161C40.35 40.1994 40.1667 39.7661 40.1667 39.3327C40.1667 38.8994 40.35 38.4661 40.65 38.1494C40.8167 37.9994 40.9833 37.8827 41.2 37.7994C41.5 37.6661 41.8333 37.6327 42.1667 37.6994C42.2667 37.7161 42.3667 37.7494 42.4667 37.7994C42.5667 37.8327 42.6667 37.8827 42.7667 37.9494C42.85 38.0161 42.9333 38.0827 43.0167 38.1494C43.3167 38.4661 43.5 38.8994 43.5 39.3327C43.5 39.7661 43.3167 40.1994 43.0167 40.5161Z" fill="#D34B6A"/>
</svg>
