<svg width="72" height="72" viewBox="0 0 72 72" fill="none" xmlns="http://www.w3.org/2000/svg">
<rect width="72" height="72" rx="12" fill="#EEF8FE"/>
<path d="M26 24.5334C25.3167 24.5334 24.75 23.9667 24.75 23.2834V20.3667C24.75 19.6834 25.3167 19.1167 26 19.1167C26.6833 19.1167 27.25 19.6834 27.25 20.3667V23.2834C27.25 23.9834 26.6833 24.5334 26 24.5334Z" fill="#83BF6E"/>
<path d="M32.6641 24.5334C31.9807 24.5334 31.4141 23.9667 31.4141 23.2834V20.3667C31.4141 19.6834 31.9807 19.1167 32.6641 19.1167C33.3474 19.1167 33.9141 19.6834 33.9141 20.3667V23.2834C33.9141 23.9834 33.3474 24.5334 32.6641 24.5334Z" fill="#ABDAF7"/>
<path d="M39.3359 24.5334C38.6526 24.5334 38.0859 23.9667 38.0859 23.2834V20.3667C38.0859 19.6834 38.6526 19.1167 39.3359 19.1167C40.0193 19.1167 40.5859 19.6834 40.5859 20.3667V23.2834C40.5859 23.9834 40.0193 24.5334 39.3359 24.5334Z" fill="#ABDAF7"/>
<path d="M53.0807 38.0831C53.0807 33.7164 49.6974 30.1831 45.4307 29.8164C44.1974 27.7998 41.9974 26.4331 39.4641 26.4331H27.1807C23.3141 26.4331 20.1641 29.5831 20.1641 33.4498V34.3331H46.4807V33.4498C46.4807 33.1331 46.4307 32.8164 46.3807 32.5164C48.7974 33.2331 50.5807 35.4331 50.5807 38.0831C50.5807 40.6998 48.8474 42.8831 46.4807 43.6164V35.9998H20.1641V45.6498C20.1641 49.5164 23.3141 52.6664 27.1807 52.6664H39.4641C43.1307 52.6664 46.1141 49.8331 46.4141 46.2331C50.2141 45.4664 53.0807 42.0998 53.0807 38.0831Z" fill="#57B6F0"/>
</svg>
