<svg width="72" height="72" viewBox="0 0 72 72" fill="none" xmlns="http://www.w3.org/2000/svg">
<rect width="72" height="72" rx="12" fill="#FEF6ED"/>
<path d="M39.913 19.3335H32.0797C30.3464 19.3335 28.9297 20.7335 28.9297 22.4668V24.0335C28.9297 25.7668 30.3297 27.1668 32.063 27.1668H39.913C41.6464 27.1668 43.0464 25.7668 43.0464 24.0335V22.4668C43.063 20.7335 41.6464 19.3335 39.913 19.3335Z" fill="#F2A84C"/>
<path d="M44.7344 24.0333C44.7344 26.6833 42.5677 28.85 39.9177 28.85H32.0844C29.4344 28.85 27.2677 26.6833 27.2677 24.0333C27.2677 23.1 26.2677 22.5166 25.4344 22.95C23.0844 24.2 21.4844 26.6833 21.4844 29.5333V45.2166C21.4844 49.3166 24.8344 52.6666 28.9344 52.6666H43.0677C47.1677 52.6666 50.5177 49.3166 50.5177 45.2166V29.5333C50.5177 26.6833 48.9177 24.2 46.5677 22.95C45.7344 22.5166 44.7344 23.1 44.7344 24.0333ZM41.8844 45.2166C41.6344 45.4666 41.3177 45.5833 41.001 45.5833C40.6844 45.5833 40.3677 45.4666 40.1177 45.2166L32.251 37.35V39.3333C32.251 40.0166 31.6844 40.5833 31.001 40.5833C30.3177 40.5833 29.751 40.0166 29.751 39.3333V34.3333C29.751 33.65 30.3177 33.0833 31.001 33.0833H36.001C36.6844 33.0833 37.251 33.65 37.251 34.3333C37.251 35.0166 36.6844 35.5833 36.001 35.5833H34.0177L41.8844 43.45C42.3677 43.9333 42.3677 44.7333 41.8844 45.2166Z" fill="#F2A84C"/>
</svg>
