<svg width="72" height="72" viewBox="0 0 72 72" fill="none" xmlns="http://www.w3.org/2000/svg">
<rect width="72" height="72" rx="12" fill="#EDF3FE"/>
<path d="M49.1693 38.5H22.8359C20.3359 38.5 19.3359 39.5667 19.3359 42.2167V48.95C19.3359 51.6 20.3359 52.6667 22.8359 52.6667H49.1693C51.6693 52.6667 52.6693 51.6 52.6693 48.95V42.2167C52.6693 39.5667 51.6693 38.5 49.1693 38.5Z" fill="#4A86F7"/>
<path d="M37.5026 19.333H22.8359C20.3359 19.333 19.3359 20.3997 19.3359 23.0497V29.783C19.3359 32.433 20.3359 33.4997 22.8359 33.4997H37.5026C40.0026 33.4997 41.0026 32.433 41.0026 29.783V23.0497C41.0026 20.3997 40.0026 19.333 37.5026 19.333Z" fill="#A3C2FB"/>
</svg>
