<svg width="72" height="72" viewBox="0 0 72 72" fill="none" xmlns="http://www.w3.org/2000/svg">
<rect width="72" height="72" rx="12" fill="#F3F9F1"/>
<path d="M28.9141 21.8335V19.3335C28.9141 18.6502 28.3474 18.0835 27.6641 18.0835C26.9807 18.0835 26.4141 18.6502 26.4141 19.3335V21.9335C26.8307 21.8835 27.2141 21.8335 27.6641 21.8335H28.9141Z" fill="#83BF6E"/>
<path d="M42.25 21.9335V19.3335C42.25 18.6502 41.6833 18.0835 41 18.0835C40.3167 18.0835 39.75 18.6502 39.75 19.3335V21.8335H41C41.45 21.8335 41.8333 21.8835 42.25 21.9335Z" fill="#83BF6E"/>
<path d="M51.4859 40.9502C50.2026 39.9335 48.5859 39.3335 46.8359 39.3335C45.0859 39.3335 43.4359 39.9502 42.1526 40.9835C40.4193 42.3502 39.3359 44.4835 39.3359 46.8335C39.3359 48.2335 39.7359 49.5835 40.4193 50.6835C40.9526 51.5502 41.6359 52.3168 42.4526 52.9002C43.6859 53.8002 45.1859 54.3335 46.8359 54.3335C48.7359 54.3335 50.4526 53.6335 51.7693 52.4668C52.3526 51.9835 52.8526 51.3835 53.2526 50.7002C53.9359 49.5835 54.3359 48.2335 54.3359 46.8335C54.3359 44.4502 53.2193 42.3168 51.4859 40.9502ZM46.8359 50.4002C46.8359 48.4335 45.2359 46.8335 43.2693 46.8335C45.2359 46.8335 46.8359 45.2335 46.8359 43.2668C46.8359 45.2335 48.4359 46.8335 50.4026 46.8335C48.4359 46.8335 46.8359 48.4335 46.8359 50.4002Z" fill="#BBDCAF"/>
<path d="M42.2526 21.9335V24.3335C42.2526 25.0168 41.6859 25.5835 41.0026 25.5835C40.3193 25.5835 39.7526 25.0168 39.7526 24.3335V21.8335H28.9193V24.3335C28.9193 25.0168 28.3526 25.5835 27.6693 25.5835C26.9859 25.5835 26.4193 25.0168 26.4193 24.3335V21.9335C21.5026 22.3835 19.3359 25.5502 19.3359 30.1668V44.3335C19.3359 49.3335 21.8359 52.6668 27.6693 52.6668H34.5526C35.8193 52.6668 36.6693 51.2502 36.3526 50.0168C36.1193 49.1168 36.0026 48.1835 36.0026 47.2502C36.0026 43.7835 37.5526 40.5835 40.2359 38.4668C42.1859 36.8835 44.6859 36.0002 47.2526 36.0002H47.3193C48.3693 36.0002 49.3359 35.2335 49.3359 34.1835V30.1668C49.3359 25.5502 47.1693 22.3835 42.2526 21.9335ZM31.0026 43.9168H27.6693C26.9859 43.9168 26.4193 43.3502 26.4193 42.6668C26.4193 41.9835 26.9859 41.4168 27.6693 41.4168H31.0026C31.6859 41.4168 32.2526 41.9835 32.2526 42.6668C32.2526 43.3502 31.6859 43.9168 31.0026 43.9168ZM36.0026 35.5835H27.6693C26.9859 35.5835 26.4193 35.0168 26.4193 34.3335C26.4193 33.6502 26.9859 33.0835 27.6693 33.0835H36.0026C36.6859 33.0835 37.2526 33.6502 37.2526 34.3335C37.2526 35.0168 36.6859 35.5835 36.0026 35.5835Z" fill="#83BF6E"/>
</svg>
