<svg width="72" height="72" viewBox="0 0 72 72" fill="none" xmlns="http://www.w3.org/2000/svg">
<rect width="72" height="72" rx="12" fill="#EDF3FE"/>
<path d="M28.7516 50.8501C28.7016 50.8501 28.6349 50.8834 28.5849 50.8834C25.3516 49.2834 22.7182 46.6334 21.1016 43.4001C21.1016 43.3501 21.1349 43.2834 21.1349 43.2334C23.1682 43.8334 25.2682 44.2834 27.3516 44.6334C27.7182 46.7334 28.1516 48.8167 28.7516 50.8501Z" fill="#83BF6E"/>
<path d="M50.8984 43.4167C49.2484 46.7334 46.4984 49.4167 43.1484 51.0334C43.7818 48.9167 44.3151 46.7834 44.6651 44.6334C46.7651 44.2834 48.8318 43.8334 50.8651 43.2334C50.8484 43.3001 50.8984 43.3667 50.8984 43.4167Z" fill="#4A86F7"/>
<path d="M51.0318 28.8501C48.9318 28.2168 46.8151 27.7001 44.6651 27.3335C44.3151 25.1835 43.7984 23.0501 43.1484 20.9668C46.5984 22.6168 49.3818 25.4001 51.0318 28.8501Z" fill="#4A86F7"/>
<path d="M28.7521 21.1477C28.1521 23.181 27.7187 25.2477 27.3687 27.3477C25.2187 27.681 23.0854 28.2143 20.9688 28.8477C22.5854 25.4977 25.2687 22.7477 28.5854 21.0977C28.6354 21.0977 28.7021 21.1477 28.7521 21.1477Z" fill="#4A86F7"/>
<path d="M41.813 26.9835C37.9464 26.5502 34.0464 26.5502 30.1797 26.9835C30.5964 24.7002 31.1297 22.4168 31.8797 20.2168C31.913 20.0835 31.8964 19.9835 31.913 19.8502C33.2297 19.5335 34.5797 19.3335 35.9964 19.3335C37.3964 19.3335 38.763 19.5335 40.063 19.8502C40.0797 19.9835 40.0797 20.0835 40.113 20.2168C40.863 22.4335 41.3964 24.7002 41.813 26.9835Z" fill="#4A86F7"/>
<path d="M26.9859 41.8194C24.6859 41.4027 22.4193 40.8694 20.2193 40.1194C20.0859 40.086 19.9859 40.1027 19.8526 40.086C19.5359 38.7694 19.3359 37.4194 19.3359 36.0027C19.3359 34.6027 19.5359 33.236 19.8526 31.936C19.9859 31.9194 20.0859 31.9194 20.2193 31.886C22.4359 31.1527 24.6859 30.6027 26.9859 30.186C26.5693 34.0527 26.5693 37.9527 26.9859 41.8194Z" fill="#4A86F7"/>
<path d="M52.6656 36.0027C52.6656 37.4194 52.4656 38.7694 52.149 40.086C52.0156 40.1027 51.9156 40.086 51.7823 40.1194C49.5656 40.8527 47.299 41.4027 45.0156 41.8194C45.449 37.9527 45.449 34.0527 45.0156 30.186C47.299 30.6027 49.5823 31.136 51.7823 31.886C51.9156 31.9194 52.0156 31.936 52.149 31.936C52.4656 33.2527 52.6656 34.6027 52.6656 36.0027Z" fill="#4A86F7"/>
<path d="M41.813 45.0166C41.3964 47.3166 40.863 49.5833 40.113 51.7833C40.0797 51.9166 40.0797 52.0166 40.063 52.1499C38.763 52.4666 37.3964 52.6666 35.9964 52.6666C34.5797 52.6666 33.2297 52.4666 31.913 52.1499C31.8964 52.0166 31.913 51.9166 31.8797 51.7833C31.1464 49.5666 30.5964 47.3166 30.1797 45.0166C32.113 45.2333 34.0464 45.3833 35.9964 45.3833C37.9464 45.3833 39.8964 45.2333 41.813 45.0166Z" fill="#4A86F7"/>
<path d="M42.2748 42.2724C38.1063 42.7983 33.8989 42.7983 29.7304 42.2724C29.2045 38.1039 29.2045 33.8964 29.7304 29.7279C33.8989 29.202 38.1063 29.202 42.2748 29.7279C42.8008 33.8964 42.8008 38.1039 42.2748 42.2724Z" fill="#6E9EF9"/>
</svg>
