<svg width="72" height="72" viewBox="0 0 72 72" fill="none" xmlns="http://www.w3.org/2000/svg">
<rect width="72" height="72" rx="12" fill="#F3F9F1"/>
<path d="M42.9859 19.333H29.0193C22.9526 19.333 19.3359 22.9497 19.3359 29.0163V42.9663C19.3359 49.0497 22.9526 52.6663 29.0193 52.6663H42.9693C49.0359 52.6663 52.6526 49.0497 52.6526 42.983V29.0163C52.6693 22.9497 49.0526 19.333 42.9859 19.333ZM36.0026 46.4163C33.0193 46.4163 30.6859 44.933 29.1026 43.4663V44.6497C29.1026 45.333 28.5359 45.8997 27.8526 45.8997C27.1693 45.8997 26.6026 45.333 26.6026 44.6497V40.0663C26.6026 39.383 27.1693 38.8163 27.8526 38.8163H31.9859C32.6693 38.8163 33.2359 39.383 33.2359 40.0663C33.2359 40.7497 32.6693 41.3163 31.9859 41.3163H30.4859C31.7193 42.5497 33.6359 43.9163 36.0026 43.9163C40.3693 43.9163 43.9193 40.3663 43.9193 35.9997C43.9193 35.3163 44.4859 34.7497 45.1693 34.7497C45.8526 34.7497 46.4193 35.3163 46.4193 35.9997C46.4193 41.7497 41.7526 46.4163 36.0026 46.4163ZM46.4193 31.8997C46.4193 31.9497 46.4193 31.9997 46.4193 32.033C46.4026 32.2163 46.3526 32.383 46.2693 32.533C46.1859 32.683 46.0693 32.8163 45.9193 32.933C45.8026 33.0163 45.6693 33.083 45.5193 33.133C45.4026 33.1663 45.2859 33.183 45.1693 33.183H41.1193C40.4359 33.183 39.8693 32.6163 39.8693 31.933C39.8693 31.2497 40.4359 30.683 41.1193 30.683H42.5026C41.1693 29.4497 39.0193 28.083 36.0359 28.083C31.6693 28.083 28.1193 31.633 28.1193 35.9997C28.1193 36.683 27.5526 37.2497 26.8693 37.2497C26.1859 37.2497 25.5859 36.683 25.5859 35.9997C25.5859 30.2497 30.2526 25.583 36.0026 25.583C39.5859 25.583 42.2193 27.133 43.9193 28.6163V27.3497C43.9193 26.6663 44.4859 26.0997 45.1693 26.0997C45.8526 26.0997 46.4193 26.6663 46.4193 27.3497V31.8997Z" fill="#83BF6E"/>
</svg>
