<svg width="72" height="72" viewBox="0 0 72 72" fill="none" xmlns="http://www.w3.org/2000/svg">
<rect width="72" height="72" rx="12" fill="#FEF6ED"/>
<path d="M40.2323 19.1338C38.1823 19.1338 36.5156 20.8004 36.5156 22.8504V30.5838C36.5156 32.6338 38.1823 34.3005 40.2323 34.3005C42.2823 34.3005 43.949 32.6338 43.949 30.5838V22.8504C43.949 20.8171 42.2823 19.1338 40.2323 19.1338Z" fill="#F2A84C"/>
<path d="M49.6318 27.8496C47.8484 27.8496 46.3984 29.2996 46.3984 31.0829V33.6996C46.3984 34.0496 46.6818 34.333 47.0318 34.333H49.6484C51.4318 34.333 52.8818 32.883 52.8818 31.0996C52.8818 29.3163 51.4151 27.8496 49.6318 27.8496Z" fill="#F2A84C"/>
<path d="M30.1687 27.6504H22.4354C20.3854 27.6504 18.7188 29.3171 18.7188 31.3671C18.7188 33.4171 20.3854 35.0838 22.4354 35.0838H30.1687C32.2187 35.0838 33.8854 33.4171 33.8854 31.3671C33.8854 29.3171 32.2187 27.6504 30.1687 27.6504Z" fill="#F8CF9C"/>
<path d="M30.6474 18.7002C28.864 18.7002 27.4141 20.1502 27.4141 21.9335C27.4141 23.7169 28.864 25.1669 30.6474 25.1669H33.2641C33.6141 25.1669 33.8974 24.8835 33.8974 24.5335V21.9168C33.8807 20.1668 32.4307 18.7002 30.6474 18.7002Z" fill="#F8CF9C"/>
<path d="M31.7167 37.7168C29.6667 37.7168 28 39.3835 28 41.4335V49.1668C28 51.2168 29.6667 52.8835 31.7167 52.8835C33.7667 52.8835 35.4333 51.2168 35.4333 49.1668V41.4335C35.4333 39.3835 33.7667 37.7168 31.7167 37.7168Z" fill="#F2A84C"/>
<path d="M24.9359 37.7168H22.3192C20.5359 37.7168 19.0859 39.1668 19.0859 40.9501C19.0859 42.7335 20.5359 44.1835 22.3192 44.1835C24.1026 44.1835 25.5526 42.7335 25.5526 40.9501V38.3335C25.5526 38.0001 25.2693 37.7168 24.9359 37.7168Z" fill="#F2A84C"/>
<path d="M49.5203 36.9502H41.787C39.737 36.9502 38.0703 38.6168 38.0703 40.6668C38.0703 42.7168 39.737 44.3835 41.787 44.3835H49.5203C51.5703 44.3835 53.237 42.7168 53.237 40.6668C53.237 38.6168 51.5703 36.9502 49.5203 36.9502Z" fill="#F8CF9C"/>
<path d="M41.2969 46.7832H38.6802C38.3302 46.7832 38.0469 47.0665 38.0469 47.4165V50.0332C38.0469 51.8166 39.4969 53.2665 41.2802 53.2665C43.0635 53.2665 44.5135 51.8166 44.5135 50.0332C44.5302 48.2332 43.0802 46.7832 41.2969 46.7832Z" fill="#F8CF9C"/>
</svg>
