<svg width="72" height="72" viewBox="0 0 72 72" fill="none" xmlns="http://www.w3.org/2000/svg">
<rect width="72" height="72" rx="12" fill="#FEF6ED"/>
<path d="M48.2365 40.1497L46.5698 37.383C46.2198 36.7663 45.9032 35.5997 45.9032 34.9163V30.6997C45.9032 26.783 43.6032 23.3997 40.2865 21.8163C39.4198 20.283 37.8198 19.333 35.9865 19.333C34.1698 19.333 32.5365 20.3163 31.6698 21.8663C28.4198 23.483 26.1698 26.833 26.1698 30.6997V34.9163C26.1698 35.5997 25.8532 36.7663 25.5032 37.3663L23.8198 40.1497C23.1532 41.2663 23.0032 42.4997 23.4198 43.633C23.8198 44.7497 24.7698 45.6163 26.0032 46.033C29.2365 47.133 32.6365 47.6663 36.0365 47.6663C39.4365 47.6663 42.8365 47.133 46.0698 46.0497C47.2365 45.6663 48.1365 44.783 48.5698 43.633C49.0032 42.483 48.8865 41.2163 48.2365 40.1497Z" fill="#E0704A"/>
<path d="M40.7135 49.3497C40.0135 51.283 38.1635 52.6663 35.9969 52.6663C34.6802 52.6663 33.3802 52.133 32.4635 51.183C31.9302 50.683 31.5302 50.0163 31.2969 49.333C31.5135 49.3663 31.7302 49.383 31.9635 49.4163C32.3469 49.4663 32.7469 49.5163 33.1469 49.5497C34.0969 49.633 35.0635 49.683 36.0302 49.683C36.9802 49.683 37.9302 49.633 38.8635 49.5497C39.2135 49.5163 39.5635 49.4997 39.8969 49.4497C40.1635 49.4163 40.4302 49.383 40.7135 49.3497Z" fill="#F2A84C"/>
</svg>
