<svg width="72" height="72" viewBox="0 0 72 72" fill="none" xmlns="http://www.w3.org/2000/svg">
<rect width="72" height="72" rx="12" fill="#FCF1ED"/>
<path fill-rule="evenodd" clip-rule="evenodd" d="M29.0233 21C26.24 21 24.0812 21.3226 22.7019 22.7019C21.3226 24.0812 21 26.24 21 29.0233V42.9767C21 45.76 21.3226 47.9188 22.7019 49.2981C24.0812 50.6774 26.24 51 29.0233 51H42.9767C45.76 51 47.9188 50.6774 49.2981 49.2981C50.6774 47.9188 51 45.76 51 42.9767V34.6047C51 31.8214 50.6774 29.6626 49.2981 28.2833C47.9188 26.9039 45.76 26.5814 42.9767 26.5814H38.7907C38.1875 26.5814 37.979 26.4888 37.8913 26.4358C37.7764 26.3663 37.6848 26.2644 37.3934 25.8812L35.3023 23.093L35.2564 23.0317C34.894 22.5476 34.4706 21.9821 33.8162 21.589C33.1093 21.1643 32.2534 21 31.1163 21H29.0233ZM40.4387 38.5936L41.5126 37.5086C42.3997 36.6219 42.8316 35.7819 42.8432 34.9419C42.8432 34.0552 42.4113 33.2036 41.5242 32.3169C39.785 30.5786 38.0925 30.5436 36.3183 32.3169L35.2328 33.4019C35.2226 33.4108 35.2131 33.4205 35.2043 33.4307C35.1326 33.514 35.1082 33.6376 35.1394 33.7519C35.8164 36.1202 37.7073 38.0102 40.0769 38.6869C40.1002 38.6986 40.1469 38.6986 40.1819 38.6986H40.1819C40.2753 38.6986 40.3687 38.6636 40.4387 38.5936ZM34.0188 44.9986C33.6803 45.3369 33.0383 45.6636 32.5714 45.7336L29.7 46.1419L29.7 46.1419C29.5949 46.1536 29.4899 46.1652 29.3849 46.1652C28.9063 46.1652 28.4627 46.0019 28.1476 45.6869C27.7624 45.3019 27.599 44.7419 27.6923 44.1236L28.1009 41.2536C28.1709 40.7752 28.4861 40.1452 28.8363 39.8069L34.0422 34.6036L34.0422 34.6036C34.1356 34.8486 34.2289 35.0936 34.3573 35.3736C34.4741 35.6186 34.6025 35.8752 34.7425 36.1086C34.8593 36.3069 34.9876 36.4936 35.0927 36.6336C35.2211 36.8319 35.3728 37.0186 35.4662 37.1236C35.5246 37.2052 35.5713 37.2636 35.5946 37.2869C35.8864 37.6369 36.2249 37.9636 36.5167 38.2086L36.5168 38.2086L36.5168 38.2087L36.5169 38.2087C36.5985 38.2903 36.6452 38.3369 36.6685 38.3486L36.6685 38.3486L36.6686 38.3486L36.6686 38.3486C36.8436 38.4886 37.0187 38.6286 37.1704 38.7336C37.3572 38.8736 37.5439 39.0019 37.7424 39.1069C37.9758 39.2469 38.2326 39.3752 38.4894 39.5036C38.7579 39.6202 39.003 39.7252 39.2481 39.8069L34.0188 44.9986Z" fill="#E0704A"/>
</svg>
