<svg width="72" height="72" viewBox="0 0 72 72" fill="none" xmlns="http://www.w3.org/2000/svg">
<rect width="72" height="72" rx="12" fill="#FCF1ED"/>
<path d="M47.6641 29.333C50.4255 29.333 52.6641 27.0944 52.6641 24.333C52.6641 21.5716 50.4255 19.333 47.6641 19.333C44.9026 19.333 42.6641 21.5716 42.6641 24.333C42.6641 27.0944 44.9026 29.333 47.6641 29.333Z" fill="#EFB7A4"/>
<path d="M49.0026 31.7C48.9693 31.7 48.9359 31.7167 48.9026 31.7167C48.7359 31.75 48.5693 31.7667 48.3859 31.8C47.6859 31.8667 46.9359 31.8333 46.1693 31.6833C45.9693 31.6333 45.8026 31.6 45.6193 31.5333C45.0693 31.4 44.5526 31.1833 44.0693 30.9C43.8693 30.8 43.6693 30.6667 43.4859 30.55C42.6859 30 42.0026 29.3167 41.4526 28.5167C41.3359 28.3333 41.2026 28.1333 41.1026 27.9333C40.8193 27.45 40.6026 26.9333 40.4693 26.3833C40.4026 26.2 40.3693 26.0333 40.3193 25.8333C40.1693 25.0667 40.1359 24.3167 40.2026 23.6167C40.2359 23.4333 40.2526 23.2667 40.2859 23.1C40.2859 23.0667 40.3026 23.0333 40.3026 23C40.5026 21.9667 39.7359 21 38.6693 21H28.5359C28.3026 21 28.0693 21.0167 27.8526 21.0333C27.6526 21.05 27.4693 21.0667 27.2693 21.1C27.0693 21.1167 26.8693 21.15 26.6859 21.1833C22.6693 21.7667 20.1026 24.3167 19.5193 28.35C19.4859 28.5333 19.4526 28.7333 19.4359 28.9333C19.4026 29.1333 19.3859 29.3167 19.3693 29.5167C19.3526 29.7333 19.3359 29.9667 19.3359 30.2V43.4667C19.3359 43.7 19.3526 43.9333 19.3693 44.15C19.3859 44.35 19.4026 44.5333 19.4359 44.7333C19.4526 44.9333 19.4859 45.1333 19.5193 45.3167C20.1026 49.35 22.6693 51.9 26.6859 52.4833C26.8693 52.5167 27.0693 52.55 27.2693 52.5667C27.4693 52.6 27.6526 52.6167 27.8526 52.6333C28.0693 52.65 28.3026 52.6667 28.5359 52.6667H41.8026C42.0359 52.6667 42.2693 52.65 42.4859 52.6333C42.6859 52.6167 42.8693 52.6 43.0693 52.5667C43.2693 52.55 43.4693 52.5167 43.6526 52.4833C47.6693 51.9 50.2359 49.35 50.8193 45.3167C50.8526 45.1333 50.8859 44.9333 50.9026 44.7333C50.9359 44.5333 50.9526 44.35 50.9693 44.15C50.9859 43.9333 51.0026 43.7 51.0026 43.4667V33.3333C51.0026 32.2667 50.0359 31.5 49.0026 31.7ZM27.2526 36.8333H35.5859C36.2693 36.8333 36.8359 37.4 36.8359 38.0833C36.8359 38.7667 36.2693 39.3333 35.5859 39.3333H27.2526C26.5693 39.3333 26.0026 38.7667 26.0026 38.0833C26.0026 37.4 26.5693 36.8333 27.2526 36.8333ZM42.2526 46H27.2526C26.5693 46 26.0026 45.4333 26.0026 44.75C26.0026 44.0667 26.5693 43.5 27.2526 43.5H42.2526C42.9359 43.5 43.5026 44.0667 43.5026 44.75C43.5026 45.4333 42.9359 46 42.2526 46Z" fill="#E0704A"/>
</svg>
