<svg width="72" height="72" viewBox="0 0 72 72" fill="none" xmlns="http://www.w3.org/2000/svg">
<rect width="72" height="72" rx="12" fill="#F3F9F1"/>
<path d="M28.9141 21.833V19.333C28.9141 18.6497 28.3474 18.083 27.6641 18.083C26.9807 18.083 26.4141 18.6497 26.4141 19.333V21.933C26.8307 21.883 27.2141 21.833 27.6641 21.833H28.9141Z" fill="#83BF6E"/>
<path d="M42.25 21.933V19.333C42.25 18.6497 41.6833 18.083 41 18.083C40.3167 18.083 39.75 18.6497 39.75 19.333V21.833H41C41.45 21.833 41.8333 21.883 42.25 21.933Z" fill="#83BF6E"/>
<path d="M51.4859 40.9497C50.2026 39.933 48.5859 39.333 46.8359 39.333C45.0859 39.333 43.4359 39.9497 42.1526 40.983C40.4193 42.3497 39.3359 44.483 39.3359 46.833C39.3359 48.233 39.7359 49.583 40.4193 50.683C40.9526 51.5497 41.6359 52.3163 42.4526 52.8997C43.6859 53.7997 45.1859 54.333 46.8359 54.333C48.7359 54.333 50.4526 53.633 51.7693 52.4663C52.3526 51.983 52.8526 51.383 53.2526 50.6997C53.9359 49.583 54.3359 48.233 54.3359 46.833C54.3359 44.4497 53.2193 42.3163 51.4859 40.9497ZM46.8359 50.3997C46.8359 48.433 45.2359 46.833 43.2693 46.833C45.2359 46.833 46.8359 45.233 46.8359 43.2663C46.8359 45.233 48.4359 46.833 50.4026 46.833C48.4359 46.833 46.8359 48.433 46.8359 50.3997Z" fill="#BBDCAF"/>
<path d="M42.2526 21.933V24.333C42.2526 25.0163 41.6859 25.583 41.0026 25.583C40.3193 25.583 39.7526 25.0163 39.7526 24.333V21.833H28.9193V24.333C28.9193 25.0163 28.3526 25.583 27.6693 25.583C26.9859 25.583 26.4193 25.0163 26.4193 24.333V21.933C21.5026 22.383 19.3359 25.5497 19.3359 30.1663V44.333C19.3359 49.333 21.8359 52.6663 27.6693 52.6663H34.5526C35.8193 52.6663 36.6693 51.2497 36.3526 50.0163C36.1193 49.1163 36.0026 48.183 36.0026 47.2497C36.0026 43.783 37.5526 40.583 40.2359 38.4663C42.1859 36.883 44.6859 35.9997 47.2526 35.9997H47.3193C48.3693 35.9997 49.3359 35.233 49.3359 34.183V30.1663C49.3359 25.5497 47.1693 22.383 42.2526 21.933ZM31.0026 43.9163H27.6693C26.9859 43.9163 26.4193 43.3497 26.4193 42.6663C26.4193 41.983 26.9859 41.4163 27.6693 41.4163H31.0026C31.6859 41.4163 32.2526 41.983 32.2526 42.6663C32.2526 43.3497 31.6859 43.9163 31.0026 43.9163ZM36.0026 35.583H27.6693C26.9859 35.583 26.4193 35.0163 26.4193 34.333C26.4193 33.6497 26.9859 33.083 27.6693 33.083H36.0026C36.6859 33.083 37.2526 33.6497 37.2526 34.333C37.2526 35.0163 36.6859 35.583 36.0026 35.583Z" fill="#83BF6E"/>
</svg>
