<svg width="72" height="72" viewBox="0 0 72 72" fill="none" xmlns="http://www.w3.org/2000/svg">
<rect width="72" height="72" rx="12" fill="#FEF6ED"/>
<path d="M22.9506 41.4993L30.5006 49.0493C33.6006 52.1493 38.634 52.1493 41.7506 49.0493L49.0673 41.7327C52.1673 38.6327 52.1673 33.5993 49.0673 30.4827L41.5006 22.9493C39.9173 21.366 37.734 20.516 35.5006 20.6327L27.1673 21.0327C23.834 21.1827 21.184 23.8327 21.0173 27.1493L20.6173 35.4827C20.5173 37.7327 21.3673 39.916 22.9506 41.4993Z" fill="#E0704A"/>
<path d="M31.8312 36.6322C34.4822 36.6322 36.6312 34.4832 36.6312 31.8322C36.6312 29.1813 34.4822 27.0322 31.8312 27.0322C29.1803 27.0322 27.0312 29.1813 27.0312 31.8322C27.0312 34.4832 29.1803 36.6322 31.8312 36.6322Z" fill="white"/>
</svg>
