<svg width="72" height="72" viewBox="0 0 72 72" fill="none" xmlns="http://www.w3.org/2000/svg">
<rect width="72" height="72" rx="12" fill="#F3F9F1"/>
<path d="M51.4193 31.2492C47.5693 25.1992 41.9359 21.7158 36.0026 21.7158C33.0359 21.7158 30.1526 22.5825 27.5193 24.1992C24.8859 25.8325 22.5193 28.2158 20.5859 31.2492C18.9193 33.8658 18.9193 38.1158 20.5859 40.7325C24.4359 46.7992 30.0693 50.2658 36.0026 50.2658C38.9693 50.2658 41.8526 49.3992 44.4859 47.7825C47.1193 46.1492 49.4859 43.7658 51.4193 40.7325C53.0859 38.1325 53.0859 33.8658 51.4193 31.2492ZM36.0026 42.7325C32.2693 42.7325 29.2693 39.7158 29.2693 35.9992C29.2693 32.2825 32.2693 29.2658 36.0026 29.2658C39.7359 29.2658 42.7359 32.2825 42.7359 35.9992C42.7359 39.7158 39.7359 42.7325 36.0026 42.7325Z" fill="#83BF6E"/>
<path d="M36 31.2334C33.3833 31.2334 31.25 33.3667 31.25 36.0001C31.25 38.6167 33.3833 40.7501 36 40.7501C38.6167 40.7501 40.7667 38.6167 40.7667 36.0001C40.7667 33.3834 38.6167 31.2334 36 31.2334Z" fill="#BBDCAF"/>
</svg>
