<svg width="72" height="72" viewBox="0 0 72 72" fill="none" xmlns="http://www.w3.org/2000/svg">
<rect width="72" height="72" rx="12" fill="#F3F9F1"/>
<path d="M43.9144 21.933V19.333C43.9144 18.6497 43.3478 18.083 42.6644 18.083C41.9811 18.083 41.4144 18.6497 41.4144 19.333V21.833H30.5811V19.333C30.5811 18.6497 30.0144 18.083 29.3311 18.083C28.6478 18.083 28.0811 18.6497 28.0811 19.333V21.933C23.5811 22.3497 21.3978 25.033 21.0644 29.0163C21.0311 29.4997 21.4311 29.8997 21.8978 29.8997H50.0978C50.5811 29.8997 50.9811 29.483 50.9311 29.0163C50.5978 25.033 48.4144 22.3497 43.9144 21.933Z" fill="#BBDCAF"/>
<path d="M49.3333 32.4004H22.6667C21.75 32.4004 21 33.1504 21 34.0671V44.3337C21 49.3337 23.5 52.6671 29.3333 52.6671H42.6667C48.5 52.6671 51 49.3337 51 44.3337V34.0671C51 33.1504 50.25 32.4004 49.3333 32.4004ZM40.7333 40.9837L39.9 41.8337H39.8833L34.8333 46.8837C34.6167 47.1004 34.1667 47.3337 33.85 47.3671L31.6 47.7004C30.7833 47.8171 30.2167 47.2337 30.3333 46.4337L30.65 44.1671C30.7 43.8504 30.9167 43.4171 31.1333 43.1837L36.2 38.1337L37.0333 37.2837C37.5833 36.7337 38.2 36.3337 38.8667 36.3337C39.4333 36.3337 40.05 36.6004 40.7333 37.2837C42.2333 38.7837 41.75 39.9671 40.7333 40.9837Z" fill="#83BF6E"/>
</svg>
