<svg width="72" height="72" viewBox="0 0 72 72" fill="none" xmlns="http://www.w3.org/2000/svg">
<rect width="72" height="72" rx="12" fill="#EEF8FE"/>
<path d="M46.7827 44.0507L47.4327 49.3173C47.5993 50.7006 46.116 51.6673 44.9327 50.9506L39.166 47.5173C38.766 47.284 38.666 46.784 38.8827 46.384C39.716 44.8506 40.166 43.1173 40.166 41.384C40.166 35.284 34.9327 30.3173 28.4993 30.3173C27.1827 30.3173 25.8993 30.5173 24.6993 30.9173C24.0827 31.1173 23.4827 30.5507 23.6327 29.9173C25.1493 23.8507 30.9827 19.334 37.9493 19.334C46.0827 19.334 52.666 25.484 52.666 33.0673C52.666 37.5673 50.3493 41.5507 46.7827 44.0507Z" fill="#84CAF4"/>
<path d="M37.6693 41.3831C37.6693 43.3664 36.9359 45.1997 35.7026 46.6497C34.0526 48.6497 31.4359 49.9331 28.5026 49.9331L24.1526 52.5164C23.4193 52.9664 22.4859 52.3497 22.5859 51.4997L23.0026 48.2164C20.7693 46.6664 19.3359 44.1831 19.3359 41.3831C19.3359 38.4497 20.9026 35.8664 23.3026 34.3331C24.7859 33.3664 26.5693 32.8164 28.5026 32.8164C33.5693 32.8164 37.6693 36.6497 37.6693 41.3831Z" fill="#ABDAF7"/>
</svg>
