<svg width="72" height="72" viewBox="0 0 72 72" fill="none" xmlns="http://www.w3.org/2000/svg">
<rect width="72" height="72" rx="12" fill="#FBEDF0"/>
<path d="M52.2307 34.4507C52.1474 33.6007 51.4307 32.9673 50.5807 32.9673H37.9974C37.0807 32.9673 36.3307 33.7173 36.3307 34.634V37.484C36.3307 38.4007 37.0807 39.1507 37.9974 39.1507H45.5141C45.3307 40.684 44.3307 43.0007 42.1141 44.5507C40.6974 45.534 38.8141 46.2173 36.3307 46.2173C36.2141 46.2173 36.1141 46.2173 35.9974 46.2006C31.7474 46.0673 28.1474 43.2173 26.8474 39.3007C26.4974 38.2507 26.2974 37.1507 26.2974 36.0007C26.2974 34.8507 26.4974 33.734 26.8307 32.7006C26.9307 32.4006 27.0474 32.1007 27.1807 31.8007C28.7141 28.3507 32.0641 25.9173 35.9974 25.8007C36.0974 25.784 36.2141 25.784 36.3307 25.784C38.7141 25.784 40.4974 26.5673 41.7474 27.434C42.3974 27.884 43.2641 27.784 43.8307 27.234L46.1474 24.9673C46.8807 24.2507 46.8141 23.034 45.9807 22.434C43.3307 20.484 40.0974 19.334 36.3307 19.334C36.2141 19.334 36.1141 19.334 35.9974 19.3507C29.6141 19.4673 24.1307 23.1673 21.4474 28.5173C20.3141 30.784 19.6641 33.3173 19.6641 36.0007C19.6641 38.684 20.3141 41.2173 21.4474 43.484H21.4641C24.1474 48.834 29.6307 52.534 35.9974 52.6506C36.1141 52.6673 36.2141 52.6673 36.3307 52.6673C40.8307 52.6673 44.6141 51.184 47.3641 48.634C50.5141 45.7173 52.3307 41.4507 52.3307 36.3673C52.3307 35.6507 52.2974 35.034 52.2307 34.4507Z" fill="#D34B6A"/>
</svg>
