<svg width="72" height="72" viewBox="0 0 72 72" fill="none" xmlns="http://www.w3.org/2000/svg">
<rect width="72" height="72" rx="12" fill="#FCF1ED"/>
<path d="M49.3359 39.75C51.407 39.75 53.0859 38.0711 53.0859 36C53.0859 33.9289 51.407 32.25 49.3359 32.25C47.2649 32.25 45.5859 33.9289 45.5859 36C45.5859 38.0711 47.2649 39.75 49.3359 39.75Z" fill="#E0704A"/>
<path d="M49.3359 26.416C51.407 26.416 53.0859 24.7371 53.0859 22.666C53.0859 20.5949 51.407 18.916 49.3359 18.916C47.2649 18.916 45.5859 20.5949 45.5859 22.666C45.5859 24.7371 47.2649 26.416 49.3359 26.416Z" fill="#E0704A"/>
<path d="M49.3359 53.084C51.407 53.084 53.0859 51.4051 53.0859 49.334C53.0859 47.2629 51.407 45.584 49.3359 45.584C47.2649 45.584 45.5859 47.2629 45.5859 49.334C45.5859 51.4051 47.2649 53.084 49.3359 53.084Z" fill="#E0704A"/>
<path d="M22.6641 39.75C24.7351 39.75 26.4141 38.0711 26.4141 36C26.4141 33.9289 24.7351 32.25 22.6641 32.25C20.593 32.25 18.9141 33.9289 18.9141 36C18.9141 38.0711 20.593 39.75 22.6641 39.75Z" fill="#E0704A"/>
<path d="M47.6693 37.2493C48.3526 37.2493 48.9193 36.6827 48.9193 35.9993C48.9193 35.316 48.3526 34.7493 47.6693 34.7493H35.5859V27.666C35.5859 25.0327 36.7026 23.916 39.3359 23.916H47.6693C48.3526 23.916 48.9193 23.3493 48.9193 22.666C48.9193 21.9827 48.3526 21.416 47.6693 21.416H39.3359C35.3026 21.416 33.0859 23.6327 33.0859 27.666V34.7493H24.3359C23.6526 34.7493 23.0859 35.316 23.0859 35.9993C23.0859 36.6827 23.6526 37.2493 24.3359 37.2493H33.0859V44.3327C33.0859 48.366 35.3026 50.5827 39.3359 50.5827H47.6693C48.3526 50.5827 48.9193 50.016 48.9193 49.3327C48.9193 48.6493 48.3526 48.0827 47.6693 48.0827H39.3359C36.7026 48.0827 35.5859 46.966 35.5859 44.3327V37.2493H47.6693Z" fill="#E0704A"/>
</svg>
