<svg width="72" height="72" viewBox="0 0 72 72" fill="none" xmlns="http://www.w3.org/2000/svg">
<rect width="72" height="72" rx="12" fill="#EDF3FE"/>
<path d="M42.9859 19.333H29.0193C22.9526 19.333 19.3359 22.9497 19.3359 29.0163V42.9663C19.3359 49.0497 22.9526 52.6663 29.0193 52.6663H42.9693C49.0359 52.6663 52.6526 49.0497 52.6526 42.983V29.0163C52.6693 22.9497 49.0526 19.333 42.9859 19.333ZM43.2859 40.383L39.5859 44.083C38.6859 44.983 37.5193 45.4163 36.3526 45.4163C35.1859 45.4163 34.0026 44.9663 33.1193 44.083C31.3359 42.2997 31.3359 39.383 33.1193 37.5997L35.4693 35.2497C35.9526 34.7663 36.7526 34.7663 37.2359 35.2497C37.7193 35.733 37.7193 36.533 37.2359 37.0163L34.8859 39.3663C34.0693 40.183 34.0693 41.4997 34.8859 42.3163C35.7026 43.133 37.0193 43.133 37.8359 42.3163L41.5359 38.6163C42.5526 37.5997 43.1193 36.233 43.1193 34.783C43.1193 33.333 42.5526 31.983 41.5359 30.9497C39.4859 28.8997 35.9193 28.8997 33.8693 30.9497L29.8193 34.9997C28.0859 36.733 28.0859 39.5663 29.8193 41.3163C30.3026 41.7997 30.3026 42.5997 29.8193 43.083C29.3359 43.5663 28.5359 43.5663 28.0526 43.083C25.3359 40.3663 25.3359 35.9497 28.0526 33.233L32.0859 29.1997C33.5859 27.6997 35.5693 26.883 37.6859 26.883C39.8026 26.883 41.7859 27.6997 43.2859 29.1997C44.7859 30.6997 45.6026 32.683 45.6026 34.7997C45.6026 36.9163 44.7859 38.8997 43.2859 40.383Z" fill="#4A86F7"/>
</svg>
