<svg width="72" height="72" viewBox="0 0 72 72" fill="none" xmlns="http://www.w3.org/2000/svg">
<rect width="72" height="72" rx="12" fill="#FCF1ED"/>
<path d="M52.2147 37.2602H47.2499V33.4945C47.2499 33.2695 47.2429 33.049 47.2288 32.8328C49.5389 30.6547 49.7483 27.7836 49.7499 24.7859C49.7499 24.1133 49.2311 23.5359 48.5585 23.5039C48.3898 23.496 48.2212 23.5223 48.063 23.5814C47.9048 23.6404 47.7602 23.7308 47.6379 23.8473C47.5156 23.9638 47.4182 24.1038 47.3515 24.2589C47.2848 24.4141 47.2502 24.5811 47.2499 24.75C47.2499 26.9375 47.1046 28.5117 46.4764 29.7375C44.9749 26.5227 41.3374 24.7445 35.9999 24.7445C32.8905 24.7445 30.2038 25.4578 28.2319 26.8063C27.0679 27.6023 26.185 28.5961 25.5991 29.7531C24.9061 28.5508 24.7499 27.0156 24.7499 24.7859C24.7499 24.1133 24.2343 23.5359 23.5624 23.5016C23.3932 23.4931 23.224 23.5191 23.0652 23.578C22.9063 23.6369 22.7611 23.7275 22.6384 23.8443C22.5156 23.9611 22.4179 24.1015 22.3511 24.2572C22.2843 24.4129 22.2499 24.5806 22.2499 24.75C22.2499 27.6898 22.4538 30.5102 24.7843 32.6898C24.7619 32.9534 24.7504 33.2216 24.7499 33.4945V37.2602H19.785C19.1124 37.2602 18.535 37.7773 18.5014 38.45C18.4933 38.6191 18.5196 38.7882 18.5788 38.9469C18.6379 39.1055 18.7287 39.2505 18.8456 39.373C18.9625 39.4956 19.1031 39.593 19.2588 39.6596C19.4145 39.7261 19.5821 39.7604 19.7514 39.7602H24.7514V41C24.7503 42.4373 25.0259 43.8614 25.5632 45.1945C23.5577 46.9875 22.2639 48.9688 22.2499 52.1984C22.2499 52.8813 22.7671 53.4719 23.4499 53.4992C23.6181 53.506 23.786 53.4786 23.9434 53.4189C24.1008 53.3591 24.2446 53.2682 24.366 53.1515C24.4874 53.0349 24.584 52.8949 24.65 52.74C24.7159 52.585 24.7499 52.4184 24.7499 52.25C24.7499 50.0891 25.4608 48.757 26.7944 47.4594C28.3323 49.6484 30.5981 51.2195 33.1874 51.8922C33.3721 51.9399 33.5653 51.9447 33.7521 51.9062C33.9389 51.8677 34.1145 51.7869 34.2653 51.6701C34.4161 51.5533 34.5382 51.4036 34.6222 51.2323C34.7062 51.061 34.7499 50.8728 34.7499 50.682V31.0352C34.7499 30.3625 35.2671 29.7852 35.9397 29.7516C36.1087 29.7434 36.2776 29.7697 36.4362 29.8287C36.5948 29.8878 36.7397 29.9784 36.8622 30.0952C36.9847 30.2119 37.0822 30.3523 37.1489 30.5078C37.2155 30.6634 37.2499 30.8308 37.2499 31V50.682C37.2499 50.8728 37.2936 51.061 37.3776 51.2323C37.4616 51.4036 37.5837 51.5533 37.7345 51.6701C37.8853 51.7869 38.0608 51.8677 38.2477 51.9062C38.4345 51.9447 38.6277 51.9399 38.8124 51.8922C41.4013 51.2192 43.6668 49.6481 45.2046 47.4594C46.5327 48.7516 47.2429 50.0781 47.2491 52.2211C47.2463 52.5443 47.3667 52.8564 47.5858 53.094C47.805 53.3316 48.1064 53.4768 48.4288 53.5C48.5988 53.5097 48.769 53.4845 48.929 53.4261C49.089 53.3676 49.2353 53.2771 49.359 53.16C49.4827 53.043 49.5812 52.9019 49.6484 52.7454C49.7156 52.5889 49.7502 52.4203 49.7499 52.25C49.7499 48.9938 48.453 46.9977 46.4382 45.1945C46.9754 43.8614 47.251 42.4373 47.2499 41V39.7602H52.2499C52.4192 39.7604 52.5868 39.7261 52.7426 39.6596C52.8983 39.593 53.0388 39.4956 53.1557 39.373C53.2726 39.2505 53.3634 39.1055 53.4226 38.9469C53.4817 38.7882 53.508 38.6191 53.4999 38.45C53.4671 37.7773 52.8874 37.2602 52.2147 37.2602Z" fill="#E0704A"/>
<path d="M41.1072 24.125L41.1322 24.132C42.1923 24.4289 43.0908 23.3078 42.5541 22.3469C41.9054 21.1815 40.9573 20.2104 39.8077 19.5341C38.6581 18.8578 37.3488 18.5008 36.015 18.5H35.9822C34.635 18.5009 33.313 18.8652 32.1554 19.5544C30.9979 20.2437 30.0476 21.2324 29.4049 22.4164C28.8705 23.3992 29.8064 24.5258 30.8767 24.2023C32.4166 23.7336 34.1416 23.4945 35.9986 23.4945C37.8806 23.4945 39.5994 23.707 41.1072 24.125Z" fill="#EFB7A4"/>
</svg>
