<svg width="72" height="72" viewBox="0 0 72 72" fill="none" xmlns="http://www.w3.org/2000/svg">
<rect width="72" height="72" rx="12" fill="#EDF3FE"/>
<path d="M41.0016 53.9167C40.5516 53.9167 40.135 53.6667 39.9183 53.2834C39.7016 52.8834 39.7016 52.4167 39.935 52.0167L41.685 49.1001C42.035 48.5001 42.8183 48.3167 43.4016 48.6667C44.0016 49.0167 44.185 49.7834 43.835 50.3834L43.385 51.1334C47.985 50.0501 51.435 45.9167 51.435 40.9834C51.435 40.3001 52.0016 39.7334 52.685 39.7334C53.3683 39.7334 53.935 40.3001 53.935 40.9834C53.9183 48.1167 48.1183 53.9167 41.0016 53.9167Z" fill="#4A86F7"/>
<path d="M19.3359 32.2497C18.6526 32.2497 18.0859 31.683 18.0859 30.9997C18.0859 23.883 23.8859 18.083 31.0026 18.083C31.4526 18.083 31.8693 18.333 32.0859 18.7163C32.3026 19.1163 32.3026 19.583 32.0693 19.983L30.3193 22.8997C29.9693 23.483 29.2026 23.683 28.6026 23.3163C28.0193 22.9663 27.8193 22.1997 28.1859 21.5997L28.6359 20.8497C24.0193 21.933 20.5859 26.0663 20.5859 30.9997C20.5859 31.683 20.0193 32.2497 19.3359 32.2497Z" fill="#A3C2FB"/>
<path d="M40.6693 37.0497V41.9497C40.6693 46.033 39.0359 47.6663 34.9526 47.6663H30.0526C25.9693 47.6663 24.3359 46.033 24.3359 41.9497V37.0497C24.3359 32.9663 25.9693 31.333 30.0526 31.333H34.9526C39.0359 31.333 40.6693 32.9663 40.6693 37.0497Z" fill="#4A86F7"/>
<path d="M41.9516 24.333H37.0516C33.0349 24.333 31.4016 25.933 31.3516 29.8663H34.9516C39.8516 29.8663 42.1182 32.1497 42.1182 37.033V40.633C46.0682 40.583 47.6516 38.9497 47.6516 34.933V30.0497C47.6682 25.9663 46.0349 24.333 41.9516 24.333Z" fill="#A3C2FB"/>
</svg>
