<svg width="72" height="72" viewBox="0 0 72 72" fill="none" xmlns="http://www.w3.org/2000/svg">
<rect width="72" height="72" rx="12" fill="#F3F9F1"/>
<path d="M35.9969 23.75C28.0302 23.75 21.5469 30.2333 21.5469 38.2C21.5469 46.1667 28.0302 52.6667 35.9969 52.6667C43.9635 52.6667 50.4469 46.1833 50.4469 38.2167C50.4469 30.25 43.9635 23.75 35.9969 23.75ZM37.2469 37.6667C37.2469 38.35 36.6802 38.9167 35.9969 38.9167C35.3135 38.9167 34.7469 38.35 34.7469 37.6667V29.3333C34.7469 28.65 35.3135 28.0833 35.9969 28.0833C36.6802 28.0833 37.2469 28.65 37.2469 29.3333V37.6667Z" fill="#83BF6E"/>
<path d="M40.8177 21.7507H31.1844C30.5177 21.7507 29.9844 21.2173 29.9844 20.5507C29.9844 19.884 30.5177 19.334 31.1844 19.334H40.8177C41.4844 19.334 42.0177 19.8673 42.0177 20.534C42.0177 21.2007 41.4844 21.7507 40.8177 21.7507Z" fill="#BBDCAF"/>
</svg>
