<svg width="72" height="72" viewBox="0 0 72 72" fill="none" xmlns="http://www.w3.org/2000/svg">
<rect width="72" height="72" rx="12" fill="#EEF8FE"/>
<path d="M44.3359 21.833H27.6693C22.6693 21.833 19.3359 24.333 19.3359 30.1663V41.833C19.3359 47.6663 22.6693 50.1663 27.6693 50.1663H44.3359C49.3359 50.1663 52.6693 47.6663 52.6693 41.833V30.1663C52.6693 24.333 49.3359 21.833 44.3359 21.833ZM45.1193 31.983L39.9026 36.1497C38.8026 37.033 37.4026 37.4663 36.0026 37.4663C34.6026 37.4663 33.1859 37.033 32.1026 36.1497L26.8859 31.983C26.3526 31.5497 26.2693 30.7497 26.6859 30.2163C27.1193 29.683 27.9026 29.583 28.4359 30.0163L33.6526 34.183C34.9193 35.1997 37.0693 35.1997 38.3359 34.183L43.5526 30.0163C44.0859 29.583 44.8859 29.6663 45.3026 30.2163C45.7359 30.7497 45.6526 31.5497 45.1193 31.983Z" fill="#84CAF4"/>
</svg>
