<svg width="72" height="72" viewBox="0 0 72 72" fill="none" xmlns="http://www.w3.org/2000/svg">
<rect width="72" height="72" rx="12" fill="#FCF1ED"/>
<path d="M28.0845 35.9997C28.0845 35.3163 28.6511 34.7497 29.3345 34.7497H34.3345V28.4997C34.3345 27.583 33.5845 26.833 32.6678 26.833H28.9511C23.7011 26.833 19.1345 31.133 19.3345 36.3663C19.4345 38.7497 20.4345 40.8997 22.0178 42.483C23.6845 44.133 25.9678 45.1663 28.5011 45.1663H32.6678C33.5845 45.1663 34.3345 44.4163 34.3345 43.4997V37.2497H29.3345C28.6511 37.2497 28.0845 36.683 28.0845 35.9997Z" fill="#E0704A"/>
<path d="M49.9807 29.5163C48.3141 27.8663 46.0307 26.833 43.4974 26.833H39.3307C38.4141 26.833 37.6641 27.583 37.6641 28.4997V34.7497H42.6641C43.3474 34.7497 43.9141 35.3163 43.9141 35.9997C43.9141 36.683 43.3474 37.2497 42.6641 37.2497H37.6641V43.4997C37.6641 44.4163 38.4141 45.1663 39.3307 45.1663H43.0474C48.2974 45.1663 52.8641 40.8663 52.6474 35.633C52.5641 33.2497 51.5474 31.0997 49.9807 29.5163Z" fill="#E0704A"/>
<path d="M37.6693 34.75H34.3359V37.25H37.6693V34.75Z" fill="#E0704A"/>
</svg>
