<svg width="72" height="72" viewBox="0 0 72 72" fill="none" xmlns="http://www.w3.org/2000/svg">
<rect width="72" height="72" rx="12" fill="#FBEDF0"/>
<path d="M43.4026 21.167C40.3859 21.167 37.6859 22.6337 36.0026 24.8837C34.3193 22.6337 31.6193 21.167 28.6026 21.167C23.4859 21.167 19.3359 25.3337 19.3359 30.4837C19.3359 32.467 19.6526 34.3003 20.2026 36.0003C22.8359 44.3337 30.9526 49.317 34.9693 50.6837C35.5359 50.8837 36.4693 50.8837 37.0359 50.6837C41.0526 49.317 49.1693 44.3337 51.8026 36.0003C52.3526 34.3003 52.6693 32.467 52.6693 30.4837C52.6693 25.3337 48.5193 21.167 43.4026 21.167Z" fill="#D34B6A"/>
</svg>
