<svg width="72" height="72" viewBox="0 0 72 72" fill="none" xmlns="http://www.w3.org/2000/svg">
<rect width="72" height="72" rx="12" fill="#FBEDF0"/>
<path d="M50.9193 22.883C50.4359 22.183 49.8193 21.5663 49.1193 21.083C47.5359 19.933 45.4693 19.333 42.9859 19.333H29.0193C28.6859 19.333 28.3526 19.3497 28.0359 19.383C22.5693 19.733 19.3359 23.283 19.3359 29.0163V42.983C19.3359 45.4663 19.9359 47.533 21.0859 49.1163C21.5693 49.8163 22.1859 50.433 22.8859 50.9163C24.2526 51.9163 25.9859 52.4997 28.0359 52.633C28.3526 52.6497 28.6859 52.6663 29.0193 52.6663H42.9859C49.0526 52.6663 52.6693 49.0497 52.6693 42.983V29.0163C52.6693 26.533 52.0693 24.4663 50.9193 22.883ZM30.1026 33.7997L29.2859 32.9497C28.8526 32.5163 28.5026 31.733 28.5026 31.1997V29.1997C28.5026 28.1497 29.2859 27.3663 30.2526 27.3663H33.8193C34.5026 27.3663 34.9193 28.1163 34.5526 28.6997L31.4693 33.6663C31.1693 34.1497 30.4859 34.2163 30.1026 33.7997ZM43.5026 31.033C43.5026 31.733 43.0693 32.5997 42.6359 33.033L38.8859 36.3497C38.3693 36.783 38.0193 37.6497 38.0193 38.3497V42.0997C38.0193 42.6163 37.6693 43.3163 37.2359 43.583L36.0026 44.3663C34.8693 45.0663 33.3026 44.283 33.3026 42.883V38.2663C33.3026 37.6497 32.9526 36.8663 32.6026 36.433L32.2026 35.9997C31.9359 35.7163 31.8859 35.283 32.0859 34.933L36.5526 27.7663C36.7193 27.5163 36.9859 27.3497 37.2859 27.3497H41.7526C42.7193 27.3497 43.5026 28.133 43.5026 29.0997V31.033V31.033Z" fill="#D34B6A"/>
</svg>
