<svg width="72" height="72" viewBox="0 0 72 72" fill="none" xmlns="http://www.w3.org/2000/svg">
<rect width="72" height="72" rx="12" fill="#FEF6ED"/>
<path d="M38.0833 36.0007C39.2339 36.0007 40.1667 35.0679 40.1667 33.9173C40.1667 32.7667 39.2339 31.834 38.0833 31.834C36.9327 31.834 36 32.7667 36 33.9173C36 35.0679 36.9327 36.0007 38.0833 36.0007Z" fill="#F2A84C"/>
<path d="M42.9859 19.334H29.0193C22.9526 19.334 19.3359 22.9507 19.3359 29.0173V42.9673C19.3359 49.0507 22.9526 52.6673 29.0193 52.6673H42.9693C49.0359 52.6673 52.6526 49.0507 52.6526 42.984V29.0173C52.6693 22.9507 49.0526 19.334 42.9859 19.334ZM42.4859 38.4507C40.7693 40.1507 38.3193 40.684 36.1526 40.0007L34.3859 41.7507C34.2359 41.9007 33.9693 41.9007 33.8026 41.7507L32.1859 40.134C31.9526 39.9007 31.5526 39.9007 31.3026 40.134C31.0526 40.3673 31.0693 40.7673 31.3026 41.0173L32.9193 42.634C33.0859 42.8007 33.0859 43.0673 32.9193 43.2173L32.2359 43.9007C31.9526 44.2007 31.4026 44.384 31.0026 44.334L29.1859 44.084C28.5859 44.0007 28.0359 43.434 27.9359 42.834L27.6859 41.0173C27.6193 40.6173 27.8193 40.0673 28.0859 39.784L32.0026 35.8673C31.3359 33.7007 31.8526 31.2507 33.5693 29.534C36.0193 27.084 40.0193 27.084 42.4859 29.534C44.9526 31.984 44.9526 35.984 42.4859 38.4507Z" fill="#F2A84C"/>
</svg>
