<svg width="72" height="72" viewBox="0 0 72 72" fill="none" xmlns="http://www.w3.org/2000/svg">
<rect width="72" height="72" rx="12" fill="#FBEDF0"/>
<path d="M49.332 39.75C51.4031 39.75 53.082 38.0711 53.082 36C53.082 33.9289 51.4031 32.25 49.332 32.25C47.261 32.25 45.582 33.9289 45.582 36C45.582 38.0711 47.261 39.75 49.332 39.75Z" fill="#D34B6A"/>
<path d="M49.332 26.416C51.4031 26.416 53.082 24.7371 53.082 22.666C53.082 20.5949 51.4031 18.916 49.332 18.916C47.261 18.916 45.582 20.5949 45.582 22.666C45.582 24.7371 47.261 26.416 49.332 26.416Z" fill="#D34B6A"/>
<path d="M49.332 53.084C51.4031 53.084 53.082 51.4051 53.082 49.334C53.082 47.2629 51.4031 45.584 49.332 45.584C47.261 45.584 45.582 47.2629 45.582 49.334C45.582 51.4051 47.261 53.084 49.332 53.084Z" fill="#D34B6A"/>
<path d="M22.668 39.75C24.739 39.75 26.418 38.0711 26.418 36C26.418 33.9289 24.739 32.25 22.668 32.25C20.5969 32.25 18.918 33.9289 18.918 36C18.918 38.0711 20.5969 39.75 22.668 39.75Z" fill="#D34B6A"/>
<path d="M47.6654 37.2493C48.3487 37.2493 48.9154 36.6827 48.9154 35.9993C48.9154 35.316 48.3487 34.7493 47.6654 34.7493H35.582V27.666C35.582 25.0327 36.6987 23.916 39.332 23.916H47.6654C48.3487 23.916 48.9154 23.3493 48.9154 22.666C48.9154 21.9827 48.3487 21.416 47.6654 21.416H39.332C35.2987 21.416 33.082 23.6327 33.082 27.666V34.7493H24.332C23.6487 34.7493 23.082 35.316 23.082 35.9993C23.082 36.6827 23.6487 37.2493 24.332 37.2493H33.082V44.3327C33.082 48.366 35.2987 50.5827 39.332 50.5827H47.6654C48.3487 50.5827 48.9154 50.016 48.9154 49.3327C48.9154 48.6493 48.3487 48.0827 47.6654 48.0827H39.332C36.6987 48.0827 35.582 46.966 35.582 44.3327V37.2493H47.6654Z" fill="#D34B6A"/>
</svg>
