<svg width="72" height="72" viewBox="0 0 72 72" fill="none" xmlns="http://www.w3.org/2000/svg">
<rect width="72" height="72" rx="12" fill="#FEF6ED"/>
<path d="M39.9169 19.334H32.0836C30.3503 19.334 28.9336 20.734 28.9336 22.4673V24.034C28.9336 25.7673 30.3336 27.1673 32.0669 27.1673H39.9169C41.6503 27.1673 43.0503 25.7673 43.0503 24.034V22.4673C43.0669 20.734 41.6503 19.334 39.9169 19.334Z" fill="#F2A84C"/>
<path d="M44.7344 24.0338C44.7344 26.6838 42.5677 28.8505 39.9177 28.8505H32.0844C29.4344 28.8505 27.2677 26.6838 27.2677 24.0338C27.2677 23.1005 26.2677 22.5171 25.4344 22.9505C23.0844 24.2005 21.4844 26.6838 21.4844 29.5338V45.2171C21.4844 49.3171 24.8344 52.6671 28.9344 52.6671H43.0677C47.1677 52.6671 50.5177 49.3171 50.5177 45.2171V29.5338C50.5177 26.6838 48.9177 24.2005 46.5677 22.9505C45.7344 22.5171 44.7344 23.1005 44.7344 24.0338ZM41.8844 45.2171C41.6344 45.4671 41.3177 45.5838 41.001 45.5838C40.6844 45.5838 40.3677 45.4671 40.1177 45.2171L32.251 37.3505V39.3338C32.251 40.0171 31.6844 40.5838 31.001 40.5838C30.3177 40.5838 29.751 40.0171 29.751 39.3338V34.3338C29.751 33.6505 30.3177 33.0838 31.001 33.0838H36.001C36.6844 33.0838 37.251 33.6505 37.251 34.3338C37.251 35.0171 36.6844 35.5838 36.001 35.5838H34.0177L41.8844 43.4505C42.3677 43.9338 42.3677 44.7338 41.8844 45.2171Z" fill="#F2A84C"/>
</svg>
