<svg width="24" height="24" viewBox="0 0 24 24" fill="none" xmlns="http://www.w3.org/2000/svg">
<path d="M11.5814 20.1628C6.85116 20.1628 3 16.3116 3 11.5814C3 6.85116 6.85116 3 11.5814 3C16.3116 3 20.1628 6.85116 20.1628 11.5814C20.1628 16.3116 16.3116 20.1628 11.5814 20.1628ZM11.5814 4.25581C7.53767 4.25581 4.25581 7.54605 4.25581 11.5814C4.25581 15.6167 7.53767 18.907 11.5814 18.907C15.6251 18.907 18.907 15.6167 18.907 11.5814C18.907 7.54605 15.6251 4.25581 11.5814 4.25581Z" fill="#6A7185"/>
<path d="M20.3721 21C20.213 21 20.054 20.9414 19.9284 20.8158L18.254 19.1414C18.0112 18.8986 18.0112 18.4967 18.254 18.254C18.4967 18.0112 18.8986 18.0112 19.1414 18.254L20.8158 19.9284C21.0586 20.1712 21.0586 20.573 20.8158 20.8158C20.6902 20.9414 20.5312 21 20.3721 21Z" fill="#6A7185"/>
</svg>
