<svg width="72" height="72" viewBox="0 0 72 72" fill="none" xmlns="http://www.w3.org/2000/svg">
<rect width="72" height="72" rx="12" fill="#EEF8FE"/>
<path d="M52.6658 24.5154V43.4487C52.6658 45.8654 50.9324 46.882 48.8158 45.7154L45.5991 43.9154C45.3324 43.7654 45.1658 43.482 45.1658 43.182V30.982C45.1658 26.7487 41.7158 23.2987 37.4824 23.2987H30.6991C30.0824 23.2987 29.6491 22.6487 29.9324 22.1154C30.7991 20.4654 32.5324 19.332 34.5158 19.332H47.4824C50.3324 19.332 52.6658 21.6654 52.6658 24.5154Z" fill="#84CAF4"/>
<path d="M37.6528 25.5H24.3333C21.4041 25.5 19 27.8482 19 30.7093V49.7247C19 52.1539 20.7824 53.1796 22.9655 52.0054L29.7081 48.3481C30.4266 47.9568 31.5872 47.9568 32.2919 48.3481L39.0345 52.0054C41.2176 53.1931 43 52.1674 43 49.7247V30.7093C42.9862 27.8482 40.5959 25.5 37.6528 25.5ZM35.9948 35.1089L30.468 40.5072C30.2608 40.7096 29.9983 40.8041 29.7358 40.8041C29.4732 40.8041 29.2107 40.7096 29.0035 40.5072L26.9309 38.4828C26.5302 38.0914 26.5302 37.4436 26.9309 37.0523C27.3316 36.6609 27.9948 36.6609 28.3955 37.0523L29.7358 38.3613L34.5302 33.6784C34.9309 33.287 35.5941 33.287 35.9948 33.6784C36.3955 34.0697 36.3955 34.7175 35.9948 35.1089Z" fill="#ABDAF7"/>
</svg>
