<svg width="24" height="24" viewBox="0 0 24 24" fill="none" xmlns="http://www.w3.org/2000/svg">
<path fill-rule="evenodd" clip-rule="evenodd" d="M15.9711 3.96968C17.094 2.84679 18.9088 2.84679 20.0317 3.96968C21.1546 5.09258 21.1546 6.90745 20.0317 8.03034L7.03174 21.0303C5.90884 22.1532 4.09397 22.1532 2.97108 21.0303C1.84818 19.9074 1.84818 18.0926 2.97108 16.9697L15.9711 3.96968ZM18.9711 5.03034C18.434 4.49324 17.5688 4.49324 17.0317 5.03034L4.03174 18.0303C3.49463 18.5674 3.49463 19.4326 4.03174 19.9697C4.56884 20.5068 5.43397 20.5068 5.97108 19.9697L18.9711 6.96968C19.5082 6.43258 19.5082 5.56745 18.9711 5.03034Z" fill="#A5ADC5"/>
<path fill-rule="evenodd" clip-rule="evenodd" d="M14.4811 5.45968C14.774 5.16679 15.2488 5.16679 15.5417 5.45968L18.5417 8.45968C18.8346 8.75258 18.8346 9.22745 18.5417 9.52034C18.2488 9.81324 17.774 9.81324 17.4811 9.52034L14.4811 6.52034C14.1882 6.22745 14.1882 5.75258 14.4811 5.45968Z" fill="#A5ADC5"/>
<path fill-rule="evenodd" clip-rule="evenodd" d="M6.64785 1.64646C6.77714 1.51717 6.96669 1.46876 7.14214 1.52023L8.50141 1.91895L9.86067 1.52023C10.0361 1.46876 10.2257 1.51717 10.355 1.64646C10.4842 1.77575 10.5327 1.9653 10.4812 2.14075L10.0825 3.50001L10.4812 4.85928C10.5327 5.03473 10.4842 5.22428 10.355 5.35357C10.2257 5.48286 10.0361 5.53126 9.86067 5.4798L8.50141 5.08108L7.14214 5.4798C6.96669 5.53126 6.77714 5.48286 6.64785 5.35357C6.51856 5.22428 6.47016 5.03473 6.52162 4.85928L6.92034 3.50001L6.52162 2.14075C6.47016 1.9653 6.51856 1.77575 6.64785 1.64646ZM7.73877 2.73737L7.92119 3.35928C7.94814 3.45116 7.94814 3.54886 7.92119 3.64075L7.73877 4.26265L8.36067 4.08023C8.45256 4.05327 8.55025 4.05327 8.64214 4.08023L9.26405 4.26265L9.08162 3.64075C9.05467 3.54886 9.05467 3.45116 9.08162 3.35928L9.26405 2.73737L8.64214 2.9198C8.55025 2.94675 8.45256 2.94675 8.36067 2.9198L7.73877 2.73737Z" fill="#A5ADC5"/>
<path fill-rule="evenodd" clip-rule="evenodd" d="M2.64785 7.64646C2.77714 7.51717 2.96669 7.46876 3.14214 7.52023L4.50141 7.91894L5.86067 7.52023C6.03612 7.46876 6.22567 7.51717 6.35496 7.64646C6.48425 7.77575 6.53266 7.9653 6.48119 8.14075L6.08247 9.50001L6.48119 10.8593C6.53266 11.0347 6.48425 11.2243 6.35496 11.3536C6.22567 11.4829 6.03612 11.5313 5.86067 11.4798L4.50141 11.0811L3.14214 11.4798C2.96669 11.5313 2.77714 11.4829 2.64785 11.3536C2.51856 11.2243 2.47016 11.0347 2.52162 10.8593L2.92034 9.50001L2.52162 8.14075C2.47016 7.9653 2.51856 7.77575 2.64785 7.64646ZM3.73877 8.73737L3.92119 9.35928C3.94814 9.45116 3.94814 9.54886 3.92119 9.64075L3.73877 10.2627L4.36067 10.0802C4.45256 10.0533 4.55025 10.0533 4.64214 10.0802L5.26405 10.2627L5.08162 9.64075C5.05467 9.54886 5.05467 9.45116 5.08162 9.35928L5.26405 8.73737L4.64214 8.9198C4.55025 8.94675 4.45256 8.94675 4.36067 8.9198L3.73877 8.73737Z" fill="#A5ADC5"/>
<path fill-rule="evenodd" clip-rule="evenodd" d="M17.6479 12.6465C17.7771 12.5172 17.9667 12.4688 18.1421 12.5202L19.5014 12.9189L20.8607 12.5202C21.0361 12.4688 21.2257 12.5172 21.355 12.6465C21.4843 12.7757 21.5327 12.9653 21.4812 13.1407L21.0825 14.5L21.4812 15.8593C21.5327 16.0347 21.4843 16.2243 21.355 16.3536C21.2257 16.4829 21.0361 16.5313 20.8607 16.4798L19.5014 16.0811L18.1421 16.4798C17.9667 16.5313 17.7771 16.4829 17.6479 16.3536C17.5186 16.2243 17.4702 16.0347 17.5216 15.8593L17.9203 14.5L17.5216 13.1407C17.4702 12.9653 17.5186 12.7757 17.6479 12.6465ZM18.7388 13.7374L18.9212 14.3593C18.9481 14.4512 18.9481 14.5489 18.9212 14.6407L18.7388 15.2627L19.3607 15.0802C19.4526 15.0533 19.5503 15.0533 19.6421 15.0802L20.264 15.2627L20.0816 14.6407C20.0547 14.5489 20.0547 14.4512 20.0816 14.3593L20.264 13.7374L19.6421 13.9198C19.5503 13.9468 19.4526 13.9468 19.3607 13.9198L18.7388 13.7374Z" fill="#A5ADC5"/>
</svg>
