<svg width="24" height="24" viewBox="0 0 24 24" fill="none" xmlns="http://www.w3.org/2000/svg">
<path fill-rule="evenodd" clip-rule="evenodd" d="M3.06342 3.09467C4.39789 1.7602 6.39478 1.25 8.96875 1.25H14.9688C17.5427 1.25 19.5396 1.7602 20.8741 3.09467C22.2085 4.42914 22.7188 6.42603 22.7188 9V15C22.7188 17.574 22.2085 19.5709 20.8741 20.9053C19.5396 22.2398 17.5427 22.75 14.9688 22.75H8.96875C6.39478 22.75 4.39789 22.2398 3.06342 20.9053C1.72895 19.5709 1.21875 17.574 1.21875 15V9C1.21875 6.42603 1.72895 4.42914 3.06342 3.09467ZM4.12408 4.15533C3.20855 5.07086 2.71875 6.57397 2.71875 9V15C2.71875 17.426 3.20855 18.9291 4.12408 19.8447C5.03961 20.7602 6.54272 21.25 8.96875 21.25H14.9688C17.3948 21.25 18.8979 20.7602 19.8134 19.8447C20.729 18.9291 21.2188 17.426 21.2188 15V9C21.2188 6.57397 20.729 5.07086 19.8134 4.15533C18.8979 3.2398 17.3948 2.75 14.9688 2.75H8.96875C6.54272 2.75 5.03961 3.2398 4.12408 4.15533Z" fill="#A5ADC5"/>
<path d="M15.4848 13.2888L14.698 11.7985L12.6065 17.105L12.6051 17.1085C12.5182 17.3258 12.3981 17.5436 12.2278 17.7187C12.0542 17.8971 11.7883 18.0675 11.4437 18.0675C11.0992 18.0675 10.8333 17.8971 10.6597 17.7187C10.4894 17.5436 10.3693 17.3258 10.2824 17.1085L10.2814 17.106L9.14239 14.2285L9.142 14.2276C9.0684 14.0443 8.90046 13.8371 8.65871 13.673C8.41678 13.5087 8.16392 13.4303 7.9698 13.43L7.96875 13.43L1.97125 13.45C1.55704 13.4514 1.22013 13.1167 1.21875 12.7025C1.21737 12.2883 1.55204 11.9514 1.96625 11.95L7.96875 11.93C8.5245 11.93 9.06615 12.1366 9.50129 12.432C9.93661 12.7276 10.3285 13.155 10.5351 13.6715L10.5361 13.674L11.4433 15.9657L13.5008 10.7454C13.6452 10.378 13.9755 9.86997 14.5915 9.8373C15.2053 9.80475 15.5884 10.2724 15.772 10.6199L16.8127 12.5912C16.889 12.7363 17.0547 12.9122 17.2898 13.054C17.5252 13.1959 17.7574 13.26 17.9188 13.26H21.9788C22.393 13.26 22.7288 13.5958 22.7288 14.01C22.7288 14.4242 22.393 14.76 21.9788 14.76H17.9188C17.4201 14.76 16.9223 14.584 16.5152 14.3385C16.108 14.0929 15.7186 13.7334 15.4848 13.2888Z" fill="#A5ADC5"/>
</svg>
