<svg width="24" height="24" viewBox="0 0 24 24" fill="none" xmlns="http://www.w3.org/2000/svg">
<path d="M12 21.75C12.4142 21.75 12.75 21.4142 12.75 21V20.1961C12.5049 20.2316 12.2545 20.25 12 20.25C11.7455 20.25 11.4951 20.2316 11.25 20.1961V21C11.25 21.4142 11.5858 21.75 12 21.75Z" fill="#A5ADC5"/>
<path d="M7.23787 17.2452C6.97636 16.924 6.50396 16.8756 6.18274 17.1371C6.03018 17.2613 5.88172 17.387 5.7383 17.5153C5.93371 17.9983 6.18355 18.454 6.48013 18.8747C6.67146 18.6873 6.88744 18.4977 7.12976 18.3004C7.40128 18.0793 7.47788 17.7076 7.33714 17.4039C7.32889 17.3861 7.31989 17.3685 7.31014 17.3512C7.28945 17.3145 7.26537 17.279 7.23787 17.2452Z" fill="#A5ADC5"/>
<path d="M6.75 13.5061C6.75 13.0919 6.41421 12.7561 6 12.7561H5.25V14.2561H6C6.41421 14.2561 6.75 13.9203 6.75 13.5061Z" fill="#A5ADC5"/>
<path d="M17.8173 17.1371C17.496 16.8756 17.0236 16.924 16.7621 17.2452C16.7346 17.279 16.7105 17.3145 16.6898 17.3512C16.6809 17.3688 16.672 17.3864 16.6629 17.4038C16.5221 17.7076 16.5987 18.0793 16.8702 18.3004C17.1126 18.4977 17.3285 18.6873 17.5199 18.8747C17.8164 18.4541 18.0663 17.9984 18.2617 17.5153C18.1183 17.387 17.9698 17.2613 17.8173 17.1371Z" fill="#A5ADC5"/>
<path d="M20.25 21.75C20.25 20.6974 20.0219 19.8323 19.5781 19.069C19.2364 18.4813 18.7824 17.9811 18.2617 17.5153C18.0663 17.9984 17.8164 18.4541 17.5199 18.8747C17.5203 18.8752 17.5208 18.8756 17.5213 18.8761C17.8408 19.1892 18.0915 19.4963 18.2813 19.8229C18.5771 20.3316 18.75 20.9309 18.75 21.75C18.75 22.1642 19.0858 22.5 19.5 22.5C19.9142 22.5 20.25 22.1642 20.25 21.75Z" fill="#A5ADC5"/>
<path d="M18 12.7561C17.5858 12.7561 17.25 13.0919 17.25 13.5061C17.25 13.9203 17.5858 14.2561 18 14.2561H18.75V12.7561H18Z" fill="#A5ADC5"/>
<path fill-rule="evenodd" clip-rule="evenodd" d="M11.9882 1.50001L11.9902 1.5L12.0118 1.5C13.2012 1.50312 14.341 1.97699 15.182 2.81801C16.023 3.65903 16.4969 4.79881 16.5 5.98819C16.5 5.99867 16.4998 6.00915 16.4994 6.01962C16.4961 6.10497 16.4887 6.18998 16.4774 6.27437C16.0207 5.99952 15.5154 5.78761 14.9771 5.62962C14.8951 4.97043 14.5959 4.35321 14.1213 3.87867C13.5609 3.3182 12.8014 3.00232 12.0088 3H11.9912C11.1986 3.00232 10.4391 3.3182 9.87867 3.87867C9.39234 4.365 9.09017 5.00118 9.01722 5.67881C9.93446 5.38403 10.9526 5.24672 12 5.24672C13.0376 5.24672 14.0558 5.35925 14.9771 5.62962C14.9913 5.74379 14.999 5.85922 14.9999 5.97539C14.9928 6.11271 14.9625 6.24787 14.9102 6.3751C14.7585 6.74361 14.9219 7.16324 15.2756 7.3349C14.4091 6.93949 13.2864 6.74672 12 6.74672C10.7414 6.74672 9.62613 6.97195 8.75697 7.39289C8.74636 7.39839 8.73557 7.40367 8.7246 7.40871C8.53238 7.50355 8.35242 7.60809 8.18588 7.72199C7.29412 8.33185 6.75 9.22957 6.75 10.4967V13.5061C6.75 13.0919 6.41421 12.7561 6 12.7561H5.25V10.4967C5.25 10.3324 5.25685 10.1717 5.27028 10.0147C3.86501 8.70323 3.75 7.026 3.75 5.25C3.75 4.83579 4.08579 4.5 4.5 4.5C4.91421 4.5 5.25 4.83579 5.25 5.25C5.25 6.57545 5.3322 7.512 5.75995 8.25283C6.12297 7.5365 6.66522 6.94471 7.33912 6.48384C7.4034 6.43988 7.46878 6.39717 7.53519 6.3557C7.51789 6.24719 7.50644 6.13767 7.50094 6.02759C7.50028 6.01447 7.49997 6.00133 7.5 5.98819C7.50312 4.79881 7.97698 3.65903 8.81801 2.81801C9.65903 1.97699 10.7988 1.50312 11.9882 1.50001ZM5.25 14.2561H2.25C1.83579 14.2561 1.5 13.9203 1.5 13.5061C1.5 13.0919 1.83579 12.7561 2.25 12.7561H5.25V14.2561ZM5.7383 17.5153C5.42351 16.7371 5.25 15.888 5.25 15V14.2561H6C6.41421 14.2561 6.75 13.9203 6.75 13.5061V15C6.75 15.8437 6.95206 16.6427 7.31014 17.3512C7.28945 17.3145 7.26537 17.279 7.23787 17.2452C6.97636 16.924 6.50396 16.8756 6.18274 17.1371C6.03018 17.2613 5.88172 17.387 5.7383 17.5153ZM6.48013 18.8747C6.15996 19.1883 5.9088 19.4957 5.71866 19.8227C5.4229 20.3314 5.25 20.9307 5.25 21.75C5.25 22.1642 4.91421 22.5 4.5 22.5C4.08579 22.5 3.75 22.1642 3.75 21.75C3.75 20.6972 3.97811 19.8321 4.42193 19.0688C4.76361 18.4811 5.21767 17.9811 5.7383 17.5153C5.93371 17.9983 6.18355 18.454 6.48013 18.8747ZM11.25 20.1961C9.5484 19.9496 8.10319 18.8779 7.33714 17.4039C7.47788 17.7076 7.40128 18.0793 7.12976 18.3004C6.88744 18.4977 6.67146 18.6873 6.48013 18.8747C7.70435 20.611 9.7249 21.75 12 21.75C14.2751 21.75 16.2956 20.611 17.5199 18.8747C17.3285 18.6873 17.1126 18.4977 16.8702 18.3004C16.5987 18.0793 16.5221 17.7076 16.6629 17.4038C15.8968 18.8779 14.4516 19.9496 12.75 20.1961V9C12.75 8.58579 12.4142 8.25 12 8.25C11.5858 8.25 11.25 8.58579 11.25 9V20.1961ZM11.25 20.1961V21C11.25 21.4142 11.5858 21.75 12 21.75C12.4142 21.75 12.75 21.4142 12.75 21V20.1961C12.5049 20.2316 12.2545 20.25 12 20.25C11.7455 20.25 11.4951 20.2316 11.25 20.1961ZM15.2756 7.3349C15.2849 7.3394 15.2943 7.34373 15.3038 7.34788L15.2756 7.3349ZM17.25 13.5061V10.4967C17.25 9.08902 16.6937 8.20477 15.8265 7.63657C15.665 7.53075 15.4904 7.43455 15.3038 7.34788L15.3184 7.35406C15.7014 7.51166 16.1397 7.3289 16.2973 6.94584C16.386 6.73033 16.4464 6.50464 16.4774 6.27437C16.5352 6.30919 16.5923 6.34502 16.6485 6.38188C17.3625 6.84966 17.9233 7.46915 18.2853 8.2432C18.1062 8.59171 17.8609 8.89613 17.5265 9.16838C17.2053 9.42989 17.1569 9.90229 17.4184 10.2235C17.6799 10.5447 18.1523 10.5931 18.4735 10.3316C18.5664 10.256 18.6545 10.1787 18.738 10.0998C18.746 10.2295 18.75 10.3617 18.75 10.4967V12.7561H18C17.5858 12.7561 17.25 13.0919 17.25 13.5061ZM18.75 14.2561V15C18.75 15.888 18.5765 16.7371 18.2617 17.5153C18.1183 17.387 17.9698 17.2613 17.8173 17.1371C17.496 16.8756 17.0236 16.924 16.7621 17.2452C16.7346 17.279 16.7105 17.3145 16.6898 17.3512C17.0479 16.6427 17.25 15.8437 17.25 15V13.5061C17.25 13.9203 17.5858 14.2561 18 14.2561H18.75ZM18.75 14.2561H21.75C22.1642 14.2561 22.5 13.9203 22.5 13.5061C22.5 13.0919 22.1642 12.7561 21.75 12.7561H18.75V14.2561ZM18.738 10.0998C18.6952 9.40434 18.5391 8.7858 18.2853 8.2432C18.6719 7.49093 18.75 6.5332 18.75 5.25C18.75 4.83579 19.0858 4.5 19.5 4.5C19.9142 4.5 20.25 4.83579 20.25 5.25C20.25 7.01085 20.1393 8.77616 18.738 10.0998ZM5.75995 8.25283C5.93439 8.55494 6.16629 8.82451 6.47351 9.07463C6.79473 9.33614 6.84314 9.80854 6.58162 10.1298C6.32011 10.451 5.84771 10.4994 5.52649 10.2379C5.43665 10.1647 5.35132 10.0903 5.27028 10.0147C5.32607 9.36292 5.49542 8.77481 5.75995 8.25283Z" fill="#A5ADC5"/>
<path d="M15.3184 7.35406C15.7014 7.51166 16.1397 7.3289 16.2973 6.94584C16.386 6.73033 16.4464 6.50464 16.4774 6.27437C16.0207 5.99952 15.5154 5.78761 14.9771 5.62962C14.9913 5.74379 14.999 5.85922 14.9999 5.97539C14.9928 6.11271 14.9625 6.24787 14.9102 6.3751C14.7585 6.74361 14.9219 7.16324 15.2756 7.3349L15.3038 7.34788L15.3184 7.35406Z" fill="#A5ADC5"/>
<path d="M6.58162 10.1298C6.84314 9.80854 6.79473 9.33614 6.47351 9.07463C6.16629 8.82451 5.93439 8.55494 5.75995 8.25283C5.49542 8.77481 5.32607 9.36292 5.27028 10.0147C5.35132 10.0903 5.43665 10.1647 5.52649 10.2379C5.84771 10.4994 6.32011 10.451 6.58162 10.1298Z" fill="#A5ADC5"/>
<path d="M17.4184 10.2235C17.6799 10.5447 18.1523 10.5931 18.4735 10.3316C18.5664 10.256 18.6545 10.1787 18.738 10.0998C18.6952 9.40434 18.5391 8.7858 18.2853 8.2432C18.1062 8.59171 17.8609 8.89613 17.5265 9.16838C17.2053 9.42989 17.1569 9.90229 17.4184 10.2235Z" fill="#A5ADC5"/>
</svg>
