<svg width="24" height="24" viewBox="0 0 24 24" fill="none" xmlns="http://www.w3.org/2000/svg">
<path fill-rule="evenodd" clip-rule="evenodd" d="M10.7838 19.2973C10.7838 18.8943 11.1105 18.5676 11.5135 18.5676H21.2432C21.6463 18.5676 21.973 18.8943 21.973 19.2973C21.973 19.7003 21.6463 20.027 21.2432 20.027H11.5135C11.1105 20.027 10.7838 19.7003 10.7838 19.2973Z" fill="#A5ADC5"/>
<path fill-rule="evenodd" clip-rule="evenodd" d="M10.7838 12.4865C10.7838 12.0835 11.1105 11.7568 11.5135 11.7568H21.2432C21.6463 11.7568 21.973 12.0835 21.973 12.4865C21.973 12.8895 21.6463 13.2162 21.2432 13.2162H11.5135C11.1105 13.2162 10.7838 12.8895 10.7838 12.4865Z" fill="#A5ADC5"/>
<path fill-rule="evenodd" clip-rule="evenodd" d="M10.7838 5.67568C10.7838 5.27266 11.1105 4.94595 11.5135 4.94595H21.2432C21.6463 4.94595 21.973 5.27266 21.973 5.67568C21.973 6.07869 21.6463 6.40541 21.2432 6.40541H11.5135C11.1105 6.40541 10.7838 6.07869 10.7838 5.67568Z" fill="#A5ADC5"/>
<path fill-rule="evenodd" clip-rule="evenodd" d="M8.13762 3.21373C8.4226 3.49871 8.4226 3.96075 8.13762 4.24573L5.2187 7.16465C4.93372 7.44962 4.47168 7.44962 4.18671 7.16465L3.21373 6.19167C2.92876 5.9067 2.92876 5.44466 3.21373 5.15968C3.49871 4.8747 3.96075 4.8747 4.24573 5.15968L4.7027 5.61665L7.10562 3.21373C7.3906 2.92876 7.85264 2.92876 8.13762 3.21373Z" fill="#A5ADC5"/>
<path fill-rule="evenodd" clip-rule="evenodd" d="M8.13762 10.0245C8.4226 10.3095 8.4226 10.7716 8.13762 11.0565L5.2187 13.9755C4.93372 14.2604 4.47168 14.2604 4.18671 13.9755L3.21373 13.0025C2.92876 12.7175 2.92876 12.2555 3.21373 11.9705C3.49871 11.6855 3.96075 11.6855 4.24573 11.9705L4.7027 12.4275L7.10562 10.0245C7.3906 9.73957 7.85264 9.73957 8.13762 10.0245Z" fill="#A5ADC5"/>
<path fill-rule="evenodd" clip-rule="evenodd" d="M8.13762 16.8354C8.4226 17.1203 8.4226 17.5824 8.13762 17.8673L5.2187 20.7863C4.93372 21.0712 4.47168 21.0712 4.18671 20.7863L3.21373 19.8133C2.92876 19.5283 2.92876 19.0663 3.21373 18.7813C3.49871 18.4963 3.96075 18.4963 4.24573 18.7813L4.7027 19.2383L7.10562 16.8354C7.3906 16.5504 7.85264 16.5504 8.13762 16.8354Z" fill="#A5ADC5"/>
</svg>
