<svg width="24" height="24" viewBox="0 0 24 24" fill="none" xmlns="http://www.w3.org/2000/svg">
<path fill-rule="evenodd" clip-rule="evenodd" d="M5.10462 9.78744C5.84465 9.49677 6.65295 9.34003 7.5 9.34003C10.9057 9.34003 13.75 11.9288 13.75 15.23C13.75 16.1243 13.5353 16.9724 13.1533 17.73C13.1588 17.73 13.1644 17.73 13.17 17.73C13.3049 17.73 13.4372 17.7663 13.5532 17.8352L17.7485 20.3284C17.9134 20.4283 18.1415 20.301 18.1155 20.0804C18.1154 20.0802 18.1155 20.0806 18.1155 20.0804L17.7256 16.9219C17.6917 16.6466 17.8124 16.3751 18.0395 16.2159C19.9995 14.842 21.25 12.6717 21.25 10.24C21.25 6.15199 17.6852 2.75 13.17 2.75C8.82247 2.75 5.35613 5.90396 5.10462 9.78744ZM3.59 10.24C3.59 5.22799 7.92524 1.25 13.17 1.25C18.4148 1.25 22.75 5.22799 22.75 10.24C22.75 13.0485 21.3807 15.5361 19.268 17.1732L19.6046 19.9003C19.7778 21.3381 18.2291 22.3698 16.9746 21.6134C16.9736 21.6128 16.9725 21.6121 16.9715 21.6115L12.9607 19.228C12.5401 19.2202 12.1261 19.1887 11.7187 19.1331C11.4471 19.0961 11.2174 18.9139 11.1195 18.6579C11.0216 18.4019 11.0711 18.1129 11.2487 17.9041C11.881 17.1607 12.25 16.2304 12.25 15.23C12.25 12.8511 10.1743 10.84 7.5 10.84C6.48429 10.84 5.55675 11.1283 4.78949 11.6283C4.57234 11.7699 4.2975 11.7892 4.06265 11.6795C3.8278 11.5699 3.66623 11.3467 3.63535 11.0894C3.60067 10.8004 3.59 10.5187 3.59 10.24Z" fill="#A5ADC5"/>
<path fill-rule="evenodd" clip-rule="evenodd" d="M7.5 10.84C6.48429 10.84 5.55675 11.1283 4.78949 11.6283L4.78381 11.632C3.53969 12.4269 2.75 13.7486 2.75 15.23C2.75 16.6433 3.47181 17.9117 4.62762 18.7139C4.85727 18.8733 4.97922 19.1471 4.94403 19.4244L4.72702 21.1345L7.11704 19.7151C7.23293 19.6463 7.36522 19.61 7.5 19.61C9.04178 19.61 10.3975 18.9357 11.2415 17.9127L11.2487 17.9041C11.881 17.1607 12.25 16.2304 12.25 15.23C12.25 12.8511 10.1743 10.84 7.5 10.84ZM3.97335 10.3698C4.98552 9.71097 6.19692 9.34003 7.5 9.34003C10.9057 9.34003 13.75 11.9288 13.75 15.23C13.75 16.6076 13.2404 17.8757 12.395 18.8716C11.2994 20.1969 9.60295 21.0475 7.71148 21.1067L5.27686 22.5525C4.28464 23.1557 3.07485 22.3197 3.20513 21.2124L3.20593 21.2056L3.40119 19.6672C2.08817 18.6003 1.25 17.0138 1.25 15.23C1.25 13.1926 2.33907 11.4152 3.97335 10.3698Z" fill="#A5ADC5"/>
</svg>
