<svg width="24" height="24" viewBox="0 0 24 24" fill="none" xmlns="http://www.w3.org/2000/svg">
<path fill-rule="evenodd" clip-rule="evenodd" d="M7.25 12.2003C7.25 11.7861 7.58579 11.4503 8 11.4503H15C15.4142 11.4503 15.75 11.7861 15.75 12.2003C15.75 12.6145 15.4142 12.9503 15 12.9503H8C7.58579 12.9503 7.25 12.6145 7.25 12.2003Z" fill="#A5ADC5"/>
<path fill-rule="evenodd" clip-rule="evenodd" d="M7.25 16.2003C7.25 15.7861 7.58579 15.4503 8 15.4503H12.38C12.7942 15.4503 13.13 15.7861 13.13 16.2003C13.13 16.6145 12.7942 16.9503 12.38 16.9503H8C7.58579 16.9503 7.25 16.6145 7.25 16.2003Z" fill="#A5ADC5"/>
<path fill-rule="evenodd" clip-rule="evenodd" d="M9.92882 1.25015C9.95338 1.25022 9.97713 1.25029 10 1.25029H14C14.0229 1.25029 14.0466 1.25022 14.0712 1.25015C14.5142 1.24889 15.222 1.24688 15.791 1.62625C16.4753 2.08246 16.75 2.90124 16.75 4.00029C16.75 4.02316 16.7501 4.04691 16.7501 4.07147C16.7514 4.51445 16.7534 5.22226 16.374 5.79131C15.9178 6.47562 15.099 6.75029 14 6.75029H10C9.97713 6.75029 9.95338 6.75036 9.92882 6.75043C9.48584 6.75169 8.77803 6.7537 8.20897 6.37433C7.52467 5.91812 7.25 5.09934 7.25 4.00029C7.25 2.90124 7.52467 2.08246 8.20897 1.62625C8.77803 1.24688 9.48584 1.24889 9.92882 1.25015ZM9.04103 2.87433C8.97533 2.91812 8.75 3.09934 8.75 4.00029C8.75 4.90124 8.97533 5.08246 9.04103 5.12625C9.19042 5.22585 9.43524 5.25029 10 5.25029H14C14.901 5.25029 15.0822 5.02496 15.126 4.95926C15.2256 4.80987 15.25 4.56505 15.25 4.00029C15.25 3.09934 15.0247 2.91812 14.959 2.87433C14.8096 2.77473 14.5648 2.75029 14 2.75029H10C9.43524 2.75029 9.19042 2.77473 9.04103 2.87433Z" fill="#A5ADC5"/>
<path fill-rule="evenodd" clip-rule="evenodd" d="M8.74891 3.97981C8.77126 4.39342 8.45409 4.74684 8.04048 4.7692C6.43434 4.85601 5.43333 5.19349 4.80215 5.87672C4.1626 6.56901 3.75 7.78108 3.75 10.0003V16.0003C3.75 17.987 4.01132 19.2314 4.68943 20.0064C5.34587 20.7566 6.56467 21.2503 9 21.2503H15C17.4353 21.2503 18.6541 20.7566 19.3106 20.0064C19.9887 19.2314 20.25 17.987 20.25 16.0003V10.0003C20.25 7.77557 19.8372 6.56408 19.1982 5.87335C18.5674 5.19152 17.5669 4.85608 15.9595 4.7692C15.5459 4.74684 15.2287 4.39342 15.2511 3.97981C15.2735 3.5662 15.6269 3.24903 16.0405 3.27138C17.7631 3.3645 19.2626 3.73406 20.2993 4.85473C21.3278 5.9665 21.75 7.655 21.75 10.0003V16.0003C21.75 18.0136 21.5113 19.7692 20.4394 20.9942C19.3459 22.244 17.5647 22.7503 15 22.7503H9C6.43533 22.7503 4.65413 22.244 3.56057 20.9942C2.48868 19.7692 2.25 18.0136 2.25 16.0003V10.0003C2.25 7.6595 2.6724 5.97157 3.70035 4.85886C4.73667 3.73709 6.23566 3.36456 7.95952 3.27138C8.37313 3.24903 8.72655 3.5662 8.74891 3.97981Z" fill="#A5ADC5"/>
</svg>
