<svg width="24" height="24" viewBox="0 0 24 24" fill="none" xmlns="http://www.w3.org/2000/svg">
<path fill-rule="evenodd" clip-rule="evenodd" d="M12.0019 9.16992C10.4361 9.16992 9.17188 10.4341 9.17188 11.9999C9.17188 13.5657 10.4361 14.8299 12.0019 14.8299C13.5677 14.8299 14.8319 13.5657 14.8319 11.9999C14.8319 10.4341 13.5677 9.16992 12.0019 9.16992ZM7.67188 11.9999C7.67188 9.60571 9.60766 7.66992 12.0019 7.66992C14.3961 7.66992 16.3319 9.60571 16.3319 11.9999C16.3319 14.3941 14.3961 16.3299 12.0019 16.3299C9.60766 16.3299 7.67188 14.3941 7.67188 11.9999Z" fill="#A5ADC5"/>
<path fill-rule="evenodd" clip-rule="evenodd" d="M2.25734 8.99767C4.64826 5.2393 8.15186 2.9707 11.9998 2.9707C15.848 2.9707 19.3517 5.2395 21.7427 8.99816C22.2876 9.8525 22.5348 10.9469 22.5348 11.9957C22.5348 13.0445 22.2876 14.1389 21.7427 14.9932C19.3517 18.7519 15.848 21.0207 11.9998 21.0207C8.1517 21.0207 4.64795 18.7519 2.25703 14.9932C1.71205 14.1389 1.46484 13.0445 1.46484 11.9957C1.46484 10.9467 1.71214 9.85208 2.25734 8.99767ZM11.9998 4.4707C8.78799 4.4707 5.71174 6.3619 3.52266 9.80325L3.52204 9.80423C3.16745 10.3597 2.96484 11.1549 2.96484 11.9957C2.96484 12.8365 3.16745 13.6317 3.52204 14.1872L3.52266 14.1882C5.71174 17.6295 8.78799 19.5207 11.9998 19.5207C15.2117 19.5207 18.288 17.6295 20.477 14.1882L20.4777 14.1872C20.8322 13.6317 21.0348 12.8365 21.0348 11.9957C21.0348 11.1549 20.8322 10.3597 20.4777 9.80423L20.477 9.80325C18.288 6.3619 15.2117 4.4707 11.9998 4.4707Z" fill="#A5ADC5"/>
</svg>
