<svg width="24" height="24" viewBox="0 0 24 24" fill="none" xmlns="http://www.w3.org/2000/svg">
<path d="M15 22.75H9C3.57 22.75 1.25 20.43 1.25 15V9C1.25 3.57 3.57 1.25 9 1.25H15C20.43 1.25 22.75 3.57 22.75 9V15C22.75 20.43 20.43 22.75 15 22.75ZM9 2.75C4.39 2.75 2.75 4.39 2.75 9V15C2.75 19.61 4.39 21.25 9 21.25H15C19.61 21.25 21.25 19.61 21.25 15V9C21.25 4.39 19.61 2.75 15 2.75H9Z" fill="#A5ADC5"/>
<path d="M15.5781 19.2496C15.1681 19.2496 14.8281 18.9096 14.8281 18.4996V14.5996C14.8281 14.1896 15.1681 13.8496 15.5781 13.8496C15.9881 13.8496 16.3281 14.1896 16.3281 14.5996V18.4996C16.3281 18.9096 15.9881 19.2496 15.5781 19.2496Z" fill="#A5ADC5"/>
<path d="M15.5781 8.2C15.1681 8.2 14.8281 7.86 14.8281 7.45V5.5C14.8281 5.09 15.1681 4.75 15.5781 4.75C15.9881 4.75 16.3281 5.09 16.3281 5.5V7.45C16.3281 7.86 15.9881 8.2 15.5781 8.2Z" fill="#A5ADC5"/>
<path d="M15.5805 13.3992C13.7305 13.3992 12.2305 11.8992 12.2305 10.0492C12.2305 8.19922 13.7305 6.69922 15.5805 6.69922C17.4305 6.69922 18.9305 8.19922 18.9305 10.0492C18.9305 11.8992 17.4205 13.3992 15.5805 13.3992ZM15.5805 8.19922C14.5605 8.19922 13.7305 9.02922 13.7305 10.0492C13.7305 11.0692 14.5605 11.8992 15.5805 11.8992C16.6005 11.8992 17.4305 11.0692 17.4305 10.0492C17.4305 9.02922 16.5905 8.19922 15.5805 8.19922Z" fill="#A5ADC5"/>
<path d="M8.42188 19.2508C8.01188 19.2508 7.67188 18.9108 7.67188 18.5008V16.5508C7.67188 16.1408 8.01188 15.8008 8.42188 15.8008C8.83187 15.8008 9.17188 16.1408 9.17188 16.5508V18.5008C9.17188 18.9108 8.84187 19.2508 8.42188 19.2508Z" fill="#A5ADC5"/>
<path d="M8.42188 10.15C8.01188 10.15 7.67188 9.81 7.67188 9.4V5.5C7.67188 5.09 8.01188 4.75 8.42188 4.75C8.83187 4.75 9.17188 5.09 9.17188 5.5V9.4C9.17188 9.81 8.84187 10.15 8.42188 10.15Z" fill="#A5ADC5"/>
<path d="M8.42031 17.2996C6.57031 17.2996 5.07031 15.7996 5.07031 13.9496C5.07031 12.0996 6.57031 10.5996 8.42031 10.5996C10.2703 10.5996 11.7703 12.0996 11.7703 13.9496C11.7703 15.7996 10.2703 17.2996 8.42031 17.2996ZM8.42031 12.0996C7.40031 12.0996 6.57031 12.9296 6.57031 13.9496C6.57031 14.9696 7.40031 15.7996 8.42031 15.7996C9.44031 15.7996 10.2703 14.9696 10.2703 13.9496C10.2703 12.9296 9.45031 12.0996 8.42031 12.0996Z" fill="#A5ADC5"/>
</svg>
