<svg width="72" height="72" viewBox="0 0 72 72" fill="none" xmlns="http://www.w3.org/2000/svg">
<rect width="72" height="72" rx="12" fill="#FCF1ED"/>
<path d="M52.2346 34.4507C52.1513 33.6007 51.4346 32.9673 50.5846 32.9673H38.0013C37.0846 32.9673 36.3346 33.7173 36.3346 34.634V37.484C36.3346 38.4007 37.0846 39.1507 38.0013 39.1507H45.518C45.3346 40.684 44.3346 43.0007 42.118 44.5507C40.7013 45.534 38.818 46.2173 36.3346 46.2173C36.218 46.2173 36.118 46.2173 36.0013 46.2006C31.7513 46.0673 28.1513 43.2173 26.8513 39.3007C26.5013 38.2507 26.3013 37.1507 26.3013 36.0007C26.3013 34.8507 26.5013 33.734 26.8346 32.7006C26.9346 32.4006 27.0513 32.1007 27.1846 31.8007C28.718 28.3507 32.068 25.9173 36.0013 25.8007C36.1013 25.784 36.218 25.784 36.3346 25.784C38.718 25.784 40.5013 26.5673 41.7513 27.434C42.4013 27.884 43.268 27.784 43.8346 27.234L46.1513 24.9673C46.8846 24.2507 46.818 23.034 45.9846 22.434C43.3346 20.484 40.1013 19.334 36.3346 19.334C36.218 19.334 36.118 19.334 36.0013 19.3507C29.618 19.4673 24.1346 23.1673 21.4513 28.5173C20.318 30.784 19.668 33.3173 19.668 36.0007C19.668 38.684 20.318 41.2173 21.4513 43.484H21.468C24.1513 48.834 29.6346 52.534 36.0013 52.6506C36.118 52.6673 36.218 52.6673 36.3346 52.6673C40.8346 52.6673 44.618 51.184 47.368 48.634C50.518 45.7173 52.3346 41.4507 52.3346 36.3673C52.3346 35.6507 52.3013 35.034 52.2346 34.4507Z" fill="#E0704A"/>
</svg>
