<svg width="72" height="72" viewBox="0 0 72 72" fill="none" xmlns="http://www.w3.org/2000/svg">
<rect width="72" height="72" rx="12" fill="#FEF6ED"/>
<path d="M35.9987 19.334C26.8154 19.334 19.332 26.8173 19.332 36.0007C19.332 45.184 26.8154 52.6673 35.9987 52.6673C45.182 52.6673 52.6654 45.184 52.6654 36.0007C52.6654 26.8173 45.182 19.334 35.9987 19.334ZM43.2487 41.9507C43.0154 42.3507 42.5987 42.5673 42.1654 42.5673C41.9487 42.5673 41.732 42.5173 41.532 42.384L36.3654 39.3007C35.082 38.534 34.132 36.8507 34.132 35.3673V28.534C34.132 27.8507 34.6987 27.284 35.382 27.284C36.0654 27.284 36.632 27.8507 36.632 28.534V35.3673C36.632 35.9673 37.132 36.8507 37.6487 37.1507L42.8154 40.234C43.4154 40.584 43.6154 41.3507 43.2487 41.9507Z" fill="#E0704A"/>
</svg>
