<svg width="72" height="72" viewBox="0 0 72 72" fill="none" xmlns="http://www.w3.org/2000/svg">
<rect width="72" height="72" rx="12" fill="#EDF3FE"/>
<path d="M49.1654 38.5H22.832C20.332 38.5 19.332 39.5667 19.332 42.2167V48.95C19.332 51.6 20.332 52.6667 22.832 52.6667H49.1654C51.6654 52.6667 52.6654 51.6 52.6654 48.95V42.2167C52.6654 39.5667 51.6654 38.5 49.1654 38.5Z" fill="#4A86F7"/>
<path d="M37.4987 19.334H22.832C20.332 19.334 19.332 20.4007 19.332 23.0507V29.784C19.332 32.434 20.332 33.5007 22.832 33.5007H37.4987C39.9987 33.5007 40.9987 32.434 40.9987 29.784V23.0507C40.9987 20.4007 39.9987 19.334 37.4987 19.334Z" fill="#A3C2FB"/>
</svg>
