<svg width="72" height="72" viewBox="0 0 72 72" fill="none" xmlns="http://www.w3.org/2000/svg">
<rect width="72" height="72" rx="12" fill="#EDF3FE"/>
<path d="M52.6167 19.8827C51.4167 18.516 49.6333 17.666 47.6667 17.666C45.8 17.666 44.1 18.4327 42.8833 19.6827C42.1833 20.3993 41.65 21.266 41.3333 22.2327C41.1167 22.8993 41 23.5993 41 24.3327C41 25.5827 41.35 26.766 41.9667 27.766C42.3 28.3327 42.7333 28.8493 43.2333 29.2827C44.4 30.3493 45.95 30.9993 47.6667 30.9993C48.4 30.9993 49.1 30.8827 49.75 30.6493C51.2833 30.166 52.5667 29.116 53.3667 27.766C53.7167 27.1993 53.9833 26.5493 54.1333 25.8827C54.2667 25.3827 54.3333 24.866 54.3333 24.3327C54.3333 22.6327 53.6833 21.066 52.6167 19.8827ZM50.15 25.5493H48.9167V26.8493C48.9167 27.5327 48.35 28.0993 47.6667 28.0993C46.9833 28.0993 46.4167 27.5327 46.4167 26.8493V25.5493H45.1833C44.5 25.5493 43.9333 24.9827 43.9333 24.2993C43.9333 23.616 44.5 23.0493 45.1833 23.0493H46.4167V21.866C46.4167 21.1827 46.9833 20.616 47.6667 20.616C48.35 20.616 48.9167 21.1827 48.9167 21.866V23.0493H50.15C50.8333 23.0493 51.4 23.616 51.4 24.2993C51.4 24.9827 50.85 25.5493 50.15 25.5493Z" fill="#4A86F7"/>
<path d="M52.6654 36.0007C52.6654 33.8173 52.2487 31.7173 51.4654 29.8007C50.9487 30.1673 50.3654 30.4507 49.7487 30.6507C49.5654 30.7173 49.382 30.7673 49.182 30.8173C49.8154 32.4173 50.1654 34.1673 50.1654 36.0007C50.1654 39.8673 48.5987 43.384 46.0654 45.9507C45.582 45.334 44.9654 44.7673 44.232 44.284C39.7154 41.2507 32.3154 41.2507 27.7654 44.284C27.032 44.7673 26.432 45.334 25.932 45.9507C23.3987 43.384 21.832 39.8673 21.832 36.0007C21.832 28.184 28.182 21.834 35.9987 21.834C37.8154 21.834 39.5654 22.184 41.1654 22.8173C41.2154 22.6173 41.2654 22.434 41.332 22.234C41.532 21.6173 41.8154 21.0507 42.1987 20.534C40.282 19.7507 38.182 19.334 35.9987 19.334C26.8154 19.334 19.332 26.8173 19.332 36.0007C19.332 40.834 21.4154 45.184 24.7154 48.234C24.7154 48.2507 24.7154 48.2507 24.6987 48.2673C24.8654 48.434 25.0654 48.5673 25.232 48.7173C25.332 48.8007 25.4154 48.884 25.5154 48.9507C25.8154 49.2007 26.1487 49.434 26.4654 49.6673C26.582 49.7507 26.682 49.8173 26.7987 49.9007C27.1154 50.1173 27.4487 50.3173 27.7987 50.5007C27.9154 50.5673 28.0487 50.6507 28.1654 50.7173C28.4987 50.9007 28.8487 51.0673 29.2154 51.2173C29.3487 51.284 29.482 51.3507 29.6154 51.4007C29.982 51.5507 30.3487 51.684 30.7154 51.8007C30.8487 51.8507 30.982 51.9007 31.1154 51.934C31.5154 52.0507 31.9154 52.1507 32.3154 52.2507C32.432 52.284 32.5487 52.3173 32.682 52.334C33.1487 52.434 33.6154 52.5007 34.0987 52.5507C34.1654 52.5507 34.232 52.5673 34.2987 52.584C34.8654 52.634 35.432 52.6673 35.9987 52.6673C36.5654 52.6673 37.132 52.634 37.682 52.584C37.7487 52.584 37.8154 52.5673 37.882 52.5507C38.3654 52.5007 38.832 52.434 39.2987 52.334C39.4154 52.3173 39.532 52.2673 39.6654 52.2507C40.0654 52.1507 40.482 52.0673 40.8654 51.934C40.9987 51.884 41.132 51.834 41.2654 51.8007C41.632 51.6673 42.0154 51.5507 42.3654 51.4007C42.4987 51.3507 42.632 51.284 42.7654 51.2173C43.1154 51.0673 43.4654 50.9007 43.8154 50.7173C43.9487 50.6507 44.0654 50.5673 44.182 50.5007C44.5154 50.3007 44.8487 50.1173 45.182 49.9007C45.2987 49.834 45.3987 49.7507 45.5154 49.6673C45.8487 49.434 46.1654 49.2007 46.4654 48.9507C46.5654 48.8673 46.6487 48.784 46.7487 48.7173C46.932 48.5673 47.1154 48.4173 47.282 48.2673C47.282 48.2507 47.282 48.2507 47.2654 48.234C50.582 45.184 52.6654 40.834 52.6654 36.0007Z" fill="#4A86F7"/>
<path d="M36 27.5508C32.55 27.5508 29.75 30.3508 29.75 33.8008C29.75 37.1841 32.4 39.9341 35.9167 40.0341C35.9667 40.0341 36.0333 40.0341 36.0667 40.0341C36.1 40.0341 36.15 40.0341 36.1833 40.0341C36.2 40.0341 36.2167 40.0341 36.2167 40.0341C39.5833 39.9174 42.2333 37.1841 42.25 33.8008C42.25 30.3508 39.45 27.5508 36 27.5508Z" fill="#4A86F7"/>
</svg>
