<svg width="72" height="72" viewBox="0 0 72 72" fill="none" xmlns="http://www.w3.org/2000/svg">
<rect width="72" height="72" rx="12" fill="#EDF3FE"/>
<path d="M50.9987 24.75H39.332C38.6487 24.75 38.082 24.1833 38.082 23.5C38.082 22.8167 38.6487 22.25 39.332 22.25H50.9987C51.682 22.25 52.2487 22.8167 52.2487 23.5C52.2487 24.1833 51.682 24.75 50.9987 24.75Z" fill="#83BF6E"/>
<path d="M50.9987 33.084H39.332C38.6487 33.084 38.082 32.5173 38.082 31.834C38.082 31.1507 38.6487 30.584 39.332 30.584H50.9987C51.682 30.584 52.2487 31.1507 52.2487 31.834C52.2487 32.5173 51.682 33.084 50.9987 33.084Z" fill="#6E9EF9"/>
<path d="M51 41.416H21C20.3167 41.416 19.75 40.8493 19.75 40.166C19.75 39.4827 20.3167 38.916 21 38.916H51C51.6833 38.916 52.25 39.4827 52.25 40.166C52.25 40.8493 51.6833 41.416 51 41.416Z" fill="#6E9EF9"/>
<path d="M51 49.75H21C20.3167 49.75 19.75 49.1833 19.75 48.5C19.75 47.8167 20.3167 47.25 21 47.25H51C51.6833 47.25 52.25 47.8167 52.25 48.5C52.25 49.1833 51.6833 49.75 51 49.75Z" fill="#6E9EF9"/>
<path d="M29.2 21.834H24.4667C22.1333 21.834 21 22.9673 21 25.3007V30.0507C21 32.384 22.1333 33.5173 24.4667 33.5173H29.2167C31.55 33.5173 32.6833 32.384 32.6833 30.0507V25.3007C32.6667 22.9673 31.5333 21.834 29.2 21.834Z" fill="#4A86F7"/>
</svg>
