<svg width="72" height="72" viewBox="0 0 72 72" fill="none" xmlns="http://www.w3.org/2000/svg">
<rect width="72" height="72" rx="12" fill="#FBEDF0"/>
<path d="M42.6654 29.334H29.332V42.6673H42.6654V29.334Z" fill="#D34B6A"/>
<path d="M19.332 47.666C19.332 50.416 21.582 52.666 24.332 52.666C27.082 52.666 29.332 50.416 29.332 47.666V42.666H24.332C21.582 42.666 19.332 44.916 19.332 47.666Z" fill="#E79CAD"/>
<path d="M24.332 19.334C21.582 19.334 19.332 21.584 19.332 24.334C19.332 27.084 21.582 29.334 24.332 29.334H29.332V24.334C29.332 21.584 27.082 19.334 24.332 19.334Z" fill="#E79CAD"/>
<path d="M52.668 24.334C52.668 21.584 50.418 19.334 47.668 19.334C44.918 19.334 42.668 21.584 42.668 24.334V29.334H47.668C50.418 29.334 52.668 27.084 52.668 24.334Z" fill="#E79CAD"/>
<path d="M47.668 42.666H42.668V47.666C42.668 50.416 44.918 52.666 47.668 52.666C50.418 52.666 52.668 50.416 52.668 47.666C52.668 44.916 50.418 42.666 47.668 42.666Z" fill="#E79CAD"/>
</svg>
