<svg width="72" height="72" viewBox="0 0 72 72" fill="none" xmlns="http://www.w3.org/2000/svg">
<rect width="72" height="72" rx="12" fill="#F3F9F1"/>
<path d="M43.9183 21.934V19.334C43.9183 18.6507 43.3517 18.084 42.6683 18.084C41.985 18.084 41.4183 18.6507 41.4183 19.334V21.834H30.585V19.334C30.585 18.6507 30.0184 18.084 29.335 18.084C28.6517 18.084 28.085 18.6507 28.085 19.334V21.934C23.585 22.3507 21.4017 25.034 21.0684 29.0173C21.035 29.5007 21.435 29.9007 21.9017 29.9007H50.1017C50.585 29.9007 50.985 29.484 50.935 29.0173C50.6017 25.034 48.4183 22.3507 43.9183 21.934Z" fill="#BBDCAF"/>
<path d="M49.3333 32.4004H22.6667C21.75 32.4004 21 33.1504 21 34.0671V44.3337C21 49.3337 23.5 52.6671 29.3333 52.6671H42.6667C48.5 52.6671 51 49.3337 51 44.3337V34.0671C51 33.1504 50.25 32.4004 49.3333 32.4004ZM40.7333 40.9837L39.9 41.8337H39.8833L34.8333 46.8837C34.6167 47.1004 34.1667 47.3337 33.85 47.3671L31.6 47.7004C30.7833 47.8171 30.2167 47.2337 30.3333 46.4337L30.65 44.1671C30.7 43.8504 30.9167 43.4171 31.1333 43.1837L36.2 38.1337L37.0333 37.2837C37.5833 36.7337 38.2 36.3337 38.8667 36.3337C39.4333 36.3337 40.05 36.6004 40.7333 37.2837C42.2333 38.7837 41.75 39.9671 40.7333 40.9837Z" fill="#83BF6E"/>
</svg>
