<svg width="72" height="72" viewBox="0 0 72 72" fill="none" xmlns="http://www.w3.org/2000/svg">
<rect width="72" height="72" rx="12" fill="#EEF8FE"/>
<path d="M26 24.5339C25.3167 24.5339 24.75 23.9672 24.75 23.2839V20.3672C24.75 19.6839 25.3167 19.1172 26 19.1172C26.6833 19.1172 27.25 19.6839 27.25 20.3672V23.2839C27.25 23.9839 26.6833 24.5339 26 24.5339Z" fill="#83BF6E"/>
<path d="M32.668 24.5339C31.9846 24.5339 31.418 23.9672 31.418 23.2839V20.3672C31.418 19.6839 31.9846 19.1172 32.668 19.1172C33.3513 19.1172 33.918 19.6839 33.918 20.3672V23.2839C33.918 23.9839 33.3513 24.5339 32.668 24.5339Z" fill="#ABDAF7"/>
<path d="M39.332 24.5339C38.6487 24.5339 38.082 23.9672 38.082 23.2839V20.3672C38.082 19.6839 38.6487 19.1172 39.332 19.1172C40.0154 19.1172 40.582 19.6839 40.582 20.3672V23.2839C40.582 23.9839 40.0154 24.5339 39.332 24.5339Z" fill="#ABDAF7"/>
<path d="M53.0846 38.0836C53.0846 33.7169 49.7013 30.1836 45.4346 29.8169C44.2013 27.8003 42.0013 26.4336 39.468 26.4336H27.1846C23.318 26.4336 20.168 29.5836 20.168 33.4503V34.3336H46.4846V33.4503C46.4846 33.1336 46.4346 32.8169 46.3846 32.5169C48.8013 33.2336 50.5846 35.4336 50.5846 38.0836C50.5846 40.7003 48.8513 42.8836 46.4846 43.6169V36.0003H20.168V45.6503C20.168 49.5169 23.318 52.6669 27.1846 52.6669H39.468C43.1346 52.6669 46.118 49.8336 46.418 46.2336C50.218 45.4669 53.0846 42.1003 53.0846 38.0836Z" fill="#57B6F0"/>
</svg>
