<svg width="72" height="72" viewBox="0 0 72 72" fill="none" xmlns="http://www.w3.org/2000/svg">
<rect width="72" height="72" rx="12" fill="#FCF1ED"/>
<path d="M27.1154 39.334H22.6654C20.832 39.334 19.332 40.834 19.332 42.6673V51.0007C19.332 51.9173 20.082 52.6673 20.9987 52.6673H27.1154C28.032 52.6673 28.782 51.9173 28.782 51.0007V41.0007C28.782 40.084 28.032 39.334 27.1154 39.334Z" fill="#FAA284"/>
<path d="M38.2169 32.666H33.7669C31.9336 32.666 30.4336 34.166 30.4336 35.9993V50.9994C30.4336 51.916 31.1836 52.666 32.1003 52.666H39.8836C40.8003 52.666 41.5503 51.916 41.5503 50.9994V35.9993C41.5503 34.166 40.0669 32.666 38.2169 32.666Z" fill="#E0704A"/>
<path d="M49.3315 44.334H44.8815C43.9648 44.334 43.2148 45.084 43.2148 46.0007V51.0007C43.2148 51.9173 43.9648 52.6673 44.8815 52.6673H50.9982C51.9148 52.6673 52.6648 51.9173 52.6648 51.0007V47.6673C52.6648 45.834 51.1648 44.334 49.3315 44.334Z" fill="#FAA284"/>
<path d="M41.0158 24.0835C41.5324 23.5668 41.7324 22.9501 41.5658 22.4168C41.3991 21.8835 40.8824 21.5001 40.1491 21.3835L38.5491 21.1168C38.4824 21.1168 38.3324 21.0001 38.2991 20.9335L37.4158 19.1668C36.7491 17.8168 35.2324 17.8168 34.5658 19.1668L33.6824 20.9335C33.6658 21.0001 33.5158 21.1168 33.4491 21.1168L31.8491 21.3835C31.1158 21.5001 30.6158 21.8835 30.4324 22.4168C30.2658 22.9501 30.4658 23.5668 30.9824 24.0835L32.2158 25.3335C32.2824 25.3835 32.3324 25.5835 32.3158 25.6501L31.9658 27.1835C31.6991 28.3335 32.1324 28.8501 32.4158 29.0501C32.6991 29.2501 33.3158 29.5168 34.3324 28.9168L35.8324 28.0335C35.8991 27.9835 36.1158 27.9835 36.1824 28.0335L37.6658 28.9168C38.1324 29.2001 38.5158 29.2835 38.8158 29.2835C39.1658 29.2835 39.4158 29.1501 39.5658 29.0501C39.8491 28.8501 40.2824 28.3335 40.0158 27.1835L39.6658 25.6501C39.6491 25.5668 39.6991 25.3835 39.7658 25.3335L41.0158 24.0835Z" fill="#E0704A"/>
</svg>
