<svg width="72" height="72" viewBox="0 0 72 72" fill="none" xmlns="http://www.w3.org/2000/svg">
<rect width="72" height="72" rx="12" fill="#FEF6ED"/>
<path d="M42.982 19.334H29.0154C22.9487 19.334 19.332 22.9507 19.332 29.0173V42.9673C19.332 49.0507 22.9487 52.6673 29.0154 52.6673H42.9654C49.032 52.6673 52.6487 49.0507 52.6487 42.984V29.0173C52.6654 22.9507 49.0487 19.334 42.982 19.334ZM44.9154 31.084L41.0154 43.6507C40.082 46.634 35.8987 46.684 34.9154 43.7173L33.7487 40.2673C33.432 39.3173 32.682 38.5507 31.732 38.2507L28.2654 37.084C25.332 36.1007 25.3654 31.884 28.3487 30.984L40.9154 27.0673C43.382 26.3173 45.6987 28.634 44.9154 31.084Z" fill="#F2A84C"/>
</svg>
