<svg width="72" height="72" viewBox="0 0 72 72" fill="none" xmlns="http://www.w3.org/2000/svg">
<rect width="72" height="72" rx="12" fill="#FCF1ED"/>
<path d="M44.3346 53.916H27.668C26.9846 53.916 26.418 53.3493 26.418 52.666C26.418 51.9827 26.9846 51.416 27.668 51.416H44.3346C45.018 51.416 45.5846 51.9827 45.5846 52.666C45.5846 53.3493 45.018 53.916 44.3346 53.916Z" fill="#FAA284"/>
<path d="M45.9987 19.334H25.9987C22.3154 19.334 19.332 22.3173 19.332 26.0007V41.0007C19.332 44.684 22.3154 47.6673 25.9987 47.6673H45.9987C49.682 47.6673 52.6654 44.684 52.6654 41.0007V26.0007C52.6654 22.3173 49.682 19.334 45.9987 19.334ZM32.6487 28.2007C33.582 28.2007 34.332 28.9507 34.332 29.8673C34.332 30.784 33.582 31.534 32.6654 31.534C31.7487 31.534 30.9987 30.784 30.9987 29.8673C30.9987 28.9507 31.732 28.2007 32.6487 28.2007ZM27.3987 28.2007C28.332 28.2007 29.082 28.9507 29.082 29.8673C29.082 30.784 28.332 31.534 27.4154 31.534C26.4987 31.534 25.7487 30.784 25.7487 29.8673C25.7487 28.9507 26.4654 28.2007 27.3987 28.2007ZM44.7654 40.7673H27.2654C26.5654 40.7673 25.9987 40.2006 25.9987 39.5173C25.9987 38.834 26.5487 38.2673 27.232 38.2673H44.782C45.4654 38.2673 46.032 38.834 46.032 39.5173C46.032 40.2006 45.4654 40.7673 44.7654 40.7673ZM44.7654 31.1173H38.632C37.9487 31.1173 37.382 30.5507 37.382 29.8673C37.382 29.184 37.9487 28.6173 38.632 28.6173H44.7654C45.4487 28.6173 46.0154 29.184 46.0154 29.8673C46.0154 30.5507 45.4654 31.1173 44.7654 31.1173Z" fill="#E0704A"/>
</svg>
