<svg width="72" height="72" viewBox="0 0 72 72" fill="none" xmlns="http://www.w3.org/2000/svg">
<rect width="72" height="72" rx="12" fill="#F3F9F1"/>
<path d="M42.982 19.332H29.0154C22.9487 19.332 19.332 22.9487 19.332 29.0154V42.9654C19.332 49.0487 22.9487 52.6654 29.0154 52.6654H42.9654C49.032 52.6654 52.6487 49.0487 52.6487 42.982V29.0154C52.6654 22.9487 49.0487 19.332 42.982 19.332ZM35.9987 46.4154C33.0154 46.4154 30.682 44.932 29.0987 43.4654V44.6487C29.0987 45.332 28.532 45.8987 27.8487 45.8987C27.1654 45.8987 26.5987 45.332 26.5987 44.6487V40.0654C26.5987 39.382 27.1654 38.8154 27.8487 38.8154H31.982C32.6654 38.8154 33.232 39.382 33.232 40.0654C33.232 40.7487 32.6654 41.3154 31.982 41.3154H30.482C31.7154 42.5487 33.632 43.9154 35.9987 43.9154C40.3654 43.9154 43.9154 40.3654 43.9154 35.9987C43.9154 35.3154 44.482 34.7487 45.1654 34.7487C45.8487 34.7487 46.4154 35.3154 46.4154 35.9987C46.4154 41.7487 41.7487 46.4154 35.9987 46.4154ZM46.4154 31.8987C46.4154 31.9487 46.4154 31.9987 46.4154 32.032C46.3987 32.2154 46.3487 32.382 46.2654 32.532C46.182 32.682 46.0654 32.8154 45.9154 32.932C45.7987 33.0154 45.6654 33.082 45.5154 33.132C45.3987 33.1654 45.282 33.182 45.1654 33.182H41.1154C40.432 33.182 39.8654 32.6154 39.8654 31.932C39.8654 31.2487 40.432 30.682 41.1154 30.682H42.4987C41.1654 29.4487 39.0154 28.082 36.032 28.082C31.6654 28.082 28.1154 31.632 28.1154 35.9987C28.1154 36.682 27.5487 37.2487 26.8654 37.2487C26.182 37.2487 25.582 36.682 25.582 35.9987C25.582 30.2487 30.2487 25.582 35.9987 25.582C39.582 25.582 42.2154 27.132 43.9154 28.6154V27.3487C43.9154 26.6654 44.482 26.0987 45.1654 26.0987C45.8487 26.0987 46.4154 26.6654 46.4154 27.3487V31.8987Z" fill="#83BF6E"/>
</svg>
