<svg width="72" height="72" viewBox="0 0 72 72" fill="none" xmlns="http://www.w3.org/2000/svg">
<rect width="72" height="72" rx="12" fill="#F3F9F1"/>
<path d="M51.4154 31.2501C47.5654 25.2001 41.932 21.7168 35.9987 21.7168C33.032 21.7168 30.1487 22.5835 27.5154 24.2001C24.882 25.8335 22.5154 28.2168 20.582 31.2501C18.9154 33.8668 18.9154 38.1168 20.582 40.7335C24.432 46.8001 30.0654 50.2668 35.9987 50.2668C38.9654 50.2668 41.8487 49.4001 44.482 47.7835C47.1154 46.1501 49.482 43.7668 51.4154 40.7335C53.082 38.1335 53.082 33.8668 51.4154 31.2501ZM35.9987 42.7335C32.2654 42.7335 29.2654 39.7168 29.2654 36.0001C29.2654 32.2835 32.2654 29.2668 35.9987 29.2668C39.732 29.2668 42.732 32.2835 42.732 36.0001C42.732 39.7168 39.732 42.7335 35.9987 42.7335Z" fill="#83BF6E"/>
<path d="M36 31.2324C33.3833 31.2324 31.25 33.3658 31.25 35.9991C31.25 38.6158 33.3833 40.7491 36 40.7491C38.6167 40.7491 40.7667 38.6158 40.7667 35.9991C40.7667 33.3824 38.6167 31.2324 36 31.2324Z" fill="#BBDCAF"/>
</svg>
