<svg width="72" height="72" viewBox="0 0 72 72" fill="none" xmlns="http://www.w3.org/2000/svg">
<rect width="72" height="72" rx="12" fill="#EDF3FE"/>
<path d="M28.7516 50.8491C28.7016 50.8491 28.6349 50.8824 28.5849 50.8824C25.3516 49.2824 22.7182 46.6324 21.1016 43.3991C21.1016 43.3491 21.1349 43.2824 21.1349 43.2324C23.1682 43.8324 25.2682 44.2824 27.3516 44.6324C27.7182 46.7324 28.1516 48.8158 28.7516 50.8491Z" fill="#4A86F7"/>
<path d="M50.8984 43.4158C49.2484 46.7324 46.4984 49.4158 43.1484 51.0324C43.7818 48.9158 44.3151 46.7824 44.6651 44.6324C46.7651 44.2824 48.8318 43.8324 50.8651 43.2324C50.8484 43.2991 50.8984 43.3658 50.8984 43.4158Z" fill="#4A86F7"/>
<path d="M51.0318 28.8501C48.9318 28.2168 46.8151 27.7001 44.6651 27.3335C44.3151 25.1835 43.7984 23.0501 43.1484 20.9668C46.5984 22.6168 49.3818 25.4001 51.0318 28.8501Z" fill="#4A86F7"/>
<path d="M28.7521 21.1477C28.1521 23.181 27.7187 25.2477 27.3687 27.3477C25.2187 27.681 23.0854 28.2143 20.9688 28.8477C22.5854 25.4977 25.2687 22.7477 28.5854 21.0977C28.6354 21.0977 28.7021 21.1477 28.7521 21.1477Z" fill="#4A86F7"/>
<path d="M41.8169 26.984C37.9503 26.5507 34.0503 26.5507 30.1836 26.984C30.6003 24.7007 31.1336 22.4173 31.8836 20.2173C31.9169 20.084 31.9003 19.984 31.9169 19.8507C33.2336 19.534 34.5836 19.334 36.0003 19.334C37.4003 19.334 38.7669 19.534 40.0669 19.8507C40.0836 19.984 40.0836 20.084 40.1169 20.2173C40.8669 22.434 41.4003 24.7007 41.8169 26.984Z" fill="#4A86F7"/>
<path d="M26.982 41.8189C24.682 41.4022 22.4154 40.8689 20.2154 40.1189C20.082 40.0855 19.982 40.1022 19.8487 40.0855C19.532 38.7689 19.332 37.4189 19.332 36.0022C19.332 34.6022 19.532 33.2355 19.8487 31.9355C19.982 31.9189 20.082 31.9189 20.2154 31.8855C22.432 31.1522 24.682 30.6022 26.982 30.1855C26.5654 34.0522 26.5654 37.9522 26.982 41.8189Z" fill="#4A86F7"/>
<path d="M52.6656 36.0022C52.6656 37.4189 52.4656 38.7689 52.149 40.0855C52.0156 40.1022 51.9156 40.0855 51.7823 40.1189C49.5656 40.8522 47.299 41.4022 45.0156 41.8189C45.449 37.9522 45.449 34.0522 45.0156 30.1855C47.299 30.6022 49.5823 31.1355 51.7823 31.8855C51.9156 31.9189 52.0156 31.9355 52.149 31.9355C52.4656 33.2522 52.6656 34.6022 52.6656 36.0022Z" fill="#4A86F7"/>
<path d="M41.8169 45.0176C41.4003 47.3176 40.8669 49.5842 40.1169 51.7842C40.0836 51.9176 40.0836 52.0176 40.0669 52.1509C38.7669 52.4676 37.4003 52.6676 36.0003 52.6676C34.5836 52.6676 33.2336 52.4676 31.9169 52.1509C31.9003 52.0176 31.9169 51.9176 31.8836 51.7842C31.1503 49.5676 30.6003 47.3176 30.1836 45.0176C32.1169 45.2342 34.0503 45.3842 36.0003 45.3842C37.9503 45.3842 39.9003 45.2342 41.8169 45.0176Z" fill="#4A86F7"/>
<path d="M42.2709 42.2729C38.1024 42.7988 33.895 42.7988 29.7265 42.2729C29.2005 38.1044 29.2005 33.8969 29.7265 29.7284C33.895 29.2025 38.1024 29.2025 42.2709 29.7284C42.7968 33.8969 42.7968 38.1044 42.2709 42.2729Z" fill="#4A86F7"/>
</svg>
