<svg width="72" height="72" viewBox="0 0 72 72" fill="none" xmlns="http://www.w3.org/2000/svg">
<rect width="72" height="72" rx="12" fill="#EEF8FE"/>
<path d="M42.982 19.334H29.0154C22.9487 19.334 19.332 22.9507 19.332 29.0173V42.9673C19.332 49.0507 22.9487 52.6673 29.0154 52.6673H42.9654C49.032 52.6673 52.6487 49.0507 52.6487 42.984V29.0173C52.6654 22.9507 49.0487 19.334 42.982 19.334ZM44.7654 32.6007L40.9154 37.5673C40.432 38.184 39.7487 38.584 38.9654 38.6673C38.182 38.7673 37.4154 38.5507 36.7987 38.0673L33.7487 35.6673C33.632 35.5673 33.4987 35.5673 33.432 35.584C33.3654 35.584 33.2487 35.6173 33.1487 35.7507L29.182 40.9007C28.932 41.2173 28.5654 41.384 28.1987 41.384C27.932 41.384 27.6654 41.3007 27.432 41.1173C26.882 40.7007 26.782 39.9173 27.1987 39.3673L31.1654 34.2173C31.6487 33.6007 32.332 33.2007 33.1154 33.1007C33.882 33.0007 34.6654 33.2173 35.282 33.7007L38.332 36.1007C38.4487 36.2007 38.5654 36.2007 38.6487 36.184C38.7154 36.184 38.832 36.1507 38.932 36.0173L42.782 31.0507C43.1987 30.5007 43.9987 30.4007 44.532 30.834C45.082 31.284 45.182 32.0673 44.7654 32.6007Z" fill="#84CAF4"/>
</svg>
