<svg width="72" height="72" viewBox="0 0 72 72" fill="none" xmlns="http://www.w3.org/2000/svg">
<rect width="72" height="72" rx="12" fill="#F3F9F1"/>
<path d="M42.2987 19.334H29.6987C23.3987 19.334 21.832 21.0173 21.832 27.734V46.5007C21.832 50.934 24.2654 51.984 27.2154 48.8173L27.232 48.8007C28.5987 47.3507 30.682 47.4673 31.8654 49.0507L33.5487 51.3007C34.8987 53.084 37.082 53.084 38.432 51.3007L40.1154 49.0507C41.3154 47.4507 43.3987 47.334 44.7654 48.8007C47.732 51.9673 50.1487 50.9173 50.1487 46.484V27.734C50.1654 21.0173 48.5987 19.334 42.2987 19.334ZM40.9987 35.584H30.9987C30.3154 35.584 29.7487 35.0173 29.7487 34.334C29.7487 33.6507 30.3154 33.084 30.9987 33.084H40.9987C41.682 33.084 42.2487 33.6507 42.2487 34.334C42.2487 35.0173 41.682 35.584 40.9987 35.584ZM42.6654 28.9173H29.332C28.6487 28.9173 28.082 28.3507 28.082 27.6673C28.082 26.984 28.6487 26.4173 29.332 26.4173H42.6654C43.3487 26.4173 43.9154 26.984 43.9154 27.6673C43.9154 28.3507 43.3487 28.9173 42.6654 28.9173Z" fill="#83BF6E"/>
</svg>
