<svg width="28" height="28" viewBox="0 0 28 28" fill="none" xmlns="http://www.w3.org/2000/svg">
<path d="M20.0627 26.5828C20.8613 27.3449 22.1262 27.316 22.8891 26.5181L26.8504 22.3753C27.6018 21.5894 27.5878 20.3472 26.8187 19.5785L23.2882 16.05C22.4959 15.2581 22.5084 13.97 23.3159 13.1937L26.3392 10.2869C27.4468 9.22205 26.9899 7.35795 25.5156 6.92587L3.33146 0.424544C1.85193 -0.00905087 0.45887 1.32384 0.826766 2.82107L6.11005 24.3224C6.48702 25.8565 8.41023 26.3686 9.50011 25.2249L12.4727 22.1057C13.2351 21.3057 14.5019 21.2757 15.3014 22.0386L20.0627 26.5828Z" fill="white"/>
</svg>
