<svg width="761" height="587" viewBox="0 0 761 587" fill="none" xmlns="http://www.w3.org/2000/svg">
<path opacity="0.2" d="M536.86 298.23C421.195 406.68 176.071 594.226 120.895 476.815C51.9246 330.052 176.822 174.804 225.62 206.347C274.418 237.891 169.966 304.025 130.415 229.461" stroke="#EBEEF2" stroke-width="3"/>
<circle opacity="0.2" r="6.5" transform="matrix(-1 0 0 1 102.002 362.48)" fill="#EBEEF2" stroke="#EBEEF2"/>
<circle opacity="0.2" r="6.5" transform="matrix(-1 0 0 1 100.002 387.48)" fill="#EBEEF2" stroke="#EBEEF2"/>
<circle opacity="0.2" r="6.5" transform="matrix(-1 0 0 1 105.002 432.48)" fill="#EBEEF2" stroke="#EBEEF2"/>
<path d="M630.356 325.187L625.572 344.34L622.587 356.294L613.012 394.611L536.405 345.919L537.568 378.617L538.155 395.049L542.209 508.815C542.268 510.493 541.989 512.167 541.389 513.735C540.788 515.304 539.878 516.735 538.712 517.943C537.547 519.152 536.15 520.114 534.605 520.77C533.06 521.427 531.399 521.766 529.721 521.766H426.078L432.58 517.2C445.057 508.444 455.128 496.682 461.861 483.001C468.594 469.32 471.772 454.161 471.102 438.925L469.141 394.351L468.394 377.37L466.649 337.695C466.744 331.218 467.929 324.803 470.155 318.719C472.701 311.799 476.575 305.443 481.557 300.01C497.617 282.43 524.199 275.326 548.384 286.709L630.356 325.187Z" fill="#FADD6F"/>
<path d="M625.579 344.34L622.594 356.294L613.019 394.612L536.412 345.92L537.575 378.617L486.305 359.741L468.401 377.371L466.656 337.695C466.751 331.218 467.936 324.803 470.162 318.72C472.708 311.799 476.582 305.444 481.564 300.01C493.378 298.896 505.295 300.158 516.614 303.723L608.034 331.832C615.085 333.984 621.243 338.375 625.579 344.34Z" fill="#E0B93F"/>
<path d="M744.582 307.321L725.753 282.266L697.753 307.465L708.209 323.365C708.475 323.697 708.604 324.118 708.569 324.541C708.534 324.965 708.339 325.359 708.022 325.643C707.706 325.927 707.293 326.079 706.868 326.067C706.444 326.056 706.039 325.882 705.739 325.582L691.085 313.461L663.18 338.572L684.501 359.759C691.412 366.627 700.592 370.734 710.315 371.307C720.038 371.881 729.635 368.882 737.305 362.874C745.547 356.413 750.927 346.974 752.288 336.585C753.649 326.197 750.882 315.689 744.582 307.321Z" fill="#ABDAF7"/>
<path d="M733.674 159.889L733.137 165.054L731.271 183.071L730.567 189.898L729.438 200.794L694.842 222.984L655.932 209.75L642.016 171.056L663.564 136.042L704.362 131.07L729.227 155.516L733.674 159.889Z" fill="#2448B1"/>
<path d="M622.178 385.549L758.412 266.064C759.392 265.205 760.129 264.103 760.549 262.868C760.968 261.633 761.056 260.31 760.802 259.031C760.548 257.752 759.962 256.562 759.103 255.582C758.244 254.601 757.143 253.864 755.909 253.445L584.376 195.093C583.143 194.674 581.821 194.588 580.544 194.842C579.266 195.096 578.078 195.682 577.099 196.542C576.12 197.401 575.383 198.503 574.965 199.737C574.546 200.971 574.459 202.294 574.713 203.573L609.978 381.409C610.229 382.694 610.814 383.889 611.674 384.874C612.535 385.859 613.64 386.599 614.879 387.02C616.117 387.44 617.444 387.525 618.726 387.267C620.008 387.009 621.199 386.416 622.178 385.549Z" fill="#2448B1"/>
<path d="M711.652 124.388C717.215 124.388 721.725 119.875 721.725 114.307C721.725 108.74 717.215 104.227 711.652 104.227C706.088 104.227 701.578 108.74 701.578 114.307C701.578 119.875 706.088 124.388 711.652 124.388Z" fill="#FADD6F"/>
<path d="M613.019 394.611L536.412 345.919L538.162 395.043L492.84 378.357C491.216 377.759 489.456 377.636 487.764 378.001C486.073 378.366 484.52 379.204 483.287 380.418L469.148 394.345L466.656 337.689C466.751 331.212 467.936 324.797 470.162 318.714C485.869 314.93 502.31 315.493 517.722 320.343L609.142 348.452C614.171 349.991 618.775 352.675 622.594 356.294L613.019 394.611Z" fill="#E0B93F"/>
<path d="M668.499 28.3306C668.646 28.3306 668.787 28.2722 668.89 28.1683C668.994 28.0644 669.053 27.9234 669.053 27.7764C669.053 27.6294 668.994 27.4885 668.89 27.3846C668.787 27.2806 668.646 27.2222 668.499 27.2222H571.086V1.23592H668.499C668.646 1.23592 668.787 1.17749 668.89 1.07356C668.994 0.969623 669.053 0.828703 669.053 0.68172C669.053 0.534738 668.994 0.39375 668.89 0.289817C668.787 0.185885 668.646 0.127522 668.499 0.127522H570.865C570.767 0.0461102 570.643 0.00103134 570.516 0C570.39 0.00229329 570.269 0.0472975 570.173 0.127522H411.926C411.828 0.0461102 411.704 0.00103134 411.577 0C411.451 0.00229329 411.33 0.0472975 411.233 0.127522H264.334C264.237 0.0472975 264.116 0.00229329 263.991 0C263.863 0.00103134 263.74 0.0461102 263.642 0.127522H109.554C109.407 0.127522 109.266 0.185885 109.162 0.289817C109.058 0.39375 109 0.534738 109 0.68172C109 0.828703 109.058 0.969623 109.162 1.07356C109.266 1.17749 109.407 1.23592 109.554 1.23592H263.47V27.2222H109.554C109.407 27.2222 109.266 27.2806 109.162 27.3846C109.058 27.4885 109 27.6294 109 27.7764C109 27.9234 109.058 28.0644 109.162 28.1683C109.266 28.2722 109.407 28.3306 109.554 28.3306H263.47V54.3169H109.554C109.407 54.3169 109.266 54.3754 109.162 54.4793C109.058 54.5832 109 54.7242 109 54.8711C109 55.0181 109.058 55.1591 109.162 55.2631C109.266 55.367 109.407 55.4253 109.554 55.4253H263.47V81.4117H109.554C109.407 81.4117 109.266 81.4701 109.162 81.5741C109.058 81.678 109 81.8189 109 81.9659C109 82.1129 109.058 82.2539 109.162 82.3578C109.266 82.4617 109.407 82.5201 109.554 82.5201H263.47V258.262C263.47 258.409 263.528 258.55 263.632 258.654C263.736 258.758 263.877 258.816 264.024 258.816C264.171 258.816 264.311 258.758 264.415 258.654C264.519 258.55 264.578 258.409 264.578 258.262V82.5201H411.056V258.262C411.056 258.409 411.115 258.55 411.218 258.654C411.322 258.758 411.463 258.816 411.61 258.816C411.757 258.816 411.898 258.758 412.002 258.654C412.105 258.55 412.164 258.409 412.164 258.262V82.5201H569.995V252.997C569.995 253.144 570.054 253.285 570.158 253.389C570.261 253.493 570.402 253.551 570.549 253.551C570.696 253.551 570.837 253.493 570.941 253.389C571.045 253.285 571.103 253.144 571.103 252.997V82.5201H668.515C668.662 82.5201 668.803 82.4617 668.907 82.3578C669.011 82.2539 669.069 82.1129 669.069 81.9659C669.069 81.8189 669.011 81.678 668.907 81.5741C668.803 81.4701 668.662 81.4117 668.515 81.4117H571.103V55.4253H668.515C668.662 55.4253 668.803 55.367 668.907 55.2631C669.011 55.1591 669.069 55.0181 669.069 54.8711C669.069 54.7242 669.011 54.5832 668.907 54.4793C668.803 54.3754 668.662 54.3169 668.515 54.3169H571.103V28.3306H668.499ZM569.979 27.2222H412.147V1.23592H569.979V27.2222ZM264.555 1.23592H411.034V27.2222H264.555V1.23592ZM264.555 28.3306H411.034V54.3169H264.555V28.3306ZM264.555 81.4117V55.4253H411.034V81.4117H264.555ZM569.979 81.4117H412.147V55.4253H569.979V81.4117ZM569.979 54.3169H412.147V28.3306H569.979V54.3169Z" fill="white"/>
<g opacity="0.2">
<path opacity="0.2" d="M235.59 130.683L176.367 127.723L180.155 76.1387L233.502 73.9219L235.59 130.683Z" fill="#35353D"/>
</g>
<path d="M233.508 128.42L175.266 125.511L179.054 73.9258H233.508V128.42Z" fill="white"/>
<path d="M233.779 128.713L174.961 125.776L178.793 73.6484H233.779V128.713ZM175.554 125.25L233.226 128.132V74.2026H179.33L175.554 125.25Z" fill="#EBEEF2"/>
<g opacity="0.2">
<path opacity="0.2" d="M469.145 85.5234L526.009 88.2944C526.009 88.2944 529.98 121.297 543.514 134.847L477.613 143.11C477.613 143.11 458.252 117.866 469.145 85.5234Z" fill="#35353D"/>
</g>
<path d="M469.144 85.5234H528.223C528.223 85.5234 532.193 118.526 545.728 132.076L481.704 140.334C481.704 140.334 458.251 117.866 469.144 85.5234Z" fill="white"/>
<path d="M481.586 140.621L481.492 140.533C477.192 136.026 473.671 130.834 471.075 125.17C465.174 112.724 464.379 98.4603 468.86 85.4345L468.926 85.2461H528.448L528.481 85.4899C528.52 85.8169 532.59 118.553 545.904 131.876L546.302 132.275L481.586 140.621ZM469.341 85.8003C459.124 116.481 480.19 138.449 481.785 140.04L545.139 131.871C532.607 118.803 528.376 88.8207 527.972 85.8003H469.341Z" fill="#EBEEF2"/>
<path d="M499.688 87.5635L498.172 78.1641L494.733 78.7196L496.249 88.119L499.688 87.5635Z" fill="#E0704A"/>
<path d="M207.125 77.6159V70.2227H201.642V77.6159H207.125Z" fill="#83BF6E"/>
<path d="M397.223 114.309C400.327 114.309 402.844 111.79 402.844 108.684C402.844 105.577 400.327 103.059 397.223 103.059C394.118 103.059 391.602 105.577 391.602 108.684C391.602 111.79 394.118 114.309 397.223 114.309Z" fill="#FADD6F"/>
<path d="M585.223 74.594C588.327 74.594 590.844 72.0756 590.844 68.9689C590.844 65.8623 588.327 63.3438 585.223 63.3438C582.118 63.3438 579.602 65.8623 579.602 68.9689C579.602 72.0756 582.118 74.594 585.223 74.594Z" fill="#FADD6F"/>
<path d="M554.918 19.8596C558.022 19.8596 560.539 17.3412 560.539 14.2346C560.539 11.1279 558.022 8.60938 554.918 8.60938C551.814 8.60938 549.297 11.1279 549.297 14.2346C549.297 17.3412 551.814 19.8596 554.918 19.8596Z" fill="#E0704A"/>
<path d="M212.746 19.8596C215.85 19.8596 218.367 17.3412 218.367 14.2346C218.367 11.1279 215.85 8.60938 212.746 8.60938C209.642 8.60938 207.125 11.1279 207.125 14.2346C207.125 17.3412 209.642 19.8596 212.746 19.8596Z" fill="#E0704A"/>
<path d="M196.019 19.8596C199.124 19.8596 201.64 17.3412 201.64 14.2346C201.64 11.1279 199.124 8.60938 196.019 8.60938C192.915 8.60938 190.398 11.1279 190.398 14.2346C190.398 17.3412 192.915 19.8596 196.019 19.8596Z" fill="#FADD6F"/>
<path d="M535.516 15.6185H498.174C497.806 15.6185 497.454 15.4725 497.195 15.2127C496.935 14.9529 496.789 14.6005 496.789 14.2331C496.789 13.8656 496.935 13.5132 497.195 13.2534C497.454 12.9936 497.806 12.8477 498.174 12.8477H535.516C535.883 12.8477 536.235 12.9936 536.495 13.2534C536.755 13.5132 536.9 13.8656 536.9 14.2331C536.9 14.6005 536.755 14.9529 536.495 15.2127C536.235 15.4725 535.883 15.6185 535.516 15.6185Z" fill="#F3F9F1"/>
<path d="M381.55 105.618H337.595C337.228 105.618 336.876 105.472 336.616 105.213C336.357 104.953 336.211 104.601 336.211 104.233C336.211 103.866 336.357 103.513 336.616 103.253C336.876 102.994 337.228 102.848 337.595 102.848H381.55C381.917 102.848 382.269 102.994 382.529 103.253C382.789 103.513 382.935 103.866 382.935 104.233C382.935 104.601 382.789 104.953 382.529 105.213C382.269 105.472 381.917 105.618 381.55 105.618Z" fill="#F3F9F1"/>
<path d="M381.553 115.701H286.361C285.994 115.701 285.642 115.555 285.382 115.295C285.122 115.035 284.977 114.683 284.977 114.315C284.977 113.948 285.122 113.595 285.382 113.336C285.642 113.076 285.994 112.93 286.361 112.93H381.553C381.92 112.93 382.272 113.076 382.532 113.336C382.791 113.595 382.937 113.948 382.937 114.315C382.937 114.683 382.791 115.035 382.532 115.295C382.272 115.555 381.92 115.701 381.553 115.701Z" fill="#F3F9F1"/>
<path d="M631.609 341.625C631.684 341.669 631.75 341.728 631.804 341.797C631.782 341.336 631.732 341.625 631.609 341.625Z" fill="#F2A84C"/>
<path d="M644.41 366.052L645.346 365.237C643.236 363.22 640.999 362.112 640.672 362.638L644.41 366.052Z" fill="#F2A84C"/>
<path d="M637.508 351.144C638.305 351.897 639.07 352.706 639.546 353.255C639.352 352.928 639.181 352.587 639.036 352.235C638.639 351.581 638.161 350.979 637.613 350.445L637.508 351.144Z" fill="#F2A84C"/>
<path d="M620.704 287.667C620.328 287.64 619.957 287.601 621.131 288.055L620.704 287.667Z" fill="#F2A84C"/>
<path d="M684.991 295.135C686.985 294.514 688.63 294.088 689.012 293.672L689.61 293.988C691.194 292.774 691.963 291.987 692.933 291.339C693.425 291.023 693.902 290.657 694.539 290.269C694.854 290.07 695.203 289.859 695.602 289.626L696.876 288.767C696.876 288.873 696.565 289.322 697.208 288.967C697.363 288.717 697.518 288.468 697.706 288.208C697.861 287.926 698.033 287.654 698.221 287.393C698.62 286.8 699.163 286.091 699.827 284.943L699.927 285.126C700.563 283.865 700.911 282.477 700.946 281.064C701.045 281.073 701.144 281.048 701.228 280.994C701.311 280.94 701.374 280.859 701.406 280.765C701.457 280.644 701.494 280.517 701.516 280.388C701.527 280.222 701.527 280.055 701.516 279.889C701.516 279.706 701.483 279.507 701.455 279.291C701.428 279.074 701.345 278.864 701.284 278.637C701.134 278.162 700.949 277.698 700.73 277.251C700.614 277.024 700.475 276.802 700.353 276.575L700.171 276.242L699.96 275.932C699.816 275.727 699.689 275.522 699.567 275.322C699.445 275.123 699.285 274.957 699.163 274.768C698.94 274.447 698.735 274.114 698.548 273.771C698.412 273.493 698.341 273.188 698.343 272.878C697.996 272.766 697.659 272.625 697.335 272.457C697.119 272.369 696.898 272.263 696.665 272.152C696.431 272.027 696.186 271.922 695.934 271.837C695.443 271.639 694.935 271.485 694.417 271.377L693.73 271.244C693.535 271.225 693.338 271.225 693.143 271.244C693.143 271.349 692.922 271.415 692.478 271.415C692.395 271.282 692.661 271.244 693.143 271.244C693.143 271.172 693.077 271.083 692.866 270.961C691.834 271.191 690.775 271.271 689.721 271.199L688.818 271.255C688.521 271.285 688.227 271.335 687.937 271.404C687.413 271.497 686.91 271.685 686.453 271.959C685.977 272.341 685.938 272.579 686.043 272.657C686.149 272.734 686.431 272.712 686.714 272.718C686.077 272.884 685.501 273.228 685.052 273.71L684.687 274.087C684.581 274.225 684.487 274.38 684.388 274.53C684.186 274.809 684.021 275.113 683.895 275.433C683.773 275.755 683.634 276.037 683.551 276.326C683.468 276.614 683.424 276.88 683.358 277.124C683.299 277.326 683.253 277.531 683.219 277.739C683.197 277.876 683.144 278.007 683.064 278.121C683.011 278.268 682.948 278.41 682.876 278.548C682.85 278.641 682.808 278.729 682.754 278.808C682.724 278.856 682.681 278.894 682.63 278.917C682.578 278.94 682.521 278.946 682.466 278.936C682.272 278.936 682.062 278.714 681.84 278.936C681.813 279.175 681.813 279.417 681.84 279.656C681.855 279.801 681.904 279.94 681.984 280.061C682.037 280.122 682.104 280.17 682.179 280.2C682.254 280.23 682.336 280.241 682.416 280.233C682.693 280.233 682.854 280.41 682.327 282.449C682.3 281.967 682.327 281.081 682.189 281.413C681.907 282.965 679.714 285.581 679.974 287.171L680.373 286.174C680.544 289.061 678.379 292.791 679.475 293.378L680.029 293.162C679.42 295.728 679.475 296.166 679.475 296.742C680.212 296.498 680.971 296.288 681.724 296.099C682.854 295.667 683.967 295.379 684.991 295.135Z" fill="#F2A84C"/>
<path d="M599.865 200.352C599.627 200.834 599.389 201.316 599.156 201.803C599.455 201.731 599.599 202.607 599.909 201.887C600.053 201.388 600.22 200.872 600.308 200.501L599.865 200.352Z" fill="#F2A84C"/>
<path d="M641.49 364.524L638.134 360.213C638.594 360.728 640.089 362.219 639.796 361.366C638.262 359.598 639.098 360.368 638.306 358.988C641.126 360.762 644.073 362.325 647.122 363.665L645.062 361.848L644.885 361.072C642.116 358.583 638.145 357.625 637.038 357.298C635.797 355.585 637.281 355.292 637.802 355.508C635.177 352.299 633.726 353.59 631.156 350.276L631.948 351.661C631.683 351.396 631.431 351.117 631.195 350.825L630.641 350.165C630.407 349.873 630.22 349.546 630.088 349.195C629.827 348.691 629.645 348.231 629.501 347.915C629.357 347.599 629.262 347.461 629.246 347.583C629.246 346.541 629.8 345.543 630.32 346.402C629.474 345.257 628.787 344.002 628.277 342.672C628.454 343.276 629.478 342.767 629.689 342.994C629.67 342.631 629.582 342.276 629.429 341.946C629.326 341.672 629.174 341.418 628.98 341.198C628.686 340.882 628.371 340.805 628.243 341.154L628.199 341.331C628.209 341.271 628.223 341.212 628.243 341.154C628.445 340.29 628.692 339.437 628.985 338.599C629.266 337.868 629.658 337.186 630.149 336.576C630.254 336.133 629.977 336.055 629.639 336.183C629.25 336.329 628.93 336.616 628.742 336.986C628.804 336.485 628.903 335.989 629.035 335.501C629.157 335.11 629.299 334.725 629.462 334.348C629.722 333.784 630.035 333.246 630.398 332.741C630.398 332.702 630.398 332.675 630.431 332.63H630.486C631.259 331.702 631.853 330.639 632.236 329.494C632.147 330.458 632.147 331.428 632.236 332.392C631.649 332.442 631.068 332.525 630.464 332.63L630.376 332.752C630.091 333.295 630.011 333.923 630.149 334.52C630.207 334.668 630.305 334.797 630.43 334.895C630.556 334.992 630.705 335.054 630.863 335.074C631.505 335.213 632.297 335.119 632.524 335.545C632.433 332.916 633.037 330.308 634.274 327.986C634.238 328.511 634.333 329.037 634.551 329.516C634.552 329.292 634.628 329.075 634.767 328.901C634.981 328.556 635.238 328.239 635.531 327.958C636.404 327.093 637.407 326.371 638.505 325.819C639.814 325.151 641.216 324.686 642.664 324.439L643.722 324.295C644.065 324.262 644.403 324.251 644.73 324.229C645.372 324.229 645.882 324.229 646.391 324.229H645.837C645.068 324.578 648.402 324.733 649.747 324.362C649.526 324.556 649.194 324.511 648.64 324.539C651.243 325.165 651.962 322.998 654.598 323.752C652.212 323.752 651.758 324.134 651.89 324.5C653.829 324.096 658.37 324.323 657.384 323.242C658.647 323.436 659.771 323.242 659.682 323.796L662.064 323.386L663.083 323.137C663.415 323.054 663.736 322.915 664.057 322.816C663.786 322.96 663.57 323.37 664.788 323.181C664.506 323.253 664.235 323.292 663.93 323.353C663.625 323.414 663.376 323.514 663.088 323.558C662.534 323.663 661.981 323.813 661.394 323.896C660.231 324.079 659.228 324.19 658.508 323.852C658.458 324.539 659.483 324.872 658.215 325.514C659.511 325.393 660.657 325.221 661.698 325.021C662.622 324.846 663.519 324.552 664.367 324.146C665.726 323.441 666.95 322.503 667.984 321.375C669.209 320.872 670.346 320.176 671.351 319.313L671.235 318.986C671.589 318.986 671.927 318.986 672.281 318.958L672.503 318.332C672.547 318.171 672.586 318.072 672.647 318.044C672.708 318.016 672.774 318.177 672.752 318.415C672.93 318.112 673.071 317.788 673.173 317.451C673.044 317.416 672.908 317.432 672.791 317.495C673.134 317.163 673.212 317.213 673.173 317.451C673.61 317.523 673.627 318.404 673.461 319.352C673.583 319.28 673.704 319.208 673.81 319.13C674.216 318.227 674.456 317.259 674.519 316.27C674.519 315.589 674.269 315.389 673.682 316.071C673.538 316.293 673.344 316.487 673.184 316.692C673.023 316.897 672.857 317.102 672.663 317.279C672.901 317.019 673.068 316.764 673.217 316.57C673.367 316.376 673.549 316.215 673.655 316.071C673.876 315.744 674.125 315.417 674.336 315.068C674.546 314.719 674.746 314.364 674.934 313.998C674.934 312.502 674.762 311.97 674.729 311.272C674.696 310.573 674.635 309.709 674.519 307.78C674.812 307.597 674.95 308.628 675.216 307.969C674.856 306.339 675.443 304.399 675.881 302.903L675.2 303.103C675.471 303.025 675.698 302.953 675.892 302.881C675.992 302.532 676.086 302.21 676.152 301.922C675.572 302.146 674.979 302.331 674.375 302.476C674.928 302.266 675.438 301.978 674.712 301.922C673.256 302.338 671.783 302.731 670.282 303.136C670.693 303.172 671.106 303.172 671.517 303.136C670.409 303.313 667.939 303.635 666.311 303.335C666.45 303.158 667.003 302.981 667.136 302.781C667.594 302.942 668.084 302.993 668.565 302.929C669.046 302.866 669.505 302.69 669.905 302.415C666.821 302.604 669.125 302.332 667.629 302.066C665.469 302.166 664.572 302.77 665.148 303.141C663.23 302.845 661.278 302.834 659.356 303.108L659.871 302.554H657.561L659.472 302C655.141 301.163 658.575 302.992 653.735 302.138L653.784 301.584C651.913 301.507 651.126 302.299 649.78 301.44C647.914 301.479 652.765 302.665 648.474 302.111C647.365 301.582 646.215 301.146 645.035 300.808C643.766 300.764 645.538 301.49 646.535 301.706L646.807 301.756L646.535 301.706C643.55 301.152 642.659 300.526 641.906 299.966C641.152 299.406 640.405 298.797 637.542 298.392C639.347 299.273 635.67 298.946 640.205 300.16C639.103 299.962 638.034 299.607 637.032 299.107C636.003 298.613 634.899 298.295 633.765 298.165C634.319 298.098 634.872 298.048 635.426 297.965C634.701 297.774 633.959 297.65 633.211 297.594L633.543 297.151C632.215 297.088 630.911 296.766 629.705 296.203C629.193 295.986 628.663 295.812 628.122 295.682C627.622 295.555 627.098 295.555 626.599 295.682C628.066 295.205 624.527 295 623.608 294.158C625.042 294.461 626.448 294.883 627.811 295.421C629.179 295.87 630.315 296.164 630.58 295.804C629.628 295.2 628.554 295.349 627.64 294.695C626.948 294.568 626.571 294.457 627.479 294.585C627.53 294.625 627.584 294.662 627.64 294.695C628.349 294.848 629.076 294.903 629.8 294.856C629.39 294.662 629.002 294.49 628.62 294.352C628.238 294.213 627.889 294.058 627.512 293.947C626.865 293.741 626.204 293.576 625.535 293.454C624.388 293.263 623.251 293.013 622.13 292.706C622.733 292.961 623.353 293.16 623.968 293.393C624.583 293.626 625.186 293.859 625.812 294.041C625.186 294.767 624.151 293.487 622.838 293.715C622.097 293.188 621.284 292.772 620.424 292.479C619.64 292.234 618.902 291.859 618.242 291.37C618.618 291.581 618.685 291.52 619.062 291.725C618.252 291.312 617.489 290.814 616.785 290.24C616.295 289.818 615.842 289.357 615.429 288.86C614.725 288.017 614.321 287.286 613.656 286.82C612.89 286.24 612.077 285.724 611.225 285.28C610.456 284.886 609.946 284.725 610.267 285.224C609.963 285.058 610.096 285.185 610.428 285.463C610.76 285.74 611.319 286.128 611.818 286.538C612.815 287.358 613.723 288.101 612.372 287.89C612.066 287.292 611.635 286.766 611.109 286.349C610.555 285.934 609.974 285.535 609.287 285.08C608.944 284.853 608.578 284.615 608.179 284.349C607.781 284.083 607.426 283.761 607.033 283.412C606.133 282.622 605.336 281.721 604.663 280.73C606.645 282.071 604.236 279.244 605.953 280.48C605.482 280.059 605.139 279.721 604.846 279.466C604.621 279.267 604.384 279.082 604.137 278.912C603.732 278.624 603.417 278.496 602.924 278.169L602.758 277.31C602.06 276.817 601.65 276.551 601.362 276.374C601.074 276.196 600.914 276.13 600.731 276.008C600.457 275.805 600.205 275.575 599.978 275.321C599.607 274.938 599.108 274.312 598.316 273.309C598.931 273.941 598.759 273.431 598.588 272.877C598.416 272.322 598.239 271.724 598.693 272.206C598.355 271.596 597.962 271.026 597.585 270.483C597.266 269.982 596.911 269.506 596.522 269.058L596.66 269.197C596.183 268.358 595.76 267.49 595.392 266.598C595.149 265.938 594.999 265.445 594.839 264.968C594.678 264.492 594.562 264.032 594.335 263.428C594.218 263.128 594.08 262.79 593.908 262.397C593.736 262.003 593.559 261.543 593.321 261.006L593.233 261.527C591.895 258.459 590.953 255.234 590.43 251.928C589.821 248.492 589.528 245 589.251 241.864C589.212 242.606 589.195 243.349 589.168 244.08C589.24 243.404 588.547 239.841 588.963 237.874C588.963 237.668 588.963 237.53 589.018 237.563C589.018 237.652 588.985 237.774 588.963 237.874C589.029 238.349 589.066 238.829 589.074 239.309C589.356 239.248 589.744 238.483 589.832 236.987L589.417 236.405L589.755 235.801C589.832 233.518 589.118 236.46 589.201 234.138C589.827 233.49 589.987 231.046 590.236 228.524C590.486 226.003 590.84 223.414 591.505 222.528C591.178 221.696 591.001 222.755 590.835 223.802C590.668 224.85 590.552 225.881 590.253 224.988C590.559 224.207 590.789 223.398 590.94 222.572L590.353 223.004C590.973 219.602 591.593 217.296 592.169 215.085C592.745 212.874 593.277 210.768 593.997 207.797L594.041 208.063C594.772 206.007 594.999 204.86 594.822 203.801C595.182 203.43 594.883 204.976 595.315 204.217C595.283 202.491 595.717 200.789 596.572 199.29L584.228 195.089C582.994 194.67 581.673 194.584 580.395 194.838C579.118 195.092 577.93 195.678 576.95 196.538C575.971 197.397 575.235 198.499 574.816 199.733C574.397 200.967 574.31 202.29 574.564 203.569L609.83 381.405C610.082 382.687 610.667 383.879 611.527 384.861C612.386 385.844 613.489 386.582 614.725 387.002C615.96 387.422 617.285 387.508 618.564 387.253C619.844 386.997 621.034 386.408 622.013 385.545L643.999 366.265C643.19 365.5 641.756 364.07 641.49 364.524ZM635.581 356.505C634.247 354.399 634.856 356.616 633.3 354.355C633.377 353.296 633.815 354.061 635.094 355.136C635.331 355.304 635.555 355.489 635.764 355.691C635.52 355.513 635.299 355.336 635.094 355.136C634.49 354.787 636.218 356.821 635.581 356.505Z" fill="#F2A84C"/>
<path d="M679.91 272.699C680.034 272.528 680.137 272.342 680.214 272.145C680.306 271.93 680.362 271.702 680.38 271.469C680.197 271.557 680.035 271.684 679.904 271.84C679.74 272.049 679.601 272.276 679.489 272.516C679.356 272.766 679.24 273.032 679.134 273.275L678.99 273.625L678.891 273.935C679.053 273.689 679.238 273.459 679.444 273.248C679.61 273.074 679.765 272.891 679.91 272.699Z" fill="#F2A84C"/>
<path d="M669.859 321.673C670.168 321.545 670.457 321.373 670.718 321.163C670.956 320.983 671.18 320.785 671.388 320.57C670.801 320.816 670.278 321.193 669.859 321.673Z" fill="#F2A84C"/>
<path d="M672.375 320.011C672.082 320.887 671.877 321.674 672.957 320.948C673.04 320.776 673.173 320.582 673.272 320.349C673.372 320.116 673.411 319.712 673.494 319.352C673.117 319.568 672.763 319.8 672.375 320.011Z" fill="#F2A84C"/>
<path d="M673.411 321.167C673.609 320.923 673.793 320.67 673.964 320.407C674.131 320.147 674.308 319.897 674.463 319.631C674.764 319.092 675.035 318.537 675.277 317.969C674.845 318.386 674.372 318.757 673.865 319.077C673.688 319.521 673.466 319.92 673.311 320.296C673.123 320.978 673.012 321.399 673.411 321.167Z" fill="#F2A84C"/>
<path d="M755.936 253.445L600.319 200.508C600.222 200.978 600.087 201.44 599.915 201.888C599.583 203.035 599.328 204.044 600.131 202.658C597.628 207.906 596.254 213.648 595.33 219.395C594.405 225.142 594.028 230.911 593.469 236.575C593.519 237.34 593.773 236.902 593.94 236.608C593.236 238.687 594.294 238.598 594.388 239.723C594.1 240.731 593.784 241.751 593.53 242.782C593.895 244.001 594.133 243.02 594.333 243.098C594.599 245.941 594.731 248.751 595.053 251.411C595.279 253.912 595.874 256.366 596.819 258.693C596.924 260.195 595.955 258.593 596.448 260.483C596.52 259.064 597.041 260.389 597.644 261.785C598.248 263.182 598.946 264.667 598.94 263.77C598.791 264.834 599.494 266.446 600.015 267.732C600.262 268.252 600.448 268.798 600.568 269.361C600.64 269.766 600.524 270.021 600.098 270.021C601.205 272.099 601.621 271.362 601.399 270.719C602.756 273.036 604.052 274.82 605.83 276.195C606.305 276.905 606.847 277.569 607.447 278.179L608.909 279.647C609.462 280.163 610.016 280.673 610.62 281.21C611.223 281.748 611.838 282.235 612.414 282.751C612.99 283.266 613.599 283.704 614.114 284.158C614.629 284.613 615.122 285.006 615.515 285.378C615.843 285.671 616.135 286.002 616.385 286.364C615.41 284.835 616.678 286.148 618.201 286.658L617.332 285.389C618.323 285.998 619.287 286.658 620.322 287.207C620.981 287.489 621.142 287.611 621.114 287.661C621.629 287.955 620.799 287.944 622.1 288.769C624.254 289.878 624.526 289.562 625.866 289.772L625.567 289.54C626.071 289.728 626.575 289.933 627.084 290.094C628.192 290.593 622.925 289.03 626.42 290.87C626.547 290.742 628.995 290.759 629.837 291.54C627.959 290.831 628.042 291.319 628.674 291.762C629.543 292.122 630.473 292.399 631.371 292.715L630.728 291.657C632.672 292.294 634.605 292.981 636.593 293.668L642.635 295.508C644.678 296.063 646.76 296.539 648.854 297.044C649.912 297.254 650.975 297.42 652.044 297.598C653.113 297.775 654.181 297.969 655.267 298.074C655.067 298.756 661.397 298.712 660.55 299.626L660.223 299.515C659.143 299.476 659.282 299.687 659.919 299.931C660.78 300.19 661.677 300.312 662.577 300.291C660.755 299.903 665.9 299.349 661.469 299.061L664.897 298.667C665.535 298.132 666.331 297.821 667.162 297.781C667.714 297.718 668.269 297.688 668.824 297.692C669.123 297.692 669.433 297.692 669.749 297.692H670.718L672.761 297.659C673.468 297.664 674.175 297.625 674.877 297.542L675.724 297.431L675.453 296.284C675.718 295.619 675.702 297.875 676.117 295.991C675.995 292.699 675.885 290.759 676.405 288.066C676.627 284.186 675.131 289.617 675.541 286.359C676.045 285.915 676.649 285.544 676.887 283.51C676.671 282.402 676.3 282.512 676.261 280.661L676.959 280.839C677.02 279.276 677.247 277.392 677.756 277.514C677.802 276.789 677.935 276.072 678.155 275.38C678.359 274.896 678.608 274.432 678.897 273.994C679.008 273.612 679.113 273.374 679.141 273.213C679.169 273.052 679.141 272.975 679.036 272.969C678.649 273.082 678.31 273.319 678.072 273.645C677.624 274.119 677.218 274.631 676.859 275.175C676.538 275.729 676.267 276.189 676.145 276.366C676.457 275.634 676.807 274.918 677.192 274.222C677.499 273.619 677.854 273.043 678.255 272.498C678.589 272.022 678.973 271.584 679.401 271.19C679.796 270.857 680.236 270.581 680.708 270.37L679.855 271.478C679.708 271.663 679.58 271.861 679.473 272.071L679.124 272.687C679.374 272.404 679.601 272.132 679.811 271.889L680.459 271.24C680.858 270.841 681.162 270.47 681.478 270.193C682.082 269.611 682.453 269.084 682.835 268.774C683.148 268.434 683.512 268.146 683.915 267.92C684.46 267.72 685.043 267.646 685.62 267.704C685.17 267.913 684.734 268.15 684.313 268.414C683.965 268.658 683.641 268.934 683.344 269.239C682.857 269.738 682.757 270.06 683.344 269.888L684.374 268.968C684.734 268.68 685.122 268.414 685.482 268.159C685.847 268.159 684.142 268.996 685.355 268.613L685.908 268.159C686.13 267.987 686.39 267.837 686.645 267.666L687.392 267.172C687.625 267.017 687.852 266.917 688.018 266.812L688.162 266.557C688.489 266.496 688.351 266.613 688.018 266.812V266.862L689.275 266.557L690.566 266.408C690.995 266.352 691.429 266.335 691.862 266.358C692.298 266.351 692.734 266.37 693.169 266.413C692.177 266.28 691.928 266.574 692.903 266.635C693.457 266.635 694.01 266.701 694.608 266.746C695.207 266.79 695.716 266.951 696.309 267.067C696.464 267.087 696.617 267.119 696.768 267.161C696.945 267.222 697.156 267.3 697.405 267.399C697.047 267.255 696.676 267.143 696.298 267.067C695.744 266.984 695.744 267.067 696.021 267.272C696.159 267.372 696.386 267.466 696.635 267.627C696.885 267.787 697.189 267.97 697.51 268.181C697.743 268.308 697.964 268.425 698.169 268.525C698.374 268.624 698.54 268.757 698.723 268.851C699.019 269.021 699.326 269.172 699.642 269.3C699.925 269.4 700.163 269.494 700.379 269.583C700.595 269.672 700.811 269.727 701.01 269.788C701.43 269.886 701.824 270.075 702.162 270.342C702.673 270.778 703.07 271.332 703.32 271.955C703.093 271.658 702.849 271.375 702.589 271.107C702.91 271.628 703.142 272.215 703.408 272.731C703.785 272.592 704.316 273.119 704.909 274C705.203 274.518 705.462 275.055 705.684 275.607C705.916 276.241 706.101 276.891 706.238 277.552L706.438 278.561C706.471 278.899 706.509 279.232 706.543 279.559C706.631 280.207 706.626 280.817 706.665 281.354C706.703 281.892 706.709 282.352 706.775 282.701C706.842 283.05 706.947 283.294 707.124 283.383C706.543 284.696 706.41 284.685 706.498 283.937C706.648 282.619 706.579 281.286 706.294 279.991C706.181 280.915 705.981 281.826 705.695 282.712C705.723 282.44 705.756 282.158 705.79 281.919C705.823 281.681 705.823 281.404 705.839 281.149C705.856 280.894 705.839 280.628 705.839 280.362C705.824 280.08 705.785 279.801 705.723 279.525C705.723 279.747 705.684 279.969 705.668 280.19L705.585 280.833C705.524 281.26 705.524 281.681 705.446 282.091C705.369 282.501 705.341 282.9 705.302 283.299C705.263 283.698 705.169 284.075 705.114 284.447C705.066 284.819 704.997 285.189 704.909 285.555C704.831 285.904 704.782 286.253 704.699 286.569C704.51 287.195 704.372 287.794 704.184 288.265C703.707 288.819 703.63 288.409 703.408 288.326C703.303 288.287 703.165 288.326 702.938 288.559C702.71 288.792 702.384 289.235 701.791 289.994C701.37 290.51 701.021 290.853 700.811 291.103C700.7 291.241 700.617 291.357 700.556 291.446C700.513 291.507 700.476 291.572 700.445 291.64C700.379 291.845 700.601 291.84 700.866 291.801C701.101 291.701 701.349 291.636 701.603 291.607C701.664 291.607 701.669 291.684 701.603 291.817C701.541 291.911 701.473 292 701.398 292.083C701.292 292.204 701.177 292.317 701.055 292.422L698.939 293.087C698.336 293.697 697.68 294.254 696.979 294.749C696.349 295.216 695.68 295.627 694.979 295.979C694.298 296.323 693.65 296.678 692.964 296.955C692.277 297.232 691.59 297.509 690.898 297.836C690.544 298.037 690.214 298.277 689.912 298.551L690.012 298.518L689.851 298.678C689.813 298.956 690.654 298.872 688.971 299.571L689.851 298.678C689.856 298.63 689.877 298.585 689.912 298.551C688.339 299.005 686.866 299.875 685.393 300.518C684.662 300.867 683.959 301.211 683.278 301.488C682.641 301.72 681.985 301.892 681.317 302.004C681.832 301.71 679.85 301.865 679.529 301.749L678.681 302.02C678.499 302.968 678.377 303.683 678.847 304.376L679.03 303.644C678.847 306.343 678.764 306.576 678.476 309.313C678.554 309.995 678.5 310.686 678.316 311.347C678.404 311.347 678.465 311.491 678.504 311.68C678.531 311.962 678.531 312.246 678.504 312.528C678.452 313.4 678.292 314.261 678.028 315.094C677.867 315.554 677.718 316.03 677.529 316.474C677.341 316.917 677.12 317.333 676.931 317.715C676.494 318.452 676.15 319.056 675.934 319.322C676.533 318.264 676.555 317.915 676.422 317.926C676.289 317.937 675.929 318.253 675.646 318.48C675.408 319.932 674.866 320.885 673.199 321.949C673.347 322.178 673.438 322.438 673.465 322.709C673.492 322.98 673.454 323.253 673.354 323.507C673.173 323.968 672.895 324.386 672.54 324.731C672.313 324.958 672.047 325.208 671.726 325.479C671.404 325.751 670.995 325.978 670.54 326.255C671.044 325.806 671.87 325.219 671.415 325.28C670.961 325.341 670.241 326.017 669.97 326.216C669.743 326.216 669.92 326.056 670.07 325.867C670.219 325.679 670.341 325.468 670.07 325.446C669.601 325.924 669.059 326.325 668.464 326.632C668.176 326.771 667.877 326.893 667.572 327.003L667.107 327.17L666.62 327.286L665.59 327.513C665.235 327.574 664.859 327.613 664.482 327.674L663.873 327.768L663.23 327.824L661.885 327.979C662.992 327.663 662.012 327.541 661.624 327.242C661.386 328.256 656.895 326.527 658.241 327.796C654.868 327.519 650.598 327.646 646.838 327.746L645.459 327.779C645.01 327.779 644.656 327.818 644.268 327.84C643.572 327.906 642.881 328.013 642.197 328.162C640.951 328.433 639.982 328.716 639.356 328.838C639.129 328.843 638.908 328.919 638.725 329.054C638.465 329.207 638.227 329.393 638.016 329.608C637.775 329.828 637.546 330.061 637.329 330.306C637.102 330.534 636.909 330.766 636.715 330.944L636.532 330.517C636.305 330.839 636.133 331.116 635.978 331.354C635.823 331.592 635.701 331.792 635.602 331.975C635.38 332.324 635.219 332.579 635.048 332.856C634.502 333.717 634.126 334.674 633.94 335.677C634.001 334.951 633.94 334.674 633.724 334.718C633.551 334.785 633.394 334.889 633.265 335.023C633.076 335.2 632.871 335.449 632.617 335.749C632.585 336.599 632.633 337.451 632.761 338.292C632.5 338.387 632.257 338.492 632.007 338.603C632.01 339.659 631.949 340.713 631.825 341.762C632.179 342.188 632.423 343.164 632.783 344.1C633.176 345.209 633.735 346.251 634.062 346.439C633.985 346.711 633.985 346.999 634.062 347.27C634.089 347.363 634.146 347.445 634.223 347.503L634.588 347.88C635.142 348.434 635.64 348.911 635.59 349.543C636.005 349.829 636.397 350.146 636.765 350.49C636.704 349.798 636.914 349.343 637.451 350.285L637.623 350.468L637.723 349.842C637.994 349.399 638.487 350.95 639.046 352.258C639.284 352.668 639.489 353.062 639.694 353.439L639.943 353.738C639.879 353.692 639.822 353.638 639.772 353.577C640.142 354.257 640.645 354.857 641.25 355.34C642.723 358.111 645.913 360.139 648.073 362.871L758.45 266.086C759.436 265.227 760.177 264.123 760.599 262.885C761.022 261.647 761.11 260.319 760.855 259.036C760.599 257.753 760.01 256.56 759.146 255.579C758.283 254.597 757.175 253.861 755.936 253.445ZM676.15 278.578L676.488 277.73C676.389 278.251 676.317 278.644 676.239 278.949C676.239 279.021 676.2 279.093 676.184 279.16C676.167 279.226 676.15 279.254 676.134 279.304C676.097 279.382 676.053 279.456 676.001 279.525L675.84 279.376L676.15 278.578ZM698.618 267.388C698.773 267.469 698.921 267.562 699.061 267.666C699.061 267.932 699.061 268.22 699.094 268.452C698.955 268.089 698.796 267.734 698.618 267.388ZM704.71 289.046C704.432 289.566 704.1 290.055 703.718 290.504C703.303 290.36 703.497 290.171 703.934 289.739C704.396 289.281 704.807 288.774 705.158 288.226C705.286 287.971 705.402 287.722 705.529 287.489C705.425 287.744 705.301 287.99 705.158 288.226C705.026 288.508 704.878 288.781 704.715 289.046H704.71Z" fill="#F2A84C"/>
<path d="M508.388 230.152L402.331 176.317C401.551 175.922 400.653 175.832 399.81 176.063C398.968 176.295 398.241 176.832 397.773 177.57C397.277 178.353 397.11 179.3 397.307 180.205C397.504 181.111 398.049 181.902 398.825 182.408L424.499 199.089L411.612 192.356C410.912 191.99 410.099 191.901 409.336 192.106C408.573 192.311 407.915 192.796 407.492 193.464C407.065 194.132 406.905 194.935 407.042 195.715C407.18 196.495 407.605 197.195 408.234 197.676L422.71 208.76L407.558 199.4C406.811 198.939 405.919 198.771 405.055 198.926C404.191 199.082 403.414 199.55 402.873 200.242C402.582 200.614 402.368 201.041 402.243 201.496C402.118 201.952 402.085 202.428 402.145 202.896C402.206 203.365 402.358 203.817 402.594 204.226C402.831 204.635 403.146 204.993 403.521 205.28L416.652 215.294L402.303 208.644C401.937 208.438 401.534 208.306 401.117 208.256C400.7 208.206 400.278 208.24 399.874 208.354C399.469 208.468 399.092 208.661 398.763 208.922C398.434 209.183 398.159 209.507 397.956 209.874C397.563 210.581 397.453 211.411 397.649 212.196C397.844 212.981 398.33 213.662 399.008 214.103L472.779 261.121C486.725 270.012 502.381 275.873 518.734 278.325C535.087 280.778 551.772 279.767 567.71 275.358L637.267 256.128C640.188 255.32 642.921 253.941 645.308 252.072C647.695 250.203 649.69 247.88 651.176 245.236C652.663 242.593 653.612 239.682 653.97 236.67C654.327 233.658 654.086 230.605 653.261 227.686C651.644 221.983 647.889 217.124 642.78 214.123C637.67 211.123 631.601 210.212 625.837 211.581L534.549 233.272C525.735 235.363 516.465 234.257 508.388 230.152Z" fill="#ABDAF7"/>
<path d="M357.334 476.113L286.359 429.328C286.359 429.328 321.049 441.864 363.448 392.684C384.265 368.538 410.52 344.392 431.897 326.064C443.385 316.209 457.192 309.444 472.016 306.407C486.84 303.369 502.193 304.159 516.627 308.701L608.042 336.81C616.607 339.444 623.794 345.343 628.05 353.234C632.306 361.124 633.291 370.374 630.792 378.985C629.485 383.483 627.268 387.665 624.277 391.269C621.286 394.874 617.586 397.824 613.407 399.936C609.228 402.048 604.66 403.277 599.986 403.546C595.312 403.815 590.633 403.12 586.239 401.502L491.745 366.72C490.122 366.121 488.363 365.997 486.672 366.362C484.981 366.727 483.43 367.567 482.198 368.782L374.933 474.39C372.641 476.651 369.642 478.056 366.438 478.37C363.235 478.684 360.021 477.887 357.334 476.113Z" fill="#FADD6F"/>
<path d="M699.398 159.031C699.471 159.065 699.516 159.031 699.398 159.031V159.031Z" fill="#4A86F7"/>
<path d="M699.898 185.055L700.165 185.166L699.898 185.055Z" fill="#4A86F7"/>
<path d="M698.914 186.449V186.488C698.969 186.41 699.053 186.344 698.914 186.449Z" fill="#4A86F7"/>
<path d="M691.817 165.387C691.792 165.374 691.765 165.367 691.737 165.367C691.709 165.367 691.681 165.374 691.656 165.387C691.709 165.378 691.764 165.378 691.817 165.387Z" fill="#4A86F7"/>
<path d="M716.794 161.793H716.75C716.784 161.818 716.813 161.848 716.839 161.882L716.794 161.793Z" fill="#4A86F7"/>
<path d="M716.564 161.943C716.376 161.821 716.653 161.799 716.747 161.793C716.66 161.706 716.553 161.64 716.436 161.602C716.318 161.563 716.194 161.553 716.071 161.572C716.044 161.738 716.515 161.799 716.564 161.943Z" fill="#4A86F7"/>
<path d="M690.999 173.828H690.844C690.868 173.838 690.895 173.844 690.921 173.844C690.948 173.844 690.974 173.838 690.999 173.828Z" fill="#4A86F7"/>
<path d="M700.141 185.168L700.246 185.212L700.141 185.168Z" fill="#4A86F7"/>
<path d="M701.867 186.293C701.881 186.362 701.907 186.428 701.945 186.488L701.867 186.293Z" fill="#4A86F7"/>
<path d="M714.066 185.473C714.072 185.44 714.072 185.406 714.066 185.373C713.576 185.349 713.086 185.396 712.609 185.512V185.85L714.066 185.473Z" fill="#4A86F7"/>
<path d="M709.469 185.231C709.501 185.185 709.54 185.144 709.585 185.109L709.469 185.231Z" fill="#4A86F7"/>
<path d="M733.684 159.886L733.131 165.051C732.4 164.541 731.037 164.558 729.996 164.314L730.135 164.574C726.037 163.466 721.224 163.228 717.763 161.881C718.666 161.283 716.539 162.535 717.53 161.815L716.173 161.471C716.133 161.499 716.104 161.54 716.09 161.587C715.26 161.665 714.241 162.563 713.443 161.51C713.532 160.806 712.086 161.51 712.718 160.994C708.681 161.438 707.18 159.238 702.905 159.742L703.176 159.681L702.257 159.404L702.45 160.041C701.991 159.487 700.268 159.958 700.446 159.431L700.579 159.398C700.756 158.844 699.715 158.916 699.261 158.628C699.261 158.911 699.349 159.01 699.421 159.049C699.153 159.056 698.888 159.095 698.629 159.165C698.237 158.929 697.812 158.756 697.367 158.65C697.151 158.595 696.929 158.55 696.719 158.511L696.215 158.456C695.6 158.478 694.992 158.327 694.459 158.018C694.321 158.157 694.182 158.312 694.049 158.451C693.324 158.135 692.438 158.412 691.64 158.711C690.843 159.01 690.101 159.298 689.287 159.021C688.407 159.457 687.593 160.017 686.872 160.684C686.704 160.827 686.543 160.978 686.39 161.138L686.152 161.377C686.101 161.435 686.054 161.498 686.014 161.565L685.875 161.748V161.792V161.848C685.881 161.897 685.892 161.945 685.909 161.992C685.826 161.992 685.82 162.092 685.742 162.147C685.522 162.271 685.288 162.37 685.045 162.441C684.834 162.723 685.139 162.868 685.382 162.851C685.626 162.834 685.859 162.734 685.936 162.812C685.849 162.924 685.78 163.05 685.731 163.183C685.726 163.195 685.723 163.207 685.723 163.219C685.723 163.232 685.726 163.244 685.731 163.255C685.78 163.285 685.832 163.309 685.886 163.328C686.014 163.365 686.14 163.41 686.263 163.461C686.42 163.513 686.551 163.624 686.629 163.771C686.745 163.372 686.944 163.488 687.182 163.621C687.42 163.754 687.736 163.921 687.947 163.621L687.83 164.087C688.611 164.38 689.42 164.669 690.256 164.929L690.034 164.996C689.896 165.373 690.494 165.079 690.793 165.317L691.43 164.885L691.142 165.439C691.38 165.622 691.491 165.505 691.663 165.439C691.612 165.487 691.578 165.549 691.563 165.616C691.67 165.711 691.796 165.78 691.934 165.818C692.071 165.857 692.215 165.863 692.356 165.838C692.496 165.812 692.629 165.755 692.743 165.67C692.858 165.586 692.953 165.477 693.019 165.35C693.263 165.489 693.075 165.783 693.363 165.794C693.761 165.794 693.551 165.5 693.418 165.323C693.911 165.6 693.905 165.943 694.891 165.921L694.448 166.087C694.713 166.066 694.976 166.141 695.19 166.298C695.365 166.377 695.553 166.422 695.744 166.431C696.046 166.446 696.349 166.414 696.641 166.337L697.034 165.594L695.617 165.688C696.392 165.566 697.217 165.45 698.087 165.345C698.535 165.517 698.131 165.566 698.164 165.783C698.331 165.765 698.5 165.776 698.662 165.816C698.79 165.843 698.916 165.878 699.039 165.921C699.207 165.985 699.368 166.065 699.521 166.159C699.662 166.263 699.825 166.331 699.997 166.359C700.17 166.387 700.346 166.373 700.512 166.32C700.473 166.509 700.435 166.692 700.385 166.874C700.811 166.913 701.243 166.969 701.675 167.046C701.424 167.077 701.187 167.181 700.994 167.345C700.96 167.395 700.942 167.454 700.942 167.514C700.942 167.575 700.96 167.634 700.994 167.684C701.113 167.919 701.279 168.129 701.481 168.299C701.805 168.613 702.098 168.959 702.356 169.329C702.45 169.119 702.539 168.908 702.628 168.692C702.696 168.859 702.741 169.034 702.761 169.213C702.765 169.384 702.778 169.554 702.799 169.723C702.834 169.889 702.896 170.048 702.982 170.194C703.129 170.381 703.303 170.545 703.497 170.682L703.093 170.942C703.125 171.144 703.207 171.334 703.331 171.496C703.41 171.565 703.509 171.604 703.613 171.607C703.802 171.607 703.984 171.652 703.89 172.211L703.447 171.962C703.781 173.215 703.877 174.52 703.73 175.808C703.68 176.118 703.63 176.429 703.553 176.734C703.475 177.038 703.364 177.343 703.253 177.648C702.99 178.262 702.639 178.835 702.212 179.349L702.063 179.227C701.897 179.444 701.797 179.571 701.681 179.748C701.564 179.926 701.459 180.114 701.359 180.303C701.16 180.663 701 180.995 700.922 181.145L701.11 181.029C700.878 181.455 700.64 181.877 700.401 182.287L700.086 182.143L699.621 183.024L699.427 182.841C699.071 183.111 698.766 183.441 698.524 183.816L698.48 183.883C698.48 183.916 698.48 183.883 698.48 183.883V183.944C698.475 183.986 698.475 184.029 698.48 184.071C698.466 184.159 698.466 184.249 698.48 184.337H698.69C699.045 184.66 699.459 184.912 699.909 185.08C699.864 185.113 700.185 185.202 700.219 185.224H700.108C699.831 185.163 699.781 185.13 699.46 185.074C699.525 185.132 699.603 185.174 699.687 185.196C699.771 185.217 699.856 185.231 699.942 185.24C699.709 185.24 699.482 185.207 699.255 185.207C698.936 185.199 698.617 185.246 698.314 185.346C698.147 185.54 698.369 185.628 698.546 185.667C698.723 185.706 698.845 185.717 698.546 185.972C698.159 186.171 697.789 186.401 697.439 186.659C697.367 187.003 698.884 186.105 698.408 186.526C698.264 187.08 698.962 186.177 698.878 186.571L698.934 186.526L698.884 186.604C698.674 187.003 699.106 186.676 699.178 186.726C699.306 186.639 699.43 186.544 699.549 186.443C699.848 186.022 699.853 186.039 699.809 186.155C699.765 186.271 699.693 186.493 699.726 186.504C699.84 186.312 699.945 186.127 700.041 185.95C700 186.06 699.996 186.181 700.033 186.293C700.069 186.405 700.142 186.501 700.241 186.565C700.348 186.636 700.472 186.678 700.601 186.687C701.06 186.687 701.531 186.615 701.991 186.554C702.218 186.881 702.799 186.659 703.386 186.426L703.087 186.255C705.133 186.341 707.182 186.155 709.179 185.701L709.528 185.318C709.356 185.645 710.01 185.906 710.27 185.944C710.824 185.889 711.821 185.534 712.696 185.39V185.59C711.223 185.856 709.085 186.382 707.927 186.543L707.999 186.981L709.229 187.114L709.528 186.499C711.189 186.814 711.887 186.288 712.878 186.205C713.571 186.111 714.052 185.839 714.13 185.551L714.263 185.518C714.263 185.484 714.213 185.468 714.152 185.451C714.899 185.669 715.665 185.818 716.439 185.894L715.459 186.044L716.528 186.421C717.359 186.576 716.528 185.313 718.66 185.939L719.325 186.338C719.441 185.834 721.318 186.233 722.354 186.41L720.886 185.141C722.055 185.024 723.434 185.102 724.353 184.697C724.353 184.764 724.192 184.936 724.613 185.047L725.167 184.72L725.599 184.897C726.153 184.503 725.738 184.032 725.843 183.462V183.589C725.898 182.841 729.647 183.75 730.434 183.323C730.201 183.323 729.88 182.985 730.434 183.184C730.434 183.051 730.002 183.007 729.786 182.918C730.29 182.863 730.395 183.046 731.298 183.157L730.594 189.984C729.416 190.126 728.248 190.337 727.094 190.616L728.484 191.071C727.548 191.486 716.572 193.709 715.481 193.332C712.733 193.495 710.003 193.895 707.324 194.529C706 194.8 704.699 195.083 703.447 195.249L702.495 195.377L702.018 195.427L701.138 195.538C699.947 195.676 698.795 195.787 697.71 195.853C697.106 195.942 696.547 195.948 695.982 195.981C695.721 195.984 695.46 195.968 695.201 195.931C694.952 195.931 694.692 195.887 694.454 195.853L693.18 195.538C692.788 195.402 692.405 195.241 692.034 195.055C691.227 194.648 690.498 194.102 689.879 193.443C689.237 192.755 688.723 191.957 688.362 191.087C688.001 190.239 687.8 189.332 687.769 188.411C687.746 187.574 687.858 186.739 688.102 185.939C688.228 185.521 688.385 185.114 688.572 184.72L688.882 184.071C689.015 183.849 689.176 183.622 689.326 183.401C689.633 182.925 689.979 182.477 690.361 182.059L691.469 180.713L692.576 179.327C692.754 179.072 692.914 178.856 693.075 178.623C693.396 178.158 693.695 177.692 693.983 177.232C694.271 176.772 694.537 176.318 694.747 175.88L694.836 175.714L694.875 175.631V175.559C694.877 175.522 694.877 175.485 694.875 175.448C694.908 175.324 694.908 175.194 694.875 175.071C694.845 175.018 694.804 174.971 694.756 174.934C694.707 174.897 694.651 174.87 694.592 174.855L694.636 174.805C694.636 174.744 694.636 174.677 694.443 174.583L694.21 174.45L694.083 174.384H694.005L693.817 174.334C692.921 174.059 691.984 173.937 691.048 173.974C691.06 173.965 691.071 173.953 691.078 173.94C691.085 173.926 691.089 173.911 691.089 173.896C691.089 173.881 691.085 173.866 691.078 173.852C691.071 173.839 691.06 173.827 691.048 173.818C690.594 173.769 690.134 173.691 689.674 173.63L689.796 173.591C688.362 173.237 686.878 172.843 685.327 172.416L682.935 171.746C682.741 171.696 682.453 171.591 682.22 171.519C681.988 171.447 681.733 171.363 681.462 171.258L680.531 170.876L680.061 170.682L679.612 170.46C678.751 169.684 677.931 168.865 677.153 168.005C676.366 167.122 675.861 166.024 675.702 164.852C675.279 163.063 675.5 161.183 676.328 159.542C676.756 158.688 677.29 157.891 677.917 157.17C678.227 156.794 678.582 156.439 678.931 156.062C679.28 155.685 679.701 155.347 680 155.12C680.299 154.893 680.659 154.566 680.958 154.361L681.827 153.751C682.42 153.363 683.023 152.986 683.655 152.643C684.919 151.956 686.245 151.388 687.614 150.947C690.403 150.053 693.338 149.701 696.259 149.91C696.984 149.96 697.738 150.066 698.435 150.171L700.185 150.459L703.674 151.063C703.907 151.202 703.774 151.529 704.782 151.684L704.959 151.13C708.332 152.598 712.773 152.144 715.83 153.901L717.143 153.496L729.276 155.619L733.684 159.886Z" fill="#4A86F7"/>
<path d="M720.75 185.057L720.822 185.051L720.5 184.773L720.75 185.057Z" fill="#4A86F7"/>
</svg>
