<svg width="111" height="112" viewBox="0 0 111 112" fill="none" xmlns="http://www.w3.org/2000/svg">
<path opacity="0.4" d="M53.7582 94.3775C53.7321 93.9874 53.2086 94.5578 53.4252 93.8578L54.1791 94.1576C54.0643 93.6783 53.4253 93.8582 53.127 93.6636C52.8288 93.4691 53.5212 93.8929 53.2749 94.3128C52.5483 94.061 52.5367 93.5626 52.3594 92.7988C52.3384 92.7433 52.3315 92.6833 52.3394 92.6246C52.3472 92.566 52.3696 92.5104 52.4044 92.4623C52.6021 92.4888 52.8007 92.5925 52.9926 92.6624C53.0692 93.0019 53.2705 93.3016 53.5575 93.5033C53.8446 93.705 54.1969 93.794 54.5461 93.7536L55.1014 93.3641C55.3144 93.9449 54.9039 94.8401 55.5425 94.9144L55.4783 94.4749C55.659 94.3776 55.7623 94.3584 55.8377 94.3795C55.6777 94.0709 55.5221 93.7299 55.3745 93.4119C55.6821 93.4531 55.9656 93.59 56.2439 93.6825C56.3578 93.9094 56.5173 94.1111 56.7125 94.2754C56.727 94.1668 56.538 94.0754 56.5451 93.8555C57.3996 93.9035 57.9487 95.148 58.5707 95.4301C58.9408 95.1703 58.1185 95.049 58.4064 94.5683C58.6791 94.8699 59.1846 94.5178 59.1274 95.0294C59.2028 94.465 59.6149 94.8956 59.5956 94.7053C59.7274 94.7229 59.8373 94.7377 59.9385 94.8175C59.9687 95.0093 59.999 95.201 60.166 95.2896C60.2081 94.9749 60.3327 95.0471 60.5055 95.0923C60.4522 95.0491 60.4098 94.9944 60.3816 94.9323C60.8398 95.0706 61.309 95.1699 61.784 95.2299C62.2376 95.4423 62.717 95.5958 63.2102 95.6861C63.1315 95.54 63.0991 95.374 63.1173 95.2098C63.1942 95.2201 63.2784 95.1758 63.3582 95.1643L63.493 95.3264C63.6675 95.5265 63.8646 95.6411 64.2735 95.3423C64.3156 95.0276 64.3215 94.9841 64.1545 94.8955C64.47 94.7275 64.7266 94.4695 64.8908 94.1547L65.1359 93.9113C65.081 93.904 65.037 93.8981 64.9931 93.8922L65.0309 93.6098C65.0851 93.4228 65.1887 93.2537 65.3312 93.1198L64.9666 93.1702C64.8977 92.9195 64.7721 92.6875 64.599 92.4916C64.599 92.4916 64.6077 92.4264 64.5476 92.3742L64.5389 92.4394C64.4961 92.3898 64.45 92.3432 64.401 92.2996C64.4454 92.3019 64.4894 92.3078 64.5328 92.3172C64.4727 92.0708 64.3281 91.8521 64.1236 91.6988C63.9273 91.5522 63.7153 91.4278 63.4913 91.3273C63.4438 91.4212 63.4296 91.5279 63.4507 91.6309C63.4108 91.6043 63.3692 91.5805 63.3261 91.5592C63.3261 91.5592 63.1041 91.4634 62.7356 91.2926C62.294 90.5818 63.6892 90.9342 63.2789 90.0729L63.5296 90.2057C63.5187 90.1828 63.5146 90.1574 63.5179 90.1324C63.5213 90.1074 63.5319 90.0839 63.5484 90.0647L63.9131 90.1799C63.7525 89.9595 63.2858 89.687 63.7101 89.3571L64.2703 89.4321C64.3211 89.0523 64.529 89.0025 64.6217 88.7277L63.4377 87.4648C63.4087 87.6818 63.5583 87.901 63.3579 88.0619C62.8988 88.0668 63.2006 87.5659 62.716 87.6778L62.7603 88.0149C62.7763 87.8955 62.7821 87.8525 62.7835 87.8416C62.785 87.8308 62.9477 87.9517 62.8805 88.1194C62.5982 88.391 62.3313 88.0462 62.3281 87.7365C61.8358 87.5712 61.9641 88.2841 61.8221 88.3425C61.8213 87.6796 61.0259 88.0261 60.7991 87.6312L60.8289 88.0769C60.2882 88.3581 60.1184 87.8717 59.9687 87.6528L59.9252 87.9782C59.4461 87.7152 58.7223 88.6124 58.8834 87.4078L58.8543 87.6251C58.6127 87.5928 58.2022 87.7368 58.1431 87.3423C58.1272 87.4616 57.9859 87.5974 57.8842 87.6059C57.9451 87.1501 57.6028 87.3692 57.2733 87.3251C57.4272 87.5114 57.1803 88.02 57.308 88.2359C56.6223 88.5971 57.1197 87.4704 56.7263 87.3183C56.3773 87.5036 56.8212 87.6956 56.7907 87.9235C56.3025 87.3942 55.0593 88.6637 55.0982 87.4538L55.4888 87.2078C55.3413 86.8898 55.2137 86.8399 55.1992 86.9485C55.1847 87.057 55.2741 87.0578 55.2706 87.1678C54.3286 87.4395 54.4271 85.9504 53.6033 85.8402C53.5743 86.0572 53.66 86.1683 53.6038 86.3375C53.1895 86.4257 53.6589 85.1737 52.9482 85.3879L52.9119 85.6592C52.6791 85.7275 52.664 85.3391 52.7167 85.2798C52.3707 86.1946 51.549 84.8144 50.7346 85.8874C50.6467 85.2902 49.9863 84.6271 49.6454 84.8356C49.1282 85.2745 49.7516 85.546 49.4871 86.0188C49.2125 85.9821 49.2484 85.3794 48.7821 85.4385C48.9411 84.9185 49.9285 84.6416 49.2506 84.1091L49.051 84.3478C49.1389 84.3595 49.2851 84.2686 49.3804 84.3918C49.4987 84.7611 49.1282 84.6891 49.0325 84.8199L48.2602 84.4076C48.3372 83.8324 48.8245 84.1183 48.9188 83.9984C48.2268 83.9058 47.1987 84.4863 46.6885 83.9541L46.6594 84.1713C46.0019 83.4869 45.9356 85.0687 45.561 84.0244C45.1935 84.0967 45.4782 84.643 45.0183 84.5704C44.8865 84.5528 45.0474 84.3531 45.0561 84.288C44.4868 83.9467 44.6694 84.7557 44.2176 84.1208L44.2138 84.6505C44.2138 84.6505 44.1369 84.6402 44.1039 84.6358C43.5776 84.0573 43.0433 83.0357 42.4182 83.1951C42.3558 83.6618 42.7775 83.6853 42.8629 84.0502C42.7074 83.8486 42.5023 83.6892 42.2672 83.5881C42.0321 83.487 41.7748 83.4472 41.5201 83.4725C41.2785 83.4402 41.0142 83.4936 40.7821 83.4736C40.5439 83.4916 40.3043 83.4595 40.0791 83.3795C40.3144 82.9581 39.5289 82.4773 40.1157 82.1029C40.3148 82.7039 40.5845 82.2759 40.8987 82.3511C40.8668 82.2189 40.7898 82.1018 40.6808 82.0188C40.5718 81.9359 40.4373 81.8923 40.3 81.8956C40.0119 81.9102 39.732 81.9939 39.4845 82.1398L39.0887 82.3409C38.9652 82.4128 38.8371 82.4771 38.7053 82.5329C38.5959 82.5832 38.4718 82.5934 38.3552 82.5616C38.2386 82.5298 38.1371 82.458 38.0688 82.3593L38.076 82.8905C37.8476 82.9262 37.0746 83.0215 37.3714 82.6414C37.1093 82.8775 36.8812 83.1481 36.6936 83.4455C36.5763 83.6251 36.476 83.8154 36.394 84.0133C36.2958 84.2414 36.2261 84.4806 36.1868 84.7256C36.2721 84.5952 36.3673 84.4712 36.4713 84.3549L36.8348 84.061C37.0604 83.9103 37.306 83.7906 37.5645 83.7055C38.0081 83.566 38.3286 83.5097 38.3721 83.1841C38.9186 83.445 38.0397 83.7475 38.6214 84.0794C38.0809 83.9408 37.9875 84.1377 38.0273 84.3418C38.0475 84.4528 38.0586 84.5654 38.0605 84.678C38.0465 84.8332 37.992 84.9821 37.9021 85.1099C37.7658 84.9591 37.6412 84.8871 37.4912 84.9222C37.3072 84.9945 37.1574 85.1319 37.0707 85.3077C36.823 85.7385 36.852 86.2728 36.6829 86.2833C36.9224 86.7702 37.072 87.2948 37.1242 87.8332C37.3748 88.0965 37.6853 88.2976 38.0298 88.4187C38.3782 88.5271 38.6914 88.7249 38.9369 88.9926C38.8569 88.8181 38.8212 88.6271 38.8331 88.4361C38.845 88.2451 38.9041 88.06 39.0051 87.8971C39.0905 88.262 39.3697 88.4319 39.6862 87.9882C39.4123 86.6923 38.7624 88.7924 38.3357 87.7191C38.4147 87.4994 38.4486 87.2665 38.4356 87.0334C38.4227 86.8004 38.363 86.572 38.2602 86.3616C38.4005 86.3642 38.5382 86.325 38.6554 86.2489C38.7429 86.3533 38.8382 86.4509 38.9406 86.5411C38.9658 86.6426 39.0134 86.7372 39.0798 86.8186C39.1462 86.9001 39.2298 86.9662 39.3248 87.0121C39.6465 87.1988 40.0251 87.2936 40.1581 87.7201C40.2911 88.1466 39.6286 88.7537 40.1753 89.1803C39.9446 89.1495 39.7038 89.1947 39.4577 89.1949C40.2157 89.2963 39.4054 89.5855 39.8437 89.9866L39.9033 89.5415C40.2438 89.587 40.3114 89.7512 40.3447 90.087L40.3784 89.4173C40.5761 89.4438 40.9056 89.4882 40.7354 89.841C40.8305 89.7559 40.9087 89.6537 40.9657 89.5401C40.9512 89.6486 40.9396 89.7357 41.1864 89.8129C41.1116 89.7035 41.0128 89.69 41.0895 89.5346C41.7307 90.0069 41.5494 89.0216 41.9502 89.2851C41.972 89.1223 42.1417 89.0237 42.3313 89.027C41.9032 89.8866 42.7078 90.3921 42.7298 90.9805L43.1734 91.5921C43.0781 91.4689 43.3159 91.2795 43.5304 91.264C43.7742 91.1972 43.6756 90.1789 44.1653 90.6973L44.3495 91.0753C44.3495 91.0753 44.3726 90.9019 44.4692 90.8486L44.6783 91.2077C45.48 90.5638 45.3734 92.0299 46.0827 91.8265C45.9069 91.803 45.677 91.6835 45.8876 91.4466C46.0405 91.3897 46.1534 91.5486 46.188 91.7079L46.2025 91.5993L47.0383 92.5395C47.0833 92.2031 46.4884 91.9692 46.8791 91.7232C47.2698 91.4772 47.3232 91.9148 47.5012 92.0049C47.3909 92.2442 46.967 92.3204 47.2675 92.5815C47.359 92.4833 47.779 92.3518 47.6858 92.1294C47.9608 92.4976 48.4312 92.8256 48.6391 93.3615C48.7715 93.2909 48.6696 93.1337 48.6095 93.0814L48.6008 93.1466C48.4277 92.9357 48.7852 92.5191 48.2692 92.6157C48.5098 91.8195 48.9618 92.6202 49.3836 92.6435L48.9793 91.9044C50.352 91.1712 51.2875 92.7875 52.2814 93.1303C51.9148 93.2801 51.7453 92.9592 51.5718 93.5877C52.0974 94.0888 52.0627 93.9298 52.602 94.2449C53.1334 94.1172 53.3685 94.8666 53.7582 94.3775ZM42.7401 83.5478L42.7488 83.4826L43.0727 83.7358L43.0625 83.8115L42.7401 83.5478ZM49.0123 91.3236C49.0505 91.4013 49.1065 91.4695 49.1758 91.5224C49.0637 91.4411 49.016 91.3793 49.0123 91.3236ZM62.6631 90.6642C62.6548 90.9202 62.7265 91.1726 62.8683 91.3874C62.7035 91.3654 62.5094 91.229 62.2889 91.1222L62.1259 90.8356C62.3315 90.7195 62.386 90.3952 62.6631 90.6642ZM60.809 90.4825L60.5446 90.3695C60.5592 90.2905 60.5698 90.2111 60.5765 90.1311C60.6432 90.1641 60.6999 90.2142 60.7407 90.276C60.7816 90.3377 60.8052 90.409 60.809 90.4825ZM58.9025 88.0183C59.0154 88.177 59.0195 88.564 59.3034 88.4473C59.3179 88.3388 59.3267 88.2737 59.2432 88.2294L59.5617 88.272C59.6935 88.8751 59.3113 88.8904 58.9497 88.9194C58.9021 89.0024 58.8351 89.0729 58.7544 89.1252C58.6885 89.1164 58.6752 89.0485 58.6524 88.9681C58.5738 88.9859 58.5022 89.0261 58.4468 89.084L58.4627 88.9648C58.6054 88.8182 58.6406 88.8892 58.6605 88.9913C58.6804 89.0934 58.8472 89.0162 58.9576 88.9426C59.1674 88.6282 58.938 88.2547 58.934 88.0333L58.9025 88.0183ZM54.9589 87.4907C54.9154 87.8163 54.817 87.5491 54.659 87.7268L54.2457 87.3069C54.6126 86.7374 54.7445 87.506 54.9934 87.484L54.9589 87.4907ZM50.6958 85.9264C50.3772 85.8838 50.0565 85.7742 49.9205 85.9549C50.0037 85.6677 50.7603 85.3604 50.7302 85.9197L50.6958 85.9264ZM50.9713 86.6256L51.2687 86.1573C51.1563 86.4958 51.6544 86.6178 51.6925 86.6671C51.6966 86.748 51.6858 86.8291 51.6606 86.9061L51.2233 86.7478C51.2057 86.7051 51.1761 86.6686 51.1381 86.642C51.1 86.6154 51.0551 86.5999 51.0086 86.5977L50.9713 86.6256ZM39.3508 83.5583C39.4539 83.6206 39.553 83.6891 39.6476 83.7636L39.2971 83.9594L39.3508 83.5583ZM39.679 84.3643C39.7329 84.3517 39.7895 84.3561 39.8409 84.3768C39.8922 84.3975 39.9358 84.4334 39.9655 84.4798C39.8718 84.4936 39.7793 84.5143 39.6888 84.542C39.6456 84.5315 39.6015 84.5256 39.557 84.5244C39.3616 84.5645 39.2269 84.7348 39.1199 84.6984C39.1884 84.603 39.2769 84.5232 39.3793 84.4644C39.4816 84.4057 39.5956 84.3692 39.7135 84.3576L39.679 84.3643ZM47.3888 91.1728L48.0446 91.5366L48.0925 91.1784L48.0417 91.5584L48.0315 91.6341L47.3888 91.1728ZM48.9569 92.1554C48.49 92.3028 48.211 91.7133 48.2962 91.327L48.6218 91.7352L48.516 91.3564L48.9569 92.1554Z" fill="#BBDCAF"/>
<path opacity="0.2" d="M32.8124 28.4361C32.2903 28.5739 32.2672 29.3602 31.7626 29.006C32.3425 29.4021 31.5521 29.6796 31.7669 29.7561C31.6289 29.8653 31.4995 29.9676 31.3615 30.0768C31.2545 30.0263 31.1386 29.9999 31.0219 29.9995C30.9052 29.9991 30.7906 30.0247 30.6865 30.0745C31.0329 30.2642 30.8204 30.4034 30.6502 30.596C30.7306 30.556 30.8196 30.5349 30.9104 30.5348C30.4163 31.0272 29.9396 31.5061 29.5184 31.9842C28.9428 32.3381 28.3585 32.6987 27.8182 33.0972C28.0063 33.1546 28.171 33.2751 28.2845 33.4383C28.1982 33.5065 28.1386 33.6263 28.0735 33.7212C27.6188 33.6607 27.3203 33.5492 27.0025 34.2643C27.1073 34.645 27.2084 34.6665 27.355 34.7099C27.0736 35.1362 26.8219 35.5822 26.6017 36.0448C26.5026 36.1598 26.3827 36.2547 26.248 36.3246L26.4203 36.3475C26.3726 36.4588 26.3322 36.5733 26.2989 36.6902C26.1636 36.9194 25.9491 37.0891 25.6949 37.1679L26.0812 37.3548C25.987 37.7145 25.947 38.088 25.9623 38.4631C25.9623 38.4631 25.8934 38.5178 25.9278 38.6499L25.9795 38.609L26.0342 38.8554L25.9215 38.7129C25.8161 39.0611 25.8372 39.4394 25.9812 39.7814L26.1042 40.0608C26.1587 40.1384 26.2175 40.2128 26.2805 40.2836L26.6048 40.6935C26.6825 40.5853 26.7159 40.4503 26.6983 40.3153L26.8252 40.4757C27.0637 40.6904 27.337 40.8619 27.6323 40.9819C27.9777 41.4186 27.7442 41.531 27.3678 41.6403C26.9915 41.7497 26.4905 41.7547 27.049 42.443C26.8758 42.3482 26.7011 42.2691 26.5225 42.1496C26.5789 42.2209 26.6071 42.2566 26.5052 42.3228C26.2258 42.1874 25.9599 42.0238 25.7121 41.8345C25.9583 42.1253 26.2226 42.4003 26.5034 42.6575C26.7079 42.9159 26.8629 43.1118 26.445 43.2396C26.222 43.1589 26.0033 43.0658 25.7898 42.9609C25.5241 42.8223 25.2718 42.6579 25.0367 42.47C25.1502 42.8439 24.9927 42.9108 24.8226 42.9439L24.694 42.9586L24.4917 42.9157C24.3522 42.8811 24.3217 42.949 24.2668 43.0214L24.6693 43.4416L24.9091 43.7447C25.0738 43.9025 25.2473 44.0508 25.4286 44.1887C25.7601 44.4572 26.1136 44.6961 26.4849 44.9032C27.1985 45.2988 27.9604 45.5935 28.7484 45.7787C28.558 45.5381 27.9342 45.2636 28.1843 45.0657C28.5286 45.0142 28.8838 45.0727 29.2003 45.233C29.3461 45.3082 29.5079 45.3437 29.6692 45.3357C29.8305 45.3278 29.9854 45.2768 30.1182 45.1878L29.6559 44.887C29.7476 45.0029 29.887 45.0374 29.6737 45.1047C29.3545 45.3572 29.1533 45.0673 29.1424 44.8586C29.5 44.4597 30.3857 44.6572 30.7619 44.8668C31.8995 44.5319 30.7865 44.0648 31.0038 43.8784C31.3791 44.1756 31.7986 44.0322 32.1844 43.8284C32.5702 43.6246 32.8996 43.3496 33.2374 43.3866L32.692 43.1226C33.082 42.3214 33.7632 42.4201 34.2061 42.3595L33.866 42.1068C34.2917 41.9004 34.3531 41.4461 34.5171 41.157C34.6811 40.8679 34.8849 40.7356 35.5683 41.0498L35.3285 40.9063C35.527 40.5899 35.7264 40.0264 36.2688 40.1624C36.1701 40.0377 36.0433 39.8773 36.1288 39.7372C36.5997 40.0312 36.5616 39.5397 36.8276 39.1844C36.5257 39.2638 36.1473 38.6792 35.8055 38.7612C35.8648 37.7725 36.7658 38.9291 37.2073 38.5653C37.2562 38.0774 36.7174 38.4601 36.4933 38.3186C37.4176 38.051 36.9429 35.891 38.2501 36.6391L38.223 37.2254C38.6824 37.2387 38.8376 37.1158 38.7255 37.0451C38.6135 36.9744 38.5484 37.0693 38.4364 36.9986C38.8619 35.7636 40.4048 36.7743 41.1124 35.8958C40.8985 35.7318 40.7283 35.765 40.5786 35.5936C40.829 35.0767 41.787 36.3763 42.1254 35.4566L41.8142 35.3115C41.9327 35.0004 42.3544 35.232 42.3693 35.3217C41.6642 34.4305 43.8098 34.3415 43.3638 32.7672C44.0747 33.0452 45.3188 32.7564 45.392 32.2639C45.376 31.3927 44.562 31.9062 44.324 31.2686C44.6346 31.0229 45.1903 31.4238 45.5378 30.8881C45.9397 31.3961 45.384 32.6616 46.5106 32.2774L46.4214 31.8987C46.3266 31.9738 46.31 32.2188 46.1328 32.2431C45.6359 32.1291 46.0288 31.7747 45.9764 31.5844L47.0577 31.0186C47.5552 31.5234 46.8729 31.8311 46.9183 32.0126C47.2593 31.5872 47.5509 31.1232 47.7876 30.6294C47.9006 30.3748 48.0641 30.1476 48.2684 29.9611C48.4726 29.7746 48.7136 29.6328 48.9766 29.544L48.711 29.421C49.4809 29.1886 49.4443 28.8408 49.337 28.5635C49.2298 28.2861 49.1654 28.1339 50.0904 28.0976C50.3572 27.6547 49.2596 27.8276 49.811 27.319C49.9749 27.1893 50.1474 27.3717 50.2038 27.443C51.1792 26.9031 49.7947 26.9261 51.1824 26.5527L50.3484 26.4736C50.3915 26.4395 50.426 26.4121 50.4691 26.378C51.1089 26.1762 51.9189 25.9413 52.6669 25.6104C53.3289 25.4217 53.9097 25.0279 54.3285 24.484C53.5242 24.5842 53.1735 24.992 52.4444 25.1341C53.2843 24.8467 54.0143 24.3146 54.5438 23.6037C54.9266 23.0102 55.3917 22.4764 55.9257 22.0177C56.3913 22.1275 57.7049 21.1463 57.8716 21.623C56.7975 22.0381 57.2334 22.1281 56.9627 22.5306C58.2046 22.0262 58.2997 21.4727 58.2255 21.0243C58.1512 20.5759 58.0589 20.2288 58.9332 19.827L58.2872 19.9322C58.4684 19.7889 59.0512 19.1251 59.2063 19.3212C59.1281 18.9918 59.1196 18.6798 59.0171 18.3552C58.5472 19.0022 57.0311 20.2593 57.6935 20.2279C56.8403 20.8159 57.3778 19.9706 56.4447 20.5639C57.1693 19.9907 57.0729 19.9221 56.9075 19.908C56.7421 19.894 56.4922 19.9325 56.726 19.5012C57.1563 19.3983 57.5309 19.1428 57.7829 18.7807C57.9847 18.4637 58.2327 18.1798 58.5187 17.9379C58.3918 17.7775 58.7748 16.9675 58.9882 16.5813C59.0088 16.0578 58.1289 15.2468 57.7099 14.4336C57.7575 14.8306 57.7487 15.4754 57.3339 15.7311C57.3788 15.2029 57.0482 14.8559 56.5455 15.1956C56.6117 16.0416 56.865 15.9717 57.2304 15.813C57.3854 15.7267 57.5628 15.6867 57.7423 15.6977C57.8818 15.7322 57.9773 15.8886 57.9207 16.2956C57.5216 16.8468 57.2183 17.4638 57.023 18.1215C56.9456 18.1122 56.8674 18.1151 56.7916 18.1305C56.7611 18.1442 56.7345 18.1653 56.714 18.1919L56.6536 18.2397C56.6848 18.0474 56.7043 17.853 56.712 17.6576L56.7474 17.5426C56.8129 17.2888 56.7866 17.0171 56.6732 16.7752C56.3759 16.3439 56.1052 15.8953 55.8626 15.4316C55.8261 14.9244 56.7866 14.4543 56.0202 13.8579C56.3835 13.8704 56.7458 13.9186 57.102 14.0019C55.9772 13.7325 57.2261 13.556 56.6274 13.0298L56.5768 13.5333C56.0776 13.3632 55.9618 13.2522 55.9596 12.8772L55.8244 13.5926C55.5108 13.5509 55.006 13.5155 55.3033 13.1644C55.147 13.2485 55.007 13.3593 54.8892 13.4919C54.9245 13.377 54.8628 13.2812 54.5634 13.2573C54.655 13.3732 54.8251 13.34 54.6721 13.519C53.9636 13.2971 53.8661 13.7944 53.6332 13.9787C53.5382 14.0531 53.4192 14.0907 53.2969 14.0852C53.2741 14.2337 52.9087 14.3923 52.6672 14.5834C53.0719 14.0313 52.9873 13.7649 52.8338 13.5531C52.6802 13.3413 52.4859 13.2199 52.5747 12.8888C52.4689 12.7552 52.3562 12.6126 52.1759 12.5088C52.2464 12.5979 51.8715 13.0104 51.5539 13.2472C51.1743 13.5474 50.9519 14.7378 50.4549 14.6238L50.2505 14.3653C50.2857 14.4099 50.1092 14.6653 50.008 14.8034C49.9485 14.7107 49.88 14.6241 49.8035 14.5449C49.1242 15.459 48.922 15.4163 48.6995 15.2591C48.4769 15.1019 48.1948 14.9047 47.6293 15.555C47.9571 15.2957 48.2778 15.187 47.9482 15.7809C47.72 16.0774 47.5436 16.0141 47.4638 15.86L47.4636 16.0193C46.9187 16.046 46.378 16.1153 45.8463 16.2265C45.9668 16.6093 46.9243 16.0113 46.3822 16.9039C45.84 17.7964 45.6717 17.3356 45.3534 17.5005C45.4014 17.1003 46.0579 16.3344 45.4409 16.5473C45.3444 16.7975 44.7678 17.558 45.0366 17.6496C44.3048 17.8331 43.5542 17.9415 42.7961 17.9732C42.6423 18.2397 42.9582 18.1782 43.0813 18.1388L43.1096 18.0148C43.5487 17.9138 43.3492 18.7964 44.0206 17.961C44.074 18.1537 44.0565 18.3571 43.9716 18.5335C43.8868 18.71 43.7402 18.8473 43.5591 18.92C43.1748 19.066 42.8169 19.2712 42.4975 19.5282C42.8717 19.5123 43.2475 19.5249 43.6216 19.5661C43.4174 20.0644 43.113 20.5122 42.7272 20.8821C42.3884 21.1728 42.003 21.4044 41.5863 21.5675C40.7695 21.8225 39.9808 22.1552 39.2309 22.5614C39.3926 22.0567 39.8607 22.0632 39.3554 21.4777C38.7806 21.6292 38.2393 21.8808 37.7557 22.2214L37.8161 22.1737C37.6833 22.7859 36.7138 22.5531 36.8678 23.3151C37.291 23.5309 37.156 22.5802 37.6989 23.2665L36.7351 23.9274C37.3371 24.1032 37.6988 23.2663 38.1285 23.1003C38.3786 22.9024 37.5436 23.3893 37.3118 22.8482C38.1745 22.1657 38.7364 22.5037 39.6479 22.8403C39.7172 22.8615 39.7789 22.9038 39.8244 22.9613C39.8699 23.0188 39.8969 23.0886 39.9016 23.161C39.6773 23.3384 39.4444 23.5227 39.2201 23.7002C38.7473 23.5838 38.2548 23.6197 37.8128 23.8028C37.3709 23.9859 37.0021 24.307 36.759 24.72L36.709 25.6142C35.9213 25.4694 35.3521 24.4129 34.7003 25.1314L35.2206 25.3282C35.2102 25.5028 35.1436 25.6676 35.0308 25.7975C35.4902 25.8108 35.9721 25.835 36.4715 25.8456C36.1264 26.1186 35.7899 26.3848 35.4535 26.651C35.1132 26.6415 34.7764 26.6967 34.4603 26.8137C34.5379 26.9118 34.8179 26.7339 35.042 26.8753C34.2812 27.8105 32.5651 27.7335 31.7582 28.256C31.7525 28.7097 32.5172 27.8148 32.8124 28.4361ZM43.901 32.4002C44.1967 32.0649 44.6169 31.8338 44.5285 31.5271C44.7729 31.7829 44.4566 32.8011 43.901 32.4002ZM53.968 24.436L54.0174 24.4984L53.2787 24.8943L53.2293 24.8319C53.5154 24.7504 53.7594 24.6156 54.0033 24.4806L53.968 24.436ZM56.7135 20.815L56.1535 21.171L56.2666 20.8353L56.7135 20.815ZM28.2041 41.7754C28.077 41.4586 27.8969 41.1649 27.6715 40.9073C27.9517 41.0265 28.2458 41.1059 28.5454 41.1432L28.9067 41.4226C28.767 41.707 28.8703 42.1034 28.2762 41.8489L28.2041 41.7754ZM30.8181 40.8957C30.9471 40.8554 31.0738 40.8085 31.1976 40.755C31.2476 40.8403 31.3094 40.9184 31.3809 40.9867C31.304 41.0201 31.2201 41.0358 31.1354 41.0327C31.0506 41.0297 30.9669 41.008 30.8902 40.9691L30.8181 40.8957ZM35.2349 40.4154C34.9573 40.4901 34.5098 40.279 34.3889 40.6935C34.4735 40.8004 34.5298 40.8717 34.7023 40.7352L34.3636 41.1047C33.5633 40.9264 33.8629 40.4719 34.1555 40.0085C34.0955 39.9089 34.0681 39.7934 34.0773 39.6792C34.1024 39.5868 34.1981 39.5838 34.3274 39.6408C34.3677 39.5397 34.3817 39.429 34.3677 39.3193L34.4451 39.4172C34.5156 39.6658 34.4114 39.6759 34.293 39.6681C34.2516 39.798 34.1937 39.9216 34.121 40.0359C34.4249 40.4909 35.0379 40.3971 35.3067 40.4888L35.2349 40.4154ZM38.6775 36.0979C38.3429 35.87 38.7208 35.9045 38.6535 35.6244L39.4304 35.4008C39.8595 36.1914 38.9411 35.846 38.7841 36.144L38.6775 36.0979ZM42.8672 32.1749L43.0965 32.8195C42.8286 32.4808 42.2976 32.9442 42.209 32.9563C42.1412 32.8846 42.0799 32.807 42.0257 32.7246L42.5519 32.3083C42.6172 32.3329 42.6871 32.3403 42.755 32.3298C42.8228 32.3193 42.8862 32.291 42.9392 32.2481L42.8672 32.1749ZM55.6452 20.617C55.6271 20.8833 55.515 21.1314 55.3289 21.3164C55.2078 21.4563 55.0617 21.572 54.8976 21.6576L55.1838 21.2572C55.1838 21.2572 55.2442 21.2094 55.2701 21.189C55.4058 21.0121 55.5604 20.8508 55.7313 20.7081L55.6452 20.617ZM45.9983 17.961L45.0464 18.4244L45.1451 18.8681C45.1026 18.7275 45.0499 18.5898 44.9876 18.4564L45.0393 18.4155L44.9829 18.3441L45.9983 17.961ZM43.5639 19.0323C43.6442 18.8821 43.7606 18.7553 43.9028 18.663C44.045 18.5707 44.2085 18.5156 44.3792 18.5029C44.4987 18.5138 44.6116 18.5683 44.6965 18.6559C44.7813 18.7436 44.8323 18.8584 44.84 18.9789C44.6386 18.9684 44.4371 18.9682 44.2363 18.9782L44.5608 19.2288C44.2687 19.1762 43.973 19.1529 43.6781 19.1591L43.5639 19.0323ZM44.0885 19.8196C44.0401 19.8022 43.9889 19.7946 43.9381 19.7975C43.8873 19.8003 43.8381 19.8135 43.7931 19.8362C43.9664 19.7715 44.0376 19.773 44.0885 19.8196Z" fill="#BBDCAF"/>
<path opacity="0.3" d="M46.069 53.0107C46.0382 53.4917 45.9012 53.9615 45.6674 54.3877C45.5813 54.5439 45.5212 54.7123 45.4891 54.8865C45.4734 55.1956 45.5043 55.5048 45.581 55.8041C45.6876 55.5979 45.8051 55.3971 45.9328 55.2026C45.7999 55.2868 45.7497 55.4917 45.7114 55.1409C45.5144 54.538 45.8475 54.3888 46.0539 54.4627C46.1468 54.6487 46.1954 54.8532 46.1958 55.0611C46.2161 55.2957 46.2119 55.5321 46.1834 55.7664C46.1335 56.1648 46.0297 56.5555 45.8747 56.9282C46.0478 57.9231 46.2646 58.0033 46.4571 57.905C46.6495 57.8067 46.8129 57.5484 46.9132 57.744C46.5954 58.2233 46.849 58.9884 47.1345 59.7371C47.4898 60.3737 47.8023 61.0327 48.07 61.7099C48.0816 61.4174 48.0799 61.1457 48.1124 60.8658C48.5902 61.2628 48.9833 61.748 49.2695 62.2944C49.56 62.761 49.7353 63.2724 49.9687 63.6121C49.9727 63.4415 49.9863 63.2712 50.0095 63.1019C50.4836 63.6126 51.1008 63.9757 51.7857 64.1467C52.11 64.2659 52.4005 64.4576 52.6344 64.7069C52.8684 64.9561 53.0392 65.256 53.1332 65.5826L53.0504 65.2336C53.2248 65.2799 53.4016 65.3171 53.5802 65.3449C53.7728 65.3607 53.9758 65.383 54.1723 65.4153C54.5635 65.4712 54.9342 65.6178 55.2537 65.8433C55.243 65.7441 55.2689 65.644 55.3267 65.5611C55.3845 65.4782 55.4705 65.4181 55.5691 65.3913C55.631 65.5234 55.7423 65.6268 55.8804 65.6805C56.0184 65.7342 56.1727 65.7341 56.3119 65.6802C56.6013 65.6115 56.9101 65.3976 57.2937 65.2715C56.7121 65.2075 56.6459 64.3981 56.1075 64.2888C56.9422 63.3358 57.3773 64.9796 58.1805 64.7276C58.493 64.1881 57.5968 64.427 57.3831 64.1705C58.0543 64.1956 58.5082 63.5701 58.9236 63.0853C59.339 62.6004 59.7434 62.2588 60.4361 62.867L60.1445 63.5329C60.7583 63.6945 60.9998 63.5761 60.8812 63.455C60.7562 63.5724 60.6461 63.4491 60.536 63.326C61.5491 61.9882 63.2045 63.5092 64.4131 62.5025C64.1732 62.2873 63.9401 62.2902 63.8149 62.0654C64.2766 61.473 65.1556 63.1693 65.8382 62.068L65.4753 61.8643C65.7022 61.4944 66.1923 61.8171 66.1924 61.9312C65.5574 60.6948 68.2456 60.8471 68.0179 58.8644C68.8518 59.2723 70.4397 59.1064 70.6402 58.5496C70.8554 57.5241 69.7053 57.9812 69.569 57.1796C70.0455 56.9524 70.6164 57.5019 71.2171 56.9643C71.5333 57.653 70.5352 58.9783 71.9979 58.8156L72.0059 58.3572C71.896 58.4623 71.7777 58.6835 71.5511 58.6758C70.9812 58.4335 71.5507 58.1053 71.5525 57.8854C72.0546 57.7663 72.5482 57.6492 73.0588 57.528C73.4825 58.2527 72.5692 58.3817 72.5713 58.6182C73.5714 58.021 74.5004 56.4047 75.8031 56.6662L75.5978 56.4076C77.207 56.7106 75.9638 54.767 77.4989 55.781C78.0428 55.4588 77.0294 55.0145 77.9387 54.7548C78.2025 54.6922 78.1288 55.0258 78.1099 55.1356C79.3502 55.21 78.4065 54.3015 79.6813 54.8243L79.28 54.1558L79.4757 54.1094C80.8584 54.5188 82.5081 55.523 83.4119 54.975C83.1475 54.353 82.485 54.5542 82.0688 54.1262C83.9096 54.9888 85.6665 53.5272 87.2278 53.7801C86.9939 54.4238 88.306 54.8761 87.5738 55.5414C87.0702 54.783 86.8344 55.4184 86.3276 55.4421C87.7016 57.065 89.2283 53.7619 90.0095 55.2357L89.9793 54.5406C90.2223 54.5795 90.9606 54.8871 90.6394 55.2003C91.1021 54.915 91.5543 54.6234 92.0111 54.3131C91.2788 54.0304 89.7668 53.2655 89.6745 54.0511C89.0041 53.4991 90.1198 53.4275 89.4598 52.7676C90.8428 53.5193 89.9053 52.1441 91.0066 52.0496C90.8988 53.1111 92.5187 52.9286 92.6507 53.3714C92.9248 53.0869 93.8528 53.209 94.2819 53.3881C94.7342 53.1771 95.1469 52.8919 95.5023 52.5454L95.872 52.247C96.0415 52.1278 96.2215 52.0148 96.391 51.8956C96.7192 51.674 97.0689 51.4853 97.4349 51.332C96.7723 51.419 95.8518 51.4794 95.5952 50.8906C96.307 50.8973 96.9287 50.4863 96.5071 49.884C95.8792 49.9276 95.6304 49.9779 95.5028 50.1223C95.4257 50.321 95.4264 50.54 95.5047 50.7365C95.5913 50.9592 95.599 51.2045 95.5263 51.4336C95.4381 51.6301 95.262 51.7598 94.7899 51.7401C94.5145 51.5064 94.1863 51.3397 93.8317 51.2531C93.4772 51.1665 93.1059 51.1624 92.7477 51.2413C92.811 51.0491 92.8154 50.8435 92.7603 50.6502C93.0064 50.5508 93.2434 50.4508 93.4712 50.3499C93.8583 50.3551 94.2374 50.2342 94.5493 50.0062C95.0856 49.5325 95.744 49.2122 96.4513 49.0809C96.85 49.1424 97.235 49.2675 97.5911 49.4513C97.8439 49.5452 98.1221 49.5557 98.3834 49.4811C98.6446 49.4064 98.8748 49.2508 99.0392 49.0376C98.976 49.2677 98.8941 49.4926 98.7943 49.7102C98.7054 49.9414 98.5995 50.166 98.4772 50.3823C98.8944 49.6776 99.0195 49.6743 99.2278 49.7565C99.4361 49.8388 99.7132 49.9837 100.212 49.4351C99.94 49.4997 99.6761 49.5623 99.4123 49.6249C99.6522 49.0936 100.081 48.6643 100.618 48.4172C100.259 48.5289 99.8916 48.6159 99.5202 48.6777C99.6671 48.2741 99.8898 47.5451 100.341 47.6663C100.234 47.5315 100.089 47.4315 99.9224 47.3794C100.067 47.3451 100.252 47.1783 100.323 46.6435C100.176 46.933 100.164 47.1465 99.9358 47.0953C100.276 46.1805 99.9998 46.0004 99.8118 45.966C99.6238 45.9316 99.4071 45.9655 99.4131 45.3846C99.2384 45.5578 99.0686 45.2205 98.8954 44.8315C99.0254 44.8355 99.154 44.8011 99.2644 44.7326C99.3749 44.6641 99.462 44.5647 99.5144 44.4476C99.6279 44.1367 99.6812 43.8084 99.6714 43.4797C99.64 42.7409 99.4114 41.8911 99.4424 41.4535C99.1977 40.8296 98.8986 40.228 98.5483 39.6553C98.7536 40.028 98.2204 39.8647 97.6459 39.6411L97.7212 39.6935C97.1297 39.4739 97.3477 40.9234 96.2538 39.7607L95.6992 39.0144C95.8093 39.1375 95.5834 39.2086 95.4682 39.2535C95.2689 39.0199 95.037 38.838 94.8037 38.6124C94.4681 38.7164 94.1113 38.7326 93.7691 38.6598C93.4269 38.587 93.1112 38.4276 92.8532 38.1973C92.5359 37.9797 92.1917 37.8017 91.8286 37.6677C91.6895 37.5982 91.5365 37.5587 91.3798 37.5519C91.2232 37.5452 91.0665 37.5713 90.9203 37.6286C91.2693 37.5458 91.8424 37.7258 91.6155 38.0957C91.4682 38.1211 91.3172 38.1093 91.1767 38.0611C91.0362 38.013 90.9111 37.9304 90.8132 37.821L90.8507 37.9788C90.0527 37.6401 89.2334 37.3506 88.3975 37.1122C88.6657 37.5226 89.9735 37.6163 89.4631 38.0798C89.2135 38.657 88.4783 38.0589 88.0572 38.0271C88.0294 37.6825 88.79 37.3265 87.9281 37.1799C87.8575 37.3371 87.2227 37.7684 87.6152 37.9826C86.6318 37.7808 85.6657 37.5083 84.7247 37.1672C84.556 37.3653 84.9423 37.4404 85.0733 37.462L85.1008 37.3502C85.6182 37.4469 85.4223 38.2132 86.2299 37.7144C86.366 38.2878 86.116 38.4085 85.6707 38.4264C85.2078 38.4051 84.7436 38.4589 84.297 38.5855C84.7902 38.7319 85.2743 38.9155 85.7623 39.1158C85.3779 39.5475 84.9001 39.8898 84.3641 40.1173C83.8282 40.3448 83.2481 40.4514 82.6669 40.4295C81.5229 40.3698 80.3749 40.3958 79.233 40.507C79.6864 40.0307 80.2628 40.2626 79.8711 39.4074C79.0859 39.3181 78.2899 39.3528 77.5133 39.5103L77.6273 39.5359C77.157 40.1304 76.0268 39.4591 75.8841 40.3357C76.3069 40.7534 76.6268 39.6768 76.9485 40.654L75.4158 40.9385C76.0815 41.3951 76.9485 40.6539 77.5608 40.6579C77.9555 40.5028 76.6761 40.7185 76.6657 39.9924C78.07 39.6592 78.6061 40.2518 79.6133 41.0488C79.8178 41.2285 79.8429 41.3719 79.7919 41.4981C79.4259 41.5849 79.0514 41.6738 78.6514 41.7687C78.1203 41.4269 77.4984 41.2429 76.8598 41.2387C76.2212 41.2346 75.5929 41.4104 75.0498 41.7453L74.5419 42.6734C73.6332 42.1779 73.4735 40.7849 72.2868 41.2771L72.8385 41.708C72.6449 41.9909 72.4924 42.1062 72.3543 42.1302C72.9183 42.3476 73.5072 42.5941 74.0516 42.8424C73.4984 42.9737 72.9452 43.105 72.3593 43.2879C71.9373 43.129 71.4908 43.039 71.0376 43.0219C71.1497 43.1534 71.5215 43.0915 71.7267 43.3501C70.2972 44.0316 68.2188 43.1904 66.9715 43.3897C66.6636 44.0246 68.0729 43.4093 68.0671 44.2184C67.3421 44.1182 66.8989 44.9784 66.4753 44.3678C66.9677 45.0411 65.8879 44.9988 66.0649 45.1763C65.8521 45.2268 65.6406 45.3207 65.4253 45.3981C65.3201 45.291 65.1923 45.2076 65.0507 45.1533C64.9091 45.0991 64.7569 45.0754 64.6045 45.0839C64.9139 45.4406 64.5885 45.5091 64.2769 45.6357C64.393 45.6271 64.5094 45.6411 64.6194 45.6772C63.7919 45.9789 62.9665 46.2888 62.145 46.6154C61.2742 46.7342 60.3975 46.8282 59.5326 46.972C59.7062 47.1339 59.8227 47.346 59.8652 47.5779C59.712 47.6142 59.5725 47.7086 59.4272 47.7782C58.945 47.4888 58.6914 47.2155 57.876 47.7952C57.7409 48.2486 57.8326 48.3322 58.0298 48.4435C57.41 48.7486 56.794 49.0701 56.1886 49.3981C56.0209 49.4431 55.8481 49.4663 55.6746 49.4674L55.8228 49.5992C55.6729 49.6874 55.5295 49.7652 55.3881 49.8515C55.243 49.9076 55.0881 49.9347 54.9327 49.9308C54.7773 49.9269 54.6246 49.8922 54.4838 49.829L54.6578 50.2969C54.2337 50.5556 53.8266 50.8102 53.4235 51.0815C53.4097 51.0233 53.3384 51.1015 53.2036 51.1774L53.3228 51.1491C53.2291 51.1713 53.1427 51.2621 53.059 51.3259C53.1035 51.2732 53.1519 51.2234 53.2036 51.1774C52.3638 51.4322 51.5885 51.8618 50.9312 52.4364C51.0424 52.5402 51.1913 52.5964 51.3458 52.5927C51.2777 52.6088 51.2168 52.6934 51.1501 52.7531C50.8295 53.0187 50.5518 53.3304 50.3266 53.6772C49.7336 54.0198 49.694 53.6254 49.7138 53.1027C49.7372 52.8652 49.72 52.6262 49.6628 52.3951C49.6253 52.2372 49.377 52.1379 48.9614 52.3945C49.0868 52.2017 49.2389 52.0267 49.4134 51.8747C49.3952 51.8817 49.3755 51.8848 49.356 51.8834C49.3365 51.882 49.3176 51.8764 49.3007 51.8669C49.2838 51.8575 49.2694 51.8445 49.2584 51.8287C49.2474 51.813 49.2401 51.795 49.2372 51.7761L49.8448 51.0788C49.5843 51.1933 49.1937 51.4792 48.873 51.6431C48.5523 51.807 48.3219 51.8967 48.2893 51.3426C48.5734 50.9185 48.8856 50.513 49.2239 50.1287C48.6181 50.0003 48.9057 49.4319 48.6161 49.1582C46.9543 50.0846 45.7053 51.5882 45.1198 53.3675C45.4792 53.291 45.9055 52.5491 46.069 53.0107Z" fill="#BBDCAF"/>
</svg>
