<svg width="1404" height="747" viewBox="0 0 1404 747" fill="none" xmlns="http://www.w3.org/2000/svg">
<circle opacity="0.5" cx="17.6406" cy="265.227" r="6" fill="white"/>
<circle opacity="0.1" cx="1355" cy="65" r="5" fill="white"/>
<path opacity="0.05" d="M1354.79 583.172C1362.03 583.172 1369.11 585.32 1375.13 589.344C1381.15 593.367 1385.84 599.085 1388.61 605.774C1391.38 612.463 1392.11 619.824 1390.69 626.925C1389.28 634.026 1385.79 640.549 1380.67 645.668C1375.55 650.788 1369.03 654.274 1361.93 655.686C1354.82 657.098 1347.46 656.373 1340.77 653.602C1334.08 650.831 1328.37 646.139 1324.34 640.119C1320.32 634.098 1318.17 627.021 1318.17 619.78C1318.18 610.074 1322.05 600.768 1328.91 593.905C1335.77 587.042 1345.08 583.181 1354.79 583.172ZM1354.79 571C1345.14 570.999 1335.71 573.859 1327.68 579.219C1319.66 584.578 1313.41 592.196 1309.71 601.11C1306.02 610.023 1305.05 619.831 1306.94 629.294C1308.82 638.757 1313.46 647.449 1320.29 654.272C1327.11 661.094 1335.8 665.74 1345.27 667.623C1354.73 669.506 1364.54 668.54 1373.45 664.848C1382.37 661.156 1389.99 654.904 1395.35 646.882C1400.71 638.86 1403.57 629.428 1403.57 619.78C1403.57 606.844 1398.43 594.437 1389.28 585.289C1380.13 576.141 1367.73 571.001 1354.79 571Z" fill="white"/>
<path opacity="0.05" d="M930.383 746.564C927.684 746.565 925.004 746.124 922.447 745.259C907.315 740.127 900.025 721.156 906.193 702.977C909.153 694.25 914.747 686.955 921.943 682.497C929.28 677.927 937.405 676.796 944.818 679.307C952.231 681.819 957.985 687.662 961.034 695.753C964.017 703.683 964.031 712.858 961.071 721.59C958.112 730.317 952.518 737.611 945.322 742.069C940.862 744.938 935.686 746.496 930.383 746.564ZM936.891 682.573C932.44 682.641 928.096 683.957 924.356 686.371C918.055 690.296 913.14 696.738 910.52 704.442C905.162 720.242 911.17 736.607 923.913 740.928C930.006 742.997 936.75 742.026 942.909 738.191C949.21 734.27 954.12 727.852 956.745 720.119L958.908 720.854L956.745 720.119C959.366 712.391 959.37 704.305 956.745 697.36C954.191 690.574 949.431 685.702 943.338 683.633C941.261 682.93 939.084 682.572 936.891 682.573Z" fill="white"/>
<path opacity="0.1" d="M87.2565 668.358C89.253 667.197 91.7574 668.633 91.7644 670.942L91.8143 687.281C91.8214 689.591 89.3258 691.042 87.3223 689.893L73.1473 681.767C71.1438 680.618 71.135 677.732 73.1314 676.571L87.2565 668.358Z" fill="white"/>
<rect opacity="0.1" x="19.8672" y="424.43" width="20" height="20" rx="4" transform="rotate(-169.177 19.8672 424.43)" fill="white"/>
<circle opacity="0.5" cx="582" cy="5" r="5" fill="white"/>
</svg>
