<svg width="358" height="72" viewBox="0 0 358 72" fill="none" xmlns="http://www.w3.org/2000/svg">
<rect width="358" height="72" rx="12" fill="white"/>
<path d="M72.6697 20.5455H71.2571V27.4886H71.1694L66.359 20.5455H65.0387V30H66.4652V23.0661H66.5529L71.3587 30H72.6697V20.5455ZM77.6267 30.1431C79.6256 30.1431 80.9321 28.6797 80.9321 26.4869C80.9321 24.2802 79.6256 22.8168 77.6267 22.8168C75.6278 22.8168 74.3213 24.2802 74.3213 26.4869C74.3213 28.6797 75.6278 30.1431 77.6267 30.1431ZM77.6313 28.9844C76.3248 28.9844 75.7155 27.8441 75.7155 26.4822C75.7155 25.125 76.3248 23.9709 77.6313 23.9709C78.9285 23.9709 79.5379 25.125 79.5379 26.4822C79.5379 27.8441 78.9285 28.9844 77.6313 28.9844ZM85.7828 22.9091H84.3287V21.2102H82.9483V22.9091H81.9096V24.017H82.9483V28.2042C82.9437 29.4922 83.927 30.1154 85.0165 30.0923C85.4551 30.0877 85.7505 30.0046 85.9121 29.9446L85.6628 28.8043C85.5705 28.8228 85.3997 28.8643 85.1781 28.8643C84.7303 28.8643 84.3287 28.7166 84.3287 27.918V24.017H85.7828V22.9091ZM87.3097 30H88.6901V22.9091H87.3097V30ZM88.0068 21.815C88.4823 21.815 88.8794 21.4457 88.8794 20.9933C88.8794 20.5408 88.4823 20.1669 88.0068 20.1669C87.5267 20.1669 87.1343 20.5408 87.1343 20.9933C87.1343 21.4457 87.5267 21.815 88.0068 21.815ZM93.9217 22.9091H92.3936V22.272C92.3936 21.6442 92.6522 21.3026 93.3262 21.3026C93.6124 21.3026 93.8155 21.3672 93.9448 21.4087L94.2679 20.2915C94.074 20.2177 93.6724 20.1023 93.1138 20.1023C91.992 20.1023 91.0087 20.7578 91.0087 22.0874V22.9091H89.9146V24.017H91.0087V30H92.3936V24.017H93.9217V22.9091ZM95.3459 30H96.7262V22.9091H95.3459V30ZM96.043 21.815C96.5185 21.815 96.9155 21.4457 96.9155 20.9933C96.9155 20.5408 96.5185 20.1669 96.043 20.1669C95.5629 20.1669 95.1705 20.5408 95.1705 20.9933C95.1705 21.4457 95.5629 21.815 96.043 21.815ZM101.57 30.1431C103.246 30.1431 104.331 29.1367 104.483 27.7564H103.14C102.964 28.5227 102.369 28.9751 101.579 28.9751C100.411 28.9751 99.6588 28.0011 99.6588 26.4545C99.6588 24.9357 100.425 23.9801 101.579 23.9801C102.456 23.9801 102.992 24.5341 103.14 25.1989H104.483C104.335 23.7678 103.167 22.8168 101.556 22.8168C99.5573 22.8168 98.2646 24.3217 98.2646 26.4869C98.2646 28.6243 99.5111 30.1431 101.57 30.1431ZM108.614 30.1385C109.906 30.1385 110.414 29.3491 110.663 28.8967H110.779V30H112.127V22.9091H110.746V24.0586H110.663C110.414 23.62 109.943 22.8168 108.623 22.8168C106.91 22.8168 105.65 24.1694 105.65 26.4684C105.65 28.7628 106.892 30.1385 108.614 30.1385ZM108.918 28.9613C107.686 28.9613 107.044 27.8764 107.044 26.4545C107.044 25.0465 107.672 23.9893 108.918 23.9893C110.123 23.9893 110.77 24.9727 110.77 26.4545C110.77 27.9457 110.109 28.9613 108.918 28.9613ZM117.407 22.9091H115.953V21.2102H114.572V22.9091H113.534V24.017H114.572V28.2042C114.568 29.4922 115.551 30.1154 116.641 30.0923C117.079 30.0877 117.375 30.0046 117.536 29.9446L117.287 28.8043C117.195 28.8228 117.024 28.8643 116.802 28.8643C116.354 28.8643 115.953 28.7166 115.953 27.918V24.017H117.407V22.9091ZM118.934 30H120.314V22.9091H118.934V30ZM119.631 21.815C120.106 21.815 120.503 21.4457 120.503 20.9933C120.503 20.5408 120.106 20.1669 119.631 20.1669C119.151 20.1669 118.758 20.5408 118.758 20.9933C118.758 21.4457 119.151 21.815 119.631 21.815ZM125.158 30.1431C127.157 30.1431 128.463 28.6797 128.463 26.4869C128.463 24.2802 127.157 22.8168 125.158 22.8168C123.159 22.8168 121.853 24.2802 121.853 26.4869C121.853 28.6797 123.159 30.1431 125.158 30.1431ZM125.163 28.9844C123.856 28.9844 123.247 27.8441 123.247 26.4822C123.247 25.125 123.856 23.9709 125.163 23.9709C126.46 23.9709 127.069 25.125 127.069 26.4822C127.069 27.8441 126.46 28.9844 125.163 28.9844ZM131.384 25.7898C131.384 24.6587 132.077 24.0124 133.037 24.0124C133.974 24.0124 134.542 24.6264 134.542 25.6559V30H135.922V25.4897C135.922 23.7354 134.958 22.8168 133.508 22.8168C132.442 22.8168 131.744 23.3107 131.417 24.0632H131.329V22.9091H130.004V30H131.384V25.7898Z" fill="#6A7185"/>
<path d="M73.3068 40.8182H72.0938V48.8324H71.9943L66.4261 40.8182H65.233V51H66.4659V43.0057H66.5653L72.1136 51H73.3068V40.8182ZM78.8166 51.1591C80.3677 51.1591 81.5012 50.3835 81.8592 49.2301L80.7257 48.9119C80.4274 49.7074 79.7363 50.1051 78.8166 50.1051C77.4395 50.1051 76.4899 49.2152 76.4352 47.5795H81.9785V47.0824C81.9785 44.2386 80.2882 43.2642 78.6973 43.2642C76.6291 43.2642 75.2569 44.8949 75.2569 47.2415C75.2569 49.5881 76.6092 51.1591 78.8166 51.1591ZM76.4352 46.5653C76.5147 45.3771 77.3549 44.3182 78.6973 44.3182C79.97 44.3182 80.7853 45.2727 80.7853 46.5653H76.4352ZM85.4934 51H86.6468L88.3173 45.1335H88.4366L90.1071 51H91.2605L93.5872 43.3636H92.3542L90.7037 49.1903H90.6241L89.0133 43.3636H87.7605L86.1298 49.2102H86.0502L84.3997 43.3636H83.1667L85.4934 51ZM102.178 51.1591C103.868 51.1591 104.982 50.125 105.181 48.7727H104.008C103.789 49.608 103.093 50.1051 102.178 50.1051C100.786 50.1051 99.8912 48.9517 99.8912 47.1818C99.8912 45.4517 100.806 44.3182 102.178 44.3182C103.212 44.3182 103.829 44.9545 104.008 45.6506H105.181C104.982 44.2188 103.769 43.2642 102.158 43.2642C100.09 43.2642 98.7179 44.8949 98.7179 47.2216C98.7179 49.5085 100.03 51.1591 102.178 51.1591ZM109.998 51.1591C112.067 51.1591 113.459 49.5881 113.459 47.2216C113.459 44.8352 112.067 43.2642 109.998 43.2642C107.93 43.2642 106.538 44.8352 106.538 47.2216C106.538 49.5881 107.93 51.1591 109.998 51.1591ZM109.998 50.1051C108.427 50.1051 107.711 48.7528 107.711 47.2216C107.711 45.6903 108.427 44.3182 109.998 44.3182C111.569 44.3182 112.285 45.6903 112.285 47.2216C112.285 48.7528 111.569 50.1051 109.998 50.1051ZM115.25 51H116.423V46.2273C116.423 45.1087 117.238 44.3182 118.153 44.3182C119.043 44.3182 119.664 44.8999 119.664 45.7699V51H120.858V46.0284C120.858 45.044 121.474 44.3182 122.548 44.3182C123.383 44.3182 124.099 44.7607 124.099 45.8892V51H125.272V45.8892C125.272 44.0945 124.308 43.2642 122.946 43.2642C121.852 43.2642 121.051 43.7663 120.659 44.5568H120.579C120.201 43.7415 119.535 43.2642 118.531 43.2642C117.537 43.2642 116.801 43.7415 116.483 44.5568H116.383V43.3636H115.25V51ZM127.418 51H128.591V46.2273C128.591 45.1087 129.406 44.3182 130.321 44.3182C131.211 44.3182 131.832 44.8999 131.832 45.7699V51H133.026V46.0284C133.026 45.044 133.642 44.3182 134.716 44.3182C135.551 44.3182 136.267 44.7607 136.267 45.8892V51H137.44V45.8892C137.44 44.0945 136.476 43.2642 135.114 43.2642C134.02 43.2642 133.219 43.7663 132.827 44.5568H132.747C132.369 43.7415 131.703 43.2642 130.699 43.2642C129.705 43.2642 128.969 43.7415 128.651 44.5568H128.551V43.3636H127.418V51ZM142.787 51.1591C144.338 51.1591 145.472 50.3835 145.83 49.2301L144.696 48.9119C144.398 49.7074 143.707 50.1051 142.787 50.1051C141.41 50.1051 140.461 49.2152 140.406 47.5795H145.949V47.0824C145.949 44.2386 144.259 43.2642 142.668 43.2642C140.6 43.2642 139.228 44.8949 139.228 47.2415C139.228 49.5881 140.58 51.1591 142.787 51.1591ZM140.406 46.5653C140.485 45.3771 141.326 44.3182 142.668 44.3182C143.941 44.3182 144.756 45.2727 144.756 46.5653H140.406ZM148.907 46.4062C148.907 45.0739 149.733 44.3182 150.856 44.3182C151.945 44.3182 152.606 45.0291 152.606 46.2273V51H153.779V46.1477C153.779 44.1989 152.74 43.2642 151.194 43.2642C150.041 43.2642 149.325 43.7812 148.967 44.5568H148.868V43.3636H147.734V51H148.907V46.4062ZM159.244 43.3636H157.614V41.5341H156.441V43.3636H155.287V44.358H156.441V49.1307C156.441 50.4631 157.514 51.0994 158.509 51.0994C158.946 51.0994 159.225 51.0199 159.384 50.9602L159.145 49.9062C159.046 49.9261 158.887 49.9659 158.628 49.9659C158.111 49.9659 157.614 49.8068 157.614 48.8125V44.358H159.244V43.3636ZM164.947 51H166.12V43.3636H164.947V51ZM165.544 42.0909C166.001 42.0909 166.379 41.733 166.379 41.2955C166.379 40.858 166.001 40.5 165.544 40.5C165.086 40.5 164.708 40.858 164.708 41.2955C164.708 41.733 165.086 42.0909 165.544 42.0909ZM169.442 46.4062C169.442 45.0739 170.268 44.3182 171.391 44.3182C172.48 44.3182 173.141 45.0291 173.141 46.2273V51H174.315V46.1477C174.315 44.1989 173.276 43.2642 171.729 43.2642C170.576 43.2642 169.86 43.7812 169.502 44.5568H169.403V43.3636H168.269V51H169.442V46.4062ZM182.469 51H184.289L186.332 43.8558H186.412L188.45 51H190.27L193.143 40.8182H191.16L189.325 48.3054H189.236L187.272 40.8182H185.467L183.508 48.3004H183.414L181.579 40.8182H179.596L182.469 51ZM196.944 51.1491C198.724 51.1491 199.947 50.2791 200.265 48.9517L198.585 48.7628C198.341 49.4091 197.744 49.7472 196.969 49.7472C195.806 49.7472 195.035 48.9815 195.02 47.674H200.34V47.1222C200.34 44.4425 198.729 43.2642 196.85 43.2642C194.662 43.2642 193.235 44.87 193.235 47.2266C193.235 49.6229 194.642 51.1491 196.944 51.1491ZM195.025 46.4609C195.08 45.4865 195.801 44.6662 196.874 44.6662C197.909 44.6662 198.605 45.4219 198.615 46.4609H195.025ZM201.942 51H203.712V49.7969H203.816C204.099 50.3537 204.691 51.1342 206.004 51.1342C207.803 51.1342 209.151 49.7074 209.151 47.1918C209.151 44.6463 207.763 43.2642 205.999 43.2642C204.651 43.2642 204.089 44.0746 203.816 44.6264H203.741V40.8182H201.942V51ZM203.707 47.1818C203.707 45.7003 204.343 44.7408 205.501 44.7408C206.7 44.7408 207.316 45.7599 207.316 47.1818C207.316 48.6136 206.69 49.6577 205.501 49.6577C204.353 49.6577 203.707 48.6634 203.707 47.1818ZM216.716 45.3821C216.468 44.0895 215.433 43.2642 213.644 43.2642C211.804 43.2642 210.551 44.169 210.556 45.581C210.551 46.6946 211.237 47.4304 212.704 47.7337L214.007 48.0071C214.708 48.1612 215.036 48.4446 215.036 48.8771C215.036 49.3991 214.469 49.7919 213.614 49.7919C212.789 49.7919 212.252 49.4339 212.097 48.7479L210.343 48.9169C210.566 50.3189 211.744 51.1491 213.619 51.1491C215.528 51.1491 216.875 50.1598 216.88 48.7131C216.875 47.6243 216.174 46.9581 214.732 46.6449L213.43 46.3665C212.654 46.1925 212.346 45.924 212.351 45.4815C212.346 44.9645 212.918 44.6065 213.669 44.6065C214.499 44.6065 214.936 45.0589 215.075 45.5611L216.716 45.3821ZM218.364 51H220.164V43.3636H218.364V51ZM219.269 42.2798C219.841 42.2798 220.308 41.8423 220.308 41.3054C220.308 40.7635 219.841 40.326 219.269 40.326C218.692 40.326 218.225 40.7635 218.225 41.3054C218.225 41.8423 218.692 42.2798 219.269 42.2798ZM225.828 43.3636H224.321V41.5341H222.522V43.3636H221.438V44.7557H222.522V49.0014C222.512 50.4382 223.556 51.1442 224.908 51.1044C225.42 51.0895 225.773 50.9901 225.967 50.9254L225.664 49.5185C225.564 49.5433 225.36 49.5881 225.137 49.5881C224.684 49.5881 224.321 49.429 224.321 48.7031V44.7557H225.828V43.3636ZM230.632 51.1491C232.411 51.1491 233.634 50.2791 233.953 48.9517L232.272 48.7628C232.029 49.4091 231.432 49.7472 230.656 49.7472C229.493 49.7472 228.722 48.9815 228.708 47.674H234.027V47.1222C234.027 44.4425 232.416 43.2642 230.537 43.2642C228.35 43.2642 226.923 44.87 226.923 47.2266C226.923 49.6229 228.33 51.1491 230.632 51.1491ZM228.713 46.4609C228.767 45.4865 229.488 44.6662 230.562 44.6662C231.596 44.6662 232.292 45.4219 232.302 46.4609H228.713ZM239.102 51H240.946V47.2713H242.826L244.824 51H246.882L244.68 46.9631C245.878 46.4808 246.51 45.4567 246.51 44.0746C246.51 42.1307 245.257 40.8182 242.92 40.8182H239.102V51ZM240.946 45.7401V42.3594H242.637C244.014 42.3594 244.63 42.9908 244.63 44.0746C244.63 45.1584 244.014 45.7401 242.647 45.7401H240.946ZM251.399 51.1491C253.179 51.1491 254.402 50.2791 254.72 48.9517L253.04 48.7628C252.796 49.4091 252.2 49.7472 251.424 49.7472C250.261 49.7472 249.49 48.9815 249.475 47.674H254.795V47.1222C254.795 44.4425 253.184 43.2642 251.305 43.2642C249.117 43.2642 247.69 44.87 247.69 47.2266C247.69 49.6229 249.097 51.1491 251.399 51.1491ZM249.48 46.4609C249.535 45.4865 250.256 44.6662 251.33 44.6662C252.364 44.6662 253.06 45.4219 253.07 46.4609H249.48ZM259.151 51.1342C260.464 51.1342 261.055 50.3537 261.339 49.7969H261.448V51H263.218V40.8182H261.413V44.6264H261.339C261.065 44.0746 260.503 43.2642 259.156 43.2642C257.391 43.2642 256.004 44.6463 256.004 47.1918C256.004 49.7074 257.351 51.1342 259.151 51.1342ZM259.653 49.6577C258.465 49.6577 257.839 48.6136 257.839 47.1818C257.839 45.7599 258.455 44.7408 259.653 44.7408C260.812 44.7408 261.448 45.7003 261.448 47.1818C261.448 48.6634 260.802 49.6577 259.653 49.6577ZM268.516 51.1491C270.296 51.1491 271.519 50.2791 271.837 48.9517L270.157 48.7628C269.913 49.4091 269.317 49.7472 268.541 49.7472C267.378 49.7472 266.607 48.9815 266.592 47.674H271.912V47.1222C271.912 44.4425 270.301 43.2642 268.422 43.2642C266.234 43.2642 264.808 44.87 264.808 47.2266C264.808 49.6229 266.214 51.1491 268.516 51.1491ZM266.597 46.4609C266.652 45.4865 267.373 44.6662 268.447 44.6662C269.481 44.6662 270.177 45.4219 270.187 46.4609H266.597ZM279.47 45.3821C279.221 44.0895 278.187 43.2642 276.398 43.2642C274.558 43.2642 273.305 44.169 273.31 45.581C273.305 46.6946 273.991 47.4304 275.458 47.7337L276.76 48.0071C277.461 48.1612 277.79 48.4446 277.79 48.8771C277.79 49.3991 277.223 49.7919 276.368 49.7919C275.542 49.7919 275.006 49.4339 274.851 48.7479L273.096 48.9169C273.32 50.3189 274.498 51.1491 276.373 51.1491C278.282 51.1491 279.629 50.1598 279.634 48.7131C279.629 47.6243 278.928 46.9581 277.486 46.6449L276.184 46.3665C275.408 46.1925 275.1 45.924 275.105 45.4815C275.1 44.9645 275.672 44.6065 276.422 44.6065C277.253 44.6065 277.69 45.0589 277.829 45.5611L279.47 45.3821ZM281.118 51H282.918V43.3636H281.118V51ZM282.023 42.2798C282.595 42.2798 283.062 41.8423 283.062 41.3054C283.062 40.7635 282.595 40.326 282.023 40.326C281.446 40.326 280.979 40.7635 280.979 41.3054C280.979 41.8423 281.446 42.2798 282.023 42.2798ZM286.568 46.5256C286.568 45.4219 287.234 44.7855 288.184 44.7855C289.114 44.7855 289.67 45.397 289.67 46.4162V51H291.47V46.1378C291.475 44.3082 290.431 43.2642 288.855 43.2642C287.712 43.2642 286.926 43.8111 286.578 44.6612H286.489V43.3636H284.768V51H286.568V46.5256ZM296.621 54.0227C298.684 54.0227 300.205 53.0781 300.205 51.1243V43.3636H298.43V44.6264H298.331C298.058 44.0746 297.486 43.2642 296.138 43.2642C294.374 43.2642 292.987 44.6463 292.987 47.157C292.987 49.6477 294.374 50.8906 296.134 50.8906C297.441 50.8906 298.053 50.1896 298.331 49.6278H298.42V51.0746C298.42 52.1982 297.675 52.6605 296.651 52.6605C295.567 52.6605 295.089 52.1484 294.871 51.701L293.25 52.0938C293.578 53.1626 294.677 54.0227 296.621 54.0227ZM296.636 49.4787C295.447 49.4787 294.821 48.554 294.821 47.147C294.821 45.7599 295.438 44.7408 296.636 44.7408C297.794 44.7408 298.43 45.7003 298.43 47.147C298.43 48.6037 297.784 49.4787 296.636 49.4787ZM309.457 43.3636H307.827V41.5341H306.653V43.3636H305.5V44.358H306.653V49.1307C306.653 50.4631 307.727 51.0994 308.722 51.0994C309.159 51.0994 309.438 51.0199 309.597 50.9602L309.358 49.9062C309.259 49.9261 309.099 49.9659 308.841 49.9659C308.324 49.9659 307.827 49.8068 307.827 48.8125V44.358H309.457V43.3636ZM314.024 51.1591C315.495 51.1591 315.993 50.2443 316.251 49.8267H316.39V51H317.524V43.3636H316.35V44.5767H316.251C315.993 44.179 315.535 43.2642 314.044 43.2642C312.115 43.2642 310.782 44.7955 310.782 47.2017C310.782 49.6278 312.115 51.1591 314.024 51.1591ZM314.183 50.1051C312.711 50.1051 311.956 48.8125 311.956 47.1818C311.956 45.571 312.691 44.3182 314.183 44.3182C315.615 44.3182 316.37 45.4716 316.37 47.1818C316.37 48.9119 315.595 50.1051 314.183 50.1051ZM325.245 45.0739C324.877 43.9901 324.051 43.2642 322.54 43.2642C320.929 43.2642 319.736 44.179 319.736 45.4716C319.736 46.5256 320.363 47.2315 321.765 47.5597L323.037 47.858C323.808 48.0369 324.171 48.4048 324.171 48.9318C324.171 49.5881 323.475 50.125 322.381 50.125C321.422 50.125 320.82 49.7124 320.611 48.892L319.498 49.1705C319.771 50.468 320.84 51.1591 322.401 51.1591C324.176 51.1591 325.384 50.1896 325.384 48.8722C325.384 47.8082 324.718 47.1371 323.355 46.804L322.222 46.5256C321.317 46.3018 320.909 45.9986 320.909 45.4119C320.909 44.7557 321.605 44.2784 322.54 44.2784C323.564 44.2784 323.987 44.8452 324.191 45.3722L325.245 45.0739ZM327.15 51H328.323V48.1413L329.144 47.3807L332.002 51H333.494L330.029 46.625L333.255 43.3636H331.803L328.463 46.7642H328.323V40.8182H327.15V51Z" fill="#35353D"/>
<path d="M270.55 29H276.295V27.8707H272.366V27.8068L274.1 25.9915C275.698 24.3764 276.154 23.6051 276.154 22.6293C276.154 21.2273 275.012 20.1534 273.367 20.1534C271.735 20.1534 270.542 21.2102 270.542 22.804H271.799C271.795 21.8665 272.4 21.2528 273.342 21.2528C274.228 21.2528 274.901 21.7983 274.901 22.6676C274.901 23.4389 274.441 23.9929 273.504 24.9858L270.55 28.0455V29ZM277.539 27.2955H281.677V29H282.925V27.2955H284.089V26.179H282.925V23.5455H281.694V26.179H278.907V26.1108L282.244 20.2727H280.957L277.539 26.2301V27.2955ZM288.767 29H290.041V24.9645C290.041 24.0824 290.659 23.4688 291.383 23.4688C292.091 23.4688 292.581 23.9375 292.581 24.6491V29H293.85V24.8281C293.85 24.0398 294.332 23.4688 295.163 23.4688C295.836 23.4688 296.39 23.8438 296.39 24.7301V29H297.664V24.6108C297.664 23.1151 296.829 22.3693 295.645 22.3693C294.703 22.3693 293.995 22.821 293.68 23.5199H293.612C293.326 22.804 292.725 22.3693 291.852 22.3693C290.987 22.3693 290.343 22.7997 290.071 23.5199H289.99V22.4545H288.767V29ZM299.372 29H300.646V22.4545H299.372V29ZM300.016 21.4446C300.455 21.4446 300.821 21.1037 300.821 20.6861C300.821 20.2685 300.455 19.9233 300.016 19.9233C299.572 19.9233 299.21 20.2685 299.21 20.6861C299.21 21.1037 299.572 21.4446 300.016 21.4446ZM303.635 25.1136C303.635 24.0696 304.274 23.473 305.16 23.473C306.025 23.473 306.549 24.0398 306.549 24.9901V29H307.824V24.8366C307.824 23.2173 306.933 22.3693 305.595 22.3693C304.61 22.3693 303.967 22.8253 303.664 23.5199H303.583V22.4545H302.36V29H303.635V25.1136ZM315.158 29.1278C316.352 29.1278 316.82 28.3991 317.05 27.9815H317.157V29H318.401V22.4545H317.127V23.5156H317.05C316.82 23.1108 316.386 22.3693 315.167 22.3693C313.586 22.3693 312.423 23.6179 312.423 25.7401C312.423 27.858 313.569 29.1278 315.158 29.1278ZM315.44 28.0412C314.302 28.0412 313.71 27.0398 313.71 25.7273C313.71 24.4276 314.289 23.4517 315.44 23.4517C316.552 23.4517 317.148 24.3594 317.148 25.7273C317.148 27.1037 316.539 28.0412 315.44 28.0412ZM322.964 31.5909C324.63 31.5909 325.917 30.8281 325.917 29.1449V22.4545H324.669V23.5156H324.575C324.349 23.1108 323.897 22.3693 322.679 22.3693C321.098 22.3693 319.934 23.6179 319.934 25.7017C319.934 27.7898 321.123 28.902 322.67 28.902C323.872 28.902 324.336 28.2244 324.566 27.8068H324.647V29.0938C324.647 30.1207 323.944 30.5639 322.977 30.5639C321.916 30.5639 321.502 30.0312 321.277 29.6562L320.181 30.108C320.527 30.9091 321.4 31.5909 322.964 31.5909ZM322.951 27.8452C321.814 27.8452 321.221 26.9716 321.221 25.6847C321.221 24.4276 321.801 23.4517 322.951 23.4517C324.064 23.4517 324.66 24.3594 324.66 25.6847C324.66 27.0355 324.051 27.8452 322.951 27.8452ZM330.383 29.1321C332.228 29.1321 333.434 27.7812 333.434 25.7571C333.434 23.7202 332.228 22.3693 330.383 22.3693C328.538 22.3693 327.332 23.7202 327.332 25.7571C327.332 27.7812 328.538 29.1321 330.383 29.1321ZM330.387 28.0625C329.181 28.0625 328.619 27.0099 328.619 25.7528C328.619 24.5 329.181 23.4347 330.387 23.4347C331.585 23.4347 332.147 24.5 332.147 25.7528C332.147 27.0099 331.585 28.0625 330.387 28.0625Z" fill="#969DB3"/>
<path d="M46.7827 44.0506L47.4327 49.3173C47.5993 50.7006 46.116 51.6673 44.9327 50.9506L39.166 47.5173C38.766 47.284 38.666 46.784 38.8827 46.384C39.716 44.8506 40.166 43.1173 40.166 41.384C40.166 35.284 34.9327 30.3173 28.4993 30.3173C27.1827 30.3173 25.8993 30.5173 24.6993 30.9173C24.0827 31.1173 23.4827 30.5507 23.6327 29.9173C25.1493 23.8507 30.9827 19.334 37.9493 19.334C46.0827 19.334 52.666 25.484 52.666 33.0673C52.666 37.5673 50.3493 41.5506 46.7827 44.0506Z" fill="#4A86F7"/>
<path d="M37.6673 41.3831C37.6673 43.3664 36.934 45.1997 35.7007 46.6497C34.0507 48.6497 31.434 49.9331 28.5007 49.9331L24.1507 52.5164C23.4173 52.9664 22.484 52.3497 22.584 51.4997L23.0007 48.2164C20.7673 46.6664 19.334 44.1831 19.334 41.3831C19.334 38.4497 20.9007 35.8664 23.3007 34.3331C24.784 33.3664 26.5673 32.8164 28.5007 32.8164C33.5673 32.8164 37.6673 36.6497 37.6673 41.3831Z" fill="#A3C2FB"/>
</svg>
