<svg width="385" height="88" viewBox="0 0 385 88" fill="none" xmlns="http://www.w3.org/2000/svg">
<rect width="385" height="88" rx="14.6667" fill="white"/>
<path d="M88.819 24.9991H87.0924V33.4852H86.9852L81.1059 24.9991H79.4922V36.5547H81.2357V28.0799H81.3429L87.2166 36.5547H88.819V24.9991ZM94.8775 36.7296C97.3206 36.7296 98.9174 34.941 98.9174 32.2609C98.9174 29.5638 97.3206 27.7752 94.8775 27.7752C92.4344 27.7752 90.8376 29.5638 90.8376 32.2609C90.8376 34.941 92.4344 36.7296 94.8775 36.7296ZM94.8831 35.3134C93.2864 35.3134 92.5416 33.9197 92.5416 32.2552C92.5416 30.5964 93.2864 29.1858 94.8831 29.1858C96.4686 29.1858 97.2134 30.5964 97.2134 32.2552C97.2134 33.9197 96.4686 35.3134 94.8831 35.3134ZM104.846 27.888H103.069V25.8116H101.382V27.888H100.112V29.2422H101.382V34.3598C101.376 35.934 102.578 36.6957 103.91 36.6675C104.446 36.6619 104.807 36.5603 105.004 36.487L104.699 35.0933C104.587 35.1159 104.378 35.1667 104.107 35.1667C103.56 35.1667 103.069 34.9861 103.069 34.01V29.2422H104.846V27.888ZM106.712 36.5547H108.399V27.888H106.712V36.5547ZM107.564 26.5508C108.146 26.5508 108.631 26.0994 108.631 25.5464C108.631 24.9935 108.146 24.5365 107.564 24.5365C106.978 24.5365 106.498 24.9935 106.498 25.5464C106.498 26.0994 106.978 26.5508 107.564 26.5508ZM114.794 27.888H112.926V27.1094C112.926 26.342 113.242 25.9245 114.066 25.9245C114.416 25.9245 114.664 26.0035 114.822 26.0543L115.217 24.6888C114.98 24.5985 114.489 24.4575 113.806 24.4575C112.435 24.4575 111.233 25.2587 111.233 26.8837V27.888H109.896V29.2422H111.233V36.5547H112.926V29.2422H114.794V27.888ZM116.534 36.5547H118.221V27.888H116.534V36.5547ZM117.386 26.5508C117.967 26.5508 118.453 26.0994 118.453 25.5464C118.453 24.9935 117.967 24.5365 117.386 24.5365C116.799 24.5365 116.32 24.9935 116.32 25.5464C116.32 26.0994 116.799 26.5508 117.386 26.5508ZM124.142 36.7296C126.19 36.7296 127.516 35.4996 127.702 33.8125H126.06C125.846 34.7491 125.118 35.3021 124.153 35.3021C122.725 35.3021 121.806 34.1115 121.806 32.2214C121.806 30.365 122.742 29.197 124.153 29.197C125.225 29.197 125.879 29.8741 126.06 30.6866H127.702C127.521 28.9375 126.094 27.7752 124.125 27.7752C121.682 27.7752 120.102 29.6146 120.102 32.2609C120.102 34.8733 121.625 36.7296 124.142 36.7296ZM132.75 36.724C134.33 36.724 134.951 35.7591 135.256 35.2062H135.397V36.5547H137.044V27.888H135.357V29.293H135.256C134.951 28.7569 134.375 27.7752 132.762 27.7752C130.668 27.7752 129.128 29.4284 129.128 32.2383C129.128 35.0425 130.646 36.724 132.75 36.724ZM133.123 35.2852C131.616 35.2852 130.832 33.9592 130.832 32.2214C130.832 30.5004 131.599 29.2083 133.123 29.2083C134.595 29.2083 135.385 30.4102 135.385 32.2214C135.385 34.0438 134.579 35.2852 133.123 35.2852ZM143.498 27.888H141.72V25.8116H140.033V27.888H138.764V29.2422H140.033V34.3598C140.028 35.934 141.229 36.6957 142.561 36.6675C143.097 36.6619 143.458 36.5603 143.656 36.487L143.351 35.0933C143.238 35.1159 143.029 35.1667 142.759 35.1667C142.211 35.1667 141.72 34.9861 141.72 34.01V29.2422H143.498V27.888ZM145.364 36.5547H147.051V27.888H145.364V36.5547ZM146.216 26.5508C146.797 26.5508 147.282 26.0994 147.282 25.5464C147.282 24.9935 146.797 24.5365 146.216 24.5365C145.629 24.5365 145.15 24.9935 145.15 25.5464C145.15 26.0994 145.629 26.5508 146.216 26.5508ZM152.971 36.7296C155.414 36.7296 157.011 34.941 157.011 32.2609C157.011 29.5638 155.414 27.7752 152.971 27.7752C150.528 27.7752 148.931 29.5638 148.931 32.2609C148.931 34.941 150.528 36.7296 152.971 36.7296ZM152.977 35.3134C151.38 35.3134 150.635 33.9197 150.635 32.2552C150.635 30.5964 151.38 29.1858 152.977 29.1858C154.562 29.1858 155.307 30.5964 155.307 32.2552C155.307 33.9197 154.562 35.3134 152.977 35.3134ZM160.581 31.4089C160.581 30.0265 161.428 29.2365 162.601 29.2365C163.747 29.2365 164.441 29.987 164.441 31.2452V36.5547H166.128V31.0421C166.128 28.898 164.949 27.7752 163.177 27.7752C161.873 27.7752 161.021 28.3789 160.621 29.2986H160.514V27.888H158.894V36.5547H160.581V31.4089Z" fill="#6A7185"/>
<path d="M284.6 25.1107H283.1C283.043 25.4023 282.23 26.7513 280.673 26.7513V28.0742C281.882 28.0742 282.72 27.5951 282.897 27.2826H282.986V35.7773H284.6V25.1107ZM287.482 35.7773H294.503V34.3971H289.701V34.319L291.82 32.1003C293.773 30.1263 294.331 29.1836 294.331 27.9909C294.331 26.2773 292.935 24.9648 290.924 24.9648C288.93 24.9648 287.471 26.2565 287.471 28.2044H289.008C289.003 27.0586 289.742 26.3086 290.893 26.3086C291.977 26.3086 292.799 26.9753 292.799 28.0378C292.799 28.9805 292.237 29.6576 291.091 30.8711L287.482 34.6107V35.7773ZM300.379 35.7773H301.936V30.8451C301.936 29.7669 302.691 29.0169 303.577 29.0169C304.441 29.0169 305.04 29.5898 305.04 30.4596V35.7773H306.592V30.6784C306.592 29.7148 307.181 29.0169 308.197 29.0169C309.02 29.0169 309.697 29.4753 309.697 30.5586V35.7773H311.254V30.4128C311.254 28.5846 310.233 27.6732 308.785 27.6732C307.634 27.6732 306.77 28.2253 306.384 29.0794H306.301C305.952 28.2044 305.217 27.6732 304.15 27.6732C303.092 27.6732 302.306 28.1992 301.973 29.0794H301.874V27.7773H300.379V35.7773ZM313.341 35.7773H314.898V27.7773H313.341V35.7773ZM314.128 26.543C314.664 26.543 315.112 26.1263 315.112 25.6159C315.112 25.1055 314.664 24.6836 314.128 24.6836C313.586 24.6836 313.143 25.1055 313.143 25.6159C313.143 26.1263 313.586 26.543 314.128 26.543ZM318.551 31.0273C318.551 29.7513 319.332 29.0221 320.415 29.0221C321.473 29.0221 322.113 29.7148 322.113 30.8763V35.7773H323.671V30.6888C323.671 28.7096 322.582 27.6732 320.947 27.6732C319.743 27.6732 318.957 28.2305 318.587 29.0794H318.488V27.7773H316.993V35.7773H318.551V31.0273ZM332.635 35.9336C334.094 35.9336 334.667 35.043 334.948 34.5326H335.078V35.7773H336.599V27.7773H335.042V29.0742H334.948C334.667 28.5794 334.135 27.6732 332.646 27.6732C330.714 27.6732 329.292 29.1992 329.292 31.793C329.292 34.3815 330.693 35.9336 332.635 35.9336ZM332.979 34.6055C331.589 34.6055 330.865 33.3815 330.865 31.7773C330.865 30.1888 331.573 28.9961 332.979 28.9961C334.339 28.9961 335.068 30.1055 335.068 31.7773C335.068 33.4596 334.323 34.6055 332.979 34.6055ZM342.176 38.944C344.212 38.944 345.785 38.0117 345.785 35.9544V27.7773H344.259V29.0742H344.145C343.869 28.5794 343.316 27.6732 341.827 27.6732C339.895 27.6732 338.473 29.1992 338.473 31.7461C338.473 34.2982 339.926 35.6576 341.816 35.6576C343.285 35.6576 343.853 34.8294 344.134 34.319H344.233V35.8919C344.233 37.1471 343.374 37.6888 342.191 37.6888C340.895 37.6888 340.389 37.0378 340.113 36.5794L338.775 37.1315C339.197 38.1107 340.264 38.944 342.176 38.944ZM342.16 34.3659C340.77 34.3659 340.046 33.2982 340.046 31.7253C340.046 30.1888 340.754 28.9961 342.16 28.9961C343.52 28.9961 344.249 30.1055 344.249 31.7253C344.249 33.3763 343.504 34.3659 342.16 34.3659ZM351.244 35.9388C353.499 35.9388 354.973 34.2878 354.973 31.8138C354.973 29.3242 353.499 27.6732 351.244 27.6732C348.988 27.6732 347.514 29.3242 347.514 31.8138C347.514 34.2878 348.988 35.9388 351.244 35.9388ZM351.249 34.6315C349.775 34.6315 349.087 33.3451 349.087 31.8086C349.087 30.2773 349.775 28.9753 351.249 28.9753C352.712 28.9753 353.4 30.2773 353.4 31.8086C353.4 33.3451 352.712 34.6315 351.249 34.6315Z" fill="#969DB3"/>
<path d="M86.2131 53.7539H88.3824C88.3398 51.6515 86.5473 50.1628 83.898 50.1628C81.2852 50.1628 79.3225 51.6332 79.3286 53.8329C79.3286 55.6194 80.5985 56.6463 82.6463 57.1749L84.0621 57.5395C85.4049 57.8798 86.2921 58.299 86.2982 59.2652C86.2921 60.3286 85.2834 61.0395 83.8129 61.0395C82.4032 61.0395 81.3095 60.4076 81.2183 59.1011H79.0004C79.0916 61.5742 80.9327 62.9657 83.8312 62.9657C86.8147 62.9657 88.5464 61.477 88.5525 59.2834C88.5464 57.1263 86.7661 56.1419 84.8945 55.6983L83.7279 55.4067C82.707 55.1636 81.6011 54.7322 81.6133 53.6931C81.6194 52.7574 82.4579 52.0707 83.8676 52.0707C85.2105 52.0707 86.0977 52.6966 86.2131 53.7539ZM95.1257 53.444H93.2845V51.2079H91.0849V53.444H89.7602V55.1454H91.0849V60.3346C91.0727 62.0907 92.3487 62.9536 94.0015 62.9049C94.6274 62.8867 95.0588 62.7652 95.2958 62.6862L94.9251 60.9666C94.8036 60.997 94.5545 61.0516 94.281 61.0516C93.7281 61.0516 93.2845 60.8572 93.2845 59.9701V55.1454H95.1257V53.444ZM98.3325 66.2773C100.046 66.2773 101.036 65.3963 101.565 63.9076L105.314 53.4562L102.963 53.444L100.806 60.4926H100.708L98.5573 53.444H96.224L99.6085 62.9718L99.4201 63.4761C99.013 64.5395 98.3689 64.6124 97.4089 64.3329L96.8984 66.0464C97.1962 66.168 97.7309 66.2773 98.3325 66.2773ZM106.841 50.3329V60.4622C106.841 62.0907 107.686 62.8867 109.466 62.8381C110.025 62.826 110.402 62.7348 110.657 62.6558L110.292 60.9909C110.177 61.0273 110.049 61.0577 109.758 61.0638C109.217 61.076 109.041 60.8025 109.041 60.1037V50.3329H106.841ZM115.886 62.9596C118.061 62.9596 119.556 61.8963 119.945 60.2739L117.891 60.043C117.593 60.8329 116.864 61.2461 115.916 61.2461C114.494 61.2461 113.552 60.3103 113.534 58.7122H120.036V58.0378C120.036 54.7626 118.067 53.3225 115.77 53.3225C113.097 53.3225 111.353 55.2852 111.353 58.1654C111.353 61.0942 113.072 62.9596 115.886 62.9596ZM113.54 57.2296C113.607 56.0386 114.488 55.036 115.801 55.036C117.064 55.036 117.915 55.9596 117.927 57.2296H113.54ZM126.141 62.7773H128.341V57.2904C128.341 56.1115 129.228 55.2791 130.376 55.2791C130.735 55.2791 131.008 55.3641 131.245 55.4735L131.926 53.6506C131.598 53.444 131.178 53.3103 130.674 53.3103C129.599 53.3103 128.711 53.918 128.371 54.9996H128.274V53.444H126.141V62.7773ZM136.89 62.9596C139.066 62.9596 140.56 61.8963 140.949 60.2739L138.895 60.043C138.598 60.8329 137.868 61.2461 136.921 61.2461C135.499 61.2461 134.557 60.3103 134.539 58.7122H141.04V58.0378C141.04 54.7626 139.072 53.3225 136.775 53.3225C134.101 53.3225 132.357 55.2852 132.357 58.1654C132.357 61.0942 134.077 62.9596 136.89 62.9596ZM134.545 57.2296C134.612 56.0386 135.493 55.036 136.805 55.036C138.069 55.036 138.92 55.9596 138.932 57.2296H134.545ZM150.278 55.911C149.974 54.3312 148.71 53.3225 146.523 53.3225C144.275 53.3225 142.743 54.4284 142.749 56.1541C142.743 57.5152 143.582 58.4145 145.374 58.7852L146.966 59.1194C147.823 59.3077 148.224 59.6541 148.224 60.1827C148.224 60.8207 147.531 61.3008 146.486 61.3008C145.478 61.3008 144.821 60.8633 144.633 60.0247L142.488 60.2313C142.762 61.9449 144.202 62.9596 146.492 62.9596C148.826 62.9596 150.472 61.7504 150.479 59.9822C150.472 58.6515 149.616 57.8372 147.854 57.4544L146.262 57.1141C145.314 56.9015 144.937 56.5734 144.943 56.0326C144.937 55.4006 145.636 54.9631 146.553 54.9631C147.568 54.9631 148.103 55.5161 148.273 56.1298L150.278 55.911ZM156.424 62.9596C158.6 62.9596 160.094 61.8963 160.483 60.2739L158.429 60.043C158.132 60.8329 157.403 61.2461 156.455 61.2461C155.033 61.2461 154.091 60.3103 154.073 58.7122H160.574V58.0378C160.574 54.7626 158.606 53.3225 156.309 53.3225C153.635 53.3225 151.891 55.2852 151.891 58.1654C151.891 61.0942 153.611 62.9596 156.424 62.9596ZM154.079 57.2296C154.146 56.0386 155.027 55.036 156.339 55.036C157.603 55.036 158.454 55.9596 158.466 57.2296H154.079ZM165.899 62.9414C167.503 62.9414 168.226 61.9874 168.572 61.3069H168.706V62.7773H170.869V53.444H168.664V54.9874H168.572C168.238 54.3129 167.552 53.3225 165.905 53.3225C163.748 53.3225 162.053 55.0117 162.053 58.1228C162.053 61.1975 163.699 62.9414 165.899 62.9414ZM166.513 61.1367C165.06 61.1367 164.295 59.8607 164.295 58.1107C164.295 56.3728 165.048 55.1272 166.513 55.1272C167.928 55.1272 168.706 56.2999 168.706 58.1107C168.706 59.9214 167.916 61.1367 166.513 61.1367ZM173.213 62.7773H175.413V57.2904C175.413 56.1115 176.3 55.2791 177.449 55.2791C177.807 55.2791 178.081 55.3641 178.317 55.4735L178.998 53.6506C178.67 53.444 178.251 53.3103 177.746 53.3103C176.671 53.3103 175.784 53.918 175.443 54.9996H175.346V53.444H173.213V62.7773ZM183.902 62.9596C186.247 62.9596 187.742 61.5681 187.9 59.5872H185.798C185.609 60.5898 184.886 61.1671 183.92 61.1671C182.547 61.1671 181.66 60.0187 181.66 58.1107C181.66 56.227 182.565 55.0968 183.92 55.0968C184.977 55.0968 185.627 55.7773 185.798 56.6766H187.9C187.748 54.6532 186.168 53.3225 183.89 53.3225C181.155 53.3225 179.429 55.2973 179.429 58.1471C179.429 60.9727 181.113 62.9596 183.902 62.9596ZM191.906 57.3086C191.906 55.9596 192.744 55.1819 193.923 55.1819C195.078 55.1819 195.758 55.9171 195.758 57.1749V62.7773H197.958V56.8346C197.958 54.5803 196.682 53.3225 194.744 53.3225C193.309 53.3225 192.398 53.9727 191.967 55.0299H191.857V50.3329H189.706V62.7773H191.906V57.3086ZM200.2 62.7773H202.4V53.444H200.2V62.7773ZM201.306 52.1194C202.005 52.1194 202.576 51.5846 202.576 50.9284C202.576 50.2661 202.005 49.7313 201.306 49.7313C200.601 49.7313 200.03 50.2661 200.03 50.9284C200.03 51.5846 200.601 52.1194 201.306 52.1194ZM206.861 57.3086C206.861 55.9596 207.676 55.1819 208.836 55.1819C209.972 55.1819 210.653 55.9293 210.653 57.1749V62.7773H212.853V56.8346C212.859 54.5985 211.583 53.3225 209.656 53.3225C208.259 53.3225 207.299 53.9909 206.873 55.0299H206.764V53.444H204.662V62.7773H206.861V57.3086ZM219.148 66.4718C221.669 66.4718 223.529 65.3173 223.529 62.9293V53.444H221.36V54.9874H221.238C220.904 54.3129 220.205 53.3225 218.558 53.3225C216.401 53.3225 214.706 55.0117 214.706 58.0803C214.706 61.1246 216.401 62.6437 218.552 62.6437C220.15 62.6437 220.898 61.7869 221.238 61.1003H221.347V62.8685C221.347 64.2418 220.436 64.8069 219.184 64.8069C217.86 64.8069 217.276 64.181 217.009 63.6341L215.028 64.1141C215.429 65.4206 216.772 66.4718 219.148 66.4718ZM219.166 60.918C217.714 60.918 216.948 59.7878 216.948 58.0681C216.948 56.3728 217.702 55.1272 219.166 55.1272C220.582 55.1272 221.36 56.2999 221.36 58.0681C221.36 59.8485 220.57 60.918 219.166 60.918ZM234.837 53.444H232.844V51.2079H231.41V53.444H230V54.6593H231.41V60.4926C231.41 62.1211 232.722 62.8989 233.938 62.8989C234.472 62.8989 234.813 62.8016 235.007 62.7287L234.716 61.4405C234.594 61.4648 234.4 61.5135 234.084 61.5135C233.452 61.5135 232.844 61.319 232.844 60.1037V54.6593H234.837V53.444ZM240.418 62.9718C242.217 62.9718 242.824 61.8537 243.14 61.3433H243.311V62.7773H244.696V53.444H243.262V54.9266H243.14C242.824 54.4405 242.265 53.3225 240.443 53.3225C238.085 53.3225 236.456 55.194 236.456 58.135C236.456 61.1003 238.085 62.9718 240.418 62.9718ZM240.613 61.6836C238.814 61.6836 237.89 60.1037 237.89 58.1107C237.89 56.1419 238.79 54.6107 240.613 54.6107C242.363 54.6107 243.286 56.0204 243.286 58.1107C243.286 60.2253 242.338 61.6836 240.613 61.6836ZM254.133 55.5343C253.683 54.2096 252.674 53.3225 250.827 53.3225C248.858 53.3225 247.4 54.4405 247.4 56.0204C247.4 57.3086 248.166 58.1714 249.879 58.5725L251.435 58.9371C252.377 59.1558 252.82 59.6055 252.82 60.2496C252.82 61.0516 251.969 61.7079 250.633 61.7079C249.46 61.7079 248.725 61.2036 248.469 60.201L247.108 60.5412C247.443 62.1272 248.749 62.9718 250.657 62.9718C252.826 62.9718 254.303 61.7869 254.303 60.1766C254.303 58.8763 253.489 58.056 251.824 57.6489L250.438 57.3086C249.332 57.0352 248.834 56.6645 248.834 55.9475C248.834 55.1454 249.685 54.5621 250.827 54.5621C252.079 54.5621 252.595 55.2548 252.844 55.8989L254.133 55.5343ZM256.461 62.7773H257.895V59.2834L258.898 58.3537L262.392 62.7773H264.215L259.98 57.4301L263.923 53.444H262.149L258.066 57.6003H257.895V50.3329H256.461V62.7773ZM274.373 62.9718C276.439 62.9718 277.8 61.7079 278.043 60.0551H276.609C276.342 61.076 275.491 61.6836 274.373 61.6836C272.672 61.6836 271.578 60.2739 271.578 58.1107C271.578 55.9961 272.696 54.6107 274.373 54.6107C275.637 54.6107 276.39 55.3885 276.609 56.2391H278.043C277.8 54.4891 276.318 53.3225 274.349 53.3225C271.821 53.3225 270.144 55.3155 270.144 58.1593C270.144 60.9544 271.748 62.9718 274.373 62.9718ZM283.931 62.9718C286.459 62.9718 288.16 61.0516 288.16 58.1593C288.16 55.2426 286.459 53.3225 283.931 53.3225C281.403 53.3225 279.702 55.2426 279.702 58.1593C279.702 61.0516 281.403 62.9718 283.931 62.9718ZM283.931 61.6836C282.011 61.6836 281.136 60.0308 281.136 58.1593C281.136 56.2878 282.011 54.6107 283.931 54.6107C285.851 54.6107 286.726 56.2878 286.726 58.1593C286.726 60.0308 285.851 61.6836 283.931 61.6836ZM290.349 62.7773H291.783V56.944C291.783 55.5768 292.78 54.6107 293.898 54.6107C294.986 54.6107 295.745 55.3216 295.745 56.385V62.7773H297.204V56.701C297.204 55.4978 297.957 54.6107 299.27 54.6107C300.29 54.6107 301.165 55.1515 301.165 56.5308V62.7773H302.599V56.5308C302.599 54.3372 301.421 53.3225 299.756 53.3225C298.419 53.3225 297.441 53.9362 296.961 54.9023H296.863C296.401 53.9058 295.587 53.3225 294.36 53.3225C293.145 53.3225 292.245 53.9058 291.856 54.9023H291.735V53.444H290.349V62.7773ZM305.221 66.2773H306.655V61.3433H306.777C307.093 61.8537 307.701 62.9718 309.499 62.9718C311.832 62.9718 313.461 61.1003 313.461 58.135C313.461 55.194 311.832 53.3225 309.475 53.3225C307.652 53.3225 307.093 54.4405 306.777 54.9266H306.607V53.444H305.221V66.2773ZM306.631 58.1107C306.631 56.0204 307.555 54.6107 309.305 54.6107C311.128 54.6107 312.027 56.1419 312.027 58.1107C312.027 60.1037 311.103 61.6836 309.305 61.6836C307.579 61.6836 306.631 60.2253 306.631 58.1107ZM315.648 50.3329V60.7357C315.648 62.0664 316.329 62.8503 317.69 62.8503C318.103 62.8503 318.51 62.7773 318.76 62.7044L318.468 61.4648C318.328 61.5074 318.201 61.5499 317.86 61.5621C317.228 61.5803 317.082 61.2522 317.082 60.3468V50.3329H315.648ZM323.99 62.9718C325.886 62.9718 327.271 62.0239 327.709 60.6141L326.323 60.2253C325.959 61.1975 325.114 61.6836 323.99 61.6836C322.307 61.6836 321.146 60.5959 321.079 58.5968H327.854V57.9891C327.854 54.5135 325.788 53.3225 323.844 53.3225C321.316 53.3225 319.639 55.3155 319.639 58.1836C319.639 61.0516 321.292 62.9718 323.99 62.9718ZM321.079 57.3572C321.176 55.9049 322.203 54.6107 323.844 54.6107C325.4 54.6107 326.396 55.7773 326.396 57.3572H321.079ZM334.095 53.444H332.102V51.2079H330.668V53.444H329.258V54.6593H330.668V60.4926C330.668 62.1211 331.98 62.8989 333.196 62.8989C333.73 62.8989 334.071 62.8016 334.265 62.7287L333.973 61.4405C333.852 61.4648 333.657 61.5135 333.341 61.5135C332.709 61.5135 332.102 61.319 332.102 60.1037V54.6593H334.095V53.444ZM340.065 62.9718C341.961 62.9718 343.346 62.0239 343.784 60.6141L342.398 60.2253C342.034 61.1975 341.189 61.6836 340.065 61.6836C338.382 61.6836 337.221 60.5959 337.154 58.5968H343.929V57.9891C343.929 54.5135 341.864 53.3225 339.919 53.3225C337.391 53.3225 335.714 55.3155 335.714 58.1836C335.714 61.0516 337.367 62.9718 340.065 62.9718ZM337.154 57.3572C337.252 55.9049 338.278 54.6107 339.919 54.6107C341.475 54.6107 342.471 55.7773 342.471 57.3572H337.154ZM349.635 62.9718C351.434 62.9718 352.041 61.8537 352.357 61.3433H352.528V62.7773H353.913V50.3329H352.479V54.9266H352.357C352.041 54.4405 351.482 53.3225 349.66 53.3225C347.302 53.3225 345.673 55.194 345.673 58.135C345.673 61.1003 347.302 62.9718 349.635 62.9718ZM349.83 61.6836C348.031 61.6836 347.107 60.1037 347.107 58.1107C347.107 56.1419 348.007 54.6107 349.83 54.6107C351.58 54.6107 352.503 56.0204 352.503 58.1107C352.503 60.2253 351.555 61.6836 349.83 61.6836Z" fill="#35353D"/>
<path fill-rule="evenodd" clip-rule="evenodd" d="M43.9993 25.666C33.8903 25.666 25.666 33.8903 25.666 43.9993C25.666 54.1084 33.8903 62.3327 43.9993 62.3327C54.1084 62.3327 62.3327 54.1084 62.3327 43.9993C62.3327 33.8903 54.1084 25.666 43.9993 25.666ZM38.4993 34.8327V42.166C38.4993 44.5608 40.0298 46.598 42.166 47.3531V49.4993H40.3327C39.8264 49.4993 39.416 49.9098 39.416 50.416V52.2493C39.416 52.7556 39.8264 53.166 40.3327 53.166H47.666C48.1723 53.166 48.5827 52.7556 48.5827 52.2493V50.416C48.5827 49.9098 48.1723 49.4993 47.666 49.4993H45.8327V47.3531C47.9689 46.598 49.4993 44.5608 49.4993 42.166V34.8327H38.4993ZM37.5827 42.166V35.7493H35.7493C35.2431 35.7493 34.8327 36.1598 34.8327 36.666V38.8922C34.8327 40.6196 35.9759 42.103 37.6084 42.7442C37.5914 42.5537 37.5827 42.3609 37.5827 42.166ZM53.166 36.666C53.166 36.1598 52.7556 35.7493 52.2493 35.7493H50.416V42.166C50.416 42.3609 50.4073 42.5537 50.3903 42.7442C52.0228 42.103 53.166 40.6196 53.166 38.8922V36.666Z" fill="#83BF6E"/>
</svg>
