<svg width="274" height="65" viewBox="0 0 274 65" fill="none" xmlns="http://www.w3.org/2000/svg">
<rect width="274" height="64.0519" rx="10.6753" fill="white"/>
<path d="M64.6463 17.8235H63.3896V24.0002H63.3116L59.0322 17.8235H57.8576V26.2344H59.1267V20.0659H59.2047L63.4799 26.2344H64.6463V17.8235ZM69.056 26.3617C70.8343 26.3617 71.9966 25.0598 71.9966 23.109C71.9966 21.146 70.8343 19.8441 69.056 19.8441C67.2778 19.8441 66.1155 21.146 66.1155 23.109C66.1155 25.0598 67.2778 26.3617 69.056 26.3617ZM69.0601 25.3309C67.8979 25.3309 67.3558 24.3165 67.3558 23.1049C67.3558 21.8975 67.8979 20.8708 69.0601 20.8708C70.2142 20.8708 70.7563 21.8975 70.7563 23.1049C70.7563 24.3165 70.2142 25.3309 69.0601 25.3309ZM76.3118 19.9262H75.0182V18.4149H73.7902V19.9262H72.8662V20.9119H73.7902V24.6368C73.7861 25.7826 74.6609 26.337 75.6301 26.3165C76.0203 26.3124 76.2831 26.2385 76.4268 26.1851L76.2051 25.1707C76.1229 25.1871 75.971 25.2241 75.7738 25.2241C75.3755 25.2241 75.0182 25.0927 75.0182 24.3822V20.9119H76.3118V19.9262ZM77.6702 26.2344H78.8981V19.9262H77.6702V26.2344ZM78.2903 18.9529C78.7133 18.9529 79.0665 18.6244 79.0665 18.2219C79.0665 17.8194 78.7133 17.4867 78.2903 17.4867C77.8632 17.4867 77.5141 17.8194 77.5141 18.2219C77.5141 18.6244 77.8632 18.9529 78.2903 18.9529ZM83.5522 19.9262H82.1929V19.3595C82.1929 18.8009 82.4229 18.497 83.0225 18.497C83.2771 18.497 83.4578 18.5545 83.5728 18.5915L83.8603 17.5976C83.6878 17.5319 83.3305 17.4293 82.8335 17.4293C81.8356 17.4293 80.9608 18.0124 80.9608 19.1952V19.9262H79.9875V20.9119H80.9608V26.2344H82.1929V20.9119H83.5522V19.9262ZM84.8192 26.2344H86.0472V19.9262H84.8192V26.2344ZM85.4394 18.9529C85.8624 18.9529 86.2156 18.6244 86.2156 18.2219C86.2156 17.8194 85.8624 17.4867 85.4394 17.4867C85.0122 17.4867 84.6632 17.8194 84.6632 18.2219C84.6632 18.6244 85.0122 18.9529 85.4394 18.9529ZM90.3563 26.3617C91.8471 26.3617 92.8122 25.4664 92.9477 24.2384H91.7526C91.5966 24.9202 91.0668 25.3227 90.3645 25.3227C89.3255 25.3227 88.6561 24.4561 88.6561 23.0803C88.6561 21.7291 89.3378 20.879 90.3645 20.879C91.1448 20.879 91.6212 21.3718 91.7526 21.9632H92.9477C92.8163 20.6901 91.7773 19.8441 90.344 19.8441C88.5657 19.8441 87.4158 21.1829 87.4158 23.109C87.4158 25.0105 88.5246 26.3617 90.3563 26.3617ZM96.6223 26.3576C97.7723 26.3576 98.224 25.6553 98.4458 25.2528H98.5485V26.2344H99.7477V19.9262H98.5197V20.9488H98.4458C98.224 20.5587 97.8051 19.8441 96.6306 19.8441C95.1069 19.8441 93.9857 21.0474 93.9857 23.0926C93.9857 25.1337 95.0905 26.3576 96.6223 26.3576ZM96.8934 25.3103C95.7969 25.3103 95.226 24.3452 95.226 23.0803C95.226 21.8277 95.7845 20.8872 96.8934 20.8872C97.9653 20.8872 98.5403 21.762 98.5403 23.0803C98.5403 24.4068 97.953 25.3103 96.8934 25.3103ZM104.445 19.9262H103.151V18.4149H101.923V19.9262H100.999V20.9119H101.923V24.6368C101.919 25.7826 102.794 26.337 103.763 26.3165C104.153 26.3124 104.416 26.2385 104.56 26.1851L104.338 25.1707C104.256 25.1871 104.104 25.2241 103.907 25.2241C103.509 25.2241 103.151 25.0927 103.151 24.3822V20.9119H104.445V19.9262ZM105.803 26.2344H107.031V19.9262H105.803V26.2344ZM106.423 18.9529C106.846 18.9529 107.2 18.6244 107.2 18.2219C107.2 17.8194 106.846 17.4867 106.423 17.4867C105.996 17.4867 105.647 17.8194 105.647 18.2219C105.647 18.6244 105.996 18.9529 106.423 18.9529ZM111.34 26.3617C113.119 26.3617 114.281 25.0598 114.281 23.109C114.281 21.146 113.119 19.8441 111.34 19.8441C109.562 19.8441 108.4 21.146 108.4 23.109C108.4 25.0598 109.562 26.3617 111.34 26.3617ZM111.344 25.3309C110.182 25.3309 109.64 24.3165 109.64 23.1049C109.64 21.8975 110.182 20.8708 111.344 20.8708C112.498 20.8708 113.041 21.8975 113.041 23.1049C113.041 24.3165 112.498 25.3309 111.344 25.3309ZM116.879 22.4889C116.879 21.4827 117.495 20.9078 118.35 20.9078C119.183 20.9078 119.689 21.454 119.689 22.3698V26.2344H120.917V22.222C120.917 20.6614 120.058 19.8441 118.769 19.8441C117.82 19.8441 117.2 20.2835 116.908 20.9529H116.83V19.9262H115.652V26.2344H116.879V22.4889Z" fill="#6A7185"/>
<path d="M203.022 26.123H208.132V25.1184H204.637V25.0616L206.18 23.4466C207.601 22.0099 208.007 21.3237 208.007 20.4556C208.007 19.2083 206.991 18.253 205.528 18.253C204.076 18.253 203.014 19.1932 203.014 20.611H204.133C204.129 19.777 204.667 19.2311 205.505 19.2311C206.293 19.2311 206.892 19.7163 206.892 20.4897C206.892 21.1759 206.483 21.6687 205.649 22.552L203.022 25.2739V26.123ZM212.409 26.123H213.543V22.533C213.543 21.7483 214.092 21.2024 214.737 21.2024C215.366 21.2024 215.802 21.6194 215.802 22.2525V26.123H216.932V22.4117C216.932 21.7104 217.36 21.2024 218.099 21.2024C218.698 21.2024 219.191 21.536 219.191 22.3245V26.123H220.325V22.2184C220.325 20.8877 219.582 20.2243 218.528 20.2243C217.69 20.2243 217.061 20.6262 216.78 21.2479H216.719C216.465 20.611 215.931 20.2243 215.154 20.2243C214.384 20.2243 213.812 20.6072 213.569 21.2479H213.497V20.3001H212.409V26.123ZM221.844 26.123H222.977V20.3001H221.844V26.123ZM222.416 19.4017C222.807 19.4017 223.133 19.0984 223.133 18.7269C223.133 18.3554 222.807 18.0483 222.416 18.0483C222.022 18.0483 221.7 18.3554 221.7 18.7269C221.7 19.0984 222.022 19.4017 222.416 19.4017ZM225.636 22.6657C225.636 21.7369 226.204 21.2062 226.993 21.2062C227.763 21.2062 228.229 21.7104 228.229 22.5558V26.123H229.362V22.4193C229.362 20.9787 228.57 20.2243 227.38 20.2243C226.504 20.2243 225.932 20.63 225.662 21.2479H225.59V20.3001H224.502V26.123H225.636V22.6657ZM235.887 26.2368C236.949 26.2368 237.366 25.5885 237.571 25.217H237.665V26.123H238.772V20.3001H237.639V21.2441H237.571C237.366 20.8839 236.979 20.2243 235.895 20.2243C234.489 20.2243 233.454 21.3351 233.454 23.223C233.454 25.1071 234.473 26.2368 235.887 26.2368ZM236.138 25.2701C235.126 25.2701 234.599 24.3792 234.599 23.2116C234.599 22.0554 235.114 21.1872 236.138 21.1872C237.127 21.1872 237.658 21.9947 237.658 23.2116C237.658 24.4361 237.116 25.2701 236.138 25.2701ZM242.832 28.4279C244.314 28.4279 245.459 27.7494 245.459 26.2519V20.3001H244.348V21.2441H244.265C244.064 20.8839 243.662 20.2243 242.578 20.2243C241.171 20.2243 240.136 21.3351 240.136 23.1888C240.136 25.0464 241.194 26.0359 242.57 26.0359C243.639 26.0359 244.052 25.4331 244.257 25.0616H244.329V26.2064C244.329 27.1201 243.703 27.5143 242.843 27.5143C241.899 27.5143 241.531 27.0405 241.33 26.7069L240.356 27.1087C240.663 27.8214 241.44 28.4279 242.832 28.4279ZM242.82 25.0957C241.808 25.0957 241.281 24.3186 241.281 23.1737C241.281 22.0554 241.797 21.1872 242.82 21.1872C243.81 21.1872 244.34 21.9947 244.34 23.1737C244.34 24.3754 243.798 25.0957 242.82 25.0957ZM249.432 26.2406C251.073 26.2406 252.146 25.0388 252.146 23.2381C252.146 21.4261 251.073 20.2243 249.432 20.2243C247.79 20.2243 246.717 21.4261 246.717 23.2381C246.717 25.0388 247.79 26.2406 249.432 26.2406ZM249.435 25.289C248.363 25.289 247.862 24.3527 247.862 23.2343C247.862 22.1198 248.363 21.1721 249.435 21.1721C250.501 21.1721 251.001 22.1198 251.001 23.2343C251.001 24.3527 250.501 25.289 249.435 25.289Z" fill="#969DB3"/>
<path d="M65.2705 36.0789H63.6385V42.2531H63.5589L59.2954 36.0789H57.827V45.1367H59.4678V38.9669H59.543L63.811 45.1367H65.2705V36.0789ZM69.9952 45.2694C71.5785 45.2694 72.6665 44.4954 72.9496 43.3145L71.4547 43.1465C71.238 43.7214 70.7072 44.0222 70.0173 44.0222C68.9823 44.0222 68.2968 43.3411 68.2836 42.1779H73.0159V41.687C73.0159 39.3031 71.5829 38.2549 69.9111 38.2549C67.9651 38.2549 66.6958 39.6834 66.6958 41.7798C66.6958 43.9116 67.9474 45.2694 69.9952 45.2694ZM68.288 41.0987C68.3366 40.2319 68.9779 39.5021 69.9332 39.5021C70.8532 39.5021 71.4724 40.1744 71.4812 41.0987H68.288ZM75.7359 45.1367H77.4077L78.6815 40.5459H78.7744L80.0481 45.1367H81.7155L83.6394 38.3433H82.003L80.8266 43.0934H80.7602L79.5395 38.3433H77.9252L76.7045 43.1199H76.6426L75.4485 38.3433H73.8164L75.7359 45.1367ZM89.5582 36.0789H87.9174V45.1367H89.5582V36.0789ZM96.6336 40.139C96.4124 38.9891 95.4925 38.2549 93.9003 38.2549C92.2639 38.2549 91.1493 39.0598 91.1537 40.3159C91.1493 41.3066 91.7597 41.9612 93.0644 42.231L94.2231 42.4742C94.8468 42.6113 95.1387 42.8634 95.1387 43.2482C95.1387 43.7126 94.6345 44.062 93.8737 44.062C93.1396 44.062 92.6619 43.7435 92.5248 43.1332L90.9636 43.2836C91.1626 44.5308 92.2108 45.2694 93.8782 45.2694C95.5765 45.2694 96.7751 44.3893 96.7795 43.1022C96.7751 42.1337 96.1515 41.541 94.8689 41.2624L93.7101 41.0147C93.0202 40.8599 92.7459 40.6211 92.7504 40.2274C92.7459 39.7675 93.2546 39.449 93.9224 39.449C94.661 39.449 95.0502 39.8515 95.174 40.2982L96.6336 40.139ZM103.469 40.139C103.248 38.9891 102.328 38.2549 100.736 38.2549C99.0993 38.2549 97.9847 39.0598 97.9891 40.3159C97.9847 41.3066 98.5951 41.9612 99.8998 42.231L101.059 42.4742C101.682 42.6113 101.974 42.8634 101.974 43.2482C101.974 43.7126 101.47 44.062 100.709 44.062C99.975 44.062 99.4973 43.7435 99.3602 43.1332L97.799 43.2836C97.998 44.5308 99.0462 45.2694 100.714 45.2694C102.412 45.2694 103.611 44.3893 103.615 43.1022C103.611 42.1337 102.987 41.541 101.704 41.2624L100.546 41.0147C99.8556 40.8599 99.5813 40.6211 99.5858 40.2274C99.5813 39.7675 100.09 39.449 100.758 39.449C101.496 39.449 101.886 39.8515 102.009 40.2982L103.469 40.139ZM109.265 42.2796C109.265 43.3145 108.526 43.8276 107.819 43.8276C107.049 43.8276 106.536 43.2836 106.536 42.4211V38.3433H104.935V42.6688C104.935 44.3008 105.864 45.2252 107.2 45.2252C108.217 45.2252 108.933 44.69 109.243 43.9293H109.314V45.1367H110.866V38.3433H109.265V42.2796ZM115.52 45.2694C117.103 45.2694 118.191 44.4954 118.474 43.3145L116.979 43.1465C116.763 43.7214 116.232 44.0222 115.542 44.0222C114.507 44.0222 113.822 43.3411 113.808 42.1779H118.541V41.687C118.541 39.3031 117.108 38.2549 115.436 38.2549C113.49 38.2549 112.221 39.6834 112.221 41.7798C112.221 43.9116 113.472 45.2694 115.52 45.2694ZM113.813 41.0987C113.861 40.2319 114.503 39.5021 115.458 39.5021C116.378 39.5021 116.997 40.1744 117.006 41.0987H113.813ZM126.291 45.2782C127.794 45.2782 128.785 44.3583 128.962 43.1553H127.918C127.723 43.8983 127.104 44.3406 126.291 44.3406C125.052 44.3406 124.256 43.3145 124.256 41.74C124.256 40.2009 125.07 39.1925 126.291 39.1925C127.21 39.1925 127.759 39.7586 127.918 40.3778H128.962C128.785 39.104 127.706 38.2549 126.273 38.2549C124.433 38.2549 123.212 39.7055 123.212 41.7754C123.212 43.8099 124.38 45.2782 126.291 45.2782ZM130.488 45.1367H131.532V40.8378C131.532 39.9223 132.257 39.2456 133.248 39.2456C133.508 39.2456 133.703 39.2942 133.849 39.3694L134.203 38.4849C133.991 38.3345 133.712 38.2372 133.336 38.2372C132.513 38.2372 131.81 38.6972 131.567 39.3694H131.496V38.3433H130.488V45.1367ZM137.909 45.2782C139.289 45.2782 140.297 44.5883 140.616 43.5622L139.607 43.2792C139.342 43.9868 138.727 44.3406 137.909 44.3406C136.684 44.3406 135.839 43.5489 135.791 42.0938H140.722V41.6516C140.722 39.1217 139.218 38.2549 137.803 38.2549C135.963 38.2549 134.742 39.7055 134.742 41.7931C134.742 43.8806 135.945 45.2782 137.909 45.2782ZM135.791 41.1916C135.861 40.1346 136.609 39.1925 137.803 39.1925C138.935 39.1925 139.661 40.0417 139.661 41.1916H135.791ZM144.875 45.2782C146.184 45.2782 146.626 44.4645 146.856 44.0929H146.98V45.1367H147.989V38.3433H146.945V39.4225H146.856C146.626 39.0687 146.22 38.2549 144.893 38.2549C143.177 38.2549 141.991 39.6171 141.991 41.7577C141.991 43.916 143.177 45.2782 144.875 45.2782ZM145.017 44.3406C143.707 44.3406 143.035 43.1907 143.035 41.74C143.035 40.307 143.69 39.1925 145.017 39.1925C146.29 39.1925 146.963 40.2186 146.963 41.74C146.963 43.2792 146.273 44.3406 145.017 44.3406ZM153 38.3433H151.549V36.7157H150.505V38.3433H149.479V39.2279H150.505V43.4738C150.505 44.6591 151.461 45.2252 152.345 45.2252C152.734 45.2252 152.982 45.1544 153.124 45.1013L152.911 44.1637C152.823 44.1814 152.681 44.2168 152.451 44.2168C151.991 44.2168 151.549 44.0753 151.549 43.1907V39.2279H153V38.3433ZM157.345 45.2782C158.725 45.2782 159.733 44.5883 160.052 43.5622L159.043 43.2792C158.778 43.9868 158.163 44.3406 157.345 44.3406C156.12 44.3406 155.275 43.5489 155.227 42.0938H160.158V41.6516C160.158 39.1217 158.654 38.2549 157.239 38.2549C155.399 38.2549 154.178 39.7055 154.178 41.7931C154.178 43.8806 155.381 45.2782 157.345 45.2782ZM155.227 41.1916C155.297 40.1346 156.045 39.1925 157.239 39.1925C158.371 39.1925 159.096 40.0417 159.096 41.1916H155.227ZM164.311 45.2782C165.62 45.2782 166.062 44.4645 166.292 44.0929H166.416V45.1367H167.425V36.0789H166.381V39.4225H166.292C166.062 39.0687 165.655 38.2549 164.329 38.2549C162.613 38.2549 161.427 39.6171 161.427 41.7577C161.427 43.916 162.613 45.2782 164.311 45.2782ZM164.452 44.3406C163.143 44.3406 162.471 43.1907 162.471 41.74C162.471 40.307 163.126 39.1925 164.452 39.1925C165.726 39.1925 166.398 40.2186 166.398 41.74C166.398 43.2792 165.709 44.3406 164.452 44.3406ZM173.126 45.1367H174.134V44.0929H174.258C174.488 44.4645 174.93 45.2782 176.239 45.2782C177.938 45.2782 179.123 43.916 179.123 41.7577C179.123 39.6171 177.938 38.2549 176.221 38.2549C174.895 38.2549 174.488 39.0687 174.258 39.4225H174.169V36.0789H173.126V45.1367ZM174.152 41.74C174.152 40.2186 174.824 39.1925 176.098 39.1925C177.424 39.1925 178.079 40.307 178.079 41.74C178.079 43.1907 177.407 44.3406 176.098 44.3406C174.842 44.3406 174.152 43.2792 174.152 41.74ZM181.148 47.6842C182.091 47.6842 182.754 47.1845 183.148 46.1274L186.04 38.361L184.899 38.3433L183.024 43.7568H182.953L181.078 38.3433H179.945L182.458 45.1721L182.263 45.7028C181.883 46.7378 181.414 46.8351 180.653 46.6405L180.388 47.5604C180.494 47.6135 180.795 47.6842 181.148 47.6842ZM190.862 45.1367H192.503V41.2889H196.7V45.1367H198.345V36.0789H196.7V39.9134H192.503V36.0789H190.862V45.1367ZM202.58 45.2561C203.748 45.2561 204.274 44.5618 204.526 44.0664H204.623V45.1367H206.198V38.3433H204.592V39.4667H204.526C204.283 38.9758 203.783 38.2549 202.585 38.2549C201.014 38.2549 199.781 39.4844 199.781 41.7489C199.781 43.9868 200.979 45.2561 202.58 45.2561ZM203.027 43.9426C201.97 43.9426 201.413 43.0138 201.413 41.74C201.413 40.4751 201.961 39.5684 203.027 39.5684C204.057 39.5684 204.623 40.422 204.623 41.74C204.623 43.058 204.048 43.9426 203.027 43.9426ZM209.505 41.1562C209.505 40.1744 210.098 39.6082 210.943 39.6082C211.77 39.6082 212.265 40.1522 212.265 41.0589V45.1367H213.866V40.8112C213.87 39.1837 212.942 38.2549 211.54 38.2549C210.522 38.2549 209.824 38.7414 209.514 39.4977H209.434V38.3433H207.904V45.1367H209.505V41.1562ZM217.095 41.1562C217.095 40.1744 217.687 39.6082 218.532 39.6082C219.359 39.6082 219.854 40.1522 219.854 41.0589V45.1367H221.455V40.8112C221.46 39.1837 220.531 38.2549 219.129 38.2549C218.112 38.2549 217.413 38.7414 217.103 39.4977H217.024V38.3433H215.494V45.1367H217.095V41.1562ZM225.604 45.2561C226.772 45.2561 227.298 44.5618 227.55 44.0664H227.647V45.1367H229.222V38.3433H227.616V39.4667H227.55C227.307 38.9758 226.807 38.2549 225.608 38.2549C224.038 38.2549 222.804 39.4844 222.804 41.7489C222.804 43.9868 224.003 45.2561 225.604 45.2561ZM226.051 43.9426C224.994 43.9426 224.436 43.0138 224.436 41.74C224.436 40.4751 224.985 39.5684 226.051 39.5684C227.081 39.5684 227.647 40.422 227.647 41.74C227.647 43.058 227.072 43.9426 226.051 43.9426ZM232.529 41.1562C232.529 40.1744 233.139 39.6082 233.997 39.6082C234.838 39.6082 235.333 40.1434 235.333 41.0589V45.1367H236.934V40.8112C236.934 39.1704 236.005 38.2549 234.594 38.2549C233.551 38.2549 232.887 38.7281 232.573 39.4977H232.494V36.0789H230.928V45.1367H232.529V41.1562ZM241.726 45.1367H245.393C247.467 45.1367 248.484 44.0797 248.484 42.6688C248.484 41.2977 247.511 40.4928 246.547 40.4441V40.3557C247.432 40.1478 248.13 39.5286 248.13 38.4274C248.13 37.0784 247.157 36.0789 245.194 36.0789H241.726V45.1367ZM243.367 43.7657V41.112H245.176C246.189 41.112 246.817 41.7312 246.817 42.5405C246.817 43.2615 246.321 43.7657 245.132 43.7657H243.367ZM243.367 39.9311V37.4322H245.026C245.99 37.4322 246.489 37.9409 246.489 38.6397C246.489 39.4358 245.844 39.9311 244.99 39.9311H243.367ZM250.827 45.234C251.349 45.234 251.796 44.8006 251.8 44.261C251.796 43.7303 251.349 43.2968 250.827 43.2968C250.288 43.2968 249.85 43.7303 249.854 44.261C249.85 44.8006 250.288 45.234 250.827 45.234Z" fill="#35353D"/>
<path d="M46.452 33.1474H42.0352V29.7975C42.0352 29.5973 42.0289 29.4011 42.0164 29.2088C44.0716 27.2711 44.2578 24.717 44.2592 22.0502C44.2592 21.4518 43.7977 20.9382 43.1993 20.9097C43.0493 20.9027 42.8993 20.9261 42.7586 20.9786C42.6178 21.0311 42.4891 21.1116 42.3803 21.2152C42.2715 21.3188 42.1849 21.4434 42.1256 21.5814C42.0662 21.7194 42.0355 21.868 42.0352 22.0183C42.0352 23.9643 41.9059 25.3647 41.3471 26.4552C40.0113 23.5952 36.7754 22.0134 32.0271 22.0134C29.2609 22.0134 26.8708 22.6479 25.1166 23.8475C24.081 24.5557 23.2957 25.4398 22.7744 26.4691C22.1579 25.3995 22.0189 24.0338 22.0189 22.0502C22.0189 21.4518 21.5602 20.9382 20.9625 20.9076C20.812 20.9001 20.6615 20.9232 20.5202 20.9757C20.3789 21.0281 20.2497 21.1087 20.1405 21.2125C20.0313 21.3164 19.9444 21.4414 19.885 21.5799C19.8256 21.7184 19.7949 21.8676 19.7949 22.0183C19.7949 24.6336 19.9763 27.1426 22.0495 29.0816C22.0296 29.3161 22.0194 29.5547 22.0189 29.7975V33.1474H17.6022C17.0038 33.1474 16.4902 33.6075 16.4603 34.2059C16.453 34.3564 16.4764 34.5068 16.5291 34.6479C16.5817 34.7891 16.6624 34.9181 16.7664 35.0271C16.8704 35.1361 16.9955 35.2228 17.134 35.282C17.2725 35.3412 17.4216 35.3716 17.5723 35.3715H22.0203V36.4744C22.0193 37.7531 22.2645 39.02 22.7425 40.2059C20.9584 41.801 19.8074 43.5635 19.7949 46.4367C19.7949 47.0441 20.255 47.5695 20.8625 47.5939C21.0121 47.5999 21.1615 47.5756 21.3015 47.5224C21.4416 47.4692 21.5694 47.3884 21.6774 47.2846C21.7854 47.1808 21.8714 47.0562 21.9301 46.9184C21.9887 46.7806 22.019 46.6323 22.0189 46.4826C22.0189 44.5602 22.6514 43.3752 23.8378 42.2208C25.2059 44.1681 27.2216 45.5658 29.525 46.1642C29.6893 46.2067 29.8612 46.2109 30.0274 46.1767C30.1936 46.1424 30.3498 46.0706 30.484 45.9667C30.6181 45.8628 30.7267 45.7295 30.8014 45.5772C30.8762 45.4248 30.915 45.2574 30.9151 45.0877V27.6096C30.9151 27.0112 31.3751 26.4976 31.9735 26.4677C32.1239 26.4605 32.2742 26.4838 32.4152 26.5364C32.5563 26.5889 32.6852 26.6695 32.7942 26.7734C32.9032 26.8772 32.9899 27.0021 33.0492 27.1405C33.1085 27.2788 33.1391 27.4278 33.1391 27.5783V45.0877C33.1391 45.2574 33.178 45.4248 33.2527 45.5772C33.3274 45.7295 33.436 45.8628 33.5702 45.9667C33.7043 46.0706 33.8605 46.1424 34.0267 46.1767C34.1929 46.2109 34.3648 46.2067 34.5291 46.1642C36.8322 45.5655 38.8476 44.1679 40.2157 42.2208C41.3972 43.3703 42.0289 44.5504 42.0345 46.4568C42.032 46.7444 42.1391 47.022 42.334 47.2334C42.529 47.4448 42.7972 47.5739 43.0839 47.5946C43.2352 47.6032 43.3866 47.5808 43.5289 47.5288C43.6712 47.4768 43.8014 47.3962 43.9115 47.2921C44.0215 47.188 44.1091 47.0624 44.1689 46.9232C44.2287 46.784 44.2595 46.6341 44.2592 46.4826C44.2592 43.5858 43.1055 41.81 41.3131 40.2059C41.791 39.02 42.0362 37.7531 42.0352 36.4744V35.3715H46.4832C46.6339 35.3716 46.783 35.3412 46.9215 35.282C47.06 35.2228 47.1851 35.1361 47.2891 35.0271C47.3931 34.9181 47.4738 34.7891 47.5265 34.6479C47.5791 34.5068 47.6025 34.3564 47.5952 34.2059C47.5661 33.6075 47.0504 33.1474 46.452 33.1474Z" fill="#E79CAD"/>
<path d="M36.5717 21.463L36.594 21.4693C37.5371 21.7334 38.3363 20.7361 37.8589 19.8812C37.2818 18.8444 36.4384 17.9806 35.4157 17.379C34.393 16.7773 33.2282 16.4597 32.0417 16.459H32.0125C30.814 16.4598 29.6379 16.7839 28.6081 17.397C27.5783 18.0102 26.733 18.8898 26.1612 19.9431C25.6858 20.8174 26.5184 21.8196 27.4706 21.5318C28.8405 21.1148 30.375 20.9022 32.0271 20.9022C33.7013 20.9022 35.2304 21.0912 36.5717 21.463Z" fill="#D34B6A"/>
</svg>
