<svg width="96" height="96" viewBox="0 0 96 96" fill="none" xmlns="http://www.w3.org/2000/svg">
<rect width="96" height="96" rx="10" fill="#FEF6ED"/>
<g clip-path="url(#clip0_4022_45637)">
<path d="M24.6364 67.9997H33.1212V47.3936L21 38.3027V64.3633C21 66.3755 22.6303 67.9997 24.6364 67.9997Z" fill="#4285F4"/>
<path d="M62.2109 67.9997H70.6958C72.7079 67.9997 74.3321 66.3694 74.3321 64.3633V38.3027L62.2109 47.3936" fill="#34A853"/>
<path d="M62.2109 31.6369V47.3945L74.3321 38.3036V33.4551C74.3321 28.9581 69.1988 26.3945 65.6049 29.0915" fill="#FBBC04"/>
<path d="M33.1211 47.3943V31.6367L47.6665 42.5458L62.212 31.6367V47.3943L47.6665 58.3034" fill="#EA4335"/>
<path d="M21 33.4551V38.3036L33.1212 47.3945V31.6369L29.7273 29.0915C26.1273 26.3945 21 28.9581 21 33.4551Z" fill="#C5221F"/>
</g>
<defs>
<clipPath id="clip0_4022_45637">
<rect width="53.3333" height="40" fill="white" transform="translate(21 28)"/>
</clipPath>
</defs>
</svg>
