<svg width="108" height="108" viewBox="0 0 108 108" fill="none" xmlns="http://www.w3.org/2000/svg">
<g opacity="0.3" clip-path="url(#clip0_2700_117314)">
<path d="M43.2558 14.6471C44.5166 13.8003 44.8521 12.0917 44.0053 10.831C43.1585 9.57017 41.45 9.23456 40.1892 10.0814L34.2092 14.0978C30.8172 16.3761 28.3342 19.7745 27.1946 23.6984L24.4148 33.2698C23.9912 34.7283 24.8301 36.2541 26.2887 36.6777C27.7472 37.1013 29.2729 36.2623 29.6965 34.8038L32.4763 25.2324C33.2561 22.5475 34.955 20.2224 37.2758 18.6636L43.2558 14.6471Z" fill="#BBDCAF"/>
<path fill-rule="evenodd" clip-rule="evenodd" d="M37.5581 33.1933C40.1576 25.4598 48.3218 21.0803 56.2025 23.1919L58.1767 23.7209L58.8884 21.0646C59.4125 19.1086 61.4231 17.9477 63.3791 18.4719C65.3352 18.996 66.496 21.0066 65.9719 22.9626L65.2601 25.6189L67.2343 26.1479C75.115 28.2595 79.9956 36.1344 78.3801 44.1315L75.8095 56.8559C74.8292 61.7072 75.1992 66.7343 76.8788 71.39C78.3959 75.5967 74.8872 79.9049 70.4607 79.2703L58.0057 77.4849L56.9858 81.2911C55.5446 86.67 50.0155 89.8625 44.6363 88.4211C39.2571 86.9798 36.065 81.4504 37.5062 76.0716L38.5261 72.2653L26.847 67.5841C22.6961 65.9203 21.8115 60.4349 25.229 57.5505C29.0113 54.3583 31.8452 50.1897 33.4221 45.4982L37.5581 33.1933ZM42.8189 77.4951C42.1638 79.94 43.6146 82.4534 46.0598 83.1085C48.5047 83.7636 51.0181 82.3125 51.6732 79.8676L52.385 77.2113L43.5307 74.8388L42.8189 77.4951Z" fill="#BBDCAF"/>
<path d="M83.9784 21.5414C82.6146 22.2098 82.0509 23.8573 82.7195 25.2211L85.89 31.6894C87.1203 34.1997 87.4293 37.0629 86.7622 39.7779L84.3836 49.4568C84.0214 50.9318 84.9232 52.4212 86.398 52.7836C87.8728 53.146 89.3626 52.2442 89.7248 50.7693L92.103 41.0902C93.0782 37.1222 92.6271 32.9376 90.8285 29.2686L87.658 22.8003C86.9894 21.4365 85.3422 20.8729 83.9784 21.5414Z" fill="#BBDCAF"/>
</g>
<defs>
<clipPath id="clip0_2700_117314">
<rect width="88" height="88" fill="white" transform="translate(22.7773) rotate(15)"/>
</clipPath>
</defs>
</svg>
