<svg width="741" height="637" viewBox="0 0 741 637" fill="none" xmlns="http://www.w3.org/2000/svg">
<path d="M422.431 270.442H352.806C352.182 270.442 351.672 269.932 351.672 269.308V188.963C351.672 188.339 352.182 187.828 352.806 187.828H422.431C423.055 187.828 423.565 188.339 423.565 188.963V269.308C423.565 269.932 423.066 270.442 422.431 270.442ZM353.941 268.173H421.296V190.097H353.941V268.173Z" fill="#FEF6ED"/>
<path d="M207.159 304.578C190.528 293.948 174.826 301.674 164.185 318.305L0 562.075L97.737 636.271C97.737 636.271 77.8833 607.784 82.7503 581.35C87.2996 556.607 97.7938 542.21 97.7938 542.21L218.005 353.94C228.647 337.32 223.791 315.22 207.159 304.578Z" fill="#6E9EF9"/>
<path d="M207.159 304.578C190.528 293.948 174.826 301.674 164.185 318.305L0 562.075L97.737 636.271C97.737 636.271 77.8833 607.784 82.7503 581.35C87.2996 556.607 97.7938 542.21 97.7938 542.21L218.005 353.94C228.647 337.32 223.791 315.22 207.159 304.578Z" fill="#2448B1"/>
<path d="M355.821 138.42C352.962 136.639 349.206 137.513 347.425 140.371L331.247 166.34L332.143 99.6429C332.189 96.2735 329.5 93.5166 326.131 93.4713C322.761 93.4259 320.004 96.1147 319.959 99.4841L319.596 126.315C318.598 124.364 316.612 123.002 314.264 122.968C311.178 122.923 308.637 125.192 308.183 128.153C307.729 125.271 305.278 123.048 302.261 123.002C299.356 122.968 296.906 124.965 296.259 127.676C295.624 125.033 293.276 123.036 290.428 123.002C287.059 122.957 284.302 125.646 284.256 129.015L283.893 156.266H210.366C202.459 156.266 195.051 160.1 190.467 166.544L124.87 259.006C117.076 269.999 119.663 285.224 130.656 293.018C134.945 296.059 139.869 297.522 144.747 297.522C152.382 297.522 159.904 293.949 164.657 287.244L222.959 205.061H308.001C317.542 205.061 325.779 199.57 329.784 191.594C329.943 191.367 330.079 191.129 330.203 190.891C330.385 190.675 330.578 190.448 330.737 190.199L357.76 146.827C359.553 143.956 358.679 140.201 355.821 138.42Z" fill="#BDC8E8"/>
<path d="M739.863 72.5849H330.627C330.003 72.5849 329.492 72.0744 329.492 71.4504V53.4118C329.492 52.7879 330.003 52.2773 330.627 52.2773H739.863C740.487 52.2773 740.998 52.7879 740.998 53.4118V71.4504C740.998 72.0744 740.487 72.5849 739.863 72.5849ZM331.75 70.3159H738.717V54.5463H331.75V70.3159Z" fill="#FEF6ED"/>
<path d="M739.867 108.502H554.127C553.503 108.502 552.992 107.992 552.992 107.368V89.8513C552.992 89.2273 553.503 88.7168 554.127 88.7168H739.867C740.491 88.7168 741.001 89.2273 741.001 89.8513V107.368C741.001 107.992 740.491 108.502 739.867 108.502ZM555.261 106.233H738.732V90.9858H555.261V106.233Z" fill="#FEF6ED"/>
<path d="M739.867 342.946H554.127C553.503 342.946 552.992 342.436 552.992 341.812V125.769C552.992 125.145 553.503 124.635 554.127 124.635H739.867C740.491 124.635 741.001 125.145 741.001 125.769V341.812C741.001 342.436 740.491 342.946 739.867 342.946ZM555.261 340.677H738.732V126.904H555.261V340.677Z" fill="#FEF6ED"/>
<path d="M506.461 138.352C518.453 138.352 528.175 128.631 528.175 116.638C528.175 104.646 518.453 94.9238 506.461 94.9238C494.468 94.9238 484.746 104.646 484.746 116.638C484.746 128.631 494.468 138.352 506.461 138.352Z" fill="#FAA284"/>
<path d="M507.031 209.542C519.023 209.542 528.745 199.82 528.745 187.828C528.745 175.835 519.023 166.113 507.031 166.113C495.038 166.113 485.316 175.835 485.316 187.828C485.316 199.82 495.038 209.542 507.031 209.542Z" fill="#FAA284"/>
<path d="M507.031 286.087C519.023 286.087 528.745 276.365 528.745 264.373C528.745 252.38 519.023 242.658 507.031 242.658C495.038 242.658 485.316 252.38 485.316 264.373C485.316 276.365 495.038 286.087 507.031 286.087Z" fill="#FAA284"/>
<path d="M346.187 138.5C354.783 138.5 361.752 131.531 361.752 122.934C361.752 114.338 354.783 107.369 346.187 107.369C337.59 107.369 330.621 114.338 330.621 122.934C330.621 131.531 337.59 138.5 346.187 138.5Z" fill="#FAA284"/>
<path d="M208.952 138.5C217.549 138.5 224.517 131.531 224.517 122.934C224.517 114.338 217.549 107.369 208.952 107.369C200.356 107.369 193.387 114.338 193.387 122.934C193.387 131.531 200.356 138.5 208.952 138.5Z" fill="#2961CC"/>
<path d="M256.46 245.528C253.975 270.827 231.456 289.319 206.156 286.835C180.857 284.35 162.365 261.83 164.849 236.531L94.045 229.588C87.7258 293.993 134.819 351.32 199.213 357.639C263.607 363.958 320.945 316.865 327.264 252.471L256.46 245.528Z" fill="#E0704A"/>
<g opacity="0.4">
<path d="M199.698 345.296C139.728 339.408 94.7909 289.297 93.9741 230.439C88.1654 294.493 135.111 351.343 199.222 357.628C263.627 363.947 320.953 316.854 327.272 252.46L325.9 252.324C314.033 310.365 259.963 351.218 199.698 345.296Z" fill="#AF4D2C"/>
</g>
<path d="M445.134 238.608C444.453 238.007 443.671 237.61 442.854 237.372C443.478 235.171 442.854 232.72 441.027 231.109C438.497 228.897 434.64 229.147 432.428 231.677L399.811 267.255C400.412 266.313 400.775 265.19 400.775 263.987C400.775 260.618 398.041 257.895 394.683 257.895H342.961C342.95 257.895 342.938 257.895 342.927 257.895C342.882 257.895 342.825 257.895 342.78 257.895C329.994 257.895 319.409 267.289 317.548 279.553C315.54 267.459 305.035 258.224 292.374 258.224C278.272 258.224 266.848 269.648 266.848 283.75V374.238H266.893C267.744 401.511 290.105 423.362 317.582 423.362C345.037 423.362 367.376 401.557 368.272 374.317C368.283 374.317 368.306 374.317 368.317 374.317V284.057H409.409C410.316 284.057 411.19 283.886 411.984 283.58C413.323 283.353 414.605 282.718 415.569 281.606L445.701 247.197C447.914 244.678 447.664 240.832 445.134 238.608Z" fill="#BDC8E8"/>
<path d="M640.449 27.0238C632.996 27.0238 626.938 20.9655 626.938 13.5119C626.938 6.05822 632.996 0 640.449 0C647.903 0 653.961 6.05822 653.961 13.5119C653.973 20.9655 647.903 27.0238 640.449 27.0238ZM640.449 2.269C634.244 2.269 629.206 7.31752 629.206 13.5119C629.206 19.7062 634.255 24.7548 640.449 24.7548C646.644 24.7548 651.692 19.7062 651.692 13.5119C651.692 7.31752 646.655 2.269 640.449 2.269Z" fill="#FEF6ED"/>
<path d="M681.25 27.0238C673.796 27.0238 667.738 20.9655 667.738 13.5119C667.738 6.05822 673.796 0 681.25 0C688.704 0 694.762 6.05822 694.762 13.5119C694.762 20.9655 688.704 27.0238 681.25 27.0238ZM681.25 2.269C675.056 2.269 670.007 7.31752 670.007 13.5119C670.007 19.7062 675.056 24.7548 681.25 24.7548C687.456 24.7548 692.493 19.7062 692.493 13.5119C692.493 7.31752 687.444 2.269 681.25 2.269Z" fill="#FEF6ED"/>
<path d="M722.434 27.0238C714.98 27.0238 708.922 20.9655 708.922 13.5119C708.922 6.05822 714.98 0 722.434 0C729.887 0 735.946 6.05822 735.946 13.5119C735.946 20.9655 729.876 27.0238 722.434 27.0238ZM722.434 2.269C716.228 2.269 711.191 7.31752 711.191 13.5119C711.191 19.7062 716.239 24.7548 722.434 24.7548C728.628 24.7548 733.677 19.7062 733.677 13.5119C733.677 7.31752 728.628 2.269 722.434 2.269Z" fill="#FEF6ED"/>
<path d="M591.799 144.684H568.258V168.224H591.799V144.684Z" fill="#FAA284"/>
<path d="M712.771 157.593H606.775C606.151 157.593 605.641 157.083 605.641 156.459C605.641 155.835 606.151 155.324 606.775 155.324H712.771C713.395 155.324 713.906 155.835 713.906 156.459C713.906 157.083 713.395 157.593 712.771 157.593Z" fill="#FEF6ED"/>
<path d="M712.769 188.962H580.033C579.409 188.962 578.898 188.452 578.898 187.828C578.898 187.204 579.409 186.693 580.033 186.693H712.769C713.393 186.693 713.904 187.204 713.904 187.828C713.904 188.452 713.393 188.962 712.769 188.962Z" fill="#FEF6ED"/>
<path d="M712.771 220.32H606.775C606.151 220.32 605.641 219.809 605.641 219.185C605.641 218.561 606.151 218.051 606.775 218.051H712.771C713.395 218.051 713.906 218.561 713.906 219.185C713.906 219.809 713.395 220.32 712.771 220.32Z" fill="#FEF6ED"/>
<path d="M712.764 251.689H655.142C654.518 251.689 654.008 251.178 654.008 250.554C654.008 249.93 654.518 249.42 655.142 249.42H712.764C713.388 249.42 713.898 249.93 713.898 250.554C713.898 251.178 713.388 251.689 712.764 251.689Z" fill="#FEF6ED"/>
<path d="M641.084 251.689H589.974C589.35 251.689 588.84 251.178 588.84 250.554C588.84 249.93 589.35 249.42 589.974 249.42H641.084C641.708 249.42 642.218 249.93 642.218 250.554C642.218 251.178 641.708 251.689 641.084 251.689Z" fill="#FEF6ED"/>
<path d="M506.463 127.539C505.522 127.539 504.762 126.779 504.762 125.838V107.436C504.762 106.494 505.522 105.734 506.463 105.734C507.405 105.734 508.165 106.494 508.165 107.436V125.838C508.165 126.779 507.394 127.539 506.463 127.539Z" fill="white"/>
<path d="M515.65 118.339H497.249C496.307 118.339 495.547 117.579 495.547 116.637C495.547 115.696 496.307 114.936 497.249 114.936H515.65C516.592 114.936 517.352 115.696 517.352 116.637C517.352 117.579 516.592 118.339 515.65 118.339Z" fill="white"/>
<path d="M515.65 189.528H497.249C496.307 189.528 495.547 188.768 495.547 187.827C495.547 186.885 496.307 186.125 497.249 186.125H515.65C516.592 186.125 517.352 186.885 517.352 187.827C517.352 188.768 516.592 189.528 515.65 189.528Z" fill="white"/>
<path d="M515.65 266.073H497.249C496.307 266.073 495.547 265.313 495.547 264.372C495.547 263.43 496.307 262.67 497.249 262.67H515.65C516.592 262.67 517.352 263.43 517.352 264.372C517.352 265.313 516.592 266.073 515.65 266.073Z" fill="white"/>
<path d="M346.178 131.273C345.237 131.273 344.477 130.513 344.477 129.571V116.297C344.477 115.356 345.237 114.596 346.178 114.596C347.12 114.596 347.88 115.356 347.88 116.297V129.571C347.88 130.513 347.12 131.273 346.178 131.273Z" fill="white"/>
<path d="M352.823 124.636H339.549C338.608 124.636 337.848 123.876 337.848 122.934C337.848 121.993 338.608 121.232 339.549 121.232H352.823C353.765 121.232 354.525 121.993 354.525 122.934C354.525 123.876 353.765 124.636 352.823 124.636Z" fill="white"/>
<path d="M333.489 437.112L213.731 329.743C199.039 316.572 176.44 317.797 163.268 332.5C150.097 347.192 151.322 369.791 166.025 382.962L200.525 413.889L161.238 408.92L111.819 401.262L72.5312 514.428C72.5312 514.428 92.2148 484.874 118.864 481.346C135.519 479.145 149.768 479.803 157.153 480.45L305.149 499.181C306.658 499.373 308.155 499.464 309.653 499.464C323.494 499.464 336.28 491.409 342.145 478.567C348.646 464.351 345.14 447.549 333.489 437.112Z" fill="#2961CC"/>
<path d="M200.52 413.9L230.493 417.519L177.637 393.377L200.52 413.9Z" fill="#2448B1"/>
<g style="mix-blend-mode:darken">
<path d="M284.065 144.445L299.12 156.267H283.906L284.065 144.445Z" fill="#92A4D8"/>
</g>
<g style="mix-blend-mode:darken">
<path d="M292.372 257.895C292.179 257.895 291.986 257.906 291.793 257.906L317.557 362.892V279.212C315.538 267.118 305.033 257.895 292.372 257.895Z" fill="#92A4D8"/>
</g>
<path d="M210.367 241.048C235.523 241.048 255.917 220.654 255.917 195.497C255.917 170.341 235.523 149.947 210.367 149.947C185.21 149.947 164.816 170.341 164.816 195.497C164.816 220.654 185.21 241.048 210.367 241.048Z" fill="#FAA284"/>
<path d="M237.854 162.915C237.843 162.847 237.831 162.768 237.797 162.711C237.695 162.892 237.321 163.29 237.854 162.915Z" fill="#FADD6F"/>
<path d="M194.316 234.898C194.305 234.91 194.305 234.91 194.305 234.922C194.316 234.922 194.316 234.922 194.328 234.922C194.316 234.91 194.316 234.898 194.316 234.898Z" fill="#FADD6F"/>
<path d="M237.826 162.676C237.929 162.631 237.883 162.619 237.77 162.642C237.781 162.665 237.792 162.688 237.804 162.71C237.804 162.699 237.826 162.688 237.826 162.676Z" fill="#FADD6F"/>
<path d="M234.686 166.466C234.596 166.341 234.55 166.103 234.868 165.32C235.594 164.957 235.98 164.787 236.399 164.435C236.831 163.822 237.284 163.221 237.772 162.643C237.749 162.643 237.738 162.654 237.715 162.654C237.443 162.813 237.16 162.949 236.91 163.074C236.876 162.915 237.432 162.722 237.715 162.654C238.044 162.461 238.373 162.268 238.714 162.041C239.145 161.599 239.565 161.27 239.826 160.782C239.848 160.759 239.871 160.748 239.894 160.737C239.655 160.544 239.417 160.339 239.179 160.147C238.918 160.328 238.691 160.544 238.51 160.782C238.328 161.122 238.181 161.451 237.999 161.712C238.124 161.361 238.294 161.054 238.51 160.782C238.646 160.521 238.793 160.249 238.963 159.988C231.181 153.793 221.333 150.072 210.612 150.072C196.794 150.072 184.428 156.233 176.078 165.944C177.201 166.545 178.211 167.203 179.198 167.782C179.64 168.678 178.517 168.224 179.289 169.132C179.084 168.202 179.799 168.701 180.491 169.381C181.183 170.051 181.773 170.902 181.785 170.255C181.694 171.049 182.17 171.979 182.454 172.774C182.726 173.568 182.817 174.192 182.023 174.282C182.272 174.986 182.567 175.122 182.772 175.043C183.237 174.09 183.577 173.511 184.054 173.057C184.564 172.569 185.234 172.15 186.504 171.594C186.516 171.696 186.334 171.991 186.765 171.866C187.128 171.197 187.514 170.448 189.34 169.813L189.329 170.005C190.237 169.608 191.167 169.257 192.131 168.984C192.347 169.824 193.459 169.245 194.797 168.837C196.125 168.383 197.702 168.19 198.099 169.143C198.666 168.61 200.89 168.689 201.979 168.769C202.001 168.667 202.172 168.599 202.546 168.621C202.58 168.757 202.353 168.78 201.979 168.769C201.967 168.837 202.013 168.939 202.149 169.064C202.864 168.78 203.749 169.166 204.509 169.767C205.292 170.368 205.87 171.174 206.403 171.582C207.197 172.025 207.141 171.56 207.039 171.06C207.492 171.957 208.423 172.717 209.251 173.443C209.353 173.534 209.455 173.624 209.557 173.715C209.625 173.556 209.705 173.375 209.795 173.171C209.546 174.237 210.022 174.078 210.93 173.715C211.032 173.114 211.225 172.581 211.395 171.991L212.076 172.32C212.348 171.684 213.017 171.401 213.619 171.083C213.675 170.085 215.888 168.973 216.115 168.474C217.09 169.018 217.816 167.589 218.576 168.247C218.747 168.043 219.008 167.884 219.303 167.714C218.871 167.396 218.622 166.988 219.303 167.022C219.359 166.999 219.393 166.988 219.45 166.965L219.087 166.545C218.86 166.091 219.949 166.443 220.823 166.749C221.118 166.783 221.39 166.852 221.651 166.897C221.742 166.886 221.821 166.874 221.878 166.863C221.844 166.886 221.798 166.897 221.742 166.908C222.15 166.965 222.558 166.988 223.103 166.772C224.249 167.09 225.463 166.806 226.779 166.681C228.072 166.534 229.479 166.568 230.545 167.453C230.216 167.226 229.706 167.056 229.524 167.226C230.738 167.464 231.782 168.043 232.724 168.542L232.735 168.428L233.087 168.723C233.62 168.996 234.108 169.223 234.562 169.313L234.698 168.814C234.902 168.882 235.083 168.95 235.265 169.018C235.276 168.644 235.231 168.383 234.947 168.463C235.537 167.997 235.685 168.406 236.32 167.124C236.536 166.137 235.061 167.589 234.664 167.827C235.049 166.727 234.925 166.636 234.777 166.488L234.652 166.523L234.686 166.466ZM233.994 167.43C233.994 166.999 233.972 166.534 234.006 166.103L234.278 166.602L233.994 167.43Z" fill="#FADD6F"/>
<path d="M237.758 162.631V162.642H237.769L237.758 162.631Z" fill="#FADD6F"/>
<path d="M193.812 236.193C193.722 236.238 193.688 236.25 193.824 236.159C193.824 236.17 193.824 236.182 193.812 236.193C193.96 236.125 194.278 235.989 194.448 236.102C194.47 235.853 194.459 235.569 194.414 235.274C194.38 235.161 194.346 235.036 194.312 234.934C194.3 234.945 194.3 234.956 194.289 234.979C194.244 235.229 194.187 235.456 194.119 235.66C193.983 235.614 194.175 235.195 194.289 234.979C194.3 234.911 194.289 234.832 194.3 234.752C194.085 233.992 193.676 233.357 193.313 233.481C193.517 232.812 193.733 232.54 193.892 232.234C193.835 232.097 193.778 231.939 193.699 231.814C193.654 231.848 193.654 231.836 193.676 231.768C193.665 231.757 193.665 231.746 193.665 231.734C193.506 231.632 193.336 231.541 193.2 231.394C193.154 231.473 193.109 231.507 193.154 231.349C193.166 231.36 193.177 231.383 193.2 231.394C193.234 231.349 193.257 231.281 193.279 231.224C193.257 231.201 193.245 231.178 193.222 231.156C193.291 231.11 193.302 231.156 193.279 231.224C193.415 231.36 193.54 231.541 193.665 231.734C193.676 231.734 193.676 231.746 193.688 231.746C193.778 231.519 194.096 230.872 193.71 230.634C193.96 229.601 194.187 230.396 194.504 229.999C194.482 229.806 194.38 229.318 194.187 229.227C194.051 229.307 193.892 229.443 193.722 229.715C193.915 229.261 194.073 229.159 194.187 229.227C194.947 228.796 195.231 230.918 196.115 230.418C196.683 230.044 198.169 228.206 198.294 228.104C197.862 227.412 195.321 226.516 194.209 226.969C193.812 226.731 195.038 226.153 195.276 225.722C196.501 224.723 195.662 223.475 196.547 222.5C196.501 222.84 196.478 223.18 196.444 223.521C196.683 223.43 197.386 221.762 197.363 221.365C197.579 221.478 197.965 222.851 198.509 222.556C199.122 221.717 199.508 220.73 199.723 219.867C199.939 219.005 199.973 218.256 199.655 218.03C198.929 219.062 198.35 220.14 197.908 221.24C197.613 221.115 197.84 220.503 198.112 219.902C198.373 219.289 198.679 218.688 198.35 218.483C199.201 217.678 200.143 216.963 201.164 216.339C200.778 216.6 199.859 217.598 200.495 217.53C201.629 216.6 201.175 217.145 202.128 216.85C201.64 217.633 201.198 218.892 201.039 220.083C200.869 221.274 200.971 222.397 201.13 223.01C201.277 222.579 201.448 222.148 201.64 221.728L202.14 221.751C202.537 220.968 202.673 219.879 202.854 218.824C203.013 217.769 203.217 216.77 203.331 216.351C204.59 215.931 204.67 217.406 204.556 217.735C205.566 217.315 205.963 216.748 206.462 216.158C206.95 215.579 207.585 215.023 208.947 215.159C208.618 215.023 208.277 214.955 207.925 214.864C208.255 214.785 209.015 214.819 209.65 214.921C210.285 215.012 210.785 215.159 210.694 215C211.17 215.454 211.329 216.43 210.762 216.487C211.545 216.26 212.407 216.112 213.292 216.078C212.929 216.044 212.668 217.133 212.463 217.247C213.156 217.633 214.37 216.85 213.961 216.407C214.54 217.213 214.744 217.462 214.903 217.723C215.027 217.927 215.152 218.143 215.3 218.631C215.402 218.529 215.527 218.404 215.64 218.268C215.765 218.109 215.867 217.95 215.935 217.814C215.924 217.803 215.924 217.78 215.912 217.769C215.924 217.78 215.935 217.78 215.946 217.791C216.548 216.555 215.334 215.885 216.729 215.091C216.57 215.273 216.627 215.364 216.468 215.545L217.228 215.08C216.673 214.547 217.421 213.514 218.306 212.561C219.168 211.586 220.167 210.723 219.77 210.065C221.211 209.725 220.008 210.292 219.305 211.926C219.736 211.733 220.155 211.54 220.598 211.381C220.212 211.756 219.815 211.983 219.497 212.482C221.154 211.79 221.925 210.224 222.595 209.362C223.287 209.203 222.731 210.599 224.251 209.464C225.397 208.761 225.181 208.557 224.83 208.42C224.478 208.284 223.979 208.239 224.727 207.796C225.215 207.876 225.726 207.989 226.202 208.103C228.108 206.832 229.935 207.138 231.682 207.286C232.09 207.229 232.295 207.15 232.397 207.059L232.329 207.048L232.465 206.957C232.567 206.719 232.102 206.412 233.191 206.526L232.465 206.957C232.453 206.991 232.431 207.014 232.397 207.048C233.338 207.309 234.337 207.206 235.312 207.241C235.403 207.241 235.483 207.241 235.573 207.241C235.596 207.195 235.63 207.161 235.653 207.116C235.948 206.639 236.197 206.208 236.628 204.937L236.265 205.04C236.799 203.326 238.126 201.545 239.907 200.286C241.666 198.993 243.798 198.301 245.636 197.87C245.183 197.87 244.729 197.881 244.264 197.926C244.672 197.915 246.805 197.03 247.996 197.461C248.121 197.45 248.2 197.45 248.178 197.518C248.121 197.495 248.053 197.484 247.996 197.461C247.769 197.484 247.372 197.62 247.145 197.597C247.202 197.881 247.667 198.267 248.507 198.346L248.847 197.926L249.176 198.278C250.469 198.369 248.824 197.62 250.14 197.733C250.469 198.38 251.819 198.584 253.169 198.925C254.281 199.186 255.416 199.571 255.949 200.093C255.96 200.002 255.96 199.923 255.972 199.832C255.881 199.787 255.79 199.753 255.688 199.719C255.143 199.503 254.587 199.333 255.166 199.083C255.427 199.276 255.575 199.458 255.983 199.696C256.096 198.369 256.164 197.03 256.164 195.68C256.164 182.35 250.435 170.358 241.314 162.031C241.268 162.042 241.212 162.053 241.166 162.053C241.2 162.019 241.223 161.997 241.257 161.974C240.917 161.668 240.554 161.361 240.202 161.066C239.726 161.418 239.226 161.77 238.716 162.099C238.455 162.36 238.171 162.632 237.922 162.995C239.26 162.11 237.479 164.311 238.988 162.757C238.534 163.438 239.079 163.449 238.16 164.39C237.32 164.504 237.922 163.574 237.865 162.972C237.15 163.732 236.765 164.175 236.402 164.493L236.129 164.878L236.186 164.708C235.664 165.275 235.165 165.877 234.688 166.512L234.745 166.58C235.993 166.24 237.547 166.694 237.207 167.681C236.39 168.112 236.072 169.008 236.163 169.484C236.969 169.836 237.661 170.244 238.296 170.755L238.704 170.347C239.067 170.664 239.533 171.073 240.066 171.504C240.599 171.935 241.166 172.411 241.654 172.933C242.641 173.977 243.367 175.202 243.152 176.019C243.469 176.099 243.787 176.722 244.048 177.46C244.309 178.197 244.502 179.037 244.729 179.581L244.388 179.979C244.524 180.773 244.627 181.408 244.717 181.964C244.785 182.599 244.831 183.121 244.831 183.654C244.888 183.495 244.933 183.348 244.99 183.189C245.262 184.131 244.91 185.072 244.422 185.742C244.173 186.332 243.787 186.967 243.05 187.648C242.914 187.16 243.753 186.683 244.422 185.742C244.751 184.993 244.808 184.312 244.831 183.654C244.105 185.299 243.571 186.672 242.426 188.113C241.847 188.805 241.03 189.52 239.884 189.883C239.306 190.042 238.705 190.121 238.115 190.064C237.536 190.007 237.003 189.871 236.504 189.644L236.526 189.508C235.165 188.975 234.325 188.113 233.69 187.444C234.439 187.795 233.134 187.171 232.816 186.422C232.192 185.798 231.659 184.471 231.637 183.439C231.444 182.917 231.319 182.384 231.194 181.85C231.943 183.529 231.773 181.555 232.261 181.374L231.682 180.478C231.852 180.047 232.193 181.034 232.17 180.307C231.784 179.706 231.682 177.789 231.228 177.154C231.103 177.244 230.967 177.483 230.865 177.789C230.899 177.88 230.888 177.868 230.854 177.812L230.82 177.88C230.763 178.254 230.729 178.47 230.695 178.583C230.672 178.867 230.65 179.162 230.695 179.479C230.638 179.105 230.638 178.878 230.615 178.708C230.559 178.617 230.559 178.152 230.615 178.708C230.638 178.742 230.661 178.685 230.684 178.583C230.706 178.322 230.74 178.084 230.808 177.88C230.82 177.846 230.82 177.834 230.831 177.789C230.786 177.698 230.706 177.562 230.638 177.505C230.627 177.641 230.604 177.8 230.582 177.982C230.502 177.494 230.559 177.426 230.638 177.505C230.786 176.235 230.581 176.688 230.332 176.722C231.228 175.338 230.842 174.476 231.988 173.614C231.364 174.181 231.455 173.489 231.682 172.695C231.092 172.627 230.457 172.888 229.935 172.525C230.218 172.457 230.502 172.423 230.786 172.389C230.706 172.116 229.175 171.946 228.903 172.139C228.914 171.878 229.992 171.084 229.595 170.664C229.141 170.483 228.63 170.483 228.176 170.517C227.723 170.551 227.291 170.664 226.928 170.857C226.202 171.22 225.783 171.719 225.817 172.105L227.212 171.855C227.688 171.799 228.165 171.765 228.653 171.719C228.596 172.343 226.611 171.992 226.634 172.808C225.851 172.627 225.045 172.548 224.24 172.468C224.546 172.445 225.488 172.287 225.125 171.924C224.047 171.946 224.569 171.776 223.831 171.538C224.138 171.3 224.512 171.016 224.943 170.71C225.374 170.403 225.851 170.018 226.339 169.711C226.849 169.382 227.348 169.053 227.791 168.77C228.244 168.509 228.653 168.259 228.948 168.066C228.392 168.112 227.859 168.123 227.314 168.236L226.962 167.828C225.896 167.941 224.886 168.724 224.183 169.473C223.468 170.29 223.026 171.107 222.833 171.447C221.834 171.436 221.959 170.04 222.198 169.734C221.664 169.802 221.279 169.972 220.984 170.188C220.7 170.437 220.496 170.732 220.303 171.016C220.11 171.3 219.929 171.572 219.679 171.81C219.429 172.06 219.112 172.264 218.635 172.377L219.429 172.423C219.236 172.57 218.715 172.672 218.295 172.831C217.875 173.001 217.546 173.137 217.671 173.217C217.183 173.035 216.446 172.445 216.763 172.048C216.389 172.695 216.105 173.387 215.844 174.022C215.992 173.784 215.266 172.945 215.266 172.729C214.596 173.103 214.971 174.476 215.425 174.351C213.859 174.499 214.415 174.658 212.94 174.714C212.679 175.043 213.768 175.52 214.052 175.429C213.564 176.201 213.19 176.53 212.793 176.745C212.781 176.757 212.793 176.779 212.781 176.791L212.736 176.768C212.327 177.017 212.066 177.301 212.191 178.129C212.055 177.857 211.93 177.562 211.806 177.278C211.84 177.426 211.885 177.607 211.919 177.846C211.737 177.63 211.454 177.199 211.454 177.415C211.738 178.322 210.478 180.512 211.114 181.147L211.216 180.512C212.225 181.873 210.966 184.414 212.135 184.369L212.634 184.097C212.498 186.899 213.144 185.197 212.917 188.011L212.827 187.988C213.076 189.168 212.418 189.849 213.326 190.382L213.417 189.962C213.553 191.448 213.485 191.596 213.405 193.116C213.473 193.298 213.575 194.024 213.36 194.296C213.711 194.375 213.712 195.43 213.246 196.576C213.019 197.155 212.645 197.756 212.18 198.244C211.726 198.743 211.125 199.049 210.841 199.174C211.817 198.584 211.794 198.267 211.692 198.233C211.579 198.187 211.204 198.301 210.921 198.312C210.592 198.981 209.877 199.367 209.128 199.299L208.187 199.208L207.869 198.573C207.744 198.312 207.665 197.994 207.608 197.575C206.78 197.881 205.725 198.221 204.806 196.19C205.067 196.451 205.35 196.905 205.43 196.633C205.509 196.361 205.123 195.986 204.987 195.85C205.078 195.589 205.486 196.168 205.679 195.827C204.999 195.34 204.817 194.727 204.647 194.046C204.511 193.354 204.443 192.583 204.114 191.596C204.477 192.197 204.567 191.607 204.84 191.335C204.318 191.346 204.443 190.609 204.556 190.03C204.704 189.452 204.84 188.986 204.193 189.406C204.431 187.409 204.624 184.959 205.18 182.86C205.43 181.884 205.736 181 206.054 180.273C205.974 180.205 205.895 180.126 205.815 180.024L206.258 179.854C206.303 179.763 206.349 179.672 206.394 179.593C206.054 178.957 205.713 178.526 206.156 178.277C205.566 177.834 205.384 177.449 205.305 177.097C204.363 176.359 204.522 178.583 204.375 178.957C204.295 177.698 203.637 177.335 203.966 176.348C204.204 176.541 204.443 176.757 204.681 176.983C204.454 175.872 203.909 175.69 203.58 175.588C203.229 175.486 203.07 175.463 203.229 174.601C203.683 175.009 204.522 175.384 204.533 174.805C204.204 174.635 203.864 174.499 203.535 174.385C203.569 174.159 204.057 174.646 203.853 174.181C203.524 174.102 202.854 174.09 202.537 174.193L202.378 174.351C202.299 174.295 202.378 174.238 202.537 174.193L202.571 174.159C202.094 173.92 201.561 173.739 200.994 173.603C201.289 173.727 201.459 173.501 201.153 173.376C200.744 173.376 200.336 173.41 199.916 173.466C199.825 173.489 199.7 173.512 199.508 173.523L199.916 173.466C200.313 173.353 199.995 173.058 199.451 172.854C198.645 172.638 198.26 173.035 197.976 173.376C197.681 173.727 197.466 173.966 196.842 173.625C197.023 173.637 197.046 173.535 197.239 173.546C197.023 173.444 196.807 173.353 196.581 173.251C196.546 174.011 195.639 174.102 194.743 174.306C193.846 174.488 192.962 174.805 193.12 175.554C192.133 175.236 192.905 175.18 193.869 174.215C193.529 174.159 193.166 174.079 192.814 174.034C193.188 173.864 193.54 173.909 193.926 173.648C192.474 173.285 191.498 174.544 191.056 175.157C190.522 175.157 190.965 173.932 189.74 174.771C188.095 175.996 190.59 175.599 189.626 176.314C189.252 176.201 188.877 176.144 188.492 176.064C187.55 177.381 186.381 177.653 185.383 178.504C185.224 178.753 185.19 178.912 185.202 179.026L185.236 179.003L185.247 179.128C185.394 179.343 185.78 179.264 185.315 179.808C185.281 179.581 185.258 179.355 185.247 179.128C185.224 179.105 185.213 179.071 185.202 179.026C185.054 179.116 184.918 179.241 184.805 179.366C184.986 180.103 185.281 181.124 185.519 182.179C185.928 183.893 186.177 185.753 185.723 186.502C186.302 185.469 186.12 186.502 186.574 187.341L187.096 186.434C187.187 187.115 187.255 187.795 187.3 188.487C187.402 188.907 187.391 189.032 187.323 189.032C187.312 189.383 186.949 188.975 186.847 189.883C186.869 191.289 187.221 191.358 187.539 192.174L187.641 191.947C187.641 192.288 187.663 192.617 187.652 192.957C187.607 193.661 187.107 190.359 186.688 192.696C186.869 192.719 187.607 194.228 187.017 194.818C187.232 193.592 186.756 193.706 186.495 194.114C186.404 194.67 186.279 195.215 186.143 195.759C186.449 195.646 186.767 195.51 187.074 195.374C186.949 195.998 186.756 196.61 186.552 197.223L186.189 198.13C186.132 198.267 186.052 198.448 185.95 198.652C185.848 198.834 185.758 199.015 185.644 199.186C185.202 199.878 184.68 200.49 183.908 201.057C183.511 201.33 183.035 201.591 182.445 201.761C181.866 201.931 181.106 201.954 180.437 201.75C179.79 201.557 179.189 201.16 178.803 200.728C178.406 200.297 178.19 199.878 178.009 199.526C177.691 198.834 177.532 198.312 177.305 197.688C176.92 196.474 176.591 195.249 176.352 193.99C176.704 193.956 176.579 193.082 176.534 192.242C176.511 191.403 176.579 190.609 177.124 190.824L177.022 191.017C177.203 192.197 177.827 190.631 177.725 189.713C177.373 190.734 176.693 187.841 176.5 190.348C176.307 189.701 176.194 189.032 176.057 188.351C175.093 187.716 175.263 186.286 175.865 184.743C176.455 183.189 177.453 181.612 177.861 180.081C177.827 180.308 177.907 180.41 177.952 180.466C178.236 179.23 179.041 178.073 179.869 177.199C179.745 177.017 179.597 176.791 179.416 176.484C180.017 177.108 179.631 175.372 180.13 175.826C179.903 175.202 179.506 174.658 179.064 174.363L179.155 174.408C178.519 173.421 178.349 172.99 178.179 172.57C178.009 172.15 177.793 171.753 176.931 171.186L176.886 171.515C175.751 170.834 174.594 170.176 173.289 169.734C173.244 169.723 173.199 169.711 173.153 169.7C168.014 177.074 164.996 186.025 164.996 195.691C164.996 214.671 176.613 230.94 193.12 237.781C193.381 237.271 193.597 236.783 193.812 236.193ZM196.15 228.58L197.159 229.216L196.059 228.864L196.15 228.58ZM238.296 166.308C237.797 166.716 237.922 166.262 238.319 165.775L238.534 165.911C238.489 166.07 238.341 166.16 238.296 166.308ZM230.706 180.001C230.547 180.251 231.228 180.013 231.16 180.421C231.501 181.453 231.228 181.283 230.933 180.875C230.627 180.466 230.389 179.808 230.706 180.001ZM230.945 172.979C230.865 173.342 231.103 173.16 231.228 173.172C231.081 173.432 230.922 173.603 230.831 174.17L230.945 172.979ZM222.969 207.989C223.502 208.659 222.47 208.193 221.551 208.942C222.005 208.681 222.47 208.216 222.969 207.989ZM221.506 171.731C221.562 171.674 221.653 171.606 221.869 171.504C221.744 171.595 221.619 171.663 221.506 171.731C221.245 172.003 222.47 171.833 222.209 172.15C221.04 172.003 222.129 172.763 220.904 172.774C220.405 172.116 220.802 172.162 221.506 171.731ZM214.835 217.145L215.493 217.326L214.699 217.338L214.835 217.145ZM205.203 178.912C205.35 179.264 205.43 179.445 205.316 179.638L205.135 179.661L205.203 178.912ZM203.944 215.307C204.76 215.159 204.772 215.023 204.806 214.819C204.84 214.637 204.885 214.411 205.849 214.308C206.519 214.955 205.872 214.876 204.953 215.477C204.885 215.556 204.76 215.636 204.511 215.817C204.658 215.67 204.806 215.579 204.953 215.477C205.282 215.103 203.66 215.693 203.944 215.307ZM199.065 174L198.895 173.966L198.804 173.308L199.065 174ZM177.839 224.405L177.884 224.19C178.111 224.008 178.349 223.838 178.576 223.668C178.326 223.906 178.077 224.145 177.839 224.405ZM179.937 223.906L180.232 223.158L180.437 223.294C181.469 223.339 182.921 222.239 183.5 223.044C182.638 222.829 181.095 223.475 179.937 223.906ZM182.638 222.295L183.159 221.989C183.375 222.057 183.579 222.114 183.783 222.205C183.829 222.431 182.899 222.136 182.638 222.295ZM185.973 225.018C185.757 224.95 185.633 224.927 185.542 224.905C185.791 225.234 185.088 224.825 185.542 224.905C185.519 224.871 185.508 224.848 185.462 224.803C186.54 224.859 185.905 224.678 185.973 225.018ZM186.086 224.281C186.075 224.133 186.381 224.008 187.017 224.167C186.279 224.224 186.733 224.485 187.005 224.757C186.415 224.621 186.109 224.417 186.086 224.281ZM187.21 225.926C187.437 225.88 186.994 225.642 186.949 225.415L187.607 225.404C187.8 225.824 187.8 226.016 187.21 225.926ZM188.072 225.086C187.834 225.041 187.573 225.052 187.334 225.029C187.663 224.995 187.902 224.837 187.743 225.029C188.163 224.678 188.049 224.927 188.072 225.086C188.185 225.098 188.31 225.12 188.424 225.143C188.151 225.245 188.083 225.177 188.072 225.086ZM187.573 224.428C188.038 224.394 188.514 224.383 188.991 224.44L189.218 224.564C188.65 224.451 188.106 224.417 187.573 224.428ZM192.871 225.892C192.894 225.869 192.927 225.846 192.916 225.767C193.064 225.948 192.996 225.948 192.871 225.892C192.757 226.005 192.44 225.778 192.587 226.164C192.837 226.538 193.052 226.504 193.2 226.572C193.177 227.174 193.041 227.514 192.837 227.9C192.825 227.979 192.803 228.036 192.769 228.013C192.791 227.968 192.814 227.934 192.837 227.9C192.882 227.605 192.803 226.799 192.508 226.266L192.372 226.209C191.974 225.415 192.587 225.756 192.871 225.892ZM191.997 227.627C192.156 227.888 192.292 228.161 192.417 228.433L192.791 228.717L192.564 228.739L192.417 228.444C192.145 228.24 191.884 228.036 191.6 227.866C191.85 227.956 191.906 227.718 191.997 227.627ZM192.133 229.102C192.201 229.091 192.201 229.114 192.179 229.17C192.236 229.261 192.292 229.352 192.349 229.443L192.36 229.42C192.553 229.772 192.621 229.976 192.667 230.055C192.621 229.965 192.53 229.738 192.36 229.443C192.281 229.613 192.19 229.794 192.099 229.965C191.986 229.522 192.122 229.295 192.19 229.182C192.167 229.148 192.156 229.125 192.133 229.102ZM191.555 175.838C191.634 175.792 191.714 175.758 191.804 175.735C191.714 175.792 191.634 175.815 191.555 175.838C191.317 175.962 191.09 176.167 190.84 176.246C190.466 175.645 190.988 175.985 191.555 175.838ZM191.464 225.733C191.872 226.777 190.931 226.175 190.398 226.062C191.203 226.277 190.965 225.722 191.464 225.733ZM190.398 228.206C190.579 228.013 190.329 227.571 190.239 227.298C190.398 227.378 190.568 227.457 190.727 227.548C190.84 227.389 191.033 227.389 191.464 227.979C191.214 227.832 190.976 227.684 190.727 227.548C190.602 227.73 190.556 228.127 190.398 228.206ZM191.975 230.634L192.315 230.838L191.419 230.441L191.975 230.634ZM192.167 232.744C192.474 232.994 192.428 232.211 192.848 232.392C192.78 233.062 192.882 233.493 193.143 233.879C193.336 234.083 193.529 234.276 193.654 234.48C193.415 234.287 193.268 234.094 193.143 233.879C192.791 233.538 192.372 233.209 192.167 232.744Z" fill="#FADD6F"/>
<path d="M187.01 189.145L187.124 188.805C186.942 188.623 186.784 188.431 187.01 189.145Z" fill="#FADD6F"/>
<path d="M181.375 198.129C181.375 198.095 181.352 198.038 181.341 197.993C181.329 197.948 181.318 197.914 181.307 197.88C181.295 197.834 181.273 197.778 181.25 197.732C181.318 197.868 181.363 198.004 181.375 198.129Z" fill="#FADD6F"/>
<path d="M183.04 195.124C183.414 194.682 183.085 194.148 183.403 193.695C183.324 193.354 183.324 193.173 183.46 193.615C183.437 193.638 183.414 193.672 183.403 193.695C183.494 194.058 183.63 194.613 183.777 194.784C184.64 193.105 183.585 191.947 183.335 190.938C183.414 191.562 183.471 192.174 183.494 192.798C182.62 192.594 183.392 191.959 182.7 191.437C183.176 190.518 182.439 189.837 182.654 189.066C182.666 189.27 182.756 189.27 182.768 189.474C182.552 187.477 183.845 186.638 183.721 185.776C183.675 184.914 182.847 183.45 182.609 184.108C182.235 183.495 183.448 186.842 182.064 185.866C182.45 185.356 182.427 184.914 182.268 184.426C182.268 184.437 182.268 184.448 182.268 184.46C182.268 184.437 182.268 184.426 182.268 184.403C182.155 184.085 181.985 183.756 181.815 183.371C181.735 183.303 181.645 183.246 181.565 183.178C181.395 183.756 181.52 184.108 181.452 184.505C181.372 184.221 181.316 183.926 181.009 184.165C181.032 184.891 181.089 185.606 181.202 186.298C181.304 186.207 181.384 185.991 181.452 185.81C181.327 186.286 181.406 187.353 180.964 187.999C180.794 187.92 180.658 187.648 180.487 187.568C181.089 187.046 180.714 186.661 180.442 186.264C180.26 187.67 180.261 186.581 179.818 187.217C179.693 188.238 180.272 188.691 180.68 188.476C180.431 189.542 180.295 189.928 180.805 191.017L180.17 190.836L180.442 191.857L179.625 191.062C179.478 192.118 179.773 192.186 180.068 192.276C180.374 192.367 180.624 192.469 180.68 193.581L180.147 193.695C180.521 194.523 181.52 194.523 181.066 195.34C181.633 195.986 181.361 193.831 182.076 195.544C181.996 195.725 181.974 195.986 181.985 196.259L182.223 196.395C182.008 195.646 182.269 195.147 182.45 194.648C182.643 194.16 182.745 193.683 182.189 193.241C183.097 193.876 182.246 192.299 182.609 191.811C182.938 192.356 182.893 193.15 182.802 193.785C182.711 194.432 182.609 194.931 183.04 195.124Z" fill="#FADD6F"/>
<path d="M180.938 197.109C180.938 197.109 180.938 197.121 180.949 197.121C180.949 197.121 180.949 197.121 180.938 197.109Z" fill="#FADD6F"/>
<path d="M181.074 197.357C181.142 197.482 181.199 197.607 181.255 197.731C181.21 197.607 181.142 197.482 181.074 197.357Z" fill="#FADD6F"/>
<path d="M248.635 201.861C248.272 201.918 248.476 202.179 248.613 202.349C247.637 201.646 247.694 202.712 247.217 202.837C246.752 202.542 246.253 202.27 245.731 202.032C245.243 202.44 245.742 202.644 245.731 202.848C244.551 203.2 243.473 203.495 242.429 204.051C241.431 204.595 240.603 205.435 240.285 206.445C239.639 206.83 239.695 205.866 239.105 206.592C239.888 206.32 239.616 206.933 239.4 207.613C239.151 208.283 238.958 209.043 239.423 208.793C239.378 208.804 239.344 208.827 239.298 208.85C239.877 208.997 240.444 209.179 241.023 209.36C239.9 208.986 239.741 209.428 239.366 209.723C240.058 210.052 240.524 209.984 241 210.234C240.648 210.177 240.274 210.189 240.524 210.552C241.363 210.813 242.259 211.062 243.087 211.459C243.019 211.3 242.793 211.085 242.6 210.903C242.861 211.107 243.326 211.391 243.78 211.743C244.222 212.106 244.642 212.571 244.846 213.047C244.653 213.104 244.301 212.991 244.12 213.059C243.927 212.129 243.269 212.129 242.736 212.151C244.131 213.252 242.997 212.526 243.394 213.342C244.279 214.171 245.039 214.227 245.13 213.705C245.946 214.965 246.083 215.385 247.262 216.474C247.036 216.485 246.82 216.496 246.582 216.519C246.854 216.893 247.115 217.279 247.376 217.665C246.979 217.438 246.593 217.222 246.207 217.018C246.911 219.48 247.478 216.939 248.147 219.854L247.625 220.013C247.841 220.456 248.147 220.751 248.386 221.034C251.857 215.884 254.285 209.973 255.408 203.62C253.253 202.803 250.881 202.349 248.635 201.861Z" fill="#FADD6F"/>
<path d="M196.32 238.891C196.388 238.914 196.468 238.936 196.536 238.959C196.536 238.812 196.524 238.631 196.502 238.393C196.422 238.574 196.366 238.744 196.32 238.891Z" fill="#FADD6F"/>
<path d="M206.916 219.629C206.542 219.844 206.168 220.049 205.918 220.173C206.054 220.173 206.224 220.196 206.406 220.276C206.655 220.298 206.905 220.276 207.211 220.128C207.109 219.958 207.018 219.788 206.916 219.629Z" fill="#FADD6F"/>
<path d="M209.579 241.036C209.431 239.822 208.909 240.503 208.728 239.709C208.819 239.754 208.989 239.833 209.012 239.606C208.841 239.289 208.671 238.96 208.501 238.642C208.739 238.29 208.83 239.527 209.17 238.506C208.909 236.702 208.762 235.602 209.295 234.172C209.556 232.051 207.99 234.876 208.444 233.106C208.955 232.936 209.556 232.811 209.862 231.733C209.681 231.086 209.306 231.075 209.352 230.031L210.033 230.281C210.248 229.373 210.328 228.613 210.849 228.761C210.77 227.944 210.986 227.456 211.224 227.116C211.315 225.641 209.488 227.637 209.125 227.91C210.055 226.707 210.101 225.675 211.19 225.221L210.951 226.458C212.676 224.302 210.883 223.723 212.767 223.179C212.358 223.984 212.336 225.13 212.891 224.779L213.039 223.451C213.277 223.383 212.88 224.177 213.311 223.723C213.3 223.326 213.277 222.487 213.186 222.078L213.028 221.908C213.096 221.772 213.152 221.874 213.186 222.078L213.22 222.112C213.379 221.727 213.55 221.33 213.72 220.944C213.47 220.933 213.232 220.921 213.005 220.921L213.243 220.241C212.687 220.15 212.313 219.775 211.871 219.424C212.109 219.537 212.007 219.424 212.052 219.299C211.7 219.651 211.099 219.594 210.543 219.537C209.976 219.503 209.443 219.492 209.272 219.696C209.136 219.185 208.796 219.231 208.512 219.276C208.217 219.356 207.968 219.412 207.764 219.004C207.616 219.163 207.435 219.276 207.242 219.412C207.525 219.775 207.65 220.218 207.264 220.093C207.23 220.104 207.208 220.116 207.185 220.127L207.412 220.581C207.548 221.069 207.003 220.49 206.379 220.275C206.187 220.252 205.994 220.229 205.824 220.206C205.767 220.229 205.721 220.252 205.687 220.263C205.71 220.241 205.733 220.218 205.756 220.195C205.472 220.184 205.177 220.252 204.939 220.604C204.054 220.638 203.464 221.454 202.999 222.26C202.522 223.099 202.159 223.882 201.172 224.37C201.422 224.189 201.683 223.905 201.592 223.701C200.741 224.96 199.323 226.129 199.277 227.308L199.777 227.445C199.504 228.658 199.334 229.634 198.96 230.598L199.482 230.837C198.824 232.13 198.62 235.409 197.349 236.146C197.383 236.26 197.371 236.373 197.428 236.487C197.383 236.872 197.281 236.872 197.201 236.668C197.145 236.963 196.974 237.315 196.793 237.7C197.099 237.7 197.36 237.825 197.485 238.166C197.303 238.517 197.247 238.869 197.247 239.198C201.195 240.401 205.381 241.081 209.715 241.161C209.692 241.115 209.647 241.07 209.579 241.036ZM209.647 228.624C209.488 229.056 209.42 229.271 209.193 229.373L209.045 229.248L209.647 228.624Z" fill="#FADD6F"/>
<path d="M204.598 176.211C204.462 176.563 205.063 176.801 205.324 176.994C205.199 176.472 205.279 176.086 204.598 176.211Z" fill="#FADD6F"/>
<path d="M235.747 228.182C236.212 228.84 236.813 229.476 237.573 229.998C237.21 230.292 236.927 230.122 236.632 229.827C236.326 229.555 236.099 229.226 235.577 229.124C235.225 227.774 234.261 227.207 234.204 226.163C234.283 226.413 234.363 226.39 234.454 226.639C234 225.414 234.193 224.552 234.442 223.928C234.692 223.293 235.01 222.873 234.976 222.419C234.976 221.557 234.431 219.9 234.079 220.513C233.943 220.15 234.022 220.91 234.034 221.614C234.034 222.306 233.977 222.975 233.308 222.362C234.499 220.876 232.616 219.628 233.603 216.815C234.045 218.051 234.386 216.134 234.715 217.223C234.635 215.918 234.465 215.85 234.113 215.238L234.556 214.875C233.898 213.264 233.739 214.126 233.648 212.458C233.591 212.435 233.523 212.413 233.467 212.39C233.001 212.231 232.57 212.095 232.23 211.993C231.89 211.902 231.629 211.914 231.504 211.993L231.311 211.426C229.473 212.39 229.405 212.413 227.284 212.764C227.272 212.674 227.454 212.435 227.091 212.435C226.75 213.025 226.467 213.57 225.173 214.239L225.128 214.058C224.493 214.489 223.891 214.999 223.324 215.544C222.768 214.886 222.133 215.782 221.566 216.815C220.987 217.836 220.465 218.936 219.478 218.732C219.546 219.163 219.251 219.969 218.979 220.717C219.036 220.74 219.104 220.763 219.172 220.785C219.104 220.785 219.024 220.785 218.956 220.785C218.82 221.171 218.695 221.534 218.627 221.818C218.922 221.92 219.217 222.022 219.512 222.147C219.376 222.124 219.013 222.192 218.695 222.272C218.695 222.306 218.695 222.328 218.695 222.362C218.65 222.362 218.627 222.328 218.605 222.294C218.514 222.317 218.423 222.34 218.355 222.362C218.355 222.396 218.344 222.43 218.344 222.464C218.843 222.589 219.592 223.429 220.136 224.631C220.772 225.97 221.101 227.649 221.157 228.75L221.101 228.421C220.726 228.046 220.692 229.895 221.033 230.622C220.828 230.497 220.885 230.327 220.851 230.009C220.204 231.427 222.383 231.858 221.464 233.322C221.622 232.006 221.214 231.733 220.84 231.801C221.214 232.891 220.601 235.307 221.77 234.91C221.464 235.579 221.52 236.203 220.964 236.067C221.078 236.952 221.157 237.848 221.225 238.733C221.146 238.518 220.851 238.302 220.635 239.028C221.055 237.633 220.204 236.09 221.033 235.432C220.34 235.318 219.909 235.795 219.388 235.057C219.388 237.213 219.932 238.688 220.352 240.185C227.113 238.71 233.319 235.738 238.595 231.62C238.3 231.586 238.005 231.574 237.676 231.643C238.334 231.438 237.925 231.28 237.347 230.985C236.768 230.712 235.962 230.122 235.872 229.691C236.586 230.077 237.46 230.871 238.368 231.245C238.527 231.325 238.685 231.37 238.833 231.427C238.992 231.302 239.162 231.177 239.321 231.041C239.094 230.985 238.878 230.894 238.708 230.712C238.231 230.599 237.982 230.497 238.617 230.61C238.651 230.644 238.685 230.678 238.708 230.712C239.014 230.769 239.389 230.78 239.684 230.746C239.774 230.667 239.865 230.587 239.956 230.508C239.026 230.1 238.322 229.782 237.642 229.476C236.881 229.056 236.189 228.727 235.747 228.182Z" fill="#FADD6F"/>
<path d="M219.811 167.465C220.401 167.17 221.059 167.033 221.479 166.954C221.275 166.943 221.036 166.875 220.776 166.784C220.39 166.727 219.947 166.773 219.414 166.999L219.811 167.465Z" fill="#FADD6F"/>
<path d="M216.992 225.835C216.992 225.653 216.992 225.483 217.026 225.358C217.128 225.165 217.014 224.95 216.833 224.734C216.685 224.939 216.561 225.154 216.492 225.358C216.436 225.96 216.685 225.948 216.992 225.835Z" fill="#FADD6F"/>
<path d="M212.24 175.066C211.741 174.646 211.072 174.34 210.879 173.932C210.856 174.431 210.845 174.907 210.856 175.372C210.935 175.611 210.935 175.758 210.879 175.86C210.89 176.03 210.89 176.212 210.913 176.382C210.924 176.53 210.947 176.677 210.969 176.825C211.208 176.768 211.389 176.564 211.559 176.688C211.491 176.518 211.4 176.359 211.332 176.189C211.798 176.348 212.274 176.518 212.739 176.723C212.751 176.711 212.773 176.7 212.796 176.688C213.102 175.996 212.739 175.486 212.24 175.066Z" fill="#FADD6F"/>
<path d="M238.453 225.153C238.464 225.063 238.476 224.972 238.498 224.881C238.317 224.779 238.113 224.688 238.453 225.153Z" fill="#FADD6F"/>
<path d="M215.152 239.936C215.231 240.208 215.208 240.571 215.435 240.48C215.651 240.378 215.537 239.97 215.503 239.834C215.719 239.72 215.742 240.254 216.093 240.151C215.481 238.869 216.468 238.121 216.422 236.408C216.615 236.975 216.853 236.555 217.194 236.408C216.218 236.135 218.374 234.207 216.99 234.695C217.58 233.106 217.659 231.019 217.477 229.26C217.341 227.933 217.069 226.798 217.012 226.016C216.093 227.173 216.649 229.635 216.252 229.975C215.9 230.917 215.503 230.145 215.061 230.304C214.823 231.813 216.626 230.474 215.458 232.244C215.435 231.994 215.481 231.563 215.344 231.699C215.015 232.38 212.747 233.322 213.007 234.207L213.416 233.753C213.552 235.216 211.453 236.93 212.588 237.327L213.144 237.259C212.168 239.652 213.212 238.314 212.418 240.775L212.327 240.741C212.338 240.889 212.327 241.036 212.315 241.173C213.28 241.138 214.233 241.082 215.186 240.991C215.084 240.707 215.061 240.39 215.152 239.936Z" fill="#FADD6F"/>
<path d="M240.467 216.645C240.103 216.384 239.74 215.987 239.343 215.533C238.787 214.91 238.084 214.183 237.29 213.764C237.256 214.388 237.324 214.989 237.54 215.602C237.335 215.965 237.347 217.542 237.358 219.198C237.347 220.9 237.403 222.409 236.961 223.123C237.574 222.204 237.335 223.135 237.812 223.793L238.322 223.021C238.402 223.554 238.492 224.088 238.629 224.564C238.776 224.848 238.787 224.927 238.731 224.95C238.799 225.188 238.345 225.018 238.447 225.699C238.855 226.64 239.241 226.436 239.74 226.561L239.752 226.413C239.877 226.549 239.979 226.584 240.058 226.652C240.138 226.731 239.911 226.742 239.604 226.72C239.457 226.708 239.309 226.686 239.241 226.776C239.162 226.856 239.185 227.06 239.355 227.332C239.411 227.276 239.74 227.207 239.99 227.162C240.251 227.117 240.444 227.105 240.501 227.355C240.047 227.151 239.854 227.502 239.99 227.82C240.262 227.979 240.569 228.07 240.886 228.138C240.818 227.831 240.773 227.548 240.761 227.264C240.841 227.276 240.909 227.298 240.988 227.321C241.465 227.378 241.907 227.321 242.429 227.037C242.974 226.742 243.484 226.255 243.813 225.665C244.528 224.405 244.607 222.443 243.961 220.65C244.29 220.582 244.142 219.867 243.859 219.232C243.734 218.914 243.62 218.597 243.598 218.347C243.564 218.109 243.632 217.927 243.915 217.871V218.063C244.21 218.506 244.358 218.347 244.369 217.961C244.369 217.587 244.165 217.008 243.87 216.657C243.983 217.156 243.541 216.94 243.201 216.884C242.838 216.85 242.667 216.895 243.167 217.825C242.747 217.451 242.282 217.133 241.816 216.838C241.272 216.974 240.852 216.884 240.467 216.645Z" fill="#FADD6F"/>
<path d="M211.258 227.093C211.61 226.582 212.007 226.412 211.542 225.822C211.156 225.958 211.258 226.73 211.258 227.093Z" fill="#FADD6F"/>
<path d="M193.964 232.038C194.043 231.857 194.1 231.641 194.145 231.324C193.919 231.573 193.783 231.721 193.715 231.789C193.805 231.857 193.896 231.936 193.964 232.038Z" fill="#FADD6F"/>
<path d="M233.252 174.282C233.195 174.418 233.127 174.565 233.059 174.701C232.809 175.257 232.48 175.813 232.616 176.154C232.423 175.688 232.809 174.747 233.002 174.758L232.276 174.928C231.754 176.471 232.265 177.81 232.684 178.865C232.775 178.343 232.9 178.65 233.047 178.979C233.218 179.308 233.433 179.648 233.637 179.274C233.569 179.024 233.535 178.763 233.501 178.513C233.739 178.15 233.955 178.888 234.216 179.274C234.068 180.465 234.443 182.155 235.055 183.517C235.668 184.889 236.451 185.933 236.576 186.432C236.326 185.967 235.713 185.309 235.305 185.037C235.441 185.411 235.555 185.797 235.736 186.183C235.135 185.377 235.237 184.458 234.5 183.301C234.205 183.709 233.195 182.927 233.104 184.231C233.422 185.751 234.091 186.149 234.738 186.512C235.089 186.693 235.464 186.875 235.94 187.158C236.428 187.419 237.03 187.884 238.085 188.134C238.289 188.111 238.039 188.236 238.016 188.406C238.005 188.486 238.05 188.599 238.3 188.656C238.538 188.724 238.981 188.769 239.627 188.542C240.433 188.202 240.898 187.635 241.182 187.136C241.454 186.614 241.556 186.137 241.534 185.729C241.522 184.912 241.148 184.413 240.705 184.254C240.717 184.651 240.649 185.275 240.388 185.729C240.138 186.183 239.73 186.444 239.469 186.171C239.877 185.661 240.297 184.515 239.877 184.277C240.388 184.14 240.308 184.435 240.217 184.73C240.104 184.991 239.979 185.264 240.524 185.014C240.762 184.538 240.581 184.22 240.535 183.959C240.739 184.401 241.216 183.687 241.42 183.528C241.601 182.609 241.647 181.917 241.556 181.111C241.465 180.329 241.318 179.5 240.875 178.525C240.841 178.627 240.83 178.65 240.864 178.491C240.875 178.502 240.875 178.513 240.875 178.525C240.932 178.377 241.046 178.037 241.25 178.003C240.535 177.084 238.686 176.63 238.516 177.243C237.812 176.381 238.039 176.086 237.222 175.518C237.744 177.141 237.109 175.189 236.428 175.677C235.668 175.11 236.44 175.178 236.224 174.747C236.054 174.69 235.589 174.645 235.441 174.804C235.464 174.94 235.521 175.11 235.668 175.371C235.384 175.053 235.339 174.906 235.441 174.804C235.384 174.407 235.85 174.259 236.337 174.134C236.803 174.021 237.29 173.919 237.222 173.397C237.177 173.034 236.757 172.387 236.337 171.752C235.918 171.128 235.418 170.64 235.362 170.561C234.908 170.708 234.375 171.548 233.989 172.432L234.613 172.376C234.511 172.569 234.397 172.75 234.307 172.954C234.193 172.784 234.091 172.614 233.989 172.432C233.683 173.147 233.479 173.896 233.524 174.372C233.422 174.497 233.331 174.429 233.252 174.282ZM232.628 176.165C232.662 176.256 232.73 176.335 232.855 176.381C232.73 176.358 232.673 176.278 232.628 176.165ZM233.263 177.765C233.104 177.787 233.195 177.016 233.297 176.312C233.24 176.006 233.274 175.586 233.308 175.382C233.365 175.598 233.331 175.949 233.297 176.312C233.32 176.494 233.365 176.641 233.467 176.63C233.376 177.016 233.331 177.39 233.263 177.765ZM239.298 187.487C239.423 187.385 239.593 187.26 239.707 187.147C240.093 186.863 240.41 186.727 240.433 186.965C240.115 187.294 239.707 187.567 239.23 187.714C239.094 187.646 239.162 187.567 239.298 187.487ZM238.663 185.808C238.731 185.751 238.811 185.604 238.799 185.536C239.23 185.286 238.913 185.876 238.822 186.046C238.561 185.99 238.606 185.876 238.663 185.808ZM236.905 184.969C237.075 185.048 237.245 185.128 237.415 185.184L236.859 185.615C236.893 185.366 236.984 185.275 236.905 184.969ZM236.36 171.979L235.725 172.943L235.475 172.773L236.36 171.979ZM234.148 174.168L234.329 173.873L233.944 174.928L234.148 174.168Z" fill="#FADD6F"/>
<path d="M232.44 184.47C232.429 184.458 232.417 184.458 232.395 184.436C232.564 185.059 232.621 185.399 232.44 184.47Z" fill="#FADD6F"/>
<path d="M208.242 185.083C208.061 184.935 208.14 184.799 208.197 184.516C207.698 185.072 208.061 185.559 208.345 185.99C208.503 186.24 208.674 186.478 208.719 186.739C208.878 186.512 209.218 187.397 209.309 186.478C208.867 185.582 208.503 184.935 208.254 184.277C208.186 184.572 208.163 184.867 208.242 185.083Z" fill="#FADD6F"/>
<path d="M213.623 171.332C213.6 171.264 213.6 171.185 213.6 171.117C213.374 171.287 213.533 171.241 213.623 171.332Z" fill="#FADD6F"/>
<path d="M232.477 174.09C232.613 173.898 232.76 173.727 232.896 173.546C232.828 173.421 232.749 173.319 232.67 173.274C232.568 173.126 232.465 173.013 232.363 172.922C232.386 173.342 232.443 173.75 232.477 174.09Z" fill="#FADD6F"/>
<path d="M209.332 195.689C209.4 195.905 209.491 196.086 209.604 196.233C209.593 196.029 209.57 195.859 209.525 195.712C209.491 195.712 209.457 195.701 209.423 195.701C209.389 195.712 209.366 195.689 209.332 195.689Z" fill="#FADD6F"/>
<path d="M209.246 195.305C209.246 195.452 209.291 195.565 209.325 195.69C209.359 195.701 209.382 195.713 209.416 195.701C209.45 195.701 209.473 195.679 209.507 195.679C209.45 195.509 209.371 195.373 209.246 195.305Z" fill="#FADD6F"/>
<path d="M209.809 193.852C209.706 193.602 209.627 193.137 209.366 192.263C209.65 192.161 209.877 192.672 210.092 192.343C209.65 191.651 209.911 190.834 210.138 190.108C210.387 189.382 210.603 188.769 210.194 188.667C209.865 187.578 209.446 188.293 209.139 187.635C209.23 187.657 209.423 187.691 209.4 187.487L208.731 186.807C208.742 186.999 208.697 187.204 208.515 187.442C208.629 186.319 208.311 186.069 207.914 186.08C208.005 186.568 208.016 187.362 208.073 187.975C208.186 188.588 208.402 188.996 208.958 188.747C208.731 189.348 208.935 189.858 208.368 189.87L208.856 190.947C209.037 191.299 209.241 191.628 209.434 191.957C209.287 191.832 208.924 191.753 208.992 192.422C208.833 191.197 207.608 190.074 208.288 189.302C207.585 189.314 207.233 189.87 206.609 189.246C207.12 191.764 208.583 192.876 209.809 193.852Z" fill="#FADD6F"/>
<path d="M209.433 197.358C209.422 197.37 209.422 197.381 209.422 197.393C209.49 197.449 209.558 197.483 209.626 197.517C209.932 197.302 210.08 196.984 210.137 196.7L209.581 196.383C209.649 196.598 209.671 196.825 209.592 197.064L209.569 197.438L209.433 197.358Z" fill="#FADD6F"/>
<path d="M209.203 197.618C209.282 197.539 209.35 197.46 209.407 197.392L209.214 197.244L209.418 197.358C209.486 197.255 209.543 197.165 209.577 197.063L209.589 196.915C209.021 196.734 208.477 196.62 208.579 197.346C208.67 197.403 208.783 197.471 208.897 197.55L209.237 197.641L209.203 197.618Z" fill="#FADD6F"/>
<path d="M208.891 198.447L209.175 198.424C209.799 198.368 210.389 198.061 210.752 197.642C210.491 197.721 210.014 197.71 209.628 197.506C209.504 197.608 209.368 197.664 209.209 197.744H209.198L209.129 197.698L208.903 197.54C208.494 197.437 208.176 197.381 208.188 197.653L208.551 198.073L208.891 198.447Z" fill="#FADD6F"/>
</svg>
