<svg width="291" height="324" viewBox="0 0 291 324" fill="none" xmlns="http://www.w3.org/2000/svg">
<path d="M263.464 184.251L217.761 199.377L197.203 204.784L164.59 144.821C159.627 135.698 148.217 132.327 139.095 137.29C129.972 142.252 126.601 153.662 131.563 162.785L166.795 227.567C170.141 233.726 175.636 243.475 193.607 243.475C195.192 243.475 196.802 243.275 198.394 242.855L241.308 232.053C246.684 230.95 255.268 229.841 266.177 230.606C279.911 231.564 290.901 242.554 290.901 242.554L263.464 184.251Z" fill="#FADD6F"/>
<path d="M197.985 136.015C195.68 129.147 189.639 124.598 182.891 123.847C187.829 119.179 189.903 111.904 187.597 105.037C184.439 95.613 174.238 90.5378 164.814 93.6957L92.8961 117.819C83.4724 120.977 78.3971 131.177 81.5551 140.601C83.8609 147.468 89.9011 152.017 96.6493 152.769C91.7119 157.437 89.6379 164.712 91.9437 171.579C95.1017 181.003 105.302 186.078 114.726 182.92L186.644 158.797C196.068 155.639 201.15 145.438 197.985 136.015Z" fill="url(#paint0_linear_4084_45606)"/>
<path d="M146.18 66.5465L114.777 46.3359L94.5668 77.7384L125.969 97.9489L146.18 66.5465Z" fill="#FAA284"/>
<path d="M112.976 43.351C115.835 43.351 118.152 41.0339 118.152 38.1755C118.152 35.3172 115.835 33 112.976 33C110.118 33 107.801 35.3172 107.801 38.1755C107.801 41.0339 110.118 43.351 112.976 43.351Z" fill="#F2A84C"/>
<g opacity="0.28">
<path d="M174.422 162.902C174.422 162.902 170.6 205.115 169.548 232.183L150.569 197.727L149.629 170.935L159.585 167.877L174.422 162.902Z" fill="#E0704A"/>
</g>
<path opacity="0.54" d="M197.204 204.784L182.191 208.343L192.073 195.348L197.204 204.784Z" fill="#E0704A"/>
<path d="M177.599 160.759C176.496 157.733 188.269 153.447 187.167 150.421C186.064 147.394 174.29 151.686 173.188 148.66C172.085 145.634 183.858 141.348 182.762 138.322C181.659 135.295 169.886 139.587 168.783 136.561C167.68 133.534 179.453 129.249 178.357 126.222C177.254 123.196 165.481 127.488 164.378 124.462C163.275 121.435 175.049 117.15 173.952 114.123C172.849 111.097 161.076 115.389 159.973 112.363C158.87 109.336 170.644 105.05 169.547 102.024C168.445 98.9977 156.671 103.29 155.568 100.263C155.036 98.7972 157.517 97.0427 160.099 95.2695L104.985 113.754C102.309 116.423 95.555 119.499 96.4009 121.824C97.5037 124.85 109.277 120.558 110.38 123.584C111.483 126.611 99.7092 130.897 100.812 133.923C101.915 136.949 113.688 132.657 114.791 135.684C115.894 138.71 104.12 142.996 105.217 146.022C106.32 149.048 118.093 144.756 119.196 147.783C120.298 150.809 108.525 155.095 109.622 158.121C110.724 161.148 122.498 156.856 123.601 159.882C124.703 162.908 112.93 167.194 114.026 170.22C115.129 173.247 126.903 168.955 128.005 171.981C129.033 174.801 118.857 178.723 118.381 181.693L178.432 161.549C178.025 161.386 177.73 161.129 177.599 160.759Z" fill="#4A86F7"/>
<path d="M132.66 124.136C130.611 117.344 123.443 113.497 116.651 115.552L66.9632 130.546L27.514 111.285C26.9815 111.022 26.4363 110.821 25.8912 110.64L7.08143 100.364C5.48993 99.4928 3.49741 100.082 2.62647 101.673C1.75553 103.265 2.34453 105.257 3.93603 106.128L8.97995 108.885C8.14034 109.111 7.38845 109.656 6.94358 110.477C6.07264 112.068 6.66162 114.061 8.25312 114.932C6.66162 114.061 4.66912 114.65 3.79818 116.241C2.92724 117.833 3.51622 119.825 5.10772 120.696C3.51622 119.825 1.5237 120.414 0.65276 122.006C-0.21818 123.597 0.370799 125.59 1.9623 126.461L14.4813 133.303C15.0389 133.698 15.6279 134.067 16.267 134.374L17.9713 135.208L18.1969 135.327C18.2595 135.364 18.3285 135.377 18.3911 135.408L60.2464 155.841C62.0133 156.705 63.9431 157.144 65.8793 157.144C67.1261 157.144 68.3793 156.962 69.5886 156.599L124.101 140.151C130.868 138.096 134.715 130.928 132.66 124.136Z" fill="#F6BF7C"/>
<path d="M199.623 265.591L181.602 253.742L140.963 225.735L163.72 174.412C168.263 165.076 164.378 153.829 155.042 149.286C145.706 144.743 134.459 148.628 129.916 157.964L105.373 211.398C101.413 219.538 97.5598 236.8 109.784 247.333L158.927 283.737C158.927 283.737 161.508 285.648 168.35 294.702C175.193 303.756 168.35 323.806 168.35 323.806L199.623 265.591Z" fill="#FADD6F"/>
<path opacity="0.54" d="M140.97 225.735L128.176 219.77C128.176 219.77 138.126 221.023 147.869 210.184L140.97 225.735Z" fill="#E0704A"/>
<path d="M138.399 77.7955C138.399 76.4671 139.363 75.3769 140.629 75.1701L146.168 66.561L132.076 57.4944C131.588 58.0584 130.873 58.4218 130.071 58.4218C128.593 58.4218 127.396 57.225 127.396 55.7463C127.396 55.3515 127.49 54.9756 127.64 54.6372L114.764 46.3477L111.775 50.9906C112.076 51.4229 112.252 51.943 112.252 52.5069C112.252 53.9856 111.055 55.1824 109.576 55.1824C109.413 55.1824 109.263 55.1636 109.106 55.1322L94.5508 77.7453L125.948 97.9587L138.486 78.4847C138.436 78.2591 138.399 78.0336 138.399 77.7955ZM101.424 80.4647C99.9456 80.4647 98.7488 79.2679 98.7488 77.7892C98.7488 76.3105 99.9456 75.1137 101.424 75.1137C102.903 75.1137 104.1 76.3105 104.1 77.7892C104.1 79.2679 102.903 80.4647 101.424 80.4647ZM120.366 64.9757C120.366 63.497 121.562 62.3003 123.041 62.3003C124.52 62.3003 125.717 63.497 125.717 64.9757C125.717 66.4545 124.52 67.6512 123.041 67.6512C121.562 67.6512 120.366 66.4545 120.366 64.9757ZM123.856 90.4711C122.377 90.4711 121.18 89.2743 121.18 87.7956C121.18 86.3169 122.377 85.1201 123.856 85.1201C125.334 85.1201 126.531 86.3169 126.531 87.7956C126.525 89.2743 125.328 90.4711 123.856 90.4711ZM131.299 78.2591C129.821 78.2591 128.624 77.0624 128.624 75.5837C128.624 74.1049 129.821 72.9082 131.299 72.9082C132.778 72.9082 133.975 74.1049 133.975 75.5837C133.975 77.0624 132.778 78.2591 131.299 78.2591Z" fill="url(#paint1_linear_4084_45606)"/>
<circle cx="221.243" cy="9.24147" r="8" transform="rotate(99.7688 221.243 9.24147)" fill="#BBDCAF"/>
<defs>
<linearGradient id="paint0_linear_4084_45606" x1="67.4554" y1="3.72389" x2="261.344" y2="158.949" gradientUnits="userSpaceOnUse">
<stop stop-color="#4A86F7"/>
<stop offset="1" stop-color="#2448B1"/>
</linearGradient>
<linearGradient id="paint1_linear_4084_45606" x1="86.5178" y1="39.8734" x2="170.144" y2="83.0165" gradientUnits="userSpaceOnUse">
<stop stop-color="#E283AE"/>
<stop offset="1" stop-color="#D94841"/>
</linearGradient>
</defs>
</svg>
