<svg width="54" height="81" viewBox="0 0 54 81" fill="none" xmlns="http://www.w3.org/2000/svg">
<path opacity="0.3" d="M45.4138 74.7295C45.0566 74.3702 44.8525 74.165 44.5974 73.9083C44.5974 73.857 44.5974 73.6517 44.5974 73.4977C44.1381 72.9845 43.6278 72.4712 43.2196 71.958C42.8114 71.5474 42.5053 71.0341 42.097 70.6235C41.6378 70.1615 41.2296 69.6483 40.7704 69.2377C40.3622 68.8271 39.7498 68.5192 39.4947 68.0059C39.1885 67.39 38.5252 67.1847 38.1169 66.6714C37.7598 66.1582 37.3005 65.7476 36.8923 65.2857C36.8923 65.2857 36.8413 65.337 36.7392 65.4397C35.3615 64.2592 33.9328 63.0274 32.1468 62.2575C32.1468 62.2062 32.0448 62.0522 31.9937 61.8469C31.8917 61.9496 31.7896 62.0009 31.6876 62.1035C30.7691 61.5903 29.7486 61.1796 28.8301 60.615C27.7075 59.9478 26.4318 59.5886 25.4113 58.7674C24.901 58.3568 24.1867 58.1001 23.5233 57.9461C23.1151 57.8435 23.2171 57.5869 23.0641 57.3816C22.911 57.4843 22.8089 57.5356 22.6048 57.6383C21.8394 57.2277 21.125 56.817 20.3086 56.4064C20.4617 56.2524 20.5638 56.1497 20.6658 55.9958C20.4107 55.6365 20.4617 55.1232 19.5943 54.9693C20.0025 54.8153 20.2576 54.7127 20.6148 54.61C20.2066 54.2507 20.0535 54.0968 19.8494 53.8915C19.6963 53.9941 19.5432 54.0967 19.3902 54.1994C19.186 54.0967 18.9309 53.9428 18.6758 53.7889C18.6758 53.6862 18.6758 53.5322 18.7268 53.5322C19.084 53.3783 19.4411 53.2243 19.7983 53.019C19.9004 52.3518 19.2881 52.403 18.9819 52.1464C19.0329 52.095 19.135 51.9924 19.186 51.9411C19.084 51.7871 19.033 51.5818 18.9309 51.4279C19.2881 51.1712 19.5942 50.9659 20.0535 50.658C21.2271 50.5553 22.5538 50.5553 23.8295 50.35C24.4928 50.196 25.2072 50.3501 25.7685 50.0421C26.4829 49.7342 27.1462 50.0421 27.7586 49.7855C28.4219 49.5289 29.1362 49.6828 29.7485 49.4775C30.4119 49.2722 31.1263 49.4262 31.7386 49.2209C33.1673 48.7589 34.7492 48.8103 36.178 48.1431C36.7903 48.2971 37.4026 47.7838 38.0149 48.1431C38.6783 47.7325 39.3926 47.6298 40.107 47.4758C41.1275 47.2705 42.046 46.706 43.1176 46.706C43.4237 46.706 43.7299 46.4493 44.2401 46.244C42.9135 45.8847 41.7909 45.5254 40.4642 45.1148C40.3621 45.0122 40.107 44.7042 39.8519 44.345C39.4436 44.4476 39.1375 44.5503 38.8313 44.653C37.5557 44.191 36.0759 44.1397 34.9533 43.0618C34.5451 43.5751 33.9328 43.1645 33.4735 43.3185C31.9937 42.5486 30.4119 42.4972 28.728 42.0353C28.728 42.0353 28.5749 41.83 28.4219 41.6761C27.8095 41.4708 27.1972 41.7787 26.5849 41.3681C26.1257 41.0601 25.4623 41.0089 24.901 41.0602C24.2377 41.1115 23.5743 40.9576 23.1151 40.7009C22.5027 40.393 21.9415 40.5983 21.3291 40.4443C21.2271 40.3417 21.0741 40.1364 20.8699 39.9311C19.4922 40.085 18.1145 39.7771 16.6347 39.6744C16.4816 39.5205 16.3796 39.3151 16.1754 39.1098C15.7162 39.1098 15.308 39.1098 14.7467 39.1098C14.8998 38.9045 15.0018 38.8019 15.1549 38.5966C14.4405 38.6479 14.0323 38.2886 13.6751 37.724C13.7262 37.5701 13.8282 37.4674 13.9303 37.3134C13.2159 36.5949 12.5015 35.825 11.8382 35.1578C11.9402 34.7985 12.0423 34.4906 12.1443 34.1313C12.2464 34.08 12.4505 33.9773 12.6036 33.8747C12.6036 33.772 12.6036 33.6693 12.6036 33.5667C12.4505 33.5153 12.2974 33.4641 12.0423 33.3614C11.9913 32.5402 12.4505 31.9756 13.0118 31.4624C13.6752 31.3597 13.6751 31.3597 14.0834 30.5385C13.7772 30.6925 13.6752 30.7951 13.4711 30.8464C13.42 30.7437 13.42 30.5898 13.369 30.3845C13.6751 30.3332 13.9303 30.2818 14.2365 30.2305C14.1344 30.0765 14.0324 29.974 13.9813 29.9226C14.4916 29.2041 15.0019 28.4855 15.5632 27.7156C15.6652 27.7156 15.8693 27.7156 16.1754 27.7156C16.0224 27.5617 15.9714 27.459 15.8693 27.305C16.0224 27.2537 16.1755 27.2023 16.3796 27.151C16.3796 26.9457 16.3796 26.7404 16.3796 26.5351C16.5837 26.3298 16.6857 26.2272 16.8388 26.0732C17.145 26.3299 17.6552 26.3811 17.7062 26.8944C18.1655 26.2785 17.6042 26.0219 17.196 25.56C17.4511 25.56 17.7063 25.5086 17.9104 25.5086C18.2676 24.944 18.7268 24.4307 18.7268 23.6609C18.7268 22.9936 19.3901 22.6857 20.0535 22.4291C19.9514 22.2751 19.9004 22.1725 19.7473 22.0185C20.0025 21.9672 20.2066 21.9158 20.5127 21.8645C20.5127 21.8132 20.5127 21.7106 20.4617 21.4026C20.7168 21.0433 21.1761 20.5814 21.4312 20.0168C21.7374 19.1956 22.6049 18.939 22.911 18.1178C23.1661 17.3993 23.6764 16.732 24.2377 16.1161C25.0031 15.2949 25.5644 14.2684 26.2277 13.2932C25.9216 13.2932 25.7175 13.2932 25.4623 13.2932C25.4113 13.4472 25.3093 13.6012 25.2072 13.8578C25.0031 13.7038 24.799 13.6012 24.5949 13.4986C24.2377 13.7039 23.8295 13.9091 23.5233 14.1657C23.2171 14.371 22.7579 14.4223 22.7579 14.9356C22.2476 14.7816 21.9415 15.1922 21.6353 15.5002C21.5333 15.3975 21.4823 15.3463 21.4312 15.2949C20.3086 16.4241 18.9309 17.1426 17.5021 17.7585C17.1449 18.1177 16.7878 18.4771 16.4306 18.8877C16.2265 18.8877 16.0224 18.8877 15.9713 18.8877C15.359 19.3496 14.7978 19.7089 14.2365 20.1708C14.0834 19.8629 13.9813 19.7089 13.8282 19.401C13.42 19.6063 13.0629 19.8628 12.7057 20.0681C12.8077 20.4274 12.8587 20.7354 12.9608 21.0433C12.1444 21.6079 11.379 22.1212 10.4095 22.7371C10.5115 22.1725 10.8177 22.0699 11.0218 21.8132C10.4605 21.4539 10.3584 22.0699 10.0522 22.2239C9.89916 22.1212 9.79712 22.0185 9.49096 21.8132C9.43993 22.0699 9.33787 22.3265 9.28684 22.5831C9.23581 22.5318 9.13375 22.4291 9.08272 22.3777C9.18477 22.5317 9.28688 22.7371 9.38893 22.9424C9.03174 23.1477 8.72557 23.3016 8.41941 23.4042C8.26633 23.3016 8.16424 23.199 8.06219 23.0964C7.96013 23.199 7.85809 23.2503 7.75604 23.4042C7.80706 23.7635 7.90913 24.1741 7.96016 24.5847C6.83757 25.252 5.766 25.8678 4.69443 26.4837C4.64341 26.4324 4.64343 26.4324 4.59241 26.3811C4.69446 26.2785 4.74546 26.1759 4.94957 25.9192C4.23519 26.0732 3.67394 26.1758 3.01059 26.2785C2.85751 25.7652 2.70443 25.252 2.50032 24.5335C2.50032 24.5335 2.24519 24.3282 1.99005 24.1229C3.36778 23.199 4.49034 22.0699 5.66395 21.0433C7.24578 19.6062 9.08274 18.477 10.7666 17.1426C12.5015 15.7568 14.4406 14.6277 16.2775 13.3446C17.3491 12.626 18.3696 11.8562 19.4412 11.1889C20.9209 10.2137 22.4007 9.18724 23.9826 8.36604C24.6459 8.00676 25.1562 7.39086 25.9726 7.08291C26.636 6.87761 27.1972 6.26163 27.8096 5.85103C29.3404 4.72187 30.9732 3.69539 32.402 2.41226C33.3205 1.59106 34.392 0.872529 35.5146 0C35.9228 0 36.4841 0 37.1985 0C37.1985 0.410602 37.3516 0.821204 36.9434 1.28313C37.3005 1.33446 37.6577 1.38576 37.9639 1.38576C38.6272 2.51491 38.7293 3.74667 38.5762 5.18377C38.4231 5.28642 38.168 5.49183 37.7088 5.79978C37.6577 5.8511 37.3005 5.95373 36.8413 6.15903C36.9944 6.62096 37.0964 6.92883 37.2495 7.23678C36.8923 7.75004 36.5351 8.26336 36.1269 8.72529C35.7697 9.13589 35.8208 9.85445 34.9533 9.75179C35.1574 9.9571 35.2084 10.0084 35.3615 10.1624C34.6981 10.419 34.9023 11.4456 33.9838 11.4456C33.9328 11.7022 33.9328 11.9074 33.8818 12.1641C33.7797 12.2154 33.6266 12.2154 33.5245 12.2667C32.9122 13.9091 31.6876 15.2435 30.616 16.6293C30.616 16.732 30.6671 16.8859 30.616 16.9886C30.3609 17.3992 30.1568 18.0151 29.7996 18.1691C29.1873 18.4257 29.2383 19.2983 28.4219 19.247C28.4219 19.6062 28.3708 19.9141 28.3708 20.2221C28.2178 20.2734 28.0647 20.3248 27.8606 20.4275C27.8606 20.5814 27.8606 20.7867 27.8096 21.0433C27.5034 21.3513 27.0952 21.7106 26.6359 22.1725C26.4828 21.8645 26.3808 21.6592 26.2788 21.4026C26.0236 21.7619 25.8195 22.0698 25.6154 22.3777C25.7174 22.5317 25.7685 22.6344 25.9215 22.891C25.7174 23.045 25.4623 23.0963 25.3092 23.3016C25.1562 23.4556 25.1562 23.6609 25.0541 23.8662C25.1562 23.9689 25.2582 24.1229 25.4113 24.3795C25.1561 24.5335 25.0031 24.6361 24.6459 24.8414C24.5438 24.8414 24.2887 24.7388 23.9315 24.6361C23.9315 24.7901 23.9315 24.9953 23.9315 25.2006C23.4723 25.4572 23.1151 25.6112 23.013 26.2271C22.8089 27.2536 22.1456 28.1776 21.6353 29.1528C21.5843 29.3067 21.2782 29.3581 21.1251 29.4094C21.2271 29.512 21.2781 29.6146 21.2781 29.6146C20.8699 30.0766 20.5638 30.5385 20.1556 30.8978C19.7473 31.257 19.1861 31.4623 18.5737 31.7703C18.4717 32.0782 18.7268 32.1809 19.4922 32.0269C18.9819 32.4375 18.8289 32.5402 18.6248 32.6942C18.4717 32.5915 18.2676 32.5402 17.9104 32.3349C18.0634 32.7455 18.1655 33.0022 18.2675 33.2588C18.2165 33.3614 18.1145 33.4641 18.0124 33.618C18.1655 33.7207 18.3186 34.0286 18.4206 33.9773C19.033 33.8746 19.5432 34.1825 20.0025 34.4392C21.023 34.1825 21.8904 34.7471 22.8599 34.8498C23.8805 34.9524 24.952 35.1577 25.9215 35.4657C26.891 35.7736 27.8606 36.0816 28.8301 36.1843C29.8506 36.2869 30.8201 36.6462 31.7896 36.8002C32.8101 36.9541 33.8307 37.2621 34.8002 37.6214C35.7187 37.9807 36.7392 38.032 37.6577 38.3913C38.6272 38.7506 39.6477 39.0585 40.6683 39.2124C41.6888 39.4177 42.5563 39.8796 43.5258 40.0849C44.4953 40.3416 45.4648 40.5982 46.3833 40.9062C47.3528 41.2141 48.3223 41.6248 49.2918 41.9841C50.2103 42.292 51.1798 42.6512 52.2003 42.9592C52.4554 43.2158 52.7616 43.5238 53.0678 43.8317C52.9657 43.9344 52.9147 44.0371 52.8127 44.1397C52.7616 44.7556 53.2719 44.7556 53.5781 44.9096C53.6801 45.5255 53.7822 46.0901 53.8842 46.706C53.8332 46.7573 53.7311 46.8599 53.6801 46.9626C54.3434 47.6811 53.8332 48.297 53.425 48.8616C53.0167 49.4262 52.4554 49.8881 51.9452 50.4014C50.6185 50.6067 49.4449 51.6845 47.9141 51.2739C47.8631 51.4792 47.863 51.6332 47.812 51.8385C46.9956 51.9925 46.1282 52.0951 45.1587 52.3004C45.1587 52.3517 45.1076 52.5057 45.0566 52.6084C44.2912 52.8137 43.5258 53.0703 42.7604 53.2242C42.4542 53.2756 42.046 53.3782 41.8419 53.2242C41.2806 52.865 40.7703 52.865 40.209 53.2242C39.9539 53.3782 39.5457 53.3269 39.2396 53.5322C39.5968 53.5322 39.9029 53.5322 40.3111 53.5322C40.2091 53.6862 40.209 53.8401 40.158 53.8401C39.4436 53.7888 38.7803 54.0455 38.1169 54.2508C37.5556 54.4561 36.9433 54.5588 36.5351 54.3021C36.0249 53.9942 35.5656 54.2508 34.9023 53.9941C35.1064 54.3021 35.1574 54.3534 35.2084 54.456C34.392 54.9693 34.0348 55.1233 33.3715 54.8154C32.8612 54.5588 32.402 54.764 31.9427 54.8666C32.2999 54.918 32.6571 54.9693 33.3204 55.0206C32.4019 55.2259 31.7896 55.3286 30.8712 55.5339C33.0653 56.5091 34.6982 57.9462 36.4841 59.1266C38.3211 60.3585 39.1375 61.1283 40.2601 62.5654C40.4642 62.822 40.8214 62.976 41.0765 63.1813C41.4847 63.5919 41.7909 64.1052 42.1991 64.5158C42.5563 64.8751 43.0665 65.1317 43.4237 65.5423C44.3422 66.5688 45.1076 67.8006 46.0771 68.7758C46.1791 68.8785 46.1282 69.135 46.1282 69.3403C46.3323 69.443 46.5874 69.5456 46.7405 69.7509C47.4038 70.6748 48.0672 71.5987 48.5774 72.6252C48.9856 73.4464 49.4959 74.1649 49.8531 75.0375C50.2103 75.8587 50.2613 76.7312 50.5165 77.5524C50.7716 78.4249 50.5164 79.3488 50.1082 80.2214C49.1387 79.3488 48.2203 80.4266 47.1997 80.3752C47.659 80.4266 48.1182 80.4267 48.5774 80.478C48.5774 80.5293 48.5774 80.6319 48.5774 80.6833C48.2713 80.6833 47.9651 80.6833 47.659 80.6833C47.4038 80.6833 47.0976 80.6833 46.8425 80.6833C46.5363 80.6833 46.1792 80.5806 45.9751 80.9399C45.822 80.5293 45.4648 80.9912 45.3117 80.8372C45.0055 80.5293 44.8525 81.1965 44.5463 80.9399C44.3422 80.7859 44.0871 80.7346 43.832 80.6833C43.5258 80.6319 43.2196 80.6833 42.9135 80.6833C42.8114 80.4266 42.7604 80.2726 42.7093 80.016C42.6073 80.2726 42.5563 80.4266 42.5052 80.6319C42.3521 80.6319 42.1991 80.6833 41.8929 80.6833C41.6378 80.4266 41.3317 80.1187 41.0255 79.8107C40.7704 79.8107 40.6172 79.8107 40.4131 79.862C40.3621 80.0673 40.26 80.2213 40.209 80.4266C40.107 80.17 40.0049 80.016 39.9029 79.8107C39.8008 79.8107 39.6988 79.8107 39.5967 79.8107C39.4947 80.016 39.4436 80.1699 39.3416 80.3752C38.5252 80.1186 37.8108 79.7594 36.9434 79.7594C36.5351 79.7594 36.1269 79.5028 35.7187 79.2975C35.7187 79.2975 35.6677 79.3488 35.5656 79.4001C34.8512 79.1948 34.1369 79.0409 33.2694 78.7842C33.5756 78.5276 33.7797 78.3736 33.9838 78.2196C33.5245 78.1683 33.2694 78.1683 32.8101 78.3736C32.7591 78.3223 32.7591 78.3223 32.7081 78.271C32.6571 78.2197 32.555 78.1169 32.504 78.0656C32.453 78.1169 32.4019 78.2197 32.2999 78.271C32.2489 78.3223 32.2489 78.3223 32.1979 78.3736C31.8407 78.271 31.4835 78.117 30.9732 77.963C30.9732 77.6037 30.9732 77.1932 30.9732 76.7312C30.9222 76.6799 30.8711 76.6799 30.7691 76.6286C30.667 76.7826 30.565 76.9879 30.3609 77.2445C30.4119 77.3471 30.514 77.5011 30.7181 77.8604C30.0547 77.7064 29.5445 77.5524 29.0342 77.4497C28.9832 77.2958 28.9832 77.1418 28.9321 77.0391C28.2178 77.501 27.7075 77.1418 27.1972 76.7312C27.0441 76.5773 26.84 76.5259 26.6359 76.4232C26.1767 76.2693 25.7174 76.1666 25.1561 76.0126C25.1561 76.0126 25.1051 75.8587 25.0541 75.6021C24.799 75.6021 24.4928 75.6534 23.9826 75.6534C24.0846 75.7047 23.9825 75.6021 23.8805 75.5507C23.013 75.2428 22.1456 75.0375 21.3291 74.6782C21.2271 74.6269 21.125 74.6782 21.074 74.6268C20.5127 74.4729 20.2576 73.7544 19.5943 73.8057C19.033 73.857 18.6247 73.3951 18.1655 73.2411C17.6552 73.0871 17.145 72.8305 16.5837 72.6252C16.4306 72.5739 16.2775 72.4198 16.1244 72.4198C15.9714 72.3685 15.7672 72.4198 15.4611 72.4198C15.308 72.2659 15.1549 72.0093 15.0529 71.8553C14.6957 71.8553 14.3895 71.8553 14.0834 71.8553C13.5221 71.2908 12.9608 70.6749 12.0423 70.7262C11.9402 70.7262 11.8382 70.7262 11.7872 70.6748C10.9707 69.751 9.74608 69.751 8.77657 69.1351C7.85809 68.5192 6.73549 68.2113 5.76598 67.6467C4.49031 66.9281 3.26572 66.1069 1.99005 65.3371C1.888 65.2857 1.7859 65.183 1.68384 65.0291C1.07152 63.9512 0.510267 62.822 0 61.7955C0.15308 61.1283 0.255109 60.5638 0.357162 59.7939C0.561269 59.6399 0.969495 59.4346 1.32668 59.2293C2.09208 59.5372 2.80648 59.7425 3.52086 60.1018C4.23523 60.4097 4.89858 60.7691 5.56193 61.231C6.99067 62.1549 8.57248 62.7707 10.0012 63.5919C10.8687 64.1052 11.8892 64.3105 12.6036 65.0804C14.2364 65.491 15.6652 66.3635 17.196 67.0821C17.8593 67.39 18.4717 67.8006 19.186 67.9546C19.8494 68.1085 20.4617 68.4165 21.1251 68.6218C23.1661 69.3404 25.1561 70.0589 27.1972 70.7775C28.2688 71.1367 29.3404 71.496 30.4119 71.804C31.4835 72.1119 32.6061 72.3172 33.6776 72.7278C35.5146 73.3437 37.4026 73.4977 39.2396 74.011C40.2091 74.3189 41.2806 74.2676 42.3012 74.319C43.1176 74.7296 44.0871 74.7295 45.4138 74.7295Z" fill="white"/>
</svg>
